<?xml version="1.0" encoding="utf-8"?>
<!-- Generator: Adobe Illustrator 18.0.0, SVG Export Plug-In . SVG Version: 6.00 Build 0)  -->
<!DOCTYPE svg PUBLIC "-//W3C//DTD SVG 1.1//EN" "http://www.w3.org/Graphics/SVG/1.1/DTD/svg11.dtd">
<svg version="1.1" id="Layer_1" xmlns="http://www.w3.org/2000/svg" xmlns:xlink="http://www.w3.org/1999/xlink" x="0px" y="0px"
	 viewBox="27.1 58.9 493.6 283.1" enable-background="new 27.1 58.9 493.6 283.1" xml:space="preserve">
<g transform="matrix( 1, 0, 0, 1, 0,0) ">
	<g>
		<path id="Layer0_0_1_STROKES" fill="none" stroke="#000000" stroke-linecap="round" stroke-linejoin="round" d="M340,62.3
			c21.8-0.6,32.4,9.6,45.6,25.5c5.9-0.3,9.9,12.4,8.8,16.6c5.6,5.2-9.7,5.1-11.6,2.8c-6.7,7.5-5.5,11.3-2.2,19.9
			c5.7,14.6,21.8,2.7,33.9,2.7c3.4,0.2,6.9,1.7,8.7,4.8c1,1.7,6.8,11.4,6.9,13.6c0.2,4.9-3.3,12.1-8.7,12.9
			c0.5-3.2-1.9,10.8-0.5,7.4c-1.1,0-10,1.2-6.5,4.2c-0.1,0.1,8.6-3.3,7.6-0.8c0,4.1-7.1,1.7-8.3,3.8c0,5,11-3.5,11,0.9
			c0,1.1-14.2,4.8-7.2,5.6c1.5-0.3,5.4-3.8,7.3-1.9c3.3,1.4-5.7,4.9-5.7,3.4c3.2,0.6,11.5-0.2,11.4,4.4c7.4-1.6,3.1-12.4,4.4-19.8
			c0.6-3.9,19.1-14.3,22.9-12.6c4,3.1,8.3,19.2,0.9,20.2c-5.1,0.7-10.6,0.1-15.7,0.1c3.2,6.5,8,10,14.9,10.7
			c11.2,1.1,20.2,3.7,30.6,9.4c-1.3,4.2-4.7,7-8.4,8.9c48.1,23.8,53.3,91,10.5,122.6c-43.6,32.3-108.6,2.3-113.1-51.5
			c-3,3.7-6.9,7-11.9,7.5c-0.3-2.2-2.5-19.6-0.4-20.1c-2.6-6.5,3.2-22.6,7.8-30.3c2.1-8.3,27.5-29,25.5-33.7c-5.4,2.5-6-4.8-2.2-6.5
			c-11.5,6.1-31.1,11.9-37.6,24c-9,16.7-6.2,37.2-24,47.5c-7.7,4.5-21.5,5.5-20.5,14.9c0.5,5-3.1,4.8-8.4,5.3
			c-8.7,0.9-5.9,10.1-11.3,17.2c0.9,3.4,8.4,8.3,10.9,10.8c2.9-4.4,8.7-3.1,12.5-6.5c3.3-3,12.4,1.5,10.2,4.1
			c0.8,5-19.6,18.6-25.2,23.1c-2.7-0.8-8-6-5.3-8.4c8.3-7.7,6.7-8-1.7-14.8c-9.2-7.5-16.6,5.5-28.9,5.5c-8,0-16.2-3.2-23.8-5.3
			c-9.9-2.8-19.8-5.6-29.8-8.4c-3.9-1.1-23.2,24.7-30,29c-35.1,21.8-82.6,7.3-101.3-29c-12.9,23-14.1-13.6-19.4-12.6
			c-4,0.7-4.9-6-1.1-7c2.3-0.5,0.5-14.9,0.7-18.1c0.8-14.2,5.2-28,13.1-40c2.9-4.4,6.3-8.3,9.8-12.3c-2.6-4-4.2-8.2-5-12.9
			c-8.7,2.1-17.4,4.9-26,7.4c0.6,1.2,0.9,2.5,0.9,3.9c18.5-3.7,8.1,4.7-1.4,10.8c-4.5,2.3-9.2,4.1-14,6c-7.9-4.5-4.7-9.5,1.2-12.1
			c-3-6.1-3.8-3.7-9.2-2.3c-3.2-6.7-5.8-7.9,1.2-11.4c10.2-5.2,20.4-10.4,31.1-14.8c5.4-2.3,30.2-8.3,30.2-13.4
			c0-5-30.7,5.2-34.3,3.4c-6.8-4.8-11.3,2.7-15.2-6.5c0-0.4-1.3-3.5-1.5-4c2.5-2.8,6.5-3.9,6.5-7.5c0.3-2.8,35.2-19.2,16.7-22.9
			c-7.4-1.7-15.6,8-20.5,0.6c17.2-8.6,35.6-15,54.2-19.8c3.9-0.9,7.6-1.4,11.6-1.6c5.6,0.2,10.2,7.8,13.2,11.7
			c5-1.2,10.2-4.3,13.8,0.2c6,1,11.6,0.1,14.1,7.2c2.1,5.7-8.6,18.4-12.7,20.4c-3.3,9.9,3.6,4.2,11.3,7c6.7,2.4,11.9,10,16.6,14.8
			c-13.1,3.9-26.6,6.2-39.7,10c0.1,0.5,0.3,1,0.4,1.5c19.3-4.2,44.2-1.8,60.8,10.1c6.7,3.4,10.2,11.7,17.4,7.7
			c7-3.9,14.2-7.5,21.4-10.9c-2.8-6.2-3.9-7.7-6.6-13c-2.7-5.3-2.4-7.7-8.2-5.7c-3.5,1.2-3.4-4.6-8.5-3c1.3,0.1,1,8.1,1,10
			c0,9-16.9-2.5-17.4-5.1c-1.4-4.8-8.6-6.5-12.4-12.2c-6-8.9-12.4-25.9,5.3-26.3c10.7-0.2,20.8,4.1,31.2,5.5
			c12.8,1.7,20.5-7.6,31.9-7.6c18.8,0-1.6,17.9-6.9,21.4c-3.4,2.3-6.9,4.4-10.6,6.2c-2.4,2.9,4.5,5.2-1.8,7c1.7,3.2,3.5,6.5,5.2,9.8
			c0.8-0.4,1.5-0.9,2.3-1.3c1,1.4,2.1,3.4,2.6,5.1c-0.8,0.3-1.6,0.7-2.4,1c2.4,10.2,27.9-6.2,34.6-8.6c12.3-4.7,24.7-9.3,37.3-13.4
			c0.6-6.8,2.9-6.4,8.9-8.2c17.9-5.3,35.7-10.6,53.6-15.9c14.7-4.4-6.4-21.3,4-33.4c2-2.3,5.8-13,6.1-13.3
			c-3.3-6.6-16.1-18.7-23.2-21.3c-7.7-2.8-13.9,1.5-19.1,1.5c-4.4,2.1-8.8,1.3-13.3,1.9c-8.4-1.4-19.4,1.8-18.1-9.6
			c1.3-10.3,19.2-6.9,27.7-6.6c7.6,0.2,11.3,4.1,9.1,12.2 M377.5,93.7c4,0.2,7.2-2.1,8.1-5.8 M384.8,106.4c3.2-2.7,5.8-4.5,8.3-7.8
			 M394.5,104.4c-0.9,1.2-2,2.4-3.1,3.4 M375.8,102.1c3,1.4,5,2.6,7.1,5.1 M374.1,135.4c2.7-1.3,5.8-2.3,8.8-2.6 M304.9,164.4
			c3.1-1,6.3-2.1,9.4-3.1c0.1,1.9,0.5,2.7,0.2,4.1c14.4-5.2,48.7-20.5,62.7-10.5c1.2-1.5-1.7-12.8-3.9-11.9c-2.3-4-13.2,2-16.6,3.1
			c-17.2,5.2-34.4,10.6-51.5,16.2 M372.2,141.2c-0.5-0.7-0.9-1.4-1.3-2 M374,142.8c5.6-2,16.1-1.8,14.4-8.2 M389,137.2
			c4.8-1.3,8.7-1.6,12.8-3.5 M401.9,136.3c5.4-5.7,19.8-7.5,20.9,2.9c-8-4-16.7,0-24.5,2.2c1.4-4,4.3-7,7.1-2.2 M399.9,135.8
			c-6.5,7.3-14.6,10.4-21.2,17.5 M388.8,147.9c1.6-0.9,3.2-1.8,4.9-2.5c-6.6,13.3-23.6,41.1-40.1,39
			C367.8,174.2,373.8,156.5,388.8,147.9c0.5,1.2,0.9,2.3,1.4,3.5 M388.1,146l-2.6-6.6 M377.2,154.9c-5,7.2-9.3,14.5-16.1,20.4
			c-5.6,4.8-7.4,10.6-13,3.9c-1-0.9-0.5-0.3-2.3,0c1,2,2.5,3.7,4,5.3c-8.7,6.2-10.2,3.8-16.4-1.6c-0.5,0.3-0.9,0.5-1.4,0.7
			c3.6,12.3,16.3,3.5,23.8,3c10.6-2,20.5-12.6,27.1-20.4c4.4-5.2,8.1-11.3,11.3-17.4c4.3-8.4,19.7-11,28.2-7.3c-1.3,5.1-2.9,4-6,5.8
			c3.1,2.6,5.9-0.5,7.7-4.6c5.5,4.9,4.8,13.4-2.6,16.2c-0.7,0.3-0.2,2.4-0.1,2.4 M391.1,153.9c3.7,9.6,7.5,19.2,11.2,28.9
			c1.2,3,1.4,8.1,4.9,7c1.6,4.4-0.5,4.4,0.4,7.1c2.5-1.5,5.1-2.8,7.8-3.9c-2.2-2.8-1.8-5,1.2-6.4c0.2-0.2,1.7-0.7,1.6-0.8
			c-0.7-1.2-6.2-11.9-5-11.9c-2.1-1.2-10.8-27.3-9.6-29.8c2.5,0.1,3.3-0.6,2.6-3.1 M375.5,157.1c-13.9-7.5-58,5.4-63.9,18
			c9.6-3,41.8-18.9,51-14.4c13.9,5.2-12.2,17.6-14.5,18.4 M365.5,167.1c-1,2.9-4.6,3.6-7.1,4.4c-2.9,0.9-5.7,1.8-8.6,2.7
			c1.8,2.9,1.1,4.4-1.9,4.6 M346,179.4c-3.2,0.7-3.1,0.9-4.9-2.2c-5.3,1.7-4.9,4.9-7.2,5.9 M346.2,179.8c-4,1.3-8,2.4-12.1,3.7
			 M341,177.1c2.8-1.1,5.9-2,8.8-2.9 M334.5,179.3c-2.7,0.8-5.3,1.8-8,2.6c1.6,2.9,2.9,2.5,5.6,1.7 M332.3,184
			c-5.7,1.6-11.5,3.2-17,5.3c7.4,0.7,38.2,12.8,39.9,9.1c5.2-12.1,26.8-14.7,26.8-31.2 M378.6,156.1c0.8,0.6,1.5,1.3,2.1,2.2
			c-0.4-1-0.9-2.1-1.3-3.1 M381.6,164.5c-0.6-2.7-2.2-4.8-4.4-6.3 M390.2,184.1c-2-5.8-4.1-11.5-6.2-17.2
			c3.5,13.9-17.5,23.3-23.3,32.9c9.6-7,20.7-12.2,31.8-16.6c1.2-3.7-6.1-15.8-7.5-19.6 M384,161.2l-2.9-7.7 M396.7,194.1
			c2.7-1.4,5.5-3,8.5-3.7 M398.6,199.6c2.8-1.4,5.7-2.8,8.5-4.1 M392.5,183.2l3.9,9.9 M380.4,151.5l-3.6-9.5 M404.3,134.4
			c1.9,0.8,3.3,2.1,4.4,4 M406.6,143.4c2.7,0.1,3.7-0.6,2.8-3.2 M406.6,143.4c5.6-2.9,6.8,0.2,10.1,3.7 M410.4,148.1
			C412.7,145.8,410.4,151.6,410.4,148.1C410.6,147.9,410.4,148.7,410.4,148.1z M404.6,147.5c3.2-0.8,6.3-1.7,9.5-2.5 M439.9,163.8
			c0,4.3,1.1,8.7,3.2,12.4 M417.6,148.7c0.3,1.3-0.1,2.7-1.5,3.2c-0.2,4.5,3.8,4.1,5.1,7.7 M415,156.6
			C418.6,156.6,413,156.6,415,156.6C415.8,156.6,414.7,156.6,415,156.6z M412.2,149.9C412.2,148.5,412.2,152.7,412.2,149.9
			C412.2,149.6,412.2,150.2,412.2,149.9z M410.1,153.6c1-0.7,1.7-0.4,2.4,0.9C412.5,156.2,409,154.7,410.1,153.6
			C410.2,153.4,410.1,153.6,410.1,153.6z M407.4,151.6c-0.9-0.5-0.9-1.2,0-1.9C409,150.6,409,151.2,407.4,151.6
			C406.9,151.1,408.2,151.6,407.4,151.6z M410.4,159.5C413,159.5,407.8,159.5,410.4,159.5C410.9,159.5,409.9,159.5,410.4,159.5z
			 M415,162.6c-1.6-0.8-1.6-1.5-0.1-2.1C416.3,161.1,416.3,161.8,415,162.6z M413.2,165.3C410.5,165.3,415.1,165.3,413.2,165.3
			C412.6,165.3,413.5,165.3,413.2,165.3z M412.5,170.8c0.6-0.4,1.9-1.1,2.4-0.7 M418.4,172.1c-1,0.4-2,0.9-3,1.3
			C421,173.2,418.5,171.7,418.4,172.1z M411.2,168l8.8-2.6 M419.5,163.6l-2.1-7.5 M417.7,178.1c2.2,0.5,4.1,0.1,5.8-1.2
			C421.2,175.9,419,178.2,417.7,178.1C421.5,178.1,417.6,178.1,417.7,178.1z M422.1,182.3c4.2-1.3-0.9-0.8-2.2,0.1
			C420.6,182.4,421.4,182.3,422.1,182.3C422.8,182.1,421.6,182.4,422.1,182.3z M421.7,185.2c-1.2,0.2-2.5,0.4-3.7,0.8 M407.6,196.9
			c0.4,1.1,0.8,2.2,1.2,3.2c5.1-2.8,13.7-3.3,12-9.3c-1.4,0.3-11.8,4.9-5.5,2.2 M422,194.2c3.3,10.6,20,72.2,25.9,70.6
			c1-3.3-5.1-16.4-6.2-19.7c-2.3-7.3-4.5-14.6-6.8-21.9c-1.8-5.8-8-35.9-14.2-32.3 M424.6,189.8c1.8-0.7,4.2-1.1,6-1.5 M425.6,193
			c6.3-2.5,14.2-3.3,21-3.3c6.2,0,18.3,4.7,19.6-1.6 M426.5,195.6c12.2-4.1,29.5-0.2,39.1-4 M435.4,187.4c5.5-0.8,11.8-1.6,17.3-0.8
			 M453.6,176.2c1-5.8,0.2-12.8-1.5-18.5 M457.8,176.2c0.1-6.7,0.1-13.7-2.2-20.1 M465.2,193c-5.7,23.8-10.9,47.8-16.3,71.6
			c1.6,0,3.3,0.6,4.2,2c6.2-25.7,12.6-51.4,18.6-77.2 M470.8,193.9c3.6,0.7,5.6,1.2,9,1.2c-2.8-1.2-5.7-2-8.7-2.6 M416.1,151.9
			l-1.8-6 M480.1,205.2c-5.2,2.6-6.9,1.9-12.1,0.4 M467.1,208.8c53,15.3,59.8,88.9,13.2,116.2c-20.7,12.1-48.4,10.9-67.9-3
			c-10.6-7.5-19.2-18.2-23.6-30.4c-2.6-7.3-0.5-25.9-8-26.2c-0.5,6.9,1.1,5.2-3.4,10.9 M462.6,204.3c-11.2-2.8-22.2-0.9-33.1,1.2
			 M458.6,222.1c-7.8-1.5-16.1-1.1-23.6,1.2 M430.5,208.8c9.9-3,21.4-3.5,31.5-1.3 M462.5,228.3c36.8,11.9,39.5,64.6,4.7,80.9
			c-14.1,6.7-31.8,4.9-44.3-4.5c-6.7-5.1-12.1-11.9-15-19.8c-2.1-5.6,0.5-17.7-6.6-17.3c-2.3,37.6,42.1,62.4,73.4,42.4
			c33.6-21.5,27.8-74.8-11-86.8 M436.4,227.9c6.8-2,14.2-2.2,21.1-0.9 M444.9,265.2c-19.3-16.1-28-41.7-36-65 M399.6,202.1
			c11,25.7,17.4,55.8,44.8,68.1c-0.3-1.9,1.3-2.9,1.5-4.3 M422.7,234.9c3.1-2.5,6.8-4.5,10.5-5.9 M414.1,236.4
			c-6.6,6.9-11.1,15.8-12.4,25.3c6.2,0.5,9.1-15,14.4-20.8 M420.8,230.5c3.3-2.5,7-4.6,10.9-6.1 M413.5,212.6c4-2.5,8.1-4.5,12.5-6
			 M414.9,215.9c3.9-2.5,7.9-4.5,12.2-6 M438.2,259.6c1-1.3,2.3-2.3,3.9-3 M405.3,268c13.3,1.5,26.6,2.9,39.9,4.2
			c-0.4-0.6-0.7-1.3-0.8-2 M434,271.2c2.3,31.6,50.1-0.2,21.6-14.8 M434.5,273.8l-26.6,11.1 M435.5,276.7l-24.3,15.1 M410,249.8
			l15.4,7.6 M434.9,265.5l-29-3.4 M430.2,262.4l-23.3-4.7 M451.1,255.1c-2-0.3-4.2-0.2-6.1,0.4 M445.8,266c0,0,0.1-0.1,0.1-0.1
			 M447.9,264.9c0.3-0.1,0.7-0.2,1.1-0.2 M453.2,266.6c3.9,5.1-4.8,11.3-8,5.6 M483.9,295.4l-22.3-17.3 M481.2,240.8l-21.8,18.4
			 M447.6,255l0.6-28.8 M439.5,227.1l6.4,28.1 M456.6,257l18.6-21.8 M400.9,205.1c-10,6.7-19.2,16.2-23.4,27.6
			c7.6-8.3,15.6-17.5,24.9-23.9 M406.2,217.9c-13,10.3-21.6,25.1-24.6,41.4c7.1,2.1,8.2-14.7,11.4-20.4c3.7-6.6,8.8-12.7,14.6-17.6
			 M353.2,201.3c4.6,3,2.7,1.8,7.5-1.6 M356.1,203.4c-11.7,10.3-10.7,24-16.7,37.4c-4.1,9.2-16.7,21.8-28,20.6
			c0-10.2-7.9-18.3-17.2-19.5c-4.6-0.6-31.2,0.6-32.1-1.1c-4-7.5-8.1-15.1-12.1-22.6c-4.4-8.3-3.6-8.6-12.4-5
			c4.7,9.6,9.4,19.1,14.1,28.7c-5.5,0.5-11.4,2.2-16.9,2.2c-11.3,1.9-7.4-3.8-16.4-8.8c0.7,1.2,3.7,7.5,2.2,7.8
			c2.3-0.2,3.4,0.5,4,2.9c-2.3,0.3-4.7,0.5-7.1,0.8c1.3-10.3-5.7-19-18.8-19c5.1,6,9.2,13.1,11.7,20.5c-17.2,2.6-39.1,5.6-54.6,13.4
			c7-15,21.6-25.6,35.2-34.2c-17.8,6.3-32.9,9.7-44.1,25.8c-4.3,6.2,4.4,4.4,8,8.6c-2.6,0.9-16.9,4.5-16.4,8.4
			c0.6,5.2,2.1,6.4,6.6,5c-15.8-5.7,16.2-15.1,5.4-1.7c34.4-9.8,70-15,105.6-17.4c8.7-1.7,22-2.4,28.1,4.4
			c9,10.2-1.2,24.6,16.4,24.8 M401.3,267.6l-15.9-1.8 M386,259.8l15.8,1.9 M380.9,265.4l-15.6-1.8 M365.6,257.5l16,1.8 M301.4,331.6
			c9.4-6,18.8-13.5,26.8-21.1 M440.8,282.5l-12.8,25.6 M435.2,311.2l8.6-27.1 M451.8,284.7l4.9,27.8 M455.2,283.6l11.9,25.6
			 M463.9,268l28.1-3 M463.1,264.7l26.6-10.1 M462.6,276.5l26.6,9.7 M410,203.4c4.4-2.8,8.6-5,12.8-6.6 M195.5,153.9
			c8.5,0.6,17.5-0.3,25.8-2c3.7-1.2,10.6-4.5,14.3-4.5c-12.6,4.2-23.3,9.8-36.8,11.5c-6.6,0.7-30.7-1.1-24.8-12.2
			C177.6,152.9,188.7,153.9,195.5,153.9C196,153.9,195.1,153.9,195.5,153.9z M207.1,171.8c-6.9,1.5-13.8,1.5-20.9,1.9 M128.7,187.9
			c1.8,5.3,9.9,1.6,15.2,1.4c9.2-0.3,17.9,4.1,26.6,4.1c9.9,3.3,18.6,7.2,26.1,14.6c-0.3,0.2-0.3,0.6-0.2,1
			c-19.1-11.7-43.4-18-65.6-13.4c-0.5,11.4,7.6,7,15.6,7c10.4,0,20.8,2.1,30.1,6.8c8.2,4.2,17.1,1.7,26.3,3.5
			c5.4,1,7.8,2.7,12.6,0.7c30.6-16,63.6-27.6,96.2-38.5 M197,173.3c-1.2,0.1-2.3,0.2-3.5,0.3 M194.8,176.4c3.8-0.3,6.8-0.3,10.2-2
			C203.2,174.6,194,176.1,194.8,176.4C196.1,176.2,194.5,176.3,194.8,176.4z M192.6,178.7c1.1,0.1,2-0.2,2.7-0.9
			c-1.5-0.1-3.2,0-4.7,0.1C191.2,178.2,191.9,178.5,192.6,178.7C193.8,178.7,192.6,178.7,192.6,178.7z M197.6,181.2
			c2.7-2.3-1.4-0.6-3.5-0.8C194.3,180.9,197,181.8,197.6,181.2C197.8,181,197.5,181.3,197.6,181.2z M197.8,178.8
			c-2.7,0.2,8.9-0.5,6.8-1.6C202,175.5,197.1,180.5,197.8,178.8z M190.9,175.8c1.1-0.3,2.2-0.6,3.2-0.9c-2.1,0.1-4.3-0.1-6.3-0.6
			C187.2,175.5,190,175.6,190.9,175.8C191.8,175.5,190.8,175.7,190.9,175.8z M208.1,171.6c6.6-1.6,12.8-3.9,18.9-6.8 M223.8,166.3
			c2.8,3.9-0.8,9.5-5.6,8.8 M220.6,167.6c6,0-7.1,10.5-4.1,1.5 M213.5,170.1c0,1.9,1.8,3.9,3.6,4.6 M202.9,180.6
			c-1.2,0.3-2.3,0.7-3.5,1C202.9,181.3,204.8,179.2,202.9,180.6z M230.4,181.6l-6.9,3.8 M233,182.7c0,0.7-7.5,5.9-7.5,3.6
			C225.5,186.2,233,179.5,233,182.7z M235.6,191.3c-1.4,0.7-1.6-2.2-1.5-2.9 M233,186.4l-7.4,3.2 M315.2,165.1
			c0,1.3-0.4,2.6-1.1,3.8 M245.7,210.1c26.7-10,53.8-19,80.8-28.2 M308.2,188.2c2.4,0.4,4.7,0.8,7,1.2 M47.5,138.8
			c14.5-5.3,29-11.3,43.9-15.6c5.1-1.5,10.7-3.2,16.1-3.2c9.5,0,7.7,9.1,17.4,6.8 M71,144.9c15.1-7.5,31.7-12.3,47.9-16.6
			 M79.9,154.4c0.5-1.1,1-1.1,1.7,0.1C81.6,156.2,79.9,155.4,79.9,154.4z M75.4,152.6C75.4,152.3,76.6,152.6,75.4,152.6
			C75.4,152.3,75.4,152.6,75.4,152.6z M73.1,158.4c1.1-1.1,2.1-0.8,2.8,0.8C75.9,162.2,71.3,160.2,73.1,158.4
			C73.5,158,72.7,158.7,73.1,158.4z M126.8,147.3c-7.7,5.1-18.2,7.4-27,10c-10.5,3.1-30.6,13.4-35.2,0.1c-1-3.2,31.3-12.8,34.7-13.9
			c7.5-2.4,15.1-4.8,22.8-6.5C129.7,135.2,130,144.2,126.8,147.3C126.8,147.4,126.9,147.3,126.8,147.3z M67.1,159.7
			c-1.4-0.5-1.5-1.1-0.2-1.8C68.2,158.6,68.3,159.2,67.1,159.7z M54.8,154.4c0.8,9.2,4.9,15.1,10.5,22.2 M43.9,168.1
			c4.1-2.8,6.3-2.6,5.9-7.2 M50.2,163.7C50.2,163.8,50.3,163.8,50.2,163.7 M44.7,170.2c4-2.2,6.7-1.5,5.6-6.5 M45.2,171.7
			c2.1-1.3,4.4-2.2,6.9-2.8c-0.4-0.7-0.7-1.4-1.1-2.1 M46.3,173.8c2.4-1.2,4.8-2.2,7.4-2.9c-0.5-0.7-1-1.4-1.5-2.1 M28.9,206.9
			c21.9-10.5,44.2-20.6,67.2-28.3c4-4.1,20.7-6.3,26.4-7.4c15.1-3.2,28.4-4.2,40.6,6.7 M80.3,199.4c-0.5-3.1-6.3-8.5-2.8-11.3
			c0-3,7.8-0.8,7.8,3.1c0,4.9-3.9,2.7-3,7.7c4.4-1,8.7-2.4,12.9-3.7c-1.2-3.5-8.7-7.2-4.4-11.6c8.7-8.4,5.8,9.9,6.2,11.1
			c4.7-1.4,13.2-2.2,6.7-8.1c-2.4-2.4-1.6-7,2.1-7.7c9.7-2.2,1.6,11.2,1.6,12.8c6.8-2.1,14.1-3,20.9-5.2 M81.8,195.6
			c-0.2-1.9-0.1-3.7-0.9-5.3c-2,1.2-1.5,3-1.2,5.3 M79.4,193.6c-10.5-5.7,13.5-3.5,2.2,0.2 M53.7,170.9c0.9,1.1,1.8,2,2.8,2.7
			 M144.8,148.2c-0.2-7.3-1.3-15.3-5.9-21.2 M130.8,125.4c8.5,5,10.3,20.8,9.3,29.2 M122.9,138.4c1.6,0.7,1.6,1.4,0,2.1
			C121.4,140.5,121.2,138.4,122.9,138.4z M121.6,147.1C120.9,146.7,120.9,146.7,121.6,147.1L121.6,147.1z M125.8,144.1
			c0.5-0.8,1.1-0.8,1.8,0.1C127.7,145,125.8,145,125.8,144.1z M144.1,127.3c-4.8,4.1,4.6,9.2,8.7,6.8 M95.1,145.6
			C96.6,146.4,93.7,145.6,95.1,145.6C95.2,145.7,94.9,145.6,95.1,145.6z M102.8,146.3c-2.2,0,5-0.7,3.3-0.5
			C106.2,148,102.8,148.3,102.8,146.3C102.8,146.3,102.8,146.3,102.8,146.3z M102.8,146.4C102.9,146.5,102.9,146.4,102.8,146.4
			 M104.6,147.6c-0.2,0-0.3,0-0.5,0 M117.7,141.2c1.3,0.6,1.3,1.2-0.2,1.9C116.3,143.1,116.2,141.2,117.7,141.2z M115.6,139.6
			C115.6,140.3,114,140.4,115.6,139.6C115.6,140.1,115.6,139.6,115.6,139.6z M114.2,147.3c-1-0.5-0.9-1.1,0.3-1.6
			C115.7,146.4,115.6,147,114.2,147.3C113.7,146.9,115,147.3,114.2,147.3z M113.6,142.4C113.6,144.8,113.1,139.3,113.6,142.4
			C113.6,142.7,113.5,141.9,113.6,142.4z M110.8,151.1c-0.2,2.6-2.3,0.2-2.6-0.7C109.4,149.3,110.2,149.5,110.8,151.1
			C110.8,151.8,110.6,150.2,110.8,151.1z M139.4,161.5c-15.5,3.4-30.5,8.8-45.5,14 M137.9,156.2c-13.7,7.3-29.7,11.4-44.7,14.7
			 M97.7,149.6c1.4,0.8,1.4,1.6-0.1,2.4C96.4,152,95.7,149.6,97.7,149.6z M94.9,150.4C94.9,153.2,94.9,148.2,94.9,150.4
			C94.9,151,94.9,150.1,94.9,150.4z M91.9,156.5c0.6,0.6,1.1,1.2,1.7,1.8c-1.2,1.1-2.3,1-3.3-0.2C90.8,157.5,91.4,157,91.9,156.5z
			 M84,149.6c0.6-0.8,1.2-0.7,1.8,0.3C85.2,150.9,84.6,150.8,84,149.6z M83.9,155.9C83.1,152.4,85.3,159,83.9,155.9
			C83.8,155.7,84,156.2,83.9,155.9z M93.7,191.2c-0.5-1.4-5.4-7.2,0.3-7.2c4.6,0,1.1,5,1.8,6.9 M95.2,189.2c0-1.1-0.4-2.1-1.1-2.9
			c-1.8,0.4-1.3,1.3-0.9,3.1 M95.2,195.1c1.7,4.9,3.5,9.7,6.6,13.9c4.8,5.9,6,9,9.7,15.5c-14.9-1.3-26.5-11-29.2-25.7 M105.5,192.2
			c-0.1,6.5,1,13.1,1.8,19.6c-5.5-3.9-8.1-11-10.2-17.1 M107.6,187.6c0.1-1.7-0.5-3.5-0.5-5.1c-2.4-1.2-1.5,3.9-1.5,5 M105.7,185.7
			c-11.4-4.8,13.9-4.3,2,0.1 M99.3,200.4c2.1-1.3,4.2-2.7,6.4-4 M181.2,212.2c-14.7,1.1-36.6,12.3-50.3,8.8
			c-2.4-0.8-21.7-4.5-21.3-7.7c-1-7.2-1.8-14.4-2.1-21.7 M107.9,198.9c5-3.1,14-4.4,14.2-9.4c-5,1.4-9.8,3.4-14.4,5.8 M122.1,189.5
			l-0.4-1.6 M108.3,204.8c5.1-3.2,18.8-5.3,14.5-12.7 M130.6,195.7l-1.3-5.1 M132.7,203.9c0.3,7.2,10.3,2.3,15.4,2.6
			c9.2,0.2,17.7,2.6,26.1,6.2 M224.1,238.1c3.5,1.9,4.1,3.7,7.7,3.3c-2.4-4.7-11.3-6.5-15.2-9.8c-8.4-7.7-12.3-10.4-24-7.1
			c-16.8-4.5-34.6-1.3-51.7-2.2c18.5-4.2,37-10.4,56.3-8.1c13.5,1.6,42.8,9.2,42.8,25.7c7.6,0-2.7-11.4-4.7-13
			c-6.8-5.2-15.2-8.6-23.2-11.6 M156.7,222.4c-4.2-0.8-8.6-1.1-12.9-0.9 M111.6,220.4c-0.7-1.4-1.1-2.9-1.2-4.4
			c5.6,4.2,14,5.5,20.7,6.9C123.9,224.9,115.2,227.9,111.6,220.4C111.1,219.4,112.3,221.9,111.6,220.4z M137.1,221.4l-3.4-13.7
			 M130.4,220.9c-1.4-5.1-2.7-10.2-4.1-15.4c-6.1,1.8-11.4,4.6-16.8,7.8 M137.7,224.1c0.1,5.6,6.5,2.3,10.5,2.5
			c9.7,0.4,15.7,6.9,23.4,1.8c-9.9-6.1-28.9-6.3-40.1-3.3c2.1,7.8,1.1,14.4,10.2,14.9c-1.1-4.2-2.1-8.5-3.2-12.8 M135.3,239.1
			c-7.8-1.9-14.8-6-19.9-12.2c5.4,0.2,10.9-0.5,16.1-1.9 M125.6,226.3c-2.4,1.1-4.7,2.6-6.9,4.2 M122.6,233.4c3-2.1,6.5-3.7,9.9-4.8
			 M85.3,212.4c3.6,5.3,8.9,9,14.7,11.4c4.1,1.6,8.4,2.7,12.8,2.9c2.2,3.1,4.9,5.7,7.9,7.9c11.1,8.8,25.7,8.4,38.4,4.4 M162.8,224.1
			c8.7-0.4,17.2,0.4,25.9,1.6c-15,5.3-30.6,14.8-47,14.2 M154.3,227.2l-2.3,11.9 M146.2,239.9l-0.9-13.4 M100.8,203.7
			c1.7-1.2,3.4-2.4,5.1-3.6 M106.6,205.9c-1.1,0.6-2.2,1.3-3.2,2.1 M86.7,211c3.4-3.4,7.1-6.5,10.9-9.4 M89,213.8
			c3.2-3.2,6.7-6.1,10.2-8.9 M90.6,218.2c-6.8,6.1-12.9,12.9-17.9,20.5c2.9-8.9,8.4-16.7,14.9-23.4 M107.7,214.6
			c-2.9,2.1-5.7,4.4-8.3,6.8 M101.8,209.1c-3.3,2.4-6.5,5-9.6,7.7 M97.9,222.9c-14.8,15-21.6,35.6-19.2,56.5
			c6.5,0.6,4.8-22,6.7-28.3c3.1-10.2,9-19.1,16.5-26.6 M117.1,231.7c-13.3,10.5-20,27-18,43.9c5.6,0.4,4.8-17.8,7.3-23.3
			c3.2-7,8.3-12.9,14.4-17.6 M100.4,282.6c-5.3,1-10.6,2-15.9,3c13.5,56.2,92,63.8,118.2,13.6c-3.5-1-11.9-5.2-15.2-4.2
			c-6.9,10.5-17.6,18.6-30,21.4C133.1,321.8,107.2,307.2,100.4,282.6c11.6-2.3,23.3-4.4,35-6.5c-1.2-2.1-1.6-4.7-1.4-7.1
			c-10.3,2-20.7,3.9-31.1,5.8 M83.3,278.5l15.8-3 M104.3,281.9c1.3,4.8,3.5,9.3,6.4,13.3c4.1-2.8,26.6-15.6,24.7-19.1 M135.9,241.2
			c1.6,6,3.2,11.9,4.8,17.9c1.7-0.9,3.6-1.4,5.5-1.4 M146.9,257.7c0.3,0,0.6,0,1,0 M113.6,241.3c3.6,3.3,21.6,22.5,24.1,20
			c2.2-2.1-15.3-22.2-18-25.8 M104.8,256.4c5.5,1.9,11,3.9,16.5,5.8c8.2,2.9,10.5,6.4,15.2,0.3 M134.1,269c0.1-0.7,0.2-1.4,0.4-2.1
			 M138.6,260.5c0.6-0.5,1.3-1,2-1.4 M110.7,295.2c2,2.7,4.3,5.3,6.8,7.5c3.9-4.5,22-20.8,18.8-25.2 M117.6,302.7
			c4.7,4.2,10.3,7.4,16.3,9.1c1.9-8.5,10.1-26.6,3.9-32.6 M133.9,311.8c3.2,0.9,6.5,1.4,9.8,1.6c-0.1-7.5,3.2-28.5-2.9-32
			 M161.3,276.9c-2.5-0.2-3.5-0.8-5.1,1.1c4.5,3.1,26,18,29.6,10.5C177.6,284.6,169.5,280.8,161.3,276.9c11.5,1.6,27.7-6,39.6-7.2
			c14.1-1.7,29.2-2.1,43.4-1.4c0.1-0.4,0.2-0.9,0.2-1.3c-14.8,0-29.7-0.3-44.5,1.1c-9.8,0.9-39.7,4-42.9,8.6 M142.8,275.8
			c4.6,1,8-0.5,12.4-1.8c13-3.6,26.5-5.8,39.9-7.6c10.6-1.6,21.7-3.2,32.4-3.2c5.3-0.2,10.7-0.1,16-0.3c5.7-0.1,4.3-6.4,11.4-6.9
			 M153.1,280.9c-1.7,1.1-0.8,1,0.8,1.2c-1.2-2.2,1-2.2,2.4-4 M150.8,273.2c-1.3,1.6-3.4,2.2-5.4,1.7 M143.7,313.4
			c6.5,0.4,13.1-0.6,19.1-3c-5.1-12.7-5.8-24.8-19.5-28 M151.9,281.5c-1.9,0.9-4.7,1.2-6.2,1.2 M162.8,310.4c2.4-1,4.6-2.2,6.8-3.5
			c-4.2-6.6-9.1-20.3-17.1-22.1 M156.2,276.6l-7.8-0.5 M145.6,255.4l-3.4-13.6 M151.6,241.2l-1.5,7.9 M147.1,253.1l-0.8-11.1
			 M102.9,265.9l27.8,3.7 M62.7,215.5c-0.8-2-1.6-3.9-2.5-5.8 M54.3,206.8c-5.2,1.3-10.4,2.9-15.5,4.3 M41,215.4
			c4.6-2,9.2-3.5,14.1-4.6 M38.8,216.4c1.6,2.6,3.3,7.7,5.2,9.6 M36.5,218.9c2.1,0.3,3.1,3.7,3,5.5
			C36.9,226.1,35.1,218.9,36.5,218.9C37,219,36.4,218.9,36.5,218.9z M63,282.4l15.7-3 M82.2,302.2c2.4-4.4,0.8-16.4-5.4-15.2
			c-4.2,0.8-8.4,1.6-12.5,2.3 M79.9,286.5l4.6-0.9 M242.3,239.4c2-0.5,3.1,1.5,4,3.1 M286.2,262.9c-6.4-6.3-14.8-8.4-23.6-7.6
			 M267.5,264.4c-1.2,1.7,6.1,0.9,7.6,0.9c-2.6-1.7-3.3-2.9-2-3.6C271.2,261.6,268.8,262.8,267.5,264.4z M273.1,261.6
			c8.7,0,9,13.3,0.5,13.8c-5,0-9.5-5.1-6.6-10.2 M254.9,256.1c0.5,0,1-0.1,1.4-0.2 M262.6,255.3c-7,0.2-14.6,5.8-18,11.7
			 M262.4,255.4L262.4,255.4 M246,262.8c-0.7,1.2-1.1,2.3-1.3,3.7 M244.4,268.3c-1.3,9.5-6.8,14.5-2.5,24.7
			c7.4,17.1,30.3,22,43.8,9.1c-2.5-2.1-5.1-4.2-7.6-6.2c0,18.2-25.9-2.7-8-6.6c-15.7-1.5,1.1-21.3,5-6.5c-0.1-19.2,27.5,6.2,7.1,7
			c2.6,2.5,5.1,5.1,7.7,7.6c2.6-3.8,4.1-8.2,4.5-12.8 M250.6,276.8c-3.9-5.6,2.4-13.2,8.6-10.2C269.7,271.5,257.3,286.2,250.6,276.8
			c3.7,0.2,7.3,0.3,11,0.5 M261.2,293.9c-6.5,7.4-17.3-2.3-10.5-8.9C256.5,279.1,266.2,287,261.2,293.9
			C261,294.2,262.1,292.7,261.2,293.9z M243.3,273.6c-17.9-2.8-44.4-1.1-62,4.6c9.2,0.6,18.5,1.2,27.8,1.8c8,0.5,23.8,4.8,30.8,0.8
			 M243.3,273.4L243.3,273.4 M269.4,288.8c-7.5-6.2-1.4-14.1,5.1-6.5 M285.7,277c-2.7,0.1-5.4,0.2-8.1,0.2 M275,282.7l7.1,7
			 M278,295.8l-8-6.6 M208.9,253.6c22.1-2.8,44.3-5.6,66.6-6.7c7.4-0.4,15.7-1.2,22.2,3.2c4.5,3,9.7,23.7,11,23.8
			c-1-10-0.5-22.5-11.3-27.3c-13-5.9-29.1-2-42.7-0.7c-27.3,2.6-56,4.7-81.8,14.6c1.5-0.3,2-0.3,1.6,0.1
			C186,260.6,197.5,255,208.9,253.6C245.3,249,207.3,253.8,208.9,253.6z M219.4,211.6c5.5,3.6,12.2,3.6,18.2,1.6 M223,235.4
			c-3-6.5-6.8-12.6-11.4-18.1 M197.6,225.4c6.4-1.2,10.6-0.1,15.2,4.5C207.8,228,202.6,227.1,197.6,225.4
			C199,225.1,197.8,225.5,197.6,225.4z M219.4,243.2c0.1,0.4,1.2-0.1,1.3-0.2 M229.6,241.8c-1.2,0.3-1.3,2.1-1,3.2 M234.8,244.1
			c-0.5-2.3-1.5-3.2-3-2.7 M238.9,243.5c-0.7-2.2-0.3-3.5,1.2-3.7 M184,214c1.3,1,2.6,1.9,3.9,2.9c-2.8,1.8-5.6,3.6-8.4,5.6
			 M177.5,214.6c2.4,1.4,4.7,2.9,6.9,4.6 M177,224.3c-1.8,1.3-3.6,2.6-5.4,4 M180.1,234.9c5,5,9.1,10.6,11.6,17.2 M175.9,238.1
			c4.4,4.4,8.2,9.3,10.7,15.1 M167.3,231.8c-1.6,1.4-3.2,2.7-4.7,4.1 M191.2,227.2c2.9-1,4.4,0.4,7.7,0.4 M192.6,226.6
			c6.1,6.5,10.9,14,13.8,22.4 M175.8,291.6c2.1,2.5,5.2,4.9,7,2.1c-8.9-2.6-17.8-5.2-26.7-7.9 M181.3,278.2
			c-5.9-0.4-11.7-0.8-17.6-1.2 M243.6,272c-23.8-0.8-48.1,0.7-71.3,5.6 M184.6,290.8c7.2,3.2,8.2-6,9.2-11.8 M182.9,293.6l4.8,1.4
			 M185.8,288.5c1.5-3.1,2.5-6.4,3.1-9.8 M164.1,259.1l19.5-11.5 M189.3,292c14.6,4.1,17.2,5.7,19.8-12.1 M217.1,280.5
			c-0.8,6.2-2.5,12.3-5,18c10.8,3,21.7,6.1,32.5,9.1c-7.5-6.6-11.9-16.1-11.6-26.1 M202.8,299.2l7.9,2.2 M169.6,306.8
			c4.6-3,8.7-6.9,12-11.3 M314.8,309.2c3.8,0.3,6.4-1.9,9.8-2.2 M314.6,317.4c-1.6,4.3-8.2,2.7-6.8-2
			C309.3,311.6,315.7,313.1,314.6,317.4C314.5,317.8,314.8,317,314.6,317.4z M303.8,316.9c0.3-1.4,0.8-2.7,1.6-4 M290.8,306.2
			l-5.1-4.2 M289.7,297.4l4.8,4.8 M303.4,319.9c-0.6,4-2.7,5.7-4.9,8.7 M255.9,314.2c-4.2-1.4-8.1-3.7-11.3-6.7 M204.3,296.2
			l7.8,2.2 M153.8,282.1l13.9,3.9 M179,241.4L157.6,261 M126.3,205.5l-2.2-8.1"/>
	</g>
</g>
</svg>
