<?xml version="1.0" encoding="utf-8"?>
<!-- Generator: Adobe Illustrator 18.0.0, SVG Export Plug-In . SVG Version: 6.00 Build 0)  -->
<!DOCTYPE svg PUBLIC "-//W3C//DTD SVG 1.1//EN" "http://www.w3.org/Graphics/SVG/1.1/DTD/svg11.dtd">
<svg version="1.1" id="Layer_1" xmlns="http://www.w3.org/2000/svg" xmlns:xlink="http://www.w3.org/1999/xlink" x="0px" y="0px"
	 viewBox="77.3 98.5 460.5 545.6" enable-background="new 77.3 98.5 460.5 545.6" xml:space="preserve">
<g>
	<title>Layer 1</title>
	<g id="Layer_3">
		<g id="svg_4">
			<path id="svg_5" fill="none" stroke="#000000" stroke-miterlimit="10" d="M385.1,512.7c13.3-4.4,27.6-18.9,28.6-33.3
				c-3.6,8.5-12.8,14.6-19.4,20.7c1.3-8.7-1.8-17.1-4.2-25.3C388,487.4,387.1,500.1,385.1,512.7z"/>
			<path id="svg_6" fill="none" stroke="#000000" stroke-miterlimit="10" d="M394.9,456.6c-0.9,11.6-0.2,22.8,2.7,34
				c8.6-8.7,18.9-21,19.2-33.8c-4,6.1-8.8,12-14.3,16.8C401.4,467.7,397.7,461.8,394.9,456.6z"/>
			<path id="svg_7" fill="none" stroke="#000000" stroke-miterlimit="10" d="M404,467.2c-3.8-9.7-7.8-19.4-12.9-28.4
				c6,3.2,11.4,8.2,14.6,14.2c3.3-6.3,7.2-14.9,7.2-22.2C418.5,441.6,412.2,459.1,404,467.2z"/>
			<path id="svg_8" fill="none" stroke="#000000" stroke-miterlimit="10" d="M381.5,415.7c5.9,11,13,20.5,22.3,28.9
				c7.4-12.2,6.1-29.6-3-40.6c0.7,7.6,0.9,16.2-2,23.3C394.5,422,387.4,418.6,381.5,415.7z"/>
			<path id="svg_9" fill="none" stroke="#000000" stroke-miterlimit="10" d="M369,401.1c8.3,7.4,17.4,13.6,27.8,17.7
				c1.6-11.1-1.8-26.9-11.9-33.2c2.6,6.5,6,14.3,5.7,21.5C383.3,405.8,376,403.5,369,401.1z"/>
			<path id="svg_10" fill="none" stroke="#000000" stroke-miterlimit="10" d="M357.7,388.4c7.6,7.7,18.9,11.7,29.4,13.1
				c-1.7-10.5-11.1-19.7-19.4-25.7c2.7,5.9,5.4,12,8.9,17.5C370.3,391.5,364,390,357.7,388.4z"/>
			<path id="svg_11" fill="none" stroke="#000000" stroke-miterlimit="10" d="M346.2,376.1c7.3,7.1,15.1,11,25,13.1
				C367.7,378.2,356.3,376.2,346.2,376.1z"/>
			<path id="svg_12" fill="none" stroke="#000000" stroke-miterlimit="10" d="M383,493.7c-2,7.6-5.7,14.3-9.4,21.1
				c-1.3,2.4-11.6,24-5.8,23.5c17-1.6,32.4-16.9,36.2-33c-7.8,5.6-16,10.7-24.6,14.9C382.9,512.4,383.9,502.1,383,493.7z"/>
			<path id="svg_13" fill="none" stroke="#000000" stroke-miterlimit="10" d="M343.5,556.1c2.9-14.4,11.1-24.6,22.9-32.8
				c-2,6.2-4,12.4-5.8,18.6c6.6,0.1,16.4-1.7,21.8-5.8C377.2,545.7,355.3,568.8,343.5,556.1z"/>
			<path id="svg_14" fill="none" stroke="#000000" stroke-miterlimit="10" d="M352.2,562.6c-9.1,1.2-17.1-7.7-26.1-8.5
				c-5.6-0.5-11,1.4-16,3.7c-3.1,1.4-3.6,2.7-6.8,1.1c-3-1.5-6.2-2.8-9.4-3.8c-10.2-3.2-17.8,2.1-26.8,5.8c-9.2,3.9-18.5-0.5-26-6.1
				c4.1,9.6,16.9,15.9,26.8,13.5c12.3-2.9,22.3-13.7,35.5-7c-6,3.4-11.6,7.4-17.1,11.6c2.6,2.1,2.3,2.5,4.7,0.4
				c4.6-4,9.4-7.7,14.5-10.9c4.8,2.9,9.2,6.3,13.5,10c3,2.6,2.6,3.1,5.7,0.5c-5.4-4.2-11-8.4-17.1-11.6c12.4-6.3,21.9,2.8,33.2,6.4
				c10.6,3.3,24.7-2.1,29.1-12.9C364.6,558.9,358.9,561.7,352.2,562.6C346.9,563.3,357.5,561.9,352.2,562.6z"/>
			<path id="svg_15" fill="none" stroke="#000000" stroke-miterlimit="10" d="M225.9,512.7c-13.3-4.4-27.6-18.9-28.6-33.3
				c3.6,8.5,12.8,14.6,19.4,20.7c-1.3-8.7,1.8-17.1,4.2-25.3C223,487.4,224,500.1,225.9,512.7z"/>
			<path id="svg_16" fill="none" stroke="#000000" stroke-miterlimit="10" d="M216.1,456.6c0.9,11.6,0.2,22.8-2.7,34
				c-8.6-8.7-18.9-21-19.2-33.8c4,6.1,8.8,12,14.3,16.8C209.6,467.7,213.4,461.8,216.1,456.6z"/>
			<path id="svg_17" fill="none" stroke="#000000" stroke-miterlimit="10" d="M207.1,467.2c3.8-9.7,7.8-19.4,12.9-28.4
				c-6,3.2-11.4,8.2-14.6,14.2c-3.3-6.3-7.2-14.9-7.2-22.2C192.6,441.6,198.9,459.1,207.1,467.2z"/>
			<path id="svg_18" fill="none" stroke="#000000" stroke-miterlimit="10" d="M229.5,415.7c-5.9,11-13,20.5-22.3,28.9
				c-7.4-12.2-6.1-29.6,3-40.6c-0.7,7.6-0.9,16.2,2,23.3C216.5,422.1,223.6,418.7,229.5,415.7z"/>
			<path id="svg_19" fill="none" stroke="#000000" stroke-miterlimit="10" d="M242.1,401.1c-8.3,7.4-17.4,13.6-27.8,17.7
				c-1.6-11.1,1.8-26.9,11.9-33.2c-2.6,6.5-6,14.3-5.7,21.5C227.8,405.8,235.1,403.5,242.1,401.1z"/>
			<path id="svg_20" fill="none" stroke="#000000" stroke-miterlimit="10" d="M253.3,388.4c-7.6,7.7-18.9,11.8-29.4,13.1
				c1.7-10.5,11.1-19.7,19.4-25.7c-2.7,5.9-5.4,12-8.9,17.5C240.7,391.5,247,390,253.3,388.4z"/>
			<path id="svg_21" fill="none" stroke="#000000" stroke-miterlimit="10" d="M264.8,376.1c-7.3,7.1-15.1,11-25,13.1
				C243.3,378.2,254.7,376.2,264.8,376.1z"/>
			<path id="svg_22" fill="none" stroke="#000000" stroke-miterlimit="10" d="M228.1,493.7c2,7.6,5.7,14.3,9.4,21.1
				c1.3,2.4,11.6,24,5.8,23.5c-17-1.6-32.4-16.9-36.2-33c7.8,5.6,16,10.7,24.6,14.9C228.2,512.4,227.1,502,228.1,493.7z"/>
			<path id="svg_23" fill="none" stroke="#000000" stroke-miterlimit="10" d="M267.6,556.1c-2.9-14.4-11.1-24.6-22.9-32.8
				c2,6.2,4,12.4,5.8,18.6c-6.6,0.1-16.4-1.7-21.8-5.8C233.9,545.7,255.8,568.8,267.6,556.1z"/>
			<g id="svg_24">
				<path id="svg_25" fill="none" stroke="#000000" stroke-miterlimit="10" d="M324.8,461.2c0,10.6,0,21.3,0,31.8
					c-15.9-9.6-31.7-19.2-47.6-28.8c-5.7-3.4-8.3-3.1-15.2-3.1c-9.5,0-19.1,0-28.6,0c2.1,37.8,34.4,68.3,72.3,68.3
					s70.1-30.5,72.3-68.3C360.2,461.2,342.5,461.2,324.8,461.2z M250.5,473.7c4,0,8,0,12,0c3.2,0,6.5-1.5,6.5,2.1
					c0,8.6,0,17.2,0,25.7C260.3,494.2,253.8,484.5,250.5,473.7z M285.3,511c0-9.2,0-18.5,0-27.7c13.9,9.1,27.7,18.3,41.5,27.4
					C313.6,515.9,298.7,516.1,285.3,511z M338.5,504.3c0-9.6,0-19.2,0-28.8c0-3.5,4-1.9,7-1.9c5.1,0,10.1,0,15.2,0
					C357.1,486.1,349,496.9,338.5,504.3z"/>
				<path id="svg_26" fill="none" stroke="#000000" stroke-miterlimit="10" d="M284.9,427.8c6.9,14.9,13.8,29.7,20.7,44.5
					c6.9-14.9,13.8-29.7,20.7-44.5c2.9,4.9,5.9,9.8,8.8,14.6c2.3,3.8,2.5,6.6,6.8,6.6c11.9,0,23.8,0,35.6,0
					c-4-36.1-35.5-64.3-71.9-64.3s-67.9,28.2-71.9,64.3c11.6,0,23.3,0,34.8,0c4.7,0,4.4-1.2,6.9-5.5
					C278.7,438.3,281.8,433,284.9,427.8z M359.2,436.1c-2.8,0-9.6,1.4-12,0c-2-1.2-4.1-6.8-5.2-8.7c-4.7-7.8-9.4-15.7-14.2-23.5
					C342,410.1,353.5,421.8,359.2,436.1z M305.7,399.6c6.8,0,13.6,1.1,19.9,3.6c-6.6,12.9-13.3,25.7-19.9,38.5
					c-6.6-12.9-13.3-25.7-19.9-38.5C292.2,400.8,298.9,399.6,305.7,399.6z M252.1,436.1c5.7-14.4,17.2-26.2,31.4-32.1
					c-4.7,7.8-9.5,15.7-14.2,23.5c-1.7,2.9-3.5,5.8-5.2,8.6C263.5,437.1,253.7,436.1,252.1,436.1z"/>
			</g>
		</g>
	</g>
	<g id="Layer_2">
		<path id="svg_27" fill="none" stroke="#000000" stroke-miterlimit="10" d="M380.5,440.2c5.8-4.9,8.8-12,12.6-18.5
			c1.8-3.1-1.4-6,0-8.3c2.2-3.7,4.4-7.4,6.7-11c3.6,6.9,7.1,13.9,10.7,20.8c1.5,2.8,12.9-4.9,15.8-6.4c-4.7-4.8-8.9-9.6-13.3-14.6
			c-2.4-2.7-4.8-5.5-7.2-8.1c-1.6-1.7-0.2-4.4,0.8-6.5c3.4-7.3,6.8-14.6,10.2-21.9c1.6-3.4,3.1-6.7,4.7-10.1
			c1.2-2.7-2.7-4.1-4.8-5.8c-2.7-2.2-5.3,1.4-8,3c-2.6,1.5-9,2.3-9.4,5.3c-0.5,3.1-0.4,7.4,1.6,9.9c2.5,3.2,5.1,4.8,3.3,8.6
			c-1.5,3.2-2.1,5.8-4.9,7.9c-2.7,2-6.7,3.8-7.6,7.1c-0.9,3.6,3.3,3.8,1.4,7.3c-1.9,3.7-3.9,7.3-5.8,11c-7.7-7-7.3,10.3-7.5,13.9
			C379.2,429.9,378.8,434.4,380.5,440.2z"/>
		<g id="svg_28">
			<g id="svg_29">
				<path id="svg_30" fill="none" stroke="#000000" stroke-miterlimit="10" d="M481.1,278c-0.9-14.2-14.4-22.7-26.7-26.7
					c-13.9-4.5-27.3,1.8-32.9,15.3c-2.7,6.3-1.5,13.5,0.1,20c1,4.2,3.2,8.7,0.7,12.8c-2.7,4.5-7.9,6.9-10.2,11.8
					c-2.2,4.6,2.1,4.7,5.2,3.1c4.8-2.3,8.7,1.6,9,6.3c0.5,8.9-6.2,20.5-9.9,28.4c3,0.6,6,1.2,8.9,2.2c1.7-3.7,3.5-7.3,5.2-11
					c0.7-1.4,2.3-7.1,4-6.5c9.9,3.7,20-0.1,19.9-11.9c0-3.7-1-7.8,1.5-11c2.7-3.5,7.9-4.8,11.6-7.2
					C476.2,297.8,481.8,288.7,481.1,278C480,260.8,482.2,295.2,481.1,278z"/>
				<g id="svg_31">
					<g id="svg_32">
						<path id="svg_33" fill="none" stroke="#000000" stroke-miterlimit="10" d="M445.3,328.6c3.9,1.6,6.4-4.3,2.6-6
							C444,321,441.5,326.9,445.3,328.6C447,329.3,443.7,327.9,445.3,328.6z M447.4,325.1c-0.4,0.5-0.9,0.2-0.7,1.2
							C445.4,325.2,446.8,324,447.4,325.1z"/>
					</g>
				</g>
				<g id="svg_34">
					<path id="svg_35" fill="none" stroke="#000000" stroke-miterlimit="10" d="M444.7,277.5c3.6,1.7,7.1,3.3,10.7,5
						c0.7,0.3,2.9,1.9,3.7,1.7c1.7,0.7,3.1-2.4,1.5-3.2c-1.2-2-8.5-4-10.7-5c-0.7-0.3-2.9-1.9-3.7-1.7
						C444.6,273.6,443,276.8,444.7,277.5z M459.9,281.5c0,0.8,0,1.9-0.3,2.8C459.6,284,459.6,281.5,459.9,281.5z M459.3,281.7
						c-0.8,0.5-0.7,1.5-0.4,2.2C457.8,283,458,282.2,459.3,281.7z M448.4,276.2c3.4,1.5,6.7,3.3,10.1,5c-1.1,2.3-13.2-2.5-10.9-5.9
						C447.7,275.7,447.9,276,448.4,276.2C449.3,276.6,447.8,276,448.4,276.2z M445.3,275.2c-0.2,0.5-0.3,0.9-0.5,1.4
						c0.2-0.1,2.2-1.3,2.2-1c0,0.3-1.9,1.3-2.2,1.4C444,276.1,444.9,275.8,445.3,275.2z"/>
				</g>
				<g id="svg_36">
					<path id="svg_37" fill="none" stroke="#000000" stroke-miterlimit="10" d="M426.6,284.9c-0.6,11.3-4.1,27.5,2.6,37
						c0.4-0.9,1.8-2.9,1.7-3.9c-0.1-1.1-3.5-0.5-2.4-3.1s2.5-9.3,6.5-6.4c1.2-3.1,2.4-6.1,3.5-9.2c1-2.5-2.4-2.6-0.9-6.2
						c0.8-1.9,3.3-5,1-6C435.8,285.9,427.4,277,426.6,284.9C426.5,286.9,426.8,282.8,426.6,284.9z M429.5,317.5
						c0.5,0.6,0.4,0.9-0.4,1C428.6,317.9,428.7,317.6,429.5,317.5z M431.7,288.9c1,0.2,0.3,2-0.7,1.5
						C430,290.2,430.7,288.4,431.7,288.9C432.1,289,431.3,288.7,431.7,288.9z"/>
				</g>
			</g>
			<path id="svg_38" fill="none" stroke="#000000" stroke-miterlimit="10" d="M427.7,340.7c10.4-20.2,20.8-40.2,31.1-60.4
				c-3.8-1.5-7.7-3.1-11.5-4.6c-8.6,21.7-17.2,43.3-25.8,65C423.6,340.7,425.7,340.7,427.7,340.7z"/>
			<path id="svg_39" fill="none" stroke="#000000" stroke-miterlimit="10" d="M428.5,287.3c1.8,0,3.7,0,5.5,0c0.4,0,0.8,4.7,0.3,5.1
				c-0.6,0.6-4.5,0-5.5,0C428.1,292.4,428.5,288.1,428.5,287.3z"/>
		</g>
		<path id="svg_40" fill="none" stroke="#000000" stroke-miterlimit="10" d="M296.2,310.8c2.5-2.5,5.2-5.2,9.1-5.4
			c-2.7-3.6-8.7,1.9-9.7,4.7"/>
		<path id="svg_41" fill="none" stroke="#000000" stroke-miterlimit="10" d="M449.2,218.4c-2.5-2.8-4.8-6.2-5.6-10
			c-1.1-5.3,2.1-7.2,5.7-10c2.7-2.1,4.8-5.2,6.5-8.2c5.6-9.6,8.6-21.1,7.7-32.2c-3.8-47.8-69.9-56.4-106.2-58.5
			c-52.3-3.1-105.9,8.3-147.8,41c-16.5,12.9-32.4,29.3-41.9,48.1"/>
		<path id="svg_42" fill="none" stroke="#000000" stroke-miterlimit="10" d="M486.2,425.2c-4.7-6.3-11.1-7-18.2-5.1
			c0.7,2.5,2.6,1.8,4.4,3.1c2.4,1.7,3.6,5.3,4.6,7.9c-3.9-5.1-6.8-7.1-13.1-8.7c-3.6-1-9.9,1.2-13.8,1.6c-5.1,0.4-11.3-0.6-15.9,1.7
			c-0.1-0.8-0.6-1.2-1.4-1.1c0.7-1.8-7-9.9-10-9.3c-5.1,1-12.6,2.3-14.7,7.9c-2.6,7,1.8,9.9,6.7,13.9c2.3,1.8,3,4.5,5,6.4
			c1.8,1.7,4.6,0,6.8,0.8c12.6,5,27.6,0.2,40.6-0.5c5.2-0.3,11.5,0.8,16.4-1.1C490.3,440.1,489.7,429.8,486.2,425.2
			C483.4,421.4,488.7,428.4,486.2,425.2z"/>
		<path id="svg_43" fill="none" stroke="#000000" stroke-miterlimit="10" d="M409.8,380.9c9.2,4.6,16.9,10.2,21.6,19.5
			c1.6,3.3,4.1,8.4,2.9,12c-0.9,2.8-1.6,7.8,0.4,9.3c4.6,3.6,19.2,1.2,25.1-0.4c9.1-2.5,25.1-8.1,28.7,6c-1.5-7.5-4.7-14.2-8.4-20.8
			c-3.6,2.5-7.9,4.9-12.4,3.4c-0.6-0.2-2.2,1.2-3,1.2c-1.3,0-2.8-0.7-3.9-1.4c-2.1-1.3-5.3-4.7-4.8-7.5c0.5-2.1,2.8-3.9,3.1-5.5
			c0.3-1.4-2.2-5.6-2.2-7.6c-0.1-2.1-1.5-3.6-3.4-4.7c-2.1-1.1-7,0.8-8.4-0.5c-1.2-1.1-2.9-0.4-4.3-1.1c-2.1-1-4-2.2-6-3.4
			c-4.8-2.9-8.8-6.3-13.3-9.6c-3.4-2.6-5.2-4.5-7-0.2C412.9,373.5,411.4,377.2,409.8,380.9z"/>
		<path id="svg_44" fill="none" stroke="#000000" stroke-miterlimit="10" d="M431.3,446.3c-2.2,3.5,1.7,7.7-2.8,11
			c-4.3,2.8,3.2,9.6,4.9,10.8c11,7.9,24.5,5.4,36.5,1.6c4.8-1.5,9.3-1.1,9.5-6.7c0.1-4.2,4-7.4,4.1-12.2c0.1-3.7,5.4-7.7,6.2-11.7
			c1-4.9,0.5-7.5-1-12.2c0.9,4.2,1.2,9.5-1.2,13.2c-2.6,4.1-10.7,4.2-15.1,3.8c-6.7-0.7-13.8,1.1-20.4,1.9
			C446.4,446.4,436.5,449.3,431.3,446.3z"/>
		<path id="svg_45" fill="none" stroke="#000000" stroke-miterlimit="10" d="M536.9,503.8c-1.3-3.3-10.6-5.8-13.7-7.5
			c-6.9-3.5-13.9-7-20.7-10.7c-8.1-4.4-15.3-11.8-24.3-14.3c-1-0.3-6-2-6.9-1.2c-0.9,0.8,0.8,4.4-0.1,5.3c-8.5,8.2-25.5,9.1-35,2.7
			c-1.1-0.7-6.1-6.2-6.7-5.8c-5.7,3.6-9.1,8.3-12.5,14.1c-2.8,4.9-6.3,9.4-8.2,14.8c-2.4,6.7-3.6,13.7-5.7,20.5
			c-1.3,4.1-0.7,7.5-3.1,10.5c-2.4,4.2-8,6.9-12.3,8.1c-5.6,1.6-12.9,10-9.2,16.1c1.4,2.3,4.7,3.5,6.5,5.6c3.3,3.7,6.3,7,10.4,9.8
			c2.2,1.5,5.2,3.4,8.1,2.5c2-0.6,7.6-3.6,6.7-6.1c-2-5.5,1.6-12.2,4.4-16.7c1.2-2,4.5-3.1,6.2-4.9c2.3-2.5,4.6-5.8,6.2-8.9
			c3.2-6.5,7-12.1,12.1-17.3c10.2-10.3,23.7-18.6,37.4-23c-3,1.3-5.9,2.6-8.8,4.1c-1.7,0.9-6.9,3.2-7.7,4.6c9-0.7,18.5-0.8,27.5,0.7
			c4,0.7,8.6,2.6,12.7,2.2c5.1-0.5,11.2-2.4,16.2-2.1c-4,2.3-9.5,3-13.9,3.8c-2.7,0.5-4.6-1.5-4.6,1.6c0,4.1,10.2,2.4,12.6,2
			c-2.1,0.7-4.4,1.9-6.6,2.1c-1.6,0.3-4.4-1.9-5.4-0.4c-0.7,0.9,1.9,1.1,2.2,1.1c0,0-3,3-3.3,3.2c-3.9,2.4-6.7,3.6-2.1,6.9
			c5.4,3.8,10.2,5,15.8,7.6c5.3,2.4,10.8,0.3,16-1.4c5.3-1.7,1.1-4.5,3.2-8.7c2-4.1,1.4-7.6,2.7-11.7
			C533.8,510,538.7,507.4,536.9,503.8C536.5,502.8,537.4,504.8,536.9,503.8z"/>
		<path id="svg_46" fill="none" stroke="#000000" stroke-miterlimit="10" d="M430.2,472c0-1.5-0.3-4.1,0.1-6.5
			c0.5,0.3,2.1,1.1,2.4,1.3c-1.1,4.2,1,4.8,4.4,7.7c-1.5-0.4-8.9-5.3-5.9,0.7c-0.9-0.7-0.6-2.1-1.4-2.9"/>
		<path id="svg_47" fill="none" stroke="#000000" stroke-miterlimit="10" d="M462.7,366.8c5.6-2,14.7-2.7,17.5,4.3
			c0.9,2.4-3.1,1.4-0.5,4.1c2.2,2.3,0.8,4.6,1.7,7c0.6,1.8-4,0.7-5,0.7c-3.4,0-9.6-0.4-11.2,3.5c-0.6,1.5,1.4,8.8,3.3,8.8
			c2.1,0,11.8-3.8,12.7-2c2,4.1,0.4,7.3-0.5,11c-0.5,2.3-6.3,4.3-8.2,4.4c-5.9,0.6-7.9-1.5-9.8-7c-1-3-3.4-5.3-4.3-8.3
			c-0.9-2.9-0.5-6.3-1.2-9.3C456,378,455.5,369.2,462.7,366.8z"/>
		<path id="svg_48" fill="none" stroke="#000000" stroke-miterlimit="10" d="M461,367.5c13.6-9.1,30.2,0.2,26.9,16.5
			c-0.9-0.2-8.7-1.8-8.7-1.7c0.3,1.1,3.7,1.2,4.5,1.4c5,1.3,4.4,3,2.6,7.5c-0.6,1.5,0.4,3.1-0.4,4.6c-0.9,1.3-1.6,2.8-2.3,4.3
			c-1,2.1-2.9,5.3-5.2,6c3.3-1.1,4.9-3.2,6.6-6.2c1.7-3.1,1.1-5.9,2.4-8.8c2.1-4.6,2.2-9.8,1.7-14.8
			C487.7,362.5,471,360.2,461,367.5z"/>
		<path id="svg_49" fill="none" stroke="#000000" stroke-miterlimit="10" d="M480.5,393.2c1.2,0.6,4.5,5.5,5.8,2.2
			c-0.5,0-6.6-1.6-6-2.4"/>
		<path id="svg_50" fill="none" stroke="#000000" stroke-miterlimit="10" d="M480.5,392.9c0.1-0.4-1.1-5,0-5c0.9-1.9,7-1.9,7,0.6
			c-1.6-0.4-3-0.8-4.7-0.8c-3.8-0.2-1.3,4.6-1.7,6.2C480.9,393.6,480.7,393.2,480.5,392.9"/>
		<path id="svg_51" fill="none" stroke="#000000" stroke-miterlimit="10" d="M468.1,387.6c1.4-0.8,8.7-1.3,8.7,0.5
			c0.7-0.2,1-0.7,0.9-1.4c-1.3-0.4-2.5-0.8-3.7-1.2C472.6,385.1,468.4,385.6,468.1,387.6"/>
		<path id="svg_52" fill="none" stroke="#000000" stroke-miterlimit="10" d="M468.9,391.5c2.7-0.2,5.4,0.1,8.1-0.2
			c-0.2,1.5-7.1,0.9-7.8,0.2"/>
		<path id="svg_53" fill="none" stroke="#000000" stroke-miterlimit="10" d="M474.6,391.6c-0.4,0.2-1.2-2,0.4-2
			c1.9-0.1,0.7,3.2-0.6,2"/>
		<path id="svg_54" fill="none" stroke="#000000" stroke-miterlimit="10" d="M482.4,391.9c-0.5-0.1,3.8,0,3.8,0.2
			C486.3,393.1,482.7,392.9,482.4,391.9"/>
		<path id="svg_55" fill="none" stroke="#000000" stroke-miterlimit="10" d="M484.4,391.9c-0.9-0.6-0.1-1.9,0.7-1.9
			c2.7,0-1.4,2.8-0.9,1.7"/>
		<path id="svg_56" fill="none" stroke="#000000" stroke-miterlimit="10" d="M374.6,577c3-1.2,9.5,6.3,11,8.2c1.4,2,2.9-1.2,4.1-2.1
			c2.1-1.5-1.1-4.2-2.1-5.6c-1.1-1.5-7.1-11.6-8.7-9.9c-0.7,0.8-5.2,8.8-4,9.4"/>
		<path id="svg_57" fill="none" stroke="#000000" stroke-miterlimit="10" d="M379.6,566.4c3.1-0.2,8.8,9.9,10.7,12.1
			c2.1,2.1,1.9,1.7,4.1,0.1c1.3-1,3.7-2.5,1.7-4.1c-4.2-3.5-7.6-7.2-11.2-11.3c-1.6-1.6-1.8-2.3-2.9,0c-0.2,0.3-2.5,3.5-2.4,3.6"/>
		<path id="svg_58" fill="none" stroke="#000000" stroke-miterlimit="10" d="M370.8,584.8c0.9,0,2.3-6.8,4.2-6.4
			c3.7,0.5,5.9,4.4,8.6,6.4c4.1,2.9,1.4,4.1-2.1,3.1c-2-0.6-4.1-1.1-6.2-1.6c-0.8-0.2-4.3-1.9-5.1-1.7"/>
		<path id="svg_59" fill="none" stroke="#000000" stroke-miterlimit="10" d="M369,588.5c1.5,0,6.6,5.5,8.5,7.3
			c1.7,1.7,5.3-3.5,5.8-5c0.9-2.2-5.9-2.7-7-3c-1.9-0.5-3.8-1-5.7-1.6c-1.8-0.5-1.8,2.2-2.2,2.2"/>
		<path id="svg_60" fill="none" stroke="#000000" stroke-miterlimit="10" d="M364.3,596.9c-0.5,0-1,0.1-1.5,0.1
			c3.2,2.3,4.6,5.4,6.9,8.4c1.5,1.9,6-4.5,5.2-5.7c-1.4-2.4-4.7-4.1-6.6-6.2c-2.6-3.1-3.4,2.8-5.1,3.7"/>
		<path id="svg_61" fill="none" stroke="#000000" stroke-miterlimit="10" d="M367.3,591.8c3.3,1.4,7.1,9.9,10.4,5.9
			C375.7,595.7,369.2,587,367.3,591.8"/>
		<path id="svg_62" fill="none" stroke="#000000" stroke-miterlimit="10" d="M353.1,608.7c0.4-0.4,5.7-0.7,7.8-0.3
			c2.2,0.4,5.1,3.3,6.8,3.4c0.8,0.1,2.8-4.4,2.2-5.2c-1.8-2.1-4.3-4.8-6.4-6.6c-2.9-2.4-6.2,3.3-7.7,5.2c-0.3,0.4-4.7,3.9-3.5,3.9"
			/>
		<path id="svg_63" fill="none" stroke="#000000" stroke-miterlimit="10" d="M343.8,618.6c0.6,0,4.7-1.3,6.7-1.3
			c2.3,0.1,4.6,0.2,6.8,0.8c2.8,0.7,3.7,2.7,5.9,3.9c0.6-0.6,2.9-6.3,2.7-6.9c-0.7-2.1-8.8-3.5-10.5-4c-3.5-1-4.7-0.6-7.1,2.1
			c-0.6,0.7-6.1,4.8-5.1,5.8"/>
		<path id="svg_64" fill="none" stroke="#000000" stroke-miterlimit="10" d="M352.9,609.6c0.9-0.9,12.1,2.8,13.4,4.6
			c3.3-0.8-3.1-3.7-3.2-3.8C361,609.6,355.1,608.6,352.9,609.6"/>
		<path id="svg_65" fill="none" stroke="#000000" stroke-miterlimit="10" d="M363,624.1c0.7,0.5-0.7,3.6-0.7,4.4
			c-0.2,2.1,2,4.4,2.3,6.7c0.1,1.7,1.8,4.5-0.2,5.7c-2.5,1.4-5.4,2.3-8.2,2.6c-5,0.5-9.7-2-5.9-7.4c1-1.4,10.7-5.3,10.5-5.7
			c-3.2-0.1-12.6,5.4-13.9,4.2c-1.2-1.1,1.1-4,1.7-5c2.2-3.6,3.8-3.2,7.2-4.8c-3-2.7-13.1-0.5-16.4,0.3c-0.1-1.1,2.8-3.4,3.4-4.6
			c0.8-1.9,5.6-1.4,7.3-1.6C355.7,618.2,359.3,620.4,363,624.1"/>
		<path id="svg_66" fill="none" stroke="#000000" stroke-miterlimit="10" d="M489.6,565.3c4.2,2.5,5.4,8.5,9.1,11.4
			c0.7-0.7,3.2-7.5,2.2-8.1c-2.2-1.3-6-3.2-7.2-5.6c-1.5,1.2-2.8,2.3-4.3,2.1"/>
		<path id="svg_67" fill="none" stroke="#000000" stroke-miterlimit="10" d="M493.9,561.4c0.4,1.7,6.6,7.2,8.5,6.1
			c4.3-2.9-4.3-7.7-6.2-10C495.3,558.4,493.9,560.9,493.9,561.4"/>
		<path id="svg_68" fill="none" stroke="#000000" stroke-miterlimit="10" d="M496.9,556.7c0.4,0.4,3.2,3.5,5.1,4.7
			c4.3,2.7,4.1,1.3,6.8-3c-3.9-2-6.5-4.6-9.7-7.3c-1.1,1.4-1.9,3.9-2.5,5.1"/>
		<path id="svg_69" fill="none" stroke="#000000" stroke-miterlimit="10" d="M499.3,550.4c0.4-0.9,0.6-1.9,0.8-2.9
			c4.4,0.4,8,3,12.8,3c0,3.6-3.1,6.9-6,5.4c-0.7-0.4-7.5-5.8-8-5.4"/>
		<path id="svg_70" fill="none" stroke="#000000" stroke-miterlimit="10" d="M499.1,541.6c0,4.4,1.3,5.4,6.8,6.5
			c5,1,9.2,2.4,11.2-3.5c-3-1.8-8.1-1.2-11.5-1.6c-2.4-0.3-4.6-1.5-6.8-1.8"/>
		<path id="svg_71" fill="none" stroke="#000000" stroke-miterlimit="10" d="M499,540.2c-0.4,0.6,6.9,2,7.6,2.1
			c3.1,0.5,10.2,2.6,12.5,0c3.2-3.7-3.5-3.7-6-4c-2.3-0.3-16.1-2.2-14.2,2.5"/>
		<path id="svg_72" fill="none" stroke="#000000" stroke-miterlimit="10" d="M499.2,532.8c0.6-0.6-0.8,3.8-0.8,4.6
			c1.3,0.6,3.6-0.3,4.9-0.5c3-0.5,5.9,0.2,8.8,0.5c2.6,0.4,11.3,2.4,11.3-2.4c-3.6-1.2-7.3,1.7-10.9,0.1c-1.4-0.6-12.6-4.3-13.3-2.8
			"/>
		<path id="svg_73" fill="none" stroke="#000000" stroke-miterlimit="10" d="M499.8,529.9c-2.1,2.1,3.8,2.2,4.5,1.9
			c-0.8-1.1-3.3-2.7-4.8-2.4"/>
		<path id="svg_74" fill="none" stroke="#000000" stroke-miterlimit="10" d="M488.1,565.5c0,0.8-10.3,0.9-3,5.8
			c1.3,0.9,11.6,12.1,11.4,12.3c2.4-1.7,1-6.8-0.7-8.4c-0.8-1-7.1-10.4-7.5-10.1"/>
		<path id="svg_75" fill="none" stroke="#000000" stroke-miterlimit="10" d="M484.1,571.6c-3.8-1.9-1.2,6.9-1.1,8.1
			c0.8,0.1,7.7-0.9,7.7-1.3c-0.3-1.7-5.4-6.9-7-7.2"/>
		<path id="svg_76" fill="none" stroke="#000000" stroke-miterlimit="10" d="M483.4,581.3c2.1,1.4-0.1,5.7-0.1,7.4
			c3.2,0.5,5.7-0.7,9.2,0.8c2.9,1.2,2.3,1,3.2-2C497,582.9,487,578.3,483.4,581.3"/>
		<path id="svg_77" fill="none" stroke="#000000" stroke-miterlimit="10" d="M482.7,590.5c1.9-3.1,12.3,0.2,12.3,3.7
			c0,3-0.6,7,0.7,9.8c1.4,2.9,3.9,6.3-0.7,7.4c-4.8,1.2-3-3.5-5.8-3.9c-1.4-0.4-8.6,2.6-7.1-1.2c1.2-3,2.8-2.5,0.9-5.9
			c-1-1.8-1.1-3-0.2-4.9C483.8,593.3,482.9,592.5,482.7,590.5"/>
		<path id="svg_78" fill="none" stroke="#000000" stroke-miterlimit="10" d="M258.7,200.3c-5.4,0.3-2.4-10.3,0.2-11.9
			c6.1-3.6,11.6-1.6,17.1,1.5c5,2.8,9,6,12.3,10.7c1.6,2.2,3.1,4.8,5.4,6.3c1.6,1.1,4.8-0.6,6.6-1.1c6.3-2.5,7.3-5.5,9.3-11.7
			c1.9-5.7-7.5-6.4-10.6-6.6c-6.6-0.3-13.1-2-18.7-5.4c-1.7-1.1-16.5-3.1-16.5-0.9c-7.6-8.5-20.7,3.8-19.2,12.7
			c0.8,4.6,5.6,9.7,10.4,9.7c1.6,0,3.6-0.4,5.1-0.9c2.4-0.8-1-1.6-1.5-2.1"/>
		<path id="svg_79" fill="none" stroke="#000000" stroke-miterlimit="10" d="M408.4,257.9c-1.6,1.6,2.9-2.2,2.6-2
			c2.4-1.9-0.2-3.3-1.1-5.9c-1.6-4.6-1.6-10.3,1.2-14.4c-5.1-3.3-7.7,2.3-8.5,6.1c-0.7,3.2-0.5,6.5,0.7,9.6c1,2.7,3.7,4.4,4.7,6.9"
			/>
		<path id="svg_80" fill="none" stroke="#000000" stroke-miterlimit="10" d="M404.8,257.3c-5.1-4.1-6.2-12-5.1-18.1
			c-5.2,0.8-7.6,7.9-6.1,12.3c0.8,2.4,2.1,4.6,4.4,5.9c0.9,0.5,6.5,2.9,6.2,0.1"/>
		<path id="svg_81" fill="none" stroke="#000000" stroke-miterlimit="10" d="M413.8,253.9c-3.7-3.5-4.3-8.7-3.5-13.5
			c0.8-4.5,2.8-5,6.6-6.4c0.4,4.4-0.7,7.9,1.6,12.1c0.7,1.3,2.1,2.6,2.5,4c-1.6,1-5.5,3.8-7.5,3.8"/>
		<path id="svg_82" fill="none" stroke="#000000" stroke-miterlimit="10" d="M422.1,249.4c-3.1-1.2-3.8-6.5-4.1-9.3
			c-0.3-4.5-0.1-7.5,5.1-8.4c0.7,1.5,0,3.8,0.4,5.4c0.7,2.9,2.2,5.4,4.1,7.7c1.2,1.4-4.5,5.2-5.5,4.9"/>
		<path id="svg_83" fill="none" stroke="#000000" stroke-miterlimit="10" d="M429.2,245.1c-3.4-1-7.5-12.5-4-14.2
			c2.7-1.3,2.7,3.5,2.9,5.5c0.4,3.1,1.7,5.2,4.1,7.2c-0.8,0.8-2.8,0.8-3.3,1.8"/>
		<path id="svg_84" fill="none" stroke="#000000" stroke-miterlimit="10" d="M434,242.8c-3.6,1.2-4.2-7.4-4.2-8.8
			c0-0.7-0.4-3.6,0.6-4.3c0.9-0.6,3.6-2.7,4-0.8c0.6,3.4,1.1,6.4,3.8,8.8c1.6,1.4-3.7,5.3-4.8,5.1"/>
		<path id="svg_85" fill="none" stroke="#000000" stroke-miterlimit="10" d="M418.5,332.4c1.5-1.6,4.8-2.7,7-2
			c1.6,0.5,7.7,2.9,8.4,4.3c1,1.7-1.5,4.1-2.7,4.7c-1.3,0.7,0.2,4.6-2.9,5.1c1.6,2.4-1.7,3.2-1.7,4.9c0,2.3-2.4,7-5.7,6.5
			c-0.6-3.5-0.7-4.3-4.5-3.4c-3,0.7-1.2-4.6-1.4-5.8c-0.3-1.5,1.3-2,1.6-3.4c0.3-1.8-0.9-2.9,0.6-4.4
			C418.1,338,417.4,332.3,418.5,332.4"/>
		<path id="svg_86" fill="none" stroke="#000000" stroke-miterlimit="10" d="M429.6,344.3c-2.2,3.3,1.6,7.3,2.9,2.2
			c0.4-1.6,3.7-3.2,1.5-4.9C430.5,339.1,431.4,343.1,429.6,344.3"/>
		<path id="svg_87" fill="none" stroke="#000000" stroke-miterlimit="10" d="M424.9,349.1c-0.8-0.8-6.1-3.9-8.1-3
			c-3.7,1.7,4.3,6,6.2,6c-1.4,0.7,0.8,1.2,1.7,0.6C426.7,351.1,424.8,350.7,424.9,349.1"/>
		<path id="svg_88" fill="none" stroke="#000000" stroke-miterlimit="10" d="M418.4,341c0.1,0.3-1.7,2.1,0,3.2c1.6,1,4.6,3,6.5,2.2
			c0.7,2.6,2.6-0.4,1.9-2.1c-0.9-2.2-6.5-4.6-8.7-3.7"/>
		<path id="svg_89" fill="none" stroke="#000000" stroke-miterlimit="10" d="M418.4,338.7c0.3,1,4.4,1.9,5.3,2.4
			c1.1,0.6,7.9,2.2,5.1-1.6c-1.2-1.6-4.9-2.6-6.7-2.8c-1.4-0.3-4.4,0.7-3.3,2.6"/>
		<path id="svg_90" fill="none" stroke="#000000" stroke-miterlimit="10" d="M419.8,333.6c0.9-2,3.8-2.6,5.8-2
			c0.7,0.2,6.4,2.4,6.7,3.1c1.4,2.1-2.3,3.5-3.7,2.8c-2.1-0.9-8.1-1.2-8.8-3.6"/>
		<path id="svg_91" fill="none" stroke="#000000" stroke-miterlimit="10" d="M404.9,377.5c0.8-1.9,1.7-3.8,2.5-5.7
			c0.8-1.7-0.8-1.8-2.2-3c-4.8-4.1-5.2-10.3-0.2-14.5c-3.1-1.9-6-2-8.9,0.6c-1.2,1.1-0.3,2.8-1,4.1c-0.8,1.3-3.4,3.3-3,5.1
			C393.1,370.7,399.9,373.6,404.9,377.5z"/>
		<path id="svg_92" fill="none" stroke="#000000" stroke-miterlimit="10" d="M405.9,395.1c-3.5-1.2-5.3-4.2-7.9-7
			c-2.4-2.6-5.1,3.2-6.7,4.3c-2.7-1.8,5-9,5-10.8c0-5,5.5-3.7,6.6-0.1c2,6.1,7.6-0.7,7.6,5.3c0,1.9,0.3,3.8-1.9,4.5
			c-3.9,1.3-1.7,1.4-2.2,3.9"/>
		<path id="svg_93" fill="none" stroke="#000000" stroke-miterlimit="10" d="M409.1,422.6c-1.6-1.6-2.5-5.1-3.4-7.1
			c-1.8-4-3.6-8-5.6-11.9c-1.8-3.4-5.2-5.5-8.1-8c-4.2-3.6,5-10,6-9c4.3,4.3,7.7,9.5,11.5,14.2c2.8,3.5,5.6,6.9,8.4,10.4
			c0.8,1,4.3,4.1,4.3,5.4c0,2.3-4.2-3.1-4.2-3.1c-3-3.7-6-7.4-9.1-11.2c-3.6-4.4-7.1-10.5-11.2-14.3c-1.2-1.1-8.1,4.2-4.2,7.4
			c2.8,2.3,5.7,4.1,7.6,7.3c2.2,3.9,4.4,7.9,6.6,11.8C408.7,416.7,413.1,421.7,409.1,422.6z"/>
		<path id="svg_94" fill="none" stroke="#000000" stroke-miterlimit="10" d="M404.6,396.1c1.5-0.7,6.8,0.3,5.2,2.6
			c-2.1,2.9-2.9,0-5-2.1"/>
		<path id="svg_95" fill="none" stroke="#000000" stroke-miterlimit="10" d="M409.1,401.5c0-4.4,5.1,0.9,5.9,1.9
			c0.9,1.1-1.2,3.1-2.2,3.1c-0.9,0.1-3.7-3.9-3.7-4.6"/>
		<path id="svg_96" fill="none" stroke="#000000" stroke-miterlimit="10" d="M413.8,407.4c4.3-2.8,3,0,6.6,2.5
			c-2.2,2.2-5.6,2.3-6.5-1.5"/>
		<path id="svg_97" fill="none" stroke="#000000" stroke-miterlimit="10" d="M417.9,413.1c3.9-1.6,2.8-1.7,6.1,1.2
			c1.5,1.3-3.5,4-5.4-0.8"/>
		<path id="svg_98" fill="none" stroke="#000000" stroke-miterlimit="10" d="M341.1,625.1c-0.2,0.5-0.3,0.9-0.5,1.4
			c1,0,1.9,0,2.9,0.1c0,2.2-1,2.6,1.4,2.6c2.3,0-0.6,6.5,3,2.9c1.1-1.2,3.8-3.2,3.8-4.9c0-2.4,2.8-0.6,3.8-2.3c-2-0.7-4.7,0-6.7,0.2
			C346.9,625.3,342.9,624.4,341.1,625.1"/>
		<path id="svg_99" fill="none" stroke="#000000" stroke-miterlimit="10" d="M404.6,367.2c-4.3-3.1-3.1-8.6-0.3-12.4
			c2.8-2.9,7.7-4,10.8-6.8c-0.7,3-6.8,5.5-9.2,7.2c-1.4,1-2.2,1.9-2.8,3.5C401.7,362.4,404.5,365,404.6,367.2z"/>
		<path id="svg_100" fill="none" stroke="#000000" stroke-miterlimit="10" d="M404.6,367.2c2.7-2.8,5.5-5.7,8.2-8.5
			c-1.7,3.7-3.5,7.4-4.9,11.3"/>
		<path id="svg_101" fill="none" stroke="#000000" stroke-miterlimit="10" d="M469.6,469.6c0.5,4.2-6.6,3-8.7,5.6
			c1.2,0.8,6.4-1.4,7.5-1.8c0.6,1-3,2.4-2.7,2.6c1.2,0.7,2.6-1.7,4-1.2c-1.5,0.8,1.6,4.3,1.3-0.1c-0.1-0.9-0.9-0.7-1.4-1.3
			c-0.1-0.1,1.4-4.1,1.2-5.1c1.2-0.6,0.9,1.9,1,2.3c1.6,0.2,1.1-2.7,1.4-3.8c-2.8-2.1-5.4,2-4.3,1.6"/>
		<path id="svg_102" fill="none" stroke="#000000" stroke-miterlimit="10" d="M320.8,192.6c-3.6-5.8-8-8.2-15.1-6.3
			c-1.6,0.4-8.2,1.8-8.8,3.5c-0.4,1.2,2.7,2.8,2.8,4.2c-3.6,1.1-5.3,1.1-6,5.4c-0.6,3.8-1.1,7.8-1.1,11.6c2.3,1.2,0.9,7.8,1.3,10
			c0.4,2,1.8,5.1,1.4,7.2c-0.3,2-1.8,3.7-1.9,6.1c-0.3,5.2-1.7,10.4-3,15.5c-0.4,1.6-2.6,3.5-1.2,5.2c1.6,1.8,4,2.9,5.7,4.7
			c4.1,4.4,7.4,8,13.3,10c5.6,1.9,11.4,2.4,17.2,3.4c1.3-12.9,0.3-26.3,0.2-39.1c0-8.1-0.1-16.2-0.1-24.3c0-3,0-5.9-0.1-8.9
			C325.4,197,322.9,195.9,320.8,192.6C319.8,191,322.3,194.9,320.8,192.6z"/>
		<path id="svg_103" fill="none" stroke="#000000" stroke-miterlimit="10" d="M401.9,255.5c-4.7-1.9-5.6-7.6-3.9-11.8
			c1.1-2.9,9.2-8.6,5.8-10.1c-6-2.6-9.7,2.2-14.9,4.2c-4.7,1.7-2.5,8.5-0.2,11.4c-4.6-1.1-4.7-9-1.8-11.3c-1.5-1.5-3.3-0.5-5-1.5
			c-2.9-1.8-6.2-4.9-8.8-7.2c-2.6-2.2-2.2-5.3-5.5-6.8c-3.4-1.5-5.1-5-8.3-6.8c-2.6-1.5-6-3.6-9.1-3.5c-4.1,0.2-7.5,1.1-11.5-0.6
			c-2.9-1.3-5.5-3.9-6.3-7c-0.7-2.8,1-4.7-3.5-4.7c0,23.9,0,47.6,0,71.5c2.4-3.7,3.7-7.5,6.8-10.8c3-3,6.6-3.5,6.7-8.4
			c0.1-10.2,18.4,0.5,22.4,2.2c6,2.6,12.3,4.9,17.7,8.6c1.3,0.8,2.6,1.5,4.1,1.3c2.7-0.7,4.7,1.3,7.6,0.9c6.1-0.8,9.7-3.4,14.2-7.3
			C406.7,256.3,404,256.3,401.9,255.5C399.7,254.6,404.2,256.4,401.9,255.5z"/>
		<path id="svg_104" fill="none" stroke="#000000" stroke-miterlimit="10" d="M287.5,317.9c-3.1-2.5-8.5-6-11.8-3.5
			c-4.1,4.1-4.5,9.3-4.4,15.1c0.1,6.8,8.4,2.7,11.8,1.2C287.4,328.9,292.2,321.4,287.5,317.9C286.4,317,288.7,318.8,287.5,317.9z"/>
		<path id="svg_105" fill="none" stroke="#000000" stroke-miterlimit="10" d="M287.5,306.1c-1.5-1.5-6.7-7.7-3.8-9.9
			c-1.5,1.5-4.5,0.9-5.8,3.3c-1.3,2.3,0.4,5.8,0.7,8.2c0.7,4.8,0,3.2,4.6,5.5c2.9,1.5,5.5,3.4,7.5,6c0.5-2.5,0.5-5,1.3-7.4
			C292.8,309.5,289.4,308,287.5,306.1C285.9,304.5,288.3,306.9,287.5,306.1z"/>
		<path id="svg_106" fill="none" stroke="#000000" stroke-miterlimit="10" d="M294.7,304.6c0.2-0.9,2.1-4.8,3.6-4.2
			c-1.9-1.4-11.3-10-12.8-4c-0.7,2.9,1.7,7.3,3.8,9c2.3,2,3.6,1.8,5.7,2.9C294.7,307.1,294.6,305.9,294.7,304.6
			C295,303.5,294.5,305.6,294.7,304.6z"/>
		<path id="svg_107" fill="none" stroke="#000000" stroke-miterlimit="10" d="M301.7,308.1c0.4-0.7,2.5-4.3,3.7-3.1
			c-1.4-0.9-5.8-5.3-7.4-3.2c-3.3,4.4-0.6,7.8,3,10.3C301,311,301,309,301.7,308.1C302.2,307.2,301.4,308.5,301.7,308.1z"/>
		<g id="svg_108">
			<path id="svg_109" fill="none" stroke="#000000" stroke-miterlimit="10" d="M305.9,316.1c0.1-1.7,3.7-7.7,5.9-6.8
				c-2.9-2-5.5-5.2-8.2-1.4c-1,1.5-1.6,3.4-1.3,5.2C302.6,313.4,305.9,317.5,305.9,316.1C306,314.6,305.9,316.3,305.9,316.1z"/>
			<path id="svg_110" fill="none" stroke="#000000" stroke-miterlimit="10" d="M319.1,314.3c-2.3-1.6-4.6-4.4-6.9-2.9
				c-4.2,2.7-5.3,4.8-3.4,9.3c2.9-2.2,7.7-4.3,11.3-4.9C319.7,315.3,319.4,314.8,319.1,314.3z"/>
		</g>
		<path id="svg_111" fill="none" stroke="#000000" stroke-miterlimit="10" d="M349.6,323.8c-1.9-3.2,0.6-8.3-1.3-12.2
			c-2.4-5-5.4-9.6-8.4-14.2c-2.8-4.2-5.6-8.4-8.5-12.5c-0.6-0.9-1.3-2-2.2-2.7c-1.3-0.9-2.8-1.5-3.9-2.7c-0.7-0.7,0.1-3.8,0-3.8
			c-2.4-0.8-7.1,0.7-9.6,0.8c-5.2,0.2-9.6-1.4-14.1-3.9c-5.9-3.3-18.4-8.9-14.5-17.2c-3.8,1.5-7.8,2.4-11.5,4
			c-4.4,1.9-7.5,4.9-11.1,7.9c-7.7,6.5-16.1,12.4-23.3,19.4c-8,7.8-13.7,17.9-17.1,28.5c-1,3-1.5,5.9-2.3,8.9
			c-0.8,3-3.7,4.5-4.8,7.4c-0.5,1.5-0.6,7.1,2.2,7.1c-2.9,0.8-1.9,2.3-2,4.7c-0.1,3.3-3.5,6.3-4.9,9.2c-2.7,5.3,10.1,12.2,14.6,11.4
			c1.4-0.2,7.6,0.1,8-1.4c0.6-2.1,3.8-1.6,4.6-3.4c3.7-8.3-2.5-10.3-5.9-17.2c0.3,0.7,3.8-1.6,2-2.1c-1.4-0.4,0.8-2,1.4-2.7
			c4.7-5.5,9.9-10.2,15.3-15c9.7-8.5,16-23.2,29.6-25.8c1.7-0.3,2.9-1.7,4.7-2c3.5-0.7,5.9,1.6,8.4,3.5c4.6,3.6,9.6,6.8,14.5,10
			c6.6,4.3,16.3,10.1,24.3,6.9c-2.1,1-5,2.2-7.4,2.1c-1.1-0.1-5.7-2.4-6.1-1.6c0.1,0.2,0.1,0.1,0.1-0.1c2.4,2.4,3.6,8.6,8.2,10.1
			c-2.1-0.7-3.8-1.8-5.4-3.3c-1.1-1.1-1.7-2.3-2.6-3.6c-1.4-2.3-4.1-0.7-6.2,0.4c-10.7,5.4-4,13.8,2.4,19.8c2.7,2.5,6.4,1.2,9.6,0.3
			c4.8-1.2,8.7-1.6,13.5,0C346.1,340.7,352.3,328.2,349.6,323.8C348.3,321.6,350.9,325.9,349.6,323.8z"/>
		<path id="svg_112" fill="none" stroke="#000000" stroke-miterlimit="10" d="M440.8,215.3c-2.7-0.3-3.3-0.8-5.3,1.4
			c-0.7,0.7-3.8,4-3.1,5c1.7,2.2,2.9,0.4,4.5,1.3c0.7,0.4-0.5,3,0.5,4c1.6,1.7-3,7.2,1.5,9.1c4.4,1.9,10.3,1.8,14.7,0
			c2.4-1,4.5-2.6,6.8-3.7c0.2-2.4-1.6-3.2-0.4-5.6c1.2-2.4-1.2-3.1-1.2-5.4c0-2,2.4-3.8,0.7-5.8c-2.1-2.4-0.1-2.4-0.8-5
			c-0.7-2.8-5.4-1.6-7.2-1.5c-2.4,0.1-5.4-0.1-7.7,0.6C443,211,440.3,213.5,440.8,215.3C439.9,215.2,440.5,214.2,440.8,215.3z"/>
		<path id="svg_113" fill="none" stroke="#000000" stroke-miterlimit="10" d="M454.8,209.7c-2.6-0.1-7.7-0.4-10,0.8
			c-1.6,0.8-2.6,4.4-0.4,5.2c0.8,0.3,12-0.9,12-1.7c-0.9-0.1,1.6-4.5-1.5-4.5"/>
		<path id="svg_114" fill="none" stroke="#000000" stroke-miterlimit="10" d="M455.9,216.3c-1.1,0.4-18.5,0.5-12.2,5.8
			c2,1.6,8.9-0.1,11.2-0.6c3-1,2.2-3.2,1.2-5.1"/>
		<path id="svg_115" fill="none" stroke="#000000" stroke-miterlimit="10" d="M455.6,223.8c-2.2,1.1-6.9,0.9-9.4,0.7
			c-3-0.6-4.8,3.8-2,4.8c3,1.3,17,0,11.7-5.3"/>
		<path id="svg_116" fill="none" stroke="#000000" stroke-miterlimit="10" d="M454.2,230.8c-2.1,1.7-8.3-0.3-11,0.3
			c-5.4,1.2,0.7,7.9,2.4,4.1c-0.9-0.3-1.5-0.9-1.9-1.8c2.5,0.7,2.4-0.8,2.9-0.6c2,1,2.2,1.6,5.1,1.6c1.5-0.1,5.8-1.9,3-3.7"/>
		<path id="svg_117" fill="none" stroke="#000000" stroke-miterlimit="10" d="M442.8,225c-0.9,1.8,0.1,4.6-2.1,5.3
			c-1.7-1.4-0.1-4.7,1.7-5.1"/>
		<path id="svg_118" fill="none" stroke="#000000" stroke-miterlimit="10" d="M442.6,218.4c-0.4,1.3,0.4,4.4-0.6,5.1
			c-1.8,1.4-1.9-3.9,0.2-4.9"/>
		<path id="svg_119" fill="none" stroke="#000000" stroke-miterlimit="10" d="M442.7,212.3c-0.4,1.3,0.4,4.4-0.6,5.1
			c-1.8,1.4-1.9-3.9,0.2-4.9"/>
		<path id="svg_120" fill="none" stroke="#000000" stroke-miterlimit="10" d="M432.4,221.6c0.2,2.2,3.9,9.8,6,5.7
			c1.3-2.5,0.6-11-3.8-7.3"/>
		<path id="svg_121" fill="none" stroke="#000000" stroke-miterlimit="10" d="M441.1,232.1c-1.2,3.5,4,3.1,5.5,3.1
			c0,6.1-11.5-3.8-5.7-3.8"/>
		<path id="svg_122" fill="none" stroke="#000000" stroke-miterlimit="10" d="M436,218.4c0.1,0.7-1.3,1.2-1.6,1.6
			c-1.1,1.1,1.1,4.5,1.4,5.6c0.5,2.2,3.6,3.2,3.7,0.1c0-1.4-0.9-2.5-0.9-3.8c0,0,2.2-2,2.3-2.4c1-3.9-7.9-5-3.3-1.3
			c-0.4-0.1-3.7-0.7-2.9,0.9c0.6-0.2,1.1-0.3,1.7-0.5"/>
		<path id="svg_123" fill="none" stroke="#000000" stroke-miterlimit="10" d="M427.8,346.3c2.2,0.5,2.2-1,3.4-2.2
			c1.8-1.8-2.7-2.9-2.8-1"/>
		<path id="svg_124" fill="none" stroke="#000000" stroke-miterlimit="10" d="M266.3,199.2c-2.5,1.5-3.7,1.7-2.3,4.9
			c1.2,2.5,2.3,4.5,4.2,6.5c3.2,3.2,10.9-7.1,14.2-5c-0.7,1.2-2.5,3.8,0.8,2.7c2.6-0.9,5.5-0.1,7.8-1.6c-1-2.4-1.8-5.7-2.4-8.1
			c-0.4-2.6-2.7-5.5-4.1-7.7c-3-4.6-3.5-2.2-7.3-0.3c-4,1.6-8.7,4.9-11.1,8.8"/>
		<path id="svg_125" fill="none" stroke="#000000" stroke-miterlimit="10" d="M334.5,199.2c0.8,4,2.1,8,5.8,10.1
			c2.5,1.4,4.1,2.1,6.7,1.4c1.8-0.5,3.1,1.8,5.2,1.9c7.5,0.1,24.5-16.9,14.5-22.7c-1.5-0.9-1.6-3.5-3.5-3.8
			c-2.1-0.3-5.6,1.7-7.7,2.2c-2.8,0.6-11.2,3.3-11.4-1.7c-0.3-7.3,5.1-8.5,11-8c4.5,0.5,15.3,0.1,16.8,5.8c2.2-6,0.2-14.5-3.4-19.7
			c-5.2-7.6-17.5-5.3-24.6-2c-8.6,4-9.8,13-9.5,21.5c0.1,2.2,0,5.4,1.8,7.1C338.8,193.9,336.3,196.7,334.5,199.2z"/>
		<path id="svg_126" fill="none" stroke="#000000" stroke-miterlimit="10" d="M368.8,191.8c0-4.1,2.4-6.2,2.4-10.2
			c2.2-0.7,0,4.7-0.3,5c-2.7,2.8-0.1,6.4-1.8,9.6c-0.2-0.4-0.5-0.8-0.7-1.2"/>
		<path id="svg_127" fill="none" stroke="#000000" stroke-miterlimit="10" d="M288.4,197.4c0.9,1.1,5.7,1.1,7,1.3
			c6,1,11.9,1.9,17.9,2.9c17.9,2.8,35.7,5.6,53.6,8.3c17.5,2.7,34.9,5.4,52.4,8c5.5,0.8,10.9,1.7,16.4,2.5c2.2,0.3,5.8,2.1,5.7-1.4
			c-51.9-7.8-103.9-15.5-155.8-23.3C286.5,196.3,287.4,196.8,288.4,197.4z"/>
		<path id="svg_128" fill="none" stroke="#000000" stroke-miterlimit="10" d="M287.7,197.9c0.9,1.1,5.7,1.1,7,1.3
			c6,1,11.9,1.9,17.9,2.9c17.9,2.8,35.7,5.6,53.6,8.3c17.5,2.7,34.9,5.4,52.4,8c5.5,0.8,10.9,1.7,16.4,2.5c2.2,0.3,5.8,2.1,5.7-1.4
			c-52-7.8-103.9-15.5-155.9-23.3C285.7,196.8,286.7,197.3,287.7,197.9z"/>
		<path id="svg_129" fill="none" stroke="#000000" stroke-miterlimit="10" d="M266.5,199.5c-2.4,1.5-3.8,1.7-2.3,4.8
			c1.1,2.4,2.2,4.3,4.2,6.2c3.3,3.3,10.5-6.8,13.9-4.6c-1,1.4-2.3,3.2,0.7,2.6c2.5-0.9,5.4-0.1,7.6-1.6c-0.4-1.4-0.7-2.8-0.7-4.2
			c-0.5-0.9-1.1-1.8-1.7-2.6c-0.8-3.2-2.3-5.8-4.1-8.6c-3-4.7-3.2-1.8-7-0.3c-4.2,1.7-7.8,5-10.8,8.5"/>
		<path id="svg_130" fill="none" stroke="#000000" stroke-miterlimit="10" d="M279.4,190.7c-2,1.5,2.5,8.2,3.5,9.8
			c0.5,1,3.2,4.2,4.1,1.1C287.8,199.9,281.9,188.2,279.4,190.7"/>
		<path id="svg_131" fill="none" stroke="#000000" stroke-miterlimit="10" d="M275.3,194c-0.7,2.7-2.7,0.8-0.9,4.5
			c0.6,1.2,3.4,6.6,5.2,5.6C283.3,202.2,277.5,193.7,275.3,194"/>
		<path id="svg_132" fill="none" stroke="#000000" stroke-miterlimit="10" d="M296.8,273.3c-13.1,6.8-32.6,8-46.3,2.1
			c-6.7-2.9-12.6-8.4-13.9-15.8c-0.7-3.7,0.3-7.3,3.1-9.8c0.8-0.7,6.8-4.6,7.7-3.3"/>
		<path id="svg_133" fill="none" stroke="#000000" stroke-miterlimit="10" d="M268.4,206.4c-2.9,2.9-7.2,3.9-10.1,7
			c-2.8,2.7-5.2,6.1-6.1,10c-1.8,8.1,2.5,13.5,10.3,14.8c9.4,1.5,18.8,2.6,28,5.5c9.3,3,13.5,6.5,13.5,16.6"/>
		<path id="svg_134" fill="none" stroke="#000000" stroke-miterlimit="10" d="M270.3,198c-0.6,3-3-0.4-0.5,4.2
			c1,1.8,2.6,4.5,4.3,5.3c1,0.4,3.5-0.4,2.6-1.7c-1-1.9-4-7.1-6.2-7.8"/>
		<path id="svg_135" fill="none" stroke="#000000" stroke-miterlimit="10" d="M265.3,201.8c-2,1.2,3.2,8.7,5.4,8.3
			c4-0.8-4-9-4.9-8.7"/>
		<path id="svg_136" fill="none" stroke="#000000" stroke-miterlimit="10" d="M282.5,204.7c-1.6,1.4-4.9,1.1-4.9,4
			c0.1,3.7,1.8,1.6,3.8,0.9c1.9-0.7,4.2-0.4,5.9-1c2.4-0.8,0.7-4.4-1-4.4"/>
		<path id="svg_137" fill="none" stroke="#000000" stroke-miterlimit="10" d="M166.7,185.7c-2.8-0.5-4,3.6-2.8,5.5
			c-4-0.7-11.2,8.6-14.1,11.1c-2.9,2.6-6.8,1.9-9.2,5.7c-3,4.6-1.6,11.1,3.2,13.9c4.6,2.7,10.8,1.1,13.5-3.5c2-3.4,0-6.7,1.8-9.8
			c1.9-3.3,9.5-12.4,7.8-16.1C170.9,194.3,172.2,186.7,166.7,185.7C164.5,185.3,168.9,186.1,166.7,185.7z"/>
		<path id="svg_138" fill="none" stroke="#000000" stroke-miterlimit="10" d="M147.5,206c-2.2-2.2-5.7,4.2-5.8,5.6
			c-0.3,4.5,1.3,8.3,6.4,8c-1.6-3.2,1.5,0.9,0.2-2.4c3.4-0.7-0.8-1,2.2-2.3c-2.5-2.7,2.6-0.3-1.1-3.3c4.2-2.5-2.3-0.6,1.8-2.7
			C149.6,207.9,150.5,206.3,147.5,206"/>
		<path id="svg_139" fill="none" stroke="#000000" stroke-miterlimit="10" d="M150.9,203.4c1.8-1.2,2.9,2.7,4.7-0.1
			c2.4-3.6,5.7-6.9,9.2-9.4c-0.9-3.2-12.9,7.7-14.2,9.6"/>
		<path id="svg_140" fill="none" stroke="#000000" stroke-miterlimit="10" d="M363.3,186.6c-0.3-2.1-1.5-2.9,1.3-4.4
			c0.9-0.4,6.7,0.1,6.1,1.9c-0.3,0.6-4.9-1.8-6.6-0.4c-1.9,1.9,1.8,3.4-0.7,5.1"/>
		<path id="svg_141" fill="none" stroke="#000000" stroke-miterlimit="10" d="M348.8,182.4c1.9-3.9,11.2-0.9,10.3,0
			c-0.3,0.9-2.4-0.6-2.8-0.8c-3-1.4-5,1.8-8,1"/>
		<path id="svg_142" fill="none" stroke="#000000" stroke-miterlimit="10" d="M356,184.7c0.2-1.2-2.9-0.7-3,0.5
			C352.8,186.9,357.1,186.9,356,184.7"/>
		<path id="svg_143" fill="none" stroke="#000000" stroke-miterlimit="10" d="M368.7,185.9c0.2-1.2-2.9-0.7-3,0.5
			C365.5,188,369.7,188.2,368.7,185.9"/>
		<path id="svg_144" fill="none" stroke="#000000" stroke-miterlimit="10" d="M354.8,185.7c-1.1-0.2-5.2-1.3-6,0.1
			c1.6,0.4,9.4,2.9,9.4-0.5c-1,0.7-2.1,0.9-3.2,0.5"/>
		<path id="svg_145" fill="none" stroke="#000000" stroke-miterlimit="10" d="M365.1,186.5c0.4,0.4,3,0.9,3.6,1.9
			c0.2-1.2-2.7-2.7-3.5-2.3"/>
		<g id="svg_146">
			<g id="svg_147">
				<path id="svg_148" fill="none" stroke="#000000" stroke-miterlimit="10" d="M105.3,500.5c-0.6,0-5.4-0.4-5.4,1.2
					c0,1.7,4.8,1.2,5.5,1.2c3.4,0,6.9,0,10.3,0c10.6,0,21.2,0,31.7-0.1c3,0,2.4-3.5-0.5-3.5c-4.7,0.1-9.4,0.3-14.1,0.4
					C123.7,500,114.5,500.2,105.3,500.5z"/>
				<path id="svg_149" fill="none" stroke="#000000" stroke-miterlimit="10" d="M104.1,501.9c0.1,0.1-3.7,1.5-3.7,0
					C101.1,501.9,103.2,500.2,104.1,501.9"/>
				<path id="svg_150" fill="none" stroke="#000000" stroke-miterlimit="10" d="M104.4,501.7c2.5,3,15,0.8,18.7,0.8
					c8.1-0.1,16.3-0.1,24.4-0.2c0.6,0,0.9,0.1,1.4-0.4c2.8-2.7-3.5-1.5-3.5-1.4c-5.3,0.8-10.8,0.6-16.1,0.8
					c-5.1,0.1-10.3,0.2-15.4,0.4C111.2,501.7,106.6,503.1,104.4,501.7z"/>
			</g>
			<path id="svg_151" fill="none" stroke="#000000" stroke-miterlimit="10" d="M159.6,419.6c-1.8,0-1.8,2.8,0,2.8
				C161.4,422.4,161.4,419.6,159.6,419.6z M159.6,422.1c-1.4,0-1.4-2.2,0-2.2C161.1,419.9,160.9,422.1,159.6,422.1z"/>
			<path id="svg_152" fill="none" stroke="#000000" stroke-miterlimit="10" d="M159.8,421c-1.2,1.6,2.1,4.1,3.4,2.6
				C164.4,421.9,160.8,419.3,159.8,421C159.3,421.7,160.2,420.3,159.8,421z M162.7,423.2c-1,1-3.2-0.7-2.4-1.8
				C161.3,420.4,163.4,422,162.7,423.2C162.3,423.6,163,422.7,162.7,423.2z"/>
			<path id="svg_153" fill="none" stroke="#000000" stroke-miterlimit="10" d="M159.1,427c-0.2,2,3.9,2.7,4.1,0.7
				C163.4,425.8,159.6,425.2,159.1,427C159,427.8,159.3,426.3,159.1,427z M162.7,427.6c-0.2,1.4-3.2,1-3-0.5
				C159.9,425.8,162.9,426.3,162.7,427.6z"/>
			<path id="svg_154" fill="none" stroke="#000000" stroke-miterlimit="10" d="M175,426.3c0.2,2,4.6,1.3,4.1-0.7
				C178.8,423.6,174.5,424.4,175,426.3C175.1,427,174.8,425.5,175,426.3z M178.6,425.8c0.2,1.5-2.8,1.9-3,0.5
				C175.4,424.9,178.4,424.4,178.6,425.8z"/>
			<path id="svg_155" fill="none" stroke="#000000" stroke-miterlimit="10" d="M162.7,434.1c1,1.7,4.7-0.1,3.7-1.8
				C165.4,430.6,161.9,432.3,162.7,434.1C163.1,434.8,162.4,433.4,162.7,434.1z M166,432.5c0.7,1.2-2.2,2.7-2.7,1.4
				C162.6,432.7,165.3,431.3,166,432.5z"/>
			<path id="svg_156" fill="none" stroke="#000000" stroke-miterlimit="10" d="M161.9,422.7c-1.2,1.6,2.1,4.1,3.4,2.6
				C166.5,423.7,163.2,421.2,161.9,422.7C161.4,423.4,162.4,422.1,161.9,422.7z M164.8,424.9c-1,1-3.2-0.7-2.4-1.8
				C163.4,422.1,165.6,423.8,164.8,424.9C164.4,425.3,165.1,424.5,164.8,424.9z"/>
			<path id="svg_157" fill="none" stroke="#000000" stroke-miterlimit="10" d="M164,424.5c-1.2,1.6,2.1,4.1,3.4,2.6
				C168.6,425.5,165.2,422.8,164,424.5z M166.9,426.6c-0.9,0.9-3.2-0.7-2.4-1.8C165.3,423.7,167.7,425.5,166.9,426.6
				C166.5,426.9,167.2,426.2,166.9,426.6z"/>
			<path id="svg_158" fill="none" stroke="#000000" stroke-miterlimit="10" d="M167.2,418.2c-2,0.5-0.9,4.6,1.1,4.1
				S169.2,417.7,167.2,418.2z M168.2,421.7c-1.4,0.2-2.1-2.7-0.7-2.9S169.6,421.5,168.2,421.7z"/>
			<path id="svg_159" fill="none" stroke="#000000" stroke-miterlimit="10" d="M167.9,420.9c-2,0.5-0.9,4.6,1.1,4.1
				C171,424.5,169.9,420.4,167.9,420.9z M168.8,424.4c-1.4,0.2-2.1-2.7-0.7-2.9C169.5,421.3,170.1,424,168.8,424.4
				C168.2,424.5,169.4,424.2,168.8,424.4z"/>
			<path id="svg_160" fill="none" stroke="#000000" stroke-miterlimit="10" d="M174.1,418.2c-1.9-0.2-2.9,3.7-0.9,4.2
				C175.1,422.6,176.1,418.5,174.1,418.2z M173.5,421.7c-1.4-0.2-0.8-3.2,0.6-3C175.6,418.9,174.7,422.2,173.5,421.7
				C172.9,421.6,174,421.9,173.5,421.7z"/>
			<path id="svg_161" fill="none" stroke="#000000" stroke-miterlimit="10" d="M173.5,420.8c-1.9-0.2-2.9,3.7-0.9,4.2
				C174.5,425.2,175.5,421.3,173.5,420.8C172.7,420.7,174.3,421,173.5,420.8z M172.8,424.4c-1.4-0.2-0.8-3.2,0.6-3
				C174.8,421.6,174.2,424.6,172.8,424.4C172.2,424.3,173.4,424.5,172.8,424.4z"/>
			<path id="svg_162" fill="none" stroke="#000000" stroke-miterlimit="10" d="M178.7,430.4c0.3-2-4-2.4-4.2-0.5
				C174.2,431.9,178.5,432.3,178.7,430.4z M175.1,429.9c0.2-1.4,3.1-0.9,3.1,0.4C178,431.7,174.9,431.3,175.1,429.9z"/>
			<path id="svg_163" fill="none" stroke="#000000" stroke-miterlimit="10" d="M177.3,420.8c-1.7-1-3.7,3-1.8,3.7
				C177.2,425.5,179.1,421.6,177.3,420.8C176.6,420.4,178,421.1,177.3,420.8z M175.6,424c-1.2-0.7,0.1-3.4,1.3-2.7
				C178.1,422,176.9,424.5,175.6,424C175.1,423.7,176.1,424.2,175.6,424z"/>
			<path id="svg_164" fill="none" stroke="#000000" stroke-miterlimit="10" d="M175.9,423.2c-1.7-1-3.7,3-1.8,3.7
				C175.8,427.8,177.8,423.9,175.9,423.2C175.2,422.8,176.7,423.5,175.9,423.2z M174.3,426.4c-1.2-0.7,0.1-3.4,1.3-2.7
				C176.8,424.4,175.6,426.8,174.3,426.4C173.8,426.1,174.8,426.6,174.3,426.4z"/>
			<path id="svg_165" fill="none" stroke="#000000" stroke-miterlimit="10" d="M168.5,423.6c-2,0.5-0.9,4.7,1.1,4.2
				C171.6,427.2,170.4,423.1,168.5,423.6C167.7,423.8,169.3,423.4,168.5,423.6z M169.4,427c-1.4,0.2-2.1-2.7-0.7-2.9
				C170.1,424,170.8,426.6,169.4,427C168.8,427.1,170,426.8,169.4,427z"/>
			<path id="svg_166" fill="none" stroke="#000000" stroke-miterlimit="10" d="M158.8,425.5c-1.8,0-1.8,2.8,0,2.8
				C160.6,428.2,160.6,425.5,158.8,425.5z M158.8,427.9c-1.4,0-1.4-2.2,0-2.2C160.2,425.8,160.2,427.9,158.8,427.9z"/>
			<path id="svg_167" fill="none" stroke="#000000" stroke-miterlimit="10" d="M162.7,432.8c-1.8,0-1.8,2.8,0,2.8
				C164.5,435.6,164.5,432.8,162.7,432.8z M162.7,435.4c-1.4,0-1.4-2.2,0-2.2C164.1,433.2,164.1,435.4,162.7,435.4z"/>
			<path id="svg_168" fill="none" stroke="#000000" stroke-miterlimit="10" d="M166.9,416.3c-1.8,0-1.8,2.8,0,2.8
				C168.6,419.1,168.8,416.3,166.9,416.3z M166.9,418.7c-1.4,0-1.4-2.2,0-2.2S168.3,418.7,166.9,418.7z"/>
			<path id="svg_169" fill="none" stroke="#000000" stroke-miterlimit="10" d="M174.3,415.8c-1.8,0-1.8,2.8,0,2.8
				C176,418.6,176.2,415.8,174.3,415.8z M174.3,418.3c-1.4,0-1.4-2.2,0-2.2C175.7,416.1,175.7,418.3,174.3,418.3z"/>
			<path id="svg_170" fill="none" stroke="#000000" stroke-miterlimit="10" d="M178,419.1c-1.8,0-1.8,2.8,0,2.8
				C179.8,421.9,179.8,419.1,178,419.1z M178,421.6c-1.4,0-1.4-2.2,0-2.2C179.5,419.4,179.3,421.6,178,421.6z"/>
			<path id="svg_171" fill="none" stroke="#000000" stroke-miterlimit="10" d="M180.4,424.3c-1.8,0-1.8,2.8,0,2.8
				C182.2,427,182.2,424.3,180.4,424.3z M180.4,426.8c-1.4,0-1.4-2.2,0-2.2C181.9,424.7,181.7,426.8,180.4,426.8z"/>
			<path id="svg_172" fill="none" stroke="#000000" stroke-miterlimit="10" d="M179.4,429.2c-1.8,0-1.8,2.8,0,2.8
				C181.1,432,181.3,429.2,179.4,429.2z M179.4,431.8c-1.4,0-1.4-2.2,0-2.2S180.8,431.8,179.4,431.8z"/>
			<g id="svg_173">
				<path id="svg_174" fill="none" stroke="#000000" stroke-miterlimit="10" d="M166.9,442.1c0.3-1.1,1.3-2.3,1.2-3.7
					c-0.2-2.3-3.3,0.7-2.4,2.1c-1.7,0.4-3.2,5.8-3.8,7.1c-4,8.5-7.9,17-11.9,25.6c-1,2.2,1.9,4.1,2.9,1.8c1.5-3.5,3-7,4.4-10.5
					C160.6,457,163.7,449.6,166.9,442.1z"/>
				<path id="svg_175" fill="none" stroke="#000000" stroke-miterlimit="10" d="M166.2,440.6c0.3-0.3-0.4-2.8,1.3-2.8
					C167.5,437.4,167.3,441.7,166.2,440.6"/>
				<path id="svg_176" fill="none" stroke="#000000" stroke-miterlimit="10" d="M166.2,441c-3.5,0.9-6.3,11.4-7.8,14.5
					c-2.8,6.2-5.7,12.3-8.5,18.5c-0.2,0.5,0.1,1.3,0.7,1.5c1.6,0.5,1.5-1.8,1.8-2.8c1.2-4.4,3.3-8.4,5.1-12.6
					c1.8-4.1,3.6-8.2,5.4-12.2C163.7,445.9,164.3,442.1,166.2,441z"/>
			</g>
			<g id="svg_177">
				<path id="svg_178" fill="none" stroke="#000000" stroke-miterlimit="10" d="M105.7,562.1C105.7,562.3,105.7,562.9,105.7,562.1
					C105.6,562.5,105.7,562.2,105.7,562.1z"/>
				<path id="svg_179" fill="none" stroke="#000000" stroke-miterlimit="10" d="M237.6,562.2c-2.4-2.6-3.8-5.2-7.6-5.7
					c-3.8-0.5-8.3-1.8-11-4.8c-2.4-2.6-5.4-4.7-7.4-7.7c-2.5-3.7-3.9-7.7-7.3-10.7c-6.2-5.6-13.3-10.3-19.7-15.6
					c-4.7-3.9-4.6-2.9-10.2-0.7c-4.4,1.8-9.2,2.5-13.8,3.4c-2.1,0.4-20.8,3.5-20.8,1.1c-2-0.5-2.9,0.2-4,1.7
					c-2.3,3.2-6.2,6.1-9.4,8.3c-6.4,4.4-13.1,8.5-17.7,15c-2.5,3.5-1.8,7.7-4.1,11.2c-1.6,2.5,1.4,3.3,1,4.5
					c-1.1,2.2-1.7,4.8,1.2,5.6c3,0.8,2.2,0.8,3.1,3c0.6,1.8,4.1,2.9,5,5.5c0.9,2.7,0.6,5.3,3.8,5.9c4.9,1,16.5-1.8,17.4-7.7
					c0.4-2.5,2.1-5.6,1.6-8.2c-0.6-2.6-6.3-1.2-8.3-1.6c0.3-0.7,0.6-1.4,0.9-2.2c-0.3-1.2-2.2-1.1-2-2.5c0.3-2,5.7-5.1,7.1-6.3
					c6.9-5.5,14.8-9.6,23-12.9c7.4-3.1,14.2,4,20.3,7.8c3.3,2,6.9,3.4,10.4,4.7c2.5,1,7.8,1.9,9.7,3.9c0.2,0.6,0.4,1.1,0.6,1.7
					c0.7,0.8,2.5,1.1,3.3,1.7c2.9,2.3,2.7,7.6,3.5,10.8c0.7,2.7,0.6,6.8,3.3,8.4c2.7,1.6,6.6,4.1,9.8,3.9c6.2-0.2,11.7-7.3,17.5-9.4
					C245.1,571.6,242.3,567.4,237.6,562.2C236.3,560.8,239.5,564.3,237.6,562.2z"/>
			</g>
			<path id="svg_180" fill="none" stroke="#000000" stroke-miterlimit="10" d="M196.6,474c2.9-5.5,6.2-10.8-1.7-13.2
				c1.4,4.3-1.7,9.5-6.5,9.2c-5.9-0.3-8-2.1-8.6-7.6c-1.2,0.7-3,1.4-3,3.1c0,1.3,2.3,4.9-0.4,4.2c0.6,2.1,3,3.7,3.4,5.5
				c0.4,0.9,2.2,2.2,2.2,3c-2-0.6-5.4-2-6.1-4.2c-0.6-1.8-1.1-4.8-2.7-6c-3.5-0.6-6.6-1.5-10-2.7c-1.9-0.7-5-2.6-7-2.2
				c-2.4,0.5-3.7-2.1-6.1-2.6c-2.5-0.5-5.8-0.8-8.1,0.7c-2,1.3-1.6,3.7-3,5c-2.9,1.4-6,3.1-9.3,3c-0.2,2.7,3.5,8.1,4.5,10.8
				c1.7,4.7,3.3,5.6,8.2,6.2c5.4,0.8,10.9,2.2,16.3,3.3c3.2,0.7,8.7-0.6,9.7,3.8c-3.5,0-7.1-1.4-10.6-1.7c-4.8-0.4-9.6-0.9-14.4-1.4
				c-9.7-1-19.9-2.8-29.4-5.3c-4.1-0.9-3.7-1.3-5.5,2.7c-0.8,1.6-3.6,2.1-3.8,4c-0.1,1.2,1.7,2.1,2.2,3c1.8,3,0.8,7.9,5.6,6.9
				c2.7-0.6,5.7-0.9,8.4-0.9c0.2-1.9-4-5.2-4.4-7.5c2.8,4.3,5.3,8.3,9.9,11c3.7,2.1,12.6,6.5,12.7,11.7c0.1,4.9,12.2,2.4,15.6,1.9
				c4.1-0.6,8.1-1.7,12.1-3c2.3-0.8,8.4-1.3,9.9-3.4c1.9-2.7-3-13.6-4.5-16.3c-2-3.7-10.1-13.5-1.2-13c5.6,0.3,12.1,0.4,17.4,2.3
				C197.2,487.5,194.1,478.9,196.6,474C198,471.3,196,475.2,196.6,474z"/>
			<path id="svg_181" fill="none" stroke="#000000" stroke-miterlimit="10" d="M132.5,524.1c-0.3-3.3-4.1-6.2-4.7-9.4
				c-0.8-3.9-2.9-7.9-3.3-11.9c-2.4-1.7-11.5,0-14.6,0c0,3,2,7,3.3,9.6c0.9,2,0.2,4.8,3,4.1c2.2-0.5,4.7,2.1,5.1,4.3
				c-1.3-2.6-8.7-5.7-8.7-1.6c-1.9-0.2-5.6,0.4-4.1,3.3c0.6,1,5.5,0,6.6,0.7c7.4,4.2,2,12.5-4.3,13.3c1.3,5.3,8.6-1.1,10.2-2.4
				C124.5,531.6,132.5,529,132.5,524.1C132.4,522.8,132.5,524.8,132.5,524.1z"/>
			<path id="svg_182" fill="none" stroke="#000000" stroke-miterlimit="10" d="M112.8,480.1c6.9,1.6,13.7,3.2,20.6,4.8
				c-1.6-3.4-3.3-6.9-4.6-10.4c-0.7-2.3-0.5-4.2-2.7-5.1c-1.8-0.8-3.3-1-4.9-2.1c-4.2-2.9-2.5-6.9-3.2-11.6c-0.4-3-1.5-6.1-2.7-8.9
				c-3.9-9.1-11.7-15-21.8-11.9c-2.8,1.5-5.8,6-6.9,8.8c-1.9,4.9,3.3,7.9,2.8,12.2c5.8-3.2,11.4-6,18.1-6.5c3.7-0.3,5.5,3.7,6.7,6.8
				c1.3,3.4-10.4,3.3-11.9,3.5c-5.4,0.8-5.1,3.3-3.8,7.6c0.5,1.8,4,2.6,4.9,4.7c0.8,2,0.1,2.7,2.6,3.4c0.6,0.2,6.1,0,6-0.4
				C112.2,477.3,116.5,477.7,112.8,480.1z"/>
			<path id="svg_183" fill="none" stroke="#000000" stroke-miterlimit="10" d="M96.7,463.1c-2.5,0.8-2.7,3.3-6.3,2.2
				c3.2,3.6,7.7,8.2,11.9,10.4c1.8,1,11.7-0.1,9.6-1.9c-1.8-1.6-7,2.9-10.4,0.2c-3-2.4-5.7-5.2-8.7-7.6c2.3,0,3.6-1.6,5.1-3.1
				C97.5,463.2,97.1,463.2,96.7,463.1z"/>
			<path id="svg_184" fill="none" stroke="#000000" stroke-miterlimit="10" d="M90.3,465.1c-4.1-5.4-8.7-11.9-7.1-19.3
				c0.5-2.5,1.8-5,3.5-6.9c1.5-1.7,9.8-7.3,10.8-3.4C80,432.3,82,459.8,92.9,466C91.8,465.3,91.7,466.2,90.3,465.1z"/>
			<path id="svg_185" fill="none" stroke="#000000" stroke-miterlimit="10" d="M86.4,459.6c0.1-0.2,2.6-5.6,3.5-4.1
				c-1.8,1.2-2.2,3.4-2.2,5.4c-0.3-0.1-2-1.3-1-1.7"/>
			<path id="svg_186" fill="none" stroke="#000000" stroke-miterlimit="10" d="M99.1,454.5c0,1.7,5.8-3.4,7.8-2.8
				c-1-4.1-8.8,1.6-7.6,3"/>
			<path id="svg_187" fill="none" stroke="#000000" stroke-miterlimit="10" d="M88.9,460.7c-1.7-1.3,6.1-2.7,6.1-2.6
				c0.7-3-9.6-0.3-6.3,3"/>
			<path id="svg_188" fill="none" stroke="#000000" stroke-miterlimit="10" d="M93.8,460.4C90.9,461.9,94.8,461.1,93.8,460.4"/>
			<path id="svg_189" fill="none" stroke="#000000" stroke-miterlimit="10" d="M105.8,454.4c-0.7-0.3-1.7-0.5-1.7,0.7
				c0.1,1.8,2.9,0.2,1.3-0.7"/>
			<path id="svg_190" fill="none" stroke="#000000" stroke-miterlimit="10" d="M102.9,457.3c1.9,0,5.3,0,5.3-3.3c3,3-4,3.6-5.1,3.5"
				/>
			<path id="svg_191" fill="none" stroke="#000000" stroke-miterlimit="10" d="M92,463.5c2.1,0,2.2-0.8,3.3-2.4
				c0.5,2.8-1.4,2.7-3.2,2.7"/>
			<path id="svg_192" fill="none" stroke="#000000" stroke-miterlimit="10" d="M94.4,457.4c0.6-1.9,2.8,6.6,2.5,5.5
				c1.3-2.5,1.9-1.7,1-4.4c0.8,0.2-3.2-1-3.2-1"/>
			<path id="svg_193" fill="none" stroke="#000000" stroke-miterlimit="10" d="M225.8,582.3c4.1-1.6,7.3-4.9,11.5-6.6
				c0.3-0.1,3.7-2.1,4.1-1.4c0.4,0.6,2.6,2.9,2.6,3.6c-0.2,1.5-7.5,4-8.6,4.7C231.8,584.6,229.3,585.8,225.8,582.3"/>
			<path id="svg_194" fill="none" stroke="#000000" stroke-miterlimit="10" d="M232.4,585.7c0.9,0,13.2-8.6,13.2-5.7
				c0,1.5-5.7,7.4-7,8.7c-0.9,0.9-5.5-2.4-6.4-2.8"/>
			<path id="svg_195" fill="none" stroke="#000000" stroke-miterlimit="10" d="M238.7,589.8c1.7-0.9,3.7-4,4.9-5.5
				c2.6-3.1,1.8-3.3,4.2-0.5c1.2,1.4-2.9,3.2-4,3.9c-1.2,0.7-2.3,1.5-3.3,2.5C239.5,591.2,239.6,589.7,238.7,589.8"/>
			<path id="svg_196" fill="none" stroke="#000000" stroke-miterlimit="10" d="M240.9,591.6c0.3-1.8,5.5-4.3,7-5.1
				c1.4-1,2.7,2,3.6,3.3c0.9,1.2-5,3.9-5.9,5c-1.1,1.3-4.1-2-5-2.9"/>
			<path id="svg_197" fill="none" stroke="#000000" stroke-miterlimit="10" d="M245.9,596.7c-0.9-1.5,4.2-4.3,5.1-4.9
				c1.8-1.1,7.2,3.2,6.8,4.3c-0.5,1.1-6.3,3.9-7.5,4.8c-1.1,0.6-4.5-3.9-4.3-4.4"/>
			<path id="svg_198" fill="none" stroke="#000000" stroke-miterlimit="10" d="M251.9,605.2c-3.6-3.6-0.3-4.1,2.8-6.2
				c5.1-3.5,6.1,0.1,10.3,3.3c-1.5,1.8-5.2,2.1-7.1,3.8c-2.5,2-4.2,2.2-6.2-1.1"/>
			<path id="svg_199" fill="none" stroke="#000000" stroke-miterlimit="10" d="M287.3,619.8c-0.4-2.2-9-5.2-11.1-6.5
				c-4.2-2.7-7.4-6.2-10.8-9.7c-1.5-1.6-7.2,3.1-8.5,4.1c-3.3,2.5,4.1,6.3,4.1,9.3c1.1-0.8,2.3-1.6,3.5-2.3c1.7-0.9,2.9,0.5,4.6-0.1
				c2.2-0.9,4.5,1.4,6.9,1.4c-4.2,1.2-20.1-1.2-11,6.8c2.2,2.2,6.5,0.6,8.7-0.3C276.1,621.7,288.1,625,287.3,619.8
				C287.1,618.7,287.5,621.1,287.3,619.8z"/>
			<path id="svg_200" fill="none" stroke="#000000" stroke-miterlimit="10" d="M124.8,583.1c0,0,2.5,2.5,3.3,2.8
				c2.5,0.9,6.8-1.6,8.6-3.2c4.1-3.4,4.5-5.7,0.7-9.5c-0.6,3.4-2.5,5.4-5.7,7c-0.8,0.5-6.8,3.3-6.8,3.2"/>
			<path id="svg_201" fill="none" stroke="#000000" stroke-miterlimit="10" d="M129.6,586.9c2,0,3.8,5.5,6.2,2.7
				c1.7-2,8.7-7.8,4.9-9.9c-1.5,2-3.2,3.8-5.4,5.1c-0.3,0.2-5.7,2.4-5.7,2.4"/>
			<path id="svg_202" fill="none" stroke="#000000" stroke-miterlimit="10" d="M135.1,591.3c1.7,0,1.3,2.8,3.7,1.9
				c2.4-0.9,5.2-1.7,7.5-2.8c1.8-0.6,1.8-1.5,0-2.8c-1.9-3-2.4-1.2-5.5-0.3C138,587.9,137,589.4,135.1,591.3"/>
			<path id="svg_203" fill="none" stroke="#000000" stroke-miterlimit="10" d="M138.6,586.9c0-0.5,3.5-3.5,4.1-4.2
				c0.5,0.8,1,1.6,1.4,2.5c-1.1,0.9-4.6,1.8-5.3,1.8"/>
			<path id="svg_204" fill="none" stroke="#000000" stroke-miterlimit="10" d="M138.5,594.5c0.9,0.9,1.7,2.8,3.2,2.2
				c2.5-1,6.1-1.1,8-3.1c-1.6-2.8-2.8-2.4-5.8-1.3c-0.6,0.2-5.6,1.3-5.4,2.4"/>
			<path id="svg_205" fill="none" stroke="#000000" stroke-miterlimit="10" d="M141.6,597.9c1.6,0.7,1,3.3,1.1,4.6
				c3.8,0.4,6.5-1.1,10.3,0.8c0.6-3.1,0.4-4.4-2.8-5.5C148.2,597.1,143.2,595.7,141.6,597.9"/>
			<path id="svg_206" fill="none" stroke="#000000" stroke-miterlimit="10" d="M147.8,596.6c0.9-0.4,2.4-2.1,3.4-1.7
				c1.9,0.8,4.2,1.7,2.1,4.1C151.6,598.1,150,596.4,147.8,596.6"/>
			<path id="svg_207" fill="none" stroke="#000000" stroke-miterlimit="10" d="M142.7,603.4c0.2,2.3-2,4.3-2,6.8
				c2.4,0.3,3.9-0.2,6.2,0.6c0.4,0.2,5.4,3.8,5.6,3.6c1.3-1-0.7-7-1.6-7.7c-2.4-1.8-4.6-4.1-7.9-3"/>
			<path id="svg_208" fill="none" stroke="#000000" stroke-miterlimit="10" d="M148.3,603.5c1.1,0.9,2.4,1.6,3.3,2.7
				C153.8,603.2,148.4,603.6,148.3,603.5"/>
			<path id="svg_209" fill="none" stroke="#000000" stroke-miterlimit="10" d="M139.4,611.1c0.7,0-3.4,3.5-4.1,3.7
				c-2.8,1.2-5,3.3-7.9,4.3c-3.3,1.2-1.8,3.6,1.2,4.1c3,0.5,5.8-0.4,8.9,0.4c3.4,0.9,6.1,0.8,8.9-1.5c1.4-1.2,5.7-2.1,5.7-4.2
				c0-3-1.2-3.6-3.7-4.7C147.8,612.9,140.3,609.2,139.4,611.1"/>
			<path id="svg_210" fill="none" stroke="#000000" stroke-miterlimit="10" d="M130.1,469.8c0,3.2,3.4,8.2,4.6,11.2
				c0.9,2.1,0.9,3.7,3,4.4c4.1,1.4,8.4,2.3,12.7,3.2c4.1,0.8,8.3,1.5,12.4,2.2c1.3,0.2,5.1,0,5.3,1.4c0.2,1.5,0.1,2.4,2,1.9
				c-2.4-4.4-3.5-5.5-8.1-7.6c-2.8-1.3-5.4-2.7-8.1-4.1C145.9,478.2,138,474,130.1,469.8z"/>
			<path id="svg_211" fill="none" stroke="#000000" stroke-miterlimit="10" d="M172.9,468.1c2.6,0,2.8,4.1,4.7,6
				c1.3,1.3,4.2,3.3,5.4,4.8c-2.9,1.6-4.8,0.6-7.3-1.3c-3.4-2.5-2.2-3.2-3.3-6.7"/>
			<path id="svg_212" fill="none" stroke="#000000" stroke-miterlimit="10" d="M179.7,461.7c-0.2,0.2,3.9,4,4.2,4.2
				c1.8,1.2,9.3,2.7,10.3-0.2c1.6-3.6,0.5-5.4-3.1-5.1c-4.3,0.3-7.3,0-11.3-1.4C179.6,460,179.6,460.9,179.7,461.7"/>
			<path id="svg_213" fill="none" stroke="#000000" stroke-miterlimit="10" d="M180,463.4c0,3,0.4,3.5,3.5,4.9
				c1.1,0.4,11.1,1.9,10.2-1.6c-2.3,0.1-6,1.6-8.3,0.6C183.6,466.5,181.6,463.6,180,463.4"/>
			<path id="svg_214" fill="none" stroke="#000000" stroke-miterlimit="10" d="M179.9,458.9c1.5,1.9,8-0.2,9.4-0.8
				c4.8-2,2.6-1.6,1.4-5.5c-0.6-1.8-5.9,1.2-7.1,1.7C178.6,456.2,182.2,455.4,179.9,458.9"/>
			<path id="svg_215" fill="none" stroke="#000000" stroke-miterlimit="10" d="M182.5,459.7c2.6,0.3,4.7-0.2,7-1.3
				c3.4-1.5,3.1-1.4,4.9,1.8C190.4,459.6,186.3,461.6,182.5,459.7z"/>
			<path id="svg_216" fill="none" stroke="#000000" stroke-miterlimit="10" d="M178,451.2c0,1.6,1.9,4,3.2,3.6
				c2.7-1.3,4.3-4,6.9-5.3c1.1-1.1-1.4-4.5-3.5-3.1C183.8,446.9,178.2,450.7,178,451.2"/>
			<path id="svg_217" fill="none" stroke="#000000" stroke-miterlimit="10" d="M181.8,454.7c1.9-1.9,5.8-6.1,7.5-3.6
				C190.3,452.5,183.2,454.3,181.8,454.7z"/>
			<path id="svg_218" fill="none" stroke="#000000" stroke-miterlimit="10" d="M175.9,446.2c0.5,1.4,1.6,5.2,3.4,4
				c0.7-0.4,6.5-5.4,6.5-5.4c-1.2-2.9-2.4-4.2-4.8-3.3c-2.1,1.2-7.3,2.6-5,4.9"/>
			<path id="svg_219" fill="none" stroke="#000000" stroke-miterlimit="10" d="M171.2,441.5c-0.8,0.8,2.9,2.4,3.1,2.4
				c2.4,0.1,4.9-0.9,6.2-3.1c1.8-2.9-0.2-4.9-1.5-7.6c-1.2-2.5-1.3-5.5-2.5-7.9c-0.8-1.4-4-1.5-5.4-1.9c-3.3-1-3.7-0.6-6.2,1.5
				c-2,1.5-3.8,2.5-2.6,4.7c0.8,1.4,1.5,5.4,3,6c-5.1,1.7,0.5,6.1,0.9,5.8c3-2.9,2.4,2.3,5.3,0.9"/>
			<g id="svg_220">
				<path id="svg_221" fill="none" stroke="#000000" stroke-miterlimit="10" d="M176.1,442.1c-0.1-0.5-1.1-4.9-2.5-4.4
					c-1.5,0.2-0.1,4.6,0.1,5c0.7,2.9,1.5,5.8,2.3,8.6c2.5,9.4,4.9,18.8,7.4,28.2c0.7,2.7,4.1,1.8,3.4-0.9c-1.2-4.2-2.4-8.3-3.6-12.5
					C180.8,458.1,178.4,450.1,176.1,442.1z"/>
				<path id="svg_222" fill="none" stroke="#000000" stroke-miterlimit="10" d="M174.4,441.5c-0.8,0.8-1-3-1-3.2
					C173.4,438,175.9,441.5,174.4,441.5"/>
			</g>
			<g id="svg_223">
				<path id="svg_224" fill="none" stroke="#000000" stroke-miterlimit="10" d="M159.6,437.8c0.7-0.5,2.6-1.4,3.1-2.5
					c1-2-3.4-1.1-3.4,0.6c-1.7-0.6-5.7,3.2-6.9,3.9c-7.9,5.1-15.8,10.3-23.7,15.4c-2.2,1.4-0.4,4.3,1.7,2.8c3.2-2.2,6.5-4.5,9.7-6.7
					C146.7,446.8,153.1,442.3,159.6,437.8z"/>
				<path id="svg_225" fill="none" stroke="#000000" stroke-miterlimit="10" d="M159.7,436.1c-0.8,0,2.5-2.7,2.5-1.6
					C162,434.7,160.9,437.3,159.7,436.1"/>
				<path id="svg_226" fill="none" stroke="#000000" stroke-miterlimit="10" d="M159.6,436.5c-3.4-1.1-11.4,6.4-14.3,8.2
					c-5.7,3.7-11.3,7.5-17,11.2c-0.4,0.3-0.7,1.1-0.2,1.6c1.2,1.2,2-0.6,2.9-1.4c3.3-3.1,7.3-5.4,11-8c3.7-2.5,7.4-5,11.1-7.5
					C154.9,439.3,157.4,436.3,159.6,436.5z"/>
			</g>
			<g id="svg_227">
				<path id="svg_228" fill="none" stroke="#000000" stroke-miterlimit="10" d="M154.4,428.9c1.1-0.3,2.7,0.1,3.8-0.8
					c1.9-1.4-2.6-2.6-3.1-1c-0.9-1.3-6.8,0.3-7.9,0.4c-9.3,1.1-18.7,2.2-28,3.3c-2.3,0.3-2.5,3.7-0.1,3.3c3.7-0.6,7.5-1.1,11.2-1.7
					C138.5,431.3,146.5,430.1,154.4,428.9z"/>
				<path id="svg_229" fill="none" stroke="#000000" stroke-miterlimit="10" d="M155.3,427.4c-0.4-0.4,2.4-0.9,3-0.5
					C158.5,426.9,155.3,429.1,155.3,427.4"/>
				<path id="svg_230" fill="none" stroke="#000000" stroke-miterlimit="10" d="M155.1,427.7c-2.3-2.3-11.9,0.6-15,1
					c-7.1,0.9-14.1,1.8-21.2,2.7c-1.9,0.2-1.5,2.5,1.1,1.7c4.6-1.5,9.5-1.9,14.3-2.5c4.1-0.6,8.2-1.2,12.3-1.8
					C149,428.5,153.2,426.7,155.1,427.7z"/>
			</g>
			<g id="svg_231">
				<path id="svg_232" fill="none" stroke="#000000" stroke-miterlimit="10" d="M175.4,442.1c-0.1-0.5-1.1-4.9-2.5-4.4
					c-1.5,0.2-0.1,4.6,0.1,5c0.7,2.9,1.5,5.8,2.3,8.6c2.5,9.4,4.9,18.8,7.4,28.2c0.7,2.7,4.1,1.8,3.4-0.9c-1.2-4.2-2.4-8.3-3.6-12.5
					C180.1,458.1,177.7,450.1,175.4,442.1z"/>
				<path id="svg_233" fill="none" stroke="#000000" stroke-miterlimit="10" d="M173.8,441.5c-0.8,0.8-1-3-1-3.2
					C172.8,438.9,174.8,440.2,173.8,441.5"/>
				<path id="svg_234" fill="none" stroke="#000000" stroke-miterlimit="10" d="M174,441.7c-2.2,2.9,2.6,13.5,3.5,16.9
					c1.9,7.1,3.8,14.2,5.7,21.3c0.2,0.7,0.7,1.4,1.7,1c1.7-0.8,0.1-2.2-0.4-3.5c-2-4.3-3-9-4.3-13.5c-1.3-4.5-2.6-9.1-3.9-13.6
					C175.7,447.9,173.2,443.8,174,441.7z"/>
			</g>
			<g id="svg_235">
				<path id="svg_236" fill="none" stroke="#000000" stroke-miterlimit="10" d="M185.1,424.7c-0.8,0-3-0.1-3.9,0.5
					c-1.9,1.3,2.2,2.7,3.1,1.3c0.9,1.3,6.5,0.3,7.6,0.3c9.4-0.2,18.7-0.4,28.1-0.5c2.6,0,3.6-3.4,0.8-3.3c-3.8,0.2-7.6,0.4-11.4,0.6
					C201.3,423.9,193.2,424.3,185.1,424.7z"/>
				<path id="svg_237" fill="none" stroke="#000000" stroke-miterlimit="10" d="M184,426.1c0.3,0.3-2.4,0.6-3,0.2
					C180.3,426.3,185,425.1,184,426.1"/>
				<path id="svg_238" fill="none" stroke="#000000" stroke-miterlimit="10" d="M184.3,425.8c2.2,2.6,11.9,0.6,15.1,0.6
					c7.1-0.2,14.3-0.4,21.4-0.5c1.9,0,1.6-2.2-1.1-1.7c-4.7,1-9.7,0.9-14.5,1.1c-4.2,0.2-8.3,0.3-12.5,0.5
					C190.5,425.8,186.1,426.9,184.3,425.8z"/>
			</g>
			<g id="svg_239">
				<path id="svg_240" fill="none" stroke="#000000" stroke-miterlimit="10" d="M184.4,431.8c-1.1-0.3-2.3-1.3-3.7-1.2
					c-2.3,0.2,0.7,3.3,2.1,2.4c0.4,1.7,5.8,3.2,7.1,3.8c8.5,4,17,8,25.6,12c2.2,1,4-1.9,1.7-2.9c-3.5-1.5-7-3-10.4-4.5
					C199.3,438.2,191.8,435,184.4,431.8z"/>
				<path id="svg_241" fill="none" stroke="#000000" stroke-miterlimit="10" d="M182.9,432.6c-0.3-0.3-2.8,0.4-2.8-1.3
					C179.7,431.3,184,431.5,182.9,432.6"/>
				<path id="svg_242" fill="none" stroke="#000000" stroke-miterlimit="10" d="M183.2,432.5c0.9,3.5,11.4,6.3,14.5,7.7
					c6.2,2.8,12.3,5.6,18.5,8.5c0.5,0.2,1.3-0.1,1.5-0.7c0.5-1.6-1.8-1.5-2.8-1.8c-4.4-1.2-8.4-3.3-12.6-5.1
					c-4.1-1.8-8.2-3.6-12.2-5.4C188.1,434.9,184.3,434.4,183.2,432.5z"/>
			</g>
			<g id="svg_243">
				<path id="svg_244" fill="none" stroke="#000000" stroke-miterlimit="10" d="M181.1,417.1c-0.7,0.5-2.6,1.4-3.1,2.5
					c-1,2,3.4,1.1,3.4-0.6c1.9,0.5,5.6-3,6.9-3.9c7.9-5.1,15.8-10.2,23.7-15.3c2.2-1.4,0.4-4.3-1.7-2.8c-3.2,2.2-6.5,4.5-9.7,6.7
					C194.1,408.2,187.6,412.6,181.1,417.1z"/>
				<path id="svg_245" fill="none" stroke="#000000" stroke-miterlimit="10" d="M180.9,418.8c0.8,0-2.5,2.7-2.5,1.6
					C177.9,420.9,180.9,417.1,180.9,418.8"/>
				<path id="svg_246" fill="none" stroke="#000000" stroke-miterlimit="10" d="M181.1,418.5c3.4,1.1,11.4-6.4,14.3-8.2
					c5.7-3.7,11.3-7.5,17-11.2c0.4-0.3,0.7-1.1,0.2-1.6c-1.2-1.2-2,0.6-2.9,1.4c-3.3,3.1-7.3,5.4-11,8c-3.7,2.5-7.4,5-11.1,7.5
					C185.8,415.7,183.3,418.7,181.1,418.5z"/>
			</g>
			<g id="svg_247">
				<path id="svg_248" fill="none" stroke="#000000" stroke-miterlimit="10" d="M174.1,412.2c-0.2,0.7-0.6,2.9-0.3,3.9
					c0.8,2.1,3.1-1.4,1.9-2.6c1.6-0.5,1.8-6.5,2-7.7c1.7-9.2,3.5-18.5,5.2-27.7c0.4-2.3-2.7-3.5-3.1-1c-0.6,3.7-1.2,7.5-1.8,11.2
					C176.7,396.2,175.4,404.2,174.1,412.2z"/>
				<path id="svg_249" fill="none" stroke="#000000" stroke-miterlimit="10" d="M175.3,413.5c0.1-0.1,1.1,3.1-0.4,3.1
					C174.9,416.8,173.9,412.8,175.3,413.5"/>
				<path id="svg_250" fill="none" stroke="#000000" stroke-miterlimit="10" d="M175.1,413.2c3-1.9,3.1-12.7,3.7-16.1
					c1.2-6.7,2.4-13.4,3.6-20.1c0.1-0.6-0.4-1.2-1-1.3c-1.8,0-1,2-1.1,3.2c-0.1,4.5-1.1,9-1.9,13.5c-0.7,4.4-1.5,8.8-2.2,13.2
					C175.9,407.8,176.6,411.7,175.1,413.2z"/>
			</g>
			<g id="svg_251">
				<path id="svg_252" fill="none" stroke="#000000" stroke-miterlimit="10" d="M164.2,414.2c0.1,0.5,1.4,2.8,2.2,3.2
					c1.8,1.1,1.4-2.9-0.3-3.4c0.6-1.9-2.4-5.8-3.1-7.3c-4.2-8.4-8.4-16.8-12.6-25.2c-1.2-2.4-4.2-0.9-2.9,1.4
					c1.9,3.5,3.7,6.9,5.6,10.4C156.8,400.3,160.5,407.3,164.2,414.2z"/>
				<path id="svg_253" fill="none" stroke="#000000" stroke-miterlimit="10" d="M165.9,414.5c0,0.1,1.4,1.7,1.4,2.7
					C167.7,417.6,164.5,414.5,165.9,414.5"/>
				<path id="svg_254" fill="none" stroke="#000000" stroke-miterlimit="10" d="M165.6,414.3c1.3-3.4-5.1-12-6.7-15.1
					c-3.1-6-6.1-12.1-9.2-18.2c-0.3-0.5-1-0.8-1.5-0.4c-1.6,0.9,0.4,2.2,1,3.1c2.7,3.6,4.6,7.9,6.6,11.9c1.9,3.7,3.9,7.4,5.8,11
					C162.8,408.8,165.8,412.1,165.6,414.3z"/>
			</g>
			<g id="svg_255">
				<path id="svg_256" fill="none" stroke="#000000" stroke-miterlimit="10" d="M154.4,419.1c0.7,0.5,2.3,1.9,3.5,1.9
					c2.3,0.1-0.1-3.4-1.7-2.8c0-1.7-5.2-4.2-6.3-5c-7.7-5.4-15.4-10.9-23.1-16.3c-2-1.4-4.4,1-2.3,2.4c3.2,2.1,6.3,4.2,9.5,6.3
					C141,410.1,147.7,414.6,154.4,419.1z"/>
				<path id="svg_257" fill="none" stroke="#000000" stroke-miterlimit="10" d="M156,418.6c-0.3-0.3,3.8,1.7,2.4,1.7
					C158.4,421.6,155.5,419.1,156,418.6"/>
				<path id="svg_258" fill="none" stroke="#000000" stroke-miterlimit="10" d="M155.6,418.6c-0.4-3.5-10.2-8.1-13-10.1
					c-5.6-3.9-11.1-7.8-16.7-11.7c-0.5-0.3-1.3-0.1-1.6,0.4c-0.9,1.5,1.6,1.8,2.5,2.2c4.1,1.9,7.7,4.8,11.5,7.3
					c3.5,2.3,6.9,4.6,10.4,7C150.6,415,154.8,416.6,155.6,418.6z"/>
			</g>
			<path id="svg_259" fill="none" stroke="#000000" stroke-miterlimit="10" d="M156.5,424c-2.4-0.8-4.2-1.7-6.9-2.5
				c-3.7-1.2-7.4-2.4-11.2-3.7c-3.9-1.3-7.8-2.5-11.7-4c-2.6-1-5.3-1.8-8-2.6c-1.2-0.3-0.3-2.1,0.7-2.1c-4.6,1.3,0,3.6,1.7,4.2
				c5,1.6,10,3.2,15,4.9c4.6,1.5,9.1,3,13.7,4.4c1.7,0.5,6,2.8,7.3,1.8C157,424.2,156.8,424.1,156.5,424
				C156.2,423.9,156.8,424.2,156.5,424z"/>
			<path id="svg_260" fill="none" stroke="#000000" stroke-miterlimit="10" d="M160.2,432.2c-5.7,1.9-11.8,4.4-17.9,6.8
				c-3.8,1.5-7.6,3-11.4,4.5c-1.8,0.7-9.9,5.6-8.8,1.2c-3.5,3.5,2.5,2.6,4,2c4.9-2,9.8-3.9,14.6-5.9c4.7-1.9,9.4-3.8,14.1-5.7
				c0.7-0.3,1.4-0.6,2.1-0.9C158,434,160.8,431.8,160.2,432.2C159.9,432.3,160.5,432,160.2,432.2z"/>
			<path id="svg_261" fill="none" stroke="#000000" stroke-miterlimit="10" d="M163,417.8c-4.2-4.2-8.5-9.6-12.7-14.3
				c-2.7-3-5.5-6-8.2-9.1c-1.2-1.4-8.7-7.3-4.1-7.7c-4.7-1.2-1.8,3.1-0.5,4.5c3.2,3.5,6.5,7.1,9.7,10.6c3.4,3.7,6.7,7.3,10.1,11
				c1.4,1.5,4.2,5.8,6.1,5.8C163.3,418.3,163.1,418.1,163,417.8C162.8,417.6,163.2,417.9,163,417.8z"/>
			<path id="svg_262" fill="none" stroke="#000000" stroke-miterlimit="10" d="M170.1,416.1c-0.4-1.1,0.4-2.2,0.3-3
				c-1.2-0.4-1-3-1.2-3.9c-0.6-3.5-1.3-7-1.9-10.4c-0.8-4.3-1.6-8.6-2.3-12.9c-0.1-0.6-3.1-13,0.6-9.3c-3.2-3.5-2.9,1.8-2.6,3.5
				c1,5.2,1.9,10.3,2.9,15.5c0.9,4.7,1.8,9.4,2.7,14.1c0.3,1.8,0.5,6.4,2.1,7.1C170.3,416.6,170.2,416.4,170.1,416.1z"/>
			<path id="svg_263" fill="none" stroke="#000000" stroke-miterlimit="10" d="M178.9,416.4c0.2-0.5,2.1-2,2.1-2.1
				c-0.7-1.1,1.1-3.1,1.6-3.9c1.7-3.1,3.5-6.1,5.3-9.2c2.2-3.8,4.3-7.6,6.6-11.4c1.1-1.8,4.3-11.1,6.4-6.8c-0.2-4.8-3.4-0.7-4.3,0.9
				c-2.6,4.6-5.2,9.1-7.8,13.7c-2.5,4.4-5,8.8-7.5,13.1c-0.4,0.7-0.8,1.3-1.1,2C179.8,413.4,178.3,417.6,178.9,416.4
				C179,416.1,178.8,416.6,178.9,416.4z"/>
			<path id="svg_264" fill="none" stroke="#000000" stroke-miterlimit="10" d="M181.1,422.9c2.3-0.8,4.2-0.9,6.7-1.7
				c3.4-1.1,6.7-2.1,10.1-3.2c4.2-1.3,8.3-2.7,12.5-3.9c1.9-0.6,10.9-5.1,9.4-0.7c3.1-3.6-2.1-2.7-3.7-2.1c-5,1.6-10,3.2-15,4.9
				c-1.8,0.6-20.5,5.1-20.5,7.4C180.6,423.2,180.9,423,181.1,422.9C181.4,422.8,180.9,423,181.1,422.9z"/>
			<path id="svg_265" fill="none" stroke="#000000" stroke-miterlimit="10" d="M182.1,428.6c5.6,1.9,12.2,3.3,18.4,4.9
				c4,1,8,2,11.9,3c2.7,0.7,5.5,1.4,8.2,2c1.2,0.3,0.7,2.2-0.4,2.2c5.1-1.8-1.3-3.7-2.8-4.1c-5.1-1.2-10.2-2.5-15.3-3.7
				c-4.7-1.2-9.5-2.3-14.2-3.5C186.1,429,181,428.1,182.1,428.6C182.4,428.7,181.9,428.5,182.1,428.6z"/>
			<path id="svg_266" fill="none" stroke="#000000" stroke-miterlimit="10" d="M176.6,432c4.2,4.2,9.1,8.7,13.8,13
				c3,2.8,6,5.5,8.9,8.4c1.4,1.4,9.4,6.4,4.8,7.4c4.7,1,1.6-3.1,0.2-4.4c-3.9-3.5-7.8-7.1-11.6-10.6c-3.7-3.4-7.5-6.8-11.2-10.2
				c-0.6-0.5-1.1-1.1-1.7-1.6C179.3,433.6,175.5,430.9,176.6,432z"/>
			<path id="svg_267" fill="none" stroke="#000000" stroke-miterlimit="10" d="M170.8,435.8c0,1.7-0.9,2.1-0.7,3.6
				c0.2,1.2-0.2,2.5-0.4,3.7c-0.5,3.9-1,7.8-1.4,11.7c-0.5,4.1-1,8.1-1.5,12.2c-0.3,1.9,0.2,11.4-3.1,8.3c2.2,4.3,3.5-0.8,3.7-2.6
				c0.6-5.2,1.2-10.4,1.9-15.7c0.6-5,1.2-10,1.8-15.1C171.3,439.6,170.8,435.9,170.8,435.8z"/>
			<path id="svg_268" fill="none" stroke="#000000" stroke-miterlimit="10" d="M166.5,436.2c-4.2,4.2-9,8.9-13.6,13.4
				c-2.9,2.9-5.8,5.8-8.8,8.6c-1.4,1.3-6.9,9.1-7.6,4.4c-1.8,4.6,3.4,1.4,4.5,0.3c3.7-3.7,7.4-7.4,11.2-11.2
				c3.6-3.6,7.1-7.1,10.7-10.7c0.5-0.5,1.1-1.1,1.6-1.6C164.9,439,167.7,435,166.5,436.2z"/>
			<path id="svg_269" fill="none" stroke="#000000" stroke-miterlimit="10" d="M186.7,479.8c-0.1,0-3.6,0.3-2.5,1.2
				c0.4,0.2,2.7,0,2.5-0.8"/>
			<g id="svg_270">
				<path id="svg_271" fill="none" stroke="#000000" stroke-miterlimit="10" d="M82.4,505.3c-0.1-0.3-1.7-5.4-2.9-4.7
					c-1.7,0.5,0.6,5,0.7,5.6c1.1,3.3,2.2,6.5,3.2,9.8c3.3,10.1,6.7,20.1,10,30.2c1,2.9,4.1,1.2,3.1-1.5c-1.6-4.4-3.2-8.8-4.8-13.3
					C88.6,522.7,85.5,514,82.4,505.3z"/>
				<path id="svg_272" fill="none" stroke="#000000" stroke-miterlimit="10" d="M80.6,504.6c-0.1,0.2-1.4-2.7-1.2-3.6
					C79.4,500.1,82.1,504.6,80.6,504.6"/>
				<path id="svg_273" fill="none" stroke="#000000" stroke-miterlimit="10" d="M81,504.8c-2.1,3.2,3.9,14.6,5.1,18.1
					c2.7,7.8,5.3,15.6,8,23.4c0.2,0.7,0.9,1.4,1.8,0.9c1.9-1.1-1.1-4.4-1.7-5.7c-2.1-4.5-3.5-9.4-5.1-14.1
					c-1.6-4.6-3.3-9.2-4.9-13.8C83.1,511.2,80.2,507.2,81,504.8z"/>
			</g>
			<path id="svg_274" fill="none" stroke="#000000" stroke-miterlimit="10" d="M95.3,523.4c-0.7-3.1-0.1-4.8-1.5-7.9
				c-1.7-4-6.3-2.2-9.5-0.4c-3.6,2-5.5,2.8-3.4,6.9c2.6,5.3,2,9.3,7.9,11.3c-0.1-1,0.6-3.6,2.1-2.1c1.5,0.9,2.1,5.6,4.5,2
				c1-1.5,0.5-1.5,2.3-2.8C99.3,529.3,95.7,524.5,95.3,523.4C95.1,522.5,96,525.6,95.3,523.4z"/>
			<path id="svg_275" fill="none" stroke="#000000" stroke-miterlimit="10" d="M93.6,516.8c1.7-0.4,0.9-1.6,3-0.9
				c2.3,0.8,1.4,3.1,1.7,5.3c0.1,1,1,3-0.2,3.8c-2.2,1.3-2.8-1.1-4.9-0.7"/>
			<path id="svg_276" fill="none" stroke="#000000" stroke-miterlimit="10" d="M97.8,526c2,1.2-0.3,6.6-1,7.8c1,0.5,2.9,0.9,4.1,1.3
				c1.7-2.7,2.4-6.2,1.1-9.2c-0.8-1.8-3.3-1.2-4.3,0.3"/>
			<path id="svg_277" fill="none" stroke="#000000" stroke-miterlimit="10" d="M101.5,535c1.4-3.1,3.4-7.4,0.9-10.5
				c4.2-2.8,5.5,5.2,5.5,7.9c0,1.4,0.8,4.8-1.5,4.3c-1.2-0.3-3.9-0.4-4.8-1.3"/>
			<path id="svg_278" fill="none" stroke="#000000" stroke-miterlimit="10" d="M106.2,523.5c-0.2,2.9,6.2,10.2,2,13.1
				c9.2,4,5.9-18.1-1.6-13.1"/>
			<path id="svg_279" fill="none" stroke="#000000" stroke-miterlimit="10" d="M111.4,522.9c1.5-0.5,2.7,12.3,2.7,13.5
				c6.3,0.7,2-15.7-3.1-14"/>
			<path id="svg_280" fill="none" stroke="#000000" stroke-miterlimit="10" d="M115,523.8c0.5,1.6,0.7,4.3,2.1,5.5
				c1.6-2.4,0.5-7.1-2.9-7.3c0.1,0.6,0.3,1.1,0.8,1.5"/>
			<path id="svg_281" fill="none" stroke="#000000" stroke-miterlimit="10" d="M88.1,514.8c-1.4,0.3-10.4,5.6-4.9,5.6
				c2.3-0.9,9.1-2.4,6.3-5.9"/>
			<path id="svg_282" fill="none" stroke="#000000" stroke-miterlimit="10" d="M84.3,521.7c-1,0.7-1.6,4.1,0.6,3.2
				c1.7-0.8,3.5-1.4,5.3-2.1c1.3-0.4,1.4-3.3,0.1-3.6c-1.4-0.3-4,1.4-5.2,2"/>
			<path id="svg_283" fill="none" stroke="#000000" stroke-miterlimit="10" d="M88.5,525.1c-3.7,0-4,4,0.3,2.8
				c4.6-1.5,6.4-4.9,0.4-3.4"/>
			<path id="svg_284" fill="none" stroke="#000000" stroke-miterlimit="10" d="M86,529.6c1.3,1.8,2.7,0.7,4.7,0.3
				c1-0.2,5.6,0.8,6.1,0.2c3.2-4.5-8.9-1.8-10.4-0.9"/>
			<path id="svg_285" fill="none" stroke="#000000" stroke-miterlimit="10" d="M96.2,516.9c-2.9,0-2.5,6.8,0,6.8
				c2.5,0.3,0.7-3.8-0.1-4.6c0.9-0.3,1.1-0.9,0.6-2"/>
			<path id="svg_286" fill="none" stroke="#000000" stroke-miterlimit="10" d="M94.4,526.7c0.7,1.2,0.4,2.3-0.7,3.1
				c1.4,0.3,0.8,0.6,2.3,1c2.4,0.3,0.8-4.8-1-4.8"/>
			<path id="svg_287" fill="none" stroke="#000000" stroke-miterlimit="10" d="M140.7,522.5c-1.3-1.8-1-1.7,0.5-2.4
				c-0.2-0.3-0.1-1.9-0.2-2.8c2.4-1.2,2.1,0,3.5,1.7c-1.6,0.4-1.9,1.1-0.9,2.2c-1.2,0.3-1.4,2.3-0.2,2.6"/>
			<path id="svg_288" fill="none" stroke="#000000" stroke-miterlimit="10" d="M174.7,511.2c1,1,1.8,5.3,3.9,6.2
				c4.9,2.3-2.5-9-4.2-7.9"/>
			<path id="svg_289" fill="none" stroke="#000000" stroke-miterlimit="10" d="M130.4,469.9c-1.4-1.4,10.2-3.4,9.4-7.1
				c-1.4-6.9,16.7-1.9,18.9-0.4c4.8,3.6,12.4,2.8,13.7,9.4c0.3,2.6-19.7,6.1-22.7,5.3"/>
			<path id="svg_290" fill="none" stroke="#000000" stroke-miterlimit="10" d="M79.2,499.8c0,1.7,4.4,1.9,4.4,0.2
				C83.6,498.3,79.2,498.2,79.2,499.8z M83,500.1c0,1.2-3.4,1.1-3.2-0.1C79.8,498.9,83,498.8,83,500.1z"/>
			<path id="svg_291" fill="none" stroke="#000000" stroke-miterlimit="10" d="M82.3,500.1c0,1.7,4.4,1.9,4.4,0.2
				C86.7,498.6,82.3,498.5,82.3,500.1z M86.1,500.3c0,1.3-3.4,1-3.2-0.1C82.9,499.1,86.1,499.1,86.1,500.3z"/>
			<path id="svg_292" fill="none" stroke="#000000" stroke-miterlimit="10" d="M85.4,500.4c0,1.7,4.4,1.9,4.4,0.2
				C89.8,498.9,85.4,498.7,85.4,500.4z M89.2,500.6c0,1.2-3.4,1.1-3.2-0.1C86,499.4,89.2,499.4,89.2,500.6z"/>
			<path id="svg_293" fill="none" stroke="#000000" stroke-miterlimit="10" d="M88.4,500.6c0,1.7,4.4,1.9,4.4,0.2
				C92.7,499.1,88.7,499,88.4,500.6C88.4,501.3,88.5,500,88.4,500.6z M92.2,500.8c0,1.2-3.4,1.1-3.2-0.1
				C89.1,499.5,92.2,499.6,92.2,500.8z"/>
			<path id="svg_294" fill="none" stroke="#000000" stroke-miterlimit="10" d="M91.6,500.9c0,1.7,4.4,1.9,4.4,0.2
				C95.9,499.4,91.6,499.2,91.6,500.9z M95.3,501.1c0,1.2-3.4,1.1-3.2-0.1C92.1,499.9,95.3,499.9,95.3,501.1z"/>
			<path id="svg_295" fill="none" stroke="#000000" stroke-miterlimit="10" d="M94.6,501.2c0,1.7,4.4,1.9,4.4,0.2
				C99,499.7,94.6,499.5,94.6,501.2z M98.3,501.3c0,1.2-3.4,1.1-3.2-0.1C95.1,500,98.6,500.2,98.3,501.3
				C98.3,501.7,98.4,500.9,98.3,501.3z"/>
			<path id="svg_296" fill="none" stroke="#000000" stroke-miterlimit="10" d="M79.2,498.5c-1.8,0-1.8,2.8,0,2.8
				C80.9,501.3,81.1,498.5,79.2,498.5z M79.2,501c-1.4,0-1.4-2.2,0-2.2C80.6,498.8,80.6,501,79.2,501z"/>
			<path id="svg_297" fill="none" stroke="#000000" stroke-miterlimit="10" d="M98.8,500c-1.8,0-1.8,2.8,0,2.8
				C100.6,502.8,100.6,500,98.8,500z M98.8,502.5c-1.4,0-1.4-2.2,0-2.2C100.2,500.3,100.2,502.5,98.8,502.5z"/>
		</g>
		<path id="svg_298" fill="none" stroke="#000000" stroke-miterlimit="10" d="M240.7,412.9c-1.6-4.7-2.9-8.7-3.3-13.7
			c-0.2-2.4,0.6-7.6-0.2-9.7c-0.5-1.4-3.7-2.8-3.7-4c-0.1-2.7-0.1-5.5,0-8.2c0.4-7.1,4.1-14.3,3.6-21.3c-4.4,1.2-8.7,1.4-13.1,2.3
			c-3.9,1.1-7.4-3.2-9.9-5.3c3.3,13.4,7.7,25.9,13.9,38.2c1.5,3,0.8,8.4,0.1,11.7c-1.4,6.4-4.8,8.5-1.3,15c0.9,1.7,7.3,10.2,9.7,7.6
			C238.7,423.3,241.2,415.8,240.7,412.9C240.4,412,240.9,414,240.7,412.9z"/>
		<path id="svg_299" fill="none" stroke="#000000" stroke-miterlimit="10" d="M225.7,414c2.6-4.2,9.6-6.6,14.2-3.6
			c1.1-5.4-15.8-2.1-14,0.7"/>
		<path id="svg_300" fill="none" stroke="#000000" stroke-miterlimit="10" d="M215.9,362.5c-1.6,0,2.7,2,1.8,1.6
			c1.7,0.6,3.8,0.7,5.6,0.5c4.1-0.3,8.9-1.6,12.9-1.6c0.2,2.7-17.6,3.2-19,2.2"/>
		<path id="svg_301" fill="none" stroke="#000000" stroke-miterlimit="10" d="M217.9,369.7c2.7,1.7,16.1,6.4,16.1,2.4
			c-1.1,0.1-18.1-1.4-16.4-4.7"/>
		<path id="svg_302" fill="none" stroke="#000000" stroke-miterlimit="10" d="M219.8,376.6c3.2,2.4,10.6-1.2,14.1-1.7
			c0,4.2-10.5,2.1-12.9,2.9"/>
		<path id="svg_303" fill="none" stroke="#000000" stroke-miterlimit="10" d="M222.4,382.6c3.9,0,7.1-1.4,11.1-2.4
			c0,4.1-7.8,3.4-10.6,3.4"/>
		<path id="svg_304" fill="none" stroke="#000000" stroke-miterlimit="10" d="M220.6,370.3c2.6-0.6,5.3-0.8,7.8-1.7
			c2-0.7,5-2.6,7.1-2.6c0.9,2.6-12.4,4.7-14.1,4.7"/>
		<path id="svg_305" fill="none" stroke="#000000" stroke-miterlimit="10" d="M225,387.6c3.4-1.2,5.2-5.6,8.4-6.5
			c0.9,3.7-8.2,5.2-8.2,7.2"/>
		<path id="svg_306" fill="none" stroke="#000000" stroke-miterlimit="10" d="M226.1,403.5c3,1,6.2,1.6,9.1,3.1
			c0.9,0.4,2.7,1.9,3.7,1.9c-0.6-2.3-1.5-3.2-4-3.9c-0.6-0.2-6.6-3-7.3-2"/>
		<path id="svg_307" fill="none" stroke="#000000" stroke-miterlimit="10" d="M227.9,403c-0.7-1.2,10.3-4,9.4-5.8
			c-2-0.2-9.4,2.3-9.4,4.6"/>
		<path id="svg_308" fill="none" stroke="#000000" stroke-miterlimit="10" d="M228.1,397.4c-0.4-0.8,8.7-0.5,9.2-0.3
			c0.6-2.2-8.6-1.2-9.4-0.8"/>
		<path id="svg_309" fill="none" stroke="#000000" stroke-miterlimit="10" d="M261.9,202.1c-3.1-3.9-4.9-4.7-2.3-10.3
			c1.9-4,10.5-5.4,14-3.2c-3.1-0.9-9.9,0.6-11.6,3.7c-1.2,2.2-0.8,5,0.3,7c0.5,1,2.6,3.5-0.1,3"/>
		<path id="svg_310" fill="none" stroke="#000000" stroke-miterlimit="10" d="M262.7,201.6c-3.1-6.2,9.4-14,14.3-11.5
			c-3,1.1-5.8,2.2-8.4,4.1c-2.1,1.5-4,7.8-6.2,7.8"/>
		<path id="svg_311" fill="none" stroke="#000000" stroke-miterlimit="10" d="M399.9,403.3c0.3-3.4-2.9-4.2-5.3-5.7
			c0.7,0.6,4.3,2.9,3.9,3.7c-1.8,3.7-3.9,7.1-5.9,10.7c-1.6,2.9,1.3,5.3,0.3,7.8c-1.4,3.5-4.2,6.4-5.8,9.9c-0.9,2.1-3.4,8.9-6.2,9.3
			c-1.9,0.3-1.1-7.5-0.9-8.5c-1.9-2.9,0.6-11.6,0.6-15.1c0-3.1,3.7-6.8,7-4.3c1.3-2.5,8.1-12.5,6.1-14.1c0.7,0.7-5.1,10.9-5.7,12.2
			c-2.3-3.6-6.2-1.1-8.7,1c-1.9,1.7-0.1,8.5-0.3,11c-0.2,3.7-5,19.6,1.4,21.2c2.5,0.6,7.3-9.5,8.4-11.5c2.1-3.9,5.6-7.4,7.5-11.2
			c0.9-1.9-3-4.8-1.6-7.7C396.4,409.1,398.1,406.2,399.9,403.3z"/>
		<path id="svg_312" fill="none" stroke="#000000" stroke-miterlimit="10" d="M387.7,435.5c-2.2-1.1-4.7,2.5-2.7,4.3
			c1.3,1.2,5.3-2.6,3.3-4.3"/>
		<path id="svg_313" fill="none" stroke="#000000" stroke-miterlimit="10" d="M391.4,429c-2.2-1.1-4.7,2.5-2.7,4.3
			c1.3,1.2,5.3-2.6,3.3-4.3"/>
		<path id="svg_314" fill="none" stroke="#000000" stroke-miterlimit="10" d="M395.3,422.7c-2.2-1.1-4.7,2.5-2.7,4.3
			c1.3,1.2,5.3-2.6,3.3-4.3"/>
		<path id="svg_315" fill="none" stroke="#000000" stroke-miterlimit="10" d="M375.9,436.6c3.6-0.8,1.3-8-1.9-5.4
			c-1.1,1-1.4,5.9,1.2,5.7"/>
		<path id="svg_316" fill="none" stroke="#000000" stroke-miterlimit="10" d="M377.8,428.7c3.4-2.1-1.7-8.3-3.7-4.7
			c-0.7,1.4,0.9,6,3.3,5.1"/>
		<path id="svg_317" fill="none" stroke="#000000" stroke-miterlimit="10" d="M377.7,420.8c3.1-1.8-1.5-8.2-3.6-4.6
			c-0.6,1.2,0.6,6.2,3,5"/>
		<path id="svg_318" fill="none" stroke="#000000" stroke-miterlimit="10" d="M375.9,436.3c2.4-0.6,2.1-5.1-0.6-5.2
			c-1.7-0.1-2.8,5.5,0,5.3"/>
		<path id="svg_319" fill="none" stroke="#000000" stroke-miterlimit="10" d="M377.6,428.3c2.2-1.4,0.3-5.4-2.3-4.7
			c-1.7,0.5-0.6,6,1.8,4.9"/>
		<path id="svg_320" fill="none" stroke="#000000" stroke-miterlimit="10" d="M377.6,420.5c2.2-1.4,0.3-5.4-2.3-4.7
			c-1.7,0.5-0.6,6,1.8,4.9"/>
		<path id="svg_321" fill="none" stroke="#000000" stroke-miterlimit="10" d="M377.1,417.9L377.1,417.9"/>
		<path id="svg_322" fill="none" stroke="#000000" stroke-miterlimit="10" d="M380.1,417.4c-0.5,0-3.3-0.4-3.2,0.9
			c0,1.3,2.3,0.7,3.1,1.1"/>
		<path id="svg_323" fill="none" stroke="#000000" stroke-miterlimit="10" d="M377.2,427c0.7,0.3,1.4,0.5,2.2,0.7
			c0.5-2-2-3.2-2.6-1.3"/>
		<path id="svg_324" fill="none" stroke="#000000" stroke-miterlimit="10" d="M376.1,434.9c0.7,0.3,1.4,0.5,2.2,0.7
			c0.5-2-2-3.2-2.6-1.3"/>
		<path id="svg_325" fill="none" stroke="#000000" stroke-miterlimit="10" d="M407.4,386.6c2.6-5.7,5.3-11.4,7.9-17.2
			c1.4-3,8.4-13.2,6-16.3c-5.4,11.3-10.7,22.7-16.1,33.9C405.9,386.9,406.7,386.9,407.4,386.6z"/>
		<path id="svg_326" fill="none" stroke="#000000" stroke-miterlimit="10" d="M402.2,383.7c2.6-5.7,5.3-11.4,7.9-17.2
			c1.3-2.9,8.5-13.3,6-16.3c-5.4,11.3-10.7,22.7-16.1,33.9C400.7,384,401.5,384,402.2,383.7z"/>
		<path id="svg_339" fill="none" stroke="#000000" stroke-miterlimit="10" d="M407.5,366c-4.5-0.5-4.7-9.5-1.6-11.5
			c0.2,3.1-0.3,5.3,2.2,7.6c1.7,1.4,1.7,1.8,0.4,3.6"/>
		<path id="svg_340" fill="none" stroke="#000000" stroke-miterlimit="10" d="M408.4,363.8c-1.1-2.2-4-9.6,0.2-10.8
			c-0.7,2.4-1.9,4.8-0.6,7.3c0.3,0.6,2.5,2.4,1.6,3.2"/>
		<path id="svg_341" fill="none" stroke="#000000" stroke-miterlimit="10" d="M411.2,361.2c-1.9-1.6-5.2-6.1-2.5-8.4
			c-0.1,1.3,4,7.1,3.6,7.3"/>
		<path id="svg_342" fill="none" stroke="#000000" stroke-miterlimit="10" d="M412.1,359.1c0-2.1-3.7-6-0.9-7.7
			c0.1,1.7,2.4,6.2,1.4,7.6"/>
		<path id="svg_343" fill="none" stroke="#000000" stroke-miterlimit="10" d="M341.8,625.1c-3-2.2-6.2,7.5-6.7,8.5
			c-1.7,4.2-7,9.4,1.5,8.5c3.9-0.4,9.3,0.4,10.5-3.4c0.6-2.1,3.4-11.9-1.2-11.9"/>
	</g>
</g>
</svg>
