<?xml version="1.0" encoding="UTF-8" standalone="no"?>
<!-- Created for Inkscape (http://www.inkscape.org/) -->

<svg
   xmlns:dc="http://purl.org/dc/elements/1.1/"
   xmlns:cc="http://creativecommons.org/ns#"
   xmlns:rdf="http://www.w3.org/1999/02/22-rdf-syntax-ns#"
   xmlns:svg="http://www.w3.org/2000/svg"
   xmlns="http://www.w3.org/2000/svg"
   xmlns:sodipodi="http://sodipodi.sourceforge.net/DTD/sodipodi-0.dtd"
   xmlns:inkscape="http://www.inkscape.org/namespaces/inkscape"
   width="3200"
   height="800"
   id="svg2985"
   version="1.1"
   inkscape:version="0.48.1 r9760">
  <defs
     id="defs2987" />
  <sodipodi:namedview
     id="base"
     pagecolor="#ffffff"
     bordercolor="#666666"
     borderopacity="1.0"
     inkscape:pageopacity="0.0"
     inkscape:pageshadow="2"
     inkscape:zoom="0.35"
     inkscape:cx="1600"
     inkscape:cy="400"
     inkscape:document-units="px"
     inkscape:current-layer="layer1"
     showgrid="false"  />
  <metadata
     id="metadata2990">
    <rdf:RDF>
      <cc:Work
         rdf:about="">
        <dc:format>image/svg+xml</dc:format>
        <dc:type
           rdf:resource="http://purl.org/dc/dcmitype/StillImage" />
        <dc:title />
      </cc:Work>
    </rdf:RDF>
  </metadata>
  <g
     inkscape:label="Layer 1"
     inkscape:groupmode="layer"
     id="layer1"> 
     <g>
<path style="fill:none;stroke:black;stroke-width:2px;stroke-linejoin:round;stroke-linecap:round;" d="M 
1135.5898 550.0901
1140.0505 541.3888
1140.5935 532.72327
1130.4093 531.9669
1119.9713 541.53253
1128.7377 543.0701
1127.5503 555.36804
1117.7015 562.08057
1094.6526 582.56824
1091.8116 619.5403
1128.7543 618.73553
1154.8668 593.1831
1173.6273 622.2937
1147.5138 650.51465
1157.3804 672.6988
1162.513 695.0084
1129.8029 683.0647
1097.8784 656.3006
1094.8287 688.6689
1091.5867 718.4884
1095.2059 746.7103
1132.495 745.1616
1125.5563 713.7252
1158.422 719.4816
1167.4606 743.5544
1196.583 753.79834
1200.0608 727.0529
1192.9291 703.03217
1188.8402 674.1932
1214.4021 667.6417
1200.7738 635.7277
1189.0742 586.5761
1199.8862 562.59814
1187.6877 559.72156
1189.7993 552.47394
1181.2433 554.0182
1177.3136 558.857
1168.7782 563.7278
1167.8817 554.9091
1172.0281 547.4076
1181.8049 546.7959
1187.1621 540.3501
1189.5325 532.07764
1191.497 524.47876
1196.9336 520.34937
1204.3962 522.05975
1201.9335 532.0493
1197.5316 538.297
1196.5581 545.15295
1197.6896 550.3091
1198.8035 555.69135
1207.7494 552.8679
1210.7445 541.7749
1210.5294 529.611
1219.2614 531.9467
1218.3555 521.7538
1212.8468 522.5916
1213.0411 516.28174
1208.0159 512.03674
1200.5557 511.55847
1198.5275 502.95245
1189.0054 498.9776
1190.3148 512.5228
1182.6034 519.12946
1177.1934 511.04745
1172.5275 504.35248
1184.2397 507.0379
1180.5405 500.39465
1181.0416 492.23776
1186.236 487.69492
1184.184 478.40265
1192.636 474.80463
1185.1431 466.5428
1191.2745 467.76913
1199.7887 466.3287
1202.4044 476.93335
1192.1373 482.51752
1197.5526 485.33582
1196.4706 493.5056
1203.6704 486.8048
1209.8453 485.2164
1215.975 494.00433
1206.8062 495.338
1211.521 502.817
1216.4755 509.1695
1222.9445 510.24274
1221.611 517.22174
1229.1807 513.05505
1228.4373 519.1076
1225.1647 524.81647
1229.1846 531.3476
1228.7468 539.5377
1220.7493 542.0542
1223.4708 550.0491
1216.928 558.24084
1230.6328 554.9789
1232.3054 565.24274
1217.0319 596.62897
1241.0309 618.8337
1234.9126 650.7113
1257.031 668.5351
1246.0264 688.69055
1228.4626 707.97876
1231.1036 744.16693
1260.1396 729.7329
1278.6084 703.0761
1281.0131 751.93866
1304.394 737.1447
1333.3628 735.2698
1355.026 756.00244
1362.8092 730.3471
1389.4443 750.8583
1386.5321 724.6349
1384.1279 700.5783
1346.2021 701.642
1308.6404 710.06824
1316.3455 686.2268
1311.6414 660.8467
1282.7914 669.4886
1266.709 644.0917
1279.7288 625.5638
1303.1838 619.6176
1322.5839 631.8812
1345.5238 640.61194
1353.8777 672.543
1378.8293 668.7041
1406.9385 686.862
1429.0403 698.61707
1426.1536 667.2849
1399.7966 661.214
1411.4327 639.2468
1377.0901 634.93475
1364.3928 606.1478
1330.4908 597.0343
1305.6964 569.0469
1297.4492 587.95416
1275.019 595.67993
1253.2411 584.5902
1280.6754 555.8684
1314.446 551.24207
1337.4847 563.02246
1361.4069 575.47614
1377.9117 548.4569
1400.4915 538.96423
1407.2705 551.4365
1389.5339 567.772
1392.3574 589.9018
1400.1273 612.4127
1423.0916 610.0224
1437.3262 627.531
1454.0402 613.04724
1467.4084 598.3259
1472.4594 581.98816
1440.3706 590.28064
1416.715 581.4047
1430.5596 560.9187
1417.5979 556.44574
1416.6877 543.32245
1423.3254 536.33716
1427.1418 548.1321
1436.6367 551.5316
1441.9963 557.19116
1450.3494 561.3909
1458.372 555.9042
1466.0042 560.86414
1475.0499 557.594
1482.4822 558.1666
1488.2511 562.6292
1489.56 555.01025
1496.667 551.8223
1492.1775 546.8524
1497.3046 545.65546
1503.6754 545.7936
1497.4529 556.972
1500.4653 561.84796
1505.237 553.931
1511.6089 558.75
1519.6473 568.369
1541.3254 563.43005
1553.3901 586.45483
1567.3623 609.1302
1547.0377 627.17444
1571.2218 647.0476
1576.9948 676.0328
1602.3726 679.2774
1595.0046 699.9294
1601.3851 724.3335
1574.9792 721.05676
1555.4781 702.84344
1547.6079 674.63324
1526.213 649.42896
1505.4183 636.5488
1511.7128 613.4404
1529.2697 595.86804
1510.9207 583.17126
1493.6002 578.6511
1496.9253 596.60565
1483.1138 619.6338
1470.5782 639.7877
1445.253 648.97797
1448.1514 672.78503
1472.2046 667.32324
1457.2734 689.2582
1463.9761 708.0622
1443.4813 725.0563
1416.9241 718.7594
1409.6802 738.7788
1427.9484 749.93304
1453.4958 751.46533
1475.6074 739.4333
1494.0565 722.12396
1495.0745 694.15454
1495.2574 666.35486
1522.2883 677.9134
1525.173 713.68915
1516.5103 746.4989
1552.5995 740.2572
1588.3105 749.9271
1624.0461 738.94836
1631.3478 710.0463
1625.2954 685.68085
1608.0242 658.7865
1607.6721 637.16626
1601.6647 616.17957
1588.2876 598.3165
1599.5076 583.7243
1618.5587 569.9783
1624.6702 557.4073
1625.8237 548.1953
1616.9418 541.6271
1609.8696 543.6905
1603.5931 538.20544
1595.0979 542.5499
1594.836 535.58936
1598.688 528.771
1607.9528 530.8645
1615.5178 533.3774
1625.5153 530.6034
1622.8811 538.9073
1629.6434 539.3689
1636.529 538.17487
1639.9504 527.82434
1633.1749 526.4994
1629.2278 519.81415
1621.2164 521.6201
1614.75 525.09735
1604.582 522.37555
1603.8743 514.7121
1601.7456 504.1473
1602.9167 495.05124
1609.5336 487.87863
1612.143 497.2967
1615.6211 506.2166
1608.7451 507.91794
1611.8943 516.1465
1617.7258 512.8213
1624.3738 512.55005
1632.2522 512.8566
1635.0139 505.59018
1626.5498 504.40903
1619.0193 502.07944
1620.9678 496.628
1618.6481 490.2391
1616.4237 484.34106
1615.053 480.0899
1614.0791 475.84174
1609.1438 472.51727
1610.0552 465.1827
1602.7699 459.4986
1602.6653 452.32553
1603.0107 442.12952
1607.3506 436.14914
1603.4369 428.34164
1609.0681 424.43793
1607.95 417.14514
1601.8572 418.90076
1596.7449 419.6651
1594.6903 414.2197
1592.9272 408.8591
1587.7307 405.78137
1581.6399 407.4664
1580.3855 401.9179
1576.5679 397.34796
1574.0773 407.81796
1580.3787 413.16782
1586.4249 415.9618
1590.5757 420.93622
1580.1582 420.83408
1583.023 427.7839
1591.2234 428.1229
1597.7299 427.4466
1595.8782 436.37335
1587.8784 434.99353
1582.9192 438.02972
1580.7312 444.61804
1576.6494 450.34894
1590.0347 445.2245
1597.3236 447.9426
1588.3446 456.18457
1594.646 465.79916
1579.6589 461.52988
1576.995 472.99573
1560.5989 462.64136
1542.7087 461.1568
1520.1832 458.5018
1503.4553 443.97028
1509.0867 421.5965
1535.7057 433.146
1561.6261 438.6782
1576.9692 435.29623
1574.1365 426.74292
1571.8033 416.98935
1547.1691 410.91733
1564.0721 392.75482
1577.72 386.37033
1578.795 378.00525
1576.7227 368.54968
1584.1726 368.42883
1588.7639 374.01193
1597.4229 369.71124
1587.9661 362.22137
1586.2128 354.3891
1577.2766 357.66394
1578.8179 347.73224
1582.0251 339.10376
1587.1572 343.5819
1590.0236 348.32007
1594.5164 355.01886
1600.5757 361.25693
1609.1061 359.0371
1612.9386 364.74118
1607.0464 368.20612
1609.7072 374.74545
1605.2723 381.10837
1597.3251 379.5354
1589.696 382.9942
1587.6368 389.83945
1582.4141 394.00653
1587.5399 398.7531
1598.3213 390.30603
1606.9639 394.44162
1602.9608 400.36142
1594.6348 399.6137
1601.3127 408.83685
1609.66 406.34576
1614.0681 413.29926
1623.3105 413.79517
1620.8596 407.9167
1618.1504 402.1274
1627.7444 401.32175
1636.837 402.06537
1631.7549 407.4226
1629.2606 413.87323
1634.1494 414.6914
1633.9355 421.28574
1636.1904 426.98157
1636.8966 435.03488
1627.7158 435.60913
1626.5654 423.50366
1618.0798 421.91635
1612.9387 430.1262
1619.243 434.6705
1624.5708 448.04114
1613.5603 446.06458
1615.11 456.94006
1623.918 458.45114
1630.7432 461.5156
1627.3154 467.86475
1620.1716 467.2666
1618.3514 473.29327
1624.4379 476.28928
1631.3792 474.77756
1637.7988 474.70956
1642.9628 478.0815
1635.3573 482.23328
1628.9536 482.80725
1623.5173 484.76303
1626.9836 492.90878
1631.4822 496.87067
1637.0977 497.42194
1636.783 489.1928
1644.3359 485.52048
1650.8567 484.36505
1655.0234 487.7614
1660.8887 491.1748
1655.2552 494.1413
1647.5894 493.00012
1643.0878 498.86484
1642.2283 509.31433
1639.0312 516.547
1645.4465 520.963
1651.6523 518.9746
1652.9846 511.63403
1647.669 507.28796
1652.1636 501.37616
1661.156 498.4222
1665.6741 493.98517
1666.1665 503.3025
1658.5605 504.79974
1661.1731 510.15802
1666.0809 517.96606
1665.0251 523.13477
1668.9667 528.3086
1667.854 534.9889
1675.6732 535.11926
1684.7953 540.09326
1678.1038 547.73035
1671.1431 551.5846
1672.0804 543.9084
1667.0149 541.5226
1661.4623 545.1154
1655.2068 547.8071
1659.4503 538.5514
1660.2915 531.1432
1658.9834 516.90375
1657.7222 524.2785
1651.7057 528.1645
1644.9407 533.1093
1652.5887 535.47815
1650.375 541.6733
1647.9684 551.5241
1643.2145 543.6499
1636.6323 548.8374
1635.0796 557.45715
1643.8616 561.15186
1654.7766 565.6975
1656.7491 555.15015
1664.1782 551.5575
1665.6068 559.902
1675.3318 558.63916
1686.5254 563.1425
1699.1514 583.37396
1671.3739 592.4429
1636.2974 597.3148
1635.7505 630.10095
1666.1211 623.95874
1691.1926 625.1377
1695.7295 649.9648
1676.1433 667.071
1657.0066 649.76526
1637.609 664.78345
1658.1194 686.5497
1702.7212 674.96405
1728.8076 683.25806
1714.5524 702.9006
1689.1859 703.09534
1663.2065 713.38525
1646.6956 756.3681
1665.7461 739.33105
1701.8962 738.17334
1739.2524 745.4977
1774.5856 742.0158
1738.1743 716.504
1746.3949 676.69745
1751.7281 657.6839
1723.2267 642.5885
1709.19 610.85803
1719.8726 577.4972
1731.2698 597.1836
1749.6636 611.50305
1752.9828 635.1534
1787.7109 657.6786
1776.5513 678.95715
1763.611 698.8884
1771.157 721.161
1799.6532 722.64417
1788.0615 755.0485
1814.8074 742.96533
1826.8079 779.2997
1845.636 742.22156
1840.6782 714.6147
1821.2585 711.903
1798.0175 693.84644
1818.2042 679.2539
1816.8627 644.1386
1842.2314 609.23816
1871.8815 572.3428
1843.5933 577.85284
1814.5815 612.1129
1783.1837 631.03894
1784.1508 605.30396
1779.491 583.4606
1756.546 584.33417
1741.0327 569.31476
1753.2898 552.47107
1776.2573 555.525
1796.2233 567.568
1816.0007 579.5014
1802.4823 537.3434
1827.1628 547.78577
1851.6475 545.75507
1874.9354 538.86975
1892.1174 515.69775
1894.1497 508.0346
1901.4977 508.35645
1901.9158 516.1118
1907.3108 519.9105
1908.7169 526.0464
1897.5979 526.25574
1905.9617 536.2808
1914.3218 528.77527
1917.7305 533.7528
1926.1492 533.49005
1919.7312 540.6836
1911.3276 547.5405
1899.703 569.38367
1899.0121 595.4766
1873.4075 598.0522
1862.388 614.46045
1876.3083 624.8974
1891.921 627.6445
1905.8905 647.6573
1913.0787 671.01294
1884.8774 699.45184
1886.9546 679.9641
1880.9216 660.63226
1863.28 660.171
1857.926 635.716
1843.4424 648.2899
1836.8851 667.20154
1850.1366 688.23755
1861.513 712.84174
1872.7139 730.13153
1883.9934 750.3149
1894.9156 722.9895
1917.147 705.92865
1947.4146 702.09424
1978.6985 700.7795
1949.9873 733.59564
1912.9104 736.6605
1931.2185 747.43506
1971.8757 734.0254
1982.1534 750.52893
1994.2686 780.976
2015.7421 743.7947
1995.7777 738.3913
2003.5745 716.5082
2030.3936 708.7031
2008.9567 688.51843
2003.6162 663.0243
2000.1974 633.5741
1979.1616 644.7743
1967.8936 670.80505
1935.9758 679.1106
1937.1384 655.6531
1953.6272 643.7357
1955.228 621.32294
1975.2871 614.2041
1995.1287 603.31836
2001.1724 585.3247
1980.157 585.8867
1972.2178 573.3719
1968.3396 564.9879
1964.1838 560.4332
1958.3367 556.47003
1949.1465 562.4077
1957.3822 569.06995
1959.4343 593.5591
1933.7394 631.2433
1913.9288 622.3584
1929.3801 604.41064
1930.3888 582.82837
1937.4841 560.33905
1932.3477 549.5352
1924.724 556.5005
1924.1375 546.77997
1931.676 540.592
1931.4949 527.0695
1922.5096 525.7461
1926.7969 519.0122
1927.3557 509.98358
1935.0676 515.07135
1935.8557 522.4157
1943.3624 521.7622
1951.4636 525.14905
1956.0613 516.3192
1950.6238 516.80743
1946.4191 513.1835
1941.217 509.78497
1934.9111 504.7613
1927.3616 501.03915
1926.6685 493.5941
1935.5645 495.2472
1942.123 495.39264
1944.8274 501.21698
1951.8054 505.86078
1954.1719 495.4677
1948.0895 489.91315
1954.8752 484.93784
1961.9551 479.54956
1963.0259 488.5257
1969.3003 492.3152
1962.2483 496.68994
1967.6771 501.7276
1959.7451 503.7187
1961.6565 510.69617
1960.391 520.72437
1960.5828 525.6841
1958.2528 530.3434
1955.5701 538.6703
1951.8577 532.85693
1943.8004 530.7201
1935.0021 532.6014
1939.1309 538.7624
1946.0042 541.0609
1940.2131 550.1365
1948.7461 553.21735
1952.6245 545.408
1959.1191 548.5517
1966.7969 547.53705
1963.7874 542.17004
1969.3114 536.6471
1962.3228 535.3367
1965.8225 527.61725
1971.7198 528.79626
1974.2881 522.27026
1980.1573 517.3318
1974.2605 512.8558
1967.4028 517.14734
1971.84 506.66864
1980.0823 510.0031
1984.5382 508.87146
1988.4758 512.3505
1993.5599 506.10785
1986.114 503.36475
1979.8834 501.5278
1974.739 496.92014
1983.0101 492.64825
1990.7402 496.05377
2000.0593 497.94568
2000.6774 511.26852
2009.5139 512.46106
2007.1718 503.9492
2012.0658 497.01926
2019.9988 495.20233
2027.9758 497.6616
2032.6149 490.00513
2043.8561 489.88196
2045.4136 497.80994
2036.5974 503.44702
2046.2355 506.64792
2043.7542 513.6123
2037.9219 514.5297
2030.3113 512.77954
2025.6405 506.31915
2017.8239 509.44922
2013.292 518.84753
2020.4131 520.0949
2022.4016 529.7461
2028.0144 519.94446
2035.5579 522.4643
2029.1589 527.4022
2028.5645 537.1554
2020.7878 544.515
2028.3284 548.43915
2033.2065 555.30707
2038.1743 549.71216
2046.0793 545.61676
2061.2124 543.1042
2055.4954 558.01025
2043.0691 558.166
2032.8282 561.7055
2023.3188 560.4195
2020.3713 554.10583
2010.156 549.397
2003.5388 554.0111
1996.8785 557.5172
1991.1622 561.99347
1985.579 557.7675
1979.5178 553.6742
1984.9988 547.3168
1992.1431 546.8393
1999.0796 547.4637
1986.5271 537.46375
1996.6123 535.907
2005.0413 536.4392
2009.5391 543.27435
2014.446 539.1097
2016.9827 534.2746
2012.7518 527.3921
2005.9697 520.4453
2002.6677 527.08264
1996.7673 519.6376
1990.0747 517.7839
1991.6733 528.225
1984.6069 522.68097
1981.3848 528.82697
1977.3743 535.0774
1976.2251 542.3789
1974.5383 548.6102
1968.183 552.60974
1970.9993 556.81775
1975.9327 560.518
1976.3513 565.50867
1983.435 565.36053
1990.2445 574.1205
1997.909 565.332
2005.8325 567.3247
2005.572 561.65607
2011.5415 557.0933
2015.467 563.1945
2013.7751 576.5153
2027.6211 567.2545
2044.5852 587.46436
2071.076 586.04285
2085.936 607.98914
2074.8188 627.91113
2051.216 640.47577
2049.269 613.8118
2023.1201 589.9678
2017.4409 613.09033
2025.6675 636.09875
2034.4733 658.2455
2036.6422 678.75885
2054.811 691.46844
2056.1523 710.9482
2053.9783 728.3725
2031.7539 734.70435
2054.0334 749.30786
2078.5088 726.9115
2092.809 748.7384
2112.857 730.27124
2102.794 705.1135
2108.5386 684.1528
2078.9375 696.423
2068.6533 666.5398
2086.3364 646.19434
2107.862 660.6262
2111.368 630.3299
2112.5432 599.25867
2105.1548 573.2257
2094.4746 550.52576
2117.1646 524.49695
2098.7246 517.88336
2078.9592 518.92615
2055.566 521.21326
2052.5786 528.72327
2050.0715 536.7768
2042.968 536.1731
2035.7544 541.54364
2035.3799 531.2307
2041.8597 530.4114
2045.9542 526.49365
2041.2244 522.50635
2046.9712 520.2166
2050.017 513.9881
2065.068 506.0156
2068.8955 483.82666
2048.332 469.86728
2032.6404 454.7645
2010.6357 448.7422
1990.0895 442.96777
1992.1113 435.3973
1987.8151 430.76132
1989.2123 425.99634
1998.8572 419.84555
2004.1875 430.85022
2019.3301 428.78464
2022.5576 411.785
2005.0146 404.4775
1990.9736 398.7214
1984.6675 403.39767
1990.0298 407.11606
1991.7576 413.96954
1985.4038 413.48337
1988.5463 420.482
1981.2047 419.1688
1972.5659 421.41217
1978.7236 425.9912
1978.9773 432.19006
1985.0972 436.2611
1981.1365 440.7392
1982.1292 448.03412
1978.831 455.483
1971.2451 454.8874
1966.2513 458.40414
1952.748 462.11606
1960.6865 462.33887
1974.0632 464.77197
1983.041 462.23203
1989.6179 452.3499
1991.3164 463.57297
1999.527 473.6336
1999.5869 488.36884
1989.411 484.39014
1985.597 472.92807
1980.6538 478.93884
1978.7029 484.65216
1974.433 488.47778
1969.7643 481.2229
1974.8519 473.48376
1967.2996 470.6712
1960.075 470.9735
1954.0684 473.66046
1948.351 476.3913
1943.5056 470.78442
1944.8613 464.6372
1938.0999 456.15182
1944.458 457.64972
1950.863 449.38263
1941.3342 447.36884
1942.8892 439.09375
1949.4783 433.79388
1957.9481 436.4111
1958.7653 449.83624
1965.4824 445.6915
1972.6989 449.27032
1975.1274 444.76556
1972.3605 438.3083
1967.7974 431.89984
1959.7803 425.01807
1964.6562 417.32553
1971.3398 412.75232
1978.9945 410.69492
1978.0504 399.92938
1973.0852 404.45297
1963.6016 407.79144
1955.5396 414.10864
1952.8586 404.37143
1965.7129 399.76746
1966.7026 392.13043
1970.2056 385.27545
1968.145 378.34113
1961.3416 382.7987
1957.4517 393.10007
1950.9727 385.8106
1954.4832 379.0114
1948.326 377.91595
1942.2598 376.92017
1942.6777 370.70105
1941.0721 363.9057
1933.8269 364.8866
1929.6313 369.31174
1926.0675 373.33795
1919.5981 369.4453
1923.751 364.62326
1920.534 359.00937
1918.5828 353.08368
1912.8684 351.44055
1911.6482 343.1311
1919.1589 342.7364
1925.7542 343.0085
1928.306 335.6034
1928.6294 328.44882
1932.4612 325.56622
1937.3257 322.07968
1942.978 325.55896
1937.6068 330.61365
1934.95 336.0655
1936.2955 340.82892
1944.0637 337.89578
1946.5254 331.9254
1952.2604 331.30374
1955.0598 340.51874
1947.2026 346.0562
1938.7986 346.84436
1931.4642 346.5134
1925.8586 351.77795
1927.8098 359.53748
1934.7546 355.2839
1943.6359 354.99512
1953.6147 355.19556
1949.167 362.3901
1951.4308 370.05298
1958.4573 375.0826
1959.238 369.3833
1964.9093 371.05017
1970.7219 373.113
1975.5442 375.49567
1979.295 380.4698
1981.9224 386.1341
1976.0096 391.6427
1983.6085 394.7286
1990.3817 390.7905
1990.3105 382.79733
1989.0278 374.8354
1985.5637 367.5412
1980.726 372.47345
1978.568 365.04517
1971.614 367.13983
1974.2598 360.4701
1970.6687 356.46832
1965.029 362.56146
1957.3501 362.45734
1964.5802 354.55145
1956.0404 348.8877
1962.7458 347.1333
1965.2073 339.90186
1967.307 333.2814
1958.2888 334.26544
1961.3618 328.69083
1955.9591 324.32602
1949.3411 322.76233
1943.998 316.6902
1948.8673 308.8032
1955.0105 307.30692
1953.2461 316.30493
1958.926 311.25928
1963.0471 314.68808
1962.612 321.94873
1969.125 318.33176
1973.9596 312.99643
1969.9248 307.7049
1972.7561 300.52975
1980.7229 308.3727
1986.7317 300.26917
1990.0543 306.96725
1998.6234 308.02353
1993.6096 315.16876
1986.6571 314.5551
1985.7546 323.91855
1978.679 319.10516
1973.7915 324.17004
1969.1165 327.47144
1978.0558 331.16486
1986.8591 334.1032
1985.8015 340.7203
1996.93 338.63928
1993.5916 329.9464
2000.2789 327.94046
2008.5109 339.8889
2007.8344 332.54086
2006.937 323.8939
1996.794 320.307
2006.6868 315.35303
2007.6266 304.30832
1999.8317 299.0882
1993.2792 295.37405
1979.3804 297.45703
1978.2203 289.53394
1985.9727 290.21857
1990.8412 285.31195
2000.1079 288.06195
2006.5974 292.90015
2012.8911 290.43524
2018.1714 299.38696
2016.3289 308.17517
2016.5884 317.4565
2032.7576 319.80106
2027.9105 314.13812
2025.9153 307.75754
2028.75 300.1295
2037.2764 297.21442
2039.6328 304.68042
2039.0312 312.38354
2042.1366 322.05228
2048.5234 333.77612
2048.4954 344.884
2039.3217 348.18896
2033.4065 358.0278
2040.6918 362.0329
2046.9895 378.24152
2022.1846 365.6333
2022.1085 355.4676
2029.9958 351.69504
2026.1555 346.09775
2031.7867 340.05585
2039.5071 335.19446
2033.5697 328.63293
2024.6344 324.81174
2016.6908 328.74847
2021.0735 337.12003
2018.465 345.903
2013.7755 355.88974
2006.0342 356.52206
2009.1372 347.81793
2000.6726 346.25647
1996.8391 352.51218
1991.2163 347.83057
1985.1685 348.2645
1979.6943 342.43286
1974.1375 338.60486
1970.1144 346.54916
1976.6218 346.83026
1974.2739 352.6317
1979.9227 351.22177
1980.8265 356.1406
1985.0122 359.10126
1991.563 357.03827
1991.5964 364.35443
2000.9 360.20407
2003.4824 372.02594
2012.8615 384.86395
2022.7361 396.3836
2041.3298 395.76532
2037.9205 421.7052
2056.2056 426.68967
2067.12 444.0941
2085.3853 463.01083
2103.254 488.09555
2114.428 457.7022
2094.2732 435.7104
2112.9976 419.63934
2110.5825 392.48083
2087.773 406.61163
2063.4424 403.37073
2074.5073 382.16025
2091.7576 364.92535
2104.1802 368.5866
2118.5156 370.27658
2114.6113 341.13348
2092.6548 337.5757
2076.0608 361.30798
2048.1006 356.51007
2067.8518 348.07562
2069.872 323.52136
2049.7583 320.69397
2048.9216 308.3921
2047.6748 297.34232
2046.8145 288.06354
2038.737 288.79895
2029.6315 290.09857
2020.7347 288.8262
2030.3888 272.83316
2009.9854 270.41156
2005.1302 254.47832
2029.076 249.2186
2017.627 231.0751
2039.7117 203.19498
2056.4585 232.69208
2076.6777 254.09073
2051.111 260.95068
2060.3425 280.59753
2063.4595 299.04828
2078.9556 297.06033
2091.3357 314.7014
2113.4976 305.11804
2098.6958 279.72238
2108.4702 254.4136
2105.894 226.5769
2070.1873 203.74118
2098.8293 201.79614
2116.7668 184.32878
2091.094 167.91324
2109.0195 134.37381
2104.0376 87.46385
2106.5059 57.784084
2087.063 102.48159
2057.8005 83.58402
2059.7927 54.05288
2022.1016 60.265213
1996.2827 54.10003
1973.7721 54.972916
1985.5857 81.17541
2003.0688 97.39049
2026.5483 103.13799
2051.296 114.11583
2074.6611 131.32126
2036.9673 139.30905
2006.8799 131.8642
1989.354 146.4043
2014.9575 169.25731
2051.1665 167.05272
2016.1913 203.07828
1996.0155 220.52043
1989.6119 212.29112
1989.0472 204.03477
1992.6113 196.3594
1992.7074 181.63531
1985.0724 188.5396
1980.1276 194.39012
1975.1418 199.47197
1970.3845 206.9209
1974.1246 210.32462
1981.7673 208.27411
1977.3616 216.1618
1967.98 216.62479
1961.3262 210.72006
1965.2542 203.63715
1964.9456 194.67331
1955.8689 202.54425
1953.4247 210.42442
1956.2765 216.918
1949.1112 223.21707
1944.6003 218.13914
1941.3599 223.76187
1935.0347 228.06287
1927.9869 234.71251
1937.2273 235.90276
1933.4255 242.01584
1942.4934 245.06393
1952.8173 242.43803
1948.9338 239.21887
1942.5333 232.92216
1948.936 232.4726
1957.8254 231.96188
1954.6533 225.41724
1961.8457 221.60568
1967.356 227.39636
1977.8547 231.35686
1975.5298 223.41049
1985.3728 220.57707
1988.071 230.29424
1983.9347 239.87315
1990.0353 238.47807
1995.5151 242.53258
1991.7808 250.55243
1990.9185 263.8415
1986.6664 270.82596
1990.3846 276.94592
1981.7017 279.24268
1972.9269 274.50366
1964.4102 271.3802
1974.8403 266.74738
1980.9547 267.047
1982.1406 260.67484
1988.4023 256.71622
1985.9874 251.19945
1985.3477 246.37498
1978.2845 253.14328
1978.1769 243.29874
1970.5049 245.22441
1973.391 237.90515
1966.9058 235.01213
1960.8892 239.00822
1963.7722 245.04898
1957.0103 245.7586
1951.3601 250.03778
1960.938 251.15533
1968.4741 253.23926
1970.3983 261.0147
1961.6332 262.523
1953.1409 267.36044
1955.4623 257.1467
1944.8076 254.22803
1945.2847 262.40112
1937.1469 263.61
1931.9961 269.09036
1930.0624 259.20102
1935.5972 251.91692
1926.7646 249.18883
1917.2507 248.95325
1919.2659 239.16553
1908.4961 240.97626
1902.8187 247.35979
1905.2329 254.89763
1909.2821 261.52808
1902.2195 267.13165
1893.0488 266.75345
1887.8738 273.8861
1890.7828 283.48553
1895.3958 289.51172
1881.8125 286.939
1870.6992 285.49255
1877.7871 293.20178
1886.6759 294.35254
1892.0157 301.04477
1899.0835 296.82663
1906.6108 299.09235
1916.7966 298.9325
1917.9045 306.6423
1921.4955 313.83594
1927.1797 309.8844
1930.6965 304.90625
1925.4894 299.70325
1922.3058 292.89697
1916.1389 287.98248
1909.5353 288.04535
1902.9758 289.31738
1900.0265 279.1982
1909.0862 274.72424
1918.2521 259.07104
1923.6637 266.5904
1917.3414 273.47852
1922.4174 281.84622
1926.2142 287.98608
1930.212 293.28558
1933.2977 298.2349
1938.5934 300.4007
1943.9153 297.95398
1944.3499 292.35928
1948.9207 291.4278
1949.264 285.0781
1942.072 282.6157
1937.5813 288.56842
1938.6348 294.04614
1931.6604 286.35464
1934.4806 279.5885
1928.0428 275.18646
1941.1729 271.83243
1948.6531 276.61743
1957.6167 276.82983
1960.5869 284.87708
1967.745 283.02042
1975.134 283.28708
1968.7244 291.90256
1964.9097 298.6203
1961.6726 304.49802
1959.4495 295.02948
1955.1853 287.8508
1953.718 294.2174
1951.9407 299.07886
1949.0652 302.91266
1944.2296 303.74887
1938.6263 306.265
1938.3811 312.19064
1931.8721 317.09387
1925.8385 320.68643
1920.3898 323.19498
1923.011 329.64346
1919.7354 334.9029
1912.6564 335.51483
1911.6034 329.92044
1916.348 327.77975
1911.8806 323.2605
1915.6926 318.63977
1912.5839 313.21036
1905.8303 316.76428
1908.8882 306.6985
1898.9951 308.1168
1881.5942 303.0788
1873.4017 302.67487
1873.9651 310.39005
1866.246 306.62482
1863.7418 312.4477
1865.6885 318.80896
1871.6426 318.39417
1878.9451 316.3863
1888.0634 311.64185
1886.9329 320.38113
1881.032 324.6094
1874.0013 326.30832
1865.7258 327.46185
1858.9197 323.66418
1855.4797 318.81918
1857.1996 313.6629
1856.8463 307.67456
1860.6921 304.23767
1861.4796 299.55112
1867.0544 300.06836
1870.4208 294.17676
1862.6581 293.01984
1859.7275 284.49615
1846.4341 285.79147
1850.2524 295.0708
1856.5669 295.1177
1854.3088 302.01096
1845.6611 304.62418
1850.7153 311.85028
1847.7434 320.8741
1850.4834 330.92288
1857.053 334.51907
1865.1393 338.37726
1867.1276 348.3834
1868.3289 358.11157
1878.7334 361.77023
1878.7705 354.88766
1893.72 352.93002
1884.8567 349.84283
1877.1719 343.78864
1872.3971 335.40558
1878.3053 333.1256
1884.745 333.88037
1889.1715 327.16946
1895.467 324.1749
1897.8705 317.62573
1904.4889 325.25354
1903.8893 331.46664
1904.9878 337.5332
1894.8872 333.02716
1888.6371 341.9022
1896.9607 341.73398
1903.4727 345.35577
1903.5442 352.51596
1907.0432 359.09613
1913.7106 363.19934
1911.4331 371.20944
1903.7782 367.16013
1896.5172 361.69028
1888.299 362.06232
1889.0292 374.44104
1895.1155 369.7513
1899.6055 375.45636
1905.767 380.34497
1914.2961 379.32587
1921.2017 387.3299
1923.4388 378.99738
1933.0168 376.75107
1936.7113 382.0468
1941.7771 387.18805
1947.2803 394.47723
1932.158 390.86243
1931.5828 400.49133
1922.1638 398.86273
1915.0549 394.2602
1908.3057 388.97174
1904.2905 395.91016
1900.2639 389.81573
1894.4185 381.57776
1894.5181 387.1019
1894.3192 393.32407
1888.4767 391.09625
1889.291 399.89276
1895.5359 401.08984
1900.8125 401.48907
1900.2599 408.58307
1905.5209 403.79108
1910.0942 401.45795
1914.3994 405.1871
1921.0793 406.66
1922.3342 413.08835
1920.3439 418.61896
1919.9025 425.61093
1925.9832 427.66086
1931.821 425.14255
1931.4642 417.53198
1928.8748 408.81958
1941.9688 401.5849
1939.1606 410.86407
1947.4092 419.23483
1940.7322 426.1666
1935.6311 434.41937
1928.2539 436.4944
1921.7457 434.49847
1914.4509 436.96198
1914.4572 431.05017
1909.1846 428.94965
1905.2311 423.02185
1913.2203 421.39435
1914.2572 412.83795
1907.6786 412.81213
1899.6095 416.46313
1890.373 411.92856
1893.0255 423.70898
1895.3723 432.7346
1904.1066 437.57263
1908.41 445.6843
1914.9749 450.72998
1919.721 453.8203
1923.4011 448.61713
1919.7319 442.7365
1931.7632 443.12473
1929.9363 449.11322
1932.8322 454.53488
1926.2656 455.99615
1920.641 459.07104
1914.8889 460.18845
1907.8801 456.11896
1897.2898 451.3564
1900.3757 459.8314
1892.6565 467.63226
1888.0059 459.29745
1890.8256 443.46667
1870.5157 432.77963
1868.1998 405.9782
1881.8098 385.05762
1868.6504 372.6893
1853.5513 384.1421
1845.2502 363.81842
1856.3914 356.56726
1853.7343 345.67493
1832.4495 338.5675
1818.2417 311.26782
1826.6515 269.5959
1809.2834 276.56033
1797.083 293.29163
1782.7957 295.05847
1773.2115 302.14667
1765.4266 299.87726
1763.8567 291.97113
1772.561 289.3414
1761.0142 284.65155
1750.4736 282.37933
1751.5977 290.88245
1757.2908 296.99963
1750.8925 301.61038
1745.2002 297.22205
1742.4446 290.9259
1741.0586 283.92673
1739.4688 274.75745
1726.417 280.23965
1732.9948 284.14157
1734.5862 290.67923
1735.2352 295.9472
1739.355 299.097
1734.4396 301.6707
1730.7448 305.06567
1734.5233 309.93713
1740.8525 309.9316
1743.374 304.77316
1749.7703 311.10767
1756.6398 315.27753
1759.7954 306.7207
1767.0303 313.39673
1768.063 321.7732
1775.5334 311.40448
1784.9633 307.49377
1778.1357 320.20795
1772.4847 329.48065
1768.5166 337.558
1762.8794 346.3919
1760.5106 358.44806
1775.4785 390.67538
1794.762 392.25354
1786.9995 368.1684
1775.8892 350.51147
1790.2338 332.9008
1806.1885 345.12338
1821.5935 365.76865
1816.3685 392.5748
1840.6941 406.30237
1833.3384 433.46814
1839.3792 465.0451
1865.2798 469.5451
1890.5667 479.15363
1893.9026 489.8958
1904.6235 485.64597
1900.3513 476.6025
1899.5016 467.69543
1906.5688 464.6892
1906.5178 470.54523
1912.0697 473.72137
1914.0928 466.87585
1921.8574 472.6983
1922.2234 466.513
1927.7 462.68414
1934.5537 465.13416
1933.6621 472.1087
1931.0613 478.6333
1938.5905 479.11853
1945.7993 481.82306
1940.9198 487.1438
1933.8584 487.7097
1927.9209 485.40527
1921.8411 486.72385
1923.8828 478.74884
1916.6455 480.5736
1909.6572 480.00262
1914.9922 487.8402
1916.5063 493.78964
1911.8682 498.98935
1919.1338 502.2196
1919.3164 511.43567
1916.965 519.42175
1910.8141 511.31598
1908.5411 504.4017
1905.7483 493.2429
1901.1779 499.48166
1892.198 500.14087
1864.8566 502.03525
1839.2438 512.80566
1813.7786 501.5505
1782.3813 507.3521
1765.7721 531.0265
1751.5627 507.41656
1727.7395 524.6267
1727.97 551.21783
1705.9949 547.3116
1705.3779 511.13135
1684.9556 528.2175
1676.5771 522.92725
1671.6719 518.4264
1681.0862 514.144
1673.5519 512.18445
1666.8315 511.70737
1672.1572 504.06903
1678.5996 506.53452
1683.235 499.39825
1676.4033 497.0228
1671.7972 494.05182
1669.3557 487.84247
1665.0706 484.48138
1660.5261 486.10593
1662.3644 479.3523
1656.2228 480.33505
1654.8235 474.36102
1666.2373 474.46906
1670.984 480.64767
1677.9915 478.0726
1677.7405 487.12238
1697.4563 485.33942
1715.9297 483.4085
1730.5376 496.67267
1739.504 478.39856
1755.0074 476.11426
1770.9519 475.8941
1788.6931 478.1749
1809.9137 469.45496
1799.3062 445.67438
1804.5397 421.35687
1780.3499 417.1808
1777.7725 449.499
1766.3665 432.92612
1752.9551 418.8238
1754.9169 400.95575
1760.3855 378.99377
1743.5845 378.2848
1731.9982 388.83676
1717.6824 378.29758
1722.5068 406.38074
1713.8672 432.78326
1735.1464 430.91302
1760.5945 453.0383
1744.9093 449.70776
1723.5345 458.08527
1701.1797 461.21738
1679.9788 470.14792
1678.4822 462.86505
1674.2847 458.32062
1669.1008 463.71457
1672.0762 471.66864
1662.6123 466.50388
1659.324 472.21515
1655.5973 464.9719
1651.1528 469.4422
1649.371 476.98193
1646.0665 469.77234
1641.2002 469.7016
1634.5156 468.728
1636.7534 464.3166
1638.2104 459.51865
1634.47 454.43112
1633.5946 444.99402
1640.5859 449.4172
1643.1473 444.10303
1645.023 439.15533
1652.4504 443.36362
1649.0135 451.16342
1644.2936 456.7115
1642.3032 463.72528
1647.8962 462.739
1652.8911 458.24036
1660.155 457.0982
1667.3917 453.10776
1676.9678 453.40344
1674.4065 446.0943
1668.0052 441.4105
1658.8412 448.86163
1660.1173 441.19397
1651.263 434.64874
1645.1086 431.01746
1645.0637 424.56723
1653.6198 425.62643
1659.0591 419.34836
1664.3027 417.30365
1670.2393 414.52707
1667.3918 408.0412
1673.6616 405.58313
1679.9896 413.25507
1682.9893 423.2473
1676.9087 428.19324
1676.8223 420.80258
1670.4875 421.75986
1662.3558 426.17474
1659.3888 433.98108
1668.8474 431.36725
1677.7191 436.55014
1683.0361 447.59125
1696.0396 435.82532
1698.7122 412.23215
1695.2526 390.90158
1691.1938 379.83994
1683.667 374.4666
1678.7124 368.01123
1675.3623 373.46143
1676.8684 381.90125
1682.6162 386.85532
1683.4924 395.40387
1681.6005 403.42694
1670.7332 395.63217
1668.6466 384.16205
1668.9335 377.10144
1663.9458 388.94177
1656.5177 390.33163
1658.6549 397.00336
1659.4802 402.89844
1663.4736 405.3628
1658.7034 411.05353
1653.9939 416.71124
1648.0398 418.06073
1641.9393 418.9006
1638.6936 415.6998
1638.6445 408.8224
1644.3506 410.25925
1650.6967 410.7497
1651.9984 403.27435
1644.7671 401.35437
1636.2959 396.22314
1640.844 390.2998
1648.874 393.09457
1650.7413 383.60986
1658.6184 378.86853
1652.5543 371.59692
1664.2291 370.716
1671.0209 367.80695
1675.124 363.12396
1679.6362 360.30963
1684.1571 364.4193
1689.1223 367.65967
1695.2351 372.05954
1702.6082 372.1537
1706.908 364.8717
1701.7275 362.57294
1695.9495 363.82117
1690.9386 358.87766
1686.6598 354.576
1680.6694 354.13278
1675.9789 350.1766
1674.21 344.78915
1669.5663 339.55774
1674.2996 337.425
1679.6729 338.53668
1682.7566 333.41748
1686.9034 327.18912
1687.5394 316.3841
1678.459 325.8823
1671.9637 329.85736
1665.8027 332.59216
1661.094 338.10052
1666.3412 343.98422
1666.2634 351.8062
1672.3429 355.46014
1668.6279 360.8767
1660.7705 362.34494
1652.6482 361.01755
1655.2539 353.04135
1659.8893 347.45587
1651.7434 344.39398
1650.839 336.88818
1654.7277 330.90387
1654.145 324.22345
1663.6208 325.48962
1660.3323 316.83966
1653.2776 314.94666
1647.7648 319.95206
1644.1321 329.15607
1637.6229 337.40607
1631.1218 328.90424
1637.2552 326.03656
1640.319 321.27985
1641.0171 316.39682
1643.7642 311.36353
1650.6542 307.84976
1644.5833 303.02618
1641.3379 297.24536
1634.2164 296.21155
1631.1597 287.62332
1626.4277 296.02756
1625.1724 304.14203
1631.9028 305.73315
1637.8682 307.4629
1633.6323 313.58966
1631.5908 320.1587
1624.9072 314.94565
1621.6951 322.8867
1624.7839 333.9528
1621.9978 343.73434
1631.4521 348.6942
1642.144 346.0172
1646.8839 354.22275
1639.0519 357.93478
1643.8171 367.28342
1632.6417 369.8465
1641.0569 379.27356
1628.5201 382.58344
1630.8232 391.75946
1622.1339 392.31934
1614.6625 395.5808
1612.7527 386.20154
1620.4404 376.25848
1619.6542 367.09787
1627.8275 359.49362
1618.7676 356.50412
1611.7235 348.96555
1602.4783 351.55316
1598.2822 344.22522
1601.2534 335.41544
1609.6412 338.4629
1614.8235 330.9278
1609.9011 322.75793
1600.073 322.67807
1595.0103 329.47897
1591.2078 337.1883
1584.7665 331.38446
1577.875 327.63815
1575.1221 337.15802
1557.6027 343.96936
1554.1465 365.77094
1539.703 379.67535
1523.6067 397.56104
1498.5653 395.74533
1480.8591 404.86008
1482.2307 374.99048
1458.0317 373.0755
1449.8624 373.95282
1443.4608 370.4538
1435.8999 364.7607
1445.1582 362.28586
1453.8875 364.44125
1449.63 355.75842
1444.9235 349.4447
1438.0917 355.18393
1428.0885 356.00598
1431.0712 347.6622
1434.3335 339.7494
1442.7657 341.6853
1441.2991 330.74756
1434.4855 326.3646
1427.7844 334.0973
1418.96 331.2847
1422.0903 341.99167
1414.9728 346.1721
1417.9282 354.37448
1423.069 365.6126
1428.4084 373.32556
1436.5842 376.60614
1441.2252 381.07928
1447.2156 379.79047
1453.3612 381.44586
1446.2942 386.53497
1445.8721 394.7749
1437.7339 389.05685
1428.021 383.38815
1427.9783 393.5313
1436.3755 397.92868
1431.7294 404.53143
1425.031 411.71228
1416.8401 408.7712
1420.2456 400.14532
1417.7869 389.34485
1416.2646 377.9299
1408.0433 373.2171
1404.1539 366.71448
1414.2983 363.5274
1407.9966 362.93732
1401.3676 358.0197
1397.4888 352.20663
1407.7374 355.31665
1407.718 349.81323
1403.9895 347.08307
1399.0519 346.26135
1405.9762 341.6981
1411.3479 337.2288
1409.4756 328.0589
1414.452 321.65912
1419.166 313.57465
1411.0725 311.66348
1408.0598 302.6152
1403.3123 307.7535
1397.943 304.4395
1400.1699 291.99747
1409.5732 294.56766
1417.6534 300.25482
1426.6447 304.85922
1425.9283 322.93173
1429.9912 314.11176
1444.7401 310.46744
1466.5732 328.19275
1487.001 343.9079
1508.5729 368.40442
1526.5308 345.8919
1541.206 315.8073
1506.4048 316.95966
1494.8 286.26633
1461.0693 276.99298
1423.0406 274.92828
1427.8469 285.03522
1425.5669 294.59616
1414.979 285.96915
1402.3921 281.58206
1392.9292 280.49664
1389.6509 289.5763
1390.4773 297.63058
1392.242 304.1292
1385.2756 307.8333
1391.2029 315.62772
1401.2223 314.1325
1401.8586 320.56226
1400.3123 327.6795
1402.3059 334.1323
1399.0217 340.13464
1393.3884 342.9771
1388.65 346.4443
1382.3395 338.83273
1383.803 329.828
1392.519 335.3845
1391.729 325.41925
1382.2672 317.95004
1375.7107 323.42303
1373.0496 314.24176
1377.0409 308.49048
1376.718 300.78275
1383.1221 297.23782
1378.7025 292.02362
1384.408 283.58716
1378.5225 285.4762
1372.1091 283.34033
1371.6907 291.5715
1366.7595 297.30994
1369.1328 304.70813
1359.956 304.70422
1359.8882 313.96484
1365.6805 311.6806
1366.8364 319.76334
1367.4697 328.5152
1373.8274 333.98715
1378.7466 345.33163
1373.8083 350.79846
1375.0721 358.96387
1367.4298 359.22595
1359.7344 356.06207
1359.1582 361.95578
1361.0002 366.49692
1362.5974 372.97998
1368.0918 371.44238
1374.077 367.46832
1381.9822 368.24045
1383.5435 375.31943
1390.7336 377.91803
1389.7465 368.24374
1383.3794 361.54364
1383.0432 353.9857
1390.4758 354.53552
1393.5652 361.2043
1398.7981 365.67535
1396.9924 373.11887
1400.7137 381.01892
1407.98 386.5725
1408.1259 396.15646
1408.8942 403.38034
1406.478 411.18137
1402.5547 416.9669
1397.1567 419.43573
1386.3777 416.3294
1378.2601 413.70502
1369.8833 418.223
1360.792 421.3049
1366.0415 426.05002
1364.6741 432.4442
1367.2429 437.67126
1366.2229 442.51514
1364.0337 447.96283
1360.0273 442.78027
1356.1315 446.84283
1357.5814 453.19385
1357.1901 461.21582
1362.3217 469.389
1362.608 479.8033
1370.1958 476.9873
1377.5505 480.98126
1372.596 469.5368
1367.0592 462.7823
1366.0536 455.49423
1372.8134 449.58517
1378.1039 457.03888
1376.2205 463.10565
1380.949 469.1095
1381.7625 477.53815
1385.5668 475.0196
1390.4211 479.48566
1391.4504 473.9874
1392.6448 468.85168
1387.0775 469.10434
1386.0049 461.56958
1382.0127 451.11334
1379.0194 441.80548
1372.8539 441.47006
1372.9294 434.17468
1373.6486 427.129
1377.7775 421.72174
1383.761 424.64392
1391.6583 421.04456
1394.0461 427.3729
1397.8761 425.10547
1403.1294 423.59286
1408.7812 420.3015
1414.5854 416.40863
1418.2224 420.62814
1421.6049 424.5948
1421.9608 430.82663
1423.6549 438.60547
1424.9084 446.3596
1431.6611 452.58908
1437.1761 461.9006
1445.092 466.352
1449.4495 455.54047
1451.8291 443.37384
1444.3611 438.92172
1439.2227 431.18494
1437.5227 423.17905
1446.2834 426.21954
1451.0734 433.8203
1458.2384 432.32983
1458.3259 439.22266
1458.6705 445.74078
1463.5918 449.12338
1465.6931 443.68848
1464.835 438.5763
1463.1016 433.22714
1468.3234 428.67084
1475.7369 428.47763
1477.3523 420.3388
1470.5259 412.85556
1466.8364 418.64972
1464.1786 424.1211
1455.271 426.89117
1453.9634 420.19318
1451.2986 411.9565
1458.454 413.3031
1463.041 411.2253
1465.3726 406.79004
1465.4192 401.56335
1463.7207 393.55368
1460.416 384.10803
1453.905 390.0241
1456.6045 397.8238
1453.8652 402.9593
1448.5752 404.62766
1442.598 405.38843
1443.907 416.7136
1435.9052 411.8543
1432.6282 418.25595
1426.4976 420.2075
1429.8386 427.1905
1429.3236 433.31393
1433.4602 439.00348
1436.9479 446.50815
1444.4131 450.55295
1455.8611 451.83887
1462.0323 457.25336
1467.5303 453.7208
1473.1576 453.98627
1471.0457 447.63245
1475.5759 445.51108
1471.6941 439.74396
1470.376 434.38593
1480.6287 435.1058
1479.4202 441.89258
1484.323 446.34644
1487.0297 455.2531
1479.0967 453.5539
1480.8197 461.98212
1470.442 462.05988
1476.7151 468.95663
1484.3926 473.16443
1484.2388 481.56198
1486.7927 488.53232
1491.6582 480.39276
1491.2739 473.442
1489.0269 464.62457
1497.2355 469.07184
1503.0597 478.9228
1495.1 487.43405
1503.5144 490.4951
1510.0846 500.86456
1539.2631 490.9942
1541.8782 524.69714
1574.5483 540.1034
1577.1775 528.88367
1582.3352 518.933
1572.5057 512.87915
1576.6309 495.88864
1581.2072 482.2866
1590.331 473.90143
1600.8004 473.88104
1606.4861 479.9615
1600.2617 484.85938
1591.5269 483.5799
1590.7998 491.8775
1590.5767 500.878
1584.7537 508.516
1596.4886 512.3074
1592.6138 519.05444
1588.2723 526.32074
1586.584 533.43115
1587.6497 540.5398
1579.5183 540.3246
1583.3947 542.3013
1590.6498 547.9065
1595.0414 558.1293
1597.1132 552.77734
1601.1226 546.69714
1606.1875 552.4939
1615.3546 552.7244
1607.9205 560.1436
1600.6538 558.8984
1593.5581 562.56323
1587.3291 562.723
1589.2975 555.3351
1578.4462 548.9744
1583.3134 553.68616
1577.99 567.7975
1572.1449 558.48303
1555.8777 542.89026
1522.8657 555.4496
1512.9702 549.79407
1520.647 542.98846
1510.0485 540.0017
1501.1531 535.55316
1513.733 531.72174
1513.8926 521.66675
1512.8947 512.26953
1504.1948 508.9024
1500.8306 502.72394
1498.0735 497.16684
1490.7833 495.49313
1483.424 494.96786
1484.594 500.63538
1482.5924 506.28244
1475.9089 506.16428
1476.3623 498.08276
1478.7009 489.4046
1477.5596 483.61984
1476.451 477.19592
1468.2668 474.20892
1463.1799 467.85324
1454.536 460.83542
1455.6533 467.37238
1456.0488 476.1795
1454.5984 486.6886
1462.5964 483.12204
1469.3337 485.33017
1471.7727 492.77466
1463.0759 495.81354
1467.261 505.3568
1471.333 513.8653
1467.4385 521.5441
1470.8242 530.9591
1478.1631 527.354
1478.0371 520.2225
1480.9319 513.5215
1488.9694 511.6681
1489.5494 504.12512
1494.4348 506.48703
1497.6581 512.26514
1502.4756 517.8551
1504.1094 526.3382
1495.0426 527.8754
1493.9259 520.9185
1488.3319 517.17413
1486.0365 523.32605
1485.7875 530.074
1490.4882 534.39557
1494.536 539.63257
1487.6663 541.92236
1486.8921 549.12494
1480.708 551.07855
1481.4802 543.9582
1479.8201 535.9035
1473.8602 541.0054
1472.8359 548.1975
1466.3241 551.70605
1463.3152 542.56494
1462.4093 533.9523
1458.1058 526.25916
1457.8451 516.3285
1456.0039 508.4204
1453.0206 500.57178
1449.1667 493.56805
1443.3484 485.7923
1445.2661 476.14206
1434.4572 479.3219
1427.8706 473.28488
1418.076 471.45673
1410.8628 467.06906
1421.3564 465.31964
1426.1655 463.1251
1428.6743 458.68323
1421.3042 455.3961
1417.3398 449.63168
1412.5021 458.9663
1402.5371 461.2804
1402.8066 452.4106
1410.6827 449.7651
1400.3633 442.84372
1407.0046 440.32343
1415.7334 441.19916
1414.9951 433.75323
1413.5768 426.56714
1407.8169 430.87408
1401.662 430.66504
1396.138 433.90106
1393.4414 439.60315
1388.3379 437.4411
1389.4849 428.06366
1385.5034 431.40552
1379.1882 432.16876
1383.0443 437.27332
1386.0681 445.3861
1394.0253 446.56635
1391.9359 453.35382
1393.8143 460.7966
1397.785 468.86554
1404.1057 470.98068
1411.827 478.21368
1401.8685 478.17908
1396.5157 483.1478
1401.7091 488.73358
1409.7766 489.18332
1406.4734 500.1291
1420.0521 502.13873
1428.7009 510.11264
1431.1226 501.80145
1418.1653 493.97284
1420.9065 484.195
1430.8628 490.82263
1440.3345 496.20578
1442.237 506.9242
1442.2063 516.9571
1448.9072 524.74756
1440.3778 530.5735
1451.3455 536.492
1453.7358 548.68585
1446.202 545.32446
1438.2554 542.0448
1431.9713 536.4408
1420.8909 527.6125
1428.0532 528.02405
1433.2274 522.7864
1428.834 517.4103
1421.7294 516.60425
1413.5442 509.30078
1415.1041 517.2158
1415.8256 523.91736
1413.1952 530.47
1411.9086 537.31714
1406.0645 535.4153
1402.8075 526.61646
1408.6642 522.4652
1404.3828 514.0016
1394.9335 526.31696
1395.6702 516.77094
1386.0735 510.03305
1397.4971 506.2695
1394.3235 496.9483
1389.5614 487.02594
1385.4504 494.8354
1378.8208 491.50385
1371.0826 487.89734
1366.6104 494.39023
1357.5045 496.01706
1358.4175 487.36328
1351.1005 491.55408
1344.5828 489.00543
1337.8292 489.68347
1332.6024 483.4305
1328.9497 475.74585
1323.1248 479.96997
1322.3326 484.21912
1319.416 489.6045
1316.0392 497.44516
1325.8031 492.7463
1331.8168 494.79608
1337.2893 501.2392
1346.7388 497.734
1361.4008 515.1165
1359.8407 538.52673
1335.3733 528.64166
1309.2299 530.3674
1295.5288 517.18494
1291.6802 495.19153
1302.2435 496.49948
1308.0573 491.5053
1312.7969 485.8908
1315.7039 477.56848
1322.8489 475.55832
1323.2113 470.35944
1329.2426 467.54672
1333.7816 470.675
1335.7319 476.49982
1336.0419 466.36646
1340.6409 468.28967
1340.5063 472.3111
1347.0266 470.65466
1342.8134 476.64264
1344.8759 481.33344
1352.4475 482.31784
1354.52 475.4111
1354.2932 469.07037
1349.804 464.43393
1345.9165 459.91388
1341.8004 463.59775
1335.0015 460.8475
1330.0701 460.61908
1324.6594 459.66876
1322.2725 464.70447
1316.6483 469.86725
1312.4868 464.53473
1309.2845 471.14832
1304.3088 464.1888
1297.3032 463.9581
1297.121 470.2155
1299.0684 476.69238
1304.8718 475.9354
1308.4489 480.69672
1299.9524 486.73413
1291.1731 480.38535
1286.8108 487.70688
1275.6764 490.3524
1281.2566 498.0378
1273.4608 525.69305
1260.8835 545.7573
1247.6033 555.59265
1235.0717 545.99884
1236.8652 537.8242
1238.9631 532.7562
1242.6816 528.2652
1234.2493 524.25635
1235.8416 515.1278
1237.8545 507.68726
1242.8098 502.36664
1242.5725 521.0593
1245.835 513.46606
1250.5704 504.82953
1268.5007 496.38644
1262.2493 492.214
1255.5651 493.97614
1247.5345 494.9662
1239.8605 491.3216
1231.805 487.53558
1234.1123 497.86328
1229.1274 505.2966
1222.5944 500.69525
1225.7585 493.94055
1224.049 487.26355
1217.8556 486.3023
1215.3136 480.72214
1213.505 475.51984
1218.0219 469.86374
1208.1343 469.99805
1212.4286 461.31467
1221.5188 450.13867
1211.9681 451.37952
1203.1344 455.681
1194.8018 457.6771
1187.028 459.66748
1191.0612 447.88672
1185.5076 452.03766
1178.5812 458.2049
1179.9546 468.11127
1177.6957 474.5256
1175.822 481.52417
1173.3364 489.07507
1166.6995 484.89096
1167.3341 479.72894
1165.2571 475.94748
1169.9263 473.91037
1172.8273 468.50537
1162.5334 471.15842
1164.8401 464.9043
1170.613 459.6245
1163.4662 451.27487
1157.3119 457.81345
1155.7 466.27374
1150.8516 472.57812
1142.0002 477.103
1159.0193 477.13226
1153.9347 482.9511
1150.617 490.3114
1155.4069 496.51144
1161.4469 489.9286
1167.2772 496.52045
1174.3665 497.02228
1161.543 501.3806
1156.3018 506.74008
1164.844 509.40265
1170.7067 514.39746
1172.2307 520.3085
1174.3458 525.8113
1182.8999 527.7947
1178.2084 532.21674
1176.6399 539.43915
1170.3208 534.592
1164.3212 536.46655
1158.1052 538.2449
1162.2279 545.9717
1157.2686 556.145
1144.5686 561.7972
1144.1235 552.3817
1150.9459 545.2561
1149.8738 537.1527
1154.6599 532.1084
1149.1901 528.8258
1152.4165 521.3915
1159.156 527.21655
1166.165 527.2171
1162.5527 518.8579
1155.1212 514.8997
1148.8162 511.71848
1146.6261 505.44443
1146.2401 500.1104
1145.6431 493.3613
1141.3947 486.63177
1140.778 495.61057
1136.3806 502.54822
1138.8611 512.1948
1143.2343 522.702
1133.6184 521.44336
1113.7373 495.67352
1111.696 518.7196
1087.9849 541.77814
1087.7421 513.0709
1086.7915 493.43408
1107.9651 473.10706
1083.3235 466.65472
1099.9552 438.83435
1136.2034 444.28778
1156.4587 435.946
1164.678 439.49265
1170.6133 444.78577
1176.3022 449.6539
1180.431 441.86118
1185.9934 439.79062
1191.0399 437.2767
1195.3496 441.07196
1199.7561 445.68494
1206.5148 443.1632
1214.8252 441.59003
1219.7477 436.23834
1228.9137 444.64362
1237.4436 444.1252
1244.5886 436.32516
1246.3894 443.2866
1241.407 452.88446
1241.9722 462.23993
1234.1283 463.58112
1232.7664 455.15405
1224.1909 458.1517
1221.3794 464.5643
1228.254 466.67184
1235.8999 470.68112
1227.8441 473.05396
1221.8202 475.85895
1225.9893 480.54266
1233.9594 478.7157
1242.2437 475.01917
1240.1554 482.75568
1248.398 485.03125
1255.0369 480.1778
1264.2012 484.06882
1269.1615 471.58862
1275.7617 479.33936
1285.9102 472.35608
1279.0479 464.21912
1271.059 460.55405
1263.5121 462.21213
1262.2157 472.7131
1257.27 470.31357
1252.412 468.822
1246.6741 470.98248
1250.1852 460.37982
1257.7201 457.36935
1250.8248 450.5715
1257.3737 443.21082
1259.8701 430.81113
1253.9146 434.27594
1247.2766 428.31967
1254.3232 423.86874
1262.4987 417.55646
1269.2422 411.2641
1276.0281 414.97827
1270.1599 419.18762
1271.4459 425.93054
1263.7961 422.87277
1265.7922 429.8502
1266.5123 439.56027
1264.4288 450.8733
1273.9651 450.96417
1284.7268 451.03305
1293.5762 448.36304
1289.5336 460.56226
1299.5802 456.08185
1308.627 460.10397
1309.0879 455.6505
1308.9498 450.27905
1301.8048 447.7351
1300.3147 440.58966
1299.2517 433.01886
1292.5679 435.05234
1285.757 437.9179
1279.0981 443.63287
1275.2278 437.86066
1275.7177 431.19077
1279.7815 422.14877
1286.2998 427.41843
1289.0369 417.88898
1296.4696 422.28778
1304.8243 426.91428
1308.913 435.2474
1309.0532 443.3316
1316.0719 441.9173
1322.3035 442.59863
1328.0198 445.8617
1316.4326 451.14685
1317.2983 459.536
1321.9856 453.16534
1327.7373 454.2274
1332.0165 450.9492
1337.499 447.84454
1344.603 446.89148
1345.3834 452.18698
1337.7747 456.39523
1342.3339 454.97092
1351.1238 456.79257
1350.5375 450.4735
1350.5137 444.5822
1343.6675 441.60593
1350.244 436.49496
1354.4089 440.37048
1358.7728 436.30664
1357.005 429.81714
1352.4186 426.2787
1346.9497 428.38037
1343.7892 434.74237
1336.5022 439.66403
1328.7767 438.50058
1326.2477 432.19052
1332.8134 431.8563
1337.802 430.1174
1340.8125 425.1894
1346.6858 419.62378
1353.9507 418.78403
1363.5839 413.59033
1369.9407 408.47397
1363.0768 404.16876
1364.7205 396.20868
1371.981 394.70114
1376.8809 404.0919
1387.0825 406.75067
1394.7802 412.89215
1398.949 406.02502
1396.1018 399.73642
1400.6676 392.20337
1395.061 387.9337
1389.3479 384.7284
1390.7886 393.087
1386.9877 398.6705
1380.396 394.59262
1383.3817 385.79517
1377.663 384.43756
1369.9419 386.581
1377.156 376.22507
1370.8473 378.8662
1362.509 381.1775
1359.2081 387.4463
1358.0691 394.48553
1343.5602 399.66968
1339.4333 416.99997
1332.8019 420.80417
1324.1168 414.19577
1325.621 424.47226
1319.5604 432.7533
1314.2085 428.07565
1315.9076 419.79184
1306.3898 418.8587
1304.5803 400.27267
1315.0541 382.3922
1334.8595 381.72516
1353.7056 379.94806
1357.7462 374.7767
1353.5397 370.72217
1349.5256 366.84445
1346.0966 360.05603
1353.6891 359.4057
1348.3829 353.39047
1355.191 351.37207
1351.4819 343.76782
1358.336 344.441
1364.1831 351.00363
1367.7045 343.06683
1362.6481 335.84943
1354.8943 333.57092
1348.8118 333.39948
1344.3492 339.12006
1344.8325 347.22736
1337.5981 343.99506
1320.6123 359.68823
1320.0869 339.94016
1320.1659 322.68594
1307.852 312.2681
1303.1956 304.2688
1302.6624 293.9637
1312.0411 295.22266
1313.0408 285.01825
1326.5764 294.99292
1333.4938 294.9508
1332.6826 304.5916
1341.3491 306.87714
1335.8948 314.3521
1338.5172 322.83066
1337.8446 331.6693
1343.5374 330.5432
1345.57 315.87305
1349.5427 323.4381
1359.416 324.84555
1354.502 315.46103
1350.2183 309.31134
1348.3457 302.23468
1354.301 297.48856
1359.3899 292.35443
1364.3984 288.8014
1365.0732 283.07092
1372.12 275.0763
1378.4122 277.7708
1385.2798 276.13806
1389.9421 270.89508
1381.3816 269.10034
1383.4407 262.10385
1377.5542 256.6798
1371.7156 260.8981
1372.7369 268.71133
1366.1323 266.60236
1362.5391 257.79785
1372.5162 250.85666
1366.1722 245.14957
1357.4873 248.50879
1352.4928 258.41913
1343.2175 259.73312
1342.2488 266.63358
1348.2244 274.85602
1353.484 270.94812
1359.0509 267.34387
1362.0171 276.8918
1353.5793 285.95013
1345.749 282.8532
1343.1504 295.49005
1339.4011 288.85132
1336.198 281.89172
1337.4409 274.05063
1328.8749 286.81805
1325.1343 280.05087
1327.02 272.51712
1329.7258 266.59497
1318.4612 273.22568
1315.5074 263.81775
1322.9497 262.10406
1332.8687 260.27997
1330.5348 253.47502
1338.9578 254.80266
1338.4927 249.49487
1334.53 247.78905
1330.0894 248.29242
1323.4917 247.50327
1324.95 255.31787
1319.0273 254.59445
1311.7681 256.82416
1315.5992 248.82823
1317.8013 242.031
1313.4991 236.55615
1310.2764 232.0734
1305.3275 229.0833
1301.3634 232.58171
1296.0139 228.79193
1289.3679 229.97324
1286.5835 236.32288
1289.4674 240.90723
1292.6422 245.50621
1299.687 248.4462
1299.3192 242.37802
1296.375 236.86447
1305.1119 239.41855
1310.6774 242.79184
1307.996 248.20209
1304.3401 253.58316
1293.1311 253.21411
1301.3933 259.41962
1307.0122 265.6112
1298.8531 267.28326
1292.4653 262.9019
1286.623 257.22906
1283.7056 267.00192
1279.9517 261.0116
1271.9058 262.54486
1277.7075 269.22552
1271.9207 273.38525
1271.935 267.5962
1264.9407 265.71948
1265.7189 273.22604
1260.1648 271.08142
1255.4849 270.84286
1261.7749 278.15796
1258.3826 281.85123
1254.4398 286.03796
1249.5466 277.3848
1250.7234 268.67072
1243.2178 268.64047
1247.4967 263.62067
1244.619 259.8751
1236.1497 255.57413
1230.5974 261.2302
1229.8726 270.6139
1238.49 272.93686
1244.2318 283.31442
1237.8613 285.97192
1242.2667 293.16028
1249.4027 291.31064
1257.5299 293.54327
1254.2728 300.52936
1247.5037 300.02625
1240.1448 300.65973
1234.4216 295.34235
1231.2427 287.52954
1230.6279 279.9707
1222.359 277.02356
1221.4867 287.6826
1226.0608 294.88135
1221.5715 301.4374
1227.9315 302.66376
1233.6448 304.38116
1242.4407 307.14066
1249.1827 309.59363
1255.5685 314.30304
1261.4092 320.0296
1270.0254 324.9401
1268.5468 334.24323
1274.5322 339.43112
1279.1604 347.3244
1272.1276 348.82788
1265.4844 348.28195
1260.2793 353.4436
1267.2943 357.3943
1276.0298 358.0931
1283.4128 354.1266
1286.8878 349.10434
1289.5515 344.29132
1285.0066 341.12122
1288.1067 335.7896
1280.5591 335.10236
1278.9352 328.03375
1287.5448 329.21582
1292.9241 325.79266
1292.5896 319.70447
1287.0396 322.33405
1281.4653 320.26355
1275.497 315.5031
1268.5883 315.7223
1263.3739 312.04242
1255.1724 306.84985
1264.6431 306.6172
1270.4746 300.92065
1263.0563 298.651
1265.4006 288.97415
1273.0005 291.00836
1277.2544 285.2409
1267.6531 281.5697
1273.396 279.3078
1280.056 276.95557
1284.566 282.3049
1284.6173 287.44736
1288.3356 280.01907
1286.2905 274.54135
1289.7249 269.64606
1293.6752 274.5877
1294.029 281.37024
1300.2595 276.6705
1303.7926 272.51825
1311.7665 270.04465
1309.38 274.9999
1310.51 279.3725
1301.4105 284.65637
1292.9569 289.51544
1292.7432 299.34784
1289.0979 306.39688
1284.1971 294.30722
1277.7494 297.6371
1278.454 305.55405
1283.1434 311.9663
1289.5681 314.73993
1298.1184 313.38718
1298.4397 321.3762
1303.3704 325.07568
1294.9562 332.07126
1301.5079 334.81555
1297.1907 340.95514
1295.2273 347.4638
1297.1217 354.3928
1289.7656 356.32422
1282.529 362.26544
1286.1464 367.63605
1292.8805 363.30072
1291.6477 373.2425
1285.2395 373.92487
1285.1854 380.13678
1291.9036 386.39136
1282.7653 385.3952
1281.0519 390.68494
1282.8448 397.67648
1280.2439 407.53485
1275.7429 405.0912
1275.7175 397.23776
1270.3938 401.60202
1263.4359 401.74838
1263.348 409.42084
1257.1721 415.94662
1257.2494 408.96875
1254.8632 402.67084
1250.991 398.01996
1244.0651 393.50534
1241.5012 386.1443
1235.7349 375.75143
1231.0771 371.53247
1225.1868 369.27173
1219.1584 372.4209
1216.5193 365.2949
1224.3513 360.7536
1228.967 351.1518
1233.2318 357.1572
1232.6012 365.4615
1237.3358 364.0893
1240.6847 370.476
1242.8716 364.9437
1249.4388 363.69183
1249.2881 370.49908
1242.457 377.55612
1248.3357 379.8431
1254.7118 376.94598
1259.6986 372.0029
1267.9161 375.84384
1262.7135 383.36154
1254.2164 385.03992
1254.1279 391.2909
1264.3606 392.96716
1273.0833 390.93762
1273.0984 383.28033
1278.6564 375.80774
1274.7725 368.7232
1266.4312 365.31427
1257.3804 363.2226
1245.2909 358.63416
1239.579 358.5725
1239.3231 349.34918
1246.2179 352.05554
1252.8014 356.30954
1255.1654 348.83234
1249.5374 344.07806
1250.656 336.31485
1248.7059 328.0996
1261.5918 341.02563
1259.6885 330.1999
1254.5432 322.3604
1246.9856 321.42102
1249.4912 316.60986
1245.6344 315.01566
1241.7112 313.5729
1235.628 311.05307
1240.7693 321.54446
1234.2615 319.48215
1225.7054 317.0229
1227.8108 310.62402
1218.8201 313.47644
1215.5569 306.92255
1213.8442 297.81976
1208.2015 314.52228
1208.5912 325.60208
1217.4136 321.7656
1218.2609 330.36633
1226.0765 324.3509
1230.6437 329.07178
1228.7306 335.81036
1239.6962 330.87723
1239.0261 340.29608
1230.8068 344.0676
1222.6445 342.85568
1216.6152 339.23248
1208.0972 337.9284
1198.6603 331.1072
1188.9944 349.14886
1200.5576 347.3224
1210.8121 349.983
1219.9288 352.9736
1210.0364 359.3169
1207.2208 367.18164
1212.5276 371.55283
1205.0438 373.2075
1205.3822 378.70905
1211.9586 377.13812
1220.6962 379.03455
1227.8228 380.09454
1233.9431 384.09494
1233.4154 393.63782
1237.2922 401.3404
1243.0613 407.4521
1249.9795 409.53198
1249.6719 417.16998
1241.7078 418.52988
1230.802 420.18686
1238.9264 426.1778
1235.5856 433.04315
1228.1095 434.23773
1222.7194 426.80075
1221.0664 418.7962
1212.2881 428.19492
1205.373 433.1279
1210.1536 419.39206
1201.663 410.844
1198.8033 422.0594
1196.2799 431.8286
1188.187 423.87244
1186.2102 431.76144
1178.2356 430.11798
1172.1554 434.6699
1167.2594 424.36224
1174.6385 421.05405
1175.7352 412.39014
1181.593 420.83408
1189.8438 414.71002
1191.4761 407.05026
1182.3762 406.29828
1174.7737 402.31012
1178.4274 391.10947
1183.456 395.26144
1190.0999 391.48676
1186.4004 400.10785
1194.8326 400.41306
1199.2161 394.16586
1202.5939 388.4203
1210.6454 393.19238
1204.1256 399.70166
1209.7937 402.86105
1210.7589 408.95184
1216.2236 411.41623
1224.109 410.36322
1233.665 410.83752
1227.1913 401.83258
1218.4355 400.144
1225.478 391.04742
1218.7832 388.32822
1212.9111 384.18268
1206.6938 384.71698
1199.4689 380.889
1195.2198 387.06543
1191.7123 381.28638
1184.1569 381.79535
1191.2898 373.77283
1199.0293 371.1218
1199.9393 360.46198
1191.273 363.91498
1166.946 359.42502
1149.7843 374.96393
1146.039 403.5354
1120.6835 404.56357
1092.505 399.22882
1088.8358 370.69818
1083.6387 342.1971
1102.208 333.3786
1124.1144 360.07846
1158.3871 332.93616
1164.3563 292.946
1189.8698 278.0372
1199.8982 257.0194
1186.8638 221.28
1145.8602 194.03433
1142.5953 243.98712
1119.8485 283.46603
1129.4062 320.1219
1087.9805 295.83835
1094.9424 242.03433
1093.6106 196.88428
1113.9337 166.58908
1100.415 126.754074
1104.3995 75.561386
1107.5571 42.5175
1166.8478 56.477974
1147.8649 102.81532
1167.156 144.05223
1190.8875 180.25406
1226.3202 213.06584
1215.7004 237.59435
1236.0115 246.95392
1239.8995 238.68602
1241.5298 230.7655
1246.8145 225.05298
1250.3849 235.17612
1252.338 244.16342
1244.8644 245.86278
1244.6967 253.70459
1254.1858 253.15005
1260.5703 245.5275
1264.2805 251.79431
1256.8585 261.19946
1263.9377 258.3575
1270.3226 257.0652
1275.2567 255.81175
1279.2115 251.85991
1284.4016 248.02835
1281.67 241.79143
1275.7815 242.97472
1270.5419 247.65277
1267.924 237.99199
1274.474 235.9553
1280.5095 232.73239
1282.9717 225.05194
1291.204 220.55577
1284.2163 217.59644
1281.0526 207.8068
1288.5339 209.70134
1297.025 214.04741
1299.6143 221.79831
1307.1688 220.79471
1307.5157 211.02402
1312.1188 200.28123
1318.6335 192.23546
1320.137 204.92937
1319.2783 212.20348
1315.2959 218.03766
1312.9291 225.12457
1318.0411 228.08258
1324.6383 228.64726
1320.9542 234.30443
1324.7552 238.79692
1329.4397 242.45291
1333.1318 233.70514
1335.6403 240.04889
1339.3914 243.02457
1343.123 245.7404
1347.1152 250.8646
1350.2113 242.84215
1360.3468 237.20856
1352.1923 234.51883
1343.3053 237.33128
1343.7136 229.55316
1352.1116 223.78741
1356.8323 215.72546
1365.5902 217.3574
1362.3391 227.11081
1369.7524 232.52312
1372.8046 238.84625
1378.0035 243.31218
1377.5616 232.0067
1376.4348 225.30615
1383.3402 234.55481
1390.4576 237.43414
1386.2961 243.0446
1384.4615 250.06503
1390.0028 256.66507
1395.6864 243.23143
1397.8602 251.49277
1400.426 259.04233
1395.7336 267.39673
1405.3655 264.59778
1406.1975 274.1136
1414.8206 271.53497
1414.6422 261.13318
1409.5901 251.81145
1405.5681 242.51367
1403.8552 232.92912
1395.9491 231.80052
1388.5042 227.76028
1388.6282 219.2185
1375.7478 218.12424
1373.1158 209.24686
1382.9148 210.63266
1388.2852 202.86215
1395.0383 209.89128
1400.793 221.41745
1437.0576 228.55124
1419.4838 186.89543
1454.8574 190.74939
1485.8146 203.70561
1469.2009 238.78671
1506.2899 235.2927
1523.0773 265.2388
1548.1206 290.22745
1554.8629 263.9732
1546.3395 235.92462
1582.1414 245.33185
1577.2609 282.6845
1584.8802 290.69495
1575.1365 294.3506
1578.6511 300.19638
1583.8651 302.95816
1589.8412 298.6762
1598.5452 298.8174
1587.1895 309.60382
1575.6743 309.23517
1574.1465 319.82556
1582.9614 316.80035
1588.8826 322.24933
1595.9362 310.86148
1604.5767 312.44196
1613.6414 313.7328
1619.5137 308.96503
1608.9994 302.8148
1616.9786 298.0736
1618.6433 288.3431
1606.3207 289.97943
1594.3835 286.77216
1603.4814 256.29248
1623.2749 263.77618
1647.4838 264.1464
1641.8843 288.06082
1649.1915 290.37595
1656.7576 289.3132
1667.8545 286.19342
1671.5336 297.05667
1662.298 297.37097
1653.3555 299.30963
1659.7351 308.10242
1666.1431 304.74292
1668.8301 318.0368
1671.4087 309.72266
1692.5682 305.12878
1700.1211 309.4646
1700.0166 316.10422
1699.5947 321.0455
1700.9764 325.884
1694.3354 326.72675
1695.5166 337.36627
1701.1332 333.59543
1705.2341 328.58218
1709.3566 325.0132
1714.9277 322.2768
1708.8696 317.43588
1707.9641 310.30978
1714.6896 310.00244
1716.3037 316.14764
1723.9142 323.47168
1721.7942 328.33203
1725.5549 332.7102
1727.6729 339.97522
1728.6194 347.7264
1720.4038 346.66608
1716.689 338.37323
1714.219 330.87122
1707.2909 336.50153
1707.8605 342.79315
1713.4324 347.867
1706.582 350.30408
1700.5986 345.2496
1689.2537 338.73813
1685.3074 343.0351
1681.9246 346.79147
1692.6033 347.69727
1697.6393 354.446
1705.8907 356.47336
1712.4854 362.25766
1714.0482 356.18234
1720.968 356.40485
1727.2349 360.86072
1731.8738 355.2794
1738.4839 350.09753
1738.2325 343.38034
1744.6829 353.2094
1740.8011 360.60715
1752.1482 361.45627
1752.177 347.4826
1743.7102 336.8954
1752.112 333.9992
1759.3125 337.5807
1762.7188 329.2127
1757.9116 323.0528
1748.5857 323.7902
1741.0911 317.0082
1739.3936 326.10403
1734.0438 332.92706
1731.6721 320.30066
1722.8302 317.34454
1728.0029 311.6624
1721.7264 309.27716
1724.9907 303.61
1725.1025 298.49164
1729.5522 298.59216
1729.2003 292.88287
1725.841 287.38583
1719.8201 285.5748
1713.1024 282.70685
1711.9106 290.1996
1717.4221 293.888
1723.6289 292.02618
1721.0665 297.75308
1716.2869 303.4355
1711.0889 299.13168
1702.7919 301.46106
1704.7465 293.21863
1693.1273 287.52924
1702.5437 264.03033
1733.2087 255.31303
1742.9377 220.736
1759.8228 238.72842
1760.4656 262.95557
1781.7067 268.9504
1795.9852 250.15479
1786.5244 222.27823
1808.9318 197.75345
1822.3395 233.16895
1847.8176 257.2669
1857.8386 232.67314
1882.2483 255.85515
1895.0188 255.22882
1890.4473 242.27177
1897.5427 233.32965
1909.9966 228.9132
1920.7236 227.86368
1913.0447 214.76028
1925.0857 210.26036
1928.8726 221.76689
1934.9175 214.13278
1940.5573 214.01663
1950.2117 215.88724
1946.0826 211.73082
1948.865 205.24362
1941.5898 205.98322
1937.6311 184.92236
1940.618 159.19444
1970.0498 167.8967
1968.5062 138.80847
1968.811 109.09062
1944.2633 128.739
1908.5703 138.26372
1907.9688 175.86777
1874.4094 166.41478
1881.4183 206.23315
1845.0331 201.02155
1834.8081 165.61876
1820.8301 128.31616
1856.0767 124.283875
1878.6335 102.6814
1905.348 101.14379
1929.9382 99.22402
1952.9595 81.23747
1950.6327 49.937996
1925.2235 61.233322
1896.0128 58.76701
1860.6604 63.167
1825.2772 85.762596
1818.2477 51.31529
1767.0884 46.623253
1782.3818 70.91524
1788.7515 108.17978
1752.4452 118.63489
1699.2522 124.7713
1716.2789 164.24393
1729.9729 144.33429
1762.7028 151.19827
1796.0671 152.71913
1781.6357 180.66537
1763.199 199.87071
1743.4717 179.0894
1730.9224 199.6947
1716.9635 218.96619
1714.4211 241.42072
1688.4609 227.36578
1677.6415 254.58755
1652.9653 234.69476
1622.3453 229.58087
1626.2839 195.41185
1651.793 197.24261
1675.5369 202.71799
1699.7251 198.19896
1707.4757 181.00806
1677.6597 160.51501
1644.5222 159.9363
1640.261 129.84079
1657.6525 110.641655
1638.9825 84.15964
1666.473 62.144577
1680.1597 87.76207
1709.0573 86.00493
1741.2307 91.03284
1745.666 62.51109
1725.3884 52.01983
1698.7968 54.08522
1674.2723 31.360579
1639.8994 50.64707
1614.3701 65.76974
1593.9562 49.757442
1575.036 75.54136
1556.2086 46.955444
1532.9901 65.30345
1513.6938 83.882965
1488.4897 54.54249
1485.1736 92.723045
1459.7056 114.249374
1484.7045 130.76892
1510.9861 108.46102
1524.615 123.66293
1557.4004 102.48569
1605.4631 101.21349
1583.6985 130.07936
1609.6516 143.83708
1608.148 174.15172
1596.8535 212.30219
1575.1932 191.10098
1565.4302 217.02179
1536.7458 202.16763
1567.144 165.83655
1549.8066 139.38168
1518.867 154.18718
1516.602 183.78476
1484.7876 163.06772
1455.5569 153.65031
1428.5541 153.88095
1418.007 121.506165
1391.8757 96.12958
1388.0897 144.88632
1372.1194 172.56822
1385.4761 180.20598
1379.7476 186.54587
1380.227 193.50389
1390.0717 192.95016
1383.3376 197.85185
1378.1853 201.7619
1371.8242 199.99352
1373.3181 190.94574
1365.8247 183.9713
1364.5044 192.21725
1364.4081 200.72101
1363.9153 208.40479
1356.2329 205.37016
1350.7284 209.6802
1347.9712 215.15628
1343.8923 218.99742
1340.0007 223.3668
1335.7314 217.95615
1333.8063 225.18596
1328.3779 224.95749
1323.5088 219.53642
1327.8918 214.55197
1331.9512 212.14752
1336.7737 212.21538
1342.5383 210.79544
1337.7001 204.82707
1330.1482 206.52953
1328.3875 199.0018
1331.335 190.38835
1328.3145 178.02441
1340.309 182.75192
1343.1655 191.3352
1341.0026 198.21062
1346.7089 203.4961
1354.4353 196.75732
1352.8574 187.38327
1353.5255 176.29654
1352.0653 134.79022
1345.4856 98.457565
1310.1594 129.41096
1269.4425 122.557976
1261.2925 163.4658
1266.4664 184.29037
1272.2621 193.53058
1277.0631 188.27611
1278.5969 181.57968
1284.5709 188.72269
1290.7288 188.12048
1296.7266 183.87405
1288.8428 168.67941
1307.7693 174.84142
1317.0273 183.50363
1306.1027 187.66258
1297.8483 193.52295
1303.6604 199.2844
1298.0093 206.49188
1292.2195 201.72433
1287.0657 197.8286
1278.9204 197.72533
1272.132 206.09195
1275.0406 216.20535
1275.6061 225.1698
1268.753 227.41129
1260.1199 237.3541
1260.4558 228.28966
1255.6323 222.97592
1249.2189 215.94507
1249.2991 203.8688
1257.1793 210.9002
1265.4583 215.76682
1260.8972 202.88188
1267.5327 197.49353
1258.778 191.68555
1237.2839 183.45602
1227.1044 148.23663
1210.6772 116.939575
1191.7653 89.2742
1227.4933 53.660183
1245.1714 87.85577
1282.1108 69.150536
1315.5952 65.563965
1352.3696 61.131023
1376.7363 43.417934
1400.3947 63.883453
1433.271 43.86194
1446.4396 91.151306
1442.96 66.97222
" />
</g></g></svg>
