
<svg xmlns="http://www.w3.org/2000/svg" version="1.1" xmlns:xlink="http://www.w3.org/1999/xlink" preserveAspectRatio="none" x="0px" y="0px" width="550px" height="400px" viewBox="0 0 550 400">
<defs>
<path id="Layer0_0_1_STROKES" stroke="#000000" stroke-width="1" stroke-linejoin="round" stroke-linecap="round" fill="none" d="
M 356.05 62.75
Q 355.75 49.25 360.35 43.15 366 35.6 373.9 35.3 374.3 35.25 374.7 35.25 374.8 35.25 374.95 35.25 375.05 35.25 375.2 35.25 375.55 35.25 375.95 35.3 383.85 35.6 389.5 43.15 394.1 49.25 393.8 62.75 394.6 63.05 395.45 63.3 395.25 71 390.6 80.95 389.85 81.4 389.15 81.85 388.95 82.05 388.8 82.3 388.7 82.35 388.7 82.45
L 388.625 82.55
Q 388.6 82.6166015625 388.6 82.7 388.5828125 82.72578125 388.575 82.75
L 387.95 83.6 385.9 93.15 388.5 94.55 391.65 96.25 396.05 98.65 394.75 100.55 398.45 102.75
Q 398.6 102 398.75 101.3 419.9 104.45 424.75 113.25 429.55 122.05 431.15 140.65 430.8 141 430.4 141.35
L 431.55 144.1 433.9 149.8 437.1 157.55
Q 437.9 158.25 438.55 159.3 440.05 161.65 440.25 165.4 440.4 169.15 437.8 172.5 435.15 175.8 434 177.3 432.8 178.8 430.75 178.2
L 412.35 184.75 411.5 185.85 412.4 201.75
Q 416.65 217.35 416.45 234.2 414.2 234.55 411.95 234.9 409.25 235.25 406.5 235.6
L 406.85 252.15 406.9 258.65 410.85 253.35 414.1 260.55 413.2 272
Q 410.65 275.35 407.1 274.55
L 406.65 281.55 406.3 287.55 407.65 295.25
Q 404.75 311.6 404.15 314.75 404.1 315 404.05 315.3 400.85 331.05 405.8 348.55 404.55 353.45 403.65 352.15
L 406.65 361.75 405.15 364
Q 392.95 367.25 383.85 364.15 382.5 364.4 382.9 358.3 385.8 355 385.65 354.6 384.4 351.9 384.55 349.55 388.3 332.65 387.3 320.8 382.15 304.55 382.55 290.05 382.55 289.35 382.8 283.65 382.9 279.95 383.1 274.2 379.95 269.5 382.65 262.15
L 381.4 255.8 378.05 238.55 377.2 354.75 374.55 362.05 374.45 362.3 370.95 354.55 369.75 248 368.2 255.8 366.95 262.15
Q 369.65 269.5 366.5 274.2 366.7 279.95 366.85 283.65 367.05 289.35 367.05 290.05 367.45 304.55 362.3 320.8 361.3 332.65 365.05 349.55 365.2 351.9 364 354.6 363.8 355 366.7 358.3 367.1 364.4 365.75 364.15 356.65 367.25 344.45 364
L 342.95 361.75 345.95 352.15
Q 345.05 353.45 343.85 348.55 348.75 331.05 345.55 315.3 345.5 315 345.45 314.75 344.85 311.6 341.95 295.25
L 343.3 287.55 342.95 281.55 342.55 274.55
Q 338.95 275.35 336.45 272
L 335.55 260.55 338.75 253.35 342.75 258.65 342.8 252.15 342.95 235.55
Q 340.5 235.25 337.1 234.75 336.95 234.7 336.8 234.7 335.1 234.45 333.45 234.2 333.2 217.35 337.45 201.75
L 338.35 185.85 337.55 184.75 319.1 178.2
Q 317.05 178.8 315.9 177.3 314.7 175.8 312.1 172.5 309.45 169.15 309.65 165.4 309.8 161.65 311.35 159.3 311.95 158.25 312.75 157.55
L 315.95 149.8 318.3 144.1 319.45 141.35
Q 319.05 141 318.7 140.65 320.3 122.05 325.15 113.25 329.95 104.45 351.1 101.3 351.25 102 351.45 102.75
L 355.15 100.55 353.8 98.65 358.2 96.25 361.35 94.55 363.95 93.15 361.9 83.6 361.275 82.75
Q 361.2671875 82.72578125 361.25 82.7 361.25 82.55 361.2 82.45 361.15 82.35 361.1 82.3 360.9 82.05 360.75 81.85 360 81.4 359.25 80.95 354.6 71 354.45 63.3 355.25 63.05 356.05 62.75 356.6 62.5 357.2 62.3 361.1 57 371.45 52.55 372.8 51.2 374.1 49.7 374.35 49.1 374.85 48.6 374.9 48.65 374.95 48.7 374.95 48.65 375 48.6 375.5 49.1 375.8 49.7 377.05 51.2 378.4 52.55 388.75 57 392.7 62.3 393.25 62.5 393.8 62.75
M 374.95 48.7
Q 374.95 48.75 375 48.8
L 375 48.6
M 374.85 48.6
L 374.85 48.8
Q 374.9 48.75 374.95 48.7
M 387.95 83.6
L 388.35 82.95
Q 383 88.45 375.95 89.15 375.45 89.2 374.95 89.25 374.4 89.2 373.9 89.15 366.85 88.45 361.5 82.95
L 361.9 83.6
M 361.275 82.75
Q 361.37578125 82.8671875 361.5 82.95
L 361.2 82.45
M 375.8 49.7
Q 375.4 49.25 375 48.8
L 374.95 55.5 374.95 64.55 375.15 84.9
Q 375.55 84.85 375.95 84.85 382.15 84.65 389.15 81.85
M 363.95 93.15
Q 369.05 95.85 373.9 96.2 374.15 96.2 374.4 96.2
L 375.5 96.2
Q 375.7 96.2 375.95 96.2 380.8 95.85 385.9 93.15
M 360.75 81.85
Q 367.7 84.65 373.9 84.85 374.3 84.85 374.7 84.9
L 374.95 64.55
M 374.7 84.9
Q 374.95 84.9 375.15 84.9
M 388.625 82.55
L 388.35 82.95
Q 388.47421875 82.8671875 388.575 82.75
M 392.7 62.3
Q 384.85 59 378.4 52.55
M 374.85 48.8
L 374.95 55.5
M 357.2 62.3
Q 365 59 371.45 52.55
M 374.1 49.7
Q 374.45 49.25 374.85 48.8
M 355.15 100.55
L 355.45 101
Q 367.35 113.25 374.7 115.25 374.8 115.25 374.95 115.3 382.3 113.45 394.4 101
L 394.75 100.55
M 388.5 94.55
Q 381.85 100.55 375.9 101.65 375.4 101.7 374.95 101.8 374.45 101.7 373.95 101.65 368 100.55 361.35 94.55
M 351.45 102.75
Q 355.05 120.3 349.6 130.25 343.9 140.6 341.4 141.65
L 347.8 163.3
Q 359.1 170.1 370.95 171
L 370.95 149.75 369.7 149.75 369.7 146.75 374.85 146.75 374.7 115.25
M 374.85 146.75
L 377.7 146.75 377.7 149.75 376.45 149.75 376.45 171.1
Q 388.9 170.6 401.95 163.75
L 408.5 141.65
Q 405.95 140.6 400.3 130.25 394.8 120.3 398.45 102.75
M 336.75 148.8
L 339.5 142.65
Q 332.95 145.65 324.65 143.75
L 323.85 146.2 322.45 150.5
Q 329.15 145.25 336.75 148.8 338.25 149.5 339.75 150.55 341.05 151.4 341.2 152.25
L 338.5 156.4 343.65 161.8
Q 342.15 163.95 339.35 165.2
L 344.55 168.3 346.25 168.05 347.8 163.3
M 341.4 141.65
Q 340.45 142.2 339.5 142.65
M 341.95 187
L 341.95 187.3
Q 344.2 187.05 346.35 187.35
L 337.25 174.35 354.75 171.35 350.45 167.4 346.25 168.05
M 322.2 151.25
L 322.45 150.5
Q 321.75 151.05 321.05 151.7 320.75 151.95 320.45 152.25
L 319.3 154.55
Q 321.2 155.35 322.95 156.65 324.7 157.9 325.5 158.15 328.5 154.85 338.5 156.4
M 338.35 185.85
L 339.65 187.6
Q 340.8 187.35 341.95 187.3
L 340.6 215.5 349.55 223.8 360.3 220.3 364 198.25 362.15 196.9 359.8 195.2 361.65 193.05 355.45 190.05
Q 349.4 187.7 346.35 187.35
M 354.75 171.35
Q 356.35 173.35 358.65 174.95 358.7021484375 174.95 358.8 174.95 359.05 174.55 359.35 174.15
M 374.7 180.25
L 377.05 179.3
Q 365.2 177.8 360.1 174.65 359.4 174.75 358.8 174.95 358.75 174.9515625 358.75 175 355.15 180.25 354.5 188.5 354.45 189.25 354.35 189.55
L 355.45 190.05
Q 358.3 191.15 361.9 192.8
L 371.7 181.5 373.95 180.6 373.95 180.25 374.7 180.25 373.95 180.6
M 358.65 174.95
Q 358.7015625 174.9515625 358.75 175
M 361.9 192.8
L 361.65 193.05
M 344.55 168.3
L 327.3 170.9 337.55 184.75
M 376.45 171.1
L 376.45 174.25
Q 384.25 173.6 390.3 175.55 393.2 173.75 395.15 171.35
L 399.45 167.4 403.55 168.05 401.95 163.75
M 370.95 149.75
L 376.45 149.75
M 377.05 179.3
L 382.4 178.7 384 178.15
Q 385.5 177.9 387.8 176.85 389.15 176.25 390.3 175.55
M 369.15 195.3
L 369.45 195.05 369.15 195 369.15 195.3 364.6 198.7 367.75 201 369.2 199.95 374 196.55 374 196.25 374.3 196.3 381.45 191.25
M 374.3 196.3
L 374 196.55
M 378.05 238.55
L 377.85 237.45
Q 377.95 237.45 378.05 237.45
L 378.35 198.5 378.35 197.35 377.95 197.25 374 199.05 374.55 362.05
M 377.95 197.25
L 378.35 197.1 382.95 195 386.6 193.25 388.05 192.55 388.3 192.65
Q 391 191.4 393.35 190.5 394.85 189.85 396.2 189.4 396.1 184.2 393.35 180.55 391 177.4 387.8 176.85
M 378.35 197.35
L 378.35 197.1
M 369.45 195.05
L 378.4 188.5
M 370.95 171
L 370.95 174.25 376.45 174.25
M 388.3 192.65
L 392.2 194.05 393.95 191 393.35 190.5
M 386.6 193.25
Q 387.5 192.95 388.3 192.65
M 382.95 195
L 390.2 197.3 392.2 194.05
M 390.2 197.3
L 388.5 199.95 386.05 199.35 389.55 220.3 400.3 223.8 409.25 215.5 407.25 187.25
Q 405.35 187.1 403.5 187.35 400.9 187.65 396.2 189.4 396.2 189.55 396.2 189.75
M 362.15 196.9
L 375.2 184.75
M 360.1 174.65
Q 364.85 173.75 370.95 174.25
M 408.5 141.65
Q 409.4 142.2 410.35 142.65 416.9 145.65 425.25 143.75 426 143.55 426.8 143.35 428.7 142.8 430.4 141.35
M 431.55 144.1
L 426 146.2 427.4 150.5
Q 428.1 151.05 428.85 151.7
L 433.9 149.8
M 425.25 143.75
L 426 146.2
M 428.85 151.7
Q 429.1 151.95 429.4 152.25
L 430.55 154.55
Q 432.35 155.2 434.7 156.05 436 156.55 437.1 157.55
M 430.55 154.55
Q 428.65 155.35 426.9 156.65 425.15 157.9 424.4 158.15 426.4 162.25 426.4 166.25
L 426.9 166.25
M 427.65 151.25
L 427.4 150.5
Q 420.7 145.25 413.15 148.8 411.6 149.5 410.1 150.55 408.8 151.4 408.65 152.25
L 411.35 156.4
Q 421.35 154.85 424.4 158.15
M 426.4 166.25
Q 430.05 169.85 430.85 173.05 431.6 176.25 430.75 178.2
M 412.35 184.75
L 422.55 170.9 405.35 168.3 403.55 168.05
M 405.35 168.3
L 410.55 165.2
Q 407.7 163.95 406.25 161.8
L 411.35 156.4
M 411.5 185.85
L 410.25 187.6
Q 408.7 187.3 407.25 187.25
M 410.55 165.2
Q 415.95 167.5 426.4 166.25
M 413.15 148.8
L 410.35 142.65
M 403.5 187.35
L 412.6 174.35 395.15 171.35
M 358.2 96.25
Q 366.7 106.35 374.95 107.6 383.15 106.35 391.65 96.25
M 412.4 201.75
L 413.6 222.1
Q 403.95 228.15 400.3 232.25 392.75 228.35 384.3 226.4
L 378.35 198.5
M 406.9 258.65
L 405.05 260.9 405.25 274.25
Q 405.9 272.65 406.7 274.45 406.9 274.5 407.1 274.55
L 407.15 273.5
M 392.2 198.1
L 395.05 215.2 400.3 217.4 403.9 213.3 402.3 194.85 392.2 198.1 Z
M 369.2 199.95
L 369.2 201.2 370.15 200.75 370.3 200
M 370.15 200.75
L 374 199.05
M 369.2 201.65
L 369.2 201.2 368.45 201.5 369.2 201.65 369.25 205.8 369.6 237.4 369.75 248
M 367.75 201
L 368.45 201.5
M 406.5 235.6
Q 400.5 236.3 394.25 236.75 388.95 237.15 383.45 237.3 383.25 237.3 383.05 237.35 380.55 237.4 378.05 237.45
L 378.05 238.55
M 369.6 237.4
Q 368.2 237.35 366.8 237.35 354.45 236.95 342.95 235.55
M 337.45 201.75
L 336.3 222.1
Q 345.9 228.15 349.6 232.25 357.1 228.35 365.55 226.4
L 369.25 205.8
M 357.65 198.1
L 354.85 215.2 349.6 217.4 346 213.3 347.55 194.85 357.65 198.1 Z
M 342.45 273.5
L 342.55 274.55
Q 342.7 274.5 342.95 274.45 343.7 272.65 344.4 274.25
L 344.55 260.9 342.75 258.65
M 366.5 274.2
Q 365.4 275.85 363.6 277.2 356.6 282.3 344.4 274.25
M 342.95 281.55
Q 351.05 285.5 359.95 285.15 363.75 285 366.85 283.65
M 343.3 287.55
Q 350.55 292.3 359.75 291.7 363.65 291.45 367.05 290.05
M 342.8 252.15
Q 352 251.1 361 253.15 364.9 254 368.2 255.8
M 406.65 281.55
Q 398.55 285.5 389.65 285.15 385.85 285 382.8 283.65
M 406.3 287.55
Q 399.05 292.3 389.85 291.7 385.95 291.45 382.55 290.05
M 406.85 252.15
Q 397.6 251.1 388.6 253.15 384.7 254 381.4 255.8
M 383.1 274.2
Q 384.2 275.85 386 277.2 393 282.3 405.25 274.25
M 344.55 260.9
Q 352.65 257.7 366.95 262.15
M 364 198.25
L 364.6 198.7
M 387.15 345.75
L 387.9 345.15
Q 388.45 344.1 389.25 343.35 391.45 341.25 393.3 341 395.15 340.75 395.6 340.9 400.45 342.45 402.8 346.45
L 403.4 347
M 402.8 346.45
L 399.9 343.75
Q 393.95 341.2 388.9 344.25
L 387.9 345.15
Q 387 346.75 386.75 349.05
L 387.4 348.75
Q 387.5 347.75 388.6 347.2 393.5 344.9 398.9 346.25
L 403.3 349.15
Q 403.05 346.9 403 346.85 402.9 346.6 402.8 346.45 Z
M 346.85 346.45
L 349.7 343.75
Q 355.65 341.2 360.7 344.25
L 361.7 345.15
Q 361.15 344.1 360.35 343.35 358.15 341.25 356.3 341 354.45 340.75 354 340.9 349.15 342.45 346.85 346.45 346.7 346.6 346.6 346.85 346.55 346.9 346.3 349.15
L 350.7 346.25
Q 356.1 344.9 361 347.2 362.1 347.75 362.2 348.75
L 362.9 349.05
Q 362.6 346.75 361.7 345.15
L 362.45 345.75
M 363.45 349.25
L 362.9 349.05
Q 362.9 349.25 362.95 349.5 362.75 352.5 364 354.6
M 345.7 349.5
L 346.3 349.15
Q 346.15 350.3 345.95 352.15
M 346.95 358.25
Q 355.9 356 364.2 358.25
M 403.9 349.5
L 403.3 349.15
Q 403.45 350.3 403.65 352.15
M 386.15 349.25
L 386.75 349.05
Q 386.7 349.25 386.7 349.5 386.85 352.5 385.65 354.6
M 402.65 358.25
Q 393.7 356 385.4 358.25
M 346.85 346.45
L 346.2 347
M 405.05 260.9
Q 396.95 257.7 382.65 262.15
M 386.05 199.35
L 378.35 197.35
M 324.65 143.75
Q 323.85 143.55 323.05 143.35 321.15 142.8 319.45 141.35
M 318.3 144.1
L 323.85 146.2
M 315.95 149.8
L 321.05 151.7
M 312.75 157.55
Q 313.85 156.55 315.2 156.05 317.5 155.2 319.3 154.55
M 322.95 166.25
L 323.45 166.25
Q 323.45 162.25 325.5 158.15
M 339.35 165.2
Q 333.9 167.5 323.45 166.25 319.8 169.85 319.05 173.05 318.25 176.25 319.1 178.2"/>
</defs>

<g transform="matrix( 1, 0, 0, 1, 0,0) ">
<use xlink:href="#Layer0_0_1_STROKES"/>
</g>
</svg>
