<?xml version="1.0" encoding="utf-8"?>
<!-- Generator: Adobe Illustrator 18.0.0, SVG Export Plug-In . SVG Version: 6.00 Build 0)  -->
<!DOCTYPE svg PUBLIC "-//W3C//DTD SVG 1.1//EN" "http://www.w3.org/Graphics/SVG/1.1/DTD/svg11.dtd">
<svg version="1.1" id="Layer_1" xmlns="http://www.w3.org/2000/svg" xmlns:xlink="http://www.w3.org/1999/xlink" x="0px" y="0px"
	 viewBox="309.1 34.8 131.6 331.4" enable-background="new 309.1 34.8 131.6 331.4" xml:space="preserve">
<g transform="matrix( 1, 0, 0, 1, 0,0) ">
	<g>
		<path id="Layer0_0_1_STROKES" fill="none" stroke="#000000" stroke-linecap="round" stroke-linejoin="round" d="M356,62.8
			c-0.2-9,1.2-15.5,4.3-19.6c3.8-5,8.3-7.7,13.5-7.9c0.3,0,0.5,0,0.8,0c0.1,0,0.1,0,0.2,0c0.1,0,0.1,0,0.2,0c0.2,0,0.5,0,0.8,0
			c5.3,0.2,9.8,2.8,13.5,7.9c3.1,4.1,4.5,10.6,4.3,19.6c0.5,0.2,1.1,0.4,1.7,0.5c-0.1,5.1-1.8,11-4.9,17.6c-0.5,0.3-1,0.6-1.5,0.9
			c-0.1,0.1-0.2,0.3-0.4,0.5c-0.1,0-0.1,0.1-0.1,0.1l-0.1,0.1c0,0,0,0.1,0,0.1c0,0,0,0,0,0.1l-0.6,0.8l-2.1,9.6l2.6,1.4l3.1,1.7
			l4.4,2.4l-1.3,1.9l3.7,2.2c0.1-0.5,0.2-1,0.3-1.4c14.1,2.1,22.8,6.1,26,11.9c3.2,5.9,5.3,15,6.4,27.4c-0.2,0.2-0.5,0.5-0.8,0.7
			l1.1,2.8l2.4,5.7l3.2,7.8c0.5,0.5,1,1,1.4,1.8c1,1.6,1.6,3.6,1.7,6.1c0.1,2.5-0.7,4.9-2.5,7.1c-1.8,2.2-3,3.8-3.8,4.8
			c-0.8,1-1.9,1.3-3.2,0.9l-18.4,6.6l-0.9,1.1l0.9,15.9c2.8,10.4,4.2,21.2,4.1,32.4c-1.5,0.2-3,0.5-4.5,0.7
			c-1.8,0.2-3.6,0.5-5.5,0.7l0.4,16.5l0,6.5l4-5.3l3.2,7.2l-0.9,11.5c-1.7,2.2-3.7,3.1-6.1,2.5l-0.5,7l-0.4,6l1.4,7.7
			c-1.9,10.9-3.1,17.4-3.5,19.5c0,0.2-0.1,0.4-0.1,0.5c-2.1,10.5-1.5,21.6,1.8,33.2c-0.8,3.3-1.5,4.5-2.1,3.6l3,9.6l-1.5,2.2
			c-8.1,2.2-15.2,2.2-21.3,0.1c-0.9,0.2-1.2-1.8-1-5.9c1.9-2.2,2.9-3.4,2.8-3.7c-0.8-1.8-1.2-3.5-1.1-5.1
			c2.5-11.3,3.4-20.9,2.8-28.8c-3.4-10.8-5-21.1-4.8-30.8c0-0.5,0.1-2.6,0.2-6.4c0.1-2.5,0.2-5.6,0.3-9.4c-2.1-3.1-2.2-7.1-0.5-12.1
			l-1.2-6.3l-3.4-17.2l-0.8,116.2l-2.7,7.3l-0.1,0.2l-3.5-7.8L369.8,248l-1.5,7.8l-1.2,6.3c1.8,4.9,1.6,8.9-0.5,12.1
			c0.1,3.8,0.2,7,0.4,9.4c0.1,3.8,0.2,5.9,0.2,6.4c0.3,9.7-1.3,19.9-4.8,30.8c-0.7,7.9,0.2,17.5,2.8,28.8c0.1,1.6-0.2,3.3-1,5.1
			c-0.1,0.3,0.8,1.5,2.7,3.7c0.3,4.1-0.1,6-1,5.9c-6.1,2.1-13.2,2-21.3-0.1l-1.5-2.2l3-9.6c-0.6,0.9-1.3-0.3-2.1-3.6
			c3.3-11.7,3.8-22.8,1.7-33.2c0-0.2-0.1-0.4-0.1-0.5c-0.4-2.1-1.6-8.6-3.5-19.5l1.3-7.7l-0.3-6l-0.4-7c-2.4,0.5-4.4-0.3-6.1-2.5
			l-0.9-11.5l3.2-7.2l4,5.3l0-6.5l0.2-16.6c-1.6-0.2-3.6-0.5-5.9-0.8c-0.1,0-0.2-0.1-0.3-0.1c-1.1-0.2-2.2-0.3-3.3-0.5
			c-0.2-11.2,1.2-22,4-32.4l0.9-15.9l-0.8-1.1l-18.4-6.6c-1.4,0.4-2.4,0.1-3.2-0.9c-0.8-1-2.1-2.6-3.8-4.8c-1.8-2.2-2.6-4.6-2.5-7.1
			c0.1-2.5,0.7-4.5,1.7-6.1c0.4-0.7,0.9-1.3,1.4-1.8l3.2-7.8l2.3-5.7l1.2-2.8c-0.3-0.2-0.5-0.5-0.8-0.7c1.1-12.4,3.2-21.5,6.4-27.4
			c3.2-5.9,11.9-9.8,26-11.9c0.1,0.5,0.2,0.9,0.4,1.4l3.7-2.2l-1.4-1.9l4.4-2.4l3.1-1.7l2.6-1.4l-2.1-9.6l-0.6-0.8c0,0,0,0,0-0.1
			c0-0.1,0-0.2,0-0.2c0-0.1-0.1-0.1-0.1-0.1c-0.1-0.2-0.2-0.3-0.4-0.5c-0.5-0.3-1-0.6-1.5-0.9c-3.1-6.6-4.7-12.5-4.8-17.6
			C355,63.1,355.5,63,356,62.8c0.4-0.2,0.8-0.3,1.2-0.5c2.6-3.5,7.4-6.8,14.2-9.8c0.9-0.9,1.8-1.8,2.6-2.8c0.2-0.4,0.4-0.8,0.8-1.1
			c0,0,0.1,0.1,0.1,0.1c0,0,0-0.1,0-0.1c0.3,0.3,0.6,0.7,0.8,1.1c0.8,1,1.7,1.9,2.6,2.8c6.9,3,11.7,6.2,14.3,9.8
			c0.4,0.1,0.7,0.3,1.1,0.5 M375,48.7C375,48.7,375,48.8,375,48.7l0-0.1 M374.9,48.6v0.2c0,0,0.1-0.1,0.1-0.1 M388,83.6l0.4-0.7
			c-3.6,3.7-7.7,5.7-12.4,6.2c-0.3,0-0.7,0.1-1,0.1c-0.4,0-0.7-0.1-1.1-0.1c-4.7-0.5-8.8-2.5-12.4-6.2l0.4,0.7 M361.3,82.8
			c0.1,0.1,0.1,0.1,0.2,0.2l-0.3-0.5 M375.8,49.7c-0.3-0.3-0.5-0.6-0.8-0.9l0,6.7v9.1l0.2,20.3c0.3,0,0.5-0.1,0.8-0.1
			c4.1-0.1,8.5-1.1,13.2-3 M364,93.2c3.4,1.8,6.7,2.8,9.9,3c0.2,0,0.3,0,0.5,0h1.1c0.1,0,0.3,0,0.5,0c3.2-0.2,6.5-1.2,9.9-3
			 M360.8,81.8c4.6,1.9,9,2.9,13.1,3c0.3,0,0.5,0,0.8,0.1l0.2-20.3 M374.7,84.9c0.2,0,0.3,0,0.4,0 M388.6,82.6l-0.3,0.4
			c0.1-0.1,0.2-0.1,0.2-0.2 M392.7,62.3c-5.2-2.2-10-5.4-14.3-9.8 M374.9,48.8l0.1,6.7 M357.2,62.3c5.2-2.2,9.9-5.4,14.2-9.8
			 M374.1,49.7c0.2-0.3,0.5-0.6,0.8-0.9 M355.1,100.6l0.3,0.4c7.9,8.2,14.4,12.9,19.2,14.2c0.1,0,0.1,0,0.2,0.1
			c4.9-1.2,11.4-6,19.4-14.3l0.4-0.4 M388.5,94.6c-4.4,4-8.6,6.4-12.6,7.1c-0.3,0-0.6,0.1-0.9,0.2c-0.3-0.1-0.7-0.1-1-0.2
			c-4-0.7-8.2-3.1-12.6-7.1 M351.5,102.8c2.4,11.7,1.8,20.9-1.9,27.5c-3.8,6.9-6.5,10.7-8.2,11.4l6.4,21.7
			c7.5,4.5,15.3,7.1,23.2,7.7v-21.2h-1.2v-3h5.1l-0.1-31.5 M374.9,146.8h2.9v3h-1.2v21.4c8.3-0.3,16.8-2.8,25.5-7.4l6.5-22.1
			c-1.7-0.7-4.4-4.5-8.2-11.4c-3.7-6.6-4.3-15.8-1.8-27.5 M336.8,148.8l2.8-6.2c-4.4,2-9.3,2.4-14.9,1.1l-0.8,2.4l-1.4,4.3
			C326.9,147,331.7,146.4,336.8,148.8c1,0.5,2,1,3,1.8c0.9,0.6,1.4,1.1,1.5,1.7l-2.7,4.1l5.1,5.4c-1,1.4-2.4,2.6-4.3,3.4l5.2,3.1
			l1.7-0.2l1.5-4.8 M341.4,141.6c-0.6,0.4-1.3,0.7-1.9,1 M342,187v0.3c1.5-0.2,3-0.1,4.4,0.1l-9.1-13l17.5-3l-4.3-4l-4.2,0.7
			 M322.2,151.2l0.2-0.8c-0.5,0.4-0.9,0.8-1.4,1.2c-0.2,0.2-0.4,0.4-0.6,0.6l-1.2,2.3c1.3,0.5,2.5,1.2,3.7,2.1
			c1.2,0.8,2,1.3,2.5,1.5c2-2.2,6.3-2.8,13-1.8 M338.4,185.9l1.3,1.8c0.8-0.2,1.5-0.3,2.3-0.3l-1.4,28.2l8.9,8.3l10.8-3.5l3.7-22.1
			l-1.9-1.4l-2.4-1.7l1.9-2.1l-6.2-3c-4-1.6-7.1-2.5-9.1-2.7 M354.8,171.4c1.1,1.3,2.4,2.5,3.9,3.6c0,0,0.1,0,0.1,0
			c0.2-0.3,0.4-0.5,0.6-0.8 M374.7,180.2l2.3-0.9c-7.9-1-13.5-2.6-16.9-4.7c-0.5,0.1-0.9,0.2-1.3,0.3c0,0,0,0,0,0.1
			c-2.4,3.5-3.8,8-4.2,13.5c0,0.5-0.1,0.8-0.1,1.1l1.1,0.5c1.9,0.7,4,1.6,6.4,2.8l9.8-11.3l2.2-0.9v-0.4H374.7l-0.8,0.4
			 M358.6,174.9c0,0,0.1,0,0.1,0.1 M361.9,192.8l-0.2,0.2 M344.5,168.3l-17.2,2.6l10.2,13.9 M376.5,171.1v3.1
			c5.2-0.4,9.8,0,13.8,1.3c1.9-1.2,3.6-2.6,4.9-4.2l4.3-4l4.1,0.7l-1.6-4.3 M371,149.8h5.5 M377,179.3l5.4-0.6l1.6-0.6
			c1-0.2,2.3-0.6,3.8-1.3c0.9-0.4,1.7-0.8,2.5-1.3 M369.1,195.3l0.3-0.2l-0.3-0.1V195.3l-4.5,3.4l3.1,2.3l1.5-1.1l4.8-3.4v-0.3
			l0.3,0.1l7.2-5.1 M374.3,196.3l-0.3,0.2 M378,238.6l-0.2-1.1c0.1,0,0.1,0,0.2,0l0.3-38.9v-1.1l-0.4-0.1l-4,1.8l0.5,163 M378,197.2
			l0.4-0.1l4.6-2.1l3.6-1.8l1.4-0.7l0.2,0.1c1.8-0.8,3.5-1.6,5.1-2.1c1-0.4,2-0.8,2.9-1.1c-0.1-3.5-1-6.4-2.9-8.8
			c-1.6-2.1-3.4-3.3-5.6-3.7 M378.4,197.4v-0.2 M369.5,195.1l8.9-6.6 M371,171v3.2h5.5 M388.3,192.6l3.9,1.4l1.8-3.1l-0.6-0.5
			 M386.6,193.2c0.6-0.2,1.2-0.4,1.7-0.6 M383,195l7.2,2.3l2-3.2 M390.2,197.3l-1.7,2.6l-2.5-0.6l3.5,20.9l10.8,3.5l9-8.3l-2-28.2
			c-1.3-0.1-2.5-0.1-3.8,0.1c-1.7,0.2-4.2,0.9-7.3,2c0,0.1,0,0.2,0,0.4 M362.1,196.9l13.1-12.1 M360.1,174.6
			c3.2-0.6,6.8-0.7,10.9-0.4 M408.5,141.6c0.6,0.4,1.2,0.7,1.9,1c4.4,2,9.3,2.4,14.9,1.1c0.5-0.1,1-0.3,1.5-0.4c1.3-0.4,2.5-1,3.6-2
			 M431.5,144.1l-5.5,2.1l1.4,4.3c0.5,0.4,1,0.8,1.5,1.2l5-1.9 M425.2,143.8l0.8,2.4 M428.9,151.7c0.2,0.2,0.3,0.4,0.5,0.6l1.1,2.3
			c1.2,0.4,2.6,0.9,4.2,1.5c0.9,0.3,1.7,0.8,2.4,1.5 M430.5,154.6c-1.3,0.5-2.5,1.2-3.6,2.1c-1.2,0.8-2,1.3-2.5,1.5
			c1.3,2.7,2,5.4,2,8.1h0.5 M427.6,151.2l-0.2-0.8c-4.5-3.5-9.2-4.1-14.2-1.7c-1,0.5-2,1-3,1.8c-0.9,0.6-1.4,1.1-1.5,1.7l2.7,4.1
			c6.7-1,11-0.4,13,1.8 M426.4,166.2c2.4,2.4,3.9,4.7,4.5,6.8c0.5,2.1,0.5,3.9-0.1,5.1 M412.4,184.8l10.2-13.9l-17.2-2.6l-1.8-0.2
			 M405.4,168.3l5.2-3.1c-1.9-0.8-3.3-2-4.3-3.4l5.1-5.4 M411.5,185.9l-1.2,1.8c-1-0.2-2-0.3-3-0.4 M410.5,165.2
			c3.6,1.5,8.9,1.9,15.9,1.1 M413.1,148.8l-2.8-6.2 M403.5,187.4l9.1-13l-17.5-3 M358.2,96.2c5.7,6.7,11.3,10.5,16.8,11.3
			c5.5-0.8,11-4.6,16.7-11.3 M412.4,201.8l1.2,20.4c-6.4,4-10.9,7.4-13.3,10.1c-5-2.6-10.4-4.6-16-5.9l-5.9-27.9 M406.9,258.6
			l-1.9,2.2l0.2,13.4c0.4-1.1,0.9-1,1.5,0.2c0.1,0,0.3,0.1,0.4,0.1l0-1 M392.2,198.1l2.8,17.1l5.2,2.2l3.6-4.1l-1.6-18.4
			L392.2,198.1z M369.2,199.9v1.2l0.9-0.4l0.1-0.8 M370.1,200.8l3.9-1.7 M369.2,201.6v-0.4l-0.8,0.3L369.2,201.6l0,4.2l0.4,31.6
			l0.1,10.6 M367.8,201l0.7,0.5 M406.5,235.6c-4,0.5-8.1,0.8-12.2,1.1c-3.5,0.3-7.1,0.4-10.8,0.6c-0.1,0-0.3,0-0.4,0.1
			c-1.7,0-3.3,0.1-5,0.1v1.1 M369.6,237.4c-0.9,0-1.9,0-2.8,0c-8.2-0.3-16.2-0.9-23.8-1.8 M337.5,201.8l-1.2,20.4
			c6.4,4,10.8,7.4,13.3,10.1c5-2.6,10.3-4.6,15.9-5.9l3.7-20.6 M357.6,198.1l-2.8,17.1l-5.2,2.2l-3.6-4.1l1.5-18.4L357.6,198.1z
			 M342.5,273.5l0.1,1c0.1,0,0.2-0.1,0.4-0.1c0.5-1.2,1-1.3,1.4-0.2l0.1-13.4l-1.8-2.2 M366.5,274.2c-0.7,1.1-1.7,2.1-2.9,3
			c-4.7,3.4-11.1,2.4-19.2-3 M343,281.5c5.4,2.6,11.1,3.8,17,3.6c2.5-0.1,4.8-0.6,6.9-1.5 M343.3,287.5c4.8,3.2,10.3,4.6,16.5,4.2
			c2.6-0.2,5-0.7,7.3-1.7 M342.8,252.1c6.1-0.7,12.2-0.4,18.2,1c2.6,0.6,5,1.4,7.2,2.7 M406.6,281.5c-5.4,2.6-11.1,3.8-17,3.6
			c-2.5-0.1-4.8-0.6-6.9-1.5 M406.3,287.5c-4.8,3.2-10.3,4.6-16.4,4.2c-2.6-0.2-5-0.7-7.3-1.7 M406.9,252.1
			c-6.2-0.7-12.2-0.4-18.2,1c-2.6,0.6-5,1.4-7.2,2.7 M383.1,274.2c0.7,1.1,1.7,2.1,2.9,3c4.7,3.4,11.1,2.4,19.2-3 M344.5,260.9
			c5.4-2.1,12.9-1.7,22.4,1.2 M364,198.2l0.6,0.4 M387.1,345.8l0.8-0.6c0.4-0.7,0.8-1.3,1.4-1.8c1.5-1.4,2.8-2.2,4-2.4
			s2-0.2,2.3-0.1c3.2,1,5.6,2.9,7.2,5.6l0.6,0.5 M402.8,346.5l-2.9-2.7c-4-1.7-7.6-1.5-11,0.5l-1,0.9c-0.6,1.1-1,2.4-1.1,3.9
			l0.6-0.3c0.1-0.7,0.5-1.2,1.2-1.5c3.3-1.5,6.7-1.9,10.3-1l4.4,2.9c-0.2-1.5-0.3-2.3-0.3-2.3C402.9,346.7,402.9,346.6,402.8,346.5z
			 M346.9,346.5l2.9-2.7c4-1.7,7.6-1.5,11,0.5l1,0.9c-0.4-0.7-0.8-1.3-1.4-1.8c-1.5-1.4-2.8-2.2-4.1-2.4s-2-0.2-2.3-0.1
			C350.8,341.9,348.4,343.8,346.9,346.5c-0.1,0.1-0.2,0.2-0.2,0.4c0,0-0.1,0.8-0.3,2.3l4.4-2.9c3.6-0.9,7-0.6,10.3,1
			c0.7,0.4,1.1,0.9,1.2,1.5l0.7,0.3c-0.2-1.5-0.6-2.8-1.2-3.9l0.8,0.6 M363.5,349.2l-0.6-0.2c0,0.1,0,0.3,0.1,0.5
			c-0.1,2,0.2,3.7,1,5.1 M345.7,349.5l0.6-0.4c-0.1,0.8-0.2,1.8-0.3,3 M347,358.2c6-1.5,11.7-1.5,17.2,0 M403.9,349.5l-0.6-0.4
			c0.1,0.8,0.2,1.8,0.4,3 M386.1,349.2l0.6-0.2c0,0.1,0,0.3,0,0.5c0.1,2-0.3,3.7-1.1,5.1 M402.6,358.2c-6-1.5-11.7-1.5-17.2,0
			 M346.9,346.5l-0.6,0.5 M405,260.9c-5.4-2.1-12.9-1.7-22.4,1.2 M386,199.4l-7.7-2 M324.6,143.8c-0.5-0.1-1.1-0.3-1.6-0.4
			c-1.3-0.4-2.5-1-3.6-2 M318.3,144.1l5.6,2.1 M316,149.8l5.1,1.9 M312.8,157.6c0.7-0.7,1.6-1.2,2.5-1.5c1.5-0.6,2.9-1.1,4.1-1.5
			 M323,166.2h0.5c0-2.7,0.7-5.4,2-8.1 M339.4,165.2c-3.6,1.5-8.9,1.9-15.9,1.1c-2.4,2.4-3.9,4.7-4.4,6.8c-0.5,2.1-0.5,3.9,0.1,5.1"
			/>
	</g>
</g>
</svg>
