<?xml version="1.0" encoding="utf-8"?>
<!-- Generator: Adobe Illustrator 18.0.0, SVG Export Plug-In . SVG Version: 6.00 Build 0)  -->
<!DOCTYPE svg PUBLIC "-//W3C//DTD SVG 1.1//EN" "http://www.w3.org/Graphics/SVG/1.1/DTD/svg11.dtd">
<svg version="1.1" id="Layer_1" xmlns="http://www.w3.org/2000/svg" xmlns:xlink="http://www.w3.org/1999/xlink" x="0px" y="0px"
	 viewBox="-0.2 89.8 612.4 612.3" enable-background="new -0.2 89.8 612.4 612.3" xml:space="preserve">
<path fill="none" stroke="#000000" stroke-miterlimit="10" d="M306,90.3c-91.9,0-181.2,42.8-238.6,114.6
	C10.1,276.8-12.3,372.2,7.6,462c19.7,88.8,78.9,165.2,159.9,206.5c83.2,42.4,183.9,43.8,268.5,4.1c80.1-37.5,141.7-110.7,164.9-196
	c25-91.6,5.3-192.3-52.8-267.4C490.5,134.8,400.3,90.3,306,90.3z M306,619.7c-75.7,0-147.7-39.5-188.5-103.2
	c-41.4-64.7-46.4-148.5-13-217.7c32.7-67.6,98.9-115.4,173.4-124.7c75.8-9.5,152.6,21.1,201,80.1c48.6,59.2,63.6,141.5,38.8,214.1
	C487.3,557.7,400.4,619.7,306,619.7z"/>
<g id="XMLID_4_">
	<g>
		<path fill="none" stroke="#000000" stroke-miterlimit="10" d="M466,274.2c-2.3,5.2-1.9,10.9-2.5,16.4c-0.6,4.8,4.5,6.3,8.3,8.7
			c10.1,6.3,20.1,13.2,23.6,25.2c3.3,11.6,1.2,23.8-0.2,35.5c-0.8,6.4-1.5,12.9-1.1,19.3c0.4,6.9,3,13.1,4.5,19.8
			c2.9,12.9-5.8,19.9-10.1,31.1c-4.4,11.4-6.4,23.8-12.9,34.4c-6.1,10-15.9,15.1-24.9,22.1c-8.9,6.9-12.5,20.7-22.5,25.8
			c5.3,6.2,13.2,5.7,20.4,7.3c1.5,0.4,4.7,0.6,4.6,2.8c-0.1,3-0.5,4.8,3,5.5c-3.9,16.4,1.9,33.5-12.2,45.9
			c-5.2,4.6-5.6,12.2-10.7,16.9c-1.9,1.8-4.1,3.5-5.2,5.9c-1.6,3.7-0.5,6.8-3.1,10.3c-2.1,2.8-4.8,5-7.3,7.4c-4.6,4.4-3.7,2-9.2,2.1
			c-3.7,0-5.2,5.4-7.4,7.6c-1.6,1.6-7.6,0.7-7.9,1.6c-0.8,2.2,0.2,3.7-2.6,4.6c-3.9,1.2-7.9,2.2-11.9,3.1c-8,1.9-16,3.4-24.1,4.8
			c-6.6,1.2-13.7,4-20.4,3.1c-2.7-0.5-4.2-1.7-7.1-1.3c-3.6,0.5-7.3,0.8-10.9,0.9c-16.9,0.7-33.6-2.2-50.2-4.9
			c-7.4-1.2-12.9-2.6-19.7-5.6c-5.4-2.4-16.5-0.2-20.2-4.7c-1.3-1.6-2.1-3.5-2.4-5.5c-2.6,0-5.2,0-7.7,0c-2.2-4-2.1-5.8-7-5.9
			c-3.8-0.1-1.9-8.3-8.5-6.8c0-1.3,0-2.6,0-3.9c-11-4-12.8-16.8-20.6-24c-2.7-2.5-5.2-7.6-4.7-11.6c0.9-6.2-4.6-2.2-5-7.1
			c-0.7-8.9,2.2-17.7,6-25.6c1-2,11.8-16.4,10.9-17.7c-13.1-15.7-36.3-14.5-52.1-26.2c-9.7-7.2-11.2-16.7-13.1-28
			c-1.9-11.6-7.4-20.6-14.1-30.1c-5.5-7.9-11.2-16.1-13.7-25.6c-3.3-12.6-0.5-26.1,2-38.6c4.9-24.8,13.3-49.3,24.5-72
			c5-10.3,10.6-20.8,17.5-29.9c3.3-4.4,7.2-7.9,11.8-10.9c6.7-4.4,11.4-5,19.5-4.2c10.3,1,24.7,4.3,32.2-5c8-9.9,15-20.4,23.4-30
			c16.2-18.5,38.4-24.7,62.1-28.6c25.5-4.2,52-1.9,76.8,5.2c13.9,4,28,7.8,41.8,12.1c12.5,3.9,21.5,8.2,24.8,21.8
			c3.3,13.3,2.3,28.7,9.6,40.8C444.1,274.8,461.1,285,466,274.2c-0.5,1.1-1,2.3-1.5,3.4C465,276.5,465.5,275.3,466,274.2
			C463.7,279.4,465,276.4,466,274.2z"/>
		<path fill="none" stroke="#000000" stroke-miterlimit="10" d="M280,235.5c0.7-10.4,19.4-12.5,26.2-8.7c7.5,9.1,3,23.1,8.7,33
			c2.3-1.6,0.3-5.7,1.9-7.7c5.4,8.2,4.3,19.5,10.7,27.1c0.4-1.1,3-17.2,4.7-16.1c1.2,0.7,1.5,2.4,3,2.6c0.1-5.6-1.7-10.9-1.9-16.5
			c0.9,0.6,1.8,1,2.9,1c-0.6-5.9,1.5-11.6,1-17.5c4.9,7,7.6,15.9,14.5,21.3c1.2-3.7,2.5-3.7,5.8-1.9c0-4.2,0-8.4,0-12.6
			c1.1,1.5,17.6,21.9,19.3,17.3c0.9-2.4-0.5-5.2,0.1-7.7c6.8,8.8,18.6,12.6,23.3,23.3c-2.4-1.6-5.6-1.8-7.7-3.9
			c-0.3,5.4,2.8,9.5,3.9,14.5c-5.1-1.9-9.7-4.9-14.2-7.9c-1.1-0.8-10.4-8.1-10.1-3.8c0.1,1,0.8,4-1.3,3c-1-0.5-0.7-1.9-1.4-2.6
			c-2.7-2.5-1.9,7.7-2.1,8.4c-4.1-2.5-7.8-5.7-11.7-8.7c-3.5,7.1-1.4,16.1,1,23.3c-7.3-4.2-10.9-12.4-17.5-17.5
			c-1.3,10,1.2,18.8,6.8,27.1c-7.6-2.7-12.5-8.9-16.5-15.5c-2.5,8.7,1.8,18,7.7,24.2c-15.6-5.4-22.6-21.5-25.8-36.5
			c-2.6-11.8,1-48-18-46.9C288.4,230,283.3,231.5,280,235.5C280.4,228.5,283.6,231.2,280,235.5C280.3,230.9,283.6,231.2,280,235.5z"
			/>
		<path fill="none" stroke="#000000" stroke-miterlimit="10" d="M256.8,470.9c-0.7-3.2,2.3-3.2,2.9-5.8c2.5,0.6-0.7,3.9,2.9,3.9
			c0.7,0,1-0.3,1-1c2.9,0,5.8,0,8.7,0C272.1,469.1,258.2,470.9,256.8,470.9C255.9,467.1,260.2,470.8,256.8,470.9
			C256.1,467.7,260.2,470.8,256.8,470.9z"/>
		<path fill="none" stroke="#000000" stroke-miterlimit="10" d="M302.3,455.4c2.3-2.2,8.7-0.4,12.6-1
			C312.6,456.6,306.2,454.8,302.3,455.4z"/>
		<path fill="none" stroke="#000000" stroke-miterlimit="10" d="M300.3,454.4C289.6,457.4,287.4,453.2,300.3,454.4L300.3,454.4z"/>
		<path fill="none" stroke="#000000" stroke-miterlimit="10" d="M337.2,453.4c-9.4,2.4-29.9,0.2-10.7,0
			C330.7,453.4,333.9,453.5,337.2,453.4z"/>
		<path fill="none" stroke="#000000" stroke-miterlimit="10" d="M287.7,455.4c-0.3,1.8-21.9,4.9-8.7,1
			C280.6,455.9,284.4,455.6,287.7,455.4z"/>
		<path fill="none" stroke="#000000" stroke-miterlimit="10" d="M358.5,473.8c1.7-1,6.3-2.8,7-5c0.8-2.6-8.7-8.6-10.4-9.4
			c-5-2.4-10.5-3.4-16-4c10.5-1.3,26,4.3,29.1,15.5c-15.4,10.6-35.9,14.1-54.2,14.9c-19.2,0.8-39.5-2-56.3-12.1
			c15.7,6.8,32.9,10,49.9,10.7C326.5,485.2,341.3,480.8,358.5,473.8C360.2,472.8,351.9,476.5,358.5,473.8z"/>
		<path fill="none" stroke="#000000" stroke-miterlimit="10" d="M321.6,445.7c1.7,0.4,7-1.4,7.7,1c-5.7,0-11.2,1.8-16.9,1.6
			c-6.9-0.3-13.7-2-20.6-1.6c-13.9,0.8-24.8,10.1-35.2,18.3c6.8-9.1,17.5-15,28.4-17.8c3.5-0.9,36.9-1.5,37-1.3c0,0.6-2.5,1.2-3,1.1
			C318.5,446.9,322.9,445.2,321.6,445.7C323.3,446.1,314.6,448.5,321.6,445.7z"/>
		<path fill="none" stroke="#000000" stroke-miterlimit="10" d="M252.9,370.1c2.2-0.3,3.7,0.2,4.9,1
			C258,373.6,251.2,374.4,252.9,370.1z"/>
		<path fill="none" stroke="#000000" stroke-miterlimit="10" d="M260.6,412.7c-5.3,18.3-31.3,24.2-34.9,47.5
			C227.1,438,249.9,428.8,260.6,412.7z"/>
		<path fill="none" stroke="#000000" stroke-miterlimit="10" d="M358.5,405c4.5-0.1,6.9,5.7,8.4,9.1c2.2,4.9,4.7,9.6,8.4,13.4
			c9.9,10.1,23.1,13.8,20.9,30.8c0.5-11.9-8.5-19.2-17.1-25.7c-4.4-3.3-8.6-7.1-11-12.2C365.5,415.1,364.1,408.2,358.5,405
			C365,404.9,365.6,409.2,358.5,405C363.7,404.9,365.6,409.2,358.5,405z"/>
		<path fill="none" stroke="#000000" stroke-miterlimit="10" d="M285.3,393.2c2.3,3.1-7.5,7.4-9.2,8.7c-1.9,1.5-3.4,7.8-4,9.9
			c-0.9,3.1,0.3,6.8,3.5,8c5.3,2,11.4-1.3,17.2,0.7c6.8,2.5,12.4,7.4,20,7.2c7.9-0.2,14.8-4.1,22-6.9c2.7-1,7.2-3.3,10-1.9
			c1.7,0.9,4,3.9,6.2,2.8c6-3,9-10.1,4-15.4c-3.7-4-9.8-5.6-13-10.2c10.9,1.6,24.5,18.4,12.2,27.1c-3.8,2.7-5.9,1-10,0.3
			c-4.6-0.9-9.1-0.1-13.4,1.7c-8.3,3.4-15.5,8.1-24.8,5.7c-7.4-1.9-12.7-7.5-20.5-7.5c-7.8-0.2-15.5-2.5-15.1-11.6
			C270.5,403,278.2,397,285.3,393.2c1.6,2.2-4.5,3.4-4.5,3.1C280.7,395.2,284.8,393.5,285.3,393.2
			C287.4,396,274.2,399.1,285.3,393.2z"/>
		<path fill="none" stroke="#000000" stroke-miterlimit="10" d="M339.1,383.7c12.9,2.2,32.7,10.3,50.4,7.7
			C372.2,396.8,352.3,388.7,339.1,383.7z"/>
		<path fill="none" stroke="#000000" stroke-miterlimit="10" d="M287.7,376.9c1.3,0.6-2.5,6-3.5,6.3c-6.3,1.8-12.7,3.6-19,5.5
			c-13.2,3.9-26.3,7.9-39.5,11.5c12-5,24.5-8.6,37-12.2c5.6-1.6,11.2-3.2,16.8-4.9c2.3-0.7,4.3-1.2,6-3.1
			C286.3,379.1,287,378,287.7,376.9c0.9,0.3,1,0.7,0.4,1.1C287.4,378,287.3,377.6,287.7,376.9C289,377.5,286.6,378.7,287.7,376.9z"
			/>
		<path fill="none" stroke="#000000" stroke-miterlimit="10" d="M229.8,378.9c-0.6,0.4-1,0.9-1.1,1.8
			C229,380.1,229.4,379.5,229.8,378.9z"/>
		<path fill="none" stroke="#000000" stroke-miterlimit="10" d="M229.8,378.9c10.4-14,37.3-11.4,50.2-3c-2.6,2.9-10.7,0.6-12.8,2.1
			c1.3-0.9,3.6-1.3,5.1-1.2c-1.5-2.9-4.8-4.1-7.7-4.9c-0.8,2.2-2.5,3.9-4.6,4.9c-3.4,1.6-14.7,2.9-12.8-3.9c-3,0.2-6.1,0.8-8.8,2.1
			c-4.2,2-2.2,2.3,1,2.8C239.5,379.5,231.2,378.1,229.8,378.9C238.7,367,232.7,377.2,229.8,378.9
			C240.2,364.9,232.7,377.2,229.8,378.9z"/>
		<path fill="none" stroke="#000000" stroke-miterlimit="10" d="M392.4,376.9c-3.4,3.1-8.7-1.1-12.6,0c6.2-2.7-6.1-6.5-7.7-7.7
			c-0.1,5.9-7.1,7.5-11.7,5.8c-2-0.7-4.7-5-5.8-4.8c-3.3,0.5-4.3,4.5-7.7,4.8c0.3,1.3,7.1,1.1,5.3,2.4c-2.5,1.7-6.6,0.2-9.1-0.5
			C354.2,360.6,378.8,368.8,392.4,376.9c-1.4,1.3-6.6-0.8-6.6-2.8C385.7,373.2,392.3,376.8,392.4,376.9
			C389.3,379.7,379.1,369,392.4,376.9z"/>
		<path fill="none" stroke="#000000" stroke-miterlimit="10" d="M274.2,369.2c-5.9,0.9-22.8-8.2-35.8-1
			C244,362.8,266.4,363.3,274.2,369.2z"/>
		<path fill="none" stroke="#000000" stroke-miterlimit="10" d="M364.3,363.3c-4.9,1.9-13,0.6-16.5,3.9
			C348.1,364.4,359.3,361.8,364.3,363.3z"/>
		<path fill="none" stroke="#000000" stroke-miterlimit="10" d="M291.6,359.5c0.4,0.9,7.2,1,6.8,5.8c-0.9-0.1-1.7,0.1-1.9,1
			C294.6,364.2,294.4,360.6,291.6,359.5C290.7,357.4,294.4,360.6,291.6,359.5C291,358.2,294.4,360.6,291.6,359.5z"/>
		<path fill="none" stroke="#000000" stroke-miterlimit="10" d="M287.7,347.9c-19.8,2.3-57.7-12.5-70.7,9.7
			c-1.4-5.1,7.2-14.3,11.6-15.4c9.6-2.5,19-5.5,28.8-7.2C269,332.9,285.6,333,287.7,347.9c-5.2,0.6-13-2.3-9.1-8.9
			C283.2,331.3,287.3,344.9,287.7,347.9C275,349.4,284,322,287.7,347.9z"/>
		<path fill="none" stroke="#000000" stroke-miterlimit="10" d="M330.4,346.9c1-4.1,4.1-12.8,9.3-12.4c9.5,0.5,19,0.9,28.4,2.2
			c12.1,1.7,26.2,5.5,31.2,18c-17.6-10-44.8-11-63-1.9C334.7,350.3,331.6,349.5,330.4,346.9C331.6,341.6,331.6,349.5,330.4,346.9
			C331.3,343,331.6,349.5,330.4,346.9z"/>
		<path fill="none" stroke="#000000" stroke-miterlimit="10" d="M350.8,489.3c-13.5,6.4-29.1,6.9-43.8,6.4
			c-12.7-0.4-27.1-1.5-37.7-9.3c5.8,9.3,23.5,10,33,9.7c-7.4,1-14.1,5-21.6,5.5c-8.7,0.6-12.5-6.3-19-10.6c-3-2-6.8-1.3-9.6-4
			c-2.5-2.4-4.6-5.4-6-8.5c-3.1-6.7-2.6-14.5,3.8-19c9.5-6.7,22.4-10.7,33.1-15.2c12.1-5.1,25.6-0.5,38.4-2.2
			c13.7-1.8,23.2-0.1,34.9,7.4c8.1,5.1,20.4,11,20.9,22c0.4,11.2-10.1,19.7-19,24.5c-11.3,6.2-24.5,7.8-35.6,0.3
			C331.7,496.1,344.5,497.6,350.8,489.3c-0.5,0.2-10.6,4.9-9.9,5.9C342.2,497.1,350.1,490.2,350.8,489.3
			C338.3,495.2,345.7,496,350.8,489.3z"/>
		<path fill="none" stroke="#000000" stroke-miterlimit="10" d="M189.8,477.2c-0.3-3.6-0.5-7.1-0.8-10.2
			C189.9,470.9,190.2,474.3,189.8,477.2z"/>
		<path fill="none" stroke="#000000" stroke-miterlimit="10" d="M189.8,477.2c-1,7.1-6.6,12.9-14.1,11.9
			c-5.7-0.8-10.1-5.3-12.4-10.4c-1.4-3.2,7.4-10.3,9.1-12.1c4.7-4.8,9.4-9.5,13.2-15c3.7-5.4,0.8-10.4,0-16.4
			c-1.1-8,0.5-14.7,4-21.8c6.5-13,0.4-24.2,0.4-37.7c0.1-12.6,6.2-26.4,14.1-36c3.4-4.2,8.3-7.9,9.8-13.3c1.8-6.4,0.8-13.3-0.6-19.7
			c-2.8-12.5-7.7-26.5,1.4-37.6c8.8-10.8,24.1-15.4,37.1-18.2c10.1-2.2,29.2-7.2,39-1.3c9.5,5.7,11.8,16.8,13.6,26.9
			c1.9,11,4,21.1,12.2,29.3c18.3,18.3,49.7,26,74.8,24.8c3.4-0.2,12-3.1,14.8-1c5.1,3.9,8.3,12,10.5,17.8c2.3,6.1,4.4,12.5,5.6,18.9
			c1.4,7.6-0.8,14.8-0.5,22.4c0.4,13.7,10.4,27,6.2,41c-0.4,1.4-10.8,20.1-9.4,20.3c2.9,0.5,12.5-6.2,13.9-2.1
			c1.8,5.2,1.1,13.1-0.5,18.3c-0.8,2.5-2,4.9-4.1,6.6c-2,1.6-6.9,1.3-7.6,3.8c-2,8.7-5,17-7.3,25.6c-5.1-9.7-16.3-13.9-22.2-23
			c-6-9.4-6.6-20.3-17.2-26.2c-6-3.4-11.4-6.4-15.5-12.2c-3.2-4.6-5.8-9.6-11.4-11.5c-9.5-3.2-22,1.3-29.8,6.7
			c-5.5,3.8-10.4-1.9-15.7-4.3c-5.7-2.5-12.2-4.5-18.4-3.5c-11.4,1.9-22.9,14.8-31.7,21.7c-5.1,4-10.6,8.1-14.6,13.3
			c-3.5,4.5-5.3,10-9,14.3c-2.2,2.5-9.2,4.9-9.2,8.7c0,7.4-7.1,9.4-9.8,15.3c-5.5-11.6-8-24.3-13.6-35.8c-1,12.8,17.4,28.1,9.5,40.7
			c-0.7,1-8.5,5.3-8.5,5.5c0.2,1.4,2.6,2.6,2.1,4c-0.9,2.8-3.6-0.8-4.1-1.9c-2.2-5.4-1.3-12-2.1-17.7
			C191,490,190.2,483.6,189.8,477.2C187.7,492.2,190.2,484.2,189.8,477.2C188.8,484.3,190.2,484.2,189.8,477.2z"/>
		<path fill="none" stroke="#000000" stroke-miterlimit="10" d="M363.3,369.1c2.2-0.3,3.7,0.2,4.9,1
			C368.5,372.6,361.6,373.5,363.3,369.1z"/>
	</g>
</g>
<path fill="none" stroke="#000000" stroke-miterlimit="10" d="M256.8,465.1c8.3-4.1,16.9-8,26-9.9c9.6-2,19.4-0.3,29.2-0.7
	c9.6-0.4,19-2,28.6-0.9c5.1,0.5,20.5,3.1,20.5,10c-4-5.8-14.1-7.1-20.4-7.7c-9.8-0.9-19.9,1.9-29.6,0.7
	c-18.5-2.1-37.6,2.9-54.3,10.6C256.7,466.5,256.7,465.8,256.8,465.1C265,461,256.7,465.8,256.8,465.1z"/>
<path fill="none" stroke="#000000" stroke-miterlimit="10" d="M339.1,467.1c9.5-0.2,18.8-0.1,28.2,1.4c-2,3.9-10.8,1.2-14.5,0.9
	c-7.2-0.5-14.5,0-21.5-1.8C333.9,467.4,336.5,467.3,339.1,467.1C348.6,466.9,336.5,467.3,339.1,467.1z"/>
<path fill="none" stroke="#000000" stroke-miterlimit="10" d="M258.7,470.5c11.4-1.1,23.9,0,35-2.9c-12-0.7-24-0.9-35.9,0.9"/>
<path fill="none" stroke="#000000" stroke-miterlimit="10" d="M105.4,194.8c2-2,4.6-3.2,7.4-3.2c-2.6-1.9,0.4-4.3,2.3-2
	c1.9,2.3,5.2,3.8,6.4,6.7c0.9,2.2-1.8,2.6-3.1,1.6c-1.3-0.9-1.9-2.5-3.6-3.1c-4.4-1.7-10.1,3.3-9.5,7.8c1.3,10.8,17.5-4.4,23-1.3
	c10.5,5.8,2.2,20.2-7.6,20.3c0.7,0.7,2.3,1.4,1.9,2.7c-1.3,4.2-13.3-7.5-11-9.6c1.9-1.9,4.7,2.4,6.1,3.1c3.7,1.9,7.7,0,10.2-2.9
	c2.7-3.3,2.6-9.8-2.8-10.4c-3.4-0.4-6.7,3.1-9.5,4.8C105.2,215.6,97.4,202.8,105.4,194.8C107.6,192.7,103.2,197.1,105.4,194.8
	C107.4,192.8,103.2,197.1,105.4,194.8z"/>
<path fill="none" stroke="#000000" stroke-miterlimit="10" d="M168.2,185.7c-1.7,1.2-4,1.5-5.7,0c0.1,6-7.9,11.8-13.2,8
	c-8.1-5.8,2-11.6,4.9-16.1c1.7-2.7-1.6-5.7-4.3-5.1c-1.3,0.3-6.6,3.6-5,5.6c0.4,0.8,2.1,0.3,2.4,1.9c0.3,1.3-0.9,2.5-2.1,2.8
	c-4.2,0.9-4.1-5-3-7.4c2.6-5.5,10.1-8.5,14.5-3.4c0.5,0.6,11.2,14.7,10.7,9.9c-0.2-1.6-2.9-3.4-2.6-5c0.5-3.4,3.7,0.7,4.3,1.6
	C170.9,181.1,171.1,183.7,168.2,185.7C166.2,187.1,170.8,183.8,168.2,185.7C166.4,187,170.8,183.8,168.2,185.7z M158.6,181.1
	c-0.6-0.9-1.3-1.8-1.9-2.7c-0.9,3.8-10.2,8.2-5.2,12.2C156.6,194.8,161.7,185.4,158.6,181.1C158,180.2,161.7,185.4,158.6,181.1z"/>
<path fill="none" stroke="#000000" stroke-miterlimit="10" d="M183.7,154.4c3.9,4,7.8,7.9,11.7,11.9c-0.5-4.7,0.6-13.3-1.9-17.5
	c-0.7-1.5-5.5,3.2-5.1-0.8c0.2-1.4,7.9-4.7,9.5-5.3c4.6-1.6-0.8,4.9-0.8,6c0,8.5,6.7,31.4-6.9,33.6c-2.7,0.4-7.1-1.3-5.9-4.8
	c1.4-4.1,6.9-0.9,4.4,1.4c3,1.7,5.6-2.5,6.2-4.8c1-3.3-1.4-5.4-3.6-7.4c-3.7-3.4-7.4-6.9-11.1-10.3c-1.5-1.4-6.8,1.5-6.4-1.4
	c0.3-1.9,9.2-5.8,10.9-6C188.4,148.6,182.6,153.3,183.7,154.4C187.6,158.4,181.9,152.6,183.7,154.4z"/>
<path fill="none" stroke="#000000" stroke-miterlimit="10" d="M251.2,124.6c-1-5.2-6.1-0.4-6.8-3.6c-0.5-2.3,11.8-4.2,13.5-4.2
	c1.3-0.2,3.3,0.7,2.1,2.4c-0.9,1.6-3.5,0.1-4.6,1.7c-1.8,2.6,1.8,22.3,4.7,24.1c1.3,0.9,6.2-2,5.4,1.6c-0.4,2-11.4,2.8-13.1,3.4
	c-5.7,1.9,2.3-5,2.4-5.9C255.1,137.9,252.4,130.5,251.2,124.6C250.2,119.4,252,128.5,251.2,124.6z"/>
<path fill="none" stroke="#000000" stroke-miterlimit="10" d="M296.2,137.8c-0.1-1.5-0.8-6,2.1-4.9c2.4,0.9,1.1,7.4,0.2,9.1
	c-1.7,3.1-6.8,4-9.7,2.2c-3.8-2.3-3-9-3.2-12.7c-0.1-1.3,0.4-4.8-0.6-6c-1.2-1.3-3.6,0.5-4-2c0-2.7,2.9-0.9,3.8-2.4
	c0.8-1.5,0-3.5,0-5.1c-0.2-2.9,3.4-2.5,3.5,0.3c0.7,7.2,1.8,2.8,7.2,4.8c1.3,0.5,1.1,2.6-0.1,3.1c-1.7,0.7-6.6-0.9-6.5,2.1
	c0.3,4-0.6,10.4,1.5,14C292.4,143.9,296.2,140.9,296.2,137.8C296.1,136.3,296.2,140.9,296.2,137.8z"/>
<path fill="none" stroke="#000000" stroke-miterlimit="10" d="M354.7,141.8c-1.3,6.2,12.9,8.3,14,2.5c0.3-1.5,0.2-3.5,1-4.8
	c1.1-1.7,3.5-0.1,3.1,1.6c-0.5,2.7-1,7.7-2.4,9.9c-1.9,2.9-21.2-3.3-24.4-3.8c-1.4-0.2-3.8-2.7-1.3-3.3c2.2-0.6,4.3,2.4,5.6-1
	c2-5.1,5.4-16.4,4.2-21.8c-0.6-2.6-3.6-0.9-4.9-2.5c-2.1-3.6,16.1-1.3,15.5,2c-0.7,2.9-4.5-0.9-6.1,1.3
	C355.7,126.4,355.7,136.3,354.7,141.8C353.8,146.1,354.9,140.7,354.7,141.8z"/>
<path fill="none" stroke="#000000" stroke-miterlimit="10" d="M399.8,163.3c-16.1-6.6-5.3-36.1,11.1-31.2
	C429.7,137.6,417.1,170.3,399.8,163.3C395.9,161.7,403.6,164.8,399.8,163.3C383.7,156.7,403.6,164.8,399.8,163.3z M410.9,135.6
	c-12.1-4.8-21.9,19.8-9.9,24.6C412.9,165,423.1,140.6,410.9,135.6C408.2,134.5,413.8,136.8,410.9,135.6
	C398.8,130.8,413.8,136.8,410.9,135.6z"/>
<path fill="none" stroke="#000000" stroke-miterlimit="10" d="M448.7,159.8c-3.8,6-15.4,17.4-4.9,22.8c4.1,2.1,7.4-0.3,9.6-3.8
	c2.5-4,7.8-9.4,8.6-14.1c0.3-2.1-1.6-2.3-2.9-3.3c-2.3-1.5,0.8-3.3,2.7-2c1.3,0.7,12.3,6.7,8.7,8.5c-1.4,0.7-2.4-1.3-3.8-1.2
	c-3.9,0.4-7.6,10.4-9.6,13.3c-3.6,5.2-8.4,8.6-14.7,5.3c-4.1-2.1-8.2-6-7.4-11c0.6-4.8,13.8-16.4,11.3-20.8
	c-0.6-1.1-2.7-1.1-2.7-2.7c0.1-3.6,14.6,5,13.2,7.4C455.3,160.5,451.7,155.5,448.7,159.8C446.2,163.7,449.6,158.5,448.7,159.8z"/>
<path fill="none" stroke="#000000" stroke-miterlimit="10" d="M489.6,188.5c1.9-1.9-2.7-9.3,0.5-8c2.1,0.8,3.9,4,5.5,5.4
	c2.5,2.2,5.3,4.2,7.5,6.8c10.8,12.7-8.1,32.5-21.4,22.7c-2-1.4-14.4-12.4-12.7-14.1c2.2-2.2,4.1,4.3,7.7,0.7
	C481.4,197.9,485.3,193,489.6,188.5C492.1,185.9,485.3,193,489.6,188.5z M492.8,190.9c-2.2,2.4-16.8,14-13.5,18
	c2.5,2.9,6.2,6.3,10.3,5.8c8-0.9,17-11.6,11.6-19.3C499.5,193,495.7,187.8,492.8,190.9C490.2,193.7,495.7,187.8,492.8,190.9z"/>
<path fill="none" stroke="#000000" stroke-miterlimit="10" d="M53.9,402.8c4.7,0,1.3-3.2,3.3-5.1c3.1-3.1,3.6,16.8,0,13.5
	c-1.2-1.2,0.5-3.1-0.7-4.3c-2-2.1-19.8-2.2-21.9-0.1c0,0-1.1,8.1-3,3.9c-0.8-1.9-0.5-14.6,2.1-13.4c1.1,0.5,0.4,2.4,0.4,3.2
	C34,404.3,51.1,402.7,53.9,402.8C58.6,402.8,51.1,402.7,53.9,402.8z"/>
<path fill="none" stroke="#000000" stroke-miterlimit="10" d="M56.2,430.2c1.2-0.2,0.2-3.7,2.8-4.1c3.4-0.2,3.9,4.2,1.4,5.7
	c-2.8,1.6-6.6,0.2-9.1-1.3c-0.4-0.3-2.6-2.2-0.7-2.4C52.4,428.2,54,430.5,56.2,430.2C57.4,430,54,430.5,56.2,430.2z"/>
<path fill="none" stroke="#000000" stroke-miterlimit="10" d="M56,455.2c-0.4,0-0.8,0.2-1.1,0.3c4.4,2.1,6.7,8,2.9,11.8
	c4.6,2.1,6.9,9,3.1,12.9c-2.7,2.9-7.7,3-11.4,3.8c-1,0.2-3.2,0.6-3.6,1.8c0,0.1,0.8,6.4-1.7,3.2c-0.9-1.2-3.7-11.5-0.5-10.8
	c1.6,0.4,0.1,3.2,1.9,3.2c2.9,0,5.6-1.2,8.3-1.9c4-1,8.1-3.9,5.1-8.3c-2.6-4-12.2-0.5-15.5,1c-2.1,0.9,1.4,3.5-1.2,4.2
	c-1.7,0.4-4.4-9.4-3.3-10.4c2.3-2.3,1.7,2.6,3.3,2.8c3.4,0.4,8.5-1.5,11.6-2.8c4-1.6,3.8-7.1-0.2-8.7c-2.8-1.2-11.7,0.3-14,2.6
	c-0.9,1,1.3,2.3,0.1,3.5c-2.3,2.3-4.1-7.5-4.5-9c-1.2-4.5,4.5,1.8,5.1,1.7c3.8-0.2,8.7-1.9,12.3-3.2c2.2-0.8,0-2.5,0.2-4
	c0.1-0.8,1.1-1.2,1.8-1C55.9,448.3,57.5,454.8,56,455.2C55.6,455.2,57.5,454.8,56,455.2z"/>
<path fill="none" stroke="#000000" stroke-miterlimit="10" d="M90.7,538.6c-2.6,1.5-5.4,0.6-7.6-1.3c1.2,5.4-2.2,11.2-8.6,9.8
	c-6.3-1.4-11.1-11.9-13.4-17.3c-1.7-1.7,0.8-4.3,1.9-2.3c1.1,2.2,1.8,3.7,4.5,2.2c4.1-2.5,8.4-4.6,12.6-7c1.3-0.8,3.8-1.6,3.5-3.6
	c-0.1-1.1-2.1-3.5-0.5-4.3C84.1,514.2,99.7,533.8,90.7,538.6C88.2,540,92.6,537.6,90.7,538.6C88.1,540.1,92.6,537.6,90.7,538.6z
	 M74,529.7c-1.8,1-5.2,2.2-6.3,4.1c-1.7,3,4.2,9.6,7.1,10c5.3,0.7,7-4.7,5.2-8.7C78.9,532.7,77.1,527.9,74,529.7
	C72.2,530.7,77.1,527.9,74,529.7z M81.4,525.6c-3.1,1.7-2,3.1-0.5,5.6c1.6,2.8,4.3,6.3,7.9,4.3c4.3-2.4,1-7.5-1-10.3
	C85.9,522.5,83.6,524.3,81.4,525.6C78.3,527.3,83.6,524.3,81.4,525.6z"/>
<path fill="none" stroke="#000000" stroke-miterlimit="10" d="M103.8,555.9c2.6-2,1.1-3-0.3-5c-2-2.5,3-0.6,4.2,1.1
	c2.9,4.4,6.4,8.8,10.1,12.5c3.4,3.4-3.5,7.2-6,9c-2.1,1.6-2.9-1.6-1.4-2.8c2.4-2.5,5.2-3.9,2.6-7.6c-2.4-3.4-4.2-6.7-8.1-3.6
	c-0.9,0.7-2.4,1.6-3,2.5c-0.7,1.2,2,3.9,3,4.2c2.1,0.7,3-3.3,5-2.5c3.1,1.2-9.5,12-11.2,9.9c-1.9-2.4,5.1-3.4,2-7.4
	c-2.3-3-4.6,0.2-6.8,2c-1.9,1.6-3.3,2.5-1.5,4.9c1.3,2,3.8,6,6.5,6.2c1.6,0.1,7.5-5.7,8-2.2c0.2,1.7-7.5,7.6-9,6.9
	c-1.8-0.9-3.5-4.4-4.7-6c-2.8-3.8-5.6-7.6-8.9-11c-4.5-4.5,5.8-0.1,4.7,0.1C93.5,566.6,100.3,558.7,103.8,555.9
	C106.4,553.9,99.5,559.3,103.8,555.9z"/>
<path fill="none" stroke="#000000" stroke-miterlimit="10" d="M129.4,609.4c0.8-2,2.7-4.5,0.8-6.2c-1.5-1.4-3.3-3.9-5.2-4.7
	c-1.2-1-7.1,1.2-6.9,3.2c0.2,1.7,4.7,2.7,2.8,4.8c-1.5,1.6-8.8-6.2-10-7.2c-3.4-3.1,5.9-1.3,6.4-1.6c6.5-3.3,13-6.6,19.4-10
	c2.4-1.2,5.5,0.4,4.3,3.4c-2.5,5.8-4.8,11.8-7.2,17.6c-0.6,1.4-2,3.8-1.8,5.5c0.2,1.6,3.9,2.7,2.4,4.5c-1.4,1.5-8-5.7-9.6-6.9
	c-1.2-0.9-2.5-4.4,0.1-3.4C126.3,608.6,128.4,612.5,129.4,609.4C130.2,607.4,128.4,612.5,129.4,609.4z M133,601.1
	c1.7-3.7,3.3-7.3,5-11c-3.4,1.9-6.7,3.7-10.1,5.6C125.5,597,132.6,601.6,133,601.1C134.7,597.4,132.6,601.6,133,601.1z"/>
<path fill="none" stroke="#000000" stroke-miterlimit="10" d="M172.6,627.7c-1.1-0.1-2.1-0.4-3.1-0.8c2.6,2.5,1.5,5.1,0,7.7
	c-0.4,0.7-3.6,7,0.2,5.7c2.2-0.7,3.4-6.2,5.5-6c2.2,0.1,1.3,2.3,0.6,3.3c-1.5,3-4.1,6.8-7.9,5.4c-9.7-3.5,5.1-12.4-3.1-17.5
	c-2.7-1.8-3.9-3.1-5.9,0.1c-0.8,1.3-1.7,2.6-2.5,4c-2,3.4,2.4,2.7,2.8,5c0.9,4.3-15.6-6.4-11.4-7.4c1.7-0.4,2.4,2.5,4.3,1.7
	c3.9-1.6,7.3-10.3,9.6-13.8c1.3-2,3.4-4.7,0.2-6.2c-2.6-1.3-0.4-4.1,1.5-2.1c4.7,2.6,17.3,8.3,16.2,15
	C179.1,625.1,176.1,628.2,172.6,627.7C171.7,627.6,174.9,628,172.6,627.7C171.5,627.6,174.9,628,172.6,627.7z M163.1,621.2
	c2.3,1.5,4.7,3.5,7.4,4c4,0.8,7.2-4,4.7-7.3c-1.6-2.1-7.1-6.5-9.4-3.2C164.9,616.2,161.3,620.1,163.1,621.2
	C165.4,622.7,161.3,620.1,163.1,621.2z"/>
<path fill="none" stroke="#000000" stroke-miterlimit="10" d="M199.2,634.2c1.3-2.9-0.3-3.4-2.7-4.3c-2.2-1,0.3-3.1,2.3-1.9
	c3.9,2.3,8.2,3.1,12.2,5.1c13.6,6.8,5.1,30.1-9.6,26.3c-2-0.5-16.4-5.9-15.5-8c1-2.4,4.3,2.1,6.2-0.8
	C195.2,645.8,196.9,639.5,199.2,634.2C200.5,631.3,196.9,639.5,199.2,634.2z M202.6,635.2c-1.4,3.2-10,17.3-5.1,19.6
	c3.4,1.6,7.3,3,10.7,0.8c5.7-3.7,9.3-14.7,2.7-19.3C208.9,634.9,203.9,631.6,202.6,635.2C201.2,638.4,203.9,631.6,202.6,635.2z"/>
<path fill="none" stroke="#000000" stroke-miterlimit="10" d="M273.2,673.7c-0.4-2.1-0.3-5.2-2.7-5.5c-2.4-0.4-5.2-1.3-7.6-1.1
	c-1.2,0.1-3.9,5-3.5,6.2c0.8,1.9,4.4-0.1,5.1,1.9c1.3,3.4-11.1,0.6-12.3,0.4c-2.1-0.3-1.7-3.1,0.4-2.8c4.6,1.2,8.8-11.1,10.6-14.4
	c0.6-1.1,7.9-14.1,9.2-6.6c3.2,7.2,0.8,17.8,5.2,24.4c1,1.5,2.8,0.4,4.1,1.2c2.5,1.5-1.3,2.5-2.5,2.3c-3-0.8-8.3-0.2-10.9-1.8
	c-0.7-0.4-0.7-1.5-0.2-2.1c0.9-1,2.8-0.1,3.9,0.1C273.5,676.1,273.4,674.8,273.2,673.7C272.8,671.6,273.4,674.8,273.2,673.7z
	 M271.5,664.9c-0.7-4-1.3-7.9-2-11.9c-1.7,3.4-3.5,6.8-5.2,10.3C263.1,665.7,271.5,665.7,271.5,664.9
	C270.8,660.9,271.5,665.7,271.5,664.9z"/>
<path fill="none" stroke="#000000" stroke-miterlimit="10" d="M304.8,661c-0.1,0.4,0,0.8,0,1.2c2.5-3.4,7.3-4.1,10.9-2.1
	c4.5,2.4,3.3,9,3.4,13.2c0,1.7-0.5,5.1,2.3,4.7c2.8-0.4,2.3,2.8-0.2,2.6c-2.7-0.2-5.4,0.6-8.1-0.2c-4.5-1.4,2.5-2.6,2.6-2.6
	c1.8-1.8,0.5-9,0.4-11.3c-0.2-4.5-5.7-7.1-9.1-3.6c-2.8,2.9-1.8,9.3-1.5,13c0.1,1.5,6.6,3,3.6,4.4c-1.6,0.6-8.9,0.7-10.5,0.1
	c-1.3-0.5,3.7-3.8,3.9-6.4c0.2-3,0.7-8.7-0.6-11.5c-0.9-1.5-4.2,1.2-4.2-1.6C297.6,659.1,304.8,658.7,304.8,661
	C304.7,661.4,304.8,658.7,304.8,661z"/>
<path fill="none" stroke="#000000" stroke-miterlimit="10" d="M346,656.1c2.5-0.4,4.9,0.3,6.6,2.2c-0.3-1.6-0.3-6-1.6-7.1
	c-1.2-1-2.9,1.5-4,0c-1.5-1.9,1.5-2.4,2.7-2.5c3.2-0.2,4.6-1.3,5,2.4c0.9,6.7,0.3,15.6,3.4,21.7c0.6,1.3,2.7-0.1,3.7,0.1
	c2.3,0.6,0.1,2.7-1.2,2.8c-1.9,0.1-5.2,1.6-5.3-1.6c-3.5,6.6-13.1,4.3-15.8-1.8C336.8,666,338.3,657.4,346,656.1
	C348.8,655.7,343.2,656.5,346,656.1C348.5,655.7,343.2,656.5,346,656.1z M354.3,669.7c-0.2-3.2-0.4-8.3-3.5-10.1
	c-4.5-2.6-8.8,1-9.1,5.6c-0.2,3.5,1,8.4,4.6,9.9C350,676.5,354.6,673.9,354.3,669.7C354.2,669,354.4,671,354.3,669.7
	C354.1,666.5,354.4,671.1,354.3,669.7z"/>
<path fill="none" stroke="#000000" stroke-miterlimit="10" d="M398.6,641.3c-1.8-4.4-3.4,0-5.9-1.2c-3.5-1.8,9.1-6.3,10.3-6.7
	c1-0.4,3,0.1,2.2,1.7c-0.7,1.5-3,0.7-3.7,2.3c-1.3,2.8,5.3,19.3,8.1,20.5c1.2,0.5,5.6-2.8,5,0.7c-0.4,2.3-9.1,3.3-10.9,5.1
	c-4.7,2.5,1.3-5,1.1-6C403.9,652.2,400.6,646.5,398.6,641.3C396.8,636.9,399.9,644.7,398.6,641.3z"/>
<path fill="none" stroke="#000000" stroke-miterlimit="10" d="M423.2,629c-0.5-1.1-3.6,1.1-4.8-1.1c-1.9-3.5,3.3-5.3,5.5-2.6
	c1.9,2.4,2.1,6.3,1.2,9.1c-0.2,0.7-1.2,1.8-1.8,0.6C422.4,633.7,424.1,630.7,423.2,629C422.7,627.9,424.1,630.7,423.2,629z"/>
<path fill="none" stroke="#000000" stroke-miterlimit="10" d="M446.6,620c0.2,0.4,0.5,0.7,0.7,1c0.3-4.9,5-9.2,9.9-7.1
	c0.3-4.8,4.9-9.1,9.8-8c2.3,0.5,10.8,13.1,12.1,12.1c0.7-0.5,1.2-1.8,2.3-1.6c0.9,0.1,1.5,1.3,1,2.1c-0.8,1.3-10.4,7.7-9.7,4.1
	c0.3-1.6,3.2-1.1,2.1-3.1c-1.7-3.1-5.8-11-10.1-10.8c-2.1,0.1-4.4,1.8-4.8,3.9c-0.3,2,6.4,14.4,8.6,12.7c0.7-0.5,0.9-1.5,2.1-1.3
	c1,0.1,1.4,1.3,0.9,2.1c-0.8,1-10,7.5-9.4,4c0.3-2.2,3.7-0.8,1.7-3.8c-1.1-3-5.2-8.9-8.3-10.1c-4.6-1.8-6.6,4.7-5.1,7.9
	c1.4,2.8,3.6,5.5,5.5,8c1.5,1.9,1.5,0.8,2.9,0.1c1.9-1.3,3.2,1.1,1.4,2.4c-1.1,0.8-8.9,7.2-9.1,3.8c-0.2-2.9,4.6-1,1.7-5.1
	c-2.2-3.2-4.4-6.6-7-9.5c-1.8-2-2.4,1.4-4.1,1.2C438.1,624.5,445,617.8,446.6,620C446.8,620.4,445,617.8,446.6,620z"/>
<path fill="none" stroke="#000000" stroke-miterlimit="10" d="M511.4,581.8c-2.1-1.7-14.2-13.8-16.6-10.9c-0.8,0.8-1.5,3.2-3,1.8
	c-1-0.9,13.5-26.1,22.5-13.5c1.8,2.6,1.4,5.6,0,8.3c-0.7,1.2-5.7,6.3-5.4,7.6c0.9,3.3,7.2,6.4,9.4,3.1c1.5-2.3,3,0.4,1.6,2.3
	c-1,1.3-6.3,8.8-7.9,8.7C509.5,588.9,514.1,584,511.4,581.8C509.3,580.1,512.9,583,511.4,581.8z M499.2,566.8
	c0.5,1.6,3.8,3.5,5.1,4.6c2.9,2.4,4.6-0.8,6.4-3.4c2.3-3.4,2.1-8.6-3-9.2C505,558.5,498.3,563.9,499.2,566.8
	C499.7,568.4,498.3,563.9,499.2,566.8z"/>
<path fill="none" stroke="#000000" stroke-miterlimit="10" d="M535.4,529.9c-0.1,1.1-0.4,2.2-0.7,3.2c2.2-2.5,5.2-2,7.9-0.5
	c0.7,0.4,7.1,3.7,5.6-0.3c-0.8-2.1-6.5-3.1-6.3-5.3c0.1-2.2,2.2-1.4,3.3-0.7c3,1.3,6.9,3.8,5.7,7.6c-3.3,9.8-12.6-4.6-17.2,3.6
	c-1.3,2.1-3.2,4.1-0.5,5.7c1.8,1,4.1,3.2,6.3,2.8c-0.3,0,7.7-5.6,4.8-0.6c-0.4,1.7-5.9,11-7.6,10c-2-1.2,0.8-3,0.9-4.3
	c0.2-2.6-5.7-4.7-7.3-5.6c-1.9-1.1-10.9-8.3-12.8-5c-0.3,0.7-0.7,2.2-1.6,2.4c-1.7,0.5-1.9-1.5-1.3-2.5c2.3-4.7,7.6-17,13.7-17.3
	C531.8,523,535.7,526.2,535.4,529.9C535.4,530,535.6,527.7,535.4,529.9C535.3,531,535.6,527.6,535.4,529.9z M529.3,539.8
	c1.4-2.4,3.2-4.9,3.7-7.6c0.7-4-4.3-6.9-7.4-4.3c-2.1,1.7-6.2,7.5-2.7,9.5C524.3,538.2,528.2,541.5,529.3,539.8
	C530.7,537.4,528.2,541.5,529.3,539.8z"/>
<path fill="none" stroke="#000000" stroke-miterlimit="10" d="M565.2,503.9c-5.5,14.6-32.1,5.4-28.1-9.4c4.6-17,34.2-6.3,27.8,10.3
	C565,504.3,566.1,501.6,565.2,503.9C559.7,518.5,566.5,500.4,565.2,503.9z M540.4,494.3c-4.1,10.9,18,19.3,22.1,8.5
	C566.6,492.1,544.5,483.4,540.4,494.3z"/>
<path fill="none" stroke="#000000" stroke-miterlimit="10" d="M554.5,463.2c4.5,0.9,8.9,2.4,13.5,3c5.1,0.7,8.3-4.4,6.9-9.1
	c-1.5-4.6-16.4-7.5-20.5-6.7c-2.4,0.5-0.8,4.9-3.3,4.5c-1.9-0.5,0.3-10.2,0.9-11.8c1-4.8,2.9,2.2,3.2,2.5c1.8,2.1,5.6,2.5,8.1,3
	c6.3,1.1,14.9,1.7,14.7,10.2c-0.1,4.5-2.1,10-7,11c-3.6,0.9-9.5-1.7-13.1-2.3c-2.2-0.4-4.5-0.9-6.7-0.7c-1.9,0.2-2,4.6-4,2.9
	c-0.9-0.7,1.7-12.7,2.8-13.1C552.4,455.7,550.3,462.5,554.5,463.2C559,464.1,553.3,463,554.5,463.2z"/>
<path fill="none" stroke="#000000" stroke-miterlimit="10" d="M559.6,424.6c-3.1-0.2-3.1,1.5-3.1,4c-0.2,2.5-3,0.8-2.6-1.5
	c0.7-4.4,0-8.7,0.5-13.1c1.6-15.1,26.2-15.4,28-0.3c0.2,2,0.3,17.3-1.9,17.2c-2.5,0,0.2-4.8-3-5.5
	C571.8,424.3,565.4,424.9,559.6,424.6C556.5,424.4,565.4,424.9,559.6,424.6z M559.3,421.1c3.3,0.2,19.7,3.4,20.2-2.2
	c0.3-3.3,0.5-7.2-2.2-9.7c-5.4-4.8-17.6-4.6-19.8,3.6C556.8,415.2,555.6,420.9,559.3,421.1C563.1,421.3,555.6,420.9,559.3,421.1z"/>
<path fill="none" stroke="#000000" stroke-miterlimit="10" d="M563.9,312.9c0,9.8-15.2,9.8-15.2,0S563.9,303.2,563.9,312.9z"/>
<path fill="none" stroke="#000000" stroke-miterlimit="10" d="M59.6,305.4c9.8,0,9.8,15.2,0,15.2S49.8,305.4,59.6,305.4z"/>
</svg>
