<?xml version="1.0" encoding="utf-8"?>
<!-- Generator: Adobe Illustrator 18.0.0, SVG Export Plug-In . SVG Version: 6.00 Build 0)  -->
<!DOCTYPE svg PUBLIC "-//W3C//DTD SVG 1.1//EN" "http://www.w3.org/Graphics/SVG/1.1/DTD/svg11.dtd">
<svg version="1.1" id="Layer_1" xmlns="http://www.w3.org/2000/svg" xmlns:xlink="http://www.w3.org/1999/xlink" x="0px" y="0px"
	 viewBox="0 0 612 792" enable-background="new 0 0 612 792" xml:space="preserve">
<path fill="none" stroke="#000000" stroke-miterlimit="10" d="M306,90.3c-75.6,0-149.5,28.5-205.4,79.3
	c-55.4,50.3-91,120.3-98.7,194.8c-7.8,75.8,13.3,153,58.8,214.1c44.4,59.6,110.2,101.8,183,116.8c75,15.5,154.6,2.1,220.1-37.5
	c63.3-38.2,111.6-99.4,133.9-170c23-73.1,17.5-154.1-15.5-223.3c-31.8-66.7-87.9-120.6-155.8-149.7C388.4,98.6,347.2,90.3,306,90.3z
	 M306,619.7c-75.7,0-147.7-39.5-188.5-103.2c-41.4-64.7-46.4-148.5-13-217.7c32.7-67.6,98.9-115.4,173.4-124.7
	c75.8-9.5,152.6,21.1,201,80.1c48.6,59.2,63.6,141.5,38.8,214.1c-24,70.6-83.6,125.8-155.8,144.4C343.7,617.3,324.8,619.7,306,619.7
	z"/>
<g id="XMLID_4_">
	<g>
		<path fill="none" stroke="#000000" stroke-miterlimit="10" d="M466,274.2c-2.3,5.2-1.9,10.9-2.5,16.4c-0.2,1.7-1,2.6,0.5,3.6
			c1,0.7,2,1.4,3,2c2.4,1.6,4.8,3,7.2,4.6c8.4,5.3,16.8,11.3,20.3,21c8,22.1-5.4,45.9,1.5,68.4c1.5,4.9,3.2,9.8,3.4,15
			c0.2,6.4-2.8,10.4-6.2,15.5c-5.8,8.7-7.9,20.1-11.3,29.9c-3.5,10-7.9,18.7-16.3,25.3c-8.2,6.5-18,11.2-24.1,20.1
			c-4,5.7-6.8,13.1-13.3,16.4c4.9,5.7,11.2,5.8,18.1,6.9c1.6,0.2,3.1,0.6,4.6,1c2.6,0.8,2.5,1.2,2.2,3.8c-0.3,2.7,0.5,3.4,3.1,3.9
			c-2.7,11.3-0.3,23.2-3.7,34.4c-1.7,5.4-4.4,7.9-8.5,11.5c-4.3,3.8-5.1,9.5-8.1,14.1c-2.3,3.4-7.8,6.2-8.2,10.5
			c-0.2,2.3,0,4.1-1.1,6.2c-1.4,2.5-3.3,4.6-5.4,6.6c-1.7,1.6-3.5,3.1-5.1,4.9c-1.7,1.9-2.8,2.6-5.2,1.1c-3.4-2.1-5.4,0.6-7.3,3.5
			c-1.4,2.2-3,5-6,5c-1.2,0-3.8-1.7-4.3-0.1c-0.9,2.5,0.6,3.6-2.6,4.6c-12.8,3.8-25.9,6.2-39,8.5c-5.4,1-12,3.3-17.4,2.6
			c-1.1-0.2-2.3-0.5-3.2-1.1c-1.4-0.9-2.3-0.4-3.9-0.2c-3.6,0.5-7.3,0.8-10.9,0.9c-13,0.5-26-1-38.8-3c-4.8-0.7-9.5-1.6-14.3-2.3
			c-2.7-0.5-5.4-0.9-8.1-1.3c-2.7-0.4-3.9-1.2-6.1-2.5c-3.4-2-7.2-3.2-11-3.7c-4.2-0.5-8.9,1.1-11.8-2.4c-1.3-1.6-2.1-3.5-2.4-5.5
			c-2.6,0-5.2,0-7.7,0c-1.1-2-1.4-5-3.8-5.9c-1.3-0.5-3.7,0.5-4.3-0.5c-0.6-1-0.9-2.2-1.3-3.3c-1.1-2.8-3.1-3.7-6.1-3
			c0-1.3,0-2.6,0-3.9c-1.1-0.4-2.1-1-3.1-1.6c-1.8-1.1-3.4-2.5-4.8-4c-2.9-3.2-4.8-7.1-7-10.8c-2-3.4-4.3-6.8-7.6-9.1
			c-1.3-0.9-1.2-4-1.9-5.7c-0.9-2.2-1.6-4.4,0-6.5c-0.3-3.3-5.6-1.1-5.9-5c-0.4-5.3,0.5-10.7,2.1-15.8c1.6-5.1,3.8-9.9,6.4-14.5
			c1.3-2.2,2.7-4.4,4.3-6.5c1.1-1.5,5.2-5.1,4.1-6.5c-11.2-13.5-30.8-14.5-45.5-22.1c-7.5-3.9-14.8-9.9-17.1-18.2
			c-2.5-9.1-2.3-18.7-6.4-27.3c-7.7-16.2-22.4-28.5-25-47.1c-1.4-10,0.6-20.8,2.4-30.7c2-10.9,4.8-21.7,8.1-32.3
			c6.4-20.4,14.8-40.4,25.6-58.8c4.5-7.6,9.3-16.1,16.3-21.6c3.5-2.8,7.4-5,11.2-7.4c6.3-0.9,12.7,0.1,18.9,0.7
			c6.1,0.6,12.3,1,18.3-0.4c5-1.2,7.8-5,10.5-9.2c5.5-8.5,12.2-16.3,18.9-24c6.3-7.3,12.7-14.4,21.5-18.6c9.4-4.5,20-6.9,30-9.4
			c24.4-6.2,50.2-5.8,74.8-0.9c10.7,2.1,20.9,5.6,31.3,8.5c7.6,2.2,15.3,4.1,22.9,6.5c8.4,2.7,19.7,5.5,23.9,14.1
			c3.8,7.9,4.4,17.2,5.8,25.7c1.4,8.7,2.8,18.4,8.2,25.6c2.4,3.2,5.6,5.6,9.5,6.7C456.3,278.7,463.7,279.3,466,274.2
			C463.1,280.6,465,276.4,466,274.2z"/>
		<path fill="none" stroke="#000000" stroke-miterlimit="10" d="M280,235.5c0.3-4.6,5.8-7.6,9.5-9c5.2-2,11.6-2.5,16.7,0.3
			c7.5,9.1,3,23.1,8.7,33c2.3-1.6,0.3-5.7,1.9-7.7c5.4,8.2,4.3,19.5,10.7,27.1c1.3-3.7,1.6-7.8,2.4-11.6c0.2-1.1,0.7-5.5,2.3-4.5
			c1.2,0.7,1.5,2.4,3,2.6c0.1-5.6-1.7-10.9-1.9-16.5c0.9,0.6,1.8,1,2.9,1c-0.6-5.9,1.5-11.6,1-17.5c4.9,7,7.6,15.9,14.5,21.3
			c1.2-3.7,2.5-3.7,5.8-1.9c0-4.2,0-8.4,0-12.6c3.9,5.3,7.7,10.7,12.8,14.8c1.2,1,5.6,5,6.5,2.5c0.9-2.4-0.5-5.2,0.1-7.7
			c6.8,8.8,18.6,12.6,23.3,23.3c-2.4-1.6-5.6-1.8-7.7-3.9c-0.3,5.4,2.8,9.5,3.9,14.5c-5.1-1.9-9.7-4.9-14.2-7.9
			c-2.2-1.5-4.4-3-6.7-4.3c-1.5-0.9-3.6-2.3-3.4,0.5c0.1,1,0.8,4-1.3,3c-1-0.5-0.7-1.9-1.4-2.6c-2.7-2.5-1.9,7.7-2.1,8.4
			c-4.1-2.5-7.8-5.7-11.7-8.7c-3.5,7.1-1.4,16.1,1,23.3c-7.3-4.2-10.9-12.4-17.5-17.5c-1.3,10,1.2,18.8,6.8,27.1
			c-7.6-2.7-12.5-8.9-16.5-15.5c-2.5,8.7,1.8,18,7.7,24.2c-19.2-6.6-25.1-28.8-27.6-46.8c-1.3-9.5-0.1-21.4-5.1-30
			c-2.5-4.3-6.1-6.9-11.1-6.6C288.4,230,283.3,231.5,280,235.5C280.4,228.5,283.6,231.2,280,235.5z"/>
		<path fill="none" stroke="#000000" stroke-miterlimit="10" d="M256.8,470.9c-0.7-3.2,2.3-3.2,2.9-5.8c0.9,0.2,0.9,1.3,0.9,2
			c0,2,0,1.9,2,1.9c0.7,0.1,1-0.3,1-1c1,0,1.9,0,2.9,0c1.9,0,3.9,0,5.8,0c-0.4,2.1-4.7,0.8-6,0.9C263,469,260.1,470.8,256.8,470.9
			C255.9,467.1,260.2,470.8,256.8,470.9z"/>
		<path fill="none" stroke="#000000" stroke-miterlimit="10" d="M302.3,455.4c2.3-2.2,8.7-0.4,12.6-1
			C312.6,456.6,306.2,454.8,302.3,455.4z"/>
		<path fill="none" stroke="#000000" stroke-miterlimit="10" d="M300.3,454.4C289.6,457.4,287.4,453.2,300.3,454.4L300.3,454.4z"/>
		<path fill="none" stroke="#000000" stroke-miterlimit="10" d="M337.2,453.4c-9.4,2.4-29.9,0.2-10.7,0
			C330.7,453.4,333.9,453.5,337.2,453.4z"/>
		<path fill="none" stroke="#000000" stroke-miterlimit="10" d="M287.7,455.4c-0.3,1.8-21.9,4.9-8.7,1
			C280.6,455.9,284.4,455.6,287.7,455.4z"/>
		<path fill="none" stroke="#000000" stroke-miterlimit="10" d="M358.5,473.8c1.7-1,6.3-2.8,7-5c0.4-1.3-2.4-3-3.1-3.7
			c-5.5-6.9-15-8.8-23.3-9.7c9.4-1.2,23,3.7,27.8,12.3c0.6,1,1,2.1,1.3,3.2c-1.3,0.9-2.6,1.7-4,2.5c-2.6,1.5-5.3,2.8-8.1,3.9
			c-6.1,2.5-12.4,4.3-18.8,5.6c-25.5,5.2-56.7,4.5-79.6-9.2c16.5,7.1,35.1,10.4,52.9,10.8c9.4,0.2,18.9-0.5,28.1-2.8
			C345.7,479.9,351.9,476.5,358.5,473.8z"/>
		<path fill="none" stroke="#000000" stroke-miterlimit="10" d="M321.6,445.7c1.7,0.4,7-1.4,7.7,1c-3.4,0-6.5-0.2-9.8,0.8
			c-3,1-6.3,0.9-9.5,0.6c-7.1-0.6-14.1-2.2-21.3-1.1c-12.8,2-22.3,10.3-32.1,18c6.2-8.3,15.9-14,25.7-17c6.3-1.9,12.9-2.8,19.4-2.3
			C308.4,446.2,315.2,448.2,321.6,445.7C323.9,446.3,314.6,448.5,321.6,445.7z"/>
		<path fill="none" stroke="#000000" stroke-miterlimit="10" d="M252.9,370.1c2.2-0.3,3.7,0.2,4.9,1
			C258,373.6,251.2,374.4,252.9,370.1z"/>
		<path fill="none" stroke="#000000" stroke-miterlimit="10" d="M260.6,412.7c-5.3,18.3-31.3,24.2-34.9,47.5
			C227.1,438,249.9,428.8,260.6,412.7z"/>
		<path fill="none" stroke="#000000" stroke-miterlimit="10" d="M358.5,405c5.2-0.1,8,8.4,9.8,12.1c2.8,5.7,5.9,10,11,13.8
			c4.3,3.2,9.1,5.8,12.6,9.9c4.2,4.9,5.2,11.2,4.4,17.5c0.5-12.4-8.2-19-17.1-25.7c-4.5-3.4-8.5-7-11-12.2
			C365.5,415.1,364,408.2,358.5,405C365,404.9,365.6,409.2,358.5,405z"/>
		<path fill="none" stroke="#000000" stroke-miterlimit="10" d="M285.3,393.2c2.1,2.8-7.6,7.5-9.2,8.7c-0.9,0.7-1.3,3-1.7,4.1
			c-0.8,1.9-1.7,3.8-2.3,5.8c-0.9,3.1,0.2,6.8,3.5,8c2.4,0.9,5.2,0.1,7.7-0.3c3.2-0.4,6.4-0.1,9.5,1c5.9,2.2,10.7,6.4,17.1,7.1
			c7.9,0.8,15.2-2.7,22.3-5.7c3.5-1.5,7.1-2.8,10.9-3.4c3.1,0,5.4,4.6,8,3.3c6-3,9-10.1,4-15.4c-3.7-4-9.8-5.6-13-10.2
			c10.9,1.6,24.5,18.4,12.2,27.1c-1.4,1-3.1,2.3-4.8,1.7c-1.7-0.6-3.4-1.1-5.2-1.4c-2.7-0.5-5.4-0.5-8,0c-4.7,0.9-8.8,3.3-13,5.3
			c-4.7,2.1-9.5,3.3-14.6,2.6c-3.5-0.5-6.9-1.8-10-3.4c-1.9-0.9-3.7-2-5.5-3.1c-2.7-1.7-4.5-1.5-7.6-1.5c-3.6-0.1-7.3-0.4-10.5-2.1
			c-3.8-2.1-4.8-5.2-4.6-9.5C270.5,403,278.1,397,285.3,393.2C287.2,395.8,274.2,399.1,285.3,393.2z"/>
		<path fill="none" stroke="#000000" stroke-miterlimit="10" d="M339.1,383.7c12.9,2.2,32.7,10.3,50.4,7.7
			C372.2,396.8,352.3,388.7,339.1,383.7z"/>
		<path fill="none" stroke="#000000" stroke-miterlimit="10" d="M287.7,376.9c1.3,0.6-0.2,1.9-0.7,2.5c-1.5,1.7-0.7,3.2-2.8,3.8
			c-6.3,1.8-12.7,3.6-19,5.5c-13.2,3.9-26.3,7.9-39.5,11.5c10.2-4.3,20.9-7.5,31.5-10.6c5.5-1.6,10.9-3.1,16.4-4.7
			c2.9-0.9,5.9-1.7,8.8-2.7C284.8,381.5,286.4,379,287.7,376.9C289.9,377.9,286.6,378.7,287.7,376.9z"/>
		<path fill="none" stroke="#000000" stroke-miterlimit="10" d="M229.8,378.9c-0.6,0.4-1,0.9-1.1,1.8
			C229,380.1,229.4,379.5,229.8,378.9z"/>
		<path fill="none" stroke="#000000" stroke-miterlimit="10" d="M229.8,378.9c10.4-14,37.3-11.4,50.2-3c-1.7,1.9-7.6,0.9-9.9,1.6
			c-0.3,0.1-4.3,1.5-2.9,0.5c1.3-0.9,3.6-1.3,5.1-1.2c-1.5-2.9-4.8-4.1-7.7-4.9c-0.8,2.2-2.5,3.9-4.6,4.9
			c-3.5,1.6-14.7,2.8-12.8-3.9c-3,0.2-6.1,0.8-8.8,2.1c-4.2,2-2.2,2.3,1,2.8C239.5,379.5,231.2,378.1,229.8,378.9
			C238.7,367,232.7,377.2,229.8,378.9z"/>
		<path fill="none" stroke="#000000" stroke-miterlimit="10" d="M392.4,376.9c-3.1,2.8-8.8-1.1-12.6,0c6.5-2.8-5.9-6.3-7.7-7.7
			c-0.1,5.9-7.1,7.5-11.7,5.8c-2-0.7-4.7-5-5.8-4.8c-3.3,0.5-4.3,4.5-7.7,4.8c0.3,1.3,7.1,1.1,5.3,2.4c-2.5,1.7-6.6,0.2-9.1-0.5
			C354,360.9,378.9,368.9,392.4,376.9C389.4,379.6,379.1,369,392.4,376.9z"/>
		<path fill="none" stroke="#000000" stroke-miterlimit="10" d="M274.2,369.2c-5.9,0.9-22.8-8.2-35.8-1
			C244,362.8,266.4,363.3,274.2,369.2z"/>
		<path fill="none" stroke="#000000" stroke-miterlimit="10" d="M364.3,363.3c-4.9,1.9-13,0.6-16.5,3.9
			C348.1,364.4,359.3,361.8,364.3,363.3z"/>
		<path fill="none" stroke="#000000" stroke-miterlimit="10" d="M291.6,359.5c-0.6-1.3,2.6,0.4,2.9,0.5c1.7,1.1,4.1,3,3.9,5.3
			c-0.9-0.1-1.7,0.1-1.9,1C294.6,364.2,294.4,360.6,291.6,359.5C290.7,357.4,294.4,360.6,291.6,359.5z"/>
		<path fill="none" stroke="#000000" stroke-miterlimit="10" d="M287.7,347.9c-12.7,1.5-25.8-1.6-38.5-2
			c-11.5-0.4-25.7,0.6-32.2,11.7c-1.1-4.1,3.8-7.9,5.9-10.9c1.1-1.6,1.2-3.5,3.1-3.9c1.7-0.4,3.4-0.9,5.1-1.3
			c7.6-2.1,15.2-4.4,22.9-5.9C266.4,333,285.4,331.3,287.7,347.9C267.2,350.2,284,322,287.7,347.9z"/>
		<path fill="none" stroke="#000000" stroke-miterlimit="10" d="M330.4,346.9c0.9-3.9,2.9-7.4,5.3-10.6c1.4-1.9,1.6-2,4-1.8
			c2.1,0.1,4.2,0.3,6.3,0.4c7.4,0.4,14.8,0.8,22.1,1.8c12.1,1.7,26.1,5.4,31.2,18c-10.2-5.8-22.7-7.7-34.3-7.7
			c-6.7,0-13.3,0.7-19.8,2.5c-3.1,0.8-6.1,1.9-8.9,3.3C334.7,350.3,331.6,349.5,330.4,346.9C331.6,341.6,331.6,349.5,330.4,346.9z"
			/>
		<path fill="none" stroke="#000000" stroke-miterlimit="10" d="M350.8,489.3c-12.5,5.9-27.8,6.8-41.5,6.5
			c-12.9-0.3-29.2-1.4-40-9.4c2.5,4,7.8,5.9,12.1,7.2c6.7,2,13.9,2.7,20.9,2.5c-8.7,1.2-21.2,8.8-29.7,3.9c-4.1-2.4-7-6.4-10.9-9
			c-2-1.3-4-1.4-6.3-2c-2.4-0.5-4.4-3.1-5.8-4.9c-6-7.3-8.6-18.3,0.3-24.5c8.4-5.9,19.1-7.9,28-12.7c4.2-2.3,8.5-4.2,13.3-4.8
			c6.3-0.7,12.7,0.4,18.9,0.8c10.1,0.6,21.1-3.8,30.9-0.9c7.9,2.3,15.5,7.7,22.3,12.1c6.5,4.2,13.5,8.8,13.9,17.4
			c0.4,11-10.3,19.8-19,24.5c-11.7,6.4-24.2,8-35.6,0.3C331.4,496.1,344.8,497.2,350.8,489.3C331.2,498.5,345.7,496,350.8,489.3z"/>
		<path fill="none" stroke="#000000" stroke-miterlimit="10" d="M189.8,477.2c-0.3-3.6-0.5-7.1-0.8-10.2
			C189.9,470.9,190.2,474.3,189.8,477.2z"/>
		<path fill="none" stroke="#000000" stroke-miterlimit="10" d="M189.8,477.2c-1,7.1-6.6,12.9-14.1,11.9c-3.5-0.5-6.6-2.4-8.9-5
			c-1.4-1.6-2.6-3.4-3.5-5.4c-1-2.2,3.2-5.7,4.7-7.4c3.6-4,7.5-7.7,11.2-11.7c1.8-2,3.6-4.1,5.2-6.3c0.8-1.1,1.6-2.2,2.3-3.4
			c1.4-2.2,1.3-2.9,0.7-5.4c-1.2-5.1-2.3-10.3-2.3-15.5c0-5.8,2-10.5,4.5-15.6c2.3-4.6,3.8-9.3,3.6-14.5c-0.3-6-2-11.7-2.8-17.6
			c-1.6-11.4,2.1-21.3,7.1-31.3c2.3-4.5,4.9-8.5,8.3-12.2c3-3.4,6.9-6.8,8.2-11.4c3.1-10.8-1.9-22.9-3.8-33.4
			c-1.6-8.6-1.1-16.9,4.6-23.9c5.1-6.3,12.6-10.3,20.1-13.2c8.3-3.2,17-5.2,25.8-6.6c4.2-0.7,8.6-1.4,12.9-1.4
			c5.2,0,12.8-1,17.3,1.7c15.4,9.2,11.6,30.7,18,45.1c6.7,15.2,25.2,24.2,40,29.4c9.8,3.5,20.2,5.7,30.6,6.4c5,0.3,10,0.3,15-0.1
			c2.4-0.2,4.9-0.6,7.3-1c3.1-0.6,3.8-0.9,5.9,1.6c6.2,7.5,9.8,17.4,12.5,26.6c1.4,4.7,2.8,9.8,2.8,14.7c0.1,6.5-1.8,12.7-0.9,19.2
			c1.5,11.2,7.6,21.9,6.8,33.4c-0.3,5-2.5,9.3-5.1,13.4c-0.8,1.3-7.4,11.3-5.2,11.7c3.4,0.6,7.1-2.7,10.4-3.2c3-0.4,3.5,0,3.9,2.8
			c0.3,2.3,0.4,4.5,0.4,6.8c0,6.6-1.3,16.1-8.9,18.2c-2.1,0.6-3.4-0.4-4,2c-0.7,3.1-1.6,6.1-2.4,9.2c-1.6,5.5-3.4,10.9-4.9,16.4
			c-4.7-9-14.8-13.3-20.9-21.2c-6.3-8.1-6.7-20.7-15.9-26.5c-4.2-2.6-8.8-4.5-12.6-7.6c-4.4-3.5-6.7-8.4-10-12.7
			c-6.5-8.5-19.1-6.1-27.7-2.7c-2.5,1-4.9,2.2-7.3,3.5c-2,1.1-4.7,3.8-6.6,2.6c-5.2-3.2-10.6-6.2-16.4-8c-4.9-1.5-10.3-2.3-15.3-0.7
			c-4.8,1.6-9,5.2-12.9,8.4c-8.4,6.8-17.2,13.1-25.3,20.2c-3.5,3-6.3,6.2-8.6,10.3c-2.6,4.7-4.8,9.7-9.5,12.8
			c-2.1,1.4-5.7,2.8-5.7,5.6c0,2.3-0.6,4.5-2,6.4c-2.3,3.2-6.1,5.2-7.8,8.9c-5.5-11.6-8-24.3-13.6-35.8c-0.5,6.6,4.2,13.9,6.7,19.7
			c2.5,5.9,6.7,14.8,2.8,21c-0.9,1.3-2.1,2.4-3.5,3.1c-1.1,0.6-5.2,1.4-5,2.4c0.2,1.4,2.6,2.6,2.1,4c-0.9,2.8-3.6-0.8-4.1-1.9
			c-1.8-4.4-1-9.7-1.6-14.4C191.2,491.9,190.3,484.6,189.8,477.2C187.7,492.2,190.2,484.2,189.8,477.2z"/>
		<path fill="none" stroke="#000000" stroke-miterlimit="10" d="M363.3,369.1c2.2-0.3,3.7,0.2,4.9,1
			C368.5,372.6,361.6,373.5,363.3,369.1z"/>
	</g>
</g>
<path fill="none" stroke="#000000" stroke-miterlimit="10" d="M256.8,465.1c8.2-4.1,17-8,26-9.9c10.8-2.3,21.6,0.2,32.4-0.9
	c8.4-0.9,17-1.6,25.4-0.7c4.7,0.5,9.4,1.5,13.7,3.6c1.8,0.9,3.3,2.1,5,3.2c1.8,1.1,1.8,1.1,1.8,3.2c-1.5-2.2-4.1-3.6-6.5-4.5
	c-9.6-4-21-3.8-31.2-3.2c-4.1,0.3-8.2,1.2-12.3,0.7c-3.6-0.4-7.2-0.5-10.8-0.4c-15.1,0.6-29.9,4.7-43.5,11
	C256.7,466.5,256.7,465.8,256.8,465.1z"/>
<path fill="none" stroke="#000000" stroke-miterlimit="10" d="M339.1,467.1c9.5-0.2,18.8-0.1,28.2,1.4c-1.1,2.2-0.9,2-3.2,1.8
	c-3.8-0.3-7.5-0.6-11.3-0.9c-7.2-0.5-14.5,0-21.5-1.8C333.9,467.4,336.5,467.3,339.1,467.1z"/>
<path fill="none" stroke="#000000" stroke-miterlimit="10" d="M258.7,470.5c5.1-0.5,10.1-0.9,15.2-1.2c6.7-0.4,13.3,0,19.8-1.7
	c-12-0.7-24-0.9-35.9,0.9"/>
<path fill="none" stroke="#000000" stroke-miterlimit="10" d="M105.4,194.8c2-2,4.5-3.2,7.4-3.2c-2.7-2,0.2-4.5,2.3-2
	c1.7,2,5.4,4.3,6.4,6.7c1,2.4-1.9,2.5-3.1,1.6c-1.3-0.9-1.9-2.5-3.6-3.1c-4.4-1.7-10.1,3.3-9.5,7.8c0.7,5.8,6.6,4.5,10,2.3
	c3.8-2.5,8.2-6.3,13-3.6c10.5,5.8,2.2,20.2-7.6,20.3c0.7,0.7,2.3,1.4,1.9,2.7c-0.7,2.2-2.6,1.3-3.6,0.2c-1.9-2.2-3.7-4.1-6-6
	c-1.1-0.9-2.9-2.4-1.4-3.8c1.6-1.6,3.1,0.6,4.1,1.6c3.9,3.9,9,2.5,12.2-1.4c2.7-3.3,2.6-9.8-2.8-10.4c-3.4-0.4-6.7,3.1-9.5,4.8
	C105.2,215.6,97.4,202.8,105.4,194.8C107.6,192.7,103.2,197.1,105.4,194.8z"/>
<path fill="none" stroke="#000000" stroke-miterlimit="10" d="M168.2,185.7c-1.8,1.3-4,1.5-5.7,0c0.1,5.9-7.9,11.8-13.2,8
	c-8.1-5.8,2-11.6,4.9-16.1c1.7-2.7-1.6-5.7-4.3-5.1c-1.3,0.3-6.6,3.6-5,5.6c0.4,0.8,2.1,0.3,2.4,1.9c0.3,1.3-0.9,2.5-2.1,2.8
	c-4.2,0.9-4.1-5-3-7.4c2.6-5.5,10.1-8.5,14.5-3.4c2.3,2.7,4.2,5.8,6.2,8.6c0.6,0.9,4.9,5.1,4.5,1.3c-0.2-1.6-2.9-3.4-2.6-5
	c0.5-3.4,3.7,0.7,4.3,1.6C170.9,181.1,171.1,183.7,168.2,185.7C166.2,187.1,170.8,183.8,168.2,185.7z M158.6,181.1
	c-0.6-0.9-1.3-1.8-1.9-2.7c-0.9,3.8-10.2,8.2-5.2,12.2C156.6,194.8,161.7,185.4,158.6,181.1z"/>
<path fill="none" stroke="#000000" stroke-miterlimit="10" d="M183.7,154.4c3.9,4,7.8,7.9,11.7,11.9c-0.3-2.7-0.6-5.5-0.8-8.2
	c-0.2-2.4,0.2-7.1-1.1-9.3c-0.7-1.5-5.5,3.2-5.1-0.8c0.2-1.7,3.8-2.2,5.1-2.8c1.1-0.5,6.7-5.1,6.7-1.1c0,1.4-1.7,1.2-2.5,1.7
	c-0.9,0.4-0.6,2.2-0.6,2.9c0,6.2,1,12.4,1.3,18.6c0.3,6.2-0.7,13.8-8.2,15c-2.7,0.4-7.1-1.3-5.9-4.8c1.4-4.1,6.9-0.9,4.4,1.4
	c3.3,1.9,6.5-3.7,6.5-6.3c0-2.7-2.1-4.3-3.9-5.9c-3.2-3-6.5-5.9-9.7-8.9c-1.4-1.3-2.8-3.3-4.7-1.8c-1,0.6-3.4,1.3-3.1-1
	c0.2-1.4,2.2-1.8,3.3-2.2c2.6-0.8,5-3.5,7.6-3.8c1.9-0.2,1.9,2.3,0.4,3C183.9,152.7,181.9,152.6,183.7,154.4z"/>
<path fill="none" stroke="#000000" stroke-miterlimit="10" d="M251.2,124.6c-1-5.2-6.1-0.4-6.8-3.6c-0.5-2.5,3.4-2.1,4.9-2.2
	c2.9-0.2,5.8-2,8.6-2c1.3-0.2,3.3,0.7,2.1,2.4c-0.9,1.6-3.5,0.1-4.6,1.7c-1.7,2.4,1,9.7,1.5,12.2c0.5,2.5,0.7,10.3,3.2,11.9
	c1.3,0.9,6.2-2,5.4,1.6c-0.4,1.8-3.5,1.3-4.8,1.4c-2.9,0.2-5.6,1.1-8.3,2c-3,1-3.5-2.6-0.3-3.1c4.8,0.7,1.8-8.5,1.3-10.7
	C252.7,132.3,252,128.5,251.2,124.6z"/>
<path fill="none" stroke="#000000" stroke-miterlimit="10" d="M296.2,137.8c-0.1-1.5-0.8-6,2.1-4.9c2.4,0.9,1.1,7.4,0.2,9.1
	c-1.7,3.1-6.8,4-9.7,2.2c-2.6-1.6-2.7-5.1-2.9-7.8c-0.1-2.5-0.3-4.9-0.4-7.4c-0.1-2.1,0.4-4.2-2.2-4c-1.1,0.1-2.1-0.3-2.3-1.5
	c0-1.8,1.7-1.8,3-1.9c1.8-0.1,0.8-4.4,0.8-5.6c-0.2-2.9,3.4-2.5,3.5,0.3c0.1,1.1-0.4,5.1,1.3,5c1.7-0.1,4.3-0.8,5.9-0.2
	c1.3,0.5,1.1,2.6-0.1,3.1c-1,0.4-2.4,0.2-3.4,0.3c-1.7,0.1-3.2-0.3-3.1,1.8c0.2,2.6,0.3,5.2,0.5,7.8c0.1,2,0,4.5,1,6.2
	C292.4,143.9,296.2,140.9,296.2,137.8z"/>
<path fill="none" stroke="#000000" stroke-miterlimit="10" d="M354.7,141.8c-0.9,4.3,1.5,4.3,5.1,5c3.6,0.7,8,2.3,8.9-2.5
	c0.3-1.5,0.2-3.5,1-4.8c1.1-1.7,3.5-0.1,3.1,1.6c-0.2,1.1-0.7,2.1-1,3.1c-0.7,2-0.3,5.1-1.4,6.8c-1.4,2.2-13.6-1.9-16.5-2.5
	c-2.6-0.5-5.3-0.9-7.9-1.3c-1.4-0.2-3.8-2.7-1.3-3.3c2.2-0.6,4.3,2.4,5.6-1c1.9-4.8,2.3-10.7,3.3-15.7c0.4-1.7,1.3-4.3,0.9-6.1
	c-0.6-2.6-3.6-0.9-4.9-2.5c-1.6-2.8,2.3-2.3,3.6-1.9c3.1,1,6,1.6,9.2,1.8c1.3,0.1,3,0.4,2.7,2.1c-0.7,2.9-4.5-0.9-6.1,1.3
	c-1.1,1.5-1.3,4.3-1.6,6.1c-0.7,3.4-1.4,6.7-2,10.1C355.1,139.6,354.9,140.7,354.7,141.8z"/>
<path fill="none" stroke="#000000" stroke-miterlimit="10" d="M399.8,163.3c-16.1-6.6-5.3-36.1,11.1-31.2
	C429.7,137.6,417.1,170.3,399.8,163.3C395.9,161.7,403.6,164.8,399.8,163.3z M410.9,135.6c-12.1-4.8-21.9,19.8-9.9,24.6
	C412.9,165,423.1,140.6,410.9,135.6C408.2,134.5,413.8,136.8,410.9,135.6z"/>
<path fill="none" stroke="#000000" stroke-miterlimit="10" d="M448.7,159.8c-2.5,3.9-5.2,7.6-7.7,11.5c-2.9,4.5-2.3,8.7,2.8,11.3
	c4.4,2.2,7.3-0.2,9.6-3.8c1.5-2.4,3.1-4.8,4.6-7.2c1.3-2.1,3.6-4.5,4-6.9c0.3-2.1-1.6-2.3-2.9-3.3c-2.3-1.5,0.8-3.3,2.7-2
	c2.6,1.4,5,3.5,7.6,5c1.3,0.5,3.3,2.4,1.1,3.5c-1.4,0.7-2.4-1.3-3.8-1.2c-2.6,0.3-5,6.1-6.3,8.2c-4.3,6.6-8.7,15.3-18,10.4
	c-4.1-2.1-8.2-6-7.4-11c0.6-4.7,5.3-9,7.6-12.8c1.1-1.7,4.9-5.9,3.7-8c-0.6-1.1-2.7-1.1-2.7-2.7c0.1-3.7,4.1,0,5,0.7
	c1.6,1.2,9.6,4.4,8.2,6.7c-1.3,2-2.8-0.3-4-0.9C450.9,156.2,449.6,158.5,448.7,159.8z"/>
<path fill="none" stroke="#000000" stroke-miterlimit="10" d="M489.6,188.5c2.5-2.6,0.8-3.7-1.1-5.6c-1.2-1.2,0.1-3,1.6-2.4
	c0.8,0.3,1.4,1.1,1.9,1.8c3.3,4,7.7,6.5,11.1,10.4c10.8,12.7-8.1,32.5-21.4,22.7c-4-2.9-6.6-7.3-10.7-10.2c-1.1-0.8-3.6-2.3-2-3.9
	c1.6-1.6,2.6,0.6,3.6,1.6c1.4,1.3,3,0.2,4.1-0.9C481.2,198,485.3,193,489.6,188.5z M492.8,190.9c-2.6,2.8-5.3,5.5-7.9,8.3
	c-1.9,2-8.2,6.6-5.6,9.7c2.5,2.9,6.2,6.3,10.3,5.8c4.4-0.5,8.2-3.6,10.7-7.1c2.6-3.7,3.6-8.3,0.9-12.2
	C499.5,193,495.7,187.8,492.8,190.9z"/>
<path fill="none" stroke="#000000" stroke-miterlimit="10" d="M53.9,402.8c4.7,0,1.3-3.2,3.3-5.1c2.7-2.7,2.2,3.3,2.1,4.2
	c-0.3,2.7,0.4,5.2,0.4,7.8c0,1.2-1.2,2.7-2.5,1.5c-1.2-1.2,0.5-3.1-0.7-4.3c-1.8-1.9-8.7-0.8-10.9-0.8c-2.3,0-9.1-1.2-11,0.7
	c-0.9,0.9-0.3,2.3-0.3,3.4c0,1.5-2.1,1.8-2.7,0.5c-0.7-1.7,0.4-4.3,0.4-6.1c0-1.9-0.6-3.8-0.6-5.7c0-1.2,1-2.2,2.3-1.6
	c1.1,0.5,0.4,2.4,0.4,3.2C34,404.3,51.1,402.7,53.9,402.8z"/>
<path fill="none" stroke="#000000" stroke-miterlimit="10" d="M56.2,430.2c1.2-0.2,0.2-3.7,2.8-4.1c3.4-0.2,3.9,4.2,1.4,5.7
	c-2.8,1.6-6.6,0.2-9.1-1.3c-0.4-0.3-2.6-2.2-0.7-2.4C52.4,428.2,54,430.5,56.2,430.2z"/>
<path fill="none" stroke="#000000" stroke-miterlimit="10" d="M56,455.2c-0.4,0-0.8,0.2-1.1,0.3c4.4,2.1,6.8,7.9,2.9,11.8
	c4.5,2.1,7,8.9,3.1,12.9c-2.1,2.2-6,2.6-8.8,3.3c-1.5,0.4-7.6,1-5.9,3.4c0.9,1.5-0.6,3.9-2,2.1c-1.2-1.6-1-4.8-1.6-6.7
	c-0.4-1.1-1.6-4.7,1.1-4.1c1.6,0.4,0.2,3.2,1.9,3.2c2.7,0,5.7-1.2,8.3-1.9c4-1,8.3-3.5,5.1-8.3c-2.2-3.3-7.5-1.2-10.6-0.4
	c-1.6,0.4-3.4,0.7-4.9,1.4c-2.1,0.9,1.4,3.5-1.2,4.2c-1.7,0.4-4.4-9.4-3.3-10.4c1.9-1.9,2.2,1.2,2.4,2.1c0.3,1.3,3,0.4,3.9,0.2
	c2.8-0.5,6-1.2,8.6-2.3c4-1.6,3.8-7.1-0.2-8.7c-3.1-1.3-7.6,0.7-10.6,1.4c-1,0.3-2.6,0.4-3.4,1.2c-0.9,1,1.3,2.3,0.1,3.5
	c-2.3,2.3-4.1-7.5-4.5-9c-0.6-2.3,2.7-2.7,2.7-0.5c0,1.7,0.3,2.7,2.4,2.2c2.4-0.1,5.2-1.3,7.5-1.9c1.6-0.4,3.2-0.7,4.8-1.3
	c2.2-0.8,0-2.5,0.2-4c0.1-0.8,1.1-1.2,1.8-1c1.4,0.4,1.1,2.9,1.4,3.9C56.4,453.2,57.5,454.8,56,455.2z"/>
<path fill="none" stroke="#000000" stroke-miterlimit="10" d="M90.7,538.6c-2.6,1.5-5.4,0.6-7.6-1.3c1.2,5.4-2.2,11.2-8.6,9.8
	c-6.1-1.4-8.2-8.4-10.7-13.3c-0.7-1.4-2.1-2.6-2.7-4c-1.7-1.7,0.8-4.3,1.9-2.3c1.1,2.2,1.8,3.7,4.5,2.2c1-0.6,2.1-1.2,3.1-1.7
	c3.2-1.8,6.3-3.5,9.5-5.3c0.7-0.4,1.4-0.7,2-1.1c4-2.3-1.3-5.6,1-6.8c2.1-1.2,5.1,7,5.9,8.2C91.7,526.9,97.3,535.1,90.7,538.6
	C88.2,540,92.6,537.6,90.7,538.6z M74,529.7c-1.8,1-5.2,2.2-6.3,4.1c-1.7,3,4.2,9.6,7.1,10c5.3,0.7,7-4.7,5.2-8.7
	C78.9,532.7,77.1,527.9,74,529.7z M81.4,525.6c-3.1,1.7-2,3.1-0.5,5.6c1.6,2.8,4.3,6.3,7.9,4.3c4.3-2.4,1-7.5-1-10.3
	C85.9,522.5,83.6,524.3,81.4,525.6z"/>
<path fill="none" stroke="#000000" stroke-miterlimit="10" d="M103.8,555.9c2.6-2,1.1-3-0.3-5c-1.4-1.8,1.6-2.7,2.9-0.8
	c1.3,1.9,2.5,3.9,4,5.7c1.8,2.2,3.6,4.4,5.5,6.5c0.6,0.7,1.2,1.5,1.9,2.2c2.3,2.3,1,3.6-1.1,5c-1.7,1.2-3.2,2.8-4.9,4
	c-2,1.5-3.2-1.3-1.4-2.8c2.7-2.9,5.4-3.6,2.6-7.6c-2.4-3.4-4.2-6.7-8.1-3.6c-0.9,0.7-2.4,1.6-3,2.5c-0.7,1.2,2,3.9,3,4.2
	c2.1,0.7,3-3.3,5-2.5c2.3,0.9,0.2,2.8-0.9,3.5c-1.7,1-8.9,8.1-10.3,6.4c-1.3-1.6,1.2-2.7,2.2-3.4c1.8-1.2,0.9-2.6-0.2-4
	c-2.3-3-4.6,0.2-6.8,2c-1.9,1.6-3.3,2.5-1.5,4.9c0.6,0.9,1.3,1.7,2,2.5c2.8,3.5,4.4,5.2,8.3,1.9c1-0.8,3.8-3.3,4.2-0.4
	c0.2,1.8-3.5,3.4-4.5,4.3c-1,0.8-3,3.3-4.5,2.6c-1.2-0.6-2.2-2.7-3-3.7c-3.3-4.5-6.7-9.3-10.6-13.3c-1.7-1.7,0.7-4,2-2
	c1.3,2,2.3,2.9,4.6,1.1C95.2,562.7,99.5,559.3,103.8,555.9z"/>
<path fill="none" stroke="#000000" stroke-miterlimit="10" d="M129.4,609.4c0.8-2,2.7-4.5,0.8-6.2c-1.5-1.4-3.3-3.9-5.2-4.7
	c-1.2-1-7.1,1.2-6.9,3.2c0.2,1.7,4.7,2.7,2.8,4.8c-1.3,1.4-2.8-0.8-3.6-1.7c-1.9-2.2-4.2-3.7-6.4-5.5c-0.9-0.8-0.8-2.6,0.8-2.6
	c1.2,0,1,0.7,1.6,1.2c1.4,1.2,2.5,0.6,4-0.2c4.4-2.2,8.8-4.5,13.2-6.8c2.1-1.1,4.1-2.1,6.2-3.2c2.4-1.2,5.5,0.4,4.3,3.4
	c-2.1,5-4.1,10-6.2,15.1c-0.7,1.7-1.4,3.3-2.1,5c-0.6,1.4-1.4,3.2,0,4.4c0.8,0.8,2.9,1.6,1.6,3.1c-1.4,1.5-8-5.7-9.6-6.9
	c-1.2-0.9-2.5-4.4,0.1-3.4C126.3,608.6,128.4,612.5,129.4,609.4z M133,601.1c1.7-3.7,3.3-7.3,5-11c-3.4,1.9-6.7,3.7-10.1,5.6
	C125.5,597,132.6,601.6,133,601.1z"/>
<path fill="none" stroke="#000000" stroke-miterlimit="10" d="M172.6,627.7c-1.1-0.1-2.1-0.4-3.1-0.8c3.6,3.5,0.5,6.3-1.1,9.7
	c-0.8,1.2-1.2,4.6,1.3,3.7c1.5-0.5,2.4-2.3,3.2-3.6c0.5-0.8,1.2-2.5,2.3-2.4c2.2,0.1,1.3,2.3,0.6,3.3c-1.5,3-4.1,6.8-7.9,5.4
	c-4.7-1.7-4.2-5.4-1.9-8.9c2.5-3.8,3.1-5.9-1.2-8.6c-2.7-1.8-3.9-3.1-5.9,0.1c-0.8,1.3-1.7,2.6-2.5,4c-2,3.4,2.4,2.7,2.8,5
	c0.9,4.3-5.1-0.9-5.7-1.3c-0.2-0.1-10.2-5-5.7-6.1c1.7-0.4,2.4,2.5,4.3,1.7c1-0.4,1.6-1.5,2.2-2.4c1.7-2.6,3.3-5.2,5-7.7
	c1.2-1.9,2.4-3.7,3.6-5.6c1.2-1.9,1.1-3.3-1-4.3c-2.8-1.4-0.5-4.2,1.5-2.1c2.7,1.5,5.2,3.6,7.9,5.1c3.5,2,9.1,4.9,8.3,9.9
	C179.1,625.1,176.1,628.2,172.6,627.7C171.7,627.6,174.9,628,172.6,627.7z M163.1,621.2c2.3,1.5,4.7,3.5,7.4,4c4,0.8,7.2-4,4.7-7.3
	c-1.6-2.1-7.1-6.5-9.4-3.2C164.9,616.2,161.3,620.1,163.1,621.2z"/>
<path fill="none" stroke="#000000" stroke-miterlimit="10" d="M199.2,634.2c1.3-2.9-0.3-3.4-2.7-4.3c-2.2-1,0.3-3.1,2.3-1.9
	c3.9,2.3,8.2,3.1,12.2,5.1c13.6,6.8,5.1,30.1-9.6,26.3c-4.3-1.1-7.8-4.1-12.2-5.3c-1.2-0.3-4.1-0.8-3.3-2.7c1-2.4,4.3,2.1,6.2-0.8
	C195.2,645.8,196.9,639.5,199.2,634.2z M202.6,635.2c-1.4,3.2-2.7,6.4-4.1,9.6c-1.2,2.8-5,8.1-1,10c3.4,1.6,7.3,3,10.7,0.8
	c3.1-2,5.1-5.7,5.9-9.3c0.9-3.7,0.1-7.7-3.2-10C208.9,634.9,203.9,631.6,202.6,635.2z"/>
<path fill="none" stroke="#000000" stroke-miterlimit="10" d="M273.2,673.7c-0.4-2.1-0.3-5.2-2.7-5.5c-2.4-0.4-5.2-1.3-7.6-1.1
	c-1.2,0.1-3.9,5-3.5,6.2c0.8,1.9,4.4-0.1,5.1,1.9c1,2.6-2.7,1.8-3.9,1.5c-2.8-0.7-5.6-0.7-8.4-1.1c-2.1-0.3-1.7-3.1,0.4-2.8
	c1.5,0.4,2.5,0.4,3.4-1.2c2.5-4.4,4.8-8.8,7.2-13.2c1.2-2.2,2.4-4.4,3.6-6.5c1.2-2.1,5-3.5,5.6-0.1c1.9,4.3,2,10.2,2.9,14.8
	c0.4,2.2,0.9,4.3,1.3,6.5c0.2,1,0.4,2.2,1,3.1c1,1.5,2.8,0.4,4.1,1.2c2.5,1.5-1.3,2.5-2.5,2.3c-1.8-0.5-3.5-0.9-5.3-1.1
	c-1.6-0.2-4.2,0.2-5.6-0.7c-0.7-0.4-0.7-1.5-0.2-2.1c0.9-1,2.8-0.1,3.9,0.1C273.5,676.1,273.4,674.8,273.2,673.7z M271.5,664.9
	c-0.7-4-1.3-7.9-2-11.9c-1.7,3.4-3.5,6.8-5.2,10.3C263.1,665.7,271.5,665.7,271.5,664.9z"/>
<path fill="none" stroke="#000000" stroke-miterlimit="10" d="M304.8,661c-0.1,0.4,0,0.8,0,1.2c2.5-3.4,7.3-4.1,10.9-2.1
	c3.4,1.8,3.3,5.2,3.4,8.6c0,2.3,0,4.6,0.1,6.9c0,1.7,0.3,2.7,2.2,2.4c2.9-0.4,2.6,2.8-0.2,2.6c-1.6-0.1-9.3,1-9.3-1.4
	c0-2.5,2.9-0.4,3.8-1.4c0.9-0.9,0.5-3,0.5-4.2c0-2.4,0-4.7-0.1-7.1c-0.2-4.5-5.7-7.1-9.1-3.6c-2.2,2.3-1.6,6.2-1.6,9.2
	c0,1.3,0,2.6,0.1,3.8c0.2,2.5,1.1,1.8,3,1.8c1.4,0,1.9,2,0.6,2.6c-1.5,0.6-3.6-0.2-5.1-0.2c-1.6,0-3.8,0.9-5.4,0.3
	c-2.1-0.8-0.2-2.7,1.3-2.5c3.8,1.1,2.4-9.6,2.4-11.9c0-1.2,0.1-2.4-0.4-3.5c-0.9-1.5-4.2,1.2-4.2-1.6
	C297.6,659.1,304.8,658.7,304.8,661z"/>
<path fill="none" stroke="#000000" stroke-miterlimit="10" d="M346,656.1c2.5-0.4,4.9,0.3,6.6,2.2c-0.3-1.6-0.3-6-1.6-7.1
	c-1.2-1-2.9,1.5-4,0c-1.5-1.9,1.5-2.4,2.7-2.5c3.2-0.2,4.6-1.3,5,2.4c0.4,2.9,0.7,5.8,1.1,8.7c0.6,4,0.5,9.4,2.3,13
	c0.6,1.3,2.7-0.1,3.7,0.1c2.3,0.6,0.1,2.7-1.2,2.8c-2.2,0.1-5.2,1.7-5.3-1.6c-3.6,6.8-13.1,4.3-15.8-1.8
	C336.8,666,338.3,657.4,346,656.1C348.8,655.7,343.2,656.5,346,656.1z M354.3,669.7c-0.2-3.2-0.4-8.3-3.5-10.1
	c-4.5-2.6-8.8,1-9.1,5.6c-0.2,3.5,1,8.4,4.6,9.9C350.1,676.6,354.6,673.8,354.3,669.7C354.2,668.7,354.4,671.1,354.3,669.7z"/>
<path fill="none" stroke="#000000" stroke-miterlimit="10" d="M398.6,641.3c-1.8-4.4-3.4,0-5.9-1.2c-3.4-1.7,2.1-3.2,3.1-3.5
	c2.7-0.7,4.7-2.4,7.2-3.2c1-0.4,3,0.1,2.2,1.7c-0.7,1.5-3,0.7-3.7,2.3c-1.1,2.4,2.5,8.4,3.3,10.5c0.9,2.2,2.3,8.9,4.8,10
	c1.2,0.5,5.6-2.8,5,0.7c-0.3,1.7-3.8,1.8-5,2.2c-1.8,0.6-4.5,1.5-5.9,2.9c-2.5,1.3-3.6-1.9-0.7-2.7c4.2-0.7,0.4-7.2-0.5-9.4
	C401.2,648,399.9,644.7,398.6,641.3z"/>
<path fill="none" stroke="#000000" stroke-miterlimit="10" d="M423.2,629c-0.5-1.1-3.6,1.1-4.8-1.1c-1.9-3.5,3.3-5.3,5.5-2.6
	c1.9,2.4,2.1,6.3,1.2,9.1c-0.2,0.7-1.2,1.8-1.8,0.6C422.4,633.7,424.1,630.7,423.2,629z"/>
<path fill="none" stroke="#000000" stroke-miterlimit="10" d="M446.6,620c0.2,0.4,0.5,0.7,0.7,1c0.3-4.9,4.9-9.2,9.9-7.1
	c0.3-4.7,4.8-9.1,9.8-8c3.4,0.7,5.3,4.6,7.2,7.2c0.6,0.9,3.5,6,4.9,4.9c0.7-0.5,1.2-1.8,2.3-1.6c0.9,0.1,1.5,1.3,1,2.1
	c-1,1.7-4,2.6-5.5,4c-0.7,0.6-4.8,3.3-4.2,0.1c0.3-1.6,3.2-1.1,2.1-3.1c-1.3-2.4-3.1-4.7-4.8-6.9c-1.2-1.8-2.8-4-5.3-3.9
	c-2.1,0.1-4.4,1.8-4.8,3.9c-0.6,3.4,3.2,7.2,5.1,9.8c0.5,0.7,2.3,3.8,3.5,2.9c0.7-0.5,0.9-1.5,2.1-1.3c1,0.1,1.4,1.3,0.9,2.1
	c-1.1,1.5-3.3,2-4.7,3.2c-0.6,0.5-5.3,4.4-4.7,0.8c0.3-2.2,3.7-0.8,1.7-3.8c-0.4-1.1-1.4-2.3-2.1-3.1c-1.7-2.3-3.5-5.9-6.2-7
	c-4.6-1.8-6.6,4.7-5.1,7.9c1.4,2.8,3.6,5.5,5.5,8c1.5,1.9,1.5,0.8,2.9,0.1c1.9-1.3,3.2,1.1,1.4,2.4c-1.1,0.8-8.9,7.2-9.1,3.8
	c-0.2-2.9,4.6-1,1.7-5.1c-1.4-2-2.9-4-4.3-6c-0.9-1.2-1.7-2.4-2.7-3.5c-1.8-2-2.4,1.4-4.1,1.2C438.1,624.5,445,617.8,446.6,620z"/>
<path fill="none" stroke="#000000" stroke-miterlimit="10" d="M511.4,581.8c-2.1-1.7-14.2-13.8-16.6-10.9c-0.8,0.8-1.5,3.2-3,1.8
	c-1-0.9-0.3-2.1,0.5-2.8c1.6-2.2,3.7-4,5.3-6.3c3.8-5.5,11-12.4,16.7-4.4c3.5,5-1,9.9-3.9,13.8c-0.1,0.1-1.6,1.7-1.5,2.1
	c0.3,1.1,2.7,2.5,3.4,3c2.4,1.9,3.9,3.2,6,0.1c1.5-2.3,3,0.4,1.6,2.3c-1.4,1.9-3.5,3.1-4.8,5.3c-0.6,1-1.6,3.5-3.1,3.4
	c-1.9-0.2-1.1-2.2-0.2-3C513.6,584.9,512.9,583,511.4,581.8z M499.2,566.8c0.5,1.6,3.8,3.5,5.1,4.6c2.9,2.4,4.6-0.8,6.4-3.4
	c2.3-3.4,2.1-8.6-3-9.2C505,558.5,498.3,563.9,499.2,566.8z"/>
<path fill="none" stroke="#000000" stroke-miterlimit="10" d="M535.4,529.9c-0.1,1.1-0.4,2.2-0.7,3.2c3-3.4,6.7-1.4,9.8,0.7
	c1.2,0.7,4.6,1,3.7-1.5c-0.6-1.5-2.5-2.2-3.8-3c-0.8-0.5-2.6-1.1-2.5-2.3c0.1-2.2,2.2-1.4,3.3-0.7c3,1.3,6.9,3.8,5.7,7.6
	c-1.5,4.5-5,4.4-8.5,2.4c-3.8-2.2-6.1-3.4-8.7,1.2c-1.3,2.1-3.2,4.1-0.5,5.7c3.4,2,6.6,5,8.9,0.4c1.1-1.8,3.2,0.1,2.2,1.8
	c-0.2,0.8-1.3,1.7-1.7,2.3c-0.8,1.1-3.7,9-5.9,7.7c-2-1.2,0.8-2.9,0.9-4.3c0.1-1.4-1.3-2.2-2.3-2.7c-2.5-1.5-5-2.9-7.6-4.4
	c-2.1-1.2-4.2-2.5-6.3-3.7c-1.2-0.7-3-1.4-3.9,0.2c-0.3,0.7-0.7,2.2-1.6,2.4c-1.7,0.5-1.9-1.5-1.3-2.5c1.3-2.7,3.3-5.2,4.8-7.9
	c1.9-3.6,4.2-9.2,8.9-9.4C531.8,523,535.7,526.2,535.4,529.9C535.3,530.8,535.6,527.6,535.4,529.9z M529.3,539.8
	c1.4-2.4,3.2-4.9,3.7-7.6c0.7-4-4.3-6.9-7.4-4.3c-2.1,1.7-6.2,7.5-2.7,9.5C524.3,538.2,528.2,541.5,529.3,539.8z"/>
<path fill="none" stroke="#000000" stroke-miterlimit="10" d="M565.2,503.9c-5.5,14.6-32.1,5.4-28.1-9.4
	C541.7,477.6,571.1,488.2,565.2,503.9C563.9,507.3,566.5,500.4,565.2,503.9z M540.4,494.3c-4.1,10.9,18,19.3,22.1,8.5
	C566.6,492.1,544.5,483.4,540.4,494.3z"/>
<path fill="none" stroke="#000000" stroke-miterlimit="10" d="M554.5,463.2c4.5,0.9,8.9,2.4,13.5,3c5.1,0.7,8.3-4.4,6.9-9.1
	c-1.1-3.5-5.4-3.8-8.4-4.5c-2.5-0.5-5-1-7.5-1.6c-1.4-0.3-3.1-0.9-4.6-0.6c-2.4,0.5-0.8,4.9-3.3,4.5c-2.5-0.6,0.4-6.6,0.6-8.1
	c0.2-1.2-0.1-2.6,0.3-3.7c0.5-2.4,3.2-1.5,2.7,0.8c-0.9,4.1,12,5,15.3,5.7c4.7,1.1,8.1,3.9,8,9.1c-0.1,4.5-2.1,10-7,11
	c-2.1,0.5-21.2-5.2-21.2-2.1c-0.4,1.1-0.9,3.4-2.6,2c-1.3-1.1,1-5.1,1.2-6.5c0.3-1.4-0.2-6,1.6-6.6c3.2-1.1,1.1,3.4,1.3,4.4
	C551.4,462.4,553.3,463,554.5,463.2z"/>
<path fill="none" stroke="#000000" stroke-miterlimit="10" d="M559.6,424.6c-3.1-0.2-3.1,1.5-3.1,4c-0.2,2.5-3,0.8-2.6-1.5
	c0.7-4.4,0-8.7,0.5-13.1c1.6-15.1,26.2-15.4,28-0.3c0.5,4.4-1.1,8.8-0.6,13.2c0.1,1.2,0.8,4.1-1.3,4c-2.5,0,0.2-4.8-3-5.5
	C571.8,424.3,565.4,424.9,559.6,424.6z M559.3,421.1c3.8,0.2,7.5,0.3,11.3,0.5c3.1,0.1,8.5,1.6,8.9-2.7c0.3-3.3,0.5-7.2-2.2-9.7
	c-3-2.7-7.2-3.4-11.1-3c-4,0.4-7.6,2.5-8.7,6.6C556.8,415.2,555.6,420.9,559.3,421.1z"/>
<path fill="none" stroke="#000000" stroke-miterlimit="10" d="M563.9,312.9c0,9.8-15.2,9.8-15.2,0S563.9,303.2,563.9,312.9z"/>
<path fill="none" stroke="#000000" stroke-miterlimit="10" d="M59.6,305.4c9.8,0,9.8,15.2,0,15.2S49.8,305.4,59.6,305.4z"/>
</svg>
