<?xml version="1.0" encoding="utf-8"?>
<!-- Generator: Adobe Illustrator 18.0.0, SVG Export Plug-In . SVG Version: 6.00 Build 0)  -->
<!DOCTYPE svg PUBLIC "-//W3C//DTD SVG 1.1//EN" "http://www.w3.org/Graphics/SVG/1.1/DTD/svg11.dtd">
<svg version="1.1" id="Layer_1" xmlns="http://www.w3.org/2000/svg" xmlns:xlink="http://www.w3.org/1999/xlink" x="0px" y="0px"
	 viewBox="124.7 63.5 316.6 531.2" enable-background="new 124.7 63.5 316.6 531.2" xml:space="preserve">
<g transform="matrix( 1, 0, 0, 1, 0,0) ">
	<g>
		<g id="Layer0_0_FILL">
			<path fill="#50C29C" d="M320,379.9c-0.6-1.1-1.5-2.5-2.5-4.2h-0.4C317.9,377,318.9,378.4,320,379.9z"/>
			<path fill="#40AA87" d="M342.9,302.4c0-0.1-0.1-0.1-0.1-0.1h0c0,0,0,0.1,0,0.1H342.9z"/>
		</g>
	</g>
	<g>
		<path id="Layer0_0_1_STROKES" fill="none" stroke="#000000" stroke-linecap="round" stroke-linejoin="round" d="M193.1,338.8
			c-0.5,1-1.1,2-1.6,3c0.3,2.2,1.5,6,3.8,11.3c2.1,4.2,1.9,6.6-0.5,7.5l-1,0c-1.6-1.1-3.2-3.3-4.8-6.6c0,0.5,0,1,0,1.5
			c2.1,6.5,1.8,10.4-0.8,11.6l-1.4-0.1c-2.1-1.2-4.2-4.4-6.2-9.5c0-0.2-0.1-0.4-0.2-0.6c0.5,3,0.7,5.7,0.5,8
			c-0.1,1.6-1.5,2.6-4.2,3.1c-2.4-0.8-4-2.2-4.8-4.1c-3.1-7.1-4.4-15.4-3.7-24.9c0.5-7.1,1.2-12.6,2.1-16.4c0.3-1.5,1.1-4.2,2.2-8.1
			c2.2-9.1,5.2-18,9.2-26.5c3.1-6.9,7.4-13,12.7-18.1c0.8-6.8,2.5-14,5.2-21.7c0.1-0.4,0.3-0.9,0.4-1.3c-0.1-0.2-0.2-0.4-0.3-0.6
			c-0.8-2.3-1.3-4.5-1.7-6.7c-4.9-1.3-9.5-3.5-13.6-6.6c-5.1-4.1-9.7-7.9-13.7-11.4c-4-3.4-7.4-6.4-10.3-9.1
			c-6.7-6.3-13.1-13.6-19-21.8c-0.6-0.8-1.1-1.6-1.6-2.3c-6.4-9.2-10.4-16.7-11.9-22.4c-1.7-6.1-2.6-11.7-2.8-16.9
			c5.3-3.4,10.7-6.5,16.2-9.3c8.9-4.8,18.3-8.9,28-12.6c0.4-0.2,0.8-0.3,1.2-0.5c0,0,0,0.1,0,0.2l0.1,0c0-0.2,0-0.5,0-0.7
			c0-9.5,3.8-17.7,11.3-24.4c6-5.3,12.9-8.6,20.8-9.7L225.9,64l8.6,5.3l-19.6,22.7c8.3,1,15.5,4.2,21.8,9.8c1.5,1.3,2.8,2.6,3.9,4.1
			l8.1-2.4c1.5-2.4,3.4-4.6,5.6-6.7c7.4-7,16.4-10.6,26.8-10.6c10.5,0,19.4,3.5,26.8,10.6c2.1,1.9,3.8,4,5.3,6.2
			c0.5,0.7,1,1.5,1.4,2.3l43-24.4l8.7,9.3l-40,21.6c7.9,1.6,16,3.8,24.1,6.6c-0.1,3.8-0.5,8-1.4,12.8c0,0.1-0.1,0.2-0.1,0.3
			l-0.6,3.1c0,0.1,0,0.2,0,0.2c-0.5,2.4-1.1,4.9-1.8,7.6c-0.2,0.7-0.4,1.4-0.6,2.1c-0.5,1.8-1.1,3.7-1.7,5.7
			c-0.4,1.4-0.9,2.9-1.4,4.4c-0.9,2.8-1.9,5.6-3,8.6c-0.1,0.1-0.1,0.2-0.1,0.3c-0.5,1.3-0.9,2.6-1.4,3.9c-0.3,0.6-0.5,1.2-0.7,1.8
			c-0.4,1.1-0.9,2.1-1.2,3.2c0,0.1-0.1,0.2-0.1,0.3c0,0.1-0.1,0.2-0.1,0.2c-0.7,1.8-1.5,3.6-2.2,5.4c-0.9,2.1-1.8,4.2-2.6,6.2
			c-0.1,0.3-0.2,0.5-0.4,0.8c-0.5,1-0.9,2.1-1.4,3.1c-1.3,2.7-2.6,5.3-3.9,7.8c-1.6,3.2-3.3,6.2-5,9c-0.1,0.2-0.2,0.4-0.4,0.6
			c-0.7,1.1-1.3,2.2-2,3.2c-0.1,0.1-0.2,0.2-0.2,0.4c-0.7,1.1-1.4,2.1-2,3c0,0,0,0.1,0,0.1c0.2,1.1,0.3,2.2,0.5,3.2
			c0,0.2,0.1,0.4,0.1,0.6c0.6,4,1.1,6.5,1.3,7.4c5.6-3.5,12-6.3,19.4-8.6c7.5-2.3,13.5-3.5,17.9-3.5c4.4,0,9.6,2.1,15.6,6.2
			c6.4,4.2,11.4,9.1,15,14.9c-0.8,1.1-3.9,2.1-9.2,2.9c-4.2,0.6-7.6,0.9-10.3,0.9c0,0.3-0.1,0.4-0.5,0.4c2.9,4.8,6.8,10.3,11.8,16.6
			c2.6,3.3,6.3,7.9,11.1,13.8c0.3,0.5,0.6,1,1,1.4c3,3.9,5.5,7.6,7.6,11c3.8,6.8,5.8,12.7,5.8,17.8c0,11-6.1,20.7-18.4,29
			c-4.5,3-9.2,5.5-14.1,7.3c-3.9,1.5-6.9,2.4-9.1,2.5l1,1.4c0.5,0.8,1.1,1.5,1.8,2.3c3,4.1,5.9,7.9,8.8,11.5c1,1.4,2.1,3,3.3,4.8
			c0.5,0.8,1.1,1.5,1.7,2.4c0.1,0.1,0.2,0.3,0.3,0.4c0.2,0.2,0.4,0.5,0.5,0.8l1.8,2.5c0.1,0.1,0.1,0.2,0.2,0.4
			c0.2,0.3,0.5,0.6,0.7,1l2.2,3c0.2,0.2,0.3,0.5,0.5,0.7c0.1,0.1,0.1,0.1,0.2,0.2c0.4,0.6,0.8,1.1,1.2,1.8c1.3,1.9,2.7,3.8,4.2,5.9
			c0.1,0.2,0.3,0.4,0.4,0.5c0.3,0.4,0.6,0.8,0.8,1.2c0.1,0.1,0.1,0.1,0.2,0.2c1.4,2,2.8,4,4.2,6c0.1,0.2,0.3,0.4,0.4,0.6
			c0.6,0.8,1.1,1.6,1.6,2.4c0.1,0.2,0.2,0.3,0.4,0.5l0.2,0.3c0.1,0.2,0.3,0.4,0.5,0.6c0.1,0.2,0.3,0.5,0.5,0.7
			c0,0.1,0.1,0.1,0.1,0.1c1,1.5,2,3,3,4.4c0,0,0.1,0.1,0.1,0.2c0.1,0.2,0.2,0.4,0.4,0.6l0.1,0.2l1.4,2c1.2,1.8,2.3,3.6,3.4,5.3
			c0.8,1.3,1.6,2.5,2.4,3.8c1.3,2.1,2.5,4.1,3.6,6.1c0.1,0.1,0.1,0.2,0.2,0.4c0.2,0.3,0.3,0.5,0.5,0.9c0,0,0,0.1,0,0.1
			c0.4,0.7,0.8,1.4,1.1,2.1c0.9,1.5,1.7,3.1,2.5,4.6c0.1,0.3,0.3,0.5,0.5,0.8c0.4,0.8,0.9,1.7,1.3,2.5c0.1,0.1,0.1,0.3,0.2,0.4
			c0.3,0.6,0.6,1.1,0.9,1.7c0.2,0.4,0.4,0.9,0.6,1.3c0,0.1,0.1,0.2,0.1,0.3c0.3,0.6,0.5,1.1,0.8,1.6c0.4,0.9,0.8,1.8,1.2,2.8
			c1.2,2.5,2.3,5,3.3,7.5c0,0,0,0.1,0,0.1c0.2,0.4,0.4,0.9,0.5,1.3c0.5,1.2,0.9,2.3,1.4,3.5c0.3,0.8,0.6,1.6,0.9,2.5l1.1,3.2
			c0,0.1,0,0.1,0,0.2c0.3,1,0.7,2,1,2.9c0.5,1.6,1.1,3.3,1.6,4.9c0,0,0,0.1,0,0.1v0c0.6,1.9,1.1,3.9,1.6,5.9l4.1,20.5
			c0,0.1,0,0.2,0.1,0.3l0.1,0.9c0.2,1.2,0.3,2.4,0.5,3.6c0,0,0,0,0,0.1c0.1,0.5,0.1,1.1,0.2,1.6l0.2,3.3c0,0.2,0,0.4,0,0.6
			c0.1,1.7,0.2,3.5,0.4,5.2c0,0.2,0,0.3,0,0.5c0,0.9,0.1,1.8,0.1,2.8v0c0,1.5,0,2.9,0,4.4c0,0.5,0,1,0,1.5l0,0.7c0,0.1,0,0.2,0,0.4
			c0,0,0,0.1,0,0.1c0,0.2-0.1,0.4-0.1,0.6c0,0.1,0,0.2,0,0.3c-0.1,0.8-0.2,1.7-0.3,2.6c-0.1,0.8-0.2,1.6-0.4,2.4
			c-0.1,0.3-0.1,0.6-0.2,0.9c-0.3,1.5-0.6,3-1,4.5c-0.1,0.5-0.3,0.9-0.4,1.4c-0.2,0.5-0.3,1.1-0.5,1.6c-0.5,1.8-1.2,3.6-1.9,5.5
			c-0.1,0.3-0.2,0.6-0.4,0.9c-0.1,0.1-0.1,0.3-0.1,0.4c-0.1,0.2-0.2,0.5-0.3,0.7c-1.3,3.1-2.8,6.3-4.4,9.7c-0.3,0.6-0.7,1.3-1,1.9
			c-0.1,0.2-0.2,0.4-0.3,0.6c-0.1,0.2-0.2,0.5-0.4,0.7l-0.3,0.7c-0.5,0.8-0.9,1.6-1.4,2.4c-0.1,0.1-0.2,0.3-0.2,0.5
			c-0.1,0.1-0.1,0.1-0.1,0.2c-0.3,0.5-0.6,1-0.9,1.5c-0.3,0.5-0.6,1-0.9,1.5c-0.3,0.5-0.6,1-0.9,1.5c-0.4,0.6-0.8,1.2-1.2,1.8
			c-0.4,0.6-0.8,1.2-1.2,1.9l-2,2.9c-0.2,0.3-0.5,0.6-0.7,0.9h0c-0.2,0.3-0.4,0.5-0.5,0.8c-1.6,2.1-3.2,4.1-4.9,6
			c-0.6,0.6-1.1,1.2-1.6,1.8c-0.1,0-0.1,0.1-0.2,0.2c-0.4,0.4-0.9,0.9-1.3,1.3c-2,2-4.1,3.9-6.2,5.6c-0.2,0.1-0.3,0.3-0.5,0.4
			c-0.6,0.4-1.1,0.9-1.7,1.3c-0.7,0.4-1.3,0.8-1.9,1.2c-0.3,0.2-0.6,0.4-0.9,0.6c-0.4,0.3-0.9,0.5-1.2,0.8c-0.4,0.2-0.9,0.5-1.2,0.8
			c-1.4,0.8-2.7,1.6-3.9,2.3c-1.2,0.7-2.3,1.3-3.4,1.8c-0.5,0.2-0.9,0.5-1.4,0.7c-1.6,0.8-3.1,1.5-4.4,2c-0.5,0.2-0.9,0.4-1.4,0.6
			c-0.1,0-0.2,0.1-0.3,0.1h-0.1c-0.7,0.2-1.3,0.4-1.9,0.6c-3.8,1.1-6.5,1.9-8.1,2.6c-0.4,0.1-0.7,0.3-1,0.4
			c-1.2,0.6-4.9,1.3-11.1,2.1c-1,0.1-2,0.2-3.1,0.3c-0.1,0-0.3,0.1-0.4,0.1c-1.5,0.2-3,0.3-4.5,0.4c-0.4,0-0.7,0-1,0.1
			c-0.2,0-0.4,0-0.6,0c-2.6,0.1-5.3,0.2-8,0.2c-4.4,0-9-0.2-13.7-0.7c-3.4-0.3-7-1.1-10.8-2.3c-3.6-1.2-7.5-2.8-11.5-4.9
			c-4.5-2.3-9.2-5.1-14.2-8.5c-13.1-8.9-19.6-18.5-19.6-28.8c0-6.8,3.7-11.8,11.2-15c5-2.3,10.2-3.4,15.6-3.4c8.4,0,16.4,2.6,24,7.9
			c7.4,5.2,11.2,10.6,11.2,16.1c0,3-1.7,5.4-5.2,7.2c-2.8,1.6-5.9,2.4-9.2,2.4c-2.8,0-5.1-0.5-6.9-1.4c-2.6-1.3-3.9-3.3-3.9-6.1
			c0-1,1.1-1.8,3.4-2.4c2.2-0.6,3.2-1.4,3.2-2.2c0-2.2-2-3.6-6.1-4.2c-1.7-0.3-4-0.5-7-0.5c-3.4,0-5.6,0.3-6.5,1
			c-1,0.6-1.5,2.4-1.5,5.3c0,5.5,3.9,10.3,11.7,14.3c7.3,3.7,16.2,6.2,26.8,7.5c10.5,1.1,21.1-1.3,31.9-7.2c10.8-6,17.1-18,19.1-36
			c2-17.9-0.7-33.1-8-45.6c-4.4-7.3-9.2-14.7-14.2-22.2c-1.3-0.5-2.4-0.9-3.4-1.2c-7.5-2.8-15.1-5.3-22.9-7.5
			c-5.7-1.6-11.4-3-17.1-4.1c-1,4.8-1.4,7.9-1.3,9.2c7.7-7.8,14.7-5.5,20.9,6.8c7.2,14.2,11.1,26.7,11.8,37.5
			c0.5,10.8-1.1,16.2-5,16.2c-2.7,0-5.6-2.2-8.7-6.6c-3-4.2-4.5-7.9-4.6-11.1c0,1.2,0.2,5.1,0.6,11.8c0.1,6.2-0.8,9.2-2.8,9.2
			c-3,0-5.6-1.9-7.7-5.7c-2.5-4.4-3.7-10.7-3.7-18.9c0-5.7,0.4-9.8,1.1-12.2c2.1-7.2,2.8-9.9,2.2-7.9c-0.3-0.2-1.8,1.2-4.4,4.1
			c-3.4,3.8-6.9,5.7-10.3,5.7c-6.8,0-13.7-4.2-20.7-12.8c-6.3-7.7-10.4-18-12.4-30.9c-0.1-0.6-0.1-1.2-0.1-1.8
			c0-0.6-0.1-1.1-0.1-1.6c-3.6-1.1-7.2-2.3-10.6-3.7c-0.1,0.3-0.1,0.7-0.2,1c-0.4,2.2-1.2,5.1-2.3,8.6c1.5-0.6,2.7-0.9,3.5-0.9
			c2.9,0,6.1,3.7,9.6,11c3.5,7.2,5.2,13.4,5.2,18.7c0,4.2-0.3,8.1-1,11.8c-1,5.3-2.4,7.9-4.2,7.9c-2.2,0-4.1-1.6-5.8-4.8
			c-1.6-3-2.3-6-2.1-9.1c-0.8,3.1-1.5,7.7-2,13.7c-1,4.3-3.4,6.5-7.4,6.5c-1.7,0-3-1.2-4.1-3.6c-1.3-2.5-1.9-5.8-1.9-10.1
			c0-4.8,0.9-10,2.8-15.6c1.9-5,3-7.9,3.2-8.7c-1.5,1-3.7,2.8-6.6,5.4c-1.4,1.1-3,1.6-4.8,1.6c-4.9,0-8.8-2.4-11.8-7.1
			c-3.1-4.8-4.6-11.4-4.6-19.6c0-4.8,0.6-11.3,1.8-19.5c0.4-2.6,0.8-4.9,1.2-6.9c0-0.1,0-0.3,0.1-0.6l-0.1-0.1
			c-0.2-0.2-0.3-0.2-0.4-0.2c-0.6-0.6-0.8-0.9-0.6-0.9c-5.9-6.6-10.8-14.4-14.4-23.2c-6.3-15.2-10.4-36.9-12.2-65.1
			c-0.2-2.9-0.4-5.8-0.5-8.8C199.8,326.5,196.3,332.5,193.1,338.8z M346,149.8L346,149.8L346,149.8C346,149.8,346,149.8,346,149.8z
			 M344.2,150.1c-0.7,0-1.7,0.1-2.9,0.1c-3.9,0-6,0.1-6.2,0.1c-1,0.1-2.1,0.2-3.4,0.6c-1.7,0.4-2.9,0.9-3.6,1.4
			c-0.7,0.4-1.4,1.2-2.3,2.2c-1,1.2-1.5,2-1.5,2.5c-0.6,0.2-1.2,0.4-1.8,0.6c-1,0.4-2,1.2-3,2.6c-0.8,1.2-1.3,1.9-1.5,2.1
			c-0.4,0.6-0.5,1.3-0.5,1.9c0,0.3,0.2,0.9,0.6,1.9c0.4,1,0.6,1.8,0.6,2.4c0,0.4,0.4,0.8,1,1c0.2,0.1,2.6,0.9,7.2,2.4
			c0.3,0.1,1.9,0.3,4.9,0.5c2.1,0.2,3.5,0.3,4.2,0.4 M330.9,185.3c-0.4-0.1-1.1-0.1-2-0.1c-1,0-3.9,0.7-8.6,2.1
			c-4.7,1.4-9.8,3.6-15.3,6.6c-5.5,3-8.2,5.6-8.2,7.9c0,1.1,1,2.2,3,3.2c2,1,4.1,1.5,6.2,1.5c4.9,0,9.8-0.5,14.7-1.4 M366.2,236.2
			c-3.3-0.6-6.6-1-10.1-1.4c-6.4-0.7-13.6-1.1-21.4-1.1c-5.9,0-10.4,0.2-13.5,0.8c-0.2,0-0.3,0.1-0.5,0.1c0.1,0.2,0.1,0.3,0.2,0.5
			c0,0.1,0.1,0.3,0.1,0.4l0.4,1.2c0,0.2,0.1,0.5,0.2,0.8c0.2,0.8,0.4,1.6,0.6,2.4c-1.6,0.8-3.1,1.7-4.6,2.5c-0.3,0.2-0.7,0.4-1,0.6
			c-3,1.7-5.8,3.3-8.4,5.1h0c0,0-0.1,0-0.1,0.1h0c-1.3,0.8-2.5,1.6-3.8,2.4c-0.6,0.4-1.2,0.8-1.9,1.2c-0.1,0.1-0.2,0.1-0.3,0.2
			c-2.6,1.8-5,3.6-7.3,5.4c-0.8,0.6-1.5,1.2-2.2,1.8c-0.1,0.1-0.3,0.2-0.4,0.3c-0.3,0.2-0.5,0.4-0.8,0.6c-0.7,0.6-1.3,1.1-1.9,1.7
			l-4,3.8c0,0,0,0.1,0,0.1c-0.1,0.1-0.2,0.2-0.3,0.3c-0.1,0.1-0.1,0.1-0.2,0.2l-2,2.2c-0.2,0.2-0.4,0.5-0.6,0.7h0
			c-1.2,1.5-2.4,3-3.4,4.5c-4.7,6.9-7.5,15.1-8.2,24.6c-0.2,1.8-0.2,3.7-0.2,5.6l0.3,3.6c0,0.2,0.1,0.4,0.1,0.5
			c0.1,1,0.3,2.1,0.5,3.1c1.9,9.8,6.8,17.7,14.8,23.6c1.5,1.1,3,2.1,4.5,2.9c-0.2-1.9-0.3-3.9-0.4-5.8c-0.1-1.5-0.1-3-0.1-4.5
			c0-10.4,0.7-19.2,2.1-26.5c0.1-0.3,0.1-0.8,0.3-1.4c-0.1-0.8-0.1-1.5-0.1-2.3c0-0.1,0-0.3,0-0.4c0-1,0-2,0.1-2.9
			c0.1-1.1,0.2-2.2,0.3-3.2c0.1-1,0.3-2,0.6-2.9c0.1-0.6,0.3-1.1,0.4-1.7c0.6-2.1,1.5-4.2,2.5-6.2c0.3-0.6,0.6-1.2,1-1.8
			c1.1-1.9,2.3-3.7,3.8-5.4c0.1-0.1,0.1-0.2,0.2-0.2c0.1-0.1,0.1-0.2,0.2-0.3c0.1-0.1,0.1-0.2,0.2-0.2c0.1-0.1,0.1-0.2,0.1-0.2
			c0.2-0.3,0.4-0.5,0.5-0.8l1.2-1.6c0.3-0.4,0.7-0.9,1-1.3h0c0,0,0.1-0.1,0.1-0.1l3.7-4.4c0.1-0.2,0.3-0.3,0.4-0.5
			c0.1-0.2,0.3-0.4,0.5-0.5c0.2-0.2,0.3-0.3,0.5-0.5l2.1-2.4c0.2-0.2,0.3-0.4,0.5-0.5c0.7-0.8,1.4-1.5,2.1-2.2
			c0.4-0.5,0.9-0.9,1.4-1.4c0.7-0.7,1.5-1.5,2.2-2.2c0.4-0.4,0.8-0.8,1.2-1.2c0.7-0.7,1.5-1.4,2.2-2.1c0.1-0.1,0.2-0.2,0.3-0.3
			c0,0,0-0.1,0.1-0.1c0.5-0.5,1-1,1.5-1.4c0.2-0.2,0.4-0.4,0.5-0.6c0.1,0.2,0.1,0.5,0.2,0.7c0.1,0.5,0.3,1.1,0.5,1.7v0l1.2,4.8
			c0.4,1.6,0.9,3.2,1.3,4.9c0,0.1,0.1,0.3,0.1,0.4l0.6,2.1c0,0.2,0.1,0.3,0.1,0.5c0,0.1,0.1,0.1,0.1,0.2h0c0.1,0.5,0.2,1,0.4,1.5
			l0.4,1.5c0.1,0.5,0.2,1,0.4,1.5l0.3,1.2c0.1,0.3,0.2,0.6,0.2,0.9c0.3,1.2,0.7,2.4,1,3.6c0,0.1,0.1,0.3,0.1,0.5v0
			c0,0.1,0.1,0.2,0.1,0.3c0.6,2.2,1.7,5.4,3.4,9.6c0.2,0.5,0.4,1,0.6,1.5l3.2,7.4c0,0,0,0.1,0,0.1c0.3,0.7,0.6,1.4,0.9,2.1l1.2,2.8
			c0,0.1,0.1,0.1,0.1,0.2c0.1,0.3,0.3,0.6,0.4,0.9l0.1,0.1c0.3,0.8,0.7,1.6,1,2.4l0.3,0.6c0.1,0.2,0.2,0.4,0.3,0.6h-0.1
			c0,0,0.1,0.1,0.1,0.1c0.2,0.5,0.5,1,0.6,1.5l3,6.3c0.2,0.4,0.3,0.7,0.5,1.1c0,0.1,0.1,0.1,0.1,0.1l3.4,6.9
			c-2.1,1.3-4.4,2.6-6.9,3.9c-2.1,1-4.1,2-6.1,2.8c-3,1-5.9,1.7-8.8,2c-0.1,2-0.2,4-0.2,6c-0.1,2.5-0.1,4.9-0.2,7.4
			c4.1-1.3,8-3.2,11.7-5.6c2.3-1,4.6-2.2,7-3.5c3.1-1.7,5.7-3.2,7.9-4.7c1.2,2,2.7,4.1,4.4,6.5c0.6,0.9,1.2,1.8,1.9,2.8 M328.8,327
			c0-0.5,0.1-1,0.1-1.5c0.1-0.9,0.1-1.8,0.2-2.7c0-0.2,0-0.4,0-0.6c0.1-2.4,0.3-4.7,0.4-7.1c0.1-1.1,0.1-2.3,0.2-3.4
			c0-0.1,0-0.3,0-0.5c0.1-2,0.2-4,0.3-6 M320,379.9c0.9,1.1,1.9,2.2,2.9,3.2c3.6,3.7,6.7,5.5,9.2,5.5c1.6,0,2.8-0.5,3.6-1.4
			c0.9-1.1,1.3-3,1.3-5.8c0-2.3-0.6-4.7-1.8-7c-1.5-2.2-2.4-3.6-2.9-4.5c3,2.7,5.2,4.3,6.8,4.8c2.7,1.3,5.6,1.5,8.5,0.6
			c1.3-0.5,2.2-1.4,2.7-2.7c-0.8-2.9-2.3-5.2-4.6-7c-0.8-0.6-1.6-1.1-2.5-1.5c-3-1.5-6.2-2.5-9.6-3c-1.4-0.2-2.7-0.7-3.8-1.4
			c-0.4-0.3-0.7-0.5-1-0.9c-0.3-6.2-0.4-12.3-0.4-18.4 M376.3,356c-0.6,0.5-1.2,1-1.8,1.5c-1.4,1.2-2.5,2.3-3.2,3.2l-0.2,1.4
			c0,0.2,0.1,0.5,0.4,0.9c0.2,0.3,0.4,0.6,0.4,0.8c-2.3,2.1-4.8,4.5-7.6,7.3c-5.5,5.5-9.4,10-11.6,13.5v1.5c1.7,2.4,3.7,3.2,6,2.2
			c2.3-0.9,5.1-2.1,8.5-3.5c3.4-1.4,5.3-2.2,5.7-2.2c0.3-0.1,2-0.4,5.1-1.1c3.2-0.7,5.2-1.2,5.9-1.4c1.5-0.5,4-1.6,7.3-3.3
			 M209.6,98.1c8.6,0,16,2.8,22.1,8.3c4.9,4.4,7.8,9.5,8.8,15.3c0.3,1.5,0.4,3,0.4,4.6c0,7.8-3.1,14.5-9.2,20
			c-6.1,5.5-13.5,8.3-22.1,8.3s-16-2.8-22.1-8.3c-1.7-1.5-3.2-3.1-4.4-4.8c-3.2-4.5-4.8-9.5-4.8-15.2c0-7.8,3.1-14.4,9.1-19.9
			C193.6,100.9,201,98.1,209.6,98.1z M240.5,105.9c0.5,0.6,1,1.3,1.5,1.9c1,1.4,1.9,2.8,2.7,4.2c0.1-0.3,0.1-0.5,0.2-0.8
			c0.9-2.8,2.1-5.4,3.8-7.8 M219.7,128.8c0,2.6-0.9,4.8-2.6,6.6c-1.7,1.9-3.8,2.8-6.2,2.8h-0.1c-2.4,0-4.4-0.9-6.1-2.8
			c-1.7-1.8-2.6-3.9-2.6-6.6c0-2.6,0.9-4.8,2.6-6.7c1.7-1.8,3.7-2.7,6.1-2.7h0.1c2.4,0,4.5,0.9,6.2,2.7
			C218.8,124,219.7,126.2,219.7,128.8z M326.2,111.8l-7.8,4.2c0.3,2,0.5,4,0.5,6.2c0,1.7-0.1,3.3-0.3,4.9c-1,7.5-4.3,14.1-10,19.8
			c-0.3,0.3-0.5,0.5-0.8,0.8c-7.4,7-16.3,10.6-26.8,10.6c-10.4,0-19.4-3.5-26.8-10.6c-3.5-3.3-6.1-6.9-7.9-10.9c0,0-0.1,0-0.1,0.1
			c-1.8,5.2-5,9.8-9.6,13.9c-7.5,6.8-16.6,10.2-27.3,10.2c-10.6,0-19.7-3.4-27.3-10.2c-6-5.4-9.6-11.6-10.8-18.7
			c-0.3-1.6-0.5-3.3-0.5-5 M127.9,166.1c3.8,2.1,8.3,4.1,13.5,6c3.9,1.3,8.1,2.6,12.6,3.9c14.2,4,27.6,6.3,40.2,7
			c2.3,0.1,4.7,0.1,6.9,0.1c11.8,0,22.9-2,33.4-6c7.5-2.8,12.5-5.5,15-8.1 M281.4,92.8c8.5,0,15.7,2.9,21.7,8.7
			c4.8,4.5,7.6,9.8,8.6,15.9c0.3,1.6,0.4,3.2,0.4,4.8c0,8.1-3,15-9,20.8c-6,5.8-13.2,8.6-21.7,8.6c-8.5,0-15.7-2.9-21.7-8.6
			c-1.7-1.6-3.1-3.2-4.2-4.9c-3.1-4.7-4.7-9.9-4.7-15.8c0-8.1,3-15,8.9-20.8C265.6,95.7,272.9,92.8,281.4,92.8z M274.6,131.9
			c-1.7-1.8-2.6-4.1-2.6-6.7c0-2.6,0.9-4.9,2.6-6.8c1.7-1.8,3.8-2.7,6.2-2.7c2.4,0,4.5,0.9,6.2,2.7c1.7,1.9,2.6,4.2,2.6,6.8
			c0,2.6-0.9,4.9-2.6,6.7c-1.7,1.9-3.8,2.9-6.2,2.9C278.4,134.9,276.4,133.9,274.6,131.9z M320.7,234.6c-0.1-0.2-0.1-0.4-0.2-0.6
			l0-0.2c-0.3-1.2-0.6-2.4-1-3.6c-0.1-0.3-0.1-0.5-0.2-0.8l-1.5-5.9 M293.4,296c-0.1,0.3-0.1,0.6-0.1,1c0,0.1,0,0.2,0,0.3
			c-0.1,0.7-0.3,1.2-0.4,1.7c0,0.2-0.1,0.4-0.1,0.5 M199.9,246.9c0.3,0.5,0.6,0.9,0.9,1.4c1.3,1.8,2.9,3.6,4.8,5.4
			c-0.3,2.2-0.6,5-0.9,8.2c-0.2,1.9-0.5,4-0.7,6.2c-0.7,5.7-1,14.1-1,25.3c0,5.1,0.1,10.1,0.2,14.9c0.1,4.2,0.2,8.2,0.4,12.1
			 M203.2,308.5c-2.3-2.8-4-5.4-5.1-7.9c-4-8.8-5.2-19.1-3.8-30.7 M320,379.9c-1.1-1.4-2.1-2.8-2.9-4.2h0.4
			C318.5,377.4,319.3,378.8,320,379.9c0.3,0.6,0.7,1,1,1.4c0.1,0.3,0.2,1.8,0.2,4.4c0,1.9-0.1,3.2-0.4,4c-0.6,1.2-1.7,1.8-3.3,1.8
			c-1.4,0-3.5-1.5-6.2-4.4c-3.2-3.4-6.3-7.6-9.2-12.8c-6.1-11.2-9.9-23.3-11.1-36.5 M263.3,439c-0.2-0.1-0.3-0.1-0.5-0.2
			c-6.9-2.8-11.5-5-13.9-6.5c-6.9-4.3-10.8-7.1-11.8-8.2c-1.1-1-2.8-2.7-5.2-5.1v0.1 M402.6,393.5c-11.9,4.2-17.9,8-17.9,11.2
			c0,0.2,0.2,0.9,0.5,2c0.3,1.1,0.5,1.8,0.5,2c0,0.7-0.3,1.4-1,1.9c-0.4,0.3-1.1,0.7-2.2,1.3c-2.2,1.4-3.2,3.8-3.2,7.4
			c0,1.8,1.3,3.4,4,5c3.1,1.8,7,2.8,11.8,2.8c0,0,3.8-0.7,11.3-2.1c6.5-1.2,11-2,13.5-2.4 M431.8,451.3c-4.5,0.3-9.1,1.1-13.8,2.7
			c-6.5,2.1-9.8,4.6-9.8,7.5c0,0.2,0.1,0.8,0.4,1.7c0.2,0.9,0.4,1.4,0.4,1.6c0,0.2-1.2,1.6-3.8,4.2c-2.5,2.5-3.8,4.4-3.8,5.5
			c0,0.9,1.1,2.3,3.3,4.2c2.6,2.3,5.5,4,8.7,5c3.6,1.1,11.7,2.5,24.2,4.2c0.2,0,0.9-0.1,2-0.4 M426.1,548.5c-1.4-0.5-3.2-1-5.2-1.4
			c-4.1-0.8-8.3-1.2-12.6-1.2c-1.4,0-3.1,0.5-5.2,1.5c-2.3,1.1-3.5,2.3-3.5,3.4c0,3.3,0.7,6.1,2.2,8.4c0.5,0.8,1.7,2.1,3.5,4
			c0.4,0.5,1.2,1.5,2.2,3c1.1,1.4,2.1,2.3,3,2.7c0.1,0,0.2,0.1,0.3,0.1 M400.5,577.6c-0.2-0.2-0.3-0.4-0.5-0.6
			c-1.3-1.5-3.4-2.3-6.1-2.3c-1.7,0-3,1.2-4.1,3.8c-0.8,2-1.2,3.8-1.2,5.4c0,0.3,0,0.5,0,0.8 M440.3,512.2c-0.7-0.4-2.2-0.6-4.6-0.6
			c-0.4,0-2,0.1-4.7,0.3c-2.9,0.2-4.6,0.3-5.3,0.5l-0.5,0.5c-0.1,0.1-0.8,0.2-2.2,0.1c-1.5-0.1-2.4-0.1-2.5-0.1
			c-0.7,0.1-1.4,0.2-2.2,0.5c-1.6,0.6-2.9,1.6-3.8,3c-0.1,0.1-0.2,0.2-0.3,0.4c-0.1,0.2-0.2,0.4-0.2,0.7c0,2.1,4.9,5,14.5,8.5
			c2.8,1,5.3,1.9,7.4,2.5"/>
	</g>
</g>
</svg>
