
<svg xmlns="http://www.w3.org/2000/svg" version="1.1" xmlns:xlink="http://www.w3.org/1999/xlink" preserveAspectRatio="none" x="0px" y="0px" width="550px" height="800px" viewBox="0 0 550 800">
<defs>
<g id="Layer0_0_FILL">
<path fill="#50C29C" stroke="none" d="
M 319.95 379.85
Q 319 378.2 317.45 375.65
L 317.1 375.65
Q 318.3 377.7 319.95 379.85 Z"/>

<path fill="#40AA87" stroke="none" d="
M 342.9 302.4
Q 342.85 302.3 342.8 302.25
L 342.75 302.25
Q 342.75 302.3 342.75 302.4
L 342.9 302.4 Z"/>
</g>

<path id="Layer0_0_1_STROKES" stroke="#000000" stroke-width="1" stroke-linejoin="round" stroke-linecap="round" fill="none" d="
M 193.05 338.75
Q 192.25 340.25 191.45 341.75 191.85 345.1 195.25 353.05 198.4 359.3 194.75 360.5
L 193.75 360.45
Q 191.35 358.8 189 353.9 189.05 354.7 189 355.4 192.1 365.15 188.2 367.05
L 186.8 366.95
Q 183.65 365.15 180.6 357.45 180.6 357.2 180.35 356.85 181.1 361.35 180.85 364.85 180.7 367.25 176.7 367.95 173.1 366.75 171.85 363.85 167.15 353.15 168.15 339 168.9 328.35 170.25 322.65 170.75 320.4 172.45 314.55 175.75 300.85 181.6 288 186.2912109375 277.609765625 194.325 269.925 195.5478515625 259.794140625 199.5 248.25 199.7 247.6 199.95 246.95 199.75 246.7 199.65 246.35 198.480078125 242.9369140625 197.975 239.7 190.5732421875 237.8212890625 184.35 233.05 176.65 226.85 170.7 221.7 164.7 216.65 160.35 212.55 150.25 203.05 141.35 190.8 140.5 189.6 139.8 188.5 130.2 174.7 127.9 166.15 125.4 157.05 125.15 149.2 133.05 144.15 141.35 139.85 154.75 132.7 169.35 127.3 169.95 127.05 170.55 126.85 170.55 126.9 170.55 127
L 170.65 126.975
Q 170.65 126.6095703125 170.65 126.25 170.65 111.95 181.95 101.85 190.9 93.85 202.75 92.15
L 225.9 64 234.45 69.35 214.8 92.05
Q 227.25 93.5 236.55 101.85 238.7330078125 103.7904296875 240.475 105.9
L 248.55 103.475
Q 250.8671875 99.911328125 254.2 96.75 265.35 86.2 281 86.2 296.7 86.2 307.8 96.75 310.9 99.65 313.1 102.95 313.85 104.05 314.55 105.25
L 357.55 80.85 366.25 90.15 326.2 111.75
Q 338.1240234375 114.142578125 350.35 118.35 350.25 124 348.95 131.15 348.9 131.3 348.9 131.45
L 348.3 134.5
Q 348.3 134.6 348.25 134.75 347.5 138.35 346.45 142.3 346.15 143.35 345.85 144.4 345.0703125 147.1435546875 344.175 150.075 343.5181640625 152.211328125 342.8 154.45 341.4 158.6 339.8 163.05 339.7 163.2 339.65 163.4 338.95 165.4 338.25 167.3 337.85 168.25 337.55 169.15 336.9 170.75 336.3 172.35 336.25 172.5 336.2 172.65 336.148828125 172.779296875 336.1 172.9 334.998828125 175.67265625 333.9 178.3 332.55 181.5 331.25 184.5 331.073046875 184.8833984375 330.9 185.275 330.1828125 186.8236328125 329.5 188.35 327.6 192.4 325.65 196.15 323.1865234375 200.891015625 320.675 205.125 320.4900390625 205.433203125 320.3 205.75 319.3 207.4 318.3 208.95 318.15 209.15 318.05 209.3 317.00546875 210.895703125 316.025 212.3 316.0388671875 212.34453125 316.05 212.4 316.3 214.1 316.5 215.55 316.55 215.8 316.6 216.1 317.55 222.1 317.9 223.5 326.3 218.3 337.25 214.95 348.55 211.45 355.15 211.45 361.8 211.45 370.8 217.6 380.4 223.85 385.8 232.5 384.6 234.2 376.55 235.4 370.3 236.25 366.2 236.25 366.2 236.7 365.75 236.7 370.05 243.9 377.5 253.3 381.35 258.2 388.6 267.1 389.05 267.85 389.65 268.55 394.1 274.45 397.25 279.5 403 289.7 403 297.3 403 313.85 384.6 326.25 377.9 330.8 370.45 333.55 364.65 335.85 361.4 336
L 362.4 337.4
Q 363.2 338.55 364.2 339.7 368.65 345.85 372.95 351.25 374.45234375 353.3810546875 376.3 356 377.09140625 357.1298828125 377.95 358.35 378.1 358.55 378.25 358.75 378.55 359.1 378.8 359.55
L 380.6 362.05
Q 380.7 362.2 380.85 362.4 381.2 362.85 381.55 363.35
L 383.7 366.4
Q 383.95 366.75 384.2 367.1 384.3 367.2 384.4 367.35 385 368.2 385.65 369.1 387.65 371.9 389.85 374.95 390.05 375.2 390.25 375.5 390.666796875 376.0833984375 391.075 376.675 391.166796875 376.7833984375 391.25 376.9 393.4 379.95 395.45 382.9 395.65 383.2 395.85 383.5 396.7 384.65 397.5 385.85 397.65 386.1 397.85 386.4
L 398.05 386.7
Q 398.25 387 398.5 387.3 398.7 387.65 398.95 388 399 388.1 399.05 388.15 400.55 390.4 402 392.55 402.05 392.6 402.15 392.7 402.3 393 402.5 393.3
L 402.625 393.5 404 395.55
Q 405.75 398.25 407.4 400.85 408.6 402.75 409.75 404.6 411.65 407.75 413.4 410.75 413.5 410.9 413.6 411.1 413.85 411.5 414.1 411.95 414.1 412 414.15 412.05 414.75 413.05 415.3 414.1 416.6 416.4 417.8 418.7 418 419.1 418.25 419.5 418.9 420.75 419.55 422.05 419.6435546875 422.246484375 419.75 422.45 420.1529296875 423.296484375 420.6 424.15 420.9 424.8 421.25 425.45 421.3 425.6 421.4 425.75 421.8 426.6 422.2 427.4 422.8 428.75 423.45 430.15 425.2 433.9 426.75 437.65 426.75 437.7 426.75 437.75 427.05 438.4 427.3 439.05 428 440.8 428.7 442.55 429.15 443.75 429.6 445
L 430.75 448.2
Q 430.75 448.3 430.8 448.4 431.306640625 449.8634765625 431.8 451.325 432.600390625 453.7634765625 433.35 456.2 433.35 456.25 433.4 456.35
L 433.4 456.4
Q 434.25 459.3 435.05 462.25
L 439.15 482.7
Q 439.15 482.8 439.2 483
L 439.3 483.9
Q 439.55 485.7 439.75 487.55 439.754296875 487.5857421875 439.75 487.625 439.854296875 488.4357421875 439.95 489.25
L 440.2 492.55
Q 440.25 492.8 440.25 493.1 440.45 495.7 440.6 498.35 440.6 498.6 440.6 498.85 440.65 500.2 440.7 501.6
L 440.7 501.65
Q 440.75 503.85 440.75 506.05 440.75 506.75 440.75 507.5
L 440.7 508.2
Q 440.7 508.35 440.7 508.6 440.7 508.6734375 440.7 508.75 440.65 509.05 440.65 509.35 440.6 509.5 440.6 509.65 440.4943359375 510.919140625 440.325 512.25 440.162109375 513.4248046875 439.95 514.65 439.85 515.1 439.8 515.6 439.35 517.8 438.75 520.1 438.55 520.8 438.35 521.5 438.1 522.3 437.85 523.1 437.029296875 525.73515625 435.95 528.55 435.7767578125 529.001171875 435.6 529.45 435.5 529.65 435.45 529.85 435.3 530.2 435.15 530.55 433.25 535.2 430.7 540.2 430.2 541.15 429.7 542.1 429.5431640625 542.3689453125 429.4 542.65 429.2154296875 542.99140625 429.05 543.35
L 428.7 544.05
Q 428 545.25 427.35 546.45 427.2 546.65 427.1 546.9 427 547 426.95 547.1 426.5240234375 547.8265625 426.1 548.55 425.6740234375 549.2765625 425.25 550 424.8 550.7 424.35 551.45 423.75 552.4 423.15 553.3 422.55 554.25 421.95 555.15
L 419.95 558.05
Q 419.6 558.5 419.3 558.95
L 419.25 558.95
Q 418.95 559.35 418.7 559.75 416.3 562.9 413.85 565.7 413 566.65 412.2 567.55 412.1 567.6 412.05 567.7 411.4109375 568.3740234375 410.775 569.025 407.734765625 572.0927734375 404.6 574.65 404.35 574.85 404.1 575.05 403.25 575.7 402.4 576.35 401.4236328125 576.9896484375 400.5 577.575 400.041015625 577.872265625 399.6 578.15 398.95 578.55 398.35 578.95 397.7 579.3 397.1 579.7 395.05 580.9 393.25 582 391.5 583 389.9 583.85 389.20390625 584.219921875 388.55 584.55 386.1453125 585.778515625 384.15 586.6 383.45 586.9 382.8 587.15 382.6 587.2 382.45 587.3
L 382.4 587.3
Q 381.4 587.65 380.55 587.9 374.85 589.5 372.45 590.5 371.9 590.7 371.5 590.9 369.75 591.75 360.35 593 358.9 593.15 357.25 593.35 357.05 593.4 356.85 593.4 354.65 593.65 352.4 593.85 351.85 593.85 351.35 593.9 351.05 593.9 350.8 593.95 346.9 594.15 342.8 594.2 336.2 594.15 329.1 593.55 324.05 593.1 318.3 591.2 312.85 589.4 306.8 586.3 300.05 582.85 292.55 577.8 272.95 564.45 272.95 549.05 272.95 538.85 284.15 534.05 291.6 530.65 299.75 530.65 312.4 530.65 323.8 538.6 334.95 546.4 334.95 554.7 334.95 559.15 329.8 561.9 325.6 564.3 320.55 564.3 316.35 564.3 313.6 562.9 309.75 560.95 309.75 556.85 309.75 555.3 313.1 554.45 316.35 553.5 316.35 552.2 316.35 548.95 310.2 548 307.7 547.5 303.25 547.5 298.1 547.5 296.75 548.45 295.3 549.4 295.3 553.75 295.3 562.05 306.95 568.05 317.9 573.6 333.75 575.5 349.5 577.2 365.6 568.3 381.75 559.3 384.75 532.35 387.75 505.45 376.7 486.7 370.05 475.75 362.5 464.55 360.55 463.85 359.1 463.35 347.85 459.15 336.2 455.9 327.7044921875 453.527734375 319.1 451.775 317.6072265625 458.991015625 317.8 460.95 329.35 449.3 338.7 467.7 349.5 488.95 350.5 505.2 351.3 521.4 345.45 521.4 341.45 521.4 336.8 514.8 332.35 508.45 332.2 503.65 332.2 505.45 332.8 515.4 332.95 524.65 330.05 524.65 325.5 524.65 322.35 519 318.65 512.4 318.65 500.15 318.65 491.6 319.7 487.9 322.85 477.05 321.9 479.95 321.4 479.7 317.55 484.05 312.4 489.7 307.2 489.7 297 489.7 286.55 476.95 277.1 465.45 274.15 446.1 274.05 445.2 274 444.3 273.94140625 443.4599609375 273.925 442.65 268.4658203125 441.0150390625 263.3 438.95 263.209375 439.4462890625 263.1 439.95 262.5 443.3 260.8 448.6 263.1 447.75 264.3 447.75 268.65 447.75 273.9 458.8 279.1 469.6 279.1 477.45 279.1 483.8 278.15 489.2 276.7 497.15 273.9 497.15 270.55 497.15 268.15 492.35 265.75 487.9 266 483.3 264.8 488 263.95 497 262.5 503.5 256.6 503.5 254.1 503.5 252.55 499.9 250.6 496.2 250.6 489.8 250.6 482.6 253.35 474.2 256.25 466.75 256.6 465.55 254.35 467.1 250 470.95 247.95 472.6 245.2 472.6 237.85 472.6 233.4 465.55 228.75 458.3 228.75 445.95 228.75 438.75 230.55 426.45 231.15 422.5 231.75 419.6 231.75 419.4 231.85 419
L 231.75 418.9
Q 231.5 418.65 231.4 418.65 230.55 417.7 230.8 417.7 221.9 407.75 216.35 394.5 206.85 371.65 204.2 329.35 203.898828125 325.0693359375 203.675 320.6 197.92265625 329.413671875 193.05 338.75 Z
M 345.975 149.8
L 346 149.8 346 149.75
Q 345.99921875 149.7759765625 345.975 149.8 Z
M 344.175 150.075
Q 343.0580078125 150.1310546875 341.25 150.15 335.4 150.2 335 150.25 333.55 150.35 331.65 150.8 329.15 151.4 328 152.25 327 152.9 325.7 154.5 324.25 156.25 324.25 157 323.3 157.3 322.5 157.6 320.95 158.15 319.5 160.25 318.25 162 318.05 162.4 317.5 163.35 317.5 164.25 317.5 164.7 318.15 166.2 318.75 167.75 318.75 168.6 318.75 169.25 319.8 169.65 320.05 169.75 327 172 327.4 172.15 331.85 172.5 334.941015625 172.7748046875 336.1 172.9
M 330.9 185.275
Q 330.333203125 185.1765625 328.85 185.15 327.3576171875 185.119140625 320.25 187.25 313.14765625 189.387109375 304.95 193.9 296.75078125 198.404296875 296.75 201.75 296.75 203.45 299.75 205 302.7 206.5 306 206.5 313.41796875 206.5 320.675 205.125
M 366.2 236.25
Q 361.25 235.4 356.15 234.85 346.5 233.75 334.75 233.75 325.85 233.75 321.2 234.5 320.96640625 234.53984375 320.725 234.575 320.8123046875 234.83671875 320.9 235.1 320.95 235.3 321.05 235.55
L 321.4 236.75
Q 321.45 237.1 321.6 237.5 321.9107421875 238.6681640625 322.25 239.95 319.9 241.2 317.65 242.45 317.15 242.7 316.65 243 312.2 245.5 308.2 248.05
L 308.25 248.05
Q 308.1984375 248.0515625 308.15 248.1
L 308.1 248.1
Q 306.15 249.3 304.35 250.55 303.4 251.15 302.5 251.8 302.3 251.9 302.2 252 298.3 254.7 294.9 257.4 293.75 258.3 292.7 259.2 292.5 259.35 292.35 259.5 291.95 259.85 291.6 260.15 290.6 261 289.7 261.85
L 285.75 265.65
Q 285.7 265.7 285.7 265.75 285.55 265.9 285.4 266.05 285.3 266.15 285.2 266.25
L 283.25 268.45
Q 282.95 268.8 282.65 269.15
L 282.6 269.15
Q 280.75 271.35 279.2 273.6 272.15 283.9 270.95 298.25 270.7 300.95 270.7 303.85
L 271 307.45
Q 271.05 307.7 271.1 308 271.3 309.55 271.6 311.15 274.4 325.85 286.4 334.8 288.605078125 336.423828125 290.9 337.725 290.6275390625 334.8462890625 290.5 331.9 290.4 329.65 290.4 327.35 290.4 311.75 292.45 300.9 292.5283203125 300.390234375 292.725 299.475 292.6447265625 298.3154296875 292.6 297.15 292.6 296.95 292.6 296.75 292.6 295.25 292.7 293.85 292.8 292.2 293.05 290.65 293.25 289.15 293.6 287.7 293.8 286.85 294.05 286 295 282.8 296.55 279.8 297 278.9 297.5 278.05 299.1 275.25 301.25 272.65 301.35 272.5 301.45 272.4 301.55 272.25 301.65 272.1 301.75 271.95 301.85 271.85 301.95 271.7 302 271.65 302.25 271.25 302.55 270.9
L 303.8 269.3
Q 304.2642578125 268.65 304.825 268
L 304.8 268
Q 304.85 267.95 304.9 267.9
L 308.6 263.5
Q 308.8 263.25 309 263.05 309.2 262.8 309.45 262.5 309.7 262.25 309.95 262
L 312.1 259.65
Q 312.35 259.35 312.6 259.1 313.65 257.95 314.75 256.85 315.4 256.15 316.1 255.45 317.2 254.35 318.35 253.25 318.95 252.6 319.6 252 320.7 250.9 321.85 249.85 322 249.7 322.15 249.55 322.15 249.5 322.2 249.5 322.95 248.75 323.75 248.05 324 247.75 324.3 247.5 324.4 247.85 324.5 248.2 324.7 249 324.95 249.85
L 324.95 249.9 326.2 254.65
Q 326.85 257 327.5 259.5 327.55 259.7 327.6 259.9
L 328.2 262
Q 328.25 262.25 328.3 262.5 328.35 262.6 328.35 262.7
L 328.4 262.7
Q 328.55 263.45 328.8 264.2
L 329.2 265.7
Q 329.35 266.4 329.6 267.2
L 329.9 268.45
Q 330 268.9 330.15 269.4 330.65 271.2 331.15 273.05 331.2 273.25 331.25 273.5
L 331.25 273.55
Q 331.3 273.65 331.35 273.85 332.2 277.2 334.7 283.45 335 284.15 335.3 284.95
L 338.45 292.4
Q 338.45 292.45 338.5 292.5 338.9 293.55 339.4 294.65
L 340.65 297.45
Q 340.7 297.55 340.75 297.65 340.95 298.1 341.15 298.55
L 341.2 298.65
Q 341.7 299.85 342.25 301
L 342.55 301.65
Q 342.7 301.9 342.85 302.25
L 342.8 302.25
Q 342.85 302.3 342.9 302.4 343.25 303.1 343.55 303.85
L 346.55 310.15
Q 346.8 310.7 347.05 311.25 347.1 311.35 347.15 311.4
L 350.5 318.3
Q 347.35 320.25 343.65 322.15 340.5 323.7 337.55 324.95 333.122265625 326.515625 328.75 327 328.608984375 329.9958984375 328.55 333 328.420703125 336.707421875 328.375 340.425 334.4537109375 338.4017578125 340.1 334.85 343.55 333.3 347.1 331.4 351.7 328.9 355.05 326.7 356.9 329.65 359.45 333.25 360.35 334.6 361.4 336
M 328.75 327
Q 328.788671875 326.233984375 328.825 325.475 328.90859375 324.1328125 329 322.8 329 322.5 329.05 322.2 329.25 318.65 329.45 315.1 329.537890625 313.384765625 329.625 311.7 329.637890625 311.4787109375 329.65 311.25 329.8 308.25 329.95 305.25
M 319.95 379.85
Q 321.3 381.55 322.85 383.1 328.25 388.65 332.1 388.65 334.5 388.65 335.7 387.3 337.05 385.65 337.05 381.45 337.05 377.95 335.25 374.45 333.05 371.2 332.35 370 336.8 374 339.1 374.8 343.2 376.8 347.65 375.35 349.6 374.6 350.35 372.65 349.2185546875 368.2748046875 345.725 365.675 344.587890625 364.81328125 343.2 364.15 338.65 361.95 333.6 361.15 331.448828125 360.848046875 329.775 359.7 329.2404296875 359.3158203125 328.75 358.85 328.28671875 349.621875 328.375 340.425
M 376.3 356
Q 375.360546875 356.7466796875 374.45 357.55 372.35 359.4 371.25 360.75
L 371 362.1
Q 371 362.45 371.4 362.95 371.75 363.45 371.75 363.75 368.3 366.9 364.15 371.05 355.85 379.35 352.5 384.5
L 352.5 386
Q 355.0625 389.625 358.5 388.25 361.940625 386.88125 367.05 384.75 372.153125 382.60625 372.75 382.5 373.15 382.4 377.9 381.4 382.7 380.35 383.75 380 386.0736328125 379.2115234375 391.075 376.675
M 209.6 98.1
Q 222.55 98.1 231.7 106.4 239 112.95 240.45 121.75 240.85 124 240.85 126.35 240.85 138.05 231.7 146.35 222.55 154.65 209.6 154.65 196.65 154.65 187.5 146.35 184.95 144.05 183.15 141.55 178.35 134.85 178.35 126.35 178.35 114.65 187.5 106.4 196.65 98.1 209.6 98.1 Z
M 240.475 105.9
Q 241.259375 106.8330078125 241.95 107.8 243.45 109.85 244.6 112.05 244.7 111.65 244.8 111.3 246.1255859375 107.1701171875 248.55 103.475
M 219.7 128.8
Q 219.7 132.7 217.15 135.35 214.55 138.15 210.9 138.15
L 210.75 138.15
Q 207.2 138.15 204.65 135.35 202.05 132.7 202.05 128.8 202.05 124.95 204.65 122.1 207.2 119.45 210.75 119.45
L 210.9 119.45
Q 214.55 119.45 217.15 122.1 219.7 124.95 219.7 128.8 Z
M 326.2 111.75
L 318.4 115.95
Q 318.9 118.9 318.9 122.1 318.9 124.595703125 318.6 126.975 317.1091796875 138.2427734375 308.6 146.725 308.2046875 147.1171875 307.8 147.5 296.7 158.05 281 158.05 265.35 158.05 254.2 147.5 248.95 142.55 246.25 136.65 246.2 136.65 246.2 136.7 243.5 144.45 236.55 150.65 225.25 160.8 209.25 160.8 193.3 160.8 181.95 150.65 172.95 142.6 171.15 131.95 170.7119140625 129.4970703125 170.65 126.975
M 127.9 166.15
Q 133.55 169.3 141.35 172.15 147.15 174.1 154 176 175.25 182 194.25 183 197.75 183.1 201.2 183.1 218.9 183.1 234.6 177.1 245.8 172.9 249.65 169.05
M 281.35 92.85
Q 294.05 92.85 303.05 101.5 310.2 108.3 311.6 117.45 312 119.8 312 122.25 312 134.4 303.05 143 294.05 151.65 281.35 151.65 268.65 151.65 259.65 143 257.15 140.65 255.4 138.05 250.7 131.05 250.7 122.25 250.7 110.05 259.65 101.5 268.65 92.85 281.35 92.85 Z
M 274.65 131.95
Q 272.05 129.2 272.05 125.25 272.05 121.35 274.65 118.45 277.2 115.75 280.9 115.75 284.55 115.75 287.15 118.45 289.7 121.35 289.7 125.25 289.7 129.2 287.15 131.95 284.55 134.85 280.9 134.85 277.2 134.85 274.65 131.95 Z
M 320.725 234.575
Q 320.6341796875 234.25859375 320.55 233.95
L 320.5 233.75
Q 320 231.9 319.55 230.15 319.45 229.75 319.35 229.4
L 317.9 223.5
M 293.4 296
Q 293.3 296.5 293.25 296.95 293.218359375 297.0958984375 293.2 297.225 292.9810546875 298.2078125 292.85 298.95 292.78515625 299.2306640625 292.725 299.475
M 199.95 246.95
Q 200.35 247.65 200.8 248.3 202.75 251.05 205.65 253.75 205.272265625 257.0859375 204.725 261.95 204.3890625 264.8091796875 204 268.2 203 276.75 203 293.55 203 301.25 203.25 308.45 203.3923828125 314.6890625 203.675 320.6
M 203.25 308.45
Q 199.75 304.3 198.15 300.6 192.205859375 287.3521484375 194.325 269.925
M 319.95 379.85
Q 318.3 377.7 317.1 375.65
L 317.45 375.65
Q 319 378.2 319.95 379.85 320.45 380.7 320.95 381.3 321.15 381.8 321.15 385.65 321.15 388.55 320.8 389.6 319.95 391.4 317.45 391.4 315.4 391.4 311.2 386.95 306.4 381.9 302.05 374.2 292.845703125 357.4490234375 290.9 337.725
M 263.3 438.95
Q 263.0517578125 438.851953125 262.8 438.75 252.5 434.55 248.9 432.25 238.6 425.75 237.05 424.05 235.45 422.5 231.85 418.9
L 231.85 419
M 402.625 393.5
Q 384.75 399.8572265625 384.75 404.75 384.75 405.05 385.25 406.75 385.75 408.4 385.75 408.75 385.75 409.85 384.75 410.6 384.15 411 382.5 411.9 379.25 413.95 379.25 419.25 379.25 421.9 383.25 424.25 387.9 427 395 427 395.05 427 406.3 424.85 416.0927734375 423.0318359375 419.75 422.45
M 431.8 451.325
Q 425.0345703125 451.710546875 418 454 408.25 457.15 408.25 461.5 408.25 461.8 408.65 463.2 409 464.55 409 464.85 409 465.2 405.25 469.05 401.5 472.85 401.5 474.5 401.5 475.8 404.8 478.75 408.75 482.25 413.5 483.75 418.9 485.4 437.75 488 438.08203125 488 439.75 487.625
M 426.1 548.55
Q 423.9587890625 547.7544921875 420.9 547.15 414.7 545.9 408.25 545.9 406.15 545.9 403 547.4 399.5 549.1 399.5 550.8 399.5 555.75 401.7 559.2 402.45 560.35 405.25 563.15 405.9 563.85 407.45 566.2 409.05 568.35 410.5 568.9 410.6205078125 568.9501953125 410.775 569.025
M 400.5 577.575
Q 400.2451171875 577.2396484375 400 576.95 398.05 574.65 393.85 574.65 391.35 574.65 389.75 578.4 388.5 581.35 388.5 583.8 388.5 584.18125 388.55 584.55
M 440.325 512.25
Q 439.3447265625 511.65 435.75 511.65 435.1 511.65 431.05 511.95 426.75 512.25 425.75 512.4
L 425.25 512.9
Q 425.15 513.1 423.05 513.05 420.8 512.9 420.5 512.9 419.45 513 418.25 513.45 415.8 514.4 414.5 516.4 414.4 516.55 414.2 516.85 414 517.15 414 517.55 414 520.75 428.55 526 432.776953125 527.5298828125 435.95 528.55"/>
</defs>

<g transform="matrix( 1, 0, 0, 1, 0,0) ">
<use xlink:href="#Layer0_0_FILL"/>

<use xlink:href="#Layer0_0_1_STROKES"/>
</g>
</svg>
