<?xml version="1.0"?>
<svg width="759.5" height="900.6" xmlns="http://www.w3.org/2000/svg">
 <g>
  <title>background</title>
  <rect height="902.6" width="761.5" fill="none" y="-1" x="-1" id="canvas_background"/>
 </g>

 <g>
  <title>Layer 1</title>
  <path d="m507.700012,853.299988c0,0 -29.299988,7 -32.299988,11.799988c-3,4.799988 -6.400024,12.100037 -6.400024,12.100037s14.600006,-3.100037 15.900024,-7.400024s36,1.299988 36,1.299988" stroke="#000000" fill="none" id="path2503"/>
  <path d="m361.5,794.200012c0,0 42,-6 53.5,-4.400024s25.100006,8.800049 25.100006,8.800049s-21.100006,-2.600037 -26.899994,-0.900024s-16.200012,10 -16.200012,10" stroke="#000000" fill="none" id="path2477"/>
  <path d="m396.799988,826.799988c-10.200012,-2.900024 53.899994,-13 67.600006,-16.299988c13.699982,-3.299988 -95.300018,-11 -95.300018,-11" stroke="#000000" fill="none" id="path2483"/>
  <path d="m307,663.200012c3.700012,18.400024 39.899994,153.799988 52.899994,157.400024c13,3.599976 53.200012,18.799988 56.700012,20.299988c4.299988,1.899963 22.5,16.399963 22.5,16.399963s-11.300018,-23.399963 -16.600006,-24.599976c-5.299988,-1.200012 -41.200012,-25.5 -43.100006,-30.700012c-23.699982,-45 -39.399994,-114.200012 -42.399994,-140.599976" stroke="#000000" fill="none" id="path2489"/>
  <path d="m191.399994,554.5c0,0 11.800003,76.799988 43.599991,84.400024s67.099991,45 74.000015,46.399963c6.899994,1.400024 32.5,12.5 36.699982,12.5s87.899994,-48.399963 87.899994,-48.399963" stroke="#000000" fill="none" id="path2452"/>
  <path id="svg_1" d="m96.900002,456.899994c2.099998,9.100006 4.099998,19.100006 6.099998,28.100006c3,11 7,21 10,32c1,2 3,4 4,6c8,28 33,43 58,54c22,8 43,14 66,21c10,3 20,6 30,6c55,4 110,5 165,1c23,-2 44,-4 67,-8c27,-5 53,-10 78,-20c7,-3 14,-7 21,-12c1,-1 3,0 4,-1c17,-10 27,-26 34,-43c1,-2 0,-3 1,-5c13,-30 20,-61 25,-94c1,-13 3,-27 2.200012,-39.899994" stroke="#000000" fill="none"/>
  <path id="svg_2" d="m497.200012,257.200012c-10.200012,6.799988 -19.200012,15.799988 -30.200012,21.799988c-2,1 -5,2 -7,3c-8,4 -16,5 -25,3c-12,6 -22,13 -33,21c-21,13 -41,23 -66,20c-30,-4 -58,-8 -88,-2c-1,0 -3,1 -4.399994,1.799988" stroke="#000000" fill="none"/>
  <path d="m516.599976,853.5c0,0 39.599976,-15.299988 51.099976,-16.400024s26.400024,2.900024 26.400024,2.900024s-21.099976,2.299988 -26.400024,5.099976s-13.5,13.5 -13.5,13.5" stroke="#000000" fill="none" id="path2444"/>
  <path d="m558.400024,877.299988c-10.599976,-0.5 49.5,-24.799988 62.200012,-31.099976c12.599976,-6.300049 -95.299988,10.699951 -95.299988,10.699951" stroke="#000000" fill="none" id="path2436"/>
  <path d="m434,738.200012c7.799988,17.099976 73.5,140.900024 87,141.400024c13.5,0.5 56.099976,6.299988 59.799988,7c4.600037,0.899963 25.600037,10.899963 25.600037,10.899963s-16.300049,-20.200012 -21.800049,-20.200012s-45.799988,-15.5 -49,-20.200012c-33.199982,-38.5 -64.099976,-102.399963 -72.999969,-127.399963" stroke="#000000" fill="none" id="path2940"/>
  <path d="m577.799988,562.700012c-15.599976,67.099976 -14.799988,91.299988 -58.700012,137.400024c-2.899963,8.599976 -31.5,48.699951 -41.5,50.099976s-41.5,0 -48.699982,-5.700012c-7.200012,-5.700012 -24.300018,-48.700012 -34.300018,-53c-10,-4.299988 -94.5,-51.5 -97.299988,-58.700012c-2.899994,-7.200012 -37.200012,-47.200012 -37.200012,-47.200012" stroke="#000000" fill="none" id="path2932"/>
  <path id="svg_3" d="m543,544.599976c-2,1.400024 -2,3.400024 -3,5.400024c-13,14 -33,14 -50,20c-12,4 -24,5 -37,8c-10,2 -19,3 -28,4c-9,0 -18,1 -27,2c-4,1 -8,2 -12,3c-16,2 -31,2 -47,1c-22,-1 -43,-7 -65,-9c-2,0 -4,-2 -4,-4c0,-7 7,-11 13,-14c3,-1 5,-1 8,-2c10,-4 19,-8 29,-12c17,-5 33,-9 50,-14c13,-3 24,-7 37.200012,-9.300049c-2.5,0.900024 -5,1.900024 -7.700012,2.400024c2.5,-1.099976 5.100006,-1.700012 7.700012,-2.400024c-40.200012,12.300049 -79.200012,28.300049 -121.200012,32.300049c-3,0 -7,-1 -9,-3c-4,-9 9,-13 15,-16c33,-18 68,-29 102.100006,-40.600006c-20.800018,8.5 -6.100006,2 0,0c-4.100006,1.600006 -9.100006,3.600006 -13.100006,5.600006c-20,7 -39,14 -61,18c-4,1 -9,0 -13,0c-2,0 -4,-1 -5,-2c-5,-9 4,-17 11,-21c21,-10 42,-17 63.899994,-20.799988c-4,1 -8,2 -12,2.799988c4,-1 8,-1.899994 12,-2.799988c-21.899994,3.799988 -41.899994,12.799988 -64.899994,8.799988c-1,0 -4,-1 -4,-2c1,-14 19,-17 31,-19c7,-1 13,-2 18.700012,-3c-0.900024,-0.100006 -1.900024,-0.200012 -2.800018,-0.100006c0.899994,0.200012 1.899994,0.200012 2.800018,0.100006c-7.700012,-2 -18.700012,2 -24.700012,-7c-1,-2 0,-4 1,-5c9,-8 21,-7 32,-12c8,-3 17,-4 26.5,-6.5" stroke="#000000" fill="none"/>
  <path d="m659.099976,399.299988c0,69.899994 -71.200012,147.099976 -105.599976,147.099976c-34.400024,0 -158.800018,-33.099976 -167.000031,-91.899963c-8.199982,-58.800018 126.100006,-73.600006 126.100006,-73.600006" stroke="#000000" fill="none" id="path3673"/>
  <path d="m497.5,382.5l-57.799988,38.100006l78.899963,-7.300018l-29.399963,27.200012l104.399963,-13.700012l-54.599976,47.800018l66.599976,-12.799988l-11.699951,41.199982l33.400024,-15.200012" stroke="#000000" fill="none" id="path2505"/>
  <path d="m427.399994,406.399994l-28.200012,35.799988l54.200012,-0.5l-27.399994,29.800018l78.899994,0.700012l-32,36.5l82.199982,-6.400024l-20.799988,32.700012l49.5,-2.599976" stroke="#000000" fill="none" id="path3277"/>
  <path d="m706.900024,211.100006c26.799988,-9 16.799988,-50.199997 16.799988,-50.199997l-15.700012,-16.500015l-48.200012,27.5l5.400024,22.599991c0.099976,-0.099991 15.5,20.800018 41.700012,16.600021z" stroke="#000000" fill="none" id="path3607"/>
  <path d="m621.5,83.599998l0,0c-62.299988,36.300003 -70,55.200005 -79.599976,74.299995s-28,81.400009 -39.700012,93c-11.600006,11.600006 -21.200012,16.399994 -21.200012,16.399994l33.5,-11.599991l-4.100006,46.500015c11.899994,-14.600006 18.399994,-30 21.899994,-45.800018l8.900024,59.5c4.200012,-18.799988 11.700012,-33.299988 26.700012,-37.600006l1.399963,42.400024c17.799988,-0.400024 29.799988,-9.5 35.600037,-28l-1.400024,55.399994c6.200012,-12.5 14.200012,-21.399994 28.700012,-17.100006c5.5,29.600006 1.799988,43.700012 -3.400024,55.400024l21.200012,-9.600006l-2.099976,34.199982c0,0 23.899963,-32.799988 22.599976,-42.399994c-1.400024,-9.600006 -10.900024,-17.799988 -8.200012,-28.699982c5.700012,-22.900024 16.400024,-79.600006 12.299988,-92.600021" stroke="#000000" fill="none" id="path3619_1_"/>
  <path d="m700.799988,94.199997c-11.299988,-22.099998 -62.299988,-18.799995 -80.099976,-10.599998c-18.200012,8.400002 -30.600037,42.099998 -30.600037,42.099998l26.200012,-17.5l-23.099976,38.299988l23.399963,-16.5l-21.5,54.000015l23.099976,-27.699997l-7.5,33.399994l9.700012,-15.300003l-1.200012,35.5l16.800049,-27.099991l5,49.899994l5.599976,-20.599991l9.700012,34.299988l4.099976,-32.399994l14.299988,33.399994c0,0 -8.099976,-36.5 -7.5,-44.299988c0.600037,-7.800003 0.600037,-22.600006 11.700012,-33.700012c4.400024,-4.399994 24.600037,-11.899994 39.700012,-14c19.400024,-2.799988 19.599976,-19.5 19.599976,-19.5l-37.399963,-41.699997z" stroke="#000000" fill="none" id="path3589"/>
  <path d="m664,106.099998c-6.5,0 -25.400024,6.5 -25.400024,19.800003c0,13.299995 17.400024,35.099998 20.600037,35.099998c3.200012,0 8.099976,-2.800003 12.5,-2.800003c4.399963,0 8.099976,8.900009 8.099976,8.900009l20.200012,-10.100006l-4,-22.200012l12.099976,-11.299995c-0.099976,-0.099991 -21.899963,-17.799995 -44.099976,-17.399994z" stroke="#000000" fill="none" id="path3651"/>
  <path d="m704.299988,137.699997c10,-7 9.700012,-21.199997 15.799988,-17.799995c31.200012,17.299995 44,45.900002 31.799988,45.200005c-11.899963,-0.600006 -12.299988,-5.700012 -15,-5.700012c-2.599976,0 -28.899963,-1.299988 -28.899963,-1.299988l-3.700012,-20.400009z" stroke="#000000" fill="none" id="path2806"/>
  <path d="m650.599976,74.5c-6.400024,-11.700001 -19.299988,-50 -15.299988,-51.200001c12,9.200001 14.099976,15.900002 24.299988,20.600002c0,0 3.099976,-28.700002 5.700012,-32.000002c5.799988,4 16.5,36.699999 16.5,36.699999s18.200012,-39.499998 23.400024,-45.499999c5.900024,5.7 -0.400024,60.499999 -0.400024,60.499999s16.900024,-31.999998 23.900024,-34.699999c3.599976,7.6 2.200012,37.1 2.200012,37.1c11.099976,-16.099998 7.599976,-3.299999 11.899963,-6.099998c7.900024,19.199997 6.600037,54.099998 -14.699951,62.5c-18.100037,3.599998 -73.900024,-31 -77.500061,-47.900002z" stroke="#000000" fill="none" id="path3603"/>
  <path d="m681.900024,127c0,7.300003 -6.299988,13.300003 -14,13.300003c-7.700012,0 -14,-6 -14,-13.300003c0,-7.300003 6.299988,-13.300003 14,-13.300003c7.699951,0 14,5.900002 14,13.300003z" fill="none" id="path3601"/>
  <path d="m680.200012,126.900002c0,6.499992 -5.599976,11.799995 -12.5,11.799995c-6.900024,0 -12.5,-5.300003 -12.5,-11.799995c0,-6.5 5.599976,-11.800003 12.5,-11.800003c6.899963,-0.099998 12.5,5.200005 12.5,11.800003z" stroke="#000000" fill="none" id="path3643"/>
  <path d="m677.099976,126.699997c0,4.699997 -4.200012,8.5 -9.299988,8.5c-5.100037,0 -9.299988,-3.800003 -9.299988,-8.5c0,-4.699997 4.199951,-8.5 9.299988,-8.5c5.200012,-0.099998 9.299988,3.700005 9.299988,8.5z" stroke="#000000" fill="none" id="path3645"/>
  <path d="m662.900024,117.300003c2,9.599998 8.700012,9.5 16.900024,7.299995c-9.300049,-0.599998 -12.000061,-1.199997 -16.900024,-7.299995z" stroke="#000000" fill="none" id="path3647"/>
  <path d="m753.200012,164.5c0,0 -13.099976,-12.600006 -23.599976,-16c-10.5,-3.399994 -24.300049,-10.300003 -24.300049,-10.300003" stroke="#000000" fill="none" id="path3649"/>
  <path d="m106.5,421.100006c-78.4,-23.600006 -105.8,-8.699982 -103.3,-2.5c2.5,6.200012 103.3,23.600006 103.3,23.600006s-88.299999,-14.899994 -88.299999,7.5s120.699993,10 120.699993,10s-90.899994,18.699982 -77.199993,41c13.700001,22.400024 128.199993,-29.899994 128.199993,-29.899994" fill="none" id="path3283"/>
  <path id="svg_4" d="m85.099998,415.299988c-21,-5.100006 -44.699997,-9.899994 -66.199999,-5.799988c-4.599999,0.899994 -10.799999,2.399994 -14.2,5.799988c-5.5,5.5 10.3,8.399994 13.3,9.200012c29,7.699982 59,12.699982 88.5,17.799988c-11.300003,-1.899994 -22.599998,-3.299988 -34.099998,-4.100006c-17.400002,-1.199982 -35.400002,-4.199982 -51.400002,4.800018c-2,2 -4,5 -3,8c1,2 2,4 4,5c4,3 8,4 12,5c23,2 45,3 68,2c12,-1 25,-3 36.899994,-3.299988c-2.599991,0.5 -5.199997,1.299988 -7.799988,1.5c2.5,-0.800018 5.199997,-1.200012 7.799988,-1.5c-17.499992,3.599976 -34.799995,8.599976 -51.499992,14.899994c-8.700005,3.299988 -24.200001,8.600006 -26.900002,18.799988c-1.700001,6.399994 3.800003,11.100006 9.599998,12.300018c9.5,1.899994 20,-0.200012 29.300003,-2.400024c21.799995,-5 42.799995,-12.699982 63.499992,-21c0.800003,-0.299988 1.700012,-0.699982 2.5,-1" stroke="#000000" fill="none"/>
  <path d="m244,343.5c-87.399994,-3.899994 -122.5,-241.399986 -169.199997,-223.199997c-26.000004,7.899994 99.800003,211.400009 99.800003,211.400009s-90.600006,-177.800018 -115.400005,-170.800018c-35.1,10 76.100002,193.800018 76.100002,193.800018s-91.800003,-176.200012 -109.600002,-165.400009c-17.700001,10.699997 67.600002,176.300003 67.600002,176.300003c0,0 -67.900003,-126.099991 -84.400003,-107.800018s74.900003,143.100037 74.900003,143.100037s-71.199993,-90.200012 -79.100003,-73.200012c-8.1,17.600006 58.700009,100.300018 58.700009,100.300018s61,63.699982 138.300003,50.199982s77.299988,-13.600006 77.299988,-13.600006" stroke="#000000" fill="none" id="path2916"/>
  <path d="m356.899994,804.200012c0,0 -28.100006,10.799988 -30.399994,16s-4.700012,12.799988 -4.700012,12.799988s14.100006,-5 14.799988,-9.399963s35.900024,-3.5 35.900024,-3.5" stroke="#000000" fill="none" id="path2491"/>
  <path id="svg_5" d="m305,415c-42,7 -83,17 -126,16c-1,0 -3,-2 -4,-3c0,-1 1,-3 2,-4c15,-7 32,-8 48.699997,-9c-17,2.799988 -6.099991,0.5 0,0c-22.699997,3 -46.699997,10 -70.699997,4c-1,-1 -1,-2 -2,-3l1,-2c12,-7 25,-9 38,-11c10,-1 19,-2 28.800003,-3.899994c-16.699997,-0.100006 0,0 0,0c-16.699997,-0.100006 -33.600006,-0.899994 -50.199997,-3.5c-6.200012,-1 -18.400009,-2 -22.400009,-8c-4.699997,-7.200012 9.300003,-10.200012 13.5,-10.899994c12.5,-2 25.600006,-1.5 38.199997,-0.400024c-16.899994,-1.399994 -35.199997,-3.799988 -50.699997,-11c-4.5,-2.099976 -16.099991,-9 -10.599991,-15.5c4.599991,-5.5 17.5,-1.799988 23.099991,-0.5c12.699997,2.900024 25.199997,7.200012 37.199997,12.100006c-15.299988,-7 -30.699997,-14.899994 -44.299988,-24.699982c-4,-2.900024 -15,-10 -12.900009,-16.300018c2.300003,-6.899994 14,-2.199982 18.200012,-0.5c17.799988,7.200012 34.299988,19 49.599991,30.600006c0.5,0.299988 0.899994,0.700012 1.399994,1c-13.699997,-9.399994 -27.099991,-19.700012 -39,-31.299988c-4.899994,-6.200012 -13.899994,-11.200012 -12.899994,-20.200012c1,-3 3,-5 6,-6c9,-2 16,7 22,13c1,1 1,3 2,4c12,18 34,17 52,15c12,-1 22,4 33.399994,7.5" stroke="#000000" fill="none"/>
 </g>
</svg>