
<svg xmlns="http://www.w3.org/2000/svg" version="1.1" xmlns:xlink="http://www.w3.org/1999/xlink" preserveAspectRatio="none" x="0px" y="0px" width="550px" height="400px" viewBox="0 0 550 400">
<defs>
<path id="Layer0_0_1_STROKES" stroke="#000000" stroke-width="1" stroke-linejoin="round" stroke-linecap="round" fill="none" d="
M 340 62.35
Q 343.6 62.25 346.6 62.3 352.5 62.4 356.15 63.2 361.6 64.4 365.4 67.25 368.3 69.4 371.75 72.7 372.75 73.65 373.85 74.7 375.25 76.1 376.9 77.85 380.7 81.9 385.65 87.8
L 385.85 86.65 388 88.45
Q 388.5 88.55 389.05 89.35
L 389.95 90.05 390 90.15
Q 393.15 93.75 394.25 97.05
L 394.25 97.1
Q 393.7 97.9 393.1 98.65 393.8 99.55 394.45 100.3 395.6 101.75 396.25 102.6
L 394.45 104.4
Q 395.15 105.05 396.4 106.35 394.35 108.8 393.4 109.35 392.65 108.95 391.35 107.8 389.25 109.7 388.75 110.2 387.15 109.15 384.8 106.4 384 107.05 383.55 107.75 383.25 107.6 382.9 107.15 378.8 111.8 378.2 113.05 377.2 115.15 377.35 118.3
L 382.95 132.75
Q 385.7 132.4 387.85 132.8 388.05 133.6 388.35 134.55
L 397.4 133.45
Q 399.9076171875 133.348046875 401.875 133.7 403.14453125 132.576953125 404.75 131.75 406.4 130.75 408.25 130.35 409.8 130.05 411.25 129.8 412.95 129.75 414.6 129.75 416.85 129.9 418.85 130.75 421.75 131.85 423.3 134.55 424.95 137.35 424.7 140.4 426.1 141.4 427.15 142.65 428.5 144.2 429.55 146.05 430.15 147.05 430.2 148.2 430.3 150.4 429.7 152.5 429.05 154.7 427.45 156.7 425.8 158.85 423.6 160.3 422.571875 160.954296875 421.5 161.125 421.2708984375 162.5791015625 419.55 163.65
L 420 165.45
Q 421.95 166.2 421 168.55
L 414.85 170.15 414.05 170.35
Q 413.9 170.6 413.8 170.85 413.8 170.9 413.8 170.95 413.8 172.2 414.5 172.8
L 415.85 172.05
Q 417.75 171.05 418.7 171.05 418.8 171.05 418.95 171.05 419.2 170.9 419.7 170.9 422.55 170.9 422.15 172 422.15 172.85 420.9 173.8 419.2 175.05 416.15 175.05 415.15 175.05 414.4 174.8 414.2 175.2 413.85 175.8 413.85 176.35 415.1 177.2 415.6 177.55 416.15 177.8
L 417.5 176.8
Q 419.7 175.55 421.9 175.55 424.9 175.55 424.9 176.75 424.9 177.4 424.55 177.85 423.75 179.15 418.4 179.9 417.3 179.85 416.25 179.45 415.85 179.5 415.7 180 415.6 180.35 415.65 180.65 415.65 180.95 416.15 181.6 416.5 182.05 416.9 182.25 417.25 182.35 417.65 182.4 418.15 182.3 419.75 181.3 420.8 180.6 422.05 180.35 422.2 180.3 422.4 180.25 423.05 180.15 423.75 180.15 424.6 180.15 424.95 180.5 425.55 180.75 425.65 181.35 425.65 182.25 424.2 183 422.55 183.85 420.15 183.85 419.7 183.85 419.3 183.85 419.25 183.85 419.25 183.9
L 419.25 183.95
Q 419.5 184.5 421.1 185 421.4 185.1 421.7 185.2 423 185.05 424.45 184.95 425.7 184.8 427.15 184.7
L 427.25 184.65
Q 430.1 185.45 430.4 185.95 430.65 186.3 430.6 188.25 432.95 187.75 435.35 187.4 434.45 179.3 434.25 176.2 434.15 175.15 434.15 174.7 434.25 174 434.3 173.35 434.6 170.7 435 168.45 435.2 167.05 435.45 165.85 437.15 165.2 439.85 163.75 439.9 163.7 440 163.7 443.3 161.9 447.45 159.9 449.95 158.7 452.1 157.7 453.95 156.8 455.55 156.15 457 155.45 457.9 155.85 460.2 157.65 461.4 161.55 461.6 162.25 461.8 162.9 462.65 166.3 462.65 168.95 462.65 170.65 460.9 174.55 460.5 175.4 459.7 175.95
L 457.8 176.2 453.65 176.2 443.05 176.2
Q 443.2 176.5 443.4 176.8 444.7 179 446.45 181.05 446.5 181.05 446.55 181.1 447.45 182.15 448.45 183.1 450.25 184.8 452.25 186.25 452.45 186.4 452.65 186.55 455.3 186.65 457.95 186.9 462.2 187.3 466.3 188.15 466.65 187.95 466.95 187.85 469.8 186.65 471.8 189.45 480.55 191.85 488.55 196.25 487.85 198.5 486.3 200.45 484.1 203.15 480.1 205.2 484.45 207.35 488.55 210.15 494.15 214 499.3 219.15 520.25 240.1 520.25 269.7 520.25 299.3 499.3 320.25 478.35 341.2 448.75 341.2 419.15 341.2 398.2 320.25 379.6 301.65 377.5 276.25 372.1 283.05 365.65 283.7 364.7 277.25 364.7 270.45 364.7 266.95 364.95 263.6 365.1 263.65 365.3 263.6
L 364.9 263.55
Q 363.25 262.7 363.25 260.55 363.25 258.8 364.65 257.3
L 365.65 257.45
Q 367.45 244.85 372.85 233.8 372.95 233.55 373.1 233.3 373.15 233.1 373.25 232.95 374.8 229.85 376.7 226.85 380.85 220.1 386.5 214 387.85 212.5 389.3 211.05 391.4 208.95 393.55 207.05 394.15 206.5 394.75 206 397.15 203.95 399.65 202.15 399.15 200.9 398.6 199.6 396.6 200.55 396.05 200.85
L 393.15 195.9
Q 394.6 195.15 396.7 194.05
L 396.35 193.15
Q 393.8 194.5 391.5 195.75 390.75 196.15 390.05 196.55 384.55 199.5 380.3 201.8 375.1 204.6 371.75 206.4 368.6 208 367.1 208.8 364.9 209.9 363.15 211.5 362.4 212.1 361.75 212.85 361.6 213 361.45 213.15 361.4 213.2 361.35 213.3 359.9 214.95 358.75 217.1 355.75 222.65 353.9 228.55 352 234.45 349.75 244.25 348.8 248.25 347.65 251.3 345.95 255.65 343.8 258 343.75 258 343.75 258.05 340.05 262 330.15 267.15 320.95 271.85 314.75 273.85 314.25 274 313.75 274.15 314.25 280.95 314.55 282.05 314.55 282.25 314.6 282.4 314.4 282.5 314.15 282.8 314.15 282.55 313.75 282.65 312.75 283.55 309.85 284.2 305.95 285.1 301.35 285.1 301.1 285.1 300.85 285.1 300.65 287.55 300.15 289.85 298.95 295.05 296.2 299.6 295.3873046875 300.890625 294.475 302.1
L 305.4 312.925
Q 305.749609375 312.396484375 306.15 311.95 306.3 311.75 306.45 311.6 306.65 311.35 306.95 311.15 308.6 309.65 311.05 309.25 311.9 309.15 313.4 309.15 314 309.2 314.8 309.2
L 321 303.55 324.55 307.05
Q 324.95 306.9 326.3 306.95 326.6 307 326.85 307.05 327.75 307.25 328.45 308.05 329.3 309.1 328.15 310.5
L 329.65 311.9 316.5 322.6 316.4 322.75 302.95 333.65 301.35 331.65
Q 300.35 332 299.7 331.95 299.55 331.9 299.5 331.9 299.1 331.85 298.8 331.75 297.95 331.3 297.85 330.2 297.75 329.1 298.55 328.55
L 296.55 326.2 303.4 319.85
Q 303.5 318.9 303.6 318.05 303.6 318 303.65 318 303.7171875 317.41796875 303.825 316.875
L 290.8 306.25 290.75 306.3
Q 282.8 314.05 272.3 315.6 271.85 315.65 271.4 315.7 269.25 315.95 267 315.95 262.85 315.95 259.05 315.1 257.45 314.7 255.95 314.2
L 210.7 301.5
Q 205.6 311.75 196.8 320.55 175.85 341.5 146.25 341.5 116.65 341.5 95.7 320.55 87.25 312.1 82.2 302.25 78.8 308.3 72.05 310.1 66.7 300.3 64.3 289.35
L 61.3 289.9
Q 57.9 287.25 60.35 283
L 63.05 282.35
Q 62.25 276.45 62.25 270.2 62.25 239 82.05 216 83.4 214.4 84.85 212.9 85.0927734375 212.6330078125 85.325 212.375 84.812890625 211.5794921875 84.35 210.75 83.35 209.05 82.5 207.25 81.6 205.25 81.15 203.45 80.650390625 201.490234375 80.325 199.45 79.3642578125 199.678515625 78.4 200 78.35 200 78.3 200 75.2 200.9 72.1 201.8 70.5 202.2 68.9 202.7 63.1 204.3 57.15 206 56.95 206.05 56.7 206.1 55.5 206.45 54.35 206.8
L 54.3 206.8 54.35 206.9
Q 54.9 209.3 55.15 210.75 55.65 210.65 56.25 210.5 56.5 210.45 56.85 210.4 58.45 210 60.2 209.7 62.1 209.3 64.25 208.9
L 64.8 208.8
Q 65.35 209.1 65.75 209.55 65.85 209.7 66 209.9 66.15 210.15 66.25 210.45 66.45 211.1 66.4 211.95 66 212.95 64.5 213.95 64.4 214.05 64.3 214.1 63.4 214.8 62.65 215.5 60.3 217.55 57.1 219.55 56.45 219.95 55.8 220.35 55.4 220.55 55.05 220.8 54.95 220.8 54.9 220.85 54.3 221.15 53.75 221.5 51.8 222.5 49.6 223.55 49.1 223.75 48.65 223.95 46.4 224.95 43.9 225.95 43.75 226 43.6 226.1 42.95 226.3 42.3 226.55 41.9 226.7 41.55 226.85 41.3 226.95 41.15 227 40.7 227.15 40.3 227.3 40.05 227.4 39.8 227.5 35.6 225.1 35.25 221.95 35.2 221.7 35.2 221.5 35.05 220.05 35.25 219.15 35.4 218.35 35.75 217.95 35.8 217.9 35.85 217.9 36.8 217.35 37.8 216.9 38.3 216.65 38.75 216.4 39.9 215.85 41.05 215.35 39.8 212.85 38.75 211.15 36.9 211.65 35.1 212.15 33.65 212.55 32.2 212.95 32 213 31.8 213.05 30.15 209.6 28.9 206.85 28.5 206.05 27.65 204.35 31.3 202.5 41.9 197.1 42.25 196.9 42.65 196.7 46.4 194.75 50.7 192.75 52.2 192.05 53.8 191.35 54.5 191 55.2 190.7 55.7 190.45 56.25 190.25 60 188.55 64.1 186.85 66.65 185.75 69.35 184.7 69.85 184.5 70.35 184.3 73.9 182.85 78.2 181.25 82.2 179.7 86.9 178.05 88.25 177.55 89.7 177.05 91.45 176.4 93.35 175.75 93.65 175.6 93.95 175.5 94.25 174.4 94.25 173.45 94.25 172.05 93.15 170.95 91.05 171.45 88.85 171.95 88.3 172.05 87.8 172.15 86.7 172.4 85.6 172.65 83.8 173 81.95 173.4 74.15 175 65.3 176.6 62.5 177.1 60.35 177.1 60.15 176.95 59.95 176.85 58.1 175.55 56.85 174.1 56.7 173.9 56.8 173.75 56.4513671875 173.7001953125 56.45 173.65
L 56.45 173.75
Q 53.8 174.65 50.55 175.45 49.15 175.8 48.05 176.05 48 176.05 47.95 176.1 47.1 175.2 46.35 173.8 45.8 172.85 45.25 171.7 45 171.05 44.7 170.35 44.7 170.3 44.65 170.25 44.2 169.05 43.85 168.15
L 43.9 168.1 43.85 168.1
Q 43.4 167 43.2 166.35 45.8 163.4 48.1 161.85 49 161.25 49.85 160.85 49.8 160.75 49.85 160.7 49.7 159.8 49.7 158.85 49.8 157.9 49.85 157.85 52.5 155.7 54.85 154.4 57.7 152.4 60 150.9 60.05 150.85 60.15 150.8 62.7 149.15 64.6 148.2 68.2 146.35 71 144.95 71.25 143.4 71.25 142.1 71.15 136.9 66.45 135.95 65.35 135.7 64 135.7 63.85 135.7 62.9 135.95 61.1 136.4 56.65 137.7 56.15 137.85 55.65 138 51.65 139.15 48.4 139.95 47.95 139.3 47.5 138.75 47.25 138.45 47.05 138.15 46.4 137.25 45.9 136.5 48.3 135.3 51.25 133.7 56.3 130.9 64.35 127.95 65.3 127.6 66.3 127.25 68.55 126.45 71.1 125.6 74.95 124.35 79.35 123.05 79.7 122.95 80.05 122.85 81.1 122.5 82.25 122.2 89.5 119.7 95 118.1 97.8 117.3 100.15 116.7 101 116.5 101.85 116.3 103.7 115.85 105.25 115.6 106 115.45 106.7 115.4 107.7 115.25 108.5 115.25 108.7 115.2 108.9 115.2
L 109.1 115.2
Q 110.15 115.2 111.75 115.1 113.4 115.15 114.95 116.05 117.3 117.45 121.35 122.3 123 124.25 124.9 126.75 128 126 130.8 125.4 133.55 124.8 136.1 124.35 137 125.05 137.85 125.95 138.3 126.4 138.75 126.95
L 138.75 127 138.8 127 138.8 126.95
Q 141.95 127.1 144.1 127.35 146.8 127.7 147.9 128.15 149.85 129 151.3 131.25 152.35 132.9 152.8 134.2 152.95 134.6 153.05 135 153.3 136.55 152.55 138.8 151.75 141 150.75 142.2 149.7 143.4 144.75 148.25 144.75 149.35 144.75 150.45 144.75 151.05 144.65 152 143.25 153.05 140.1 154.6 139.9 155.2 137.9 156.25 138.85 159.9 139.45 161.5 146.6 159.95 148.35 160.55 152.15 161.75 153.05 162.25 153.85 162.65 155.4 163.8 155.6 163.9 155.75 164.05 156.7 164.75 168 176.4 166 177 163.1 177.8 159.1 178.85 153.4 180.3 150.8 180.9 147.85 181.65 143.35 182.75 138.1 184 136.2 184.45 134.5 184.9 133.05 185.2 131.7 185.55 130.3 185.85 129.05 186.2 128.65 186.25 128.3 186.35
L 128.7 187.9
Q 129.85 187.65 131 187.45 131.55 187.35 132.1 187.3 138.6 186.25 145.55 186.2 145.9 186.2 146.25 186.2 149.4 186.2 152.45 186.4 159.2 186.85 165.6 188.3 168.6 188.95 171.5 189.85 171.6 189.9 171.7 189.9 174.4 190.75 177 191.75 179.15 192.6 181.25 193.55 184.45 195 187.5 196.8 188.15 197.15 188.75 197.55 189.1 197.7 189.45 197.95 189.65 198.05 189.85 198.2 192.3 199.7 194.65 201.4 194.8 201.5 194.95 201.6 195.35 201.9 195.8 202.2 197.75 203.7 199.7 205.35 201.25 206.6 202.75 208 203.1 207.75 203.5 207.55 206.85 205.65 210.4 203.75 211.5 203.15 212.65 202.6 212.85 202.45 213.1 202.35 216.95 200.35 221 198.35 221.2 198.2 221.45 198.1 224.8 196.4 228.3 194.75
L 225.65 189.6 223.95 190.35 221.8 186.3 223.5 185.35 218.25 175.05
Q 217.6 174.95 217.05 174.75
L 212.15 176.45 208.1 171.55
Q 207.605078125 171.6642578125 207.1 171.775 206.632421875 172.5130859375 204.95 173.05 207.4 173.2 206.9 174.25 206.9 175 205.05 175.9 206.2 176.8 206.2 177.8 206.2 178.9 205.4 179.15
L 205.15 179.25
Q 206.45 179.45 206.45 180.3 206.45 180.4 205.3 182 205.95 182.6 205.95 183.05 205.95 184.1 204.6 185.4 203.1 186.8 201.45 186.8 200.2 186.8 199.5 186.25 198.65 185.55 197.3 185.35 195.9 185.1 195.9 183.1 194.45 183.7 193.1 182.4 191.8 181.1 192.5 180.15 191.35 180.2 190 179.4 188.65 178.65 188.5 177.95 188.3 177.25 187 176.4 185.8 175.6 185.8 175.1 185.8 174.2455078125 186.225 173.7 185.443359375 173.65 184.75 173.65 183.2 173.6 181.8 173.55 181.65 173.35 181.5 173.2 179.3 170.45 176.5 166.3 176.3 166 176.1 165.7 170.55 157.4 169.5 152.25 169.45 151.95 169.4 151.75 169.25 150.8 169.25 149.95 169.25 144.95 173.5 141.6 177.45 138.45 187.25 139.75 187.85 139.8 188.5 139.9 188.9 139.95 189.3 140.05 190.85 140.25 192.35 140.55 192.7 140.6 193.05 140.65 193.75 140.8 194.4 140.9 197.45 141.45 200.35 142.1 203.8 142.9 207.05 143.75 212.55 145.2 218.25 145.2 222.7 145.2 228.1 143.5 228.7 143.3 229.3 143.1 230.45 142.65 231.7 142.2 232.85 141.75 234.05 141.2 243.05 137.2 244.5 137.2 246.9 137.2 249.95 140.15 252 142.2 253.25 144.85 250.85 147.6 248.2 150.1 244.7 153.4 240.85 156.3 240.65 156.4 240.55 156.55 239.1 157.6 237.6 158.6 233.85 161.15 229.7 163.4 229.15 163.7 228.6 164 227.85 164.4 227.05 164.8
L 228.45 170.35 225.25 171.8 230.45 181.55 232.75 180.25 235.35 185.35 233 186.4 234.1 188.4 235.65 191.3
Q 235.95 191.15 236.25 191.05 236.85 190.75 237.45 190.45 237.8 190.3 238.15 190.15 238.6 189.95 239 189.75 242.4 188.25 245.9 186.7 248.4 185.6 250.95 184.5 251.35 184.3 251.75 184.15 252.3 183.9 252.85 183.7 253.1 183.55 253.4 183.45 254.4 183 255.45 182.6 260.65 180.4 266.55 178.15 267.05 177.95 267.6 177.75 269.7 176.95 271.95 176.1 272.25 175.95 272.55 175.85 275.65 174.7 278.95 173.5 279.65 173.2 280.4 172.95 289.35 169.7 299.55 166.2 300 166.05 300.45 165.9 302.6 165.15 304.9 164.4 305 163.3 305.15 162.35 305.25 161.75 305.35 161.25 305.7 159.65 306.15 158.5
L 370.95 139.25
Q 370.35 138.35 369.9 137.65 372 136.35 374.15 135.35
L 368.45 120.55
Q 368 118.85 367.95 116.3 367.9 115.8 367.9 115.25 367.9 112.1 369.4 109.65 369.45 109.55 369.5 109.5 371.1 106.95 373.9 104.4 374.7 103.55 375.5 102.5 375.65 102.3 375.8 102.1 376.15 101.55 376.5 100.9 377.75 98.55 377.75 96.45 377.75 96 377.7 95.5 377.6 95.05 377.5 94.6 377.4 94.3 377.3 93.95 377.35 93.8 377.55 93.65 377.5 93.55 377.45 93.45 375.8 90.95 372.25 87.75 369.95 85.65 368.2 83.9 367.1 82.75 366.2 81.75 363.7 78.9 361.35 76.85 355.7 71.85 351.25 71.7
L 340.65 71.7
Q 340.1 74.55 338.9 75 339.1 75.5 336.95 74.3 335.6 73.8 335.3 73.8 333.6 74.6 332.05 75 331.1 75.6 330.1 75.5 329.75 75.45 329.5 75.35 329.35 75.35 329.2 75.35
L 329.05 75.2
Q 328.45 74.95 327.95 74.55 327.2 74.3 326.55 74.3 324.45 75.15 323.5 75.35 322.8 75.6 322 75.7 320.15 75.4 319.15 74.25
L 319.1 74.25
Q 319 74.3 318.9 74.3 316.1 75.3 315.8 75.3 315.65 75.3 315.35 75.2 315.1 75.3 314.9 75.3 314.1 75.35 312.45 73.9 312.15 73.75 311.85 73.65 311.25 73.5 310.45 73.5 310.3 73.5 308.65 73.9 308.5 73.95 308.35 74 307.45 74.3 306.35 74.45 306.2 74.45 306.05 74.5 305.75 74.5 305.55 74.5 305.05 74.5 304.55 74.5 303.95 72 303.8 69.6 303.75 68.75 303.75 67.95 303.75 67 303.85 66.1 304.05 64.55 304.5 63.05 304.95 61.5 305.75 59.95 309.75 59.75 318.3 59.55 318.65 59.5 319.05 59.5 323.15 59.4 326.6 59.4 334.75 59.4 338.75 60.05 339.1 59.55 340 62.35 340.05 62.6 340.15 62.85 340.2 62.95 340.25 63.05 340.45 63.75 340.65 64.45 340.75 65 340.9 65.55 340.95 66.05 341.05 66.55 341.05 66.7 341.05 66.85 341.3 69.35 340.65 71.7
M 377.55 93.65
Q 378.5 93.7 379.25 93.7 380 93.7 381.05 93.25 382 92.75 382.85 92.2 383.1 92 383.4 91.75 383.95 91.2 384.65 90.35
L 384.75 90.3 384.7 90.25 385.65 87.85 385.65 87.8
M 384.8 106.4
Q 387.05 104.5 389.65 102.4 390.15 101.95 390.6 101.5 391.95 100.15 393.1 98.65
M 394.45 104.4
Q 393.75 105.4 392.5 106.7 391.85 107.3 391.35 107.8
M 375.8 102.1
Q 377.2 102.75 378.3 103.3 379.3 103.85 380 104.3 380.45 104.6 380.8 104.9 380.85 104.95 380.9 105 381.45 105.5 382.4 106.6 382.65 106.85 382.9 107.15
M 374.15 135.35
Q 375.4 134.75 376.65 134.3 377.4 134 378.2 133.8 379.05 133.5 379.95 133.3 381.5 132.9 382.95 132.75
M 304.9 164.4
Q 305.65 164.15 306.45 163.9 307.9 163.4 309.4 162.9 311.8 162.1 314.3 161.3 314.35 162.6 314.65 164.1 314.65 164.15 314.65 164.2 314.7 164.45 314.75 164.7
L 314.75 165.2 314.5 165.35
Q 315.05 165.15 315.25 165.1 318.45 164.3 325.65 162.3 327.3 161.8 329.15 161.3 330.85 160.8 332.7 160.25 334.45 159.75 336.35 159.2 337.7 158.8 339.2 158.4 341.8 157.6 344.7 156.75 349.35 155.4 353.1 154.4 356.65 153.45 359.45 152.85 364.6 151.7 367 151.7 367.75 151.7 368.5 151.75 369.85 151.85 371.15 152.15 372.4 152.45 373.6 152.9 375.47109375 153.6484375 377.175 154.875 377.85546875 154.0134765625 378.6 153.225 377.7478515625 151.2134765625 376.9 149.25 376.65 148.75 376.45 148.3 375.55 146.2 374.65 144.2 374.3 143.5 374 142.8 373.65 142.85 373.3 143 372.75 142.05 372.25 141.25 371.7 141.4 371.05 141.6 370.9 141.65 370.7 141.7 366.1 143.1 356.65 146.1 354.5 146.75 352.2 147.5 348.15 148.75 343.45 150.25 339 151.6 334 153.2 331.85 153.9 329.6 154.6 329.1 154.75 328.6 154.95 326.7 155.5 324.75 156.15 317.25 158.5 308.7 161.25 307.2 161.7 305.75 162.2 305.45 162.25 305.15 162.35
M 372.25 141.25
Q 371.5 140.15 370.95 139.25
M 374 142.8
Q 374.85 142.5 375.75 142.25 376.2 142.1 376.7 142 376.7 141.95 376.8 141.95 378.85 141.35 380.95 140.75 382.35 140.3 383.8 139.9 384.65 139.6 385.5 139.4 385.7 139.3 385.95 139.25 387.65 138.75 389.35 138.25 389.2 137.7 389.05 137.2 388.9 136.65 388.8 136.2 388.55 135.3 388.35 134.55
M 389.05 137.2
Q 390.75 136.75 392.55 136.45 393.65 136.25 394.8 136.1 397.2 135.8 399.75 135.75 399.79609375 135.75703125 399.85 135.775 400.757421875 134.707421875 401.8 133.75 401.83515625 133.7189453125 401.875 133.7
M 401.85 136.3
Q 402.716015625 135.38125 403.7 134.7 403.981640625 134.5390625 404.275 134.35 404.331640625 134.298828125 404.4 134.25 406.4 132.9 408.85 132.25 411.15 131.75 413.45 131.75 415.75 131.7 417.95 132.5 420.2 133.45 421.55 135.6 422.55 137.25 422.75 139.2 420.15 137.9 417.15 137.6 414.9 137.4 412.65 137.65 410.5921875 137.8875 408.625 138.325 408.1107421875 138.425 407.6 138.55 406.50625 138.8462890625 405.4 139.175 404.0833984375 139.541796875 402.75 139.95 400.8 140.7 398.95 141.2 398.6 141.3 398.25 141.4
L 401.3 136.9
Q 401.5673828125 136.583984375 401.85 136.3 402.519921875 136.5478515625 403.1 136.9 404.5359375 137.7525390625 405.4 139.175
M 399.85 135.775
Q 398.6052734375 137.19140625 397.6 138.8 396.45 140.7 395 142.35 394.65 142.8 394.1 143.05 392.55 143.7 391 144.55 389.534765625 145.3453125 388.075 146.025 387.784765625 146.1697265625 387.5 146.3 387.105859375 146.566015625 386.7 146.825 385.47109375 147.666796875 384.225 148.5 383.86796875 148.7515625 383.5 149 381.902734375 150.141015625 380.35 151.525 380.1982421875 151.66484375 380.05 151.8 379.29921875 152.478125 378.6 153.225
M 388.8 147.875
Q 389.068359375 147.7109375 389.35 147.55 391.45 146.3 393.65 145.35 392.65 147.35 391.45 149.25 390.7859375 150.297265625 390.15 151.4 389.6810546875 152.2478515625 389.225 153.125 389.1166015625 153.3666015625 389 153.6 388.35 154.85 387.55 156.25 387.5259765625 156.294140625 387.5 156.35 386.57109375 158.0353515625 385.45 159.4 384.74140625 160.27734375 384.05 161.2 383.7251953125 161.6447265625 383.4 162.1 382.5146484375 163.339453125 381.575 164.525 380.1466796875 166.33203125 378.6 168 377 169.75 375.15 171.5 373.55 173 372 174.35 369.5 176.55 366.75 178.5 364.15 180.4 361.25 182.15 359.4 183.25 357.2 184 355.8 184.4 354.35 184.4 353.9 184.4 353.5 184.35 355.55 182.9 357.4 181.2 360.35 178.6 363.25 175.85 364.15 175 365 174.2 366.6 172.9 367.9 171.4 369.95 169.15 371.75 166.65 374.4 162.9 376.7 159 376.9388671875 158.5837890625 377.2 158.175 377.870703125 157.1037109375 378.65 156.125 379.023046875 155.6490234375 379.425 155.2 379.8927734375 154.6572265625 380.4 154.15 380.7537109375 153.821484375 381.1 153.5 381.4537109375 153.171484375 381.8 152.85 383.3142578125 151.5650390625 385 150.325 385.1478515625 150.2109375 385.3 150.1 386.355859375 149.3689453125 387.45 148.675 388.112890625 148.268359375 388.8 147.875
L 390.15 151.4
M 388.075 146.025
L 385.5 139.4
M 377.175 154.875
L 377.15 154.9
Q 376.2564453125 155.978515625 375.475 157.125 374.9912109375 157.8517578125 374.55 158.6 373.55 160.25 372.5 162.05 371.45 163.9 370.1 165.55 368.65 167.35 367.1 169.1 365.6 170.75 364.05 172.35 362.6 173.95 361.1 175.25 359.35 176.75 357.65 178.4 356 179.95 354.2 181.4 352.95 182.35 351.6 183.25 349.9189453125 181.2228515625 348.15 179.1 348.1201171875 179.0740234375 348.1 179.05 347.99296875 178.9216796875 347.875 178.8 347.74296875 178.664453125 347.6 178.55 347.5 178.6 347.35 178.65 346.65 178.95 345.85 179.1 345.9123046875 179.2205078125 345.975 179.35 346.0962890625 179.5583984375 346.225 179.775 346.8453125 180.8654296875 347.65 181.9 348.4 182.85 349 183.5 349.45 183.95 349.9 184.4 347.75 185.95 345.35 187.05 343.15 188.05 340.75 188.35 339.8 188.35 338.95 188.2 338.15 187.95 337.45 187.5 335.95 186.5 335.05 184.8 334.6560546875 184.0423828125 334.175 183.45 333.9921875 183.22421875 333.8 183.025 333.6521484375 182.88515625 333.5 182.75 333.3 182.85 333.05 183 332.55 183.3 332.1 183.45 332.127734375 183.5455078125 332.15 183.65 332.20859375 183.8361328125 332.275 184.025 332.8294921875 185.5892578125 333.85 186.95 334.75 188.2 335.9 189.2 337.7 190.85 340.3 190.5 341.55 190.45 342.85 190 344.35 189.65 345.85 189 347.6 188.25 349.15 187.4 350.5 186.75 351.6 185.7 353.7 186.6 355.85 186.45 358.5 185.95 360.85 184.65 362.75 183.7 364.35 182.55 365.5 181.85 366.65 181.15 367.95 180.25 369.05 179.4 370.7 178.15 372.4 176.65 373.8 175.4 375.15 174.35 377.05 172.75 378.65 171.05 379.75 169.8 380.9 168.45 381.3802734375 167.8685546875 381.9 167.25 382.40625 166.6427734375 382.95 166 383.9494140625 164.8267578125 384.95 163.55 385.0994140625 163.346484375 385.25 163.15 386.75 161.2 387.95 159.35 388.193359375 158.9607421875 388.425 158.575 389.3328125 157.1111328125 390.2 155.625 390.3041015625 155.4638671875 390.4 155.3 390.7 154.8 390.95 154.3 391.046875 154.1201171875 391.125 153.925 391.3552734375 153.45625 391.5 152.95 393.05 150.9 394.25 148.65 395.25 146.7 396.35 144.85 396.55 144.5 396.65 144.1 398.9 143.35 401.2 142.55 403.5 141.8 405.9 141.2 406.069140625 141.1435546875 406.25 141.1 407.8515625 140.5701171875 409.475 140.225 409.63125 140.1845703125 409.8 140.15 411.75 139.65 413.45 139.6 415.25 139.4 417.1 139.65 419.05 139.75 420.7 140.55 421.7 141 422.5 141.35 421.8 144.2 419.65 145.85 418.65 146.55 417.6 146.8 417.1572265625 146.88046875 416.75 147.1 416.6474609375 147.14140625 416.55 147.2 417.1 147.65 417.5 148.7 417.56171875 148.6912109375 417.625 148.675 419.3029296875 148.4111328125 420.75 147.35 423.05 145.7 423.95 143.3 424.1 142.9 424.25 142.55 426.2 144.3 427.65 146.4 429.1 148.45 428.1 151.1 427.45 152.75 426.6 154.3 425.75 155.9 424.5 156.95 423.2 158.15 421.6 158.75 421.35 158.85 421.15 159 421.229296875 159.2380859375 421.275 159.55 421.35 159.9966796875 421.35 160.6 421.35 160.9 421.35 161.15 421.4251953125 161.140234375 421.5 161.125
M 391.125 153.925
L 405.25 190.4
Q 406 190.2 407.25 189.8
L 409.2 194.4
Q 408.4 194.85 407.2 195.45 407.15 195.45 407.15 195.5 407.4 196.2 407.65 196.95 411.45 194.75 415.4 193.05 414.15 190.1 414.15 188.95 414.15 188.2 416.6 186.65 416.65 186.6 416.7 186.6 417.1 186.3 417.15 186.3 417.5 186.15 418.025 185.975
L 418.25 185.9
Q 417.7 185 417.7 184.5 417.7 184 417.85 183.6 417.6 183.55 417.35 183.45 414.55 182.9 414.55 180.8 414.55 179.45 415 178.9 414.35 178.6 413.5 177.4 412.7 176.25 412.7 175.7 412.7 175.05 413.3 174.05 413.25 174 413.2 174 412.85 173.8 412.65 173.15 412.5 172.9 412.45 172.7 412.15 172.35 412.15 172.2 412.15 171.45 412.5 170.8 412.5 170.7697265625 412.525 170.75
L 411.95 170.9
Q 409.85 169.65 411.2 168
L 404.65 147.5
Q 402.75 146 403.65 144.2
L 406.65 143.425
Q 406.5505859375 142.1548828125 406.25 141.1
M 375.475 157.125
Q 373.478515625 156.055078125 371.35 155.55 370.95 155.45 370.55 155.4 370.05 155.25 369.55 155.2 365.85 154.7 360.6 155.65 359.55 155.8 358.5 156.05 358.3 156.05 358.15 156.1 355.75 156.6 353.4 157.2 350.35 157.9 347.3 158.7 345.8 159.1 344.3 159.5 340.85 160.45 337.25 161.45 335.55 161.85 333.85 162.35 331.85 162.85 329.85 163.45 329.6 163.5 329.4 163.55 327.7 164 325.95 164.55 320.2 166.35 314.1 168.9 313.75 169.85 313.3 171.05 313.25 171.2 313.2 171.35 312.3 173.65 311.6 175.15 313.05 174.7 314.5 174.2 320.5 172.2 326.8 170.25 328.45 169.7 330.15 169.2 333.3 168.15 336.55 167.2 337.9 166.75 339.25 166.35 346.45 164.1 353.9 161.9 356.75 161.05 359.6 160.2 361 159.9 362.65 160.7 363.05 160.85 363.5 161.15 365.65 162.4 365.8 164.75 365.85 166.05 365.45 167.05 365.45 167.15 365.5 167.3 365.5 167.45 365.5 167.65 365.5 167.85 365.5 168.05 365.5 171.75 355.2 176.3 352.1234375 177.671484375 348.15 179.1
M 365.45 167.05
Q 365.4 167.2 365.35 167.3 365.05 167.95 364.55 168.5 363.2 169.9 361.6 170.5 358.55 171.4 354.9 172.55 352.45 173.35 349.8 174.2 350.05 175.6 350.45 177.85 349.151953125 178.40625 347.875 178.8
M 345.975 179.35
Q 345.487109375 179.458203125 345 179.55 344.2 179.65 343.45 179.75 343.05 179.75 342.65 179.8 341.7 178.2 341.05 177.1 337.5 178.25 334.5 179.3 334.7 180.7 335 182.45 334.475 182.7416015625 333.8 183.025
M 346.225 179.775
Q 345.7390625 179.935546875 345.25 180.1 344.8 180.25 344.35 180.4 344.1 180.45 343.9 180.55 338.6755859375 182.073828125 334.175 183.45
M 341.05 177.1
Q 341.45 176.95 341.85 176.8 342.65 176.55 343.55 176.25 343.95 176.1 344.4 176 347.2 175.05 349.8 174.2
M 334.5 179.3
Q 333.2 179.7 332.05 180.1 330.1 180.75 328.4 181.3 327.4 181.65 326.5 181.95
L 329.2 184.65
Q 329.951171875 184.321484375 332.15 183.65
M 332.275 184.025
Q 330.537890625 184.5279296875 328.95 185 324.35 186.4 320.7 187.55 318.2 188.35 316.15 189.05 315.65 189.2 315.25 189.35 315.75 189.4 316.3 189.55 319.35 190.05 322.2 190.65 326.45 191.5 330.25 192.45 332.85 193.1 335.3 193.8 346.8 197.1 353.2 201.3 353.95 200.5 354.5 199.7 354.5 199.65 354.55 199.6 354.85 199.05 355.1 198.5 355.4 197.8 358.15 195.45 360.9 193.05 366.15 189 367.9 187.8 369.5 186.55 370.95 185.35 372.25 184.15 377.55 179.1 380.35 172.95 380.7 172.1 381.05 171.25 381.25 170.75 381.4 170.3 381.6 169.8 381.7 169.3 381.85 168.35 381.9 167.4 381.9 167.3240234375 381.9 167.25
M 378.65 156.125
Q 378.71171875 156.16171875 378.75 156.2 379.8 157.2 380.7 158.3 380.0599609375 156.73359375 379.425 155.2
M 381.575 164.525
Q 381.4849609375 164.147265625 381.35 163.8 381.05 163.1 380.75 162.4 380.4 161.65 380 161 379.6 160.3 379.15 159.65 378.9 159.4 378.6 159.2 378.25 158.95 377.9 158.7 377.54609375 158.4248046875 377.2 158.175
M 390.25 184.1
Q 388.65 179.5 387.1 175.1 385.9 171.85 384.75 168.75
L 384.05 166.85
Q 384.1 167.05 384.1 168.05 384.1 169 383.95 169.75 383.8 170.5 383.65 171 383.45 171.5 383.35 172 383.25 172.45 383.15 172.95 381.35 180 374.7 185.95 374.05 186.45 373.5 186.95 371.3 188.7 369.7 190.1 368.15 191.4 367.1 192.35 362.8 196.15 360.75 199.7
L 360.75 199.75
Q 364.85 196.75 370.05 193.8 372.5 192.4 375.25 191 375.8 190.7 376.35 190.45 381.15 188 386.8 185.55 387.45 185.25 388.2 184.95 389.2 184.55 390.25 184.1 391.35 183.65 392.5 183.2
L 384.95 163.55
M 384.05 161.2
L 381.1 153.5
M 396.7 194.05
Q 397.85 193.45 398.9 192.9 400.3 192.2 401.5 191.7 402.6 191.2 403.5 190.9
L 403.55 190.9
Q 403.9 190.75 404.25 190.65 404.75 190.5 405.25 190.4
M 398.6 199.6
Q 398.7 199.55 398.8 199.55 400.55 198.7 402.05 198 402.55 197.7 403.1 197.5 403.55 197.25 404.05 197 404.7 196.7 405.3 196.4 405.45 196.3 405.6 196.25 406.4 195.85 407.15 195.5
M 392.5 183.2
L 396.35 193.15
M 380.35 151.525
L 376.7 142
M 404.275 134.35
Q 405.497265625 134.83984375 406.4 135.6 406.55 135.7 406.7 135.85 407.856640625 136.9435546875 408.625 138.325
M 406.65 143.425
L 410 142.575
Q 409.8275390625 141.3224609375 409.475 140.225
M 406.65 143.425
L 406.65 143.45 410 142.6 410 142.575 413.15 141.75
Q 415.2 142.65 414.1 145
L 414.35 145.85
Q 415.2 146.05 415.9 146.45 416.387890625 146.726953125 416.75 147.1
M 410.4 148.05
Q 410.65 147.8 411.1 147.8 411.7 147.8 411.75 148.45 411.75 149 411 149 410.4 149 410.4 148.05 Z
M 404.65 147.5
Q 407.85 146.65 411.1 145.8 412.6 145.35 414.1 145
M 439.85 163.75
Q 439.85 164.5 439.9 165.2 440 167.1 440.4 168.9 440.55 169.75 440.8 170.65 441.6 173.55 443.05 176.2
M 417.625 148.675
Q 417.75 149.1970703125 417.75 149.8 417.75 150.5 417.15 151.2 416.7 151.7 416.15 151.9
L 417.4 156.15
Q 420.046484375 156.2412109375 421.275 159.55
M 414.95 156.6
Q 416.15 156.6 416.15 157.45
L 416.15 157.5
Q 416.15 157.7 416.1 157.85 415.9 158.25 415.35 158.25 414.85 158.25 414.65 157.75 414.55 157.5 414.55 157.15 414.55 156.6 414.95 156.6 Z
M 412.25 149.9
Q 412.25 149.5 412.9 149.5 413.7 149.5 413.5 150.2 413.5 151 412.85 151 412.4 151 412.3 150.5 412.25 150.35 412.25 149.9 Z
M 410.15 153.6
Q 410.3 153.25 411.05 153.25 412.7 153.25 412.5 154.55 412.5 155.25 411.6 155.25 411.2 155.25 410.9 155.15 410.4 155 410.2 154.55 410.1 153.85 410.1 153.8 410.1 153.65 410.15 153.6 Z
M 407.35 151.55
Q 406.7 150.85 406.7 150.8 406.7 149.7 407.35 149.7 408.6 149.7 408.6 150.9 408.6 151.55 407.35 151.55 Z
M 410.35 159.5
Q 411.15 159.5 411.15 160.2 411.15 161 410.35 161 409.9 161 409.75 160.6 409.7 160.25 409.7 160.2 409.7 159.5 410.35 159.5 Z
M 415 162.55
Q 413.8 162.55 413.8 161.35 413.8 160.45 414.85 160.45 416.05 160.45 415.95 161.5 415.95 162.55 415 162.55 Z
M 413.2 165.3
Q 412.35 165.3 412.35 164.85 412.35 163.85 413 163.85 413.8 163.85 413.7 164.65 413.7 165.3 413.2 165.3 Z
M 412.5 170.8
Q 412.65 170.7 412.8 170.65 414.2 170.1 414.75 170.1 414.8 170.1 414.85 170.15
M 418.35 172.1
Q 418 172.1 415.4 173.4 418.95 173.25 419.75 172.3
L 419.8 172.25 418.35 172.1 Z
M 411.2 168
L 420 165.45
M 419.55 163.65
L 417.4 156.15
M 417.7 178.15
Q 423.4 178.15 423.45 176.9 423 176.7 421.4 176.65 421 176.7 419.25 177.4 418.05 177.85 417.5 178.15 417.6 178.15 417.7 178.15 Z
M 422.15 182.3
Q 423.1 182 423.9 181.35 423.45 181.35 423.1 181.35 420.05 182.3 419.9 182.4 421.25 182.4 422.15 182.3 Z
M 421.7 185.2
Q 421.05 185.4 420 185.5 418.948828125 185.8345703125 418.025 185.975
M 407.65 196.95
Q 408.25 198.6 408.9 200.2 415.2 196.75 422 194.25
L 420.9 190.9
Q 420.83125 190.9171875 420.775 190.925
L 420.65 191
Q 420.5974609375 191.0220703125 420.55 191.05 417.95 191.95 415.4 193.05
M 422 194.25
L 422.8 196.8 426 206.65 427.05 209.85 431.7 224.35 433.2 228.95 442.125 256.6 444.9 265.2
Q 445.0416015625 265.31015625 445.2 265.425 445.507421875 265.67578125 445.85 265.95
L 445.9 265.95
Q 446.07734375 265.7830078125 446.275 265.65 446.7947265625 265.2373046875 447.425 265 447.65078125 264.9150390625 447.9 264.85
L 444.975 255.475 436.35 227.9 434.95 223.25 430.45 208.75 429.5 205.55 426.45 195.6 425.65 193 424.65 189.75
Q 423.9 189.8 423.4 189.85 422.3216796875 190.0375 420.775 190.925
M 424.65 189.75
Q 424.9 189.65 425.2 189.55 426.2 189.3 427.2 189.05 428.9 188.6 430.6 188.25
M 425.65 193
Q 425.9 192.9 429.3 192.05 430.6 191.7 432.4 191.3 435.6 190.5 439.2 190.1 439.25 190.1 439.35 190.1 439.6 190.05 439.9 190.05 443.1 189.7 446.65 189.7 447.5 189.7 448.4 189.75 448.7 189.75 449.1 189.75 452.55 189.85 456.65 190.35 460.8 190.8 465.55 191.65
L 466.3 188.15
M 426.45 195.6
Q 427.05 195.4 427.7 195.25 432.35 193.95 435.85 193.25 439.9 192.8 443.4 192.3 446.9 191.8 452.65 191.9 458.4 191.95 465.25 193
L 465.55 191.65
M 435.35 187.4
Q 437.05 187.15 438.75 187 440.2 186.8 441.7 186.7 442 186.65 442.3 186.65 444.55 186.5 446.85 186.5 447.75 186.45 448.7 186.45 450.35 186.45 452 186.5 452.3 186.5 452.65 186.55
M 453.65 176.2
Q 454.4 171.8 453.65 165.75 453.55 165.1 453.5 164.45 453.45 164.35 453.45 164.3 453.4 163.95 453.35 163.65 452.95 161.2 452.5 159.3
L 452.45 159.05
Q 452.4 158.9 452.4 158.85 452.25 158.2 452.1 157.7
M 457.8 176.2
Q 457.9 171.05 457.7 167.25 457.6 165.75 457.45 164.4 457.4 163.95 457.35 163.5 456.9 160.35 456.15 157.9 455.85 156.95 455.55 156.15
M 465.25 193
L 464.85 194.7 464.8 194.8 462.65 204.3 461.95 207.45 458.6 222.05 457.5 227 451.125 255.1 448.95 264.65
Q 449.1 264.65 449.25 264.65 449.66484375 264.65 450.05 264.7 451.116015625 264.862109375 451.975 265.45 452.359765625 265.709765625 452.7 266.05 453 266.35 453.2 266.65
L 455.65 256.45 462.45 228.3 463.65 223.25 467.15 208.75 467.95 205.55 470.75 193.95 471.05 192.65 471.8 189.45
M 470.75 193.95
Q 473.4 194.45 476.4 195.1 477.6 195.15 479 195.2 479.35 195.2 479.7 195.2 477 193.85 471.05 192.65
M 416.15 151.9
L 414.35 145.85
M 480.1 205.2
Q 477.4 206.55 473.95 207.6 472.55 207 471.1 206.55 469.5 206 467.95 205.55
M 467.15 208.75
Q 475.1 211.05 482.15 215.55 488.2 219.35 493.65 224.8 512.25 243.4 512.25 269.7 512.25 296 493.65 314.6 475.05 333.2 448.75 333.2 422.45 333.2 403.85 314.6 385.25 296 385.25 269.7 385.25 267.75 385.35 265.85
L 380.9 265.35
Q 380.7 268.1 380.7 270.95 380.7 271.2 380.7 271.5 379.15 274.15 377.5 276.25
M 462.65 204.3
Q 462.45 204.25 462.2 204.2 455.7 202.95 448.7 202.95 444.15 202.95 439.85 203.5 439 203.6 438.2 203.7 438.1 203.7 438 203.75 434.25 204.25 430.7 205.25 430.35 205.3 430 205.4 429.75 205.5 429.5 205.55
M 458.6 222.05
Q 454.1 221.2 449.25 221.2 443.575 221.2 438.4 222.35 436.6470703125 222.730859375 434.95 223.25
M 430.45 208.75
Q 433.4 207.85 436.5 207.3 442.4 206.2 448.75 206.2 455.15 206.2 461.1 207.3 461.5 207.35 461.95 207.45
M 462.45 228.3
Q 464 228.8 465.5 229.4 470.6970703125 231.5740234375 475.3 235.2 477.4640625 236.9140625 479.5 238.95 480.4048828125 239.8548828125 481.25 240.775 486.9513671875 247.099609375 489.7 254.65 491.497265625 259.5798828125 492.025 265.025 492.25 267.321875 492.25 269.7 492.25 278.562890625 489.15 286.15 487.1625 291.0541015625 483.875 295.425 481.9154296875 298.0345703125 479.5 300.45 473.8416015625 306.1083984375 467.15 309.25 462.1802734375 311.590234375 456.65 312.55 452.830078125 313.2 448.75 313.2 441.5701171875 313.2 435.225 311.175 431.50703125 309.984765625 428.075 308.1 422.6837890625 305.1337890625 418 300.45 413.9515625 296.4015625 411.2 291.825 409.192578125 288.5048828125 407.875 284.9 405.25 277.83984375 405.25 269.7 405.25 268.85 405.3 268.05
L 401.3 267.6
Q 401.25 268.4 401.25 269.2 401.25 278.422265625 404.275 286.4 405.739453125 290.2685546875 407.925 293.85 410.9310546875 298.7810546875 415.3 303.15 429.35 317.2 449.25 317.2 469.15 317.2 483.2 303.15 497.25 289.1 497.25 269.2 497.25 249.3 483.2 235.25 477.1 229.15 469.95 225.7 466.9 224.25 463.65 223.25
M 436.35 227.9
Q 437.8953125 227.4509765625 439.5 227.125 443.70078125 226.246484375 448.25 226.2 448.5033203125 226.2 448.75 226.2 453.3 226.2 457.5 227
M 444.9 265.2
Q 444.6 264.95 444.35 264.75 442.35 263.2 440.65 261.8 439.3 260.65 438.2 259.6 435.9 257.55 434.45 255.8 434.25 255.55 434.05 255.35 433.3 254.4 432.8 253.55 431.3 251.15 429 246.95 427.55 244.35 425.8 241.05 425.3 240.1 424.8 239.15 424.7 239 424.65 238.8 424.4 238.4 424.2 238 423.5 236.6 422.7 234.85 421.8 232.9 420.8 230.5 420.1 228.95 419.4 227.25 419.35 227.1 419.3 227 417.3 222.15 414.85 215.9 414.2 214.25 413.55 212.6 412.75 210.5 411.9 208.25 411.45 207.1 411.05 205.95 410.55 204.65 410.05 203.35 409.45 201.8 408.9 200.2
M 399.65 202.15
Q 399.8 202.5 399.95 202.85 400.4 204 400.9 205.1 401.65 206.95 402.4 208.75 402.8 209.7 403.2 210.7 403.8 212.15 404.4 213.6 405.3 215.75 406.2 217.85 406.9 219.6 407.65 221.3 409.75 226.3 411.6 230.55 412.8 233.4 413.9 235.9 414.05 236.15 414.15 236.45 414.8 237.9 415.4 239.2 415.8 240.1 416.15 240.9 417.65 244.25 418.8 246.55 419.7 248.45 420.4 249.6 421.85 252.15 423.25 254.25 423.55 254.75 423.9 255.25 424.6779296875 256.3798828125 425.425 257.375 426.70390625 259.0408203125 427.9 260.3
L 427.95 260.35
Q 428.35 260.8 428.8 261.2 429.4439453125 261.801953125 430.175 262.4 432.0939453125 263.937890625 434.65 265.45 434.75 265.5 434.9 265.55 436.9 266.75 439.35 267.9 439.7 268.1 440.1 268.3 442.026171875 269.179296875 443.75 269.95 444.0748046875 270.1037109375 444.4 270.25 444.3607421875 269.97578125 444.35 269.7 444.35 269.62578125 444.35 269.55 444.35 268.45 444.8 267.5 444.9 267.15 445.15 266.85 445.180078125 266.79609375 445.2 266.75 445.4419921875 266.3580078125 445.75 266.05
L 445.85 265.95
M 422.7 234.85
Q 423.65 234.1 424.65 233.45 428.7 230.65 433.2 228.95
M 414.15 236.45
Q 411.5 239.25 409.4 242.35 405.4 248.05 403.4 254.6 402.3 258.05 401.8 261.7
L 405.85 262.15
Q 406.2232421875 259.890234375 406.825 257.725 407.6623046875 254.6890625 408.95 251.85 409.428125 250.798046875 409.975 249.775 410.83125 248.124609375 411.85 246.55 413 244.7 414.4 243 415.25 241.9 416.15 240.9
M 420.8 230.5
Q 423 228.8 425.35 227.45 428.4 225.65 431.7 224.35
M 413.55 212.6
Q 419.5 208.9 426 206.65
M 414.85 215.9
Q 420.65 212.1 427.05 209.85
M 438.2 259.6
Q 438.3 259.45 438.4 259.35 440.1 257.65 442.125 256.6
M 405.3 268.05
L 434.05 271.2 445.2 272.3
Q 444.803515625 271.720703125 444.6 271.075 444.45859375 270.6791015625 444.4 270.25
M 434.05 271.2
Q 434.1501953125 272.5517578125 434.475 273.825 434.85859375 275.3224609375 435.55 276.7 436.6169921875 278.7669921875 438.4 280.55 439.553125 281.703125 440.825 282.55 442.2353515625 283.490234375 443.8 284.05 446.2173828125 284.95 449 284.95 450.45546875 284.95 451.8 284.7 453.601171875 284.3818359375 455.225 283.625 457.6009765625 282.5490234375 459.6 280.55 460.7552734375 279.3947265625 461.6 278.125 462.153125 277.3083984375 462.575 276.45 464 273.4890625 464 269.95 464 268.9599609375 463.9 268.025 463.689453125 266.2919921875 463.1 264.725 462.414453125 262.848046875 461.2 261.2 460.5 260.25 459.6 259.35 459.5134765625 259.2634765625 459.425 259.175 458.1248046875 257.9125 456.65 257 456.155859375 256.7087890625 455.65 256.45
M 434.475 273.825
L 407.875 284.9
M 435.55 276.7
L 411.2 291.825
M 409.975 249.775
L 425.425 257.375
M 434.9 265.55
L 405.85 262.15
M 430.175 262.4
L 406.825 257.725
M 451.125 255.1
Q 450.1 254.95 449 254.95 448.31328125 254.95 447.65 255 446.752734375 255.0771484375 445.9 255.25 445.425390625 255.34296875 444.975 255.475
M 445.75 266.05
Q 445.8060546875 265.9970703125 445.9 265.95
M 447.9 264.85
Q 448.35 264.7 448.95 264.65
M 453.2 266.65
Q 453.7302734375 267.34765625 453.975 268.175 454.0896484375 268.5984375 454.125 269.05 454.15 269.298828125 454.15 269.55 454.15 270.845703125 453.575 271.875 453.2333984375 272.4849609375 452.7 273 452.056640625 273.6662109375 451.275 274.025 451.0869140625 274.113671875 450.9 274.175 450.476171875 274.3326171875 450.025 274.4 449.6474609375 274.45 449.25 274.45 448.018359375 274.45 447 273.925 446.32890625 273.57890625 445.75 273 445.69921875 272.94921875 445.65 272.9 445.37109375 272.59921875 445.2 272.3
M 483.875 295.425
L 461.6 278.125
M 481.25 240.775
L 459.425 259.175
M 447.65 255
L 448.25 226.2
M 439.5 227.125
L 445.9 255.25
M 456.65 257
L 475.3 235.2
M 400.9 205.1
Q 399.1 206.3 397.45 207.6 396.55 208.25 395.75 208.95 395.15 209.4 394.6 209.9 390.85 213 387.8 216.4 381.6 223.2 378.1 231.15 377.75 231.9 377.45 232.7 391.75 217.15 401.15 209.7 401.75 209.2 402.4 208.75
M 406.2 217.85
Q 403.35 220.1 400.65 222.8
L 400.6 222.85
Q 400.1 223.35 399.65 223.85 399.35 224.1 399.1 224.4 397.25 226.35 395.6 228.35 388.35 237.25 384.65 247.6 384.1 249 383.7 250.45 383.45 251.1 383.3 251.75 382.35 254.95 381.8 258.25 381.7 258.75 381.6 259.3
L 385.95 259.8
Q 386.15 258.55 386.35 257.35 386.75 255.25 387.25 253.3 388.6 247.95 390.95 243 393.8 236.8 398.2 231.25 399.55 229.5 401.05 227.8 401.2 227.65 401.35 227.5 401.7 227.05 402.15 226.6 402.95 225.7 403.85 224.8 405.7 222.95 407.65 221.3
M 353.2 201.3
Q 354.8 202.35 356.1 203.45 356.2 203.35 356.35 203.25 356.35 203.2 356.4 203.2 357.85 201.9 359.55 200.65 360.1 200.2 360.75 199.75
M 356.1 203.45
Q 347.15 211.3 345.6 219.4 345.25 220.95 344.95 222.5 344.6 224.1 344.25 225.7 343 230.95 341.55 235.25 339.5 241.35 337 245.4 336.6 246.05 336.25 246.65 330.45 255.15 320.8 258.45 317.15 259.65 314.75 260.5 311.85 261.45 311.4 261.4 311.4 261.3 311.4 261.2 310.7 258.95 310 256.95 308.8 253.5 307.45 250.8 305.1 246.1 302.35 243.6 302.15 243.5 301.95 243.45 297.55 242.05 288.9 241.4 287.25 241.25 285.5 241.15 284.65 241.1 283.8 241.1 282.65 241 281.5 241 273.8 240.7 267.8 240.9 265 241 262.55 241.25 262.4 241.25 262.3 241.25
L 245.7 210.15
Q 245.25 210.3 245.1 210.45 244.9 210.55 244.25 210.7 243.6 210.85 242.2 211.5 241.75 211.6 241.35 211.8 239.5 212.45 237.65 213.2
L 251.75 241.9
Q 249.05 242.15 246.3 242.5 243.15 242.9 239.95 243.35 239.4 243.4 238.9 243.5 238.7 243.5 238.6 243.55 238.45 243.55 238.4 243.55 236.65 243.8 234.95 244.05 234.85 244.05 234.8 244.05 234.5 244.1 234.2 244.15 231.4 244.55 228.6 245 227.7 245.15 226.75 245.3 225.6205078125 241.6291015625 224.15 238.1 222.4716796875 237.16171875 221.65 236.85 220.15 236.2 218.45 235.25 218.8 235.85 219.05 236.5 219.75 238.2 220.45 240 221.05 241.45 221.25 242.9 220.9646484375 242.9408203125 220.675 243 221.103515625 242.955078125 221.6 242.9 223.8 242.6 224.7 245.85 222.65 246.1 217.65 246.65 218 243.95 218.4 243.3 218.77265625 243.2412109375 219.35 243.175 218.9728515625 241.9150390625 218.6 240.75 217.9 238.8 217.05 237 216.1 235.15 215.1 233.25 214.15 232.75 213.2 232.4 212.05 231.85 210.85 231.3 209.5 230.6 207.95 230.25 206.35 229.85 204.55 229.2 201.8 228.45 199.05 227.6 198.961328125 227.6 198.875 227.6 199.6818359375 228.5396484375 200.45 229.5 202.85 232.6 204.85 235.9 207.8 240.75 209.8 246 209.85 246.15 209.95 246.35 210.3 247.25 210.6 248.15 209.95 248.25 209.3 248.4 209.2 248.4 209.15 248.45 207.75 248.7 206.4 249 202.9 249.65 199.35 250.45 199.1 250.45 198.9 250.55 195.3 251.3 191.65 252.1 189.1 252.65 186.55 253.25 175.573828125 255.809375 164.15 259.1 163.980859375 259.1478515625 163.8 259.2 160.6810546875 260.0619140625 157.55 261.025 156.8810546875 261.2349609375 156.2 261.45 156.1 261.45 156 261.5 157.9 257.45 160.85 253.5 166.5 245.75 175.9 238.15 177.9 236.55 180.05 234.9 182.05 233.4 184.25 231.9 187.15 229.85 190.4 227.75 190.7814453125 227.5021484375 191.175 227.25 190.609375 227.4501953125 190.05 227.55 187.45 228.2 185.1 229.15 182.65 230 180.25 231 178.35 231.7 176.55 232.55 173.8 233.65 171.05 234.8 168.65 235.75 166.4 236.65 164.85 237.2 163.3 237.7 161.2404296875 238.433984375 159.175 239.1 158.9333984375 239.31953125 158.7 239.55 153.8115234375 244.348046875 150.025 249.15 148.487890625 251.1068359375 147.125 253.075 146.3076171875 254.257421875 145.55 255.45
L 146.15 257.7
Q 146.3 257.7 146.5 257.7 146.7 257.7 146.9 257.7 147 257.5 147.1 257.35 147.2353515625 257.4853515625 147.45 257.6 147.6208984375 257.68125 147.85 257.75 148.0705078125 257.8234375 148.35 257.875 148.64296875 257.9244140625 149 257.95 150.7 258.3 152.25 259.25 153.8 260.15 155.1 261.65 152.2677734375 262.6390625 147.9 264.325 147.5609375 264.4482421875 147.225 264.575 147.057421875 264.6392578125 146.9 264.7 146 265.05 145.2 265.35 145 265.4 144.85 265.45 143.7830078125 265.867578125 142.9 266.2 142.8185546875 266.2248046875 142.75 266.25 141.8779296875 266.5630859375 141.175 266.825 140.2857421875 267.12890625 139.65 267.35 138.9595703125 267.5708984375 138.75 268.35 138.5658203125 268.99296875 138.7 270 138.7341796875 270.2955078125 138.8 270.625 138.99765625 271.7546875 139.5 273.3 139.7 273.85 139.95 274.5 140.065234375 274.707421875 140.225 274.875 140.384375 275.08828125 140.6 275.25 140.8 275.35 141 275.5
L 141.025 275.5
Q 141.498046875 275.694140625 142.05 275.75
L 142.1 275.75
Q 142.4 275.8 142.8 275.75 142.99296875 275.68828125 143.175 275.625 144.24296875 275.28828125 145.3 274.95 144.2 274.55 143.35 273.7 143.24453125 273.59453125 143.15 273.475 143.0556640625 273.3697265625 142.975 273.25 142.900390625 273.1609375 142.85 273.075 142.8193359375 273.0337890625 142.8 273 142.762890625 272.945703125 142.725 272.9 142.170703125 272.03125 142.025 271.05 142.0068359375 271.00078125 142 270.95 141.95 270.6 141.95 270.25 141.95 269.871875 142 269.5 142.1046875 268.8234375 142.4 268.2 142.4271484375 268.105078125 142.475 268.025 142.5677734375 267.76875 142.75 267.55 142.9908203125 267.11640625 143.325 266.775
L 143.35 266.75
Q 143.4 266.7 143.5 266.65 144.35 265.85 145.5 265.55 145.95 265.4 146.55 265.35 146.7 265.35 146.85 265.35 146.981640625 265.35 147.1 265.35 147.5576171875 265.3716796875 147.975 265.475 149.30703125 265.75703125 150.3 266.75 150.4638671875 266.9138671875 150.6 267.075 150.680078125 267.1779296875 150.75 267.275 150.7708984375 267.3064453125 150.8 267.35 151.75 268.6 151.75 270.25 151.75 271.3208984375 151.375 272.2 151.1380859375 272.7650390625 150.75 273.25 151.6240234375 273.0001953125 152.525 272.75 152.7158203125 272.7001953125 152.9 272.65 153.7 272.4 154.5 272.2 175.8 266.35 183.55 265.05 191.35 263.7 195.9 262.9 196.35 262.8 196.8 262.75 197.85 262.55 199.15 262.35 201.6 261.95 204.75 261.55 205.35 261.45 205.95 261.4 207.5 261.15 209.2 260.95 211.35 260.7 213.55 260.45 215.3 260.2 217.15 260 221.65 259.45 226.45 258.95 226.75 258.9 227.05 258.9 228.3 258.75 229.55 258.6 231.65 258.35 233.8 258.15 236.7 257.85 239.7 257.55 241.7 257.3 243.8 257.1 249.25 256.55 254.95 256 255.65 255.95 256.4 255.9 257.15 255.75 257.95 255.65 258.1 255.65 258.25 255.65 260.3 255.4 262.4 255.3 262.49375 255.3 262.625 255.3
L 262.65 255.3
Q 263.65 255.1 264.75 255.05 265.05 255 265.4 255 266.15 254.95 267 254.95 267.35 254.95 267.75 254.95 268.35 254.95 268.95 255 271.4 255.15 273.7 255.7 276.05 256 278.5 256.5 279.95 256.75 281.4 257.1
L 281.75 257.45
Q 285.05 260.85 285.95 262.2 286.05 262.5 286.2 262.85 286.5 263.75 286.8 264.7 286.95 265.1 287.05 265.5 287.95 268.3 288.45 270.4 288.8 271.9 289.2 274.2 289.2 274.4 289.25 274.6 289.4 275.65 289.6 276.95 290 280.65 290.25 281.9 290.25 282 290.25 282.05 290.25 283.85 294.2 284.6 296.7 285.05 300.85 285.1
M 401.3 267.6
L 385.35 265.85
M 385.95 259.8
L 401.8 261.7
M 380.9 265.35
L 365.3 263.6
M 365.65 257.45
L 381.6 259.3
M 301.35 331.65
Q 302.45 330.95 304.1 329.75 304.15 329.7 304.2 329.7 308.25 326.7 314.75 321.6 315.35 321.15 315.95 320.75 316.4 320.4 316.8 320 318.4 318.75 319.85 317.65 321.6 316.15 323.1 315 324.15 314.05 325.1 313.25 327.05 311.55 328.15 310.5
M 440.825 282.55
L 428.075 308.1
M 435.225 311.175
L 443.8 284.05
M 451.8 284.7
L 456.65 312.55
M 455.225 283.625
L 467.15 309.25
M 463.9 268.025
L 492.025 265.025
M 463.1 264.725
L 489.7 254.65
M 462.575 276.45
L 489.15 286.15
M 410.05 203.35
Q 416.6 199.15 422.8 196.8
M 195.5 153.9
Q 196.25 153.95 197 153.95 197.6 153.95 198.25 153.95 201.65 153.95 204.9 153.8 205.2 153.8 205.55 153.8 208.35 153.65 211.05 153.4 216.45 152.85 221.3 151.85 221.45 151.8 221.6 151.8 222.9 151.5 224.15 151.25 228.05 150.25 231.5 149 232.8 148.55 234.1 148 234.75 147.7 235.4 147.45 235.5 147.35 235.65 147.35 235.5 147.4 235.45 147.45 234.85 147.8 234.2 148.15 233.1 148.75 231.75 149.4 228.5 150.9 223.95 152.55 222.5 153.05 220.9 153.6 220.1 153.85 219.35 154.15 218.65 154.35 217.95 154.55 213.75 155.85 209.95 156.8 209.25 156.95 208.55 157.15 206.95 157.5 205.45 157.8 201.95 158.45 198.85 158.85 197.45 159 196.1 159.1 194.4 159.2 192.8 159.2 192.65 159.2 192.5 159.2 191.75 159.2 191 159.2 190.8 159.15 190.6 159.15 189.25 159.05 188.05 158.9 183.3 158.2 179.15 156.05 179.1 156 179 155.95 173.25 152.9 173.25 149.7 173.25 149.55 173.25 149.4 173.3 148.8 173.45 148.25 173.65 147.45 174.05 146.7
L 174.25 146.8
Q 174.25 147.15 174.4 147.5 174.5 147.9 174.85 148.3 176.1 149.95 180.4 151.35 181.35 151.65 182.5 151.95 186.65 153.05 191 153.55 191.1 153.55 191.25 153.6 192.3 153.7 193.35 153.8 193.85 153.8 194.35 153.85 194.9 153.9 195.5 153.9 Z
M 207.1 171.775
Q 206.305078125 171.9451171875 205.5 172.1 204.95 172.2 204.4 172.3 204.25 172.35 204.1 172.35 203.65 172.45 203.25 172.5 202.8 172.55 202.4 172.65 201.45 172.8 200.5 172.9 198.771484375 173.1357421875 197.025 173.3 195.546484375 173.502734375 193.525 173.575 191.0521484375 173.7 188.5 173.7 187.85 173.7 187.25 173.7 187.2 173.7 187.15 173.7 187.1 173.7 187 173.7 186.65 173.7 186.35 173.7 186.2859375 173.6962890625 186.225 173.7
M 128.7 187.9
L 129.35 190.65
Q 129.65 190.6 129.95 190.55 136.15 189.6 143.9 189.3 146.9 189.2 150.1 189.2 150.95 189.2 151.9 189.25 156.65 189.55 163.55 191.4 166.65 192.25 170.25 193.4 170.35 193.45 170.45 193.45 170.75 193.55 171.1 193.65 172.25 194.05 173.35 194.45 177.2 195.75 180.2 197 183 198.15 185 199.25 186.15 199.85 187 200.45 187.05 200.5 187.1 200.5 187.35 200.7 187.65 200.9 187.75 200.95 187.9 201.05 190.2 202.65 192.15 204.2 192.8 204.7 193.4 205.2 193.5 205.3 193.6 205.4 194.85 206.4 195.85 207.4 196.15 207.7 196.5 208.05 196.45 208.05 196.45 208.1 196.25 208.55 196.25 209.05 185.05 202.2 175.4 199.2 170.2 197.6 161.55 196 159 195.4 156.75 195.15 153.55 194.65 150 194.1 142.4 194.15 138.9 194.6 134.75 194.85 130.65 195.7
L 132.7 203.95
Q 134.65 203.6 136.65 203.35 141.3 202.7 146.25 202.7 147.6 202.7 149 202.75 152.45 202.85 155.85 203.3 158.15 203.6 160.45 204.1 163.4 204.65 166.2 205.5 169.15 206.4 172 207.55 173 207.95 174 208.4 175.2 208.9 176.4 209.5 177.95 210.3 179.45 211.15 180.3181640625 211.652734375 181.175 212.2 182.1681640625 212.1236328125 183.15 212.05 186 211.85 189.15 211.8 191.7 211.7 194.35 211.9 196.65 212.05 199 212.35 202.8 212.85 206.35 213.75 208 214.15 209.85 214.65 210.4 214.9 211.05 214.9 211.627734375 215.07109375 212.175 215.25 212.709375 214.9802734375 213.25 214.7 213.7 214.45 214.2 214.25 214.75 213.9 215.35 213.65 216.5 213.05 217.65 212.45 217.75 212.4 217.85 212.35 218.6 212 219.4 211.6 221.7 210.45 224.15 209.3
L 224.25 209.25
Q 228.25 207.35 232.5 205.4 232.95 205.2 233.5 204.95 237.2 203.25 241.1 201.6 243.55 200.5 246.05 199.45 247.45 198.85 248.9 198.3 249.7 197.9 250.55 197.6 251.3 197.25 252.05 196.95 252.2 196.9 252.3 196.85 258.2 194.45 264.4 192.05 267.5 190.85 270.7 189.65 270.85 189.55 271.1 189.5 272.3 189 273.55 188.55 277.95 186.85 282.55 185.25 284.55 184.5 286.65 183.75 292.75 181.55 299.2 179.35 300.45 178.9 301.8 178.45 306.3 176.9 311 175.35 311.3 175.25 311.6 175.15
M 197.025 173.3
Q 195.419140625 173.4546875 193.8 173.55 193.6576171875 173.558203125 193.525 173.575
M 194.75 176.35
Q 196.7 176.2 199.55 176 203.55 175.65 204.8 174.5
L 205 174.4 204.05 174.4
Q 196.7 175.5 194 176.15 194.4 176.25 194.75 176.35 Z
M 192.65 178.7
Q 194.35 178.65 195.25 177.85
L 195.3 177.8 192.5 178 190.6 177.85
Q 191 178.25 192.3 178.6 192.5 178.65 192.65 178.7 Z
M 197.55 181.2
Q 197.85 180.95 198.45 180.4
L 198.7 180.3 198.9 180.25
Q 198.45 180.25 198.1 180.25 197.45 180.5 196.1 180.5 195 180.5 194.05 180.4 194.35 181 195.7 181.15 196.5 181.25 197.2 181.35 197.45 181.3 197.55 181.2 Z
M 197.8 178.8
Q 202.95 178.45 204.7 177.65 204.75 177.3 204.65 177.25 204.5 177.15 202.8 177.2 201 177.45 196.65 178.75
L 197.8 178.8 Z
M 190.95 175.75
Q 192.15 175.4 194.2 174.8 189.7 174.8 187.85 174.25 187.8 174.35 187.8 174.5 188 175.5 190.4 175.7 190.7 175.7 190.95 175.75 Z
M 208.1 171.55
Q 210.8 170.9 213.5 170.15 213.55 170.1 213.65 170.1 214.55 169.8 215.45 169.55 215.95 169.35 216.55 169.15 218.1 168.6 219.65 168.05 220.15 167.85 220.65 167.65 220.7 167.6 220.8 167.55 221.7 167.2 222.6 166.85 223.2 166.55 223.8 166.3 225.45 165.55 227.05 164.8
M 223.8 166.3
Q 224.75 167.65 224.75 169.45 224.75 170.95 224.05 172.2 223.9 172.45 223.75 172.7 223.45 173.1 223.1 173.45 221.45 175.1 219.1 175.1 219 175.1 218.95 175.1 218.55 175.1 218.25 175.05
M 220.65 167.65
Q 220.7 167.65 220.75 167.75 220.85 167.8 220.95 167.9 221.75 168.7 221.75 169.8 221.75 170.1 221.7 170.35 221.55 171.1 220.95 171.65 220.4 172.25 219.6 172.4 219.35 172.45 219.1 172.45 218 172.45 217.2 171.65 216.45 170.9 216.45 169.8 216.45 169.45 216.55 169.15
M 213.5 170.15
Q 213.5 170.2 213.5 170.25 213.75 172.1 215.1 173.45 216 174.35 217.05 174.75
M 202.95 180.55
Q 200.8 181.05 199.45 181.55 203.55 181.3 204.65 180.6
L 202.95 180.55 Z
M 230.45 181.55
L 223.5 185.35
M 233 182.7
Q 233 183.15 226.25 186.95 225.5 186.3 225.5 186.25 225.5 185.5 228.5 183.85 230.1 183 232.25 181.95 233 182.6 233 182.7 Z
M 235.65 191.3
Q 235.45 191.4 235.3 191.5 234.55 189.45 233.95 188.45
L 234.1 188.4
M 233 186.4
L 225.65 189.6
M 315.25 165.1
L 315.25 165.2
Q 315.05 166.15 314.1 168.9
M 245.7 210.15
Q 246.1 210 246.55 209.85 248.1 209.25 249.6 208.7 251.05 208.15 252.5 207.6 253.1 207.35 253.75 207.15 258.5 205.35 262.95 203.75 266.4 202.45 269.75 201.3 271.95 200.5 274.1 199.75 274.3 199.65 274.55 199.55 279.8 197.65 284.7 196 288.5 194.65 292.1 193.45 295.55 192.25 298.8 191.2 301.3 190.4 303.7 189.65 306 188.9 308.2 188.2
L 308.25 188.2
Q 312.1 187 315.05 186 316.35 185.5 317.5 185.1 318.1 184.85 319.25 184.45 321.65 183.6 326.5 181.95
M 308.25 188.2
Q 311.85 188.75 315.25 189.35
M 47.5 138.75
Q 54.3 136.25 59.9 134.2 61.75 133.5 63.45 132.9 66.25 131.85 68.7 131 75.25 128.6 79.3 127.15 80.15 126.85 80.9 126.6 82.85 125.9 84.05 125.5 88 124.15 91.45 123.15 95.95 121.8 99.5 121.05 101 120.7 102.3 120.5 103.9 120.2 105.25 120.1 106.5 119.95 107.5 119.95 107.55 119.95 107.65 119.95 110.65 120 113 121.85 114.35 122.9 116.4 125.2 117.55 126.5 118.95 128.3 120.45 127.9 121.9 127.5 123.45 127.1 124.9 126.75
M 71 144.95
Q 73.1 143.9 75.65 142.75 77.75 141.8 80.2 140.85 80.9 140.55 81.7 140.25 82.55 139.9 83.5 139.55 89.6 137.2 97.45 134.7 99.3 134.1 101.3 133.45 102.4 133.1 103.5 132.8 104.35 132.5 105.25 132.25 105.45 132.15 105.6 132.15 107.65 131.5 109.6 130.95 114.45 129.5 118.95 128.3
M 79.9 154.4
Q 79.9 153.6 80.55 153.6 81.45 153.6 81.55 154.5 81.55 155.5 80.8 155.5 80.05 155.5 79.9 154.95 79.9 154.45 79.9 154.4 Z
M 75.4 152.55
Q 75.4 152.2 75.7 152.25
L 76.05 152.5 75.7 152.9 75.4 152.55 Z
M 73.05 158.4
Q 73.65 157.75 74.35 157.75 75.9 157.75 75.9 159.15 75.9 160.75 74.4 160.75 73.5 160.75 72.95 159.95 72.55 159.2 72.55 159.15 72.55 158.9 73.05 158.4 Z
M 126.85 147.3
Q 126.7 147.4 126.55 147.45 125.15 148.15 123.7 148.8 121.95 149.6 120.05 150.4 116.8 151.7 113.15 153 109.6 154.25 105.65 155.5 105.25 155.6 104.85 155.75 104.1 156 103.4 156.2 99.85 157.3 96.25 158.3 91.65 159.55 87.1 160.65 85.3 161.05 83.55 161.5 75.95 163.15 68.35 164.4 68.2 164.25 68.1 164.05 67.55 163.2 66.95 162.15 66.45 161.3 66.1 160.55 65.15 158.8 64.65 157.35 64.5 156.85 64.35 156.4 69.65 153.8 78.25 150.6 79.85 150 81.55 149.4 81.75 149.3 82 149.25 83.45 148.7 85.05 148.2 90.25 146.35 96.4 144.4 97.85 143.95 99.35 143.45 101.9 142.65 104.3 141.9 104.65 141.8 105.05 141.7 108.25 140.7 111.05 139.9 120.95 137 126.1 136.15 127.05 138.1 128.2 141.55 128.55 142.65 128.9 143.6 129.25 144.85 129.55 145.9 128.3 146.55 126.95 147.25 126.9 147.25 126.85 147.3 Z
M 67.1 159.7
Q 65.95 159.7 65.95 158.8 65.95 157.9 66.85 157.9 68.15 157.9 67.95 159 67.95 159.7 67.1 159.7 Z
M 54.85 154.4
Q 55 156.15 55.3 157.8 55.45 158.75 55.7 159.75 56.2 161.85 57 163.9 57.05 164 57.1 164.2 57.45 165.05 57.9 165.95
L 57.9 166
Q 58.4 167 59 168.05 59.4 168.8 62.3 172.65 63.55 174.35 65.3 176.6
M 43.9 168.1
Q 45.45 167.05 46.65 166.25 48.2 165.2 49.15 164.55 49.85 164 50.2 163.7
L 50.25 163.7
Q 49.95 162.35 49.85 160.85
M 50.2 163.7
L 50.25 163.75 50.25 163.7
M 44.65 170.25
Q 45.9 169.55 46.95 169 49.75 167.45 51.1 166.75 50.6 165.4 50.25 163.75
M 45.25 171.7
Q 46.25 171.1 47.2 170.65 50.05 169.3 52.15 168.9 51.55 167.95 51.1 166.75
M 46.35 173.8
Q 46.95 173.5 47.6 173.2 49.4 172.35 51.45 171.65 52.6 171.25 53.7 170.95 52.95 170.1 52.3 169.1 52.2 169 52.15 168.9
M 28.9 206.85
Q 36.1 203.4 42.9 200.35 47.2 198.35 51.3 196.5 51.75 196.3 52.25 196.1 53.55 195.5 54.9 194.95 55.65 194.6 56.4 194.3 58.65 193.25 60.9 192.3 66.7 189.8 72.1 187.6 73.4 187.05 74.7 186.55 75.4 186.25 76.15 186 76.9 185.7 77.6 185.4 82.95 183.25 87.85 181.5 89.05 181 90.3 180.6 91.4 180.2 92.45 179.8 94.3 179.15 96.1 178.55 96.15 178.5 96.25 178.5 101.05 176.85 105.55 175.5 106.15 175.3 106.8 175.15 107.8 174.8 108.85 174.55 109.5 174.35 110.1 174.2 111.3 173.85 112.5 173.55 114.3 173.05 116.05 172.6 116.6 172.45 117.2 172.35 119.9 171.65 122.5 171.15 130.4 169.5 137.2 168.95 137.75 168.9 138.35 168.9 141 168.7 143.5 168.7 146.4 168.7 149.3 169.5 150.9 169.95 152.55 170.7 153.4 171.05 154.2 171.45 156.05 172.4 157.85 173.65 160.4 175.4 163.1 177.8
M 80.325 199.45
Q 80.2310546875 198.825 80.15 198.2 79.956640625 196.884765625 79.725 195.6 79.4564453125 195.5416015625 79.2 195.45 78.4 195.15 77.75 194.55 77.65 194.45 77.55 194.35 76.25 193.05 76.25 191.2 76.25 189.8 77 188.65 77.2 188.35 77.5 188.1 77.5 188.05 77.55 188 78.9 186.7 80.75 186.7 82.6 186.7 83.9 188 85.25 189.35 85.25 191.2 85.25 193.05 83.9 194.35 82.9759765625 195.3095703125 81.775 195.575 81.831640625 196.1421875 81.9 196.7 82.0494140625 197.787890625 82.25 198.875 82.3015625 198.8626953125 82.35 198.85 87.75 197.3 93 195.8 93.1 195.75 93.2 195.75 94.190625 195.452734375 95.2 195.15 94.6541015625 193.522265625 93.95 191.85 93.808203125 191.5240234375 93.675 191.2 93.162109375 191.165625 92.7 191.05 92.45 190.95 92.2 190.85 91.45 190.5 90.8 189.85 90.5 189.55 90.3 189.3 90.2 189.1 90.1 188.95 89.55 188.05 89.5 187 89.5 186.85 89.5 186.7 89.5 184.85 90.8 183.5 92.15 182.2 94 182.2 95.25 182.2 96.25 182.8 96.5 182.95 96.75 183.15 96.95 183.3 97.15 183.5 98.5 184.85 98.5 186.7 98.5 186.9 98.5 187.15 98.35 188.7 97.15 189.85 96.75 190.3 96.25 190.6 96.0193359375 190.73828125 95.775 190.85 96.2228515625 192.147265625 96.6 193.45 96.7939453125 194.049609375 97 194.625 98.6751953125 194.140234375 100.35 193.65 102.45 193.05 104.6 192.45 105.0298828125 192.29375 105.5 192.175 105.485546875 190.4951171875 105.575 187.55 104.530859375 187.2615234375 103.7 186.5 103.6 186.4 103.55 186.35 102.8 185.6 102.5 184.7 102.25 184 102.25 183.2 102.25 181.35 103.55 180 104.55 179.05 105.8 178.8 106.25 178.7 106.75 178.7 107.2 178.7 107.65 178.8 108.8 179 109.75 179.85 109.85 179.95 109.9 180 110.05 180.15 110.2 180.3 110.25 180.4 110.35 180.5 111.25 181.65 111.25 183.2 111.25 183.55 111.2 183.85 111 185.3 109.9 186.35 108.8833984375 187.4072265625 107.575 187.65 107.407421875 189.7923828125 107.45 191.6 109.8525390625 190.878515625 112.25 190.2 112.85 190.05 118.35 188.75 119.85 188.35 121.65 187.95
L 121.7 187.95
Q 124.45 187.25 128.05 186.4 128.15 186.4 128.3 186.35
M 81.775 195.575
Q 81.68203125 194.6962890625 81.625 193.825 81.541015625 192.833203125 81.5 191.85 81.5 191.35 81.45 190.85
L 80.9 190.3 79.8 190.5
Q 79.327734375 192.0255859375 79.425 193.625 79.476953125 194.2345703125 79.6 194.85 79.66796875 195.2234375 79.725 195.6
M 79.425 193.625
Q 79.0943359375 193.4443359375 78.8 193.15 78 192.35 78 191.2 78 190.05 78.8 189.25 79.6 188.45 80.75 188.45 81.9 188.45 82.7 189.25 83.5 190.05 83.5 191.2 83.5 192.35 82.7 193.15 82.220703125 193.629296875 81.625 193.825
M 53.7 170.95
Q 55 172.55 56.45 173.65
M 144.75 148.25
Q 144.4 136.95 141 130.35 140.9 130.25 140.9 130.2 140.7 129.85 140.5 129.5 139.7 128.15 138.8 127
M 130.8 125.4
Q 131.65 125.9 132.5 126.85 133.8 128.3 135.2 130.8 135.5 131.35 135.85 132.05 136.25 132.9 136.75 133.9 139.9 140.8 140.25 145.55 140.6 150.3 140.1 154.6
M 122.95 138.4
Q 124.15 138.4 124.15 139.5 124.15 140.5 122.95 140.5 122.05 140.5 121.8 139.95 121.7 139.45 121.7 139.4 121.7 138.4 122.95 138.4 Z
M 121.55 147.1
L 121.2 147.25 120.9 146.9
Q 120.9 146.8 121.2 146.6 121.45 146.65 121.55 146.85
L 121.55 147.1 Z
M 125.85 144.1
Q 125.85 143.55 126.45 143.55 127.7 143.55 127.7 144.25 127.7 144.8 126.7 144.8 126.15 144.8 125.95 144.45 125.85 144.3 125.85 144.1 Z
M 144.1 127.35
Q 143.75 127.65 143.5 128.05 143 128.85 143 129.7 143 131.55 144.75 133.2 146.65 134.95 149.1 134.95 151.5 134.95 152.8 134.2
M 95.1 145.65
Q 95.2 145.7 95.4 145.9
L 95.3 146.15 95.1 146.2 94.8 145.9
Q 94.8 145.65 95.1 145.65 Z
M 102.8 146.3
Q 102.75 146.3 102.75 146.25 102.5 145.9 102.5 145.6 102.5 145.15 103.05 144.6 103.75 143.85 104.65 143.85 106.15 143.85 106.15 145.35 106.15 145.45 106.15 145.5 106.15 145.6 106.15 145.7
L 106.15 145.8
Q 106.15 146.15 105.4 146.9 104.85 147.5 104.55 147.65 104.3 147.75 104.2 147.75
L 104.05 147.6
Q 103.45 147.45 102.55 146.55 102.7 146.5 102.85 146.45
L 102.85 146.4
Q 102.8 146.35 102.8 146.3 Z
M 102.85 146.45
L 102.9 146.45
Q 102.851171875 146.448828125 102.85 146.4
M 104.55 147.65
Q 104.4 147.65 104.35 147.65 104.2 147.65 104.05 147.6
M 117.7 141.25
Q 118.7 141.25 118.65 142.1 118.65 143.1 117.5 143.1 116.9 143.1 116.7 142.6 116.6 142.1 116.6 142.05 116.6 141.25 117.7 141.25 Z
M 115.55 139.55
Q 115.55 140.4 114.95 140.4
L 114.55 139.9
Q 114.55 139.7 115.2 139.25
L 115.55 139.55 Z
M 114.15 147.3
Q 113.45 146.7 113.45 146.65 113.45 145.75 114.5 145.75 115.35 145.75 115.35 146.6 115.35 147.3 114.15 147.3 Z
M 113.55 142.4
Q 113.55 142.9 112.9 142.9
L 112.25 142.4
Q 112.25 141.65 112.95 141.65 113.45 141.65 113.55 142.4 Z
M 110.85 151.1
Q 110.75 152.2 109.85 152.2 109 152.2 108.55 151.35
L 108.25 150.45
Q 108.25 149.75 109.6 149.75 110.45 149.75 110.85 151.1 Z
M 139.45 161.5
Q 133.25 162.85 123.05 165.85 120.4 166.6 117.5 167.5 116.7 167.7 115.9 167.95 115.65 168.05 115.4 168.15 115.2 168.2 115 168.25 111.4 169.45 108.05 170.6 106.65 171.1 105.35 171.55 100.55 173.2 96.25 174.7 95.1 175.1 93.95 175.5
M 137.9 156.25
Q 131.9 159.45 123.4 162.45 120.7 163.4 117.75 164.35 117.25 164.5 116.8 164.65 115.9 164.95 114.95 165.25 111.4 166.3 107.45 167.4 107.15 167.45 106.8 167.55 106 167.75 105.15 168 100.95 169.1 96.25 170.25 94.75 170.6 93.15 170.95
M 97.7 149.55
Q 98.55 149.55 98.75 150.65 98.75 152 97.6 152 97.05 152 96.7 151.4 96.45 151 96.45 150.8 96.45 149.55 97.7 149.55 Z
M 94.9 150.45
Q 94.9 151.25 93.95 151.25 93.3 150.6 93.3 150.55 93.3 149.9 94 149.9 94.9 149.9 94.9 150.45 Z
M 91.95 156.5
Q 93.4 156.5 93.65 158.25 93.65 159 92 159 90.3 159 90.3 158.05 90.3 156.5 91.95 156.5 Z
M 84 149.55
Q 84 149 84.75 149 85.8 149 85.8 149.85 85.8 150.55 85.1 150.55 84 150.55 84 149.55 Z
M 83.9 155.95
Q 83.8 155.5 83.8 155.45 83.8 154.85 84.65 154.85 85.5 154.85 85.5 155.65 85.5 156.4 84.7 156.4 84.1 156.4 83.9 155.95 Z
M 93.675 191.2
Q 93.3353515625 190.28125 93.125 189.325 92.525 189.125 92.05 188.65 91.85 188.45 91.7 188.2 91.55 187.95 91.45 187.75 91.25 187.25 91.25 186.7 91.25 186.45 91.3 186.2 91.45 185.35 92.05 184.75 92.85 183.95 94 183.95 94.75 183.95 95.4 184.3 95.7 184.5 95.95 184.75 96.1 184.9 96.25 185.1 96.75 185.8 96.75 186.7 96.75 187.6 96.25 188.3 96.1 188.5 95.95 188.65 95.6033203125 188.9966796875 95.2 189.2 95.2646484375 189.426171875 95.35 189.65 95.5701171875 190.247265625 95.775 190.85
M 95.2 189.2
Q 94.91796875 188.3333984375 94.8 187.35 94.75 186.6 94.05 186.25 93.6 186.35 93.25 186.6 92.95 186.7 92.8 186.95 92.8701171875 188.1658203125 93.125 189.325
M 95.2 195.15
Q 95.278125 195.378125 95.35 195.6 95.9 197.2 96.45 198.65 96.9810546875 200.1103515625 97.6 201.6 97.66953125 201.8046875 97.75 202 98.423046875 203.504296875 99.225 204.95 99.43125 205.3251953125 99.65 205.7 100.630859375 207.475 101.775 209.075 101.8677734375 209.18828125 101.95 209.3 103.2 210.9 105 212.3 106.2958984375 213.355859375 107.675 214.55 107.7419921875 214.6 107.8 214.65 108.3216796875 216.6138671875 108.95 218.525 109.3556640625 219.7216796875 109.8 220.9 110.5 222.85 111.5 224.6 108.05 224.3 104.9 223.35 104.2486328125 223.1533203125 103.6 222.95 101.6232421875 222.291796875 99.7 221.5 99.5533203125 221.4353515625 99.4 221.375 97.073828125 220.3119140625 95.05 218.9 93.630859375 218.001171875 92.175 216.75 92.08359375 216.6728515625 92 216.6 90.9 215.7 89.75 214.6 89.360546875 214.2228515625 89 213.825 87.845703125 212.6240234375 86.9 211.3 86.784765625 211.139453125 86.675 210.975 85.18359375 208.8185546875 84.3 206.4 83.5 204.1 82.9 201.8 82.52734375 200.337890625 82.25 198.875
M 105.5 192.175
Q 105.4923828125 192.5708984375 105.5 192.9 105.5775390625 194.68359375 105.675 196.4 105.71640625 196.9060546875 105.75 197.4 105.8095703125 198.74140625 105.925 200.125 105.9990234375 201.0509765625 106.1 202 106.283984375 203.9328125 106.55 205.875 106.576171875 206.0328125 106.6 206.2 106.9 208.45 107.15 210.85 107.2 211.3 107.25 211.75 105.35 210.4 103.85 208.6 103.5943359375 208.28828125 103.35 207.975 102.0822265625 206.3142578125 101.2 204.55 101.0015625 204.1439453125 100.8 203.725 100.01640625 202.0703125 99.3 200.375 99.228515625 200.1900390625 99.15 200 98.45 198.25 97.8 196.7 97.379296875 195.6966796875 97 194.625
M 107.575 187.65
Q 107.5837890625 187.4453125 107.6 187.25 107.6515625 186.4634765625 107.65 185.825 107.683984375 183.9421875 107.35 183.2 107.1 182.7 107.1 182.55 106.1 182.05 105.6 182.9 105.7 183.65 105.65 185.45 105.64453125 185.594140625 105.65 185.725 105.603515625 186.6935546875 105.575 187.55
M 105.65 185.725
Q 105.17734375 185.52734375 104.8 185.15 104.65 185 104.55 184.85 104.15 184.35 104.05 183.8 104 183.5 104 183.2 104 182.05 104.8 181.25 105.3 180.75 105.9 180.6 106.3 180.45 106.75 180.45 107.9 180.45 108.7 181.25
L 108.75 181.3
Q 108.9 181.45 109.05 181.65 109.5 182.35 109.5 183.2 109.5 184.35 108.7 185.15 108.2427734375 185.6072265625 107.65 185.825
M 99.3 200.375
Q 102.0640625 198.4689453125 104.95 196.85 105.309765625 196.628515625 105.675 196.4
M 181.175 212.2
Q 180.1681640625 212.2736328125 179.15 212.35 176.75 212.4 174.35 212.8 174.31484375 212.8056640625 174.275 212.8 171.5140625 213.2544921875 168.7 213.6 166.85 214 164.9 214.3 164.25 214.4 163.6 214.55 162.25 214.8 160.9 215.05 159.65 215.4 158.15 215.65 156.8 215.9 155.55 216.2 153.9 216.65 152.25 217.1 150.25 217.7 148.15 218.15 146.5 218.65 144.6 219.2 142.75 219.75 140.9 220.25 139.059375 220.878515625 137.05 221.375 136.8298828125 221.44375 136.6 221.5 135.55 221.8 134.5 221.55 132.65 221.45 130.9 221 130.6658203125 220.9248046875 130.425 220.85 129.2658203125 220.508203125 128.1 220.3 126.1 219.95 124.3 219.35 122.25 218.65 120.15 218.15 118 217.45 115.9 216.65 114.65859375 216.0771484375 113.45 215.45 111.466015625 214.4625 109.55 213.35 109.545703125 213.3181640625 109.55 213.275 109.1451171875 210.367578125 108.7 207.4 108.5 206.0861328125 108.35 204.775 108.2357421875 203.7861328125 108.15 202.8 107.95 200.95 107.9 199 107.8974609375 198.9296875 107.9 198.85 107.8447265625 197.5796875 107.75 196.3 107.723046875 195.8130859375 107.7 195.325 107.609375 193.9861328125 107.5 192.6 107.4689453125 192.1126953125 107.45 191.6
M 107.9 198.85
Q 113.715625 195.226171875 119 193.3 119.5 193.1 119.95 192.95 121.3 192.5 122.8 192.1
L 122.1 189.5
Q 120.35 190 118.65 190.6 112.9833984375 192.5373046875 107.7 195.325
M 122.1 189.5
L 121.7 187.95
M 108.35 204.775
Q 108.449609375 204.7111328125 108.55 204.65 109.25 204.25 109.95 203.85 113.9 201.55 117.9 199.8 118.75 199.45 119.6 199.1 119.7 199.05 119.85 199 122 198.15 124.2 197.45
L 122.8 192.1
M 130.65 195.7
L 129.35 190.65
M 132.7 203.95
L 133.6 207.65
Q 134 207.55 134.45 207.5 140.15 206.5 146.25 206.5 147.2 206.5 148.15 206.55 150.8 206.6 153.45 206.9 154.85 207 156.3 207.25 160.8 207.9 165.05 209.15 169.65 210.55 173.95 212.65 174.11484375 212.7296875 174.275 212.8
M 224.15 238.1
Q 225.4517578125 238.816796875 227.25 239.9 228.980078125 240.9287109375 229.65 241.825 229.7078125 241.8884765625 229.75 241.95 230.85 241.5 231.85 241.4 231.837890625 241.3755859375 231.825 241.35 231.265625 240.27890625 229.75 239.35 227.4 237.95 226.65 237.4 225.85 236.8 223.7 235.75 223.33046875 235.565234375 222.975 235.375 221.2060546875 234.4904296875 219.75 233.7 218 232.75 216.7 231.65 215.55 230.6 214.55 229.1 213.25 227.15 211.25 225.7 209.35 224.3 207.3 223.5 205.45 222.7 203.35 222.65 201.7 222.65 200.05 223 198 223.4 195.65 223.7 194.15 224.1 192.7 224.5 191.4 224.15 190.2 223.95 187.95 223.45 185.7 223.35 183.9 223 182 222.8 180.765625 222.6291015625 179.525 222.5 177.515625 222.2740234375 175.5 222.15 173.4 222.2 171.3 221.95 168.65 222 166.05 221.95 163.35 221.9 160.55 222.2 159.05 222.2 157.45 222.4 157.0755859375 222.433984375 156.7 222.45 154.824609375 222.6 152.75 222.6 150.1 222.6 147.7 222.65 145.25 222.7 142.95 222.4 141.95 222.3 141 222.25 142.384375 221.9392578125 143.775 221.575 144.834375 221.3044921875 145.9 221 147.9 220.3 149.95 219.75 151.6 219.35 153.45 218.9 155.6 218.25 157.95 217.8 159.75 217.45 161.45 216.95 162.75 216.7 163.8 216.55 165.55 216.15 167.5 215.8 170.05 215.5 172.85 214.9 173.5 214.85 174.2 214.95 175.8326171875 214.7458984375 177.525 214.575 178.3345703125 214.4798828125 179.15 214.4 181.5703125 214.1580078125 184 214 184.0703125 214.0046875 184.15 214 186.75 214 189.15 213.8 191.1 213.7 193 213.75 197.3 214 201.55 214.75 203.45 215.05 205.2 215.55 207.25 215.95 209.25 216.55 210.4326171875 216.912109375 211.55 217.3 212.7619140625 217.7103515625 213.9 218.15 215.35 218.75 216.95 219.4 219.4 220.25 221.95 221.45 224 222.35 226.05 223.45 228.1 224.45 230.15 225.75 231.7 226.8 233.35 227.85 234.75 228.8 235.95 229.95 237 230.95 238 232 239.2 233.35 239.9 234.95 240.6 236.6 240.3 238.35 240.2 238.85 240.1 239.4 240.1 239.5333984375 240.1 239.775 240.1 239.8166015625 240.1 239.85 241.25 239.85 242.25 239.55 242.2669921875 239.4958984375 242.275 239.45 242.7845703125 237.74140625 242.3 235.9 241.8 233.9 240.75 232.3 239.6 230.6 238.25 229.3 236.9 228.05 235.4 226.85 233.7 225.55 231.8 224.4 229.95 223.3 228.05 222.35 226.2 221.35 224.4 220.35 222.8 219.55 221.15 218.75 219.1 217.9 217 217.15 215.25 216.55 213.55 215.8 212.8921875 215.5138671875 212.175 215.25
M 156.7 222.45
Q 153.6486328125 221.865625 150.45 221.65 148.6 221.5 146.75 221.5 145.2427734375 221.5 143.775 221.575
M 111.55 220.4
Q 110.8576171875 218.94609375 110.525 217.4 110.376953125 216.7076171875 110.3 216 110.84609375 216.4095703125 111.475 216.725 111.7826171875 216.873046875 112.1 217 112.45 217.2 112.85 217.4 114.95 218.35 117.15 219.1 119.4 220 121.8 220.75 124.05 221.4 126.45 222 128.68828125 222.44765625 130.975 222.95 128.84140625 223.5517578125 126.4 224.05 124.35 224.5 122.25 224.7 120.45 225 118.7 225 116.35 225.05 113.95 224.85 112.65 222.65 111.55 220.4 Z
M 137.05 221.375
L 133.6 207.65
M 130.425 220.85
L 126.35 205.5
Q 123.6 206.3 121 207.35 117 208.9 113.3 211.05 111.5 212.05 109.75 213.15 109.645703125 213.21796875 109.55 213.275
M 137.725 224.05
L 138.5 227.15
Q 141.3 226.65 144.35 226.55 144.8109375 226.52578125 145.275 226.525 145.7609375 226.5 146.25 226.5 147.2 226.5 148.2 226.55 151.317578125 226.6705078125 154.275 227.2 159.8853515625 228.174609375 164.9 230.6 166.1 231.15 167.3 231.8 169.25 230.15 171.4 228.5 171.5 228.4 171.65 228.3 169.85 227.2 168 226.3 167.5 226.05 167.05 225.8 164.9798828125 224.845703125 162.825 224.1 161.7740234375 224.151171875 160.7 224.2 158.45 224.25 156.15 224.5 153.65 224.6 151.4 224.6 149.1 224.8 146.8 224.65 144.55 224.55 142.35 224.5 140.05 224.25 137.8 224.05 137.7615234375 224.0455078125 137.725 224.05 135.60703125 223.8125 133.25 224.5 132.40078125 224.7642578125 131.525 225
L 132.5 228.6 135.3 239.075
Q 136.1591796875 239.2587890625 137.1 239.4 138.5 239.65 140.1 239.8 140.880078125 239.851953125 141.675 239.9
L 138.5 227.15
M 135.3 239.075
Q 134.323828125 238.8412109375 133.45 238.55 132 238.2 130.7 237.7 129.05 237.1 127.45 236.3 125.8 235.6 124.3 234.65 123.4322265625 234.0533203125 122.55 233.45 121.805078125 232.926171875 121.05 232.4 119.8576171875 231.515234375 118.7 230.475 118.34609375 230.173046875 118 229.85 116.9 228.85 115.9 227.5 115.65 227.2 115.4 226.9
L 119.4 226.95
Q 121.8 226.9 124.05 226.45 124.8236328125 226.38125 125.6 226.275 127.0908203125 226.04375 128.6 225.65 130.0943359375 225.369921875 131.525 225
M 125.6 226.275
Q 124.65703125 226.7181640625 123.75 227.25 122.45 227.95 121.25 228.75 119.9517578125 229.5673828125 118.7 230.475
M 122.55 233.45
Q 122.8486328125 233.2435546875 123.15 233.05 123.75 232.65 124.45 232.25 128.3 230 132.5 228.6
M 85.325 212.375
Q 86.1673828125 213.6330078125 87.15 214.8 87.3490234375 215.0486328125 87.55 215.3 88.5904296875 216.5072265625 89.8 217.55 90.1703125 217.8740234375 90.55 218.175 92.6166015625 219.896875 94.9 221.25 96.3783203125 222.107421875 97.9 222.85 98.9669921875 223.350390625 100.05 223.8 101.0099609375 224.183984375 101.95 224.5 102.9619140625 224.8640625 103.95 225.15 106.2 225.9 108.7 226.25 110.75 226.65 112.85 226.75 114.2 228.65 115.9 230.4 116.4958984375 231.04765625 117.125 231.675 117.7234375 232.2458984375 118.35 232.8 119.471484375 233.705859375 120.775 234.675 120.987109375 234.8419921875 121.2 235 122.45 235.95 123.85 236.6 125.25 237.3 126.5 238.05 127.15 238.35 127.9 238.65 129.65 239.55 131.35 240.05 133.540625 240.697265625 135.875 241.25
L 135.9 241.25
Q 137.4 241.5 138.95 241.65 140.5798828125 241.84765625 142.15 241.85
L 142.2 241.85
Q 144.05 241.9 146.05 241.95 146.195703125 241.95 146.35 241.95 148.1072265625 241.9154296875 150 241.5 150.778515625 241.3984375 151.55 241.25 153.0615234375 240.94609375 154.55 240.45 156.8666015625 239.8181640625 159.175 239.1
M 162.825 224.1
Q 163.9251953125 224.051171875 165 224 167.1 223.85 169.25 223.85 171.5 223.9 173.65 224.1 175.370703125 224.1419921875 177.025 224.3 177.33671875 224.3177734375 177.65 224.35 179.8 224.6 182 224.8 184.3 225.15 186.65 225.4 187.65 225.55 188.7 225.7 187 226.3 185.3 226.9 183.1 227.5 181.05 228.4 178.55 229.5 175.95 230.5 173 231.7 170.05 233 168.45 233.8 166.7 234.35 164.6814453125 235.1416015625 162.6 235.875 162.0521484375 236.0625 161.5 236.25 159.5 236.85 157.45 237.55 154.715625 238.3841796875 151.975 239.05 151.765625 239.098828125 151.55 239.15 148.925390625 239.7703125 146.2 239.925 146.0798828125 239.9431640625 145.95 239.95 144.5 239.95 143.15 239.95 142.4060546875 239.9259765625 141.675 239.9
M 154.275 227.2
L 151.975 239.05
M 146.2 239.925
L 145.275 226.525
M 100.8 203.725
Q 102.9369140625 202.133203125 105 200.75 105.461328125 200.425390625 105.925 200.125
M 106.55 205.875
Q 106.4015625 205.9578125 106.25 206.05 104.801171875 206.9734375 103.35 207.975
M 86.675 210.975
Q 86.76171875 210.88828125 86.85 210.8 90.75 206.9 94.9 203.65 95.95 202.8 97 202.05 97.29453125 201.828125 97.6 201.6
M 89 213.825
Q 91.8271484375 211.021875 95.1 208.3 95.3 208.15 95.5 207.95 95.7 207.8 95.9 207.65 97.58203125 206.236328125 99.225 204.95
M 90.55 218.175
Q 79.4681640625 228.127734375 72.7 238.7 75.85 229.1 83.25 220.1 84.55 218.5 86.05 216.9 86.784765625 216.091796875 87.55 215.3
M 107.675 214.55
Q 103.5056640625 217.4951171875 99.65 221.15 99.52578125 221.2564453125 99.4 221.375
M 101.775 209.075
Q 99.4689453125 210.7396484375 97.15 212.6 96.85 212.8 96.6 213 95 214.3 93.5 215.6 92.8263671875 216.17109375 92.175 216.75
M 97.9 222.85
Q 94.8478515625 225.93046875 92.25 229.25 90.05 232.05 88.2 235.05 79.75 248.45 78.5 264.8 78.25 267.7 78.25 270.7 78.25 275.15 78.75 279.4
L 83.3 278.55
Q 82.75 274.4 82.75 270 82.75 265.75 83.25 261.7 85.2 245.3 95.15 232.2 97.8 228.7 101.05 225.45 101.2 225.25 101.35 225.1 101.64765625 224.80234375 101.95 224.5
M 117.125 231.675
Q 115.294140625 233.1275390625 113.55 234.8 113.2 235.15 112.8 235.55 110.1 238.25 107.95 241.15 106 243.75 104.5 246.5 98.75 256.8 98.75 269.5 98.75 272.6 99.1 275.55
L 103 274.8
Q 102.75 272.45 102.75 270 102.75 267.92421875 102.925 265.925 103.34140625 260.955078125 104.8 256.425 106.85703125 249.9990234375 111 244.45 112.1888671875 242.8650390625 113.55 241.325 114.091015625 240.7369140625 114.65 240.15 115.05 239.7 115.5 239.25 117.50625 237.24375 119.65 235.55 120.21015625 235.107421875 120.775 234.675
M 100.45 282.65
L 84.55 285.6
Q 88.5 302.05 101.35 314.9 119.95 333.5 146.25 333.5 172.55 333.5 191.15 314.9 198.4 307.65 202.8 299.25
L 187.6 295
Q 184.7 299.45 180.7 303.45 166.65 317.5 146.75 317.5 126.85 317.5 112.8 303.45 103.65 294.3 100.45 282.65
L 104.3 281.9 135.45 276.1
Q 135 275.3 134.7 274.45 134 272.45 134 270.2 134 270.098828125 134 270 134.0078125 269.456640625 134.05 268.95
L 130.75 269.575 103 274.8
M 83.3 278.55
L 99.1 275.55
M 104.3 281.9
Q 106.268359375 289.0609375 110.725 295.175
L 136.35 277.55
Q 135.8462890625 276.8458984375 135.45 276.1
M 135.875 241.25
L 138.9 252.55 138.9 252.7 140.65 259.15
Q 142.2 258.25 144.05 257.95 145.05 257.75 146.15 257.7
M 146.9 257.7
Q 146.95 257.7 147.05 257.7 147.25390625 257.7 147.45 257.725 147.65390625 257.725390625 147.85 257.75
M 113.55 241.325
L 136.575 262.575
Q 137.0603515625 261.9396484375 137.65 261.35 138.109375 260.90703125 138.6 260.525
L 119.65 235.55
M 104.8 256.425
L 134.45 266.85
Q 134.6759765625 265.94140625 135.05 265.1 135.637890625 263.7611328125 136.575 262.575
M 134.05 268.95
Q 134.1 268.45 134.2 267.95 134.294140625 267.3849609375 134.45 266.85
M 138.6 260.525
Q 139.575 259.72109375 140.65 259.15
M 110.725 295.175
Q 112.83359375 298.08359375 115.5 300.75 116.510546875 301.760546875 117.55 302.7
L 137.825 279.225
Q 137.7349609375 279.1349609375 137.65 279.05 136.9294921875 278.3294921875 136.35 277.55
M 117.55 302.7
Q 124.9083984375 309.2525390625 133.9 311.825
L 140.775 281.4
Q 140.17109375 281.0453125 139.6 280.65 138.64921875 280.0162109375 137.825 279.225
M 133.9 311.825
Q 138.5787109375 313.1640625 143.7 313.425
L 143.275 282.325
Q 142.218359375 282.0556640625 141.25 281.6 141.1 281.55 140.95 281.5 140.8650390625 281.4513671875 140.775 281.4
M 161.3 276.9
L 157.25 276.65
Q 156.7974609375 277.3853515625 156.25 278.05
L 167.75 286 184.65 290.75
Q 185.25703125 289.64375 185.8 288.5
L 161.3 276.9 163.7 277.05
Q 179.7 272.55 194.3 270.5 197.65 270 200.95 269.65 202.65 269.45 204.55 269.35 213.9 268.55 227.7 268.3 228.35 268.3 229 268.3 231.45 268.25 234.05 268.25 237.15 268.2 240.5 268.2 242.35 268.2 244.35 268.3
L 244.6 266.95
Q 242.7 266.95 240.4 266.95 237.5 266.9 234 266.95 233.55 266.95 233.1 266.95 230.8 266.95 228.65 267 228.1 266.95 227.6 267 213.95 267.05 204.85 267.65 199.8 268 196.1 268.45 195.4 268.55 194.65 268.65 183.5673828125 270.20625 159.175 275.9 157.71640625 276.2421875 156.2 276.6
L 157.25 276.65
M 142.8 275.75
L 148.35 276.1
Q 148.6298828125 276.0041015625 148.925 275.9 149.315625 275.7705078125 149.725 275.65 150.72109375 275.31953125 151.8 275 151.9513671875 274.94453125 152.1 274.9 153.584765625 274.446484375 155.175 274 169.4962890625 269.9962890625 192.05 266.8 193.6 266.6 195.1 266.4 197.7 266 200.15 265.7 201.4 265.55 202.65 265.4 203.95 265.25 205.25 265.1 217.75 263.6 227.3 263.15 227.45 263.15 227.55 263.15 230.9 263 233.85 262.95 234.5 262.95 235.1 262.95 237.9 262.95 240.1 262.95 244.1 262.9 246 262.8 247.15 260.5 249.05 258.2 251.7 256.85 254.95 256.15
L 254.95 256
M 153.05 280.9
Q 152.4916015625 281.2623046875 151.9 281.55
L 153.8 282.075 153.05 280.9
Q 154.2615234375 280.1384765625 155.35 279.05 155.8279296875 278.5720703125 156.25 278.05
M 150.75 273.25
Q 150.55 273.5 150.3 273.7 150.227734375 273.7748046875 150.15 273.85 149.6509765625 274.328125 149.075 274.625 148.7923828125 274.7732421875 148.5 274.875 147.7283203125 275.15 146.85 275.15 146.05 275.15 145.3 274.95
M 143.7 313.425
Q 144.9673828125 313.5 146.25 313.5 155.17421875 313.5 162.8 310.375
L 152.45 284.7 145.65 282.7
Q 145.25 282.65 144.9 282.6 144.0607421875 282.5138671875 143.275 282.325
M 151.9 281.55
Q 151.6021484375 281.68984375 151.3 281.825 149.09140625 282.7 146.5 282.7
L 145.55 282.65 145.65 282.7
M 162.8 310.375
Q 166.31484375 308.929296875 169.55 306.825
L 156.175 285.8 152.45 284.7
M 156.2 276.6
L 148.35 276.1
M 145.55 255.45
L 142.15 241.85
M 151.55 241.25
L 150.025 249.15
M 147.125 253.075
L 146.35 241.95
M 102.925 265.925
L 130.75 269.575
M 62.65 215.5
Q 62.15 214.2 61.45 212.45 61.15 211.75 60.8 211.05 60.5 210.35 60.2 209.7
M 54.3 206.8
Q 53.7 206.95 53.1 207.1 51.5 207.55 49.85 208.05 49.75 208.05 49.65 208.1 48.35 208.45 47.1 208.8 46.95 208.85 46.8 208.9 42.8 210 38.75 211.15
M 41.05 215.35
Q 42.4 214.75 43.75 214.2 46.35 213.15 48.95 212.35 49.15 212.3 49.35 212.25 49.4 212.2 49.5 212.2 49.8 212.1 50.15 212 51.85 211.55 53.85 211.05 54.05 211 54.25 210.95 54.7 210.85 55.15 210.75
M 38.75 216.4
Q 39.4 217.45 39.95 218.45 40.05 218.65 40.2 218.85 40.25 219 40.35 219.15 40.8 219.95 41.2 220.7 42.9 223.75 43.8 225.7 43.8 225.85 43.9 225.95
M 36.5 218.95
Q 37.3 219.05 38.15 220.25 38.85 221.3 39.5 223.2
L 39.5 224.45
Q 39.1 224.7 38.55 224.7
L 38.5 224.7
Q 38.35 224.7 37.95 224.25 37.7 224 37.4 223.6 36.5 222.45 36.2 221.15 36.1 220.9 36.1 220.65 36 220.35 36 220.05 36 219.85 36 219.7
L 36 219.2 36.35 218.95
Q 36.4 218.95 36.5 218.95 Z
M 63.05 282.35
L 78.75 279.4
M 82.2 302.25
Q 83.2 300.45 83.9 298.35 81.35 292.65 79.95 286.45
L 64.3 289.35
M 79.95 286.45
L 84.55 285.6
M 242.275 239.45
Q 242.859765625 239.297265625 243.2 239.2 244.15 239.2 245.55 241.3 245.9 241.85 246.3 242.5
M 286.2 262.85
Q 282.65 259.35 278.5 257.4 276.2 256.3 273.7 255.7 271.35 255.45 269.1 255.3 268.4 255.25 267.75 255.25 266.55 255.2 265.45 255.2 265.1 255.2 264.8 255.2 263.7 255.2 262.65 255.3
M 267.55 264.4
Q 267.25 264.8 267 265.25 267.4 265.25 267.85 265.25 267.9 265.25 267.95 265.25 268.45 265.25 269 265.25 271.35 265.3 273.9 265.3 274.5 265.3 275.1 265.3 274.3 263.95 272.95 261.75
L 273.1 261.65
Q 273 261.65 272.9 261.65 270.25 261.7 268.3 263.6 268.25 263.65 268.2 263.7 268.05 263.85 267.9 264 267.7 264.2 267.55 264.4 Z
M 273.1 261.65
Q 275.95 261.65 278 263.7 278.7 264.4 279.2 265.25 280 266.7 280 268.55 280 271.4 278 273.45 276.15 275.3 273.6 275.45 273.35 275.45 273.1 275.5 272.5 275.45 271.95 275.4 269.85 275.05 268.3 273.5 268.25 273.45 268.2 273.45 266.15 271.4 266.2 268.55 266.15 266.75 267 265.25
M 254.95 256.15
L 255 256.15
Q 255.65 256 256.4 255.9
M 262.625 255.3
Q 262.49375 255.303125 262.4 255.35 260.2 255.65 258.2 256.35 256.6 256.85 255.1 257.6 251.1 259.55 247.7 262.9 247.65 262.95 247.6 263.05 246.55 264.05 245.65 265.2 245.15 265.8 244.7 266.45
L 244.6 266.95
M 262.4 255.35
L 262.4 255.3
M 246 262.8
Q 245.35 264 244.95 265.2
L 244.7 266.45
M 244.35 268.3
L 243.6 271.95 243.35 273.4 243.3 273.65
Q 242.85 275.3 242.7 276.3 242.4 278.3 241.25 279.6 240.65 280.3 239.8 280.8 239.75 281.5 239.75 282.2 239.75 288 241.85 292.95 243.85 297.6 247.7 301.45 249.15 302.9 250.75 304.15 254.3 306.8 258.4 308.15 262.4 309.45 267 309.45 267.2 309.45 267.35 309.45 270.45 309.4 273.25 308.8 280.210546875 307.2375 285.65 302.05
L 278 295.8
Q 278 295.9203125 278 296.05 278 298.9 276 300.95 274.15 302.75 271.75 302.95 271.4 302.95 271.1 303 268.25 302.95 266.2 300.95 266 300.7 265.85 300.5 264.15 298.6 264.2 296.05 264.15 293.2 266.2 291.2 267.65 289.7 269.6 289.3 269.769921875 289.263671875 269.95 289.225
L 269.35 288.75
Q 269.05 288.75 268.8 288.75 267.9 288.75 267.15 288.55 265.75 288.1 264.7 287.05 264.25 286.6 263.95 286.1 263.05 284.75 263.05 283 263.05 282.8376953125 263.05 282.675 263.16171875 280.4849609375 264.7 278.9 265.4037109375 278.2169921875 266.225 277.825 267.3935546875 277.25 268.8 277.25 271.2 277.25 272.85 278.9 274.3 280.35 274.5 282.25
L 274.95 282.7
Q 274.9376953125 279.91328125 276.95 277.95 277.3 277.6 277.65 277.3 279.45 275.9 281.85 275.9 284 275.9 285.7 277.05 285.9 277.2 286.1 277.35 286.4 277.6 286.75 277.95 288.75 279.95 288.75 282.8 288.75 285.65 286.75 287.7 284.77109375 289.6306640625 282.05 289.75
L 289.7 297.35
Q 292.1060546875 293.86953125 293.25 289.85 293.95 287.35 294.2 284.6
M 250.65 276.75
Q 249.6 275.25 249.45 273.4 249.4 273.1 249.45 272.8 249.4 272.5 249.45 272.2 249.6 270.2 250.8 268.65 251.1 268.3 251.45 267.95 251.85 267.5 252.35 267.2 253.9 266 255.9 265.9 256.15 265.9 256.35 265.9 257.95 265.9 259.3 266.55 260.35 267.05 261.25 267.95 263.25 269.95 263.25 272.8 263.25 275.35 261.65 277.25 261.45 277.45 261.25 277.7 259.8 279.1 258.05 279.55 257.2 279.7 256.35 279.75 255.85 279.7 255.45 279.7 253.15 279.4 251.45 277.7 251 277.25 250.65 276.75 253.55 276.9 256.2 277.05 256.85 277.05 257.55 277.1 259.65 277.15 261.65 277.25
M 261.2 293.9
Q 260.85 294.3 260.5 294.7 258.45 296.7 255.6 296.75 253.4 296.7 251.7 295.5 251.15 295.15 250.7 294.7 248.65 292.65 248.7 289.8 248.65 286.95 250.7 284.95 252.35 283.3 254.55 282.95 255.05 282.9 255.6 282.9 257.4 282.9 258.9 283.7 259.75 284.2 260.5 284.95 262.5 286.95 262.5 289.8 262.5 292.1 261.2 293.9 Z
M 243.3 273.65
L 243.3 273.4
Q 242.05 273.4 240.85 273.4 237.6 273.4 234.35 273.45 232.45 273.45 230.55 273.5 229.35 273.5 228.2 273.55 225 273.65 221.75 273.75 211.5 274.1 203.5 274.75 197.9 275.2 193.4 275.8 185.85 276.75 181.3 278.2
L 188.95 278.7 193.9 279 209.05 279.95 217.1 280.45 233.05 281.45 237.35 281.75
Q 238.75 281.4 239.8 280.8
M 243.3 273.4
L 243.35 273.4
M 269.35 288.75
Q 267.7740234375 287.43671875 266.225 286.075 266.0177734375 285.89296875 265.8 285.7 264.3 284.3 264.8 282.3 265.55 279.05 268.75 278.9 269.75859375 279.0708984375 270.675 279.425 272.4349609375 280.1349609375 273.85 281.55 274.2 281.9 274.5 282.25
M 285.7 277.05
Q 281.35 277.15 278.5 277.3 278.05 277.3 277.65 277.3
M 274.95 282.7
L 282.05 289.75
M 278 295.8
L 269.95 289.225
M 208.85 253.6
Q 263.5 246.7 284.55 246.7 300.65 246.7 304.95 260.35 305.7 262.8 306.8 269.7 307.45 273.85 308.7 273.95 307.85 265.6 306.9 259.1 305.95 252.6 301.35 248.95 296.3 244.95 286.4 243.95 286.15 243.95 280.7 243.55 234.85 247.45 213.3 250.7 189 254.35 173 260.45 173.15 260.65 174.6 260.55
L 174.55 260.6
Q 176.3 260.6 192.25 257.05 206.5 253.9 208.85 253.6 Z
M 219.4 211.6
Q 220.4 212.25 221.45 212.75 221.85 212.95 222.35 213.15 225.9 214.65 229.9 214.6 233.55 214.55 237.65 213.2
M 222.975 235.375
Q 221.527734375 232.2083984375 219.8 229.15 218.65 227.15 217.4 225.2 216.45 223.8 215.5 222.45 214.55 221.1 213.6 219.85 213 219.05 212.4 218.35 211.983984375 217.818359375 211.55 217.3
M 197.6 225.4
Q 199.7 225 202 224.85 204.55 224.45 206.75 225.4 208.15 226 209.4 226.95 211.2 228.3 212.8 229.9 211 229.2 209.35 228.65 206.35 227.6 203.35 226.85 200.95 226.1 198.2 225.6 197.9 225.5 197.6 225.4 Z
M 219.35 243.175
Q 219.3728515625 243.258203125 219.4 243.35 219.6 243.3 219.8 243.25 220.244140625 243.101953125 220.675 243
M 229.65 241.825
Q 229.3927734375 241.8853515625 229.1 241.95 228.8 242.1 228.6 243.45
L 228.6 245
M 234.8 244.05
Q 233.15 241.2 232.55 241.2
L 231.825 241.35
M 238.9 243.5
Q 238.95 240.15 239.5 239.95 239.585546875 239.8859375 240.1 239.775
M 184 214
Q 185.97265625 215.3640625 187.9 216.9 186.1 218 184.4 219.15 181.894921875 220.8201171875 179.525 222.5
M 177.525 214.575
Q 178.684375 215.20625 179.8 215.95 182.15 217.4 184.4 219.15
M 177.025 224.3
Q 176.4306640625 224.719921875 175.85 225.15 173.65 226.7 171.65 228.3
M 180.05 234.9
Q 180.4 235.25 180.7 235.55 180.9 235.75 181.1 235.95 188.25 243.25 191.65 252.1
M 175.9 238.15
Q 176.45 238.7 177 239.25 177.45 239.7 177.9 240.2 178.453125 240.7775390625 178.975 241.375 181.66171875 244.35625 183.675 247.625 185.341796875 250.3421875 186.55 253.25
M 167.3 231.8
Q 164.8521484375 233.8267578125 162.6 235.875
M 191.175 227.25
Q 191.8837890625 227.0048828125 192.6 226.6 192.72109375 226.5283203125 192.85 226.45 195.4 227.1 198.15 227.6 198.511328125 227.6 198.875 227.6
M 192.6 226.6
Q 194.863671875 229.0302734375 196.9 231.6 198.45 233.65 199.9 235.8 201.45 238.2 202.8 240.75 204.9 244.7 206.4 249
M 175.825 291.575
L 181.525 295.525
Q 182.2197265625 294.5955078125 182.85 293.65
L 175.825 291.575 156.175 285.8
M 181.3 278.2
L 172.3 277.6 163.7 277.05
M 243.6 271.95
Q 242.2 271.9 240.75 271.9 237.6 271.85 234.25 271.9 232.2 271.9 230.1 272 229.05 272 228.05 272.05 223.25 272.2 218 272.45 209.35 272.9 203.85 273.15 194.6 273.6 194.4 273.65 194.05 273.7 193.75 273.75 186.8 274.5 172.3 277.6
M 184.65 290.75
L 189.3 292.05
Q 191.15 288.6 192.4 284.9 193.35 282 193.9 279
M 182.85 293.65
L 187.6 295
M 185.8 288.5
Q 187.9849609375 283.8470703125 188.95 278.7
M 164.15 259.1
L 183.675 247.625
M 189.3 292.05
L 204.3 296.25
Q 207.8 288.55 209.05 279.95
M 217.1 280.45
Q 215.8 289.95 212.1 298.45
L 244.6 307.55
Q 243.75 306.8 242.95 306 241.15 304.2 239.7 302.3 233 293.5 233 281.95
L 233.05 281.45
M 202.8 299.25
L 210.7 301.5
M 169.55 306.825
Q 173.47890625 304.27109375 177 300.75 179.5052734375 298.2447265625 181.525 295.525
M 314.8 309.2
Q 315.5 309.25 316.35 309.3 316.8 309.35 317.3 309.45 317.55 309.5 317.8 309.5 320.35 309.25 321.5 308.55 321.75 308.4 321.95 308.2 322.5 307.65 323.2 307.35 323.8 307.1 324.55 307.05
M 314.65 317.4
Q 314.45 317.95 314.1 318.55 314.05 318.6 314 318.65 313.3669921875 319.54375 312.425 319.875 312.107421875 319.9990234375 311.75 320.05 310.3 320.3 309.1 319.4 308 318.55 307.8 317.15 307.65 316.35 307.8 315.65 307.833984375 315.5140625 307.875 315.375 308.040625 314.925390625 308.35 314.5 308.55 314.4 308.7 314.25 309.05 313.9 309.45 313.65 310.1 313.25 310.5 313.2 310.6 313.2 310.7 313.15 312.1 312.95 313.25 313.75 314.45 314.65 314.7 316.1 314.8 316.8 314.65 317.4 Z
M 303.825 316.875
Q 303.956640625 316.207421875 304.15 315.6 304.634375 314.0775390625 305.4 312.925
M 290.8 306.25
L 285.65 302.05
M 289.7 297.35
L 294.475 302.1
M 303.4 319.85
Q 303.15 321.6 302.7 322.9 302.25 323.85 301.35 325.1 301.15 325.35 301 325.65 300.9 325.7 300.85 325.75 300.1 326.7 299.45 327.45 298.95 328 298.55 328.55
M 255.95 314.2
Q 254.4 313.7 252.95 313.05 252.8 312.95 252.7 312.9 248.35 310.9 244.6 307.55
M 204.3 296.25
L 212.1 298.45
M 153.8 282.075
L 167.75 286
M 178.975 241.375
L 157.55 261.025
M 126.35 205.5
L 124.2 197.45"/>
</defs>

<g transform="matrix( 1, 0, 0, 1, 0,0) ">
<use xlink:href="#Layer0_0_1_STROKES"/>
</g>
</svg>
