
<svg xmlns="http://www.w3.org/2000/svg" version="1.1" xmlns:xlink="http://www.w3.org/1999/xlink" preserveAspectRatio="none" x="0px" y="0px" width="550px" height="800px" viewBox="0 0 550 800">
<defs>
<path id="Layer1_0_1_STROKES" stroke="#000000" stroke-width="1" stroke-linejoin="round" stroke-linecap="round" fill="none" d="
M 142.25 138.05
L 148.025 152.55
Q 149.3060546875 151.92578125 150.7 151.65 152.4 145.8 153.85 141.6 157.55 130.7 160.45 122.7 163.5 114.35 165.6 109.15 165.65 109 165.75 108.9 165.6 108.9025390625 166.2 108 153.987890625 109.1537109375 141.6 113.25 134.25 115.7 131.9 116.3 126.5 117.7 121.3 117.7 106.1 117.7 101.2 116.95 93.25 115.8 84.2 110.9 71.2 103.95 64.85 96.6 59.2 90.05 59.2 83.65 59.2 81 60.25 78.75 61.7 75.6 64.4 75.6 66.2 75.6 68.65 76.5 70.1 77.05 73.6 78.45 81.3 81.35 90.95 81.35 98.55 81.35 103.1 80.5 105.55 80.1 109.5 78.75 113.2 77.45 116.65 76.95 122 76.15 130.95 76.15 139 76.15 144.5 78.2 147.9 79.5 153.1 83.1 158.7 87.05 162.7 88.8 167.3658203125 90.884765625 173.4 92.225 173.4556640625 92.240234375 173.5 92.25 175.65 88.3 177.8 85.15 178.45 84.25 179.1 83.35 173.25 79.75 169.45 68.6 165.8 57.85 165.8 47.5 165.8 41.3 168.95 33.95 172.5 25.65 176.75 25.65 178.5 25.65 178.8 26.7 178.85 26.75 178.85 29.05 178.85 30.35 178.05 32.4 177.25 34.45 177.25 36.05 177.25 40.7 184.55 50.75 185.4 49.9 186.65 49.05 191.2 45.95 196.5 45.95 197.6 45.95 199.5 46.3 200.9 46.5 201.75 46.8 196.95 44.75 194.9 39 193.4 34.9 193.4 29.05 193.4 23.65 193.95 20.95 194.8 16.8 197.05 16.8 200.1 16.8 206.85 24.2 212.95 30.9 215.25 35.55 215 25.9 218.7 17.75 222.2 10.05 225.95 10.05 232.1 10.05 236.1 14.7 241.8 21.45 241.8 36.85 241.8 43.4 240.25 51.3 239.7 53.5 239.4 55.05 240.35 54.2 241.35 53.3 249.1 45.8 249.1 39.2 249.1 35.85 248.3 33.9 247.5 31.95 247.5 29.8 247.5 28.5 248.05 27.7 248.7 26.7 250.15 26.7 254.4 26.7 258.45 32.9 262.6 39.3 262.6 46.45 262.6 47.75 261.7 53.3 260.55 60.25 259 66.25 254.55 83.5 249.2 84.4 249.7 85.45 250.15 86.55 251.65 90.15 253 93.3 253.25 93.3 253.5 93.3 259.35 93.3 265 89.95 267.05 88.75 270 86.55 271.65 85.3 275.2 82.65 282.05 77.7 288.45 75.3 297.4 71.95 308.95 71.95 316.6 71.95 323.9 73.25 328.6 74.1 336.1 76.15 344 78.25 347.8 79 354.55 80.3 361.25 80.3 363.75 80.3 370.5 79 373.85 78.35 376.85 77.7 379.05 77.7 379.7 78.75 380.25 79.5 380.25 81.85 380.25 86.1 376.5 91.95 372.3 98.55 365.15 104.15 346.4 118.7 318.05 118.7 308.6 118.7 290.3 114.8 280.5 112.75 277.1 112.15 270.2 110.9 265.75 110.9 262.85 110.9 260.5 111.15 262.2 115.3 262.5 115.95 269.05 132 272 141.6 277.2 158.6 283.4 177.3 289.15 194.65 290.4 198.9 293 207.5 293.9 214 294.5 218.15 294.75 223.5 292.8 231.95 290 240 288.35 244.9 281.95 260.5 279.25 267.05 277.45 272.55 273.95 283.1 271.8 288.9 272.4 297.6 272.3 305.2 272.15 318.7 277.55 333.2 278.05 334.55 278.65 336.05 284.55 350.5 300.1 377.35 305.65 385.45 316.6 402.55 334.35 407.45 354.1 412.1 379 417.9 398.4 436.05 417.85 454.25 423.5 499.45 423.85 504.65 438.15 528.6
L 425.25 523.8
Q 416.25 517.75 415.1 517.3 413.8 523.95 411.5 531.4 410.4 534.85 409.5 537.15 408.85 534.7 406 529.65 403.1 524.6 402 516.75 400.9 508.9 400.75 506.25 393.9 490.4 380.5 481.55 370.5 474.9 352.45 472.25 367.15 517.3 381.9 598.85 382.4 598.7 382.95 598.55 390.9 596.45 395.4 596.45 408.35 596.45 417.15 602 423 605.7 429.6 614.15 434.05 619.9 434.7 620.65 437.65 624.2 440.35 626.35 447.2 631.85 456.8 631.85 469.4 631.85 472.95 625.7 474.4 623.15 474.8 618.9 475 616.7 475 610.5 475 603.45 471.6 595.2 470.65 592.8 464.1 579.9 458.95 569.8 456.6 561.85 453.15 550.5 453.15 538.2 453.15 527.15 458.55 518.45 459.25 512.4 463.15 507.4 468.35 500.7 475.55 500.7 476.85 500.7 482.05 501.75 487.25 502.8 488.55 502.8
L 491.7 502.8
Q 493.75 502.3 493.75 499.65 493.75 496.85 491.7 492.4 489.25 487.2 486.45 487.2 485.45 487.55 484.4 488.2 482.3 489.5 482.3 490.8 482.3 492.35 482.85 493.25 483.35 494.15 483.35 494.45 487.5 498.85 478.65 493.4 476.2 489.45 480 486.5 483.05 484.05 487 484.05 489.55 484.05 493.3 485.25 497.45 486.55 500.9 488.65 509.8 494 508.35 500.7
L 509.35 500.7
Q 512.2 496.05 509.35 491.4 511.85 493.95 513.3 495.8 517.7 501.5 517.7 505.4 517.7 519.05 511.5 525.75 505.7 531.95 494.8 531.95 489.5 531.95 479.05 529.35 469.65 527 466.8 526.75 466 527.4 465.25 528.05 458.35 534.1 458.35 540.8 458.35 549.15 463.6 559.85 466.65 566.2 475 579.25 483.3 592.2 486.45 598.8 491.7 609.7 491.7 618.3 491.7 633.6 482.35 640.2 475 645.4 461.5 645.4 450.85 645.4 441.75 639.7 436.15 636.2 426.25 628.65 416.3 621.1 408.7 617.9 401.05 614.7 388.35 624.05 387.5 624.65 386.75 625.2 388.4 636.2 384.65 644.55 383.05 647.3 381.2 649.9 390.95 671.8 393.65 681.4 395.7 688.75 396.35 696.35 396.9 702.1 396.9 712.95 396.9 722.5 392.45 732.3 388.85 740.3 380.75 751.45 374 760.9 368.55 767.6 372.95 769.05 378.45 771.55 380.95 772.7 389.6 776.95
L 389.6 778
Q 387.15 778.35 382.1 778.75 377.6 779.05 376.35 779.05 373.3 779.05 371.15 778.9 372.9 780.25 374.9 782.2 379.3 786.55 380.4 790.4 379.95 790.3 379.4 790.2 375.4 789.2 368.1 787.7 360.45 786.1 356.15 784.9 348.45 782.7 340.85 779 338.35 777.75 335.9 776.35 336.5 771.05 336.5 767.85 336.5 753.8 335.85 746.15 334.75 733.45 331.35 722.4 327 708.3 318.05 694.45 316.9 694.8 315.8 695.15 294.6 701.95 278.55 703.35 262.85 704.75 245.05 699.65 244.75 700.15 244.4 700.65 236.6 712.6 234.5 718.7 230.1 731.3 228.75 742.5 227.75 750.75 227.75 766.8 227.75 771.4 227.8 774.4 228.3 775.75 227.9 777.1
L 226.25 778.1
Q 220.1 781.8 210.15 785.75 197.55 790.7 189.85 791.55
L 186.2 791.55
Q 186.2 788.3 191.3 783.9 196.9 779.5 198.1 778 182.55 778 173.2 778.55
L 173.2 778
Q 175.35 774.75 185.3 770.55 191.9 767.8 196 766.95 190.15 760.45 182.2 750.35 170.8 735.8 171.75 713.3 172.65 690.75 181 665.65 181.45 664.25 181.95 662.9 173.1 648.9 173.1 630.45 173.1 617.2 177.1 561.8 181.45 502.25 182.75 480.1 176.5 481.9 173.65 481.9 156.85 481.9 142.35 470.1 130.3 460.25 120.65 442.95 112.8 428.9 107.95 412.75 104.1 399.95 103.9 392.9 102.9 391.9 101.9 391 99.35 388.75 96.65 386.85 86.9 380.05 74.55 372.15 79.45 369 83 369.05 86.55 369.05 90.4 369.8 94.3 370.6 95.1 370.95 95.9 371.3 96.65 371.55 94.8 367.05 89.85 360.85 84.9 354.65 88.8 355 101.4 357.25 108.65 366.05 115.9 374.8 116.9 375.3 119.1 371.65 120.35 369.75 122.6 366.4 124.2 365.9
L 126.8 365.9 126.8 368.5
Q 124.8 373.15 124.35 376.6 124.25 377.6 124.2 381.1 124.2 382.65 124.2 384.65 124.2 385.8 124.5 389.75 124.6 390.55 124.65 391.3 125.05 392.05 125.55 392.95 129.15 399.25 133.9 404.65 147.4 419.95 162.7 419.95 175.75 419.95 190.95 410.4 194.3 408.3 197.65 405.8 198.55 403.45 199.6 400.75 203.5 390.45 207.7 377.9 211.8 365.3 213.55 347.6 215.25 329.85 213.15 317.7 210.95 305.6 210.1 303.05 209.55 301.5 208.15 297.8 207.45 296.65 206.8 295.4 201.8 287.2 201.25 286.4 200.65 285.6 196.8 280.8 192.95 275.95 189 271.95
L 188.7 271.95 187.15 270.8
Q 177.65 273.75 167.9 273.75 159.05 273.75 149.85 271.45 138.9 268.7 130.45 263.3 108.55 249.5 108.55 222.45 108.55 213.5 113.25 206.1 118.2 198.25 124.7 198.25 128.35 198.25 135.15 199.85 138.65 193.4 141.55 184.6 141.65 184.25 141.8 183.9 138.5 178.55 138.5 171.3 138.5 163.8984375 141.875 158.475
L 129.4 151.65
M 249.2 84.4
Q 248.9 84.45 248.55 84.45 240 84.45 234.6 79.65 229.45 75 228.5 66.8 228.4 66.15 228.35 65.5 229.4 64.35 230.65 63.1 234.2 59.55 239.4 55.05
M 195.5 59.45
Q 194.9 59.7 193.9 59.9 193.2 60.35 192.55 60.9 190.3 62.6 188.95 64.95 186.65 68.95 186.65 74.85 186.65 74.95 186.65 75.1 186.85 77.45 190.3 78.7 193.1 79.75 196.5 79.75 202.15 79.75 210.3 70.55 212.85 67.65 214.7 65.2 217.05 62.1 218.3 59.7
M 184.55 50.75
Q 181.95 53.25 181.95 56.1 181.95 59.1 184.05 60 185.3 60.5 188.7 60.5 189.8 60.5 191.95 60.2
L 192 60.2
Q 193.1 60.05 193.9 59.9
M 191.95 60.2
Q 192.25 60.55 192.55 60.9
M 186.65 75.1
Q 182.65 78.55 179.1 83.35
M 226.9 130.8
L 219.95 147.5
Q 223.00703125 148.3953125 225.65 150.525
L 239.05 136.8
M 244.55 147.65
L 229.75 154.975
Q 234.55 161.63515625 234.55 170.75 234.55 180.7 228.9 187.7 223.3 194.7 215.3 194.7 207.3 194.7 201.7 187.7 196.05 180.7 196.05 170.75 196.05 160.85 201.7 153.85 207.3 146.85 215.3 146.85 217.734375 146.85 219.95 147.5
M 173.4 92.225
Q 170.381640625 97.4150390625 167.875 103.625 167.817578125 103.7650390625 167.75 103.9 166.9513671875 105.8966796875 166.2 108
M 102.8 94.05
Q 112.3 91 122.25 90 132.15 89 142 89.6 151.4 90.15 159.3 95.2 163.5619140625 97.912109375 166.125 101.225 166.1791015625 101.2923828125 167.875 103.625
M 160.45 122.7
Q 163.45 121.35 169.45 121.45 175.45 121.55 177.5 131.3 179.5 141.05 179.6 146.75 179.7 152.4 179.4 160.2 179.25 162.9 179.2 165.4 183.75 151.7 191.1 131.05 198.9 108.85 218.95 108.65 239 108.45 250.95 135.65 262.9 162.9 266.35 175.75 269.8 188.65 275.8 206.45 281.7 224.25 277.45 272.55
M 150.7 151.65
Q 151.75 151.45 152.9 151.45 158.85 151.45 163.05 157.25 167.3 163.05 167.3 171.3 167.3 179.5 163.05 185.3 158.85 191.1 152.9 191.1 146.95 191.1 142.7 185.3 142.2 184.6 141.8 183.9
M 187.15 270.8
Q 187.5 270.65 187.9 270.55 190.15 269.8 192.4 268.9 196.75 267.15 200.75 264.9 207.45 261.15 213.2 256.05 222.4 247.85 227.55 237.65 232.1 228.7 232.85 219.6 232.95 217.9 232.95 216.2 232.95 208.35 227.25 206.1 223.35 204.5 210.85 204.5 210.2 204.5 201.15 204.2 192.05 203.8 189.35 201.45 186.6 199.1 184.55 196.05 182.5 193 178.15 187.25 177 185.75 176.45 183.6 175.5 185.75 174.1 188 169.6 195.35 164.7 197.5 159.8 199.6 152.65 201.05 145.45 202.45 137.15 200.35 136.1 200.1 135.15 199.85
M 225.65 150.525
Q 227.360546875 151.9255859375 228.9 153.85 229.348046875 154.405078125 229.75 154.975
M 211 165.45
Q 213.95 161.65 218.05 161.65 222.2 161.65 225.15 165.45 228.1 169.3 228.1 174.65 228.1 180.05 225.15 183.85 222.2 187.7 218.05 187.7 213.95 187.7 211 183.85 208.05 180.05 208.05 174.65 208.05 169.3 211 165.45 Z
M 334.85 89.3
Q 298.8470703125 80.7083984375 262.85 100.475 270.346484375 103.233984375 278.3 104.4 288.3 105.85 298.15 103.45 302.3537109375 102.4353515625 305.85 101.85 305.97890625 101.8201171875 306.1 101.8
M 141.875 158.475
Q 142.26796875 157.846484375 142.7 157.25 143.275 156.4666015625 143.875 155.8
L 133.25 145.9
M 143.875 155.8
Q 145.7931640625 153.65 148.025 152.55
M 161.6 181.4
Q 159.1 184.6 155.6 184.6 152.15 184.6 149.65 181.4 147.15 178.2 147.15 173.65 147.15 169.05 149.65 165.85 152.15 162.65 155.6 162.65 159.1 162.65 161.6 165.85 164.1 169.05 164.1 173.65 164.1 178.2 161.6 181.4 Z
M 125.95 209.95
Q 125.7 210.65 125.55 211.6 125.3 213.25 125.3 214.75 125.3 221.3 126.8 224.9 128.55 229.15 133.65 233.85 135.95 233 136.6 230.8 136.65 230.45 136.7 230.1 136.75 229.4 136.75 228.8 136.75 223.4 134.7 217.6 131.9 209.8 127.15 209.8 126.55 209.8 125.95 209.95 124.6 210.25 123.25 211.35 120.6 213.5 120.6 217.6 120.6 223.2 122.75 228.05 125.45 234.25 130.25 234.25 130.3 234.25 131.25 234.3 132.35 234.25 133.3 233.95 133.5 233.9 133.65 233.85
M 101.9 391
Q 104.05 387.25 109.1 384.45 115.3 381 121.85 381 123.15 381 124.2 381.1
M 232.85 219.6
Q 232.95 226.85 231.9 234.05 230.45 243.85 228.8 253.65 227.9 258.75 226.5 263.7 225.3 267.85 223.7 271.9 221.4 277.85 217.55 282.85 213.6 282.95 210.7 280.35 210.1 279.8 209.55 279.15 205.75 274.45 202.8 269.1 201.7 267 200.75 264.9
M 169.1 240.5
Q 169 240.2 168.9 239.85 168.4 238.1 168.4 236.35 168.4 230.9 176.15 222.4 178.05 220.35 181.55 216.75 180.9 216.55 180.15 216.55 178.2 216.55 175.4 218 172.6 219.45 170 221.8 163.75 227.4 163.75 232.95 163.75 235.9 164.8 237.9 166.15 240.5 168.95 240.5 169.05 240.5 169.1 240.5 173.25 240.45 177.65 238.25 177.9 238.1 178.15 238 179.8 236.25 181.15 234.1 184.55 228.8 184.55 223.6 184.55 220.55 184.05 219.15 183.35 217.25 181.55 216.75
M 226.5 263.7
Q 220.15 264.3 215.5 269.9 211.75 274.45 210.7 280.35
M 278.65 336.05
Q 282.4 352.3 291.8 375.1 296.15 385.55 303.75 402.5 305.95 401 307.5 400 312 401.3 316.6 402.55
M 167.75 103.9
Q 156.3556640625 105.99140625 132.7 102.2
M 227.8 774.4
Q 226.8 775.05 226.35 775.2 225.55 775.4 218.4 775.4 210.8 775.4 204.7 774.15 203.5 773.95 202.45 773.65 201.6 772.75 200.7 771.85 198.55 769.75 196 766.95
M 352.45 472.25
Q 344.2 471 334.3 470.6 348.7 506.65 354.35 534.85 361.4 570.4 368.8 608.3 371.25 621.1 372.6 631.1 377.4 641.4 381.2 649.9
M 423.5 499.45
Q 422.85 504.15 413.8 509.4 404.4 509.5 400.75 506.25
M 368.55 767.6
Q 366.5 770.2 364.6 772.4 358.75 774.9 352.7 776.65 346.05 778.55 340.85 779"/>
</defs>

<g transform="matrix( 1, 0, 0, 1, 0,0) ">
<use xlink:href="#Layer1_0_1_STROKES"/>
</g>
</svg>
