<?xml version="1.0" encoding="utf-8"?>
<!-- Generator: Adobe Illustrator 18.0.0, SVG Export Plug-In . SVG Version: 6.00 Build 0)  -->
<!DOCTYPE svg PUBLIC "-//W3C//DTD SVG 1.1//EN" "http://www.w3.org/Graphics/SVG/1.1/DTD/svg11.dtd">
<svg version="1.1" id="Layer_1" xmlns="http://www.w3.org/2000/svg" xmlns:xlink="http://www.w3.org/1999/xlink" x="0px" y="0px"
	 viewBox="51.2 21.5 453.4 853" enable-background="new 51.2 21.5 453.4 853" xml:space="preserve">
<g transform="matrix( 1, 0, 0, 1, 0,0) ">
	<g>
		<g id="Layer0_0_FILL">
			<path fill="#339900" d="M127.2,703c-0.1-0.1-0.2-0.1-0.4-0.1l0.1,0.2c0.1,0.1,0.3,0.2,0.4,0.3C127.3,703.2,127.2,703.1,127.2,703
				 M143.9,602.2c0.1,0.1,0.1,0.1,0.2,0.2v-0.2C144.1,602.3,144,602.2,143.9,602.2 M180.3,530.8c0.1-0.4,0.1-0.8,0-1.2
				c-0.1-0.1-0.2-0.1-0.3-0.1L180.3,530.8z"/>
			<path fill="#FE2C7B" d="M297.9,283.8l-2.9-3c1.1,1.2,2.2,2.5,3.2,3.7L297.9,283.8 M238.2,237.4c-0.4-0.1-0.7-0.1-0.9-0.1l0.1,0.1
				H238.2z"/>
			<path fill="#FFFFFF" d="M285,252.3c-1,1-1.5,2.2-1.5,3.6c0,1.4,0.5,2.6,1.5,3.5c1,1,2.2,1.5,3.5,1.5s2.5-0.5,3.4-1.5
				c1-0.9,1.5-2.1,1.5-3.5c0-1.4-0.5-2.6-1.5-3.6c-0.9-0.9-2-1.3-3.4-1.3S286,251.4,285,252.3 M271.6,260.1c-0.9,1-1.3,2.2-1.3,3.6
				s0.4,2.5,1.3,3.4c1,1,2.2,1.5,3.6,1.5c1.4,0,2.6-0.5,3.5-1.5c1-0.9,1.5-2.1,1.5-3.4s-0.5-2.6-1.5-3.6c-0.9-1-2.1-1.5-3.5-1.5
				C273.9,258.6,272.7,259.1,271.6,260.1 M266,256.5c0-1.4-0.5-2.6-1.6-3.6c-0.9-1-2.1-1.4-3.5-1.4c-1.4,0-2.5,0.5-3.5,1.4
				c-0.9,1-1.4,2.2-1.4,3.6c0,1.4,0.4,2.5,1.4,3.5c1,1,2.2,1.5,3.5,1.5c1.4,0,2.6-0.5,3.5-1.5C265.4,259,266,257.9,266,256.5
				 M278.2,244.6c-0.9-0.9-2.1-1.3-3.5-1.3s-2.6,0.4-3.6,1.3c-0.9,1-1.3,2.2-1.3,3.6s0.4,2.5,1.3,3.5c1,1,2.2,1.6,3.6,1.6
				s2.5-0.5,3.5-1.6c1-1,1.5-2.1,1.5-3.5S279.2,245.6,278.2,244.6 M279.9,227.6c-0.9-0.9-2.1-1.4-3.5-1.4c-1.4,0-2.6,0.5-3.6,1.4
				c-0.9,1-1.3,2.2-1.3,3.6s0.4,2.5,1.3,3.5c1,1,2.2,1.5,3.6,1.5c1.4,0,2.5-0.5,3.5-1.5c1-1,1.5-2.1,1.5-3.5
				S280.9,228.6,279.9,227.6 M257.6,238.3c0,1.4,0.4,2.5,1.3,3.4c1,1,2.3,1.6,3.7,1.6c1.4,0,2.5-0.5,3.4-1.6c1-0.9,1.5-2.1,1.5-3.4
				s-0.5-2.6-1.5-3.6c-0.9-0.9-2-1.3-3.4-1.3c-1.4,0-2.7,0.4-3.7,1.3C258.1,235.7,257.6,236.9,257.6,238.3 M288,235.5
				c-1.4,0-2.6,0.5-3.6,1.4c-0.9,1-1.3,2.2-1.3,3.6c0,1.4,0.4,2.5,1.3,3.3c1,1,2.2,1.6,3.6,1.6c1.4,0,2.6-0.5,3.5-1.6
				c1-0.9,1.5-2,1.5-3.3c0-1.4-0.5-2.6-1.5-3.6C290.6,236,289.4,235.5,288,235.5z"/>
		</g>
	</g>
	<g>
		<path id="Layer0_0_1_STROKES" fill="none" stroke="#000000" stroke-linecap="round" stroke-linejoin="round" d="M341.2,55.9
			c-28.7,38.5-46,87.1-52,145.8c-0.1,0.8-0.1,1.7-0.2,2.5c-0.6,5.7-1.1,11.4-1.4,17.2c-0.1,1-0.1,2-0.2,3.1
			c5.6-6,10.9-12.1,15.9-18.2c1.2-1.5,2.4-3.1,3.6-4.6c35.2-44.2,56.1-90.3,62.7-138.4C370.5,33.8,361,31.3,341.2,55.9z M410.6,94.5
			c-39.2,23.3-72.4,59-99.5,107.2c-1.7,3-3.4,6-5,9.1c-2.9,5.5-5.8,11.1-8.5,16.8c-0.4,0.7-0.7,1.4-1.1,2.1
			c7.4-3.4,14.5-6.9,21.4-10.6c10.2-5.5,20-11.3,29.3-17.4c37.6-24.8,66.5-54.5,86.9-89.3C446.2,85.3,438.4,79.3,410.6,94.5z
			 M480.3,233.2c-47.5-12-100.2-9-158.2,8.9c-5.9,1.8-11.9,3.8-17.9,5.9c4.6,1.7,9.3,3.4,13.9,4.9c59.2,19.5,114.1,22.8,164.8,9.8
			c0.5-0.1,0.9-0.3,1.4-0.4c26.9-10.3,26.4-19.8-1.4-28.4C482,233.8,481.2,233.6,480.3,233.2z M471,312.2
			c-39.5-29.4-89.7-46.9-150.5-52.5c-5.9-0.6-12-1-18.1-1.3c3.9,3.6,7.8,7.1,11.8,10.4c32.7,28.1,66.6,48.2,101.6,60.4
			c15.7,5.4,31.6,9.2,47.8,11.5c23.3,0.6,29.8-5.2,19.4-17.4C480.1,320.1,476.1,316.4,471,312.2z M432,381.6
			c-11.2-18.8-25.3-36.3-42.3-52.4c-21.4-20.3-47.3-38.4-77.8-54.2c-5-2.5-10-5-15.1-7.5c2.3,4.9,4.7,9.8,7.1,14.6
			c8.7,17.1,18.1,32.8,28.4,47.1c23.2,32.3,50.5,57.6,81.8,75.9C441.2,417.2,447.2,409.4,432,381.6z M459.4,157.1
			c-37.3,5.5-74.1,20.3-110.4,44.6c-10.4,6.9-20.7,14.6-31,23.1c-4.9,4-9.8,8.3-14.8,12.7c-0.3,0.3-0.7,0.6-1,0.9
			c5.7-0.2,11.3-0.5,16.8-0.9c48.1-3.8,90.1-15.7,126-35.8c10.2-5.7,19.9-12,29.1-18.9C495.8,162.3,490.8,153.8,459.4,157.1z
			 M263.4,45.8c-11.8,46.7-9.1,98.6,8.1,155.5c0,0.1,0,0.2,0.1,0.3c1.7,5.5,3.5,11,5.5,16.6c0.4,1.2,0.8,2.5,1.2,3.7
			c2.5-6.8,4.9-13.6,7-20.3c0.1-0.3,0.2-0.7,0.3-1.1c17.6-56.9,19.9-109.9,7-158.8C282,14.1,272.2,15.4,263.4,45.8z M214.6,56
			c28.2,37.9,45.5,85.6,51.8,143.1c0.1,0.9,0.2,1.8,0.3,2.6c0.8,7.5,1.4,15.1,1.8,22.9c-1-1-1.9-2-2.8-2.9
			c-3.7-4.1-7.2-8.2-10.5-12.2c-2.2-2.6-4.3-5.2-6.2-7.7c-35.2-44.1-56.1-90.2-62.7-138.2C185.3,33.9,194.8,31.4,214.6,56z
			 M237.2,237.4c-12.6-1-24.7-2.6-36.4-4.7c-45.7-8.3-85.1-24.9-118.1-49.9c-21.5-20.5-16.5-29,14.9-25.6
			c37.4,5.5,74.2,20.3,110.4,44.6c10.3,6.9,20.6,14.6,30.9,23.1c5.3,4.3,10.5,8.8,15.8,13.6c-5.6-0.2-11.1-0.5-16.4-0.9
			C237.8,237.4,237.5,237.4,237.2,237.4z M145.9,94.5c39.2,23.3,72.4,59,99.7,107.2c0.6,1.1,1.2,2.2,1.8,3.3
			c4.3,7.9,8.5,16.1,12.6,24.7c-1-0.5-2.1-1-3.1-1.4c-4.8-2.3-9.5-4.6-14.1-6.9c-11.8-6.2-23-12.7-33.4-19.6
			c-37.6-24.8-66.6-54.5-86.9-89.3C110.3,85.3,118.2,79.3,145.9,94.5z M75.6,233.2c38.3-9.7,80-9.6,125.2,0.2
			c10.9,2.3,22.1,5.3,33.4,8.9c5.2,1.6,10.4,3.4,15.7,5.2c0.6,0.2,1.2,0.4,1.8,0.6c-7.6,2.8-15.1,5.4-22.6,7.7
			c-9.5,2.9-19,5.3-28.3,7.4c-45.8,10.1-88.9,9.9-129.2-0.8C43.8,251.9,45.2,242.2,75.6,233.2z M85.2,312.2
			c31.7-23.6,70.3-39.6,115.7-47.8c10.4-1.9,21.1-3.4,32.2-4.5c5.7-0.5,11.4-1,17.3-1.4c1.1-0.1,2.2-0.1,3.4-0.2
			c-6.3,5.8-12.6,11.3-18.9,16.5c-11.3,9.1-22.6,17.4-34.1,24.8c-34.9,22.2-71,35.8-108.2,41C63.1,341.5,60.6,332.1,85.2,312.2z
			 M288,245.4c-1.4,0-2.6-0.5-3.6-1.6c-0.9-0.9-1.3-2-1.3-3.3c0-1.4,0.4-2.6,1.3-3.6c1-1,2.2-1.4,3.6-1.4c1.4,0,2.6,0.5,3.5,1.4
			c1,1,1.5,2.2,1.5,3.6c0,1.4-0.5,2.5-1.5,3.3C290.6,244.9,289.4,245.4,288,245.4z M262.6,243.3c-1.4,0-2.7-0.5-3.7-1.6
			c-0.9-0.9-1.3-2.1-1.3-3.4s0.4-2.6,1.3-3.6c1-0.9,2.3-1.3,3.7-1.3c1.4,0,2.5,0.4,3.4,1.3c1,1,1.5,2.2,1.5,3.6s-0.5,2.5-1.5,3.4
			C265.1,242.8,264,243.3,262.6,243.3z M276.4,236.1c-1.4,0-2.6-0.5-3.6-1.5c-0.9-1-1.3-2.1-1.3-3.5s0.4-2.6,1.3-3.6
			c1-0.9,2.2-1.4,3.6-1.4c1.4,0,2.5,0.5,3.5,1.4c1,1,1.5,2.2,1.5,3.6s-0.5,2.5-1.5,3.5C278.9,235.6,277.8,236.1,276.4,236.1z
			 M274.8,253.2c-1.4,0-2.6-0.5-3.6-1.6c-0.9-1-1.3-2.1-1.3-3.5s0.4-2.6,1.3-3.6c1-0.9,2.2-1.3,3.6-1.3s2.5,0.4,3.5,1.3
			c1,1,1.5,2.2,1.5,3.6s-0.5,2.5-1.5,3.5C277.3,252.7,276.1,253.2,274.8,253.2z M260.9,261.5c-1.4,0-2.5-0.5-3.5-1.5
			c-0.9-1-1.4-2.1-1.4-3.5c0-1.4,0.4-2.6,1.4-3.6c1-1,2.2-1.4,3.5-1.4c1.4,0,2.6,0.5,3.5,1.4c1,1,1.6,2.2,1.6,3.6
			c0,1.4-0.5,2.5-1.6,3.5C263.5,261,262.3,261.5,260.9,261.5z M275.2,268.6c-1.4,0-2.6-0.5-3.6-1.5c-0.9-0.9-1.3-2.1-1.3-3.4
			s0.4-2.6,1.3-3.6c1-1,2.2-1.5,3.6-1.5c1.4,0,2.6,0.5,3.5,1.5c1,1,1.5,2.2,1.5,3.6s-0.5,2.5-1.5,3.4
			C277.9,268.1,276.7,268.6,275.2,268.6z M125,381.6c17.9-30.1,43.2-56.7,75.8-79.8c11.7-8.3,24.3-16,37.8-23.4
			c5.5-3,11.1-5.9,16.9-8.7c1.6-0.8,3.1-1.5,4.7-2.3c-2.9,6.2-5.8,12.1-8.8,18c-8.2,15.8-17.1,30.4-26.8,43.8
			c-23.2,32.3-50.4,57.6-81.7,75.9C115.8,417.2,109.8,409.4,125,381.6z M263.4,450.8c-9.4-37.3-9.6-77.8-0.6-121.5
			c2.3-11.3,5.3-22.8,8.8-34.5c1.8-5.7,3.7-11.5,5.8-17.4c0.3-1,0.6-1.9,0.9-2.8c2.7,7.2,5.1,14.3,7.3,21.4
			c3.5,11.2,6.3,22.3,8.6,33.2c9.3,44.4,8.8,86.3-1.6,125.5C282,482.5,272.2,481.2,263.4,450.8z M187.6,430.1
			c5-34.1,17.8-67.7,38.5-100.9c7.8-12.7,16.8-25.3,27-37.8c3.9-5,8.1-10,12.5-14.9c1-1.2,2-2.4,3.1-3.6c-0.3,6.6-0.7,13.1-1.2,19.5
			c-1.1,12.6-2.7,24.9-4.9,36.7c-8.4,44.7-24.9,83.3-49.4,115.7C192.7,466.5,184.2,461.5,187.6,430.1z M288.5,260.9
			c-1.4,0-2.5-0.5-3.5-1.5c-1-0.9-1.5-2.1-1.5-3.5c0-1.4,0.5-2.6,1.5-3.6c1-0.9,2.2-1.3,3.5-1.3s2.5,0.4,3.4,1.3
			c1,1,1.5,2.2,1.5,3.6c0,1.4-0.5,2.6-1.5,3.5C291.1,260.4,289.9,260.9,288.5,260.9z M295,280.8c-2.2-2.6-4.5-5.2-6.9-7.8
			c0,0.3,0,0.5,0.1,0.8c0.2,6.1,0.6,12.1,1.1,18.1c1,12.9,2.7,25.4,5,37.4c8.3,44.7,24.8,83.3,49.4,115.7
			c20.5,21.5,29,16.5,25.6-14.9c-5-34.1-17.8-67.7-38.4-100.9c-9.3-15-20.2-30-32.8-44.8C297.2,283.2,296.1,282,295,280.8z
			 M244.1,410.8c-13,172.9-31,327.4-54,463.2h14.8c21.4-134.8,37.2-287.4,47.6-457.7L244.1,410.8z M188.6,542.7
			c2.3-0.3,4.6-0.5,7.1-0.6c-4.9-3.6-10.2-7.2-15.9-10.5c-0.1-0.1-0.2-0.1-0.3-0.1c-1.2,0.3-2.4,0.5-3.6,0.8 M180.3,529.5
			c-0.1-0.1-0.2-0.1-0.3-0.1l0.3,1.3c-0.4-1.1-0.7-1.6-0.8-1.6c-5.7-3.1-11.7-6.1-17.9-9c-0.3-0.2-2-1-5.1-2.2
			c-2.7-1.2-3.3-1.4-1.8-0.4c1.7,0.8,3.4,1.7,5.2,2.6c3.2,1.5,6.2,3.2,9.1,5.1c0.1,0,0.2,0,0.3,0.1c0.3,0.1,0.5,0.3,0.7,0.5
			c0.7,0.3,1.3,0.7,1.9,1.1c0.1,0.1,0.2,0.1,0.3,0.2c2.6,1.4,5.1,2.8,7.4,4.3 M180.3,529.5c0-1.1-0.1-2.5-0.2-4.1 M196.9,532.1
			c0,2.7,0.4,5.5,1.2,8.2c0.1,0.1,0.2,0.2,0.3,0.3c5,3.3,9.7,6.7,14.2,10.2c-0.1-3.8-0.2-7.5-0.4-10.8 M180.3,529.5
			c6.4,3.5,12.3,7.1,17.8,10.8 M140.8,507c62.7,2.7,90.6,19.3,83.8,49.7l-1.3,3.4l-1.6,2l-2.9,2.2l-1.3,0.8
			C180,575.1,154.4,555.7,140.8,507z M212.6,550.8c2.4,1.9,4.7,3.9,6.9,5.9l3.7,3.4 M218.8,564.2l-1.3-1.6c-2.5-3-5.1-5.9-8-8.7
			c-0.1-0.1-0.1-0.2-0.2-0.2c-4.8-0.2-9.1,0.2-12.9,1.1 M209.3,553.8c-4.2-4-8.7-7.9-13.6-11.7 M302.1,553.8
			c2.7-0.8,5.5-1.4,8.4-1.8c0.1-0.1,0.3-0.1,0.4-0.2c0.6-0.1,1.3-0.3,2.1-0.5c0.2-0.1,0.4-0.1,0.7-0.2c0.1-0.1,0.3-0.1,0.4,0
			c3.4-0.9,6.8-1.6,10.4-2.2c1.9-0.3,3.8-0.6,5.6-0.9c1.8-0.6,1.2-0.7-1.8-0.3c-3.3,0.4-5.2,0.6-5.6,0.7c-6.9,0.8-12.6,1.7-17.1,2.7
			c-1.6,0.3-2.8,0.6-3.4,0.8l-0.1-0.1H302c-7.1,1.4-13.9,3-20.3,4.9c-0.1,0-0.3,0.1-0.4,0.2c-5.8,1.6-11.4,3.4-16.7,5.5
			c-4.6,1.8-9.1,3.7-13.3,5.7l0.3,1.8c0.6,1.6,1.5,2.7,2.6,3.5c3.8-2.5,7.9-4.9,12.3-7.1c0.1-0.2,0.1-0.2,0.2-0.2
			c5.2-2.6,10.8-5,16.7-7c5.7-2,11.8-3.8,18.3-5.2C301.9,553.9,302,553.8,302.1,553.8c1.1,0.7,2.2,1.3,3.4,1.8 M268.2,552.2
			c-1.2,3.2-2.4,6.7-3.6,10.3 M254.2,573.6l0.3,0.4l0.1,0.1c33.3,21.6,64,11,92.1-31.8c-63.1-16.9-95-8.5-95.6,25.3l0.2,0.7
			c-0.1,0-0.1,0-0.2,0c0-0.3,0-0.5,0-0.7 M254.6,574c-0.2-0.1-0.3-0.3-0.4-0.4h0.1 M266.8,566.2c4.7,1.4,8.7,3.1,12.1,5.1
			 M302,551.9c0.3-1.1,0.7-2.4,1.4-3.9 M281.7,556.8c1.5-2.5,2.7-5,3.5-7.6 M289.9,561.9c-2-0.9-4.1-1.8-6.4-2.8 M138.6,606
			c1.6-0.4,3.2-0.8,4.8-1.3c-3.2-1.8-6.6-3.5-10.1-5c-0.2-0.1-0.4-0.2-0.5-0.3c-0.8-0.4-1.6-0.8-2.6-1.2c-0.3-0.1-0.7-0.3-1.1-0.5
			c-0.1-0.1-0.2-0.1-0.3-0.1c-4-2.2-8.2-4.2-12.6-6c-2.3-0.9-4.6-1.9-6.9-2.8c-2.1-1.2-1.4-1.2,2.2,0.2c4.2,1.5,8.9,3.2,13.9,5.2
			c5,2,9.8,4,14.3,6c1.9,0.9,3.2,1.6,4,2.2c0.1,0,0.1,0,0.2,0.1c-0.1-1.4-0.3-3.2-0.6-5.4 M156.2,618.8c2.9-0.5,6-0.9,9.2-1.3
			c-6.7-4.4-13.9-8.6-21.7-12.6c-0.1-0.1-0.3-0.1-0.4-0.1 M143.9,602.2c0.1,0.1,0.1,0.1,0.2,0.2v-0.2c8.6,4,16.7,8.1,24.3,12.5
			c-1.2-3.5-1.9-6.9-2.1-10.4 M120.8,707.2c1.9-0.5,3.7-1,5.5-1.5c-3.7-2-7.5-4-11.5-5.9c-0.2-0.1-0.4-0.2-0.5-0.4
			c-0.9-0.4-1.8-0.8-2.9-1.3c-0.3-0.2-0.6-0.4-1.1-0.7c-0.1-0.1-0.3-0.1-0.5-0.1c-4.5-2.6-9.2-5-14.2-7.1c-2.7-1.1-5.3-2.2-7.8-3.3
			c-2.4-1.4-1.5-1.2,2.7,0.4c4.8,1.7,9.8,3.6,15.1,5.7c5.2,2.1,10.6,4.5,16.3,7.2c2.3,1.1,4,2,5.1,2.8l-0.1-0.2c0.2,0,0.3,0,0.4,0.1
			c-0.1-1.6-0.3-3.7-0.7-6.2 M127.2,703c9.8,4.6,18.9,9.4,27.4,14.5c-1.3-4-2.1-8.1-2.3-12.1 M141,721.8c3.3-0.6,6.8-1,10.4-1.5
			c-7.7-5-15.9-9.9-24.7-14.5c-0.1-0.1-0.3-0.1-0.4-0.1 M151.4,720.3c0.8-0.1,1.6-0.2,2.4-0.3 M154.7,717.4c0.2,0.1,0.4,0.3,0.6,0.4
			c7.8,4.5,15.1,9.2,22.1,14.2c-0.3-5.7-0.8-11-1.4-16.1 M307.7,632c3.4-1.1,6.9-2.2,10.5-3.2c0.1-0.1,0.3-0.1,0.5-0.2
			c0.7-0.3,1.6-0.5,2.6-0.8c0.3-0.1,0.7-0.2,1-0.3c0.1-0.1,0.3-0.1,0.5,0c4.2-1.5,8.5-2.8,12.9-3.9c2.4-0.5,4.8-1,7.2-1.5
			c2.3-0.8,1.5-0.9-2.2-0.2c-4.2,0.7-6.6,1.1-7,1.2c-8.8,1.8-16.2,3.5-22.2,5.2c-2,0.5-3.4,0.9-4.2,1.2c-8.9,2.5-17.3,5.2-25.3,8.2
			c-0.2,0-0.4,0.1-0.5,0.3c-7.2,2.6-14.2,5.5-20.9,8.8c-5.9,2.7-11.4,5.7-16.7,8.8c0.1,0.5,0.1,1,0.1,1.4c0.8,2.1,1.6,3.5,2.4,4.2
			c0.8,0.7,1.3,1.1,1.8,1.2c4.8-3.8,9.9-7.3,15.2-10.5c0.1-0.1,0.2-0.1,0.4-0.1c6.4-4,13.3-7.7,20.6-10.8c7.2-3.2,14.8-6.1,23-8.7
			C307.5,631.9,307.6,631.9,307.7,632c1.4,0.8,2.9,1.5,4.3,2.1 M307.3,629.4c0-0.1,0-0.1,0.1-0.1c0.3-1.4,0.9-3.2,1.6-5.2
			 M263.7,651.5c6,1.3,11.2,3.1,15.6,5.5 M248.1,662.2c0.1,0.2,0.3,0.4,0.4,0.5c43.6,25.8,82,9.2,115.1-49.8
			c-81.7-17.1-121.6-3-119.8,42.5 M282,637.6c1.8-3.3,3.2-6.7,4.1-10.2 M292.8,643.7c-2.7-1-5.5-2-8.4-3 M264.6,632.8
			c-1.4,4.4-2.7,9-4,13.9 M198.1,644.8c-0.1,0.2-0.4,0.4-0.7,0.5c-49.5,16.5-85.2-6.6-107.2-69.3c86.5-1.2,124.3,19.9,113.4,63.2
			c-0.1,0.5-0.3,0.9-0.5,1.3c-1.1,1.9-2.1,3.1-2.9,3.6C199.2,644.5,198.4,644.8,198.1,644.8c-4.1-4.4-8.6-8.7-13.4-12.9
			c-0.1-0.1-0.2-0.2-0.3-0.2c-6.4,0.1-12.1,0.9-17,2.3 M184.3,631.7c-5.7-5-12-9.8-18.9-14.2 M168.4,614.8c0.1,0.1,0.3,0.2,0.4,0.5
			c6.9,3.9,13.4,8,19.4,12.2c-0.3-4.9-0.6-9.6-1.1-14 M188.3,627.5c5.5,3.8,10.6,7.6,15.3,11.6 M151.4,720.3
			c7.7,5.1,14.8,10.6,21.4,16.4c0.1,0,0.1,0.1,0.2,0.3c5.5,4.8,10.6,9.7,15.3,14.9c0.5,0,1.3-0.3,2.4-0.8c1-0.6,2.2-2,3.5-4.1
			c0.1-0.5,0.3-1,0.5-1.5c-5.5-4.6-11.3-9.1-17.4-13.4c0.1,0.7,0.2,1.3,0.2,2 M188.4,751.9c-0.2,0.2-0.4,0.4-0.7,0.6
			c-56.2,19.1-96.8-7.5-121.7-80c98.1-1.3,141.1,23,128.8,73 M255.4,745.2c0.3-0.6,0.6-1.2,0.9-1.8c-7.4,1.5-14.5,3.2-21.3,5.2
			c0,0.5,0,1.1-0.1,1.6c0.4,2.5,0.9,4.2,1.6,5.2c0.7,1,1.3,1.6,1.8,1.8c6.4-2.8,13.1-5.3,20.1-7.4c0.1-0.2,0.2-0.3,0.3-0.2
			c8.3-2.6,17.1-4.7,26.2-6.4c-0.7-0.4-1.4-0.8-2.1-1.3 M238.2,757.2c0.1,0.3,0.2,0.5,0.4,0.7c43.6,40.2,91.4,32.2,143.4-23.9
			c-89.1-40.8-138.1-35.9-147,14.7 M317,731.8c-1.4,2.2-2.4,4-3.1,5.4c0.1,0,0.7,0,1.9-0.1l-0.1,0.1c9.6-0.3,19.5-0.2,29.7,0.2
			c0.6-0.1,3.3,0.1,8.3,0.5c4.4,0.2,5.3,0.5,2.5,0.8c-2.8,0-5.6,0-8.5-0.1c-5.4-0.1-10.7,0.2-15.9,0.7c-0.1-0.1-0.3-0.1-0.4-0.1
			c-0.5,0-0.9,0-1.2,0.1c-1.2,0-2.2,0-3.1,0.1c-0.3,0.1-0.5,0.1-0.6,0.1c-4.4,0.1-8.6,0.3-12.8,0.6c1.4,1.3,2.8,2.5,4.4,3.7
			 M284.8,743.3c9-1.6,18.5-2.6,28.4-3.2c0.1-0.1,0.3-0.2,0.5-0.1 M313.9,737.2c-10.8,0.3-21.1,1-31,2.1c-0.1,0-0.4,0.1-0.6,0.2
			c-8.9,1-17.6,2.3-25.9,4c2.7-5.1,5.3-9.8,7.8-14.2 M258.5,749.7c6.6,3.1,12.1,6.6,16.5,10.3 M293.7,749c-2.8-1.9-5.8-3.8-8.9-5.7
			 M282.9,739.3c2.8-3.1,5.1-6.5,7-10.1 M172.9,736.8c-7.3,0.2-13.8,1.1-19.4,2.8"/>
	</g>
</g>
<g transform="matrix( 0, 0.002685546875, -0.002685546875, 0, 375.45,32.8) ">
	<g transform="matrix( 1, 0, 0, 1, -708,-84.7) ">
		<g>
			<g id="pink_petal_0_Layer0_0_FILL">
				<path fill="#FF6699" d="M1083.4,117.5C1083.5,117.5,1083.5,117.5,1083.4,117.5c-0.1,0-0.1,0-0.2,0
					C1083.3,117.5,1083.4,117.5,1083.4,117.5z"/>
			</g>
		</g>
	</g>
</g>
<g transform="matrix( 0, 0.002685546875, 0.002685546875, 0, 374.7,32.8) ">
	<g transform="matrix( 1, 0, 0, 1, -708,-84.7) ">
		<g>
			<g id="pink_petal_0_Layer0_0_FILL_1_">
				<path fill="#FF6699" d="M1083.4,118.5C1083.4,118.5,1083.4,118.5,1083.4,118.5C1083.4,118.5,1083.4,118.5,1083.4,118.5
					C1083.4,118.5,1083.4,118.5,1083.4,118.5z"/>
			</g>
		</g>
	</g>
</g>
</svg>
