<?xml version="1.0" encoding="utf-8"?>
<!-- Generator: Adobe Illustrator 18.0.0, SVG Export Plug-In . SVG Version: 6.00 Build 0)  -->
<!DOCTYPE svg PUBLIC "-//W3C//DTD SVG 1.1//EN" "http://www.w3.org/Graphics/SVG/1.1/DTD/svg11.dtd">
<svg version="1.1" id="Layer_1" xmlns="http://www.w3.org/2000/svg" xmlns:xlink="http://www.w3.org/1999/xlink" x="0px" y="0px"
	 viewBox="14.6 87.4 522 889" enable-background="new 14.6 87.4 522 889" xml:space="preserve">
<g transform="matrix( 1, 0, 0, 1, 0,0) ">
	<g>
		<path id="Layer0_0_1_STROKES" fill="none" stroke="#000000" stroke-linecap="round" stroke-linejoin="round" d="M290.5,373.9
			c-11.4-23-27.3-45.2-47.8-66.6l4.4-5.2c13.9,9.6,25.9,20.5,36,32.8c-4-10.8-6-21.7-6.2-32.6c-0.3-15.7,3.7-29.6,12-41.5
			c8.3-12.3,19.3-21,33-25.9c12.7-4.6,24-8.9,34-12.8c-5.4,7.3-10.6,16.4-15.6,27.4c-7.8,16.4-15.9,32.7-24.2,48.8
			c-7.6,14.5-15.2,28.8-23,42.8c-0.8,1.3-1.5,2.7-2.1,4.1c8.3,11.8,15,24.8,20.1,38.8c14.2,38.5,15.7,76.4,4.4,113.8
			c-1.5,5.2-3.2,10.3-5.1,15.4c13.8-5.1,23.7-12,29.7-20.8c5.9-9,9.2-13.9,10-14.8l5.2,5.3c-15.7,31.3-35,51.8-57.8,61.3
			c-6.2,12.2-13,23.6-20.6,34.2c-7.9,11-10.1,24.5-6.8,40.5c2.2,11.2,3.2,22.3,2.9,33.1c2.2-5.2,4.9-10.1,8-14.8
			c8.6-13.2,19.7-22.3,33.2-27.4c13.8-5.6,27.7-6.5,41.9-2.8c13,3.3,24.7,6.2,35.2,8.6c-8.5,2.9-17.9,7.5-28.3,13.8
			c-15.7,9.1-31.6,18-47.5,26.6c-14.4,7.6-28.7,15-43,22.3c-1,0.5-2.1,1-3.1,1.5c-2,8.2-4.8,16.3-8.4,24.2
			c-8.4,20-27.2,28.5-56.4,25.6c-36.7-3.6-65.7,8.7-87,37c-6.1,8-11.3,16.4-15.8,25c12.3-6.4,24.8-10.2,37.5-11.3
			c15.6-1.5,29.6,1.4,42.1,8.8c12.9,7.4,22.3,17.8,28.2,31c5.6,12.2,10.7,23.2,15.2,32.8c-7.6-4.8-17.1-9.3-28.4-13.5
			c-16.9-6.6-33.8-13.4-50.5-20.5c-14.9-6.4-29.6-13-44.2-19.6c-1-0.5-2.1-1-3.1-1.5c-9.4,20.1-14.3,41.8-14.8,64.9
			c-0.8,36.9,3.9,70,14.1,99.4c1,2.6,0.9,5.3-0.4,8c-1.3,2.5-3.2,4.2-5.9,5.2c-2.8,1-5.5,0.9-8-0.4c-2.7-1.3-4.5-3.2-5.5-5.9
			C67.3,937.4,62.2,901.8,63,862.1c0.7-40,13.3-76.1,37.8-108.2c0.4-0.5,0.8-0.9,1.2-1.4c-0.4-1.3-0.9-2.5-1.4-3.8
			c-5.6-14.9-11-30-16.4-45.3c-5.8-17.1-11.4-34.3-16.8-51.6c-3.4-11.5-7.2-21.2-11.4-29.2c9.3,5.3,19.8,11.2,31.5,17.5
			c12.8,6.9,22.4,17,28.8,30.3c6.5,12.9,8.5,27.2,5.9,42.7c-1.5,8.9-4.2,17.7-8.3,26.2c24.4-24,55.4-34.2,92.9-30.6
			c0.5,0,1.1,0.1,1.7,0.2c0-1,0.1-1.9,0.4-2.7c0.8-3.4,1.8-8,2.8-13.8v0.2c9.3-35.4,4-65.7-15.8-90.8l5.5-7.6
			c26.8,25.6,37.2,59.4,31.1,101.3v0.2c-0.7,3.8-1.3,7.1-1.8,10.1c4.9-2.4,8.6-6,11.3-10.8c10.2-22.4,12.8-46.3,7.6-71.8V623
			c-4.8-22.4-1.3-41.5,10.3-57.1c7.3-10.2,13.9-21.3,19.8-33.2c0.3-1,0.7-1.9,1.3-2.8c5.5-12,12.4-31,20.6-57.1
			c6.8-21.6,7.1-43.5,0.9-65.9c-1.8-0.2-3.5-0.4-5.1-0.5c-15.9-1.6-31.9-3.4-47.9-5.2c-17.9-2.3-35.9-4.9-53.8-7.6
			c-11.8-2-22.3-2.8-31.4-2.6c8.9-6,18.8-12.9,29.7-20.6c11.8-8.6,25.1-12.8,39.9-12.6c14.5,0,28.1,4.5,40.8,13.5
			c9.3,6.6,17.4,15,24.4,25.2c-0.5-1.3-1-2.6-1.5-3.9L290.5,373.9z M400.9,373.8c-2.7,2.2-5.3,4.5-7.8,7c-0.9,0.9-1.7,1.8-2.6,2.7
			 M493.5,319.2c1-1.1,2-2.2,3-3.3c-0.1-0.4-0.2-0.8-0.4-1.2c-12.7-1.1-24.8,1.5-36.4,7.8c-12,6.3-25.2,18.8-39.5,37.3
			c9-15.2,12.2-29.4,9.5-42.6c-4.1-20.5-16.3-29-36.6-25.5c19.7,10.3,22.6,25.2,8.9,44.7c-10.6,14.5-23.2,27.4-37.7,38.6
			c-14.9,11.5-23.9,26.5-27.1,45c-3.4,19.9,1.3,37.3,14.1,52.2c0.5,0.3,0.8,0.8,1.1,1.2c1.5,1.5,3,3,4.5,4.5 M478.2,335.5
			c-2.6,2.9-5.3,5.8-7.9,8.6 M418.2,362c-4.2,2.3-8.2,4.8-12,7.5 M442.5,375.8c-3,3.4-6,6.8-8.9,10.2 M465,350.1
			c-2.2,2.5-4.4,4.9-6.6,7.4 M453.8,362.8c-2.3,2.6-4.6,5.2-6.9,7.8 M358.8,479.8c1.4,0.9,2.8,1.9,4.2,2.8c0.4,0.3,0.9,0.6,1.3,0.8
			c16.7,10.5,34.7,12.4,54,5.9c17.8-6.1,31.1-17.5,40.1-34c8.8-16.1,19.5-30.5,32.2-43.1c17-16.7,32.2-16.2,45.5,1.7
			c0.3-20.7-10-31.4-31-32.2c-13.4-0.5-26.9,5-40.4,16.4c15.9-17.2,26.1-32.2,30.6-44.9c4.2-12.1,4.6-24.4,1.2-36.9 M488.1,324.9
			c-1.7,1.8-3.4,3.7-5,5.5 M192.1,162.6c1.5,2.8,3.2,5.8,5.1,8.8 M211.4,191.9c1,1.4,2.1,2.7,3.2,4.1c1.5,1.9,2.9,3.7,4.2,5.6
			 M121.6,97.1c-0.9-2-1.7-3.9-2.6-5.9c-0.5-0.2-1-0.2-1.4-0.1c-6.7,12.8-9.3,26.6-7.7,41.4c1.4,15.3,8.8,34.4,22,57.4
			c-12.1-16-25.6-25.5-40.5-28.4c-23.3-4.7-37.5,4.4-42.6,27.3c19.5-16.1,36.3-12.7,50.5,10c10.6,17.3,18.7,36,24.2,56.1
			c5.6,20.6,17.4,36.6,35.2,48c19.4,12.1,39.6,14.7,60.8,7.8c0.5-0.3,1.1-0.6,1.7-0.7c2.4-0.9,4.8-1.8,7.1-2.8
			c0.1-0.1,0.3-0.2,0.7-0.3l1.4-0.8c1.6-1,3.2-2.1,4.8-3.3c0.6-0.3,1-0.6,1.4-1c18.2-13,28.1-30.9,29.6-53.9
			c1.3-21.2-4.8-40.1-18.2-56.8c-13-16.2-23.4-33.7-31.2-52.5c-10.1-24.9-2.9-40.5,21.5-46.8c-21.5-9.3-37.1-3.1-47.1,18.5
			c-6.4,13.8-6.5,30.2-0.4,49.3c-11.1-24.1-22.4-41.2-33.8-51.5c-10.8-9.5-23.5-15.3-38.1-17.2 M201,177.2c1.9,3,4.1,6,6.4,9.2
			 M124.8,104.1c1.2,2.5,2.3,5.1,3.5,7.7 M131.2,118.3c1.7,3.7,3.4,7.3,5.2,11 M139.8,136.4c1.3,2.7,2.6,5.4,3.9,8.1 M147,151.3
			c1.2,2.6,2.5,5.3,3.9,8 M154.1,165.8c1.3,2.5,2.5,5,3.8,7.6 M143.4,230.8c2,4.4,4.2,9,6.8,13.8 M136.3,210.7
			c1.2,4.7,2.7,9.2,4.4,13.8 M154.1,251.5c1.5,2.7,3.2,5.4,4.9,8.2 M231.2,224.2c0.7,2,1.4,4,1.9,6c0.7,2.6,1.3,5.2,1.8,7.8
			 M222.7,207.1c2.2,3.6,4.1,7.1,5.9,10.6 M176.1,208.9c1.5,2.8,2.9,5.6,4.4,8.4 M184.2,224c1.5,3,3.1,5.9,4.8,8.8 M191.6,290.7
			c3.6,1.9,7,3.5,10.2,4.7 M162.8,265.4c2.4,3.5,5,6.7,7.8,9.7 M175.4,279.9c3.2,2.9,6.5,5.4,10.1,7.5 M208.8,268.2
			c1.7,2.9,3.4,5.8,5.1,8.6 M236.1,261.7c0,0.6-0.1,1.2-0.2,1.8c-0.5,4.3-1.2,8.7-1.9,13.1 M232.9,284c-0.7,3.7-1.5,7.5-2.3,11.4
			 M217.6,283.3c1.6,2.7,3.2,5.5,4.8,8.2 M192.2,238.8c1.8,3.2,3.6,6.5,5.4,9.7 M200.9,254.2c1.4,2.6,2.9,5.2,4.3,7.8 M235.9,244.6
			c0.3,2.9,0.4,5.8,0.5,8.8 M215.4,298.7c3.5,0.4,6.5,0.8,9.2,1.2 M324.7,256.8c-14.7,10.7-25.5,27.7-32.5,51l-5.8,28 M161.4,180.4
			c1.2,2.4,2.4,4.7,3.6,7 M168.6,194.5c1.3,2.5,2.6,5.1,3.9,7.6 M133.1,193c0.4,3.5,0.9,6.9,1.5,10.4 M172.6,517
			c3,3.1,5.6,6.3,7.9,9.5 M183.1,591.2c3.6-0.6,6.6-1.1,9.2-1.4 M185.7,580.8c2.4,2.1,4.7,4.3,7.1,6.4 M192.7,556.1
			c0.6,3.4,1.2,6.9,1.7,10.5 M53.9,444.8c-1.4-1.5-2.8-3.1-4.2-4.7c-0.4,0.1-0.8,0.2-1.2,0.4c-2.4,12.5-1,24.8,4.1,36.9
			c5.1,12.6,16.2,26.9,33.2,43c-14.3-10.5-28.1-15-41.5-13.7c-21,2-30.7,13.3-29.2,33.9c12.3-18.6,27.5-20,45.4-4.4
			c13.4,12,25,25.8,34.7,41.4c10,16,24,26.5,42,31.5c19.5,5.3,37.3,2.4,53.4-8.8c0.4-0.4,0.8-0.7,1.3-1.1c1.8-1.3,3.5-2.7,5.2-4.1
			c0.1-0.1,0.3-0.2,0.5-0.4l1.1-1c1.2-1.3,2.2-2.6,3.2-3.9c0.4-0.4,0.7-0.8,0.9-1.1c12.1-15.7,15.8-33.4,11.2-53.2
			c-4.3-18.3-14.2-32.7-29.8-43.3c-15.1-10.5-28.4-22.6-39.8-36.4c-14.9-18.5-12.9-33.6,6.2-45.1c-20.6-2.4-32.3,6.8-35.1,27.6
			c-1.8,13.3,2.3,27.2,12.2,41.9c-15.5-17.6-29.4-29.2-41.7-35c-11.6-5.4-23.8-7-36.6-5 M195.4,575c0.3,3.1,0.6,6.3,0.9,9.5
			 M165.2,561.6c4,3.8,8,7.5,12,11.2 M186.2,536.3c1.7,3.6,3.1,7.2,4.4,11 M87.2,482.1c3.2,3.5,6.5,7,9.8,10.5 M129.9,481.9
			c1.4,1.4,2.9,2.8,4.4,4.2 M58.9,450.5c2.4,2.7,4.7,5.4,7,8 M123.4,520.3c3.2,3.4,6.5,6.7,9.8,10 M101.8,497.8
			c3.9,4.2,7.9,8.4,11.9,12.6 M87.7,522.6c1.1,2.5,2.3,5,3.5,7.4 M98.2,541.6c1.8,2.7,3.7,5.3,5.8,7.9c0.3,0.4,0.7,0.8,1,1.2
			 M131.6,576.7c4.2,3.3,8.6,6,13,8.2 M113.5,560.1c2.6,2.8,5.5,5.5,8.6,8.3 M142.9,539.8c3.9,3.8,7.8,7.7,11.7,11.5 M143.9,494.4
			c1.4,1,2.8,2.1,4.2,3.2 M73.7,467.2c2.9,3.2,5.8,6.5,8.8,9.7 M86.2,664.7c18.1,12.8,25.1,39.1,21,78.9 M157.6,589.5
			c4.3,1,8.3,1.6,11.9,2 M157.5,504.4c2.5,1.8,4.9,3.5,7.1,5.4 M463,399.9c-1.7,2-3.3,4.2-5,6.5 M454,412c-1.8,2.5-3.5,5.2-5.2,8
			 M445.4,425.8c-0.7,1.2-1.4,2.5-2.1,3.8c-1.5,2.7-3,5.2-4.5,7.6 M417.2,405.5c-3,3.7-6,7.4-9.1,11.1 M420.1,457.5
			c-2.7,2-5.5,3.8-8.4,5.4 M434.8,442.9c-2.9,3.7-5.8,7-8.9,9.9 M403.7,422.1c-2.9,3.5-5.8,7.1-8.6,10.7 M373.5,404.5
			c-0.6,0.9-1.2,1.8-1.9,2.7c-1.7,2.5-3.3,4.9-4.6,7.4 M363.6,421.1c-2,4.4-3.5,8.9-4.4,13.5 M358.8,460.7c0.1,0.5,0.2,1.1,0.4,1.6
			c0.8,2.9,1.5,5.5,2.1,7.9 M389.5,471.3c-2.5,0.7-5.1,1.3-7.6,1.9 M374.5,474.8c-2.7,0.5-5.4,1-8,1.5 M377.4,455.7
			c-1.9,2.4-3.7,4.8-5.5,7.3 M390.9,438.1c-2.7,3.5-5.5,7-8.1,10.6 M358.4,441.8c-0.5,4.5-0.6,8.5-0.5,12 M405,466.2
			c-2.7,1.2-5.6,2.3-8.5,3.2 M275.4,665.5c13.2-26,37.6-39.6,73.2-40.7 M386.1,388.3c-2.8,3.3-5.7,6.9-8.6,10.7 M429.3,391.1
			c-2.6,3-5.1,6-7.5,9 M208.4,378.9c30.4-7,60.4,0.3,90,21.8 M101.8,796.2c34.2-6.7,61,0.1,80.5,20.6"/>
	</g>
</g>
</svg>
