
<svg xmlns="http://www.w3.org/2000/svg" version="1.1" xmlns:xlink="http://www.w3.org/1999/xlink" preserveAspectRatio="none" x="0px" y="0px" width="550px" height="1000px" viewBox="0 0 550 1000">
<defs>
<path id="Layer0_0_1_STROKES" stroke="#000000" stroke-width="1" stroke-linejoin="round" stroke-linecap="round" fill="none" d="
M 290.55 373.85
Q 273.45 339.3 242.7 307.3
L 247.15 302.05
Q 267.95 316.45 283.1 334.85 277.15 318.6 276.85 302.3 276.4 278.7 288.85 260.75 301.25 242.25 321.9 234.85 340.9 227.95 355.85 222.05 347.8 233 340.25 249.45 328.5 274.1 316 298.25 304.65 320 293.05 341.05 291.9 343 290.9 345.15 303.3 362.9 310.95 383.95 332.25 441.7 315.4 497.7 313.1 505.5 310.3 513.1 330.95 505.5 340 492.25 348.85 478.8 349.95 477.45
L 355.2 482.75
Q 331.6 529.75 297.45 544.1 288.2 562.4 276.85 578.35 265.05 594.8 270.1 618.85 273.45 635.7 273.05 651.9 276.4 644.1 281 637.1 293.95 617.35 314.25 609.65 334.9 601.3 356.1 606.85 375.6 611.85 391.3 615.4 378.55 619.8 363 629.2 339.4 642.85 315.55 655.85 294 667.25 272.55 678.15 271 678.85 269.45 679.7 266.4 692.05 261.05 703.95 248.4 733.9 204.65 729.6 149.6 724.2 117.6 766.55 108.5 778.6 101.85 791.55 120.25 782 139.35 780.2 162.7 777.95 181.5 789 200.85 800.1 209.75 820.05 218.1 838.4 225 852.8 213.6 845.65 196.65 839.3 171.25 829.45 146.15 818.85 123.8 809.2 101.9 799.2 100.35 798.45 98.8 797.7 84.7 827.9 84.05 862.6 82.85 917.95 98.2 962 99.7 965.95 97.8 970 95.9 973.75 91.9 975.25 87.7 976.75 83.9 974.85 79.85 972.95 78.4 968.9 61.8 921.7 63 862.1 64.1 802.05 100.75 753.85 101.35 753.15 101.9 752.4 101.25 750.5 100.5 748.6 92.15 726.25 84.05 703.3 75.35 677.65 67.3 651.65 62.25 634.45 55.95 622.45 69.85 630.45 87.45 639.95 106.7 650.35 116.2 670.25 125.95 689.65 122.05 712.9 119.85 726.3 113.75 739.15 150.35 703.2 206.7 708.55 207.5 708.55 208.4 708.8 208.4 707.3 208.8 706.1 210.05 701 211.55 692.35
L 211.55 692.6
Q 225.45 639.5 195.75 601.8
L 201.25 594.15
Q 241.45 632.55 232.4 695.5
L 232.4 695.75
Q 231.35 701.4 230.55 705.85 237.85 702.2 241.9 695.05 257.25 661.45 249.45 623.3
L 249.45 623.05
Q 242.3 589.4 259.8 565.95 270.75 550.6 279.55 532.75 279.95 531.25 280.85 529.95 289.1 512 301.5 472.85 311.7 440.45 302.4 407 299.75 406.65 297.25 406.5 273.45 404.1 249.3 401.25 222.4 397.8 195.5 393.6 177.75 390.65 164.15 391.05 177.5 382 193.85 370.4 211.55 357.55 233.75 357.8 255.45 357.75 274.55 371.3 288.5 381.25 298.95 396.45 298.2 394.5 297.45 392.6
L 290.55 373.85 Z
M 400.85 373.75
Q 396.8 377.05 393.1 380.75 391.8 382.05 390.55 383.45
M 493.45 319.25
Q 494.9 317.6 496.5 315.95 496.4 315.4 496.1 314.8 477.1 313.1 459.75 322.55 441.7 332.05 420.25 359.85 433.75 337 429.8 317.25 423.7 286.45 393.2 291.8 422.7 307.3 402.1 336.45 386.2 358.15 364.4 375.1 342.05 392.35 337.3 420.15 332.25 450 351.4 472.35 352.1 472.85 352.5 473.6 354.7 475.9 356.95 478.15
M 478.25 335.55
Q 474.3 339.9 470.35 344.15
M 418.2 362
Q 411.95 365.4 406.2 369.55
M 442.45 375.75
Q 437.95 380.85 433.55 386
M 465.05 350.1
Q 461.7 353.8 458.4 357.5
M 453.8 362.75
Q 450.35 366.6 446.9 370.55
M 358.75 479.75
Q 360.8 481.15 362.95 482.5 363.6 483 364.25 483.25 389.35 498.95 418.2 489.15 444.85 479.95 458.35 455.1 471.55 430.9 490.55 411.95 516 386.85 536.1 413.65 536.55 382.65 505.05 381.4 484.95 380.7 464.65 397.8 488.5 371.95 495.25 352.9 501.5 334.7 496.5 315.95
M 488.1 324.9
Q 485.55 327.65 483.1 330.35
M 192.15 162.6
Q 194.45 166.85 197.25 171.4
M 211.45 191.85
Q 213 193.9 214.65 195.95 216.9 198.75 218.85 201.5
M 121.55 97.1
Q 120.25 94.15 118.95 91.2 118.2 90.95 117.55 91.05 107.5 110.2 109.9 132.5 112.05 155.45 131.85 189.9 113.75 165.85 91.4 161.45 56.45 154.45 48.8 188.75 78 164.65 99.35 198.75 115.3 224.75 123.55 254.85 131.95 285.75 158.8 302.9 187.85 321.05 219.6 310.7 220.4 310.2 221.3 310.05 224.95 308.7 228.4 307.3 228.55 307.15 229.05 307
L 230.45 306.25
Q 232.9 304.7 235.2 302.95 236.05 302.55 236.55 302 263.9 282.55 266.15 248.1 268.05 216.3 247.95 191.35 228.4 167 216.7 138.9 201.6 101.55 238.2 92.1 206 78.15 191.15 110.55 181.6 131.25 190.75 159.85 174.05 123.75 157 108.4 140.75 94.1 118.95 91.2
M 201 177.2
Q 203.9 181.65 207.35 186.35
M 124.75 104.1
Q 126.5 107.9 128.25 111.75
M 131.25 118.35
Q 133.8 123.85 136.45 129.35
M 139.75 136.35
Q 141.7 140.4 143.7 144.5
M 147 151.3
Q 148.85 155.25 150.85 159.3
M 154.05 165.8
Q 155.95 169.55 157.85 173.35
M 143.35 230.75
Q 146.3 237.4 150.1 244.5
M 136.3 210.7
Q 138.1 217.7 140.75 224.45
M 154.05 251.5
Q 156.35 255.5 159 259.7
M 231.25 224.25
Q 232.35 227.3 233.15 230.25 234.25 234.15 234.95 238
M 222.7 207.15
Q 226 212.5 228.55 217.7
M 176.1 208.9
Q 178.3 213.1 180.55 217.25
M 184.25 224
Q 186.55 228.45 189 232.8
M 191.65 290.7
Q 197.05 293.6 201.85 295.4
M 162.75 265.4
Q 166.4 270.65 170.5 275.1
M 175.35 279.85
Q 180.1 284.15 185.45 287.35
M 208.8 268.25
Q 211.3 272.55 213.85 276.9
M 236.1 261.7
Q 236.05 262.6 235.95 263.55 235.15 270.05 234.05 276.65
M 232.85 284.05
Q 231.75 289.65 230.55 295.4
M 217.6 283.3
Q 220 287.4 222.45 291.55
M 192.2 238.75
Q 194.85 243.6 197.55 248.45
M 200.85 254.2
Q 203 258.05 205.2 261.95
M 235.95 244.65
Q 236.35 249 236.45 253.45
M 215.4 298.7
Q 220.6 299.25 224.55 299.9
M 324.7 256.75
Q 302.65 272.8 292.2 307.75
L 286.45 335.7
M 161.35 180.35
Q 163.1 183.9 165 187.4
M 168.6 194.5
Q 170.6 198.25 172.55 202.15
M 133.1 193
Q 133.65 198.2 134.65 203.35
M 172.65 517.05
Q 177.15 521.7 180.55 526.55
M 183.1 591.2
Q 188.45 590.3 192.35 589.8
M 185.7 580.75
Q 189.25 583.95 192.8 587.15
M 192.7 556.1
Q 193.6 561.25 194.35 566.6
M 53.9 444.75
Q 51.85 442.45 49.75 440.05 49.2 440.15 48.6 440.4 45 459.15 52.65 477.3 60.3 496.15 85.9 520.3 64.5 504.6 44.45 506.6 13 509.55 15.3 540.45 33.8 512.6 60.7 536.1 80.8 554.05 95.4 577.45 110.4 601.4 137.45 608.95 166.7 616.95 190.9 600.15 191.45 599.6 192.2 599.1 194.9 597.1 197.4 595 197.55 594.9 197.9 594.6
L 198.95 593.6
Q 200.7 591.7 202.1 589.65 202.75 589.05 203 588.55 221.15 565.05 214.25 535.35 207.85 507.9 184.5 492.05 161.8 476.3 144.7 455.6 122.3 427.8 150.95 410.45 120.1 406.85 115.8 438.1 113.1 458 128 479.95 104.7 453.6 86.35 445 68.95 436.95 49.75 440.05
M 195.35 575
Q 195.85 579.7 196.25 584.45
M 165.25 561.6
Q 171.25 567.25 177.25 572.85
M 186.2 536.35
Q 188.75 541.7 190.55 547.35
M 87.2 482.1
Q 92.05 487.35 97 492.6
M 129.85 481.9
Q 131.95 483.95 134.25 486.1
M 58.9 450.5
Q 62.45 454.55 65.95 458.55
M 123.45 520.3
Q 128.3 525.35 133.25 530.25
M 101.85 497.8
Q 107.75 504.1 113.75 510.35
M 87.7 522.6
Q 89.35 526.4 91.2 530
M 98.15 541.6
Q 100.85 545.65 103.95 549.45 104.45 550 104.95 550.65
M 131.6 576.65
Q 137.95 581.6 144.6 584.85
M 113.5 560.1
Q 117.45 564.25 122.05 568.4
M 142.85 539.8
Q 148.7 545.55 154.55 551.3
M 143.95 494.35
Q 146 495.9 148.15 497.55
M 73.7 467.2
Q 78.05 472.05 82.5 476.9
M 86.2 664.65
Q 113.35 683.8 107.2 743.6
M 157.65 589.5
Q 164.15 590.95 169.5 591.55
M 157.5 504.35
Q 161.3 507 164.6 509.7
M 462.95 399.85
Q 460.45 402.9 458 406.35
M 454.05 412
Q 451.4 415.8 448.85 420
M 445.4 425.8
Q 444.35 427.65 443.3 429.55 441.05 433.55 438.75 437.15
M 417.2 405.5
Q 412.7 411 408.15 416.6
M 420.1 457.5
Q 416 460.45 411.7 462.85
M 434.75 442.85
Q 430.45 448.35 425.85 452.7
M 403.7 422.1
Q 399.35 427.4 395.15 432.8
M 373.45 404.45
Q 372.55 405.75 371.55 407.15 368.95 410.85 366.9 414.55
M 363.6 421.15
Q 360.55 427.8 359.25 434.6
M 358.75 460.7
Q 358.9 461.5 359.15 462.35 360.4 466.7 361.3 470.25
M 389.5 471.3
Q 385.7 472.3 381.85 473.2
M 374.45 474.75
Q 370.4 475.5 366.45 476.25
M 377.4 455.7
Q 374.6 459.3 371.9 463
M 390.9 438.15
Q 386.8 443.4 382.75 448.75
M 358.35 441.8
Q 357.65 448.5 357.9 453.8
M 405.05 466.2
Q 400.95 468 396.55 469.4
M 275.35 665.45
Q 295.1 626.4 348.55 624.75
M 386.1 388.3
Q 381.85 393.25 377.5 399
M 429.3 391.1
Q 425.45 395.55 421.75 400.15
M 208.35 378.85
Q 253.95 368.35 298.4 400.65
M 101.85 796.2
Q 153.15 786.1 182.4 816.8"/>
</defs>

<g transform="matrix( 1, 0, 0, 1, 0,0) ">
<use xlink:href="#Layer0_0_1_STROKES"/>
</g>
</svg>
