
<svg xmlns="http://www.w3.org/2000/svg" version="1.1" xmlns:xlink="http://www.w3.org/1999/xlink" preserveAspectRatio="none" x="0px" y="0px" width="550px" height="1000px" viewBox="0 0 550 1000">
<defs>
<path id="Layer0_0_1_STROKES" stroke="#000000" stroke-width="1" stroke-linejoin="round" stroke-linecap="round" fill="none" d="
M 258.5 183.8
Q 337.3 89.85 362.7 211.8 384.1 210.9 399.15 213.6 412.65 216 421 221.6 430.5 227.6 433.3 237.75 438.5 256.85 419.45 289.85 413.75 299.6 405.95 310.8 470.3 410.75 355.45 406.1 307.8 521.9 249.4 426.1 144 481.55 167.55 355.7 57.95 298.2 171.75 247.8 153.4 118.25 258.5 183.8 Z
M 159.8 243.6
Q 123.35 73.7 257.95 172.65 345.5 30.45 368.65 198.8 391.55 195 403.05 193.85 414.5 192.75 440.55 201.6 466.4 210.3 460.25 242.9 453.85 275.25 438.85 292.65 423.6 309.95 424.75 309.4 517.3 437.35 359.6 415.5 315.25 575.5 245.2 437.85 111.75 525.45 155.9 358.95 109.7 352.65 94.7 336.45 79.65 320.15 80.6 303.45 81.3 286.7 90.05 277.3 98.55 267.6 111.55 258.05 124.5 248.25 159.8 243.6 Z
M 300.35 400.15
L 296.65 384.1 277.95 398.5 281 407.6
Q 281.95 407.6 283.05 407.6 324.1 407.6 353.1 378.5 382.2 349.45 382.2 308.45 382.2 273.55 361.3 247.55 358.05 242.25 354.05 237.4
L 353.1 238.25
Q 324.1 209.2 283.05 209.2 281.5 209.2 279.9 209.4
L 283.8 222.25 296.65 216.65
M 327.35 273.2
L 336.55 296.45 358.7 285 349.2 267.05 327.35 273.2 312.35 234.3 290.6 245.3 301.3 281.1 327.35 273.2 Z
M 341.3 248.9
L 349.2 267.05 364.9 262.5
M 371.05 278.7
L 358.7 285 366.9 300.65 377.3 293.55
M 373.55 313.4
L 366.9 300.65 344.25 316.45 353.6 340.55 371.05 327.05
M 330.15 377.85
L 325.5 362.05 296.65 384.1 289.6 354.3 268.2 369 277.95 398.5 270.6 403.9
M 359.9 356.8
L 353.6 340.55 325.5 362.05 317.5 334.95 289.6 354.3 281.5 320.55 255.7 331.7 268.2 369 244.75 385.3 250.8 397.75
M 309.4 308.25
L 317.5 334.95 344.25 316.45 336.55 296.45 309.4 308.25 301.3 281.1 274.05 289.5 281.5 320.55 309.4 308.25 Z
M 307.8 222.9
L 312.35 234.3 328.95 224.1
M 283.8 222.25
L 260.55 232.25 266.4 257.4 290.6 245.3 283.8 222.25 Z
M 279.9 209.4
Q 267.05 209.65 255.25 212.95
L 260.55 232.25 227.55 246.6 236.2 272.75 266.4 257.4 274.05 289.5 244.75 298.3 255.7 331.7 225.05 345 244.75 385.3 232.2 394.05
Q 254.05 407.15 281 407.6
L 281.75 410.1
M 278.05 202.95
L 279.9 209.4
M 253.3 205.5
L 255.25 212.95
Q 237.1 217.85 222.15 229.95
L 227.55 246.6 204.95 256.35
M 222.15 229.95
Q 217.3 233.65 212.85 238.25 183.8 267.35 183.8 308.45 183.8 337.55 198.5 360.8 202.25 365.45 206.6 369.85
L 205.7 370.75
Q 208.95 374.6 212.85 378.5 221.95 387.6 232.2 394.05
L 228.45 396.45
M 195 313.4
L 207.75 309.65 198.9 291.55 190.05 296
M 196.2 286.15
L 198.9 291.55 236.2 272.75 244.75 298.3 207.75 309.65 225.05 345 203.65 354.3
M 260.3 474.3
Q 220.45 687.05 224.3 928.8
L 207.25 928.1
Q 206.65 666.7 252.95 469.95
L 260.3 474.3 Z
M 122.15 536.05
L 123.45 543.2
M 132 530.1
Q 129.2 526.3 127 523.05
M 121.6 514.95
Q 117.95 509 116.75 505.2
L 120.75 528.15
M 116.75 505.2
L 116 501.35
M 132.3 572.8
Q 134.05 577.55 136 582.2
M 125.4 551.6
Q 127.25 558.3 129.5 564.9
M 156.5 560.25
Q 152.75 555.85 149.4 551.9
M 144 545.35
Q 140.75 541.35 137.95 537.75
M 107.2 461.45
Q 110.8 492.25 162.15 544.45 208.1 596.9 207.65 685.9 119 630.2 109.15 522.95
L 107.2 461.45 Z
M 149.05 607.85
Q 151.9 612.8 155.1 617.65
M 315.6 690.2
Q 317.35 688.15 319.2 686.15 323.1 682.4 326.75 678.95
M 188.95 618.55
Q 186.6 611.5 183.8 604.7
M 193.95 637.1
Q 192.75 631.8 191.45 626.75
M 187.8 657.15
Q 192.75 662 198.15 666.75 197.95 663.85 197.7 661
M 196.75 652.9
Q 196.1 648.8 195.45 644.8
M 172 640.25
Q 176.95 646 182.35 651.6
M 296.25 716.1
Q 300.5 709.3 305.35 702.85
M 267.7 786.3
Q 269.15 779.35 271.1 772.55
M 273.65 764.25
Q 275.85 757.3 278.65 750.6
M 310.55 764.15
Q 307.1 767.9 303.5 771.6
M 296.5 778.4
Q 289.9 784.55 282.95 790.5
M 282.55 741.45
Q 285.7 734.3 289.45 727.6
M 139.75 590.4
Q 142.15 595.5 144.85 600.5
M 180.4 597
Q 177.2 590.4 173.6 584.15
M 159.55 624.15
Q 163.15 629.25 167.15 634.3
M 168.85 576.35
Q 165.5 571.2 161.8 566.4
M 383.1 611.15
L 381.8 615.7 377.35 633.5
M 348.25 657.5
Q 353.7 651.8 358.35 646.8
M 333.15 672.65
Q 338.3 667.6 342.95 662.95
M 375.4 641
L 370.85 658.8
M 368.6 666.95
Q 366.1 674.15 363.2 681.2
M 364.15 640.25
Q 378.35 624.1 381.8 615.7
M 350.75 707.8
Q 347.1 714.5 343.2 720.9
M 338.75 728.1
Q 335.1 733.55 331.3 738.85
M 360.25 688.25
Q 357.35 694.7 354.25 700.9
M 397.7 563.35
Q 390.45 600.55 320.5 659.45 257.45 719.15 250.4 827.6 368.4 767.7 390.1 638.05
L 397.7 563.35 Z
M 326.3 745.55
Q 321.65 751.5 316.7 757.3
M 276.8 795.5
Q 270.65 800.35 264.15 805.1 264.9 799.9 265.9 794.85"/>
</defs>

<g transform="matrix( 1, 0, 0, 1, 0,0) ">
<use xlink:href="#Layer0_0_1_STROKES"/>
</g>
</svg>
