
<svg xmlns="http://www.w3.org/2000/svg" version="1.1" xmlns:xlink="http://www.w3.org/1999/xlink" preserveAspectRatio="none" x="0px" y="0px" width="550px" height="900px" viewBox="0 0 550 900">
<defs>
<g id="Layer0_0_FILL">
<path fill="#339900" stroke="none" d="
M 127.25 702.95
Q 127.15 702.85 126.85 702.85
L 126.95 703.05
Q 127.15 703.15 127.35 703.35 127.25 703.15 127.25 702.95
M 143.95 602.25
Q 144.05 602.35 144.15 602.5
L 144.15 602.35
Q 144.05 602.25 143.95 602.25
M 180.3 530.8
Q 180.4 530.15 180.3 529.55 180.2 529.45 180 529.45
L 180.3 530.8 Z"/>

<path fill="#FE2C7B" stroke="none" d="
M 297.9 283.75
L 295 280.8
Q 296.65 282.65 298.2 284.45
L 297.9 283.75
M 238.2 237.45
Q 237.65 237.35 237.25 237.35
L 237.35 237.45 238.2 237.45 Z"/>

<path fill="#FFFFFF" stroke="none" d="
M 285 252.3
Q 283.55 253.85 283.55 255.9 283.55 258.05 285 259.4 286.5 260.9 288.55 260.9 290.6 260.9 291.95 259.4 293.5 258.05 293.5 255.9 293.5 253.85 291.95 252.3 290.6 251 288.55 251 286.5 251 285 252.3
M 271.65 260.1
Q 270.35 261.65 270.35 263.7 270.35 265.75 271.65 267.15 273.2 268.6 275.25 268.6 277.4 268.6 278.75 267.15 280.25 265.75 280.25 263.7 280.25 261.65 278.75 260.1 277.4 258.65 275.25 258.65 273.2 258.65 271.65 260.1
M 265.95 256.5
Q 265.95 254.45 264.4 252.95 263.05 251.5 260.9 251.5 258.85 251.5 257.35 252.95 256 254.45 256 256.5 256 258.55 257.35 260 258.85 261.45 260.9 261.45 263.05 261.45 264.4 260 265.95 258.55 265.95 256.5
M 278.2 244.65
Q 276.8 243.3 274.75 243.3 272.7 243.3 271.15 244.65 269.85 246.15 269.85 248.2 269.85 250.25 271.15 251.7 272.7 253.25 274.75 253.25 276.8 253.25 278.2 251.7 279.75 250.25 279.75 248.2 279.75 246.15 278.2 244.65
M 279.85 227.55
Q 278.45 226.2 276.4 226.2 274.35 226.2 272.8 227.55 271.45 229.05 271.45 231.1 271.45 233.15 272.8 234.6 274.35 236.15 276.4 236.15 278.45 236.15 279.85 234.6 281.4 233.15 281.4 231.1 281.4 229.05 279.85 227.55
M 257.65 238.3
Q 257.65 240.35 258.95 241.75 260.5 243.3 262.65 243.3 264.7 243.3 266.05 241.75 267.55 240.35 267.55 238.3 267.55 236.25 266.05 234.7 264.7 233.35 262.65 233.35 260.5 233.35 258.95 234.7 257.65 236.25 257.65 238.3
M 287.95 235.5
Q 285.9 235.5 284.35 236.95 283.05 238.4 283.05 240.55 283.05 242.6 284.35 243.9 285.9 245.45 287.95 245.45 290.1 245.45 291.45 243.9 292.95 242.6 292.95 240.55 292.95 238.4 291.45 236.95 290.1 235.5 287.95 235.5 Z"/>
</g>

<g id="pink_petal_0_Layer0_0_FILL">
<path fill="#FF6699" stroke="none" d="
M 721.25 91.85
Q 715.493359375 76.847265625 710.65 93.35 703.425390625 121.788671875 716.05 157.2 729.091796875 121.7900390625 721.25 91.85 Z"/>
</g>

<path id="Layer0_0_1_STROKES" stroke="#000000" stroke-width="1" stroke-linejoin="round" stroke-linecap="round" fill="none" d="
M 341.2 55.9
Q 298.2 113.65 289.2 201.7 289.1 202.95 289 204.2 288.05 212.7 287.65 221.4 287.55 222.9 287.45 224.45 295.85 215.45 303.4 206.25 305.25 203.95 307 201.7 359.85 135.45 369.7 63.35 370.9 19 341.2 55.9 Z
M 410.65 94.5
Q 351.85 129.4 311.1 201.7 308.55 206.15 306.1 210.75 301.7 218.95 297.6 227.55 297.05 228.55 296.55 229.7 307.6 224.55 317.95 219.15 333.3 210.85 347.25 201.7 403.6 164.55 434.1 112.4 452.25 71.75 410.65 94.5 Z
M 480.3 233.25
Q 409.1 215.25 322.05 242.2 313.15 244.95 304.15 248.1 311.1 250.7 318.05 253.05 406.85 282.3 482.85 262.85 483.55 262.65 484.3 262.45 524.65 247 482.85 234.1 481.6 233.7 480.3 233.25 Z
M 470.95 312.25
Q 411.65 268.1 320.5 259.8 311.6 258.95 302.4 258.45 308.25 263.9 314.15 268.9 363.25 311.1 415.75 329.25 439.3 337.4 463.5 340.7 498.5 341.6 482.85 323.3 478.65 318.5 470.95 312.25 Z
M 432.05 381.65
Q 415.25 353.4 389.75 329.25 357.7 298.8 312 275.05 304.55 271.25 296.85 267.55 300.35 274.95 303.95 282.1 316.95 307.7 332.4 329.25 367.2 377.65 414.15 405.1 454.8 423.25 432.05 381.65 Z
M 459.4 157.15
Q 403.4 165.35 349 201.7 333.45 212.05 318.05 224.75 310.7 230.8 303.3 237.45 302.8 237.85 302.3 238.4 310.8 238.1 319.1 237.45 391.3 231.75 445.15 201.7 460.4 193.2 474.25 182.75 506.5 152.05 459.4 157.15 Z
M 263.35 45.85
Q 245.65 115.9 271.45 201.4 271.45 201.6 271.55 201.7 274.05 209.9 277 218.3 277.6 220.15 278.2 222 282 211.75 285.2 201.7 285.3 201.2 285.5 200.6 311.9 115.2 292.55 41.85 276.7 0.25 263.35 45.85 Z
M 214.6 56
Q 256.9 112.8 266.35 199.05 266.45 200.4 266.65 201.7 267.8 212.9 268.4 224.55 266.95 223 265.65 221.6 260.1 215.45 255.1 209.4 251.8 205.5 248.85 201.7 196 135.55 186.15 63.45 184.9 19.1 214.6 56 Z
M 237.25 237.35
Q 218.4 235.85 200.8 232.65 132.2 220.25 82.7 182.75 50.45 152.05 97.55 157.15 153.6 165.35 207.95 201.7 223.45 212.05 238.9 224.75 246.8 231.2 254.65 238.4 246.25 238.1 238.2 237.45 237.65 237.35 237.25 237.35 Z
M 145.9 94.5
Q 204.7 129.4 245.55 201.7 246.5 203.35 247.4 205 253.85 216.8 260 229.7 258.45 228.95 256.9 228.25 249.65 224.85 242.8 221.3 225.05 212.05 209.4 201.7 152.95 164.55 122.45 112.4 104.3 71.75 145.9 94.5 Z
M 75.55 233.25
Q 133 218.7 200.8 233.45 217.2 236.95 234.2 242.3 241.95 244.75 249.85 247.5 250.8 247.8 251.7 248.1 240.35 252.3 229.15 255.8 214.85 260.1 200.8 263.25 132.1 278.45 71.55 262.45 29.95 246.6 75.55 233.25 Z
M 85.15 312.25
Q 132.7 276.8 200.8 264.5 216.35 261.65 233.05 260 241.55 259.2 250.35 258.65 252 258.55 253.75 258.45 244.3 267.15 234.9 274.95 218 288.65 200.8 299.75 148.45 333 92.65 340.7 48.3 341.95 85.15 312.25 Z
M 287.95 245.45
Q 285.9 245.45 284.35 243.9 283.05 242.6 283.05 240.55 283.05 238.4 284.35 236.95 285.9 235.5 287.95 235.5 290.1 235.5 291.45 236.95 292.95 238.4 292.95 240.55 292.95 242.6 291.45 243.9 290.1 245.45 287.95 245.45 Z
M 262.65 243.3
Q 260.5 243.3 258.95 241.75 257.65 240.35 257.65 238.3 257.65 236.25 258.95 234.7 260.5 233.35 262.65 233.35 264.7 233.35 266.05 234.7 267.55 236.25 267.55 238.3 267.55 240.35 266.05 241.75 264.7 243.3 262.65 243.3 Z
M 276.4 236.15
Q 274.35 236.15 272.8 234.6 271.45 233.15 271.45 231.1 271.45 229.05 272.8 227.55 274.35 226.2 276.4 226.2 278.45 226.2 279.85 227.55 281.4 229.05 281.4 231.1 281.4 233.15 279.85 234.6 278.45 236.15 276.4 236.15 Z
M 274.75 253.25
Q 272.7 253.25 271.15 251.7 269.85 250.25 269.85 248.2 269.85 246.15 271.15 244.65 272.7 243.3 274.75 243.3 276.8 243.3 278.2 244.65 279.75 246.15 279.75 248.2 279.75 250.25 278.2 251.7 276.8 253.25 274.75 253.25 Z
M 260.9 261.45
Q 258.85 261.45 257.35 260 256 258.55 256 256.5 256 254.45 257.35 252.95 258.85 251.5 260.9 251.5 263.05 251.5 264.4 252.95 265.95 254.45 265.95 256.5 265.95 258.55 264.4 260 263.05 261.45 260.9 261.45 Z
M 275.25 268.6
Q 273.2 268.6 271.65 267.15 270.35 265.75 270.35 263.7 270.35 261.65 271.65 260.1 273.2 258.65 275.25 258.65 277.4 258.65 278.75 260.1 280.25 261.65 280.25 263.7 280.25 265.75 278.75 267.15 277.4 268.6 275.25 268.6 Z
M 125 381.65
Q 151.85 336.5 200.8 301.9 218.3 289.5 238.6 278.55 246.8 274.05 255.5 269.85 257.85 268.7 260.2 267.55 255.9 276.8 251.4 285.5 239.1 309.15 224.65 329.25 189.85 377.65 142.95 405.1 102.25 423.25 125 381.65 Z
M 263.35 450.8
Q 249.25 394.9 262.75 329.25 266.25 312.35 271.55 294.8 274.25 286.2 277.3 277.4 277.7 275.95 278.2 274.65 282.2 285.4 285.5 296.05 290.7 312.85 294.1 329.25 308.05 395.9 292.55 454.8 276.7 496.35 263.35 450.8 Z
M 187.6 430.1
Q 195.05 379 226.1 329.25 237.85 310.2 253.15 291.45 259.05 283.95 265.65 276.6 267.15 274.75 268.8 273 268.4 282.95 267.55 292.55 265.95 311.5 262.65 329.25 250.05 396.3 213.2 444.95 182.45 477.2 187.6 430.1 Z
M 288.55 260.9
Q 286.5 260.9 285 259.4 283.55 258.05 283.55 255.9 283.55 253.85 285 252.3 286.5 251 288.55 251 290.6 251 291.95 252.3 293.5 253.85 293.5 255.9 293.5 258.05 291.95 259.4 290.6 260.9 288.55 260.9 Z
M 295 280.8
Q 291.65 276.9 288.15 273 288.15 273.4 288.25 273.8 288.55 282.95 289.4 291.85 290.9 311.2 294.4 329.25 306.9 396.3 343.75 444.95 374.5 477.2 369.35 430.1 361.9 379 330.95 329.25 316.95 306.7 298.2 284.45 296.65 282.65 295 280.8 Z
M 244.1 410.75
Q 224.55 670.15 190.15 874
L 204.9 874
Q 236.95 671.8 252.5 416.3
L 244.1 410.75 Z
M 188.6 542.65
Q 192 542.25 195.7 542.05 188.4 536.6 179.8 531.5 179.7 531.4 179.5 531.4 177.65 531.8 175.9 532.2
M 180.3 529.55
Q 180.2 529.45 180 529.45
L 180.3 530.8
Q 179.7 529.15 179.5 529.15 171 524.45 161.55 520.15 161.05 519.85 156.45 517.9 152.35 516.05 154.7 517.55 157.25 518.8 159.85 520.15 164.65 522.4 168.95 525.25 169.15 525.25 169.25 525.35 169.65 525.55 169.95 525.85 171 526.3 171.8 526.9 171.9 527 172.1 527.1 176 529.15 179.5 531.4
M 180.3 529.55
Q 180.3 527.9 180.1 525.45
M 196.9 532.1
Q 196.9 536.2 198.05 540.3 198.25 540.4 198.35 540.6 205.8 545.55 212.6 550.85 212.45 545.1 212.25 540
M 180.3 529.55
Q 189.85 534.8 198.05 540.3
M 140.8 507
Q 234.8 511.1 224.55 556.7
L 223.25 560.1 221.7 562.1 218.8 564.25 217.5 565.1
Q 161.25 580.05 140.8 507 Z
M 212.6 550.85
Q 216.15 553.75 219.55 556.7
L 223.25 560.1
M 218.8 564.25
L 217.5 562.65
Q 213.8 558.15 209.5 553.95 209.4 553.75 209.3 553.75 202.05 553.5 196.4 554.85
M 209.3 553.75
Q 203.05 547.7 195.7 542.05
M 302.1 553.85
Q 306.2 552.7 310.5 552 310.7 551.9 310.9 551.8 311.8 551.6 313.05 551.35 313.35 551.25 313.75 551.15 313.95 551.05 314.15 551.15 319.2 549.85 324.5 549 327.4 548.5 330.15 548.1 332.8 547.25 328.4 547.8 323.4 548.4 322.8 548.5 312.45 549.75 305.65 551.15 303.2 551.6 302.3 552
L 302.2 551.9 302 551.9
Q 291.35 553.95 281.7 556.8 281.5 556.8 281.3 557 272.6 559.35 264.6 562.55 257.65 565.2 251.3 568.25
L 251.6 570.1
Q 252.5 572.45 254.25 573.6 260 569.8 266.55 566.45 266.65 566.2 266.75 566.2 274.55 562.25 283.45 559.15 292.05 556.1 301.8 553.95 301.9 553.85 302.1 553.85 303.75 554.85 305.45 555.65
M 268.2 552.2
Q 266.45 557 264.6 562.55
M 254.25 573.6
L 254.55 574 254.65 574.1
Q 304.55 606.55 346.75 542.25 252.1 516.85 251.1 567.55
L 251.3 568.25
Q 251.2 568.25 251.1 568.25 251.1 567.85 251.1 567.55
M 254.55 574
Q 254.25 573.8 254.15 573.6
L 254.25 573.6
M 266.75 566.2
Q 273.8 568.25 278.85 571.35
M 302 551.9
Q 302.4 550.25 303.4 548
M 281.7 556.8
Q 283.95 553.1 285.2 549.2
M 289.9 561.9
Q 286.95 560.6 283.45 559.15
M 138.55 606.05
Q 140.9 605.45 143.35 604.75 138.55 602.05 133.3 599.7 133 599.6 132.8 599.4 131.65 598.8 130.25 598.15 129.8 597.95 129.2 597.65 129.1 597.55 128.9 597.55 122.95 594.2 116.3 591.5 112.8 590.1 109.45 588.65 106.25 586.8 111.7 588.85 118.05 591.1 125.6 594.1 133.1 597.05 139.95 600.1 142.75 601.45 143.95 602.25 144.05 602.25 144.15 602.35 144.05 600.2 143.55 596.95
M 156.25 618.75
Q 160.65 618.05 165.45 617.45 155.45 610.85 143.75 604.85 143.55 604.75 143.35 604.75
M 143.95 602.25
Q 144.05 602.35 144.15 602.5
L 144.15 602.35
Q 157.05 608.3 168.45 614.85 166.7 609.65 166.3 604.4
M 120.8 707.25
Q 123.6 706.55 126.35 705.7 120.8 702.65 114.85 699.85 114.55 699.75 114.35 699.45 113.05 698.85 111.4 698.15 111 697.85 110.35 697.5 110.15 697.4 109.85 697.4 103.1 693.5 95.7 690.35 91.7 688.7 87.85 687.05 84.25 685 90.5 687.4 97.65 689.95 105.55 693.1 113.35 696.3 121.85 700.3 125.3 701.9 126.95 703.05
L 126.85 702.85
Q 127.15 702.85 127.25 702.95 127.15 700.5 126.55 696.7
M 127.25 702.95
Q 141.9 709.8 154.7 717.4 152.75 711.35 152.35 705.3
M 141 721.8
Q 145.9 720.95 151.45 720.35 139.95 712.8 126.75 705.8 126.55 705.7 126.35 705.7
M 151.45 720.35
Q 152.65 720.15 153.9 720.05
M 154.7 717.4
Q 155 717.6 155.3 717.8 167 724.55 177.35 732.05 176.85 723.55 176 715.95
M 307.7 631.95
Q 312.85 630.25 318.25 628.8 318.45 628.7 318.8 628.6 319.9 628.2 321.35 627.75 321.85 627.65 322.35 627.45 322.55 627.35 322.9 627.45 329.15 625.2 335.8 623.55 339.45 622.85 342.95 622.05 346.35 620.8 340.7 621.85 334.35 622.95 333.75 623.05 320.6 625.7 311.5 628.2 308.55 628.9 307.3 629.4 294 633.1 282 637.6 281.7 637.6 281.5 637.9 270.65 641.8 260.6 646.7 251.8 650.8 243.9 655.45 244 656.25 244 656.85 245.15 659.95 246.35 661.05 247.5 662.1 248.1 662.2 255.3 656.55 263.35 651.65 263.5 651.55 263.7 651.55 273.3 645.5 284.35 640.7 295.1 635.85 307.4 632.05 307.5 631.85 307.7 631.95 309.85 633.2 312 634.1
M 307.3 629.4
Q 307.3 629.3 307.4 629.3 307.9 627.15 309.05 624.1
M 263.7 651.55
Q 272.7 653.5 279.35 657.05
M 248.1 662.2
Q 248.3 662.5 248.5 662.7 313.95 701.4 363.65 612.9 241.15 587.2 243.9 655.45
M 282 637.6
Q 284.7 632.7 286.1 627.35
M 292.75 643.65
Q 288.75 642.2 284.35 640.7
M 264.6 632.8
Q 262.55 639.35 260.6 646.7
M 198.05 644.75
Q 197.85 645 197.4 645.3 123.15 670.05 90.2 575.95 219.95 574.2 203.65 639.15 203.45 639.85 203.15 640.45 201.5 643.25 200.2 644.05 198.65 644.75 198.05 644.75 191.9 638.1 184.6 631.85 184.4 631.65 184.3 631.65 174.7 631.85 167.3 634
M 184.3 631.65
Q 175.7 624.1 165.45 617.45
M 168.45 614.85
Q 168.65 614.95 168.85 615.3 179.2 621.1 188.3 627.55 187.9 620.2 187.2 613.55
M 188.3 627.55
Q 196.5 633.2 203.65 639.15
M 151.45 720.35
Q 163 728.05 172.85 736.75 172.95 736.75 173.05 737.05 181.35 744.2 188.4 751.9 189.1 751.9 190.75 751.1 192.3 750.15 194.25 747 194.45 746.25 194.75 745.45 186.55 738.5 177.35 732.05 177.55 733.05 177.55 734
M 188.4 751.9
Q 188.1 752.2 187.7 752.5 103.4 781.2 66 672.45 213.2 670.5 194.75 745.45
M 255.4 745.25
Q 255.8 744.3 256.3 743.5 245.25 745.75 235 748.75 235 749.55 234.9 750.35 235.5 754.05 236.45 755.5 237.55 757 238.2 757.25 247.8 753.05 258.25 749.85 258.45 749.55 258.55 749.65 271.05 745.75 284.8 743.3 283.75 742.7 282.65 741.95
M 238.2 757.25
Q 238.3 757.65 238.6 757.95 304.05 818.25 382.05 734.1 248.4 672.95 235 748.75
M 316.95 731.75
Q 314.9 735 313.85 737.15 313.95 737.15 315.8 737.05
L 315.7 737.15
Q 330.05 736.75 345.4 737.35 346.25 737.25 353.7 737.85 360.35 738.2 356.25 738.6 352.05 738.6 347.75 738.5 339.65 738.4 331.9 739.2 331.7 739.1 331.5 739.1 330.75 739.1 330.25 739.2 328.5 739.2 327.1 739.3 326.65 739.4 326.45 739.4 319.9 739.5 313.65 740 315.7 741.95 318.05 743.7
M 284.8 743.3
Q 298.3 740.95 313.15 740.1 313.35 739.9 313.65 740
M 313.85 737.15
Q 297.7 737.55 282.85 739.3 282.65 739.3 282.2 739.5 268.8 740.95 256.3 743.5 260.3 735.9 264.1 729.25
M 258.55 749.65
Q 268.4 754.35 275.05 760
M 293.7 748.95
Q 289.5 746.15 284.8 743.3
M 282.85 739.3
Q 287.05 734.6 289.9 729.15
M 172.85 736.75
Q 161.9 737.05 153.5 739.5"/>
</defs>

<g transform="matrix( 1, 0, 0, 1, 0,0) ">
<use xlink:href="#Layer0_0_FILL"/>

<use xlink:href="#Layer0_0_1_STROKES"/>
</g>

<g transform="matrix( 0, 0.002685546875, -0.002685546875, 0, 375.45,32.8) ">
<g transform="matrix( 1, 0, 0, 1, -708,-84.7) ">
<use xlink:href="#pink_petal_0_Layer0_0_FILL"/>
</g>
</g>

<g transform="matrix( 0, 0.002685546875, 0.002685546875, 0, 374.7,32.8) ">
<g transform="matrix( 1, 0, 0, 1, -708,-84.7) ">
<use xlink:href="#pink_petal_0_Layer0_0_FILL"/>
</g>
</g>
</svg>
