<?xml version="1.0" encoding="utf-8"?>
<!-- Generator: Adobe Illustrator 18.0.0, SVG Export Plug-In . SVG Version: 6.00 Build 0)  -->
<!DOCTYPE svg PUBLIC "-//W3C//DTD SVG 1.1//EN" "http://www.w3.org/Graphics/SVG/1.1/DTD/svg11.dtd">
<svg version="1.1" id="Layer_1" xmlns="http://www.w3.org/2000/svg" xmlns:xlink="http://www.w3.org/1999/xlink" x="0px" y="0px"
	 viewBox="80 107 381.9 822.3" enable-background="new 80 107 381.9 822.3" xml:space="preserve">
<g transform="matrix( 1, 0, 0, 1, 0,0) ">
	<g>
		<path id="Layer0_0_1_STROKES" fill="none" stroke="#000000" stroke-linecap="round" stroke-linejoin="round" d="M258.5,183.8
			c52.5-62.6,87.3-53.3,104.2,28c14.3-0.6,26.4,0,36.4,1.8c9,1.6,16.3,4.3,21.9,8c6.3,4,10.4,9.4,12.3,16.1
			c3.5,12.7-1.1,30.1-13.8,52.1c-3.8,6.5-8.3,13.5-13.5,20.9c42.9,66.6,26.1,98.4-50.5,95.3c-31.8,77.2-67.1,83.9-106.1,20
			c-70.3,37-97.6,13.5-81.8-70.4c-73.1-38.3-71.7-74.3,4.2-107.9C159.5,161.4,188.4,140.1,258.5,183.8z M159.8,243.6
			c-24.3-113.3,8.4-136.9,98.2-71c58.4-94.8,95.3-86.1,110.7,26.2c15.3-2.5,26.7-4.2,34.4-4.9c7.6-0.7,20.1,1.8,37.5,7.8
			c17.2,5.8,23.8,19.6,19.7,41.3c-4.3,21.6-11.4,38.2-21.4,49.8c-10.2,11.5-14.9,17.1-14.1,16.8c61.7,85.3,40,120.7-65.1,106.1
			c-29.6,106.7-67.7,114.1-114.4,22.4c-89,58.4-118.7,32.1-89.3-78.9c-30.8-4.2-51.2-11.7-61.2-22.5c-10-10.9-14.7-21.9-14.1-33
			c0.5-11.2,3.6-19.9,9.5-26.2c5.7-6.5,12.8-12.9,21.5-19.2C120.2,251.5,136.3,246.7,159.8,243.6z M300.4,400.1l-3.7-16L278,398.5
			l3,9.1c0.6,0,1.3,0,2,0c27.4,0,50.7-9.7,70.1-29.1c19.4-19.4,29.1-42.7,29.1-70c0-23.3-7-43.6-20.9-60.9
			c-2.2-3.5-4.6-6.9-7.2-10.2l-0.9,0.9c-19.3-19.4-42.7-29.1-70.1-29.1c-1,0-2.1,0.1-3.1,0.2l3.9,12.9l12.9-5.6 M327.4,273.2
			l9.2,23.2l22.2-11.5l-9.5-18L327.4,273.2l-15-38.9l-21.8,11l10.7,35.8L327.4,273.2z M341.3,248.9l7.9,18.1l15.7-4.5 M371,278.7
			l-12.3,6.3l8.2,15.6l10.4-7.1 M373.5,313.4l-6.6-12.8l-22.6,15.8l9.4,24.1L371,327 M330.1,377.9l-4.6-15.8l-28.9,22.1l-7-29.8
			L268.2,369l9.8,29.5l-7.4,5.4 M359.9,356.8l-6.3-16.2L325.5,362l-8-27.1l-27.9,19.3l-8.1-33.8l-25.8,11.2l12.5,37.3l-23.5,16.3
			l6.1,12.5 M309.4,308.2l8.1,26.7l26.8-18.5l-7.7-20L309.4,308.2l-8.1-27.1l-27.2,8.4l7.5,31L309.4,308.2z M307.8,222.9l4.6,11.4
			l16.6-10.2 M283.8,222.2l-23.2,10l5.9,25.1l24.2-12.1L283.8,222.2z M279.9,209.4c-8.6,0.2-16.8,1.4-24.6,3.6l5.3,19.3l-33,14.4
			l8.6,26.1l30.2-15.4l7.6,32.1l-29.3,8.8l10.9,33.4L225.1,345l19.7,40.3l-12.6,8.8c14.6,8.7,30.8,13.3,48.8,13.6l0.8,2.5
			 M278,202.9l1.9,6.4 M253.3,205.5l1.9,7.4c-12.1,3.3-23.1,8.9-33.1,17l5.4,16.7l-22.6,9.8 M222.1,229.9c-3.2,2.5-6.3,5.2-9.3,8.3
			c-19.4,19.4-29.1,42.8-29.1,70.2c0,19.4,4.9,36.8,14.7,52.3c2.5,3.1,5.2,6.1,8.1,9.1l-0.9,0.9c2.2,2.6,4.6,5.1,7.2,7.8
			c6.1,6.1,12.5,11.2,19.3,15.5l-3.8,2.4 M195,313.4l12.8-3.8l-8.9-18.1l-8.8,4.5 M196.2,286.1l2.7,5.4l37.3-18.8l8.6,25.5l-37,11.4
			l17.3,35.4l-21.4,9.3 M260.3,474.3c-26.6,141.8-38.6,293.3-36,454.5l-17.1-0.7c-0.4-174.3,14.8-327,45.7-458.1L260.3,474.3z
			 M122.2,536l1.3,7.2 M132,530.1c-1.9-2.5-3.5-4.9-5-7 M121.6,515c-2.4-4-4.1-7.2-4.8-9.8l4,23 M116.8,505.2l-0.8-3.9 M132.3,572.8
			c1.2,3.2,2.4,6.3,3.7,9.4 M125.4,551.6c1.2,4.5,2.6,8.9,4.1,13.3 M156.5,560.2c-2.5-2.9-4.9-5.7-7.1-8.3 M144,545.3
			c-2.2-2.7-4.2-5.2-6.1-7.6 M107.2,461.5c2.4,20.5,20.7,48.2,54.9,83c30.6,35,45.8,82.1,45.5,141.5c-59.1-37.1-91.9-91.5-98.5-163
			L107.2,461.5z M149.1,607.8c1.9,3.3,3.9,6.6,6.1,9.8 M315.6,690.2c1.2-1.4,2.4-2.7,3.6-4c2.6-2.5,5.1-4.9,7.5-7.2 M188.9,618.5
			c-1.6-4.7-3.3-9.3-5.1-13.8 M193.9,637.1c-0.8-3.5-1.6-7-2.5-10.3 M187.8,657.2c3.3,3.2,6.8,6.4,10.3,9.6
			c-0.1-1.9-0.3-3.9-0.4-5.8 M196.8,652.9c-0.4-2.7-0.9-5.4-1.3-8.1 M172,640.2c3.3,3.8,6.8,7.6,10.4,11.3 M296.2,716.1
			c2.8-4.5,5.9-9,9.1-13.2 M267.7,786.3c1-4.6,2.1-9.2,3.4-13.8 M273.6,764.2c1.5-4.6,3.1-9.2,5-13.7 M310.5,764.2
			c-2.3,2.5-4.6,5-7,7.4 M296.5,778.4c-4.4,4.1-8.9,8.1-13.5,12.1 M282.5,741.5c2.1-4.8,4.4-9.4,6.9-13.9 M139.8,590.4
			c1.6,3.4,3.3,6.8,5.1,10.1 M180.4,597c-2.1-4.4-4.4-8.7-6.8-12.8 M159.6,624.2c2.4,3.4,4.9,6.8,7.6,10.1 M168.9,576.3
			c-2.2-3.4-4.6-6.7-7.1-9.9 M383.1,611.2l-1.3,4.5l-4.4,17.8 M348.2,657.5c3.6-3.8,7-7.4,10.1-10.7 M333.1,672.7
			c3.4-3.4,6.7-6.6,9.8-9.7 M375.4,641l-4.5,17.8 M368.6,667c-1.7,4.8-3.5,9.5-5.4,14.2 M364.1,640.2c9.5-10.8,15.4-19,17.6-24.5
			 M350.8,707.8c-2.4,4.5-4.9,8.8-7.5,13.1 M338.8,728.1c-2.4,3.6-4.9,7.2-7.5,10.8 M360.2,688.2c-1.9,4.3-3.9,8.5-6,12.7
			 M397.7,563.3c-4.8,24.8-30.6,56.8-77.2,96.1c-42,39.8-65.4,95.8-70.1,168.1c78.7-39.9,125.2-103.1,139.7-189.5L397.7,563.3z
			 M326.3,745.5c-3.1,4-6.3,7.9-9.6,11.8 M276.8,795.5c-4.1,3.2-8.3,6.4-12.6,9.6c0.5-3.5,1.1-6.9,1.8-10.2"/>
	</g>
</g>
</svg>
