<?xml version="1.0" encoding="utf-8"?>
<!-- Generator: Adobe Illustrator 18.0.0, SVG Export Plug-In . SVG Version: 6.00 Build 0)  -->
<!DOCTYPE svg PUBLIC "-//W3C//DTD SVG 1.1//EN" "http://www.w3.org/Graphics/SVG/1.1/DTD/svg11.dtd">
<svg version="1.1" id="Layer_1" xmlns="http://www.w3.org/2000/svg" xmlns:xlink="http://www.w3.org/1999/xlink" x="0px" y="0px"
	 viewBox="87.2 10.8 585.8 562.4" enable-background="new 87.2 10.8 585.8 562.4" xml:space="preserve">
<g transform="matrix( 1, 0, 0, 1, 0,0) ">
	<g>
		<g id="Layer0_0_FILL">
			<path fill="#8EC63F" d="M644.8,147.9l-0.1-0.1c0,0-0.1,0-0.1,0.1c0,0,0.1,0.1,0.1,0.2C644.7,148,644.8,148,644.8,147.9z"/>
			<path fill="#ABD372" d="M250.7,550L250.7,550c0.2,0,0.3,0,0.4,0L250.7,550 M255,549.2c-0.3,0.1-0.6,0.1-0.9,0.1
				c-1,0.2-2,0.4-2.9,0.7c0.7-0.1,1.3-0.3,1.9-0.4L255,549.2z"/>
		</g>
	</g>
	<g>
		<path id="Layer0_0_1_STROKES" fill="none" stroke="#000000" stroke-linecap="round" stroke-linejoin="round" d="M633,143.4
			c1.4-3.4,3.3-5.2,5.9-5.6c2.5-0.4,4.9,0.8,7.2,3.6c2.2,2.8,3.7,6.4,4.2,10.8s0.2,8.3-1.1,11.7c-1.4,3.4-3.4,5.3-5.9,5.7
			c-2.6,0.4-5-0.9-7.2-3.7c-2.2-2.8-3.7-6.4-4.2-10.8C631.2,150.7,631.5,146.8,633,143.4z M253.1,549.6c2.3-0.4,3.7-0.7,4.2-0.7
			c9.4-1,18.7,0,28,2.9c15,4.6,17.8,8.6,8.5,11.8c-9.3,3.3-19.6,5.2-30.8,5.7c-0.5,0-0.9,0-1.4,0.1l-3.4,0.2l-1.6,0.4
			c-3,0.8-6.2,1.3-9.3,1.6c-3.8,0.4-7.6,0.6-11.2,0.6c-3.6,0-7.3-0.1-11.1-0.3c-3.8-0.2-7.6-0.7-11.4-1.3c-2-0.3-4-0.6-6-1.2
			c-0.1,0-0.1,0-0.2-0.1c-0.7-0.1-1.7-0.1-3,0.3c-4.7,0.5-10,0.9-15.8,1.2c-4.2,0.2-8,0.2-11.6,0.1c-0.4,0.1-0.8,0.2-1.2,0.3
			c-0.1,0-0.3,0-0.4,0.1c-0.4,0.1-0.8,0.1-1.2,0.2c-9.7,1.4-20.1,1.3-31.2-0.3c-11.1-1.6-19.7-3.9-25.7-6.7c-6-2.8-5.3-6.3,2.3-10.6
			c3.6-1.9,7.7-3.1,12.1-3.7c4.8-10.1,8.1-22.7,9.8-37.7c-4-3.3-8.3-7.3-13.1-11.9c-12.8-12.4-23.5-29.9-31.9-52.3
			c-8.5-22.4-10.8-40.9-6.8-55.4c3.9-14.5,10.8-27,20.9-37.5c10.1-10.6,20.4-15.8,31.1-15.7c10.7,0.1,20.8,5.4,30.3,15.9
			c9.5,10.4,15.4,16.7,17.7,18.8c2.3,2.1,4.1,2.5,5.2,1.4c1.5-0.3,2.6-2.2,3.3-5.5c2.1-10.3,4.3-20.3,6.4-29.9
			c2.1-9.4,4.2-18.9,6.2-28.2c6.4-29.4,13.6-58.6,21.6-87.7c2.9-10.4,6.1-20.6,9.8-30.7c7.9-21.9,19.2-42.1,33.8-60.4
			c6.9-8.8,14.9-16.5,23.9-23.1c16.2-12,34.3-18.1,54.3-18.4c9.7-0.2,18.7,2.1,27,6.7c11.4,6.4,24.4,16.6,39,30.7
			c14.6,14,25.1,33,31.5,56.8c6.4,23.8,11.6,46.4,15.6,67.7c4,21.3,7,40.2,9.1,56.7c2.1,16.6,7.8,21.4,17.1,14.6
			c9.6-15,15.5-33.8,17.8-56.2c2.3-22.5,3.9-39.6,5-51.2c1-11.6,2-22.9,3-33.9c1-11,1.8-18.7,2.3-22.9c1.6-12.3,4.6-24.5,9.2-36.6
			c4.6-12.2,13.4-24,26.6-35.4c13.1-11.5,27-16,41.8-13.5c14.7,2.5,27.3,7.2,37.8,14.1l6.7,6.9c16.8,14.5,26,33.7,27.6,57.5
			c1.6,23.8,1.7,45.8,0.5,66.1c-1.3,20.3-4.5,42.7-9.6,67.3c-5.1,24.6-9.9,44.7-14.4,60.3c-4.5,15.6-11.1,32.6-19.8,50.9
			c-8.8,18.3-19.4,34.9-32,49.8c-12.6,14.8-29.3,29.3-50.3,43.5c-2.1,1.4-3.7,2.6-4.9,3.6c4,16.4,4.2,34.5,0.7,54.3
			c0.5-0.1,0.9-0.2,1.4-0.3c0.4,0,0.7-0.1,1.1-0.1c0.7-0.1,1.4-0.2,2.1-0.2c9.4-1,18.7,0,28,2.9c15,4.6,17.8,8.6,8.5,11.8
			c-9.3,3.3-19.5,5.2-30.8,5.7c-1.5,0.1-2.9,0.1-4.3,0.2c-0.2,0.1-0.4,0.1-0.6,0.2c-0.4,0.1-0.8,0.2-1.2,0.3c-9.6,2.1-20,2.8-31.2,2
			c-8.1-0.6-14.9-1.6-20.4-3c0,0-0.1,0-0.1,0c-5.3,1-10.8,1.6-16.6,1.9c-4.2,0.2-8,0.2-11.5,0.1c0,0-0.1,0-0.1,0.1
			c-0.8,0.2-1.7,0.4-2.8,0.5c-9.7,1.4-20.1,1.3-31.2-0.3c-11.1-1.6-19.7-3.9-25.7-6.7s-5.3-6.3,2.3-10.6c3.6-1.9,7.7-3.1,12.1-3.7
			l10.5-45.8c-13.5-6.7-25.7-22.8-36.8-48.3c-11.1-25.7-18.9-49.5-23.3-71.2c-4.5-21.8-8.6-40.4-12.4-55.8s-8.3-19.2-13.7-11.3
			c-11.7,31-21,59.6-28,85.8s-12.4,43.2-16.4,51.1c-3.9,7.9-9.3,16.5-16.1,25.9c-2.6,3.6-5.5,7-8.7,10c-6.9,6.6-14.4,12.6-22.3,17.8
			c4.4,11.5,3.6,25.4-2.5,41.6l0.4-0.1 M255,549.2l-1.9,0.4c-0.6,0.1-1.3,0.2-1.9,0.4c-0.1,0-0.2,0.1-0.4,0.1
			c-1,0.3-1.9,0.5-2.9,0.9c-2.4,0.8-4.7,1.8-6.8,3c5.6,1.3,10,3.2,13.3,5.9c1.2,1.1,2.4,2.4,3.7,3.8c0.5,0.5,0.9,1.1,1.4,1.7
			c0.6,0.9,0.6,2,0,3.2l-1.2,1.2 M593.7,51.2c0,0.1,0.1,0.1,0.1,0.2c3.2-2.9,6.5-6.8,9.7-11.5c3.1-4.6,6.5-5.6,10.2-3
			c3.7,2.6,2.7,8-3.1,16c-2.2,3-4.7,5.6-7.4,7.9c-8.7,7-20.6,9.4-35.6,7.1c-1.6-0.2-4.9-1.4-10-3.4c-5.2-2.1-8.6-4.9-10.3-8.5
			c-1.2-2.6-0.8-4.9,1.1-6.8c1-1,2.3-1.5,3.8-1.4c1.5,0.1,2.8,0.7,3.8,1.8c0.9,0.9,2.7,2.1,5.4,3.6c2.7,1.4,5.8,2.3,9.2,2.8
			c0,0,0.1,0,0.1,0c-0.9-2.7-1.8-5.2-2.7-7.5c-2.5-6.2-5.1-10.9-7.7-14c-4-4.7-4.7-9.5-2.2-14.3c2.1-3.9,5.2-4.9,9.5-2.9
			c1.1,0.5,2.4,1.4,3.9,2.6c1,0.6,1.8,0.2,2.3-1.2c0.6-1.7,2.2-3.6,4.8-5.8c1.9-1.6,3.9-2,5.8-1c2.1,1,3.8,3.3,5.1,6.8
			c0.6,4.9,1,11.9,1.2,20.8c0,1.4,0.2,2.7,0.4,4C591.6,46.3,592.4,48.9,593.7,51.2c-7.2,4.8-14.8,6.4-23,4.7 M568.1,48.5
			c8.2,0.1,15.9-1.5,23.1-5 M558.3,139.2c2.8-3.5,5.7-5,8.6-4.4c2.9,0.5,5,2.9,6.3,7.2c1.4,4.3,1.5,9.3,0.5,14.8
			c-1,5.5-2.9,10.1-5.8,13.6c-2.8,3.5-5.7,5-8.5,4.5c-2.9-0.5-5.1-2.9-6.5-7.2c-1.3-4.3-1.5-9.2-0.5-14.8
			C553.6,147.3,555.5,142.8,558.3,139.2z M570.8,145.9c-0.5,0.6-1.2,0.9-2,0.9c-0.8,0-1.4-0.3-2-0.9c-0.5-0.5-0.8-1.2-0.8-1.9
			s0.3-1.4,0.8-2c0.6-0.5,1.2-0.8,2-0.8c0.8,0,1.4,0.3,2,0.8c0.6,0.6,0.8,1.2,0.8,2S571.3,145.4,570.8,145.9z M630.4,110.8
			c4,1.9,7.4,4.7,10.1,8.3 M644.6,147.9L644.6,147.9c-0.6,0.6-1.2,0.9-2,0.9s-1.4-0.3-2-0.9c-0.5-0.5-0.8-1.2-0.8-1.9s0.3-1.4,0.8-2
			c0.6-0.5,1.2-0.8,2-0.8s1.4,0.3,2,0.8c0.6,0.6,0.9,1.2,0.9,2C645.4,146.7,645.2,147.4,644.6,147.9h0.2c0,0-0.1,0.1-0.1,0.2
			 M644.7,147.9C644.6,147.9,644.6,147.9,644.7,147.9 M557.2,112.8c3.9-2.8,8.2-4.3,12.8-4.6c0.3,0,0.5,0.1,0.8,0.2 M118.2,358.1
			c3.3,4.3,3.6,8.3,0.9,12.1c-4.8,6.6-6.4,13.6-4.7,20.9c0.9,4,3.3,6.3,7.4,7.1c11.4,2.1,18.1,8.9,20.1,20.4
			c1.9,10.6,0.1,20.8-5.1,30.8c-5.3,10-4.6,19.2,2.2,27.8c4.2,5.2,9.6,6.6,16.4,4.2c10.4-3.7,18.2-0.5,23.6,9.7
			c5.6,10.7,13.7,14.9,24.2,12.4c4.3-1,7.4-3.2,9.4-6.6c5.4-9,8.7-18.7,9.7-29.1c0.6-5.9,3.3-10.9,8.1-15c8.3-7,17.7-10.4,28.4-10.4
			c12.4,0.1,19.3-5.7,20.9-17.3c1-7.9,0.1-15.8-2.8-23.9c-3.6-9.9-3.1-17.3,1.4-22.4c4.6-5.1,8.4-9.2,11.5-12.3
			c3.1-3.1,3.8-8.5,2.1-16.1c-1.7-7.6-3.8-17.2-6.3-28.9c-2.5-11.6,0.8-21.4,10-29.2c8.6-7.4,18.3-8.6,28.9-3.8
			c2.2,1,4.6,2.1,7.1,3.2c8.5,4,16.8,1.3,24.8-7.9c2.2-2.6,5.3-4.3,9.1-5.1c12.9-2.8,19.5,2,19.7,14.4c0.1,8.1-1.2,16-3.9,23.8
			c-3.7,10.6,0.6,16.9,12.8,18.9c11.9,2,17.4,8.8,16.3,20.3c-0.5,4.9-1.1,9.6-1.8,14.1c-1.3,7.6,2.9,11.7,12.5,12.3
			c10.9,0.6,15.4,7,13.2,19.2c-1.3,7.7-2.5,15.6-3.6,23.6c-1.5,10.9,2.8,18.5,12.8,22.8c4.7,2,7.1,0.2,7.2-5.4
			c0.2-12.7,5.9-19.6,17-20.5c7-0.6,12.8,2.1,17.5,8c4,5,8.6,5.8,14,2.5c9.1-5.6,13.7-13.9,13.9-25.1c0.1-10.4-2.7-20.1-8.5-29.2
			c-3.3-5.2-3.5-10.8-0.6-16.6c4.7-9.4,11.5-17,20.3-22.8c1.1-0.7,2-1.8,2.6-3.4c4-9.6,2.3-18.8-4.9-27.4
			c-6.5-7.7-8.7-16.9-6.7-27.5 M327,340.6c-3.6,3.6-7.9,5.4-13,5.4s-9.4-1.8-13-5.4c-3.6-3.6-5.4-7.9-5.4-13c0-5.1,1.8-9.4,5.4-13
			c3.6-3.6,7.9-5.4,13-5.4s9.4,1.8,13,5.4c3.6,3.6,5.4,7.9,5.4,13C332.4,332.7,330.6,337,327,340.6z M392.2,371.4
			c-1.7,1.7-3.8,2.6-6.2,2.6s-4.5-0.9-6.2-2.6c-1.7-1.7-2.5-3.8-2.5-6.2c0-2.4,0.9-4.5,2.5-6.2c1.7-1.7,3.8-2.6,6.2-2.6
			s4.5,0.9,6.2,2.6c1.7,1.7,2.6,3.8,2.6,6.2C394.8,367.6,393.9,369.7,392.2,371.4z M398.8,387.6c5.3,0,9.8,1.9,13.6,5.6
			c3.8,3.8,5.6,8.3,5.6,13.6c0,5.3-1.9,9.8-5.6,13.6c-3.7,3.8-8.2,5.6-13.6,5.6c-5.3,0-9.8-1.9-13.6-5.6c-3.7-3.7-5.6-8.2-5.6-13.6
			c0-5.3,1.9-9.8,5.6-13.6C389,389.5,393.5,387.6,398.8,387.6z M581.6,191.9c1.5,7,5.4,14.3,11.5,21.9c7.6,8.9,15.8,8.8,24.4-0.1
			c6.2-7.9,9.3-15.3,9.2-22.1 M290.8,386c0-2.7,0.9-4.9,2.8-6.8c1.9-1.9,4.1-2.8,6.8-2.8c2.7,0,4.9,0.9,6.8,2.8
			c1.9,1.9,2.8,4.1,2.8,6.8s-0.9,4.9-2.8,6.8c-1.9,1.9-4.1,2.8-6.8,2.8c-2.7,0-4.9-0.9-6.8-2.8C291.7,390.9,290.8,388.7,290.8,386z
			 M254.8,457.2c4,0,7.3,1.4,10.2,4.2c2.8,2.8,4.2,6.2,4.2,10.2c0,4-1.4,7.3-4.2,10.1c-2.8,2.8-6.2,4.2-10.2,4.2
			c-4,0-7.4-1.4-10.2-4.2c-2.8-2.8-4.2-6.2-4.2-10.1c0-4,1.4-7.4,4.2-10.2C247.4,458.6,250.8,457.2,254.8,457.2z M232.4,490.8
			c2.2,0,4.1,0.8,5.7,2.4c1.6,1.6,2.3,3.5,2.3,5.6c0,2.2-0.8,4.1-2.3,5.7c-1.6,1.6-3.5,2.3-5.7,2.3c-2.2,0-4.1-0.8-5.6-2.3
			s-2.4-3.5-2.4-5.7c0-2.2,0.8-4.1,2.4-5.6C228.3,491.6,230.2,490.8,232.4,490.8z M179.6,551c0.4,0,0.7-0.1,1.1-0.2
			c0.7-0.1,1.4-0.2,2.1-0.2c8.7-0.9,17.3-0.1,25.9,2.2c0.1,0,0.2,0.1,0.3,0.1c1.2-0.4,2.5-0.7,3.8-1c3.6-5.4,5.7-14.2,6.1-26.5
			c-2.3,0.8-4.6,1.6-7,2.3c-11.2,3.4-22.1,4.3-32.8,2.8c0.2,6.8-0.7,13.8-2.9,21.2C178.1,551.3,179.2,551,179.6,551z M212.9,552
			c1.8-0.4,3.6-0.6,5.5-0.8c3.3-10.6,4.4-19.5,3.4-26.8c-0.9,0.3-1.8,0.7-2.7,1 M247.9,551c2.9-11.3,3.7-24.8,2.3-40.5
			c-2.4,1.5-4.8,2.9-7.3,4.2c-6.8,3.7-13.8,7-21.1,9.7 M179.2,530.6c-0.9-0.1-1.9-0.3-2.8-0.4c-0.2,8.2-1.2,15.7-2.9,22.4
			c1.5-0.5,2.5-0.8,2.9-0.8 M208.8,552.8c-3.3,2-5.6,4.7-6.9,8c-0.5,1.4-0.8,2.9-0.9,4.4l0.8,1.2l3.5,2.5l2.1,0.5 M173.5,552.5
			c-3.2,1.1-6.1,2.5-8.8,4.2c-0.2-0.1-0.5-0.2-0.7-0.3l13.2,9.5c0.2,0.7,0.4,1.3,0.6,2c0.1,0.6,0.2,1.2,0.3,1.9l-0.7,1h-0.1
			c-0.1,0.1-0.1,0.1-0.2,0.1 M218.4,551.2c0.3,0,0.6-0.1,0.9-0.1c0.4,0,0.7,0,1.1,0c0.7,0,1.4,0,2.1,0c6.1,0.1,12.2,1,18.1,2.8
			c0.2,0,0.4,0.1,0.6,0.1l-0.1,0c-0.2-0.1-0.4-0.1-0.5-0.2 M253.2,508.5c-1,0.6-2,1.3-3.1,1.9 M250.7,550.1L250.7,550.1
			 M131.6,550.5c1.4-0.2,2.8-0.3,4.3-0.3c4.6-13.8,7.4-25.5,8.4-35c-0.9-0.8-1.9-1.5-2.9-2.4 M176.4,530.2c-6.1-1.1-12.1-3-18-5.7
			c-3.9-1.8-8.6-4.9-14.1-9.3 M135.9,550.1c0.7,0,1.4,0,2.1,0c0.4,0,0.7,0,1.1,0.1c0.7,0,1.4,0,2.1,0.1c7.9,0.7,15.5,2.7,22.8,6.1
			 M561.1,445.1c-2.2,2.2-4.8,3.3-7.9,3.3s-5.8-1.1-8-3.3c-2.2-2.2-3.2-4.8-3.2-7.9s1.1-5.8,3.2-8c2.2-2.2,4.9-3.2,8-3.2
			s5.7,1.1,7.9,3.2c2.2,2.2,3.3,4.9,3.3,8S563.3,442.9,561.1,445.1z M486.6,481.9c-3.3,3.3-7.2,4.9-11.9,4.9
			c-4.6,0-8.6-1.6-11.9-4.9c-3.3-3.3-4.9-7.2-4.9-11.9s1.6-8.6,4.9-11.9c3.3-3.3,7.3-4.9,11.9-4.9c4.6,0,8.6,1.6,11.9,4.9
			c3.3,3.3,5,7.3,5,11.9S489.9,478.6,486.6,481.9z M540.8,495.3c-1.7,0.7-2.8,1.3-3.5,1.7c3.3,21.6,3.1,39.5-0.6,53.9
			c1.5-0.5,3.1-1,4.8-1.3l0,0.6 M508.8,509.6c-0.3,16.8-2.7,30.9-7.1,42.3c1.2-0.2,2.5-0.4,3.7-0.6c5.5-13.2,7.5-27.4,6-42.5
			C510.5,509.1,509.7,509.4,508.8,509.6c-8.6,2.5-17.3,3.9-25.9,4.2c-5.5,0.1-10.2,0.1-13.9,0c0.9,11.9,0,24.4-2.7,37.7
			c0.7-0.2,1.4-0.3,2.1-0.5c0.4,0,0.7-0.1,1.1-0.2c0.7-0.1,1.5-0.2,2.2-0.2c8.7-0.9,17.4-0.1,25.9,2.3c0.2-0.1,0.4-0.2,0.6-0.4
			 M505.4,551.3c0.9-0.1,1.8-0.2,2.6-0.2c0.4,0,0.7,0,1.1,0c0.7,0,1.5,0,2.1,0c6.2,0.1,12.3,1,18.2,2.8c0.1,0,0.2,0.1,0.3,0.1
			c2.1-1.2,4.4-2.2,6.8-3 M501.7,552c-1.3,0.3-2.6,0.6-3.8,1c-0.1,0-0.2,0-0.2-0.1c-6.7,4.4-8.1,9.6-4.1,15.6
			c0.1,0.2,0.3,0.4,0.5,0.6 M529.9,554c9,2,15,4.6,17.8,7.8c2.9,3.3,2.6,5.9-0.8,7.9 M537.3,497c-8.6,5.1-17.3,9-25.9,11.8
			 M447.9,482.3c-1.4,1.4-3.1,2.1-5.1,2.1c-2,0-3.7-0.7-5.1-2.1s-2.1-3.1-2.1-5.1c0-2,0.7-3.7,2.1-5.1c1.4-1.4,3.1-2.1,5.1-2.1
			c2,0,3.7,0.7,5.1,2.1c1.4,1.4,2.1,3.1,2.1,5.1C450,479.2,449.3,480.9,447.9,482.3z M469,513.8c-2.1-0.2-3.6-0.4-4.4-0.5
			c1.3,15.2,0.5,28.3-2.4,39.2c1.3-0.4,2.7-0.8,4.1-1.1 M420.4,550.5c1-0.1,2-0.2,3.1-0.3l10.4-44.2c-0.9-0.4-1.8-0.8-2.7-1.2
			c-0.1,0-0.2-0.1-0.2-0.1 M423.5,550.2c1.1-0.1,2.2-0.1,3.3-0.1c0.4,0,0.7,0,1.1,0.1c0.7,0,1.4,0,2.1,0.1c8,0.7,15.7,2.8,23,6.2
			c0.1,0,0.2,0.1,0.2,0.1c0.1,0.1,0.2,0.1,0.3,0.2c2.6-1.7,5.5-3.1,8.8-4.2 M453.2,556.6l13.5,9.4c0.1,0,0.2,0,0.2,0
			c0.1,0.1,0.2,0.3,0.3,0.5l0.2,3.5l-1.8,1.2 M464.6,513.3c-11.7-1-22-3.5-30.8-7.3"/>
	</g>
</g>
</svg>
