
<svg xmlns="http://www.w3.org/2000/svg" version="1.1" xmlns:xlink="http://www.w3.org/1999/xlink" preserveAspectRatio="none" x="0px" y="0px" width="800px" height="600px" viewBox="0 0 800 600">
<defs>
<g id="Layer0_0_FILL">
<path fill="#8EC63F" stroke="none" d="
M 644.8 147.95
L 644.65 147.9
Q 644.6 147.9 644.6 147.95 644.65 148 644.7 148.1 644.75 148 644.8 147.95 Z"/>

<path fill="#ABD372" stroke="none" d="
M 250.7 550.05
L 250.75 550.1
Q 250.941015625 550.04609375 251.1 550
L 250.7 550.05
M 255 549.2
Q 254.53125 549.30625 254.05 549.35 252.5470703125 549.6345703125 251.1 550 252.1 549.8125 253.05 549.6
L 255 549.2 Z"/>
</g>

<path id="Layer0_0_1_STROKES" stroke="#000000" stroke-width="1" stroke-linejoin="round" stroke-linecap="round" fill="none" d="
M 632.95 143.4
Q 635 138.35 638.85 137.8 642.65 137.2 646.05 141.4 649.4 145.6 650.3 152.2 651.2 158.8 649.15 163.9 647.05 168.95 643.25 169.55 639.4 170.1 636.05 165.9 632.7 161.65 631.8 155.1 630.85 148.45 632.95 143.4 Z
M 253.075 549.625
Q 256.5544921875 548.985546875 257.3 548.95 271.4 547.5 285.3 551.85 307.75 558.8 293.75 563.65 279.8 568.55 263 569.35 262.294140625 569.38359375 261.6 569.4
L 258.2 569.625 256.575 570.05
Q 252.002734375 571.183203125 247.25 571.65 241.55 572.3 236 572.3 230.55 572.3 224.95 572 219.3 571.65 213.55 570.7 210.5009765625 570.312890625 207.55 569.525 207.4478515625 569.5013671875 207.35 569.475 206.3 569.2521484375 204.4 569.75 197.3412109375 570.5337890625 188.6 570.95 182.3333984375 571.2484375 177.05 571.1 176.4779296875 571.26875 175.8 571.425 175.603125 571.459375 175.4 571.5 174.8171875 571.6046875 174.15 571.7 159.55 573.85 142.9 571.4 126.25 568.95 117.2 564.75 108.15 560.55 119.5 554.15 124.9400390625 551.34453125 131.6 550.475 138.8533203125 535.2650390625 141.35 512.8 135.3955078125 507.7921875 128.3 500.9 109.05 482.25 96.4 448.6 83.7 414.95 89.55 393.25 95.35 371.55 110.5 355.7 125.6 339.8 141.6 340 157.6 340.15 171.9 355.85 186.15 371.5 189.6 374.65 193.05 377.8 194.85 376 197.05 375.5 198.15 370.45 201.35 355 204.55 340.6 207.75 326.45 210.8 312.35 220.4 268.25 232.4 224.65 236.7 209.05 242.15 193.95 254.05 161.05 275.9 133.55 286.3 120.4 299.8 110.45 324.1 92.5 354.1 92 368.65 91.75 381.15 98.7 398.25 108.25 420.15 129.35 442.05 150.4 451.6 186.15 461.15 221.85 467.2 253.8 473.2 285.7 476.35 310.55 479.45 335.4 493.5 325.1 507.9 302.55 511.3 268.85 514.7 235.1 516.3 217.7 517.85 200.25 519.35 183.75 520.85 167.2 521.65 160.85 524 142.45 530.85 124.25 537.7 106 557.45 88.8 577.15 71.6 599.2 75.35 621.25 79.05 636.95 89.45
L 643.65 96.35
Q 668.9 118.15 671.25 153.85 673.6 189.5 671.7 220 669.8 250.45 662.1 287.3 654.4 324.15 647.7 347.6 641 371.05 627.9 398.55 614.75 426.05 595.95 448.3 577.1 470.55 545.65 491.75 542.471875 493.8923828125 540.8 495.325 546.828515625 519.9642578125 541.475 549.625 542.15625 549.4814453125 542.85 549.35 543.4 549.3 543.95 549.2 545.05 549 546.1 548.95 560.2 547.5 574.1 551.85 596.55 558.8 582.55 563.65 568.6 568.55 551.8 569.35 549.5783203125 569.455859375 547.475 569.5 547.201953125 569.582421875 546.9 569.65 546.3412109375 569.8130859375 545.7 569.95 531.3 573.15 514.55 571.95 502.3521484375 571.08125 494.1 569 494.054296875 569.0087890625 494 569.025 486.091015625 570.5361328125 477.4 570.95 471.1333984375 571.2484375 465.85 571.1 465.7849609375 571.119140625 465.725 571.15 464.540625 571.4728515625 462.95 571.7 448.35 573.85 431.7 571.4 415.05 568.95 406 564.75 396.95 560.55 408.3 554.15 413.7400390625 551.34453125 420.4 550.475
L 430.9 504.625
Q 410.6955078125 494.608203125 394.15 456.3 377.5 417.7 370.85 385.1 364.1 352.4 358.45 329.3 352.8 306.2 344.8 318 327.25 364.45 316.75 403.75 306.25 443.05 300.4 454.85 294.55 466.65 284.25 480.7 280.3 486.15 275.55 490.7 265.1873046875 500.675 253.2 508.525 259.7859375 525.8234375 250.725 550.075
L 251.125 550
M 255.025 549.225
L 253.075 549.625
Q 252.1 549.8125 251.125 550 250.941015625 550.04609375 250.75 550.1 249.2751953125 550.47890625 247.875 550.95 244.248828125 552.1552734375 241.125 553.925 249.4744140625 555.8458984375 254.45 559.8 256.25 561.5 258.1 563.55 258.8 564.35 259.5 565.2 260.396875 566.615625 259.45 568.4
L 258.2 569.625
M 593.65 51.25
Q 593.7 51.35 593.75 51.45 598.6 47.05 603.45 39.95 608.1 33.05 613.7 37 619.25 40.95 610.6 53.05 607.3 57.55 603.15 60.9 590.1 71.4 567.6 68 565.25 67.65 557.6 64.6 549.8 61.5 547.3 56.05 545.5 52.1 548.4 49.2 549.9 47.7 552.2 47.85 554.45 48.05 556 49.6 557.4 51 561.4 53.15 565.45 55.25 570.65 55.95 570.7 55.95 570.8 55.95 569.45 51.9 568.1 48.45 564.35 39.1 560.4 34.4 554.45 27.3 558.25 20.1 561.35 14.2 567.8 17.25 569.5 18.05 571.65 19.9 573.15 20.8 573.95 18.65 574.9 16.15 578.75 12.85 581.65 10.4 584.6 11.85 587.7 13.35 589.65 18.65 590.5 26.05 590.85 39.45 590.9 41.5 591.2 43.45 591.8 47.7 593.65 51.25 582.9 58.45 570.65 55.95
M 568.1 48.45
Q 580.4 48.65 591.2 43.45
M 558.35 139.25
Q 562.55 133.95 566.95 134.8 571.3 135.6 573.3 142 575.35 148.5 573.8 156.8 572.25 165.1 568.05 170.35 563.85 175.65 559.5 174.85 555.1 174.05 553.05 167.6 551.05 161.15 552.6 152.85 554.15 144.55 558.35 139.25 Z
M 570.75 145.95
Q 569.95 146.8 568.8 146.8 567.65 146.8 566.8 145.95 566 145.15 566 144 566 142.85 566.8 142 567.65 141.2 568.8 141.2 569.95 141.2 570.75 142 571.6 142.85 571.6 144 571.6 145.15 570.75 145.95 Z
M 630.4 110.8
Q 636.45 113.7 640.55 119.1
M 644.6 147.95
L 644.55 147.95
Q 643.75 148.8 642.6 148.8 641.45 148.8 640.6 147.95 639.8 147.15 639.8 146 639.8 144.85 640.6 144 641.45 143.2 642.6 143.2 643.75 143.2 644.55 144 645.4 144.85 645.4 146 645.4 147.1 644.65 147.9
L 644.8 147.95
Q 644.75 148 644.7 148.1
M 644.65 147.9
Q 644.6 147.9 644.6 147.95
M 557.2 112.8
Q 563.05 108.6 570 108.2 570.4 108.2 570.8 108.4
M 118.25 358.15
Q 123.25 364.55 119.15 370.3 111.95 380.2 114.45 391.15 115.75 397.1 121.8 398.25 138.95 401.4 141.95 418.65 144.75 434.5 136.8 449.4 128.85 464.35 139.05 477.15 145.3 484.95 155.45 481.4 171 475.85 179 491.1 187.45 507.2 203.2 503.45 209.6 501.9 212.65 496.9 220.8 483.45 222.3 467.8 223.15 458.9 230.4 452.75 242.8 442.3 258.8 442.4 277.35 442.5 279.65 425.1 281.2 413.3 276.85 401.25 271.45 386.45 278.3 378.85 285.15 371.2 289.75 366.55 294.35 361.85 291.85 350.4 289.3 338.95 285.55 321.55 281.8 304.1 295.55 292.35 308.5 281.3 324.4 288.55 327.75 290.1 331.5 291.8 344.3 297.75 356.25 283.9 359.6 280 365.35 278.8 384.75 274.65 385.05 293.2 385.25 305.3 381.15 316.95 375.65 332.8 393.95 335.9 411.85 338.95 410.3 356.2 409.6 363.55 408.5 370.3 406.55 381.75 421.05 382.6 437.45 383.55 434.3 401.8 432.3 413.4 430.7 425.4 428.5 441.8 443.55 448.2 450.6 451.2 450.75 442.8 451.1 423.7 467.75 422.25 478.2 421.35 485.3 430.2 491.25 437.65 499.3 432.75 512.95 424.4 513.15 407.6 513.35 392.05 504.65 378.4 499.65 370.55 504 361.8 511 347.7 524.35 339.05 526 338 526.95 335.65 532.9 321.2 522.05 308.25 512.3 296.65 515.35 280.8
M 327 340.6
Q 321.6 346 314 346 306.4 346 301 340.6 295.6 335.2 295.6 327.6 295.6 320 301 314.6 306.4 309.2 314 309.2 321.6 309.2 327 314.6 332.4 320 332.4 327.6 332.4 335.2 327 340.6 Z
M 392.2 371.4
Q 389.65 374 386 374 382.35 374 379.75 371.4 377.2 368.85 377.2 365.2 377.2 361.55 379.75 358.95 382.35 356.4 386 356.4 389.65 356.4 392.2 358.95 394.8 361.55 394.8 365.2 394.8 368.85 392.2 371.4 Z
M 398.8 387.6
Q 406.75 387.6 412.35 393.2 418 398.85 418 406.8 418 414.75 412.35 420.35 406.75 426 398.8 426 390.85 426 385.2 420.35 379.6 414.75 379.6 406.8 379.6 398.85 385.2 393.2 390.85 387.6 398.8 387.6 Z
M 581.6 191.95
Q 583.9 202.45 593.1 213.85 604.55 227.15 617.45 213.75 626.75 201.9 626.7 191.6
M 290.8 386
Q 290.8 382 293.6 379.2 296.4 376.4 300.4 376.4 304.4 376.4 307.2 379.2 310 382 310 386 310 390 307.2 392.8 304.4 395.6 300.4 395.6 296.4 395.6 293.6 392.8 290.8 390 290.8 386 Z
M 254.8 457.2
Q 260.75 457.2 264.95 461.4 269.2 465.65 269.2 471.6 269.2 477.55 264.95 481.75 260.75 486 254.8 486 248.85 486 244.6 481.75 240.4 477.55 240.4 471.6 240.4 465.65 244.6 461.4 248.85 457.2 254.8 457.2 Z
M 232.4 490.8
Q 235.7 490.8 238.05 493.15 240.4 495.5 240.4 498.8 240.4 502.1 238.05 504.45 235.7 506.8 232.4 506.8 229.1 506.8 226.75 504.45 224.4 502.1 224.4 498.8 224.4 495.5 226.75 493.15 229.1 490.8 232.4 490.8 Z
M 179.65 550.95
Q 180.2 550.9 180.75 550.8 181.85 550.6 182.9 550.55 195.91796875 549.211328125 208.775 552.8 208.9337890625 552.852734375 209.1 552.9 210.9275390625 552.340234375 212.875 551.95 218.3078125 543.8564453125 219.025 525.425 215.5734375 526.6591796875 212.05 527.75 195.250390625 532.8380859375 179.225 530.6 179.594140625 540.7263671875 176.375 551.75 178.9322265625 551.0859375 179.65 550.95 Z
M 212.875 551.95
Q 215.5072265625 551.406640625 218.35 551.175 223.2984375 535.3390625 221.75 524.425 220.38984375 524.9361328125 219.025 525.425
M 247.875 550.95
Q 252.266796875 534.0224609375 250.15 510.45 246.568359375 512.665234375 242.85 514.7 232.6599609375 520.2994140625 221.75 524.425
M 179.225 530.6
Q 177.81484375 530.405859375 176.4 530.15 176.080078125 542.515234375 173.475 552.55 175.7556640625 551.782421875 176.375 551.75
M 208.775 552.8
Q 203.8 555.75 201.9 560.85 201.15 562.95 201 565.2
L 201.75 566.45 205.25 568.95 207.35 569.475
M 173.475 552.55
Q 168.6662109375 554.1541015625 164.725 556.75 164.37109375 556.580859375 164.025 556.425
L 177.25 565.95
Q 177.6 566.95 177.8 568 178 568.9 178.1 569.9
L 177.4 570.95 177.25 570.95
Q 177.1669921875 571.074609375 177.05 571.1
M 218.35 551.175
Q 218.80078125 551.1298828125 219.25 551.1 219.8 551.05 220.35 551.05 221.45 551 222.5 551.05 231.7158203125 551.212890625 240.55 553.8 240.83515625 553.8623046875 241.125 553.925
L 241.075 553.95
Q 240.8107421875 553.8705078125 240.55 553.8
M 253.2 508.525
Q 251.6818359375 509.499609375 250.15 510.45
M 250.725 550.075
L 250.75 550.1
M 131.6 550.475
Q 133.6779296875 550.2103515625 135.875 550.125 142.7330078125 529.3861328125 144.25 515.175 142.8296875 514.04453125 141.35 512.8
M 176.4 530.15
Q 167.2693359375 528.4970703125 158.4 524.45 152.5271484375 521.8099609375 144.25 515.175
M 135.875 550.125
Q 136.92421875 550.094921875 138 550.1 138.55 550.1 139.1 550.15 140.15 550.15 141.2 550.3 153.1080078125 551.351953125 164.025 556.425
M 561.1 445.1
Q 557.85 448.4 553.2 448.4 548.55 448.4 545.25 445.1 542 441.85 542 437.2 542 432.55 545.25 429.25 548.55 426 553.2 426 557.85 426 561.1 429.25 564.4 432.55 564.4 437.2 564.4 441.85 561.1 445.1 Z
M 486.65 481.85
Q 481.75 486.8 474.8 486.8 467.85 486.8 462.9 481.85 458 476.95 458 470 458 463.05 462.9 458.1 467.85 453.2 474.8 453.2 481.75 453.2 486.65 458.1 491.6 463.05 491.6 470 491.6 476.95 486.65 481.85 Z
M 540.8 495.325
Q 538.2990234375 496.436328125 537.3 497.025 542.2693359375 529.3849609375 536.675 550.95 538.97734375 550.175390625 541.475 549.625
L 541.5 550.2
M 508.8 509.625
Q 508.368359375 534.884375 501.675 551.95 503.487890625 551.57578125 505.4 551.35 513.63984375 531.51328125 511.425 508.825 510.1109375 509.2376953125 508.8 509.625 495.832421875 513.448828125 482.9 513.8 474.595703125 514.0248046875 469.05 513.75 470.407421875 531.530078125 466.325 551.4 467.371484375 551.154296875 468.45 550.95 469 550.9 469.55 550.8 470.65 550.6 471.7 550.55 484.762109375 549.206640625 497.65 552.825 497.945703125 552.6392578125 498.25 552.45
M 505.4 551.35
Q 506.7033203125 551.1896484375 508.05 551.1 508.6 551.05 509.15 551.05 510.25 551 511.3 551.05 520.61171875 551.2146484375 529.525 553.85 529.702734375 553.8982421875 529.875 553.95 533.025 552.16328125 536.675 550.95
M 501.675 551.95
Q 499.72734375 552.340234375 497.9 552.9 497.7775390625 552.8650390625 497.65 552.825 487.5724609375 559.459375 493.55 568.45 493.76328125 568.776171875 494 569.025
M 529.875 553.95
Q 543.3970703125 556.91640625 547.7 561.8 552.00390625 566.6900390625 546.9 569.65
M 537.3 497.025
Q 524.34375 504.64765625 511.425 508.825
M 447.9 482.3
Q 445.8 484.4 442.8 484.4 439.8 484.4 437.7 482.3 435.6 480.2 435.6 477.2 435.6 474.2 437.7 472.1 439.8 470 442.8 470 445.8 470 447.9 472.1 450 474.2 450 477.2 450 480.2 447.9 482.3 Z
M 469.05 513.75
Q 465.8455078125 513.4056640625 464.65 513.3 466.548046875 536.0763671875 462.275 552.55 464.2302734375 551.8919921875 466.325 551.4
M 420.4 550.475
Q 421.9228515625 550.2810546875 423.5 550.175
L 433.85 506
Q 432.4822265625 505.398046875 431.15 504.75 431.0224609375 504.687890625 430.9 504.625
M 423.5 550.175
Q 425.121875 550.0919921875 426.8 550.1 427.35 550.1 427.9 550.15 428.95 550.15 430 550.3 442.0046875 551.3603515625 452.975 556.475 453.1041015625 556.54296875 453.225 556.6 453.380078125 556.6806640625 453.525 556.75 457.4662109375 554.1541015625 462.275 552.55
M 453.225 556.6
L 466.75 565.95
Q 466.9 565.95 466.95 566 467.15 566.2 467.25 566.45
L 467.5 569.95 465.725 571.15
M 464.65 513.3
Q 447.0830078125 511.769140625 433.85 506"/>
</defs>

<g transform="matrix( 1, 0, 0, 1, 0,0) ">
<use xlink:href="#Layer0_0_FILL"/>

<use xlink:href="#Layer0_0_1_STROKES"/>
</g>
</svg>
