<?xml version="1.0" encoding="utf-8"?>
<!-- Generator: Adobe Illustrator 18.0.0, SVG Export Plug-In . SVG Version: 6.00 Build 0)  -->
<!DOCTYPE svg PUBLIC "-//W3C//DTD SVG 1.1//EN" "http://www.w3.org/Graphics/SVG/1.1/DTD/svg11.dtd">
<svg version="1.1" id="Layer_1" xmlns="http://www.w3.org/2000/svg" xmlns:xlink="http://www.w3.org/1999/xlink" x="0px" y="0px"
	 viewBox="123 94.4 185.9 201" enable-background="new 123 94.4 185.9 201" xml:space="preserve">
<g transform="matrix( 1, 0, 0, 1, 0,0) ">
	<g>
		<path id="Layer0_0_1_STROKES" fill="none" stroke="#000000" stroke-linecap="round" stroke-linejoin="round" d="M199.5,108
			l32.2,12.7l7.4-18.5l-2.1-0.7l-16.1-5.2l-4.2-1.4l-3,2.3l-1.8,1.3L199.5,108l-1.2,5l34.7,12.6l6.9-18.3l-0.8-5.1 M213.6,97.2
			c-1.2,0.3-2.4,0.6-3.6,0.9c0.6,0.1,1.2,0.3,1.8,0.4 M220.9,96.3c4-0.2,8.1,0.1,12.3,0.8c2.1,0.4,4.2,0.8,6.2,1.3
			c2,0.5,3.9,1.1,5.8,1.8c5.2,1.9,9.6,4.4,13.3,7.6c0.3,0.3,0.6,0.5,0.9,0.8c0.4,0.4,0.7,0.7,1.1,1.1c5.6,5.8,9.5,12,11.6,18.7
			c1.5,4.7,2.1,9.6,1.9,14.8c-0.1,2.8-0.5,5.7-1.2,8.6c-0.4,2-1,4.2-1.8,6.7c-0.4,1.1-0.8,2.3-1.3,3.5c-0.5,1.2-1.1,2.2-1.7,2.9
			c-0.6,1.9-1.2,3.2-2,3.9l-4.4,9.6l7.2,17.3l-3.9,8.2l12.6,29.2l1.5-0.8l6.6,14.1l1.7-0.7c2.1,2.3,3,4.9,2.8,7.8l-0.9,0.5
			c0.2,1.8,0.1,3.4-0.4,4.9l6-0.1l13.6,31.6L303,295h-51.7h-28.8l-5.4-4.6l0-0.1l14.1-27.5c-1.3-1.5-2.1-3.6-2.2-6.4l1.5-0.6
			l-1.9-5.4l-0.2,0.4l-0.8,1.6l-1.6,3.5l-6.6-2.4l-11,6.4c-10.7-3.2-21.5-7.4-32.4-12.6c-0.3,1.6-1.3,3-2.9,4.1l-3.3,4.8
			c-2.3,0.8-4.5,1.2-6.5,1.3c-0.3,0-0.5,0-0.8,0l-0.2,0.8h1.1l19.4,31.9l-5.4,4.6h-48.5l-5.4-4.6l0.1-0.1l23.4-32.7l2.9,0.2l1.2-4.6
			c-0.9-0.8-1.7-1.8-2.5-2.8l0.4-6.6c-2.2-3.1-1.6-5.6,1.7-7.5l0.1-0.1l0.1,0h0l0.6-1.9c-3.6-2.1-7.1-4.3-10.7-6.6l-1.1-12.1
			l-4.9-3.4c0.3-1.1,0.7-2.2,1.1-3.2c1.6-4.9,3.3-9.7,5.1-14.6c2.6-6.9,5.4-13.7,8.6-20.5c2.4-5.2,4.9-10.3,7.5-15.4
			c1.3-2.6,2.4-4.5,3.1-5.9c2-3.6,3.4-6,4.1-7.1c0.5-1,1.1-2,1.6-2.8c0.1-0.3,0.2-0.5,0.4-0.8c0.2-0.3,0.3-0.7,0.5-1h-0.1l0.4-0.8
			l2.1-3.5l0.2-0.2l0.5-0.8v0c0.3-0.4,0.5-0.9,0.8-1.3c0.2-0.4,0.5-0.7,0.7-1.1c0.8-1.3,1.6-2.5,2.4-3.8c0.8-1.3,1.6-2.6,2.3-3.8
			c0.8-1.2,1.6-2.4,2.4-3.5c0.8-1.1,1.6-2.2,2.4-3.2c3.3-4.1,7-7.9,11-11.2c0.1-0.1,0.3-0.3,0.4-0.4c5.7-4.3,11.6-7.4,17.8-9.2
			 M229.5,106.2c-0.2,1.3-1,2.4-2.4,3.2c-1.4,0.8-3.1,1.1-4.9,0.9c-1.9-0.3-3.4-1-4.5-2.1c-1.2-1.2-1.7-2.4-1.5-3.8
			c0.2-1.4,1-2.4,2.5-3.2c0.3-0.2,0.6-0.3,0.9-0.4c0.6-0.3,1.3-0.4,2.1-0.5c0.6,0,1.2,0,1.9,0.1c1.8,0.2,3.3,0.9,4.5,2.1
			c0.5,0.4,0.8,0.9,1.1,1.4c0.4,0.7,0.5,1.5,0.4,2.2C229.5,106.1,229.5,106.2,229.5,106.2z M230.1,102c0.9,0.9,1.6,1.9,1.9,2.9
			c0.3,0.8,0.3,1.6,0.2,2.5c-0.3,2-1.4,3.5-3.5,4.7c-2.1,1.1-4.5,1.5-7.1,1.2c-2.7-0.4-4.9-1.4-6.6-3.1c-1.7-1.7-2.4-3.5-2.2-5.4
			c0.3-2,1.4-3.5,3.6-4.7c0.1-0.1,0.2-0.1,0.4-0.2c2-1,4.2-1.3,6.8-1C226.2,99.3,228.4,100.3,230.1,102z M226.4,102.7
			c0.1,0.1,0.2,0.2,0.3,0.3c0.4,0.5,0.5,1,0.4,1.5c-0.1,0.7-0.5,1.2-1.2,1.6c-0.7,0.4-1.5,0.5-2.3,0.3c-0.9-0.1-1.6-0.5-2.2-1
			c-0.6-0.6-0.8-1.2-0.7-1.8c0.1-0.7,0.5-1.2,1.2-1.6c0.3-0.2,0.6-0.3,0.9-0.4c0.4-0.1,0.9-0.1,1.4-0.1
			C225.1,101.8,225.8,102.1,226.4,102.7z M222.7,127.6c-0.2,1.1-1,1.9-2.2,2.6c-1.3,0.6-2.7,0.7-4.2,0.4c-1.6-0.3-2.9-1-3.8-2
			c-0.9-1-1.3-2.1-1.1-3.2c0.2-1.1,0.9-2,2.2-2.6c1.3-0.6,2.7-0.7,4.2-0.4c1.6,0.3,2.8,0.9,3.8,1.9
			C222.6,125.4,222.9,126.5,222.7,127.6z M239,128.6c-0.3-0.1-0.5-0.1-0.8,0c-1.5,0-2.8,0.5-3.8,1.5c-1.1,1-1.6,2.3-1.6,3.8
			c0,1.5,0.5,2.7,1.6,3.8c0.8,0.8,1.7,1.2,2.8,1.4h0.1c0.3,0,0.6,0.1,0.9,0.1c1.5,0,2.7-0.5,3.8-1.5c1-1,1.6-2.3,1.6-3.8
			c0-1.5-0.5-2.7-1.6-3.8c-0.6-0.6-1.3-1-2.1-1.2C239.6,128.8,239.3,128.7,239,128.6c-1.1-0.7-2.4-1.1-3.9-1.1
			c-1.9,0-3.5,0.6-4.8,1.7c-1.3,1.2-1.9,2.6-1.9,4.2s0.6,3,1.9,4.2c1.3,1.2,2.9,1.8,4.8,1.8c0.8,0,1.5-0.1,2.2-0.3 M241,131.1
			c0.4,0.4,0.6,0.8,0.7,1.3c0,0.1,0,0.2,0.1,0.3c0,0.3-0.1,0.5-0.1,0.8c-0.1,0.3-0.3,0.6-0.6,0.9c-0.5,0.4-1.1,0.7-1.8,0.7
			c-0.7,0-1.3-0.3-1.8-0.7c-0.5-0.4-0.7-1-0.7-1.6c0-0.1,0-0.3,0-0.4c0.1-0.4,0.2-0.7,0.5-1.1l0.1-0.1c0-0.1,0.1-0.1,0.1-0.1
			c0.5-0.5,1.1-0.7,1.8-0.7c0.6,0,1.2,0.2,1.7,0.5C240.9,131,240.9,131,241,131.1z M239.1,129.8c0.9,0,1.8,0.3,2.5,0.8
			c0.1,0,0.1,0.1,0.2,0.2c0.6,0.6,1,1.2,1.1,2c0,0.2,0.1,0.3,0.1,0.5c0,0.4-0.1,0.8-0.2,1.2c-0.2,0.5-0.6,0.9-0.9,1.3
			c-0.8,0.7-1.7,1.1-2.8,1.1c-1.1,0-2-0.4-2.8-1.1c-0.8-0.7-1.1-1.5-1.1-2.5c0-0.2,0-0.4,0-0.6c0.1-0.6,0.4-1.2,0.8-1.7
			c0,0,0.1,0,0.1,0c0.1-0.1,0.1-0.2,0.2-0.2C237.1,130.2,238,129.8,239.1,129.8z M241,132.4c0,0.2,0,0.3-0.1,0.5
			c-0.1,0.1-0.2,0.3-0.3,0.4c-0.3,0.2-0.6,0.4-0.9,0.4c-0.4,0-0.7-0.2-1-0.4c-0.3-0.3-0.4-0.6-0.4-0.9c0-0.1,0-0.1,0-0.2
			c0-0.2,0.1-0.4,0.2-0.6h0.1c0,0,0.1-0.1,0.1-0.1c0.3-0.3,0.6-0.4,1-0.4c0.3,0,0.6,0.1,0.9,0.2c0,0,0,0.1,0.1,0.1
			c0.2,0.2,0.4,0.4,0.4,0.8C240.9,132.3,241,132.3,241,132.4z M227.1,124.8l-28-9.8l-5.9,7.8c10,3.3,19.9,7.1,29.8,11.3L227.1,124.8
			z M180.8,118.9c3,0.9,6,1.8,9.1,2.8l7.2-12.6c-1.8-0.5-3.5-1-5.2-1.5 M169.1,136.6l7.5,1.2l7,4.9v0.1l2.1-1.6
			c13,4,25.1,8.8,36.4,14.5l6.5,6.2l-0.4,0.9l0.1,0.1l-0.4,0.9h-0.1l-9.8-1.6l-35.6-13.8l0.1-4.1l-8.9-0.2l-6.4-4.1 M164.2,145.4
			c14.4,4.9,27,9.7,37.8,14.5l0.6,3.8l11.4,1.5l9.2,8.8l-14.1-1.7l-7.6-5.8l-2.9,2.2c-0.5-0.3-1-0.6-1.6-0.8
			c-9.7-5.1-22-10.2-37-15.3 M187,180.2c-0.8,1.3-2,2.2-3.7,2.8c-0.5,0.2-1.1,0.3-1.8,0.4c-3,0.5-6.2,0.1-9.5-1.2
			c-3.4-1.4-6-3.3-7.8-5.8c-0.5-0.7-0.9-1.3-1.2-2c-0.8-1.7-0.8-3.3-0.2-4.9c0.2-0.5,0.4-0.9,0.7-1.2c0.7-0.9,1.6-1.6,2.8-2.1
			c0.6-0.3,1.4-0.5,2.2-0.6c3-0.5,6.2-0.1,9.6,1.2c3.4,1.3,6,3.2,7.8,5.7c0.5,0.7,0.9,1.4,1.2,2.1c0.7,1.7,0.8,3.2,0.2,4.8
			C187.2,179.7,187.1,180,187,180.2l-23.4-11.8 M163.4,181.6l-0.9,1.9l13.6,6.4l0.9-2.5c-1.7-1.8-3.9-3.2-6.6-4.2
			C168,182.1,165.6,181.6,163.4,181.6c-0.9,0-1.7,0.1-2.5,0.2c-3,0.6-4.9,1.9-5.8,4c-0.9,2.1-0.4,4.4,1.4,6.9
			c0.2,0.3,0.4,0.6,0.7,0.9l1.2-2.2l1-2l1.2-2.6l1.8-3.3 M176,189.9l-0.7,2l-1.2,2.8l-1.6,3.6l-0.9,1.9c1-0.2,1.7-0.3,2.1-0.4
			c3-0.5,4.9-1.9,5.8-4s0.4-4.4-1.4-6.9c-0.4-0.5-0.8-1-1.2-1.4 M177.1,207.9l17.8-37.1c-8.4-4.5-18.4-8.6-30.1-12.2
			c-7,11.8-12.6,23.7-16.9,35.8L177.1,207.9z M166.4,166.2l20.8,8.4 M163.1,174.5l20.2,8.5 M171.2,133.2c26,8.6,46.1,16.4,60.3,23.2
			l2-4.1c-17.7-8-37.6-15.6-59.9-22.9 M240.4,184.9c0.1-0.8,0.3-1.6,0.6-2.2c0.8-1.5,1.9-2.5,3.5-3c1.6-0.5,3.1-0.2,4.6,0.7
			c0.2,0.2,0.5,0.3,0.7,0.5c1,0.8,1.7,1.9,2.1,3.1c0,0.1,0.1,0.2,0.1,0.3c0.2,0.9,0.3,1.8,0.2,2.6c-0.1,0.8-0.3,1.5-0.7,2.3
			c-0.7,1.5-1.8,2.5-3.3,2.9c0,0-0.1,0-0.1,0c-1.6,0.5-3.1,0.2-4.6-0.7c-0.4-0.3-0.8-0.5-1.1-0.8c-0.9-0.8-1.5-1.9-1.8-3.1
			C240.4,186.6,240.3,185.7,240.4,184.9l5.7,0.9l3.7-5 M238.8,208.4l-10.2-22c-0.2-0.7-0.4-1.4-0.6-2.1l-18.2,39l19.8,9.6l10.9-24.1
			L238.8,208.4z M228.1,184.3c-1.4-5.5-1.4-10.3,0.1-14.4c4.5-9.9,12.1-12.7,22.6-8.4c2.7,1.8,5.5,5.7,8.6,11.6l2.2,5.2
			 M220.6,180.7l-18.4,38.5l-17.3-7.8l17.9-38.5L220.6,180.7z M260.4,109.7l-2.5,8.1c5.1,3.2,9.8,6.8,14.1,10.6 M245.1,100.2
			l-4.4,8.4c5.4,2.4,10.5,5.1,15.3,8l2.4-8.8 M256.5,150.4l5.4-14.6c-4.5-2.6-8.6-4.6-12.3-6.1l-9.1,12.5
			C245.1,144.4,250.4,147.2,256.5,150.4z M273.9,143.1c-3.3-2.1-6.6-4.2-10.1-6.2l-4.8,15.1c3.4,1.7,7.4,3.9,11.8,6.4 M273.9,234.7
			l-18.9-46.3c-1.2,4.5-3.9,6.7-7.9,6.4c-1.1-0.1-2.3-0.4-3.6-0.8l19.9,45.2L273.9,234.7l3.5-1.6 M252.2,186.9l-6.2-1.1l-3.6,4.8
			 M237,101.5l2.3-3.1 M269.5,161.9c-25.8-15.4-56.1-28.6-91.1-39.7 M233.6,152.3c14.2,6.5,24.9,11.9,32.2,16.4 M175.9,125.7
			c36.9,11.4,67.5,24.4,91.8,39.1 M149.6,173.9l3.1,1.2l7.2-15.5l-2.8-1.2 M135.9,208.9l3.8,1.8l5.4-14.4l-4.1-1.9 M158.5,206.8
			c0.3,0.1,0.7,0.2,1,0.3c2.1,0.8,3.7,2,4.9,3.6c0.3,0.4,0.5,0.7,0.6,1.1c0.6,1.1,0.7,2.2,0.2,3.2c-0.5,1.3-1.7,2.1-3.6,2.5h0
			c-1.9,0.3-3.9,0.1-6-0.8c-0.1-0.1-0.2-0.1-0.3-0.2c-1.9-0.8-3.4-2-4.5-3.4c-0.2-0.3-0.4-0.5-0.5-0.8c-0.7-1.3-0.8-2.4-0.4-3.6
			c0.4-1,1.1-1.7,2.2-2.1c0.4-0.2,0.9-0.3,1.4-0.4C155.1,206.1,156.8,206.2,158.5,206.8l-1.7,5.2l0.1,0.1l8.1-0.3 M161.6,217.6
			l-4.8-5.4h-0.1l-1.4,4.5 M156.8,212.1L156.8,212.1l-4.6-5.3 M150.2,200.9l20.4,9.7l-6.2,12.2l-19.3-9.2L150.2,200.9z M156.8,212.1
			l-6.4,0.3 M150.9,236.3L150.9,236.3l10,3.4c-3.1-1.7-6.3-3.5-9.4-5.4 M150.9,236.3l-0.1-0.1 M182.8,290.2h-5.6h-46.9
			c16.4-21,31.9-21.1,46.6-0.4c-14.9-25.5-30.5-25.3-46.8,0.4h-6.6 M239,227.6l2-4.5l5.7-12.5l-0.1-0.1l-6-1.6 M241,223.1l4.3,10
			l1.5-0.8l6.6,14.1l1.7-0.7c2.1,2.3,3,4.9,2.8,7.8l-0.9,0.5c0.2,1.8,0.1,3.4-0.4,4.9l4.5-0.1c-0.2-0.7-0.3-1.4-0.3-2.2l1.5-0.6
			l-5-14.1l2-0.9l-12.8-30.2 M262.5,255.8l7.2-2.9l-0.5-6.4l4.7-2.3l3.9,5.4l7.7-3.1 M263.2,239.2l-3.8,1.6 M277.8,249.5
			c3,2,4.1,4.3,3.4,6.9l7.9-2.5 M261.3,258.6c0.4,1.6,1,3,1.9,4.1c0,0,0,0,0,0c0.2,0.3,0.5,0.5,1,0.6l0.6-0.4l8-3.4
			c-2.7-1.1-3.7-3.3-3.2-6.8 M264.9,263c1.7,2.4,4.4,3.7,8.2,4c3.7,0.3,6.8-0.2,9.3-1.6c2.5-1.4,4.3-3,5.5-4.8
			c0.4-0.6,0.7-1.3,0.9-2 M272.9,259.6l8.3-3.2 M253.5,246.4l-7.7,3.1c3,2,4.1,4.3,3.4,6.9l7.9-2.5 M249.2,256.4l-8.3,3.2l-8,3.4
			c1.7,2.4,4.4,3.7,8.2,4c3.7,0.3,6.8-0.2,9.3-1.6c2.5-1.4,4.3-3,5.5-4.8c0.4-0.6,0.7-1.3,0.9-2 M263.2,262.7l-5.9,11.4
			c0,0,0.1,0,0.1,0l-1.2,2.3l-7.1,13.8l0.1,0.1h6.6c2.3-3.7,4.6-6.8,6.9-9.4c0.3-0.3,0.6-0.7,0.9-1c2-2.2,4-4,6-5.4
			c11.4-8,22.4-2.8,33,15.4c0.1,0.1,0.1,0.2,0.2,0.4h5.5 M249.2,290.3l2.1,4.7 M249.2,290.2L249.2,290.2L249.2,290.2 M302.6,289.9
			c-10.2-14.5-20.9-18.8-32-12.9c-2,1.1-4,2.4-6,4.1c-0.3,0.2-0.6,0.5-0.9,0.7c-2.6,2.3-5.2,5.1-7.8,8.5h46.9 M228.4,250.8l5.3-11.9
			l-13.3-5.7l-5.8,12.9l13,6.3 M206.5,226.6l11.1,5.3l-6,12.8l-11-5L206.5,226.6z M239,227.6l-0.1,0.2L239,227.6L239,227.6z
			 M238.9,227.9l-4.6,10l7.6-3.2l-2.9-7.1 M234.3,237.9l-0.5,1.1l-0.2-0.1 M230.5,255.8l7.2-2.9l-0.5-6.4l4.7-2.3l3.9,5.4
			 M157.2,193.6c1.7,2.1,4.1,3.7,7.1,4.9c2.9,1.2,5.3,1.7,7.4,1.6 M177,212.6l26,12.3l-6,13l-26.4-12.5L177,212.6z M177.2,290.2
			c-0.1-0.2-0.2-0.3-0.2-0.4 M240.9,259.6c-2.7-1.1-3.7-3.3-3.2-6.8 M231.2,262.8c0.2,0.3,0.6,0.5,1.1,0.6l0.6-0.4 M217.1,290.3h6.7
			c11.5-18.2,22.7-23.6,33.6-16.2 M256.2,276.4c-10.4-5-21.1-0.4-32.2,13.9h25.1 M245.4,233.1l-3.5,1.6 M176,247.3
			c-5-2.3-10-4.9-15.1-7.6 M219.4,253.4c-29.6-11.5-56.2-24.1-79.7-37.8 M159.4,189.4l14.7,5.2 M160.6,186.8l14.7,5.1 M158.4,191.4
			l14.1,6.8 M162.3,258.3l-12.4-0.5 M162.5,257.5c-4.4,0.1-8.2-1.4-11.4-4.4 M173.1,251.4l-24.1-7.6"/>
	</g>
</g>
</svg>
