
<svg xmlns="http://www.w3.org/2000/svg" version="1.1" xmlns:xlink="http://www.w3.org/1999/xlink" preserveAspectRatio="none" x="0px" y="0px" width="550px" height="400px" viewBox="0 0 550 400">
<defs>

<path id="Layer0_0_1_STROKES" stroke="#000000" stroke-width="1" stroke-linejoin="round" stroke-linecap="round" fill="none" d="
M 199.5 108
L 231.7 120.7 239.05 102.15 237 101.5 220.875 96.3 216.65 94.95 213.625 97.25 211.85 98.6 199.5 108 198.3 113 233 125.6 239.9 107.25 239.05 102.15
M 213.625 97.25
Q 211.8205078125 97.6326171875 210.05 98.15 210.9548828125 98.3708984375 211.85 98.6
M 220.875 96.3
Q 226.8521484375 95.985546875 233.15 97.1 236.35 97.65 239.3 98.45 242.3 99.2 245.05 100.2 252.8 103.05 258.35 107.75 258.8 108.15 259.25 108.55 259.8 109.1 260.35 109.65 268.8 118.35 272 128.3 274.25 135.35 273.85 143.05 273.65 147.3 272.6 151.7 272.05 154.7 270.8 158.4 270.2 160.1 269.45 161.9 268.65 163.75 267.75 164.75 266.85 167.65 265.8 168.7
L 261.425 178.3 268.6 195.65 264.7 203.9 277.35 233.15 278.9 232.3 285.5 246.35 287.2 245.65
Q 290.35 249.1 290 253.4
L 289.15 253.85
Q 289.45 256.55 288.8 258.7
L 294.75 258.65 308.4 290.3 303.05 294.95 251.35 294.95 222.55 294.95 217.1 290.4 217.15 290.3 231.25 262.75
Q 229.3 260.5 229 256.4
L 230.5 255.8 228.55 250.35 228.35 250.775 227.6 252.4 226 255.85 219.45 253.45 208.45 259.85
Q 192.403515625 255.019140625 176 247.3 175.545703125 249.735546875 173.1 251.4
L 169.8 256.2
Q 166.35 257.35 163.3 257.55 162.9 257.55 162.5 257.55
L 162.3 258.3 163.4 258.3 182.8 290.2 177.45 294.85 128.95 294.85 123.5 290.3 123.55 290.2 146.95 257.55 149.85 257.8 151.1 253.15
Q 149.75 251.9 148.6 250.3
L 149.05 243.75
Q 145.75 239.1 150.75 236.25
L 150.875 236.2 150.95 236.225 150.975 236.225 151.55 234.325
Q 146.2125 231.187890625 140.85 227.75
L 139.75 215.6 134.8 212.2
Q 135.3 210.55 135.85 208.95 138.25 201.65 141 194.4 144.9 184.1 149.55 173.9 153.1 166.15 157.05 158.45 159.05 154.6 160.15 152.5 163.15 147.05 164.25 145.4 165.05 143.85 165.8 142.6 165.95 142.2 166.2 141.85 166.45 141.35 166.7 140.9
L 166.65 140.9 167 140.1 169.15 136.65 169.3 136.4 169.8 135.6 169.8 135.65
Q 170.2 135 170.55 134.35 170.9 133.8 171.25 133.25 172.4 131.35 173.6 129.45 174.75 127.5 175.95 125.65 177.1 123.85 178.35 122.15 179.5 120.5 180.8 118.95 185.75 112.75 191.8 107.7 192 107.5 192.25 107.3 200.75 100.8 210.05 98.15
M 229.5 106.25
Q 229.2 108.25 227.05 109.45 224.9 110.65 222.15 110.3 219.35 109.9 217.6 108.2 215.85 106.45 216.15 104.4 216.4 102.35 218.6 101.15 219.0529296875 100.8984375 219.55 100.725 220.5037109375 100.349609375 221.6 100.25 222.5 100.2 223.5 100.35 226.25 100.7 228 102.45 228.686328125 103.116015625 229.075 103.85 229.6193359375 104.907421875 229.5 106.1 229.5 106.15 229.5 106.25 Z
M 230.1 102
Q 231.505078125 103.376953125 232 104.925 232.3751953125 106.1361328125 232.2 107.45 231.8 110.4 228.7 112.15 225.55 113.85 221.6 113.3 217.55 112.75 215.05 110.25 212.5 107.75 212.9 104.8 213.3 101.85 216.45 100.1 216.618359375 100.0076171875 216.8 99.925 219.7671875 98.4298828125 223.55 98.95 227.55 99.45 230.1 102 Z
M 226.4 102.7
Q 226.555859375 102.8466796875 226.675 103 227.2224609375 103.683203125 227.1 104.5 226.95 105.5 225.9 106.1 224.85 106.65 223.55 106.45 222.2 106.25 221.4 105.45 220.55 104.6 220.7 103.65 220.8 102.65 221.85 102.1 222.2884765625 101.8369140625 222.8 101.725 223.441796875 101.5658203125 224.2 101.65 225.55 101.85 226.4 102.7 Z
M 222.7 127.55
Q 222.35 129.2 220.5 130.1 218.6 131 216.3 130.55 213.9 130.05 212.5 128.55 211.1 127.05 211.45 125.4 211.75 123.7 213.6 122.8 215.5 121.95 217.85 122.4 220.2 122.85 221.6 124.35 223.05 125.9 222.7 127.55 Z
M 239 128.65
Q 238.6 128.55 238.2 128.6 235.95 128.55 234.4 130.1 232.8 131.65 232.8 133.85 232.8 136.05 234.4 137.6 235.6 138.75 237.2 139.05
L 237.25 139.05
Q 237.7 139.1 238.2 139.15 240.4 139.1 242 137.6 243.55 136.05 243.55 133.85 243.55 131.65 242 130.1 241.05 129.2 239.95 128.85 239.45 128.7 239 128.65 237.3 127.55 235.05 127.55 232.25 127.55 230.25 129.25 228.3 131 228.3 133.45 228.3 135.9 230.25 137.6 232.25 139.35 235.05 139.35 236.25 139.35 237.25 139.05
M 241 131.1
Q 241.6 131.65 241.7 132.45 241.7 132.55 241.75 132.75 241.7 133.15 241.6 133.5 241.4 133.95 241 134.35 240.25 135 239.2 135.05 238.15 135 237.4 134.35 236.7 133.7 236.7 132.75 236.7 132.55 236.7 132.35 236.8 131.8 237.2 131.3
L 237.25 131.25
Q 237.3 131.15 237.4 131.1 238.15 130.4 239.2 130.45 240.15 130.45 240.85 130.95 240.9 131 241 131.1 Z
M 239.1 129.8
Q 240.5 129.8 241.6 130.65 241.7 130.7 241.85 130.85 242.8 131.7 242.95 132.9 243 133.15 243 133.4 243 134.05 242.8 134.6 242.45 135.3 241.85 135.9 240.7 136.95 239.1 136.95 237.45 136.95 236.3 135.9 235.15 134.85 235.2 133.4 235.15 133.1 235.2 132.8 235.35 131.9 235.95 131.15 236 131.1 236.05 131.1 236.15 130.95 236.3 130.85 237.45 129.8 239.1 129.8 Z
M 241 132.4
Q 241 132.65 240.9 132.85 240.8 133.05 240.55 133.3 240.15 133.65 239.6 133.7 239 133.65 238.6 133.3 238.2 132.9 238.2 132.4 238.2 132.3 238.2 132.2 238.25 131.85 238.45 131.6
L 238.5 131.6
Q 238.55 131.55 238.6 131.5 239 131.1 239.6 131.15 240.1 131.1 240.5 131.4 240.5 131.45 240.55 131.5 240.9 131.8 240.95 132.25 240.95 132.3 241 132.4 Z
M 227.15 124.85
L 199.15 115.1 193.25 122.9
Q 208.2 127.9 223 134.25
L 227.15 124.85 Z
M 180.8 118.95
Q 185.3 120.3 189.85 121.75
L 197.05 109.2
Q 194.4 108.45 191.8 107.7
M 169.15 136.65
L 176.65 137.9 183.6 142.8 183.6 142.85 185.7 141.3
Q 205.15 147.3 222.15 155.8
L 228.65 162.05 228.2 163 228.25 163.05 227.8 163.95 227.7 163.95 217.9 162.35 182.3 148.6 182.35 144.5 173.45 144.25 167 140.1
M 164.25 145.4
Q 185.85 152.75 202.05 159.85
L 202.65 163.7 214.05 165.2 223.3 173.95 209.25 172.25 201.6 166.45 198.75 168.6
Q 197.9779296875 168.185546875 197.175 167.775 182.621875 160.1802734375 160.15 152.5
M 187 180.2
Q 185.85 182.15 183.3 183 182.5 183.25 181.55 183.45 177.05 184.25 172.05 182.25 167 180.2 164.3 176.5 163.55 175.5 163.1 174.5 161.95 171.95 162.9 169.65 163.15 168.95 163.6 168.4 164.6 167 166.45 166.25 167.4 165.85 168.65 165.6 173.15 164.8 178.2 166.85 183.25 168.85 185.95 172.55 186.7 173.65 187.2 174.7 188.25 177.2 187.35 179.45 187.2 179.85 187 180.2
L 163.6 168.4
M 163.4 181.65
L 162.45 183.5 176 189.9 176.95 187.35
Q 174.4 184.7 170.4 183.1 166.75 181.65 163.4 181.65 162.1 181.65 160.85 181.85 156.35 182.7 155.1 185.9 153.8 189.1 156.5 192.75 156.8 193.2 157.2 193.65
L 158.35 191.4 159.4 189.4 160.65 186.8 162.45 183.5
M 176 189.9
L 175.3 191.85 174.05 194.65 172.5 198.2 171.6 200.1
Q 173.1 199.8 173.75 199.7 178.25 198.9 179.55 195.7 180.85 192.5 178.15 188.8 177.6 188 176.95 187.35
M 177.1 207.85
L 194.9 170.8
Q 182.3 164.05 164.75 158.6 154.3 176.3 147.9 194.35
L 177.1 207.85 Z
M 166.45 166.25
L 187.2 174.7
M 163.1 174.5
L 183.3 183
M 171.25 133.25
Q 210.25 146.2 231.55 156.45
L 233.55 152.3
Q 207.05 140.25 173.6 129.45
M 240.4 184.85
Q 240.5 183.65 241 182.6 242.15 180.3 244.5 179.65 246.9 178.95 249.05 180.3 249.4 180.55 249.75 180.8 251.238671875 182.0095703125 251.9 183.95 251.9546875 184.100390625 252 184.25 252.35 185.6 252.25 186.85 252.1 188 251.55 189.15 250.479296875 191.388671875 248.225 192.075 248.1626953125 192.0826171875 248.1 192.1 245.75 192.8 243.55 191.45 242.95 191.05 242.5 190.6 241.2 189.35 240.7 187.5 240.3 186.1 240.4 184.85
L 246.05 185.8 249.75 180.8
M 238.8 208.4
L 228.65 186.35
Q 228.3140625 185.2927734375 228.05 184.275
L 209.85 223.3 229.7 232.95 240.625 208.875 238.8 208.4 Z
M 228.05 184.275
Q 225.875390625 175.9955078125 228.1 169.9 234.9 155.05 250.7 161.45 254.7 164.15 259.25 173.05
L 261.425 178.3
M 220.65 180.7
L 202.25 219.2 184.95 211.35 202.85 172.9 220.65 180.7 Z
M 260.35 109.65
L 257.85 117.75
Q 265.45 122.6 272 128.3
M 245.05 100.2
L 240.7 108.55
Q 248.8 112.2 256 116.6
L 258.35 107.75
M 256.5 150.45
L 261.85 135.8
Q 255.05 131.95 249.55 129.7
L 240.45 142.2
Q 247.35 145.55 256.5 150.45 Z
M 273.85 143.05
Q 268.95 139.9 263.8 136.9
L 259 151.95
Q 264.15 154.55 270.8 158.4
M 273.9 234.7
L 254.95 188.4
Q 253.101953125 195.2021484375 247.025 194.75 245.3654296875 194.6123046875 243.4 193.95
L 263.25 239.2 273.9 234.7 277.35 233.15
M 252.25 186.85
L 246.05 185.8 242.5 190.6
M 237 101.5
L 239.3 98.45
M 269.45 161.9
Q 230.8 138.8 178.35 122.15
M 233.55 152.3
Q 254.8 162 265.8 168.7
M 175.95 125.65
Q 231.25 142.7 267.75 164.75
M 149.55 173.9
L 152.65 175.1 159.8 159.6 157.05 158.45
M 135.85 208.95
L 139.7 210.75 145.15 196.3 141 194.4
M 158.5 206.8
Q 159 206.95 159.5 207.15 162.65 208.4 164.35 210.7 164.75 211.25 165 211.8 165.85 213.5 165.25 215.05 164.45 217 161.65 217.55
L 161.6 217.55
Q 158.8 218.05 155.65 216.8 155.45 216.7 155.3 216.65 152.4 215.4 150.8 213.2 150.5 212.8 150.3 212.45 149.25 210.55 149.95 208.9 150.5 207.45 152.1 206.8 152.75 206.5 153.55 206.4 155.9 205.95 158.5 206.8
L 156.8 212.05 156.9 212.15 165 211.8
M 161.65 217.55
L 156.9 212.15 156.75 212.15 155.3 216.65
M 156.75 212.15
L 156.8 212.05 152.1 206.8
M 150.2 200.95
L 170.6 210.65 164.35 222.85 145.05 213.6 150.2 200.95 Z
M 156.75 212.15
L 150.3 212.45
M 150.95 236.3
L 150.975 236.225 160.95 239.675
Q 156.2705078125 237.113671875 151.55 234.325
M 150.95 236.3
L 150.875 236.2
M 182.8 290.2
L 177.25 290.2 130.4 290.2
Q 154.95 258.7 177 289.8 154.7 251.6 130.2 290.2
L 123.55 290.2
M 239 227.65
L 241.025 223.15 246.7 210.65 246.65 210.5 240.625 208.875
M 241.025 223.15
L 245.35 233.15 246.9 232.3 253.5 246.35 255.2 245.65
Q 258.35 249.1 258 253.4
L 257.15 253.85
Q 257.45 256.55 256.8 258.7
L 261.325 258.65
Q 261.088671875 257.6119140625 261 256.4
L 262.5 255.8 257.45 241.7 259.45 240.8 246.7 210.65
M 262.5 255.8
L 269.7 252.85 269.2 246.45 273.9 244.15 277.8 249.5 285.5 246.35
M 263.25 239.2
L 259.45 240.8
M 277.8 249.5
Q 282.3 252.5 281.2 256.35
L 289.15 253.85
M 261.325 258.65
Q 261.866015625 261.11796875 263.2 262.7 263.22421875 262.7203125 263.25 262.75 263.55 263.15 264.3 263.4
L 264.85 263 272.9 259.6
Q 268.9 258 269.7 252.85
M 264.85 263
Q 267.4 266.55 273.05 267.05 278.65 267.5 282.35 265.45 286.05 263.35 287.85 260.7 288.45 259.75 288.8 258.7
M 272.9 259.6
L 281.2 256.35
M 253.5 246.35
L 245.8 249.5
Q 250.3 252.5 249.2 256.35
L 257.15 253.85
M 249.2 256.35
L 240.9 259.6 232.85 263
Q 235.4 266.55 241.05 267.05 246.65 267.5 250.35 265.45 254.05 263.35 255.85 260.7 256.45 259.75 256.8 258.7
M 263.2 262.7
L 257.35 274.1
Q 257.3876953125 274.1244140625 257.425 274.15
L 256.25 276.425 249.2 290.2 249.25 290.3 255.8 290.3
Q 259.285546875 284.80859375 262.725 280.875 263.18046875 280.3578125 263.625 279.875 266.6236328125 276.6060546875 269.6 274.525 286.6626953125 262.5994140625 302.6 289.9 302.7 290.05 302.85 290.3
L 308.4 290.3
M 249.25 290.3
L 251.35 294.95
M 249.2 290.2
L 249.15 290.3 249.25 290.3
M 302.6 289.9
Q 287.23046875 268.2224609375 270.65 276.95 267.6544921875 278.5361328125 264.625 281.1 264.2005859375 281.446484375 263.775 281.825 259.9205078125 285.26953125 256 290.3
L 302.85 290.3
M 228.35 250.775
L 233.675 238.875 220.4 233.2 214.6 246.05 227.6 252.4
M 206.5 226.55
L 217.6 231.85 211.65 244.6 200.6 239.6 206.5 226.55 Z
M 239 227.625
L 238.9 227.875 239 227.65 239 227.625 Z
M 238.9 227.875
L 234.325 237.9 241.9 234.7 239 227.65
M 234.325 237.9
L 233.85 238.95 233.675 238.875
M 230.5 255.8
L 237.7 252.85 237.2 246.45 241.9 244.15 245.8 249.5
M 157.2 193.65
Q 159.8 196.75 164.25 198.5 168.55 200.25 171.6 200.1
M 177 212.55
L 203 224.9 197 237.9 170.55 225.4 177 212.55 Z
M 177.25 290.2
Q 177.1 289.95 177 289.8
M 240.9 259.6
Q 236.9 258 237.7 252.85
M 231.25 262.75
Q 231.55 263.15 232.3 263.4
L 232.85 263
M 217.15 290.3
L 223.8 290.3
Q 241.1189453125 263.0138671875 257.35 274.1
M 256.25 276.425
Q 240.7099609375 268.8595703125 224 290.3
L 249.15 290.3
M 245.35 233.15
L 241.9 234.7
M 176 247.3
Q 168.51875 243.78671875 160.95 239.675
M 219.45 253.45
Q 175 236.25 139.75 215.6
M 159.4 189.4
L 174.05 194.65
M 160.65 186.8
L 175.3 191.85
M 158.35 191.4
L 172.5 198.2
M 162.3 258.3
L 149.85 257.8
M 162.5 257.55
Q 155.85 257.65 151.1 253.15
M 173.1 251.4
L 149.05 243.75"/>
</defs>

<g transform="matrix( 1, 0, 0, 1, 0,0) ">
<use xlink:href="#Layer0_0_FILL"/>

<use xlink:href="#Layer0_0_1_STROKES"/>
</g>
</svg>
