<?xml version="1.0" encoding="utf-8"?>
<!-- Generator: Adobe Illustrator 18.0.0, SVG Export Plug-In . SVG Version: 6.00 Build 0)  -->
<!DOCTYPE svg PUBLIC "-//W3C//DTD SVG 1.1//EN" "http://www.w3.org/Graphics/SVG/1.1/DTD/svg11.dtd">
<svg version="1.1" id="Layer_1" xmlns="http://www.w3.org/2000/svg" xmlns:xlink="http://www.w3.org/1999/xlink" x="0px" y="0px"
	 viewBox="81.2 48 358.5 699.1" enable-background="new 81.2 48 358.5 699.1" xml:space="preserve">
<g transform="matrix( 1, 0, 0, 1, 0,0) ">
	<g>
		<path id="Layer0_0_1_STROKES" fill="none" stroke="#000000" stroke-linecap="round" stroke-linejoin="round" d="M99.8,329
			l65.3,25.2c-0.7-4.1-1-8.2-1-12.5c0.1-10.2,2.1-19.6,6.1-28.4c0.8-2.9,2.1-5.4,3.9-7.6c-0.4,0.3,0.7-1.3,3.5-4.9l5.5-6.2l5.7-6
			h-0.1c0.1-0.1,0.2-0.2,0.4-0.3c0.8-0.7,1.6-1.4,2.4-2.1c6.4-5.5,13.3-9.9,20.7-13.4c-0.9-7.1-1.9-14.1-3.1-21
			c-3.2-18.4-7.1-36.5-11.9-54.3c-4.8-17.9-11.5-35.9-20.2-54c-8.6-18.1-14-37-16.2-56.4c-2.2-19.5,4.3-31.6,19.4-36.3l1.2,0
			l-1.1-0.5c17.3-4.9,31.3,1.9,41.9,20.4s17,38.7,19.1,60.6c2.1,22,3.4,40.4,3.9,55.2c0.5,14.8-0.2,30.5-2.1,47
			c-1.2,10.4-2.5,20.8-4.1,31.3c5.7-0.9,11.6-1.4,17.8-1.4c11.3,0,21.8,1.5,31.6,4.6c0.1-0.3,0.2-0.6,0.4-0.9
			c3.5-7.5,6.5-14.7,9.1-21.5s6.9-20.4,13-40.8c6.1-20.4,12.7-41.4,19.9-63c7.2-21.6,15.7-40.7,25.7-57.4
			c9.9-16.7,21.5-25.6,34.7-26.8c13.2-1.2,21.6,1.3,25.4,7.4c3.7,6.2,5.5,13.5,5.5,22.1c0,5.9-1.1,13.4-3.4,22.5
			c-2.3,9.3-5.5,19.1-9.5,29.5c-9.4,24-20.5,44.3-33.4,60.9c-17.8,22.8-34.7,44-50.8,63.7c-4.4,5.4-8.5,10.6-12.3,15.8
			c3.1,2.1,6.2,4.4,9.1,6.9c17.9,15.3,26.8,33.9,26.6,55.6c-0.1,15.3-4.7,29.1-13.7,41.2l64.2,3.2 M315.6,262.1
			c4.5-6.4,11.3-16.6,20.4-30.6c9.1-14,18-29.2,26.8-45.6c8.8-16.4,13.8-27.9,15-34.6c1.2-6.6,1.2-11.4,0.1-14.4
			c-1.1-2.9-2.9-4.4-5.5-4.4c-5.7,0-10.8,1.8-15.5,5.4c-4.3,3.3-8.4,8.3-12.2,15c-3.3,5.7-6.4,12.3-9.4,19.8
			c-2.9,7.5-6.5,16.6-10.7,27.4c-4.2,10.8-8.3,21.3-12.2,31.6c-3.9,10.3-9,21.6-15.2,34c-0.7,1.4-1.4,2.8-2.1,4.2
			c4.1,1.6,8.1,3.5,12,5.7C310.9,269.2,313.7,264.7,315.6,262.1z M232.4,235.1c0-26.3-1.8-49.8-5.3-70.5
			c-4.7-27-11.4-40.5-20.3-40.4c-4,0-6.6,1.8-8,5.4c-1,2.6-1.5,7-1.5,13.4c0,4.2,2.1,19.3,6.4,45.4c2.2,13.3,4.6,27.5,7.2,42.7
			c2.4,13.7,4.4,26.9,6.1,39.6c4.8-2,9.8-3.6,15-4.8C232.3,257.2,232.4,246.9,232.4,235.1z M295.2,293.1c3.6,1.8,7,4,10.2,6.6
			c3.2,2.6,6.1,6,8.6,10.1c-0.4,0.8-1.2,1.4-2.2,1.8c-1.3-1.6-3-3.3-5.2-5.2c-2.2-1.9-5-3.8-8.6-5.8c-3.6-2-8.3-4.4-14.1-7.1
			c0.3-1.8,1.3-3.3,3-4.5C288.8,290,291.6,291.4,295.2,293.1z M189.1,288.2l-0.3,0.3c0.5-0.2,0.9-0.3,1.4-0.5
			c3.9-1.3,7.7-1.9,11.3-1.5s5.8,0.7,6.4,1.1c0,1.1-0.1,2.1-0.2,3.2c-8.5-0.3-14.9,0.3-19.2,1.7c-2.1,0.7-3.9,1.4-5.5,2
			 M174.1,305.6c0.3-0.3,0.6-0.7,0.9-1c0.2-0.3,0.5-0.5,0.8-0.8c0.9-0.9,1.9-1.8,3.1-2.5c4.9-3.3,10.1-4.4,15.8-3.2
			c5.7,1.2,10.2,4.3,13.4,9.2c3.2,5,4.3,10.4,3.1,16.2c-1.1,5.9-4.1,10.5-9,13.8c-4.9,3.3-10.1,4.4-15.8,3.2
			c-5.7-1.2-10.2-4.2-13.4-9.2c-3.2-5-4.3-10.4-3.1-16.2c0.1-0.6,0.2-1.2,0.4-1.8 M174.6,310.2c2.4-2.4,5.4-3.6,8.8-3.6
			c1,0,1.9,0.1,2.8,0.3c2.3,0.5,4.3,1.6,6,3.3c2.4,2.4,3.7,5.4,3.7,8.8c0,3.4-1.2,6.4-3.7,8.8c-2.4,2.4-5.4,3.7-8.8,3.7
			c-3.4,0-6.4-1.2-8.8-3.7c-1.2-1.2-2.1-2.4-2.7-3.8c-0.7-1.5-1-3.2-1-5C170.9,315.6,172.2,312.6,174.6,310.2z M174.1,305.6
			c0.2-0.2,0.7-0.8,1.6-1.8 M199.1,367.3c-0.2,3.4,0.1,6.1,0.8,8.1c0.8,2,2.2,3.5,4.2,4.4c1.9,0.9,4.1,1.3,6.4,1
			c2.3-0.2,4-1.5,5.1-3.9c-0.1-0.9-0.1-1.8-0.1-2.9c0.2-5.1,0.5-9.1,0.9-12c-2-0.3-3.8-1.1-5.3-2.4c-2.3-3.8-3.8-8.2-4.3-13.1
			c8.4-0.5,16.7,0.5,25.1,2.9c-1.7,4.7-4.9,8.8-9.6,12.2c-2.1,0.5-4.1,0.6-5.8,0.4 M81.8,347.4l85.6,16.1c-1-3-1.7-6.1-2.2-9.2
			l10.8,4.1 M178.8,365.6l-11.4-2.1c0.7,2.1,1.5,4.2,2.3,6.2l8.1,0 M243.1,352.1c5.9,5.5,9.1,12.3,9.6,20.3c0.5,8-2.4,14.7-8.4,20.2
			c-6.1,5.4-13.6,8.1-22.4,8c-8.9-0.1-16.4-3-22.4-8.5c-6.1-5.5-9.4-12.4-10.1-20.7c-0.7-8.3,2.1-15.4,8.4-21.2
			c6.3-5.9,14-8.4,23-7.6C229.6,343.4,237.1,346.6,243.1,352.1z M215.5,376.9c0.4,3.4,2,5.4,4.8,6.1c3.5,0.8,6.8,0.1,9.8-1.9
			c3-2,4.8-5.1,5.5-9.1 M291.4,338.5c0,4-1.4,7.4-4.2,10.2c-2.8,2.8-6.2,4.2-10.2,4.2s-7.4-1.4-10.1-4.2c-1.3-1.3-2.4-2.8-3.1-4.4
			c-0.8-1.8-1.1-3.7-1.1-5.8c0-4,1.4-7.4,4.2-10.2c2.8-2.8,6.2-4.2,10.1-4.2c1.1,0,2.2,0.1,3.2,0.4c2.6,0.6,4.9,1.9,7,3.9
			C290,331.2,291.4,334.6,291.4,338.5z M291.6,315.9c6.5,1.7,11.5,5.4,15,11.3c3.5,5.9,4.3,12.1,2.6,18.8
			c-1.7,6.6-5.5,11.7-11.3,15.1c-5.8,3.5-12,4.4-18.6,2.8c-6.6-1.7-11.6-5.4-15-11.3c-3.4-5.9-4.3-12.1-2.6-18.7
			c1.7-6.6,5.5-11.7,11.3-15.2C278.9,315.1,285,314.2,291.6,315.9z M283.2,384.6l40.3,10.5c4.3-3.9,8.1-8,11.2-12.2l-58.4-2.9
			 M375.4,437.8L310.8,405c-9.9,6.4-20.8,10.7-32.6,13.1c0.1,0.4,0.3,0.7,0.4,1.1c2.3,6.8,4.5,13,6.4,18.8c1.1,3.3,2.1,6.5,3.1,9.5
			c26.6,8.7,46.8,19.9,60.6,33.6c15.9,15.7,23.8,35,23.8,58.1c0,9.7-1.6,17.5-4.9,23.4c-3.6,6.5-8.8,9.8-15.6,9.8
			c-6.6,0-11.1-3.3-13.6-10c-1.6-4.4-2.5-10.8-2.5-19.2c-0.1-8.2-0.8-15.8-2.1-22.8c-1.6-8.2-3.8-14.4-6.7-18.6
			c-1.8-2.6-5.5-6.8-11.3-12.6c-5.7-5.7-9.9-9.4-12.6-11.3c-2.1-1.5-4.2-2.9-6.3-4.2c1.8,5,3.8,10.5,6,16.5
			c6.8,18.5,12,32.3,15.8,41.4c3.8,9.1,7.8,18.2,12,27.3c4.2,9.1,7.6,16.6,10.4,22.8c2.7,6.1,5.7,12.5,9.1,19.3
			c3.4,6.8,6.5,12.2,9.2,16.2c2.5,3.6,4.2,6.1,5.2,7.5l0.4,0.2c1.8-3.5,5.3-8.5,10.4-14.8c2.3-2.9,4.4-5.6,6.2-8.2
			c1.9-2.9,3.3-5.2,4.1-6.9c0.2-0.4,0.3-1.3,0.3-2.8c0-1.7,0-3,0.1-3.9c0.2-3.4,1-5,2.5-5c2.1,0,4,1.2,5.7,3.6
			c0.6,1.5,1.3,3.3,2.2,5.5c1.2,3.1,2.2,5.6,2.9,7.7c0,0.1,0,0.1,0,0.2c0.3,1.5,0.6,3.1,1,4.6c1.3,7,1.9,14.1,1.9,21.2
			c0,9.6-2,17-5.9,22c-3,3.9-7.3,6.5-12.9,7.8c3.4,7.8,5.1,14.7,5.1,20.8c0,5.7-2.4,11.8-7.2,18.4c-4.1,5.5-9.6,11-16.6,16.5
			c-3.4,2.7-6.8,5.1-10.3,7.3c2.4,0.3,4.9,0.7,7.4,1.2c1.7,0.4,6.6,1.7,14.8,3.9c6.5,1.8,12.2,3,17.3,3.8c4.3,0.7,8.7,1.2,13.3,1.5
			c2.3,0.2,4.9,0.3,7.7,0.3c2.8,0,5.9-0.2,9.4-0.7c3.5-0.5,5.7-0.8,6.6-0.8c2.4,0,4.4,0.8,6.1,2.5c1.6,1.5,2.4,3.2,2.4,5.1
			c0,2.6-2.2,4.8-6.6,6.8c-1.1,0.5-2.3,0.9-3.6,1.3c-2.7,0.9-5.6,1.6-8.5,2c-3.6,0.6-7.4,0.9-11.2,0.9c-5.8,0-14-1.5-24.7-4.5
			c-1.6-0.5-3.2-1-5-1.5c-3.8-1.2-8.4-2.6-13.6-4.4c-4.8-1.6-7.5-2.5-8.1-2.8c-7.6-2.2-12.8-3.6-15.6-4.2c-2-0.4-4.1-0.8-6.4-1.3
			c-0.7,0-1.9-0.1-3.6-0.5c-1.8-0.3-3-0.7-3.6-1.1c-0.1,0-0.2-0.1-0.3-0.1c-0.5-0.6-0.8-1.1-0.8-1.6c0-0.2,0-0.3,0-0.5
			c0-0.2,0-0.5,0-0.8c0-0.5,0.2-1.2,0.7-2.2c0.6-1.3,1.1-2.3,1.5-3.2c1.5-3.2,2.2-6.3,2.2-9.2c0-0.1,0-0.3,0-0.4
			c-1.5-0.5-2.3-0.8-2.4-0.9c-1.2-0.4-5.6-1.2-13.2-2.7c-7.7-1.4-15.2-1.4-22.4-0.2c-7.2,1.2-11.8,2-13.7,2.2
			c-1.2,0.2-2,0.3-2.6,0.4c0.2,0.9,0.5,1.7,1,2.3c2,2.3,5.2,5.3,9.8,9c1.2,0.9,2,1.8,2.4,2.7c0.4,0.5,0.7,1.2,0.7,2
			c0,0.9-5.1,2.1-15.2,3.6c-11.8,1.7-19.1,3.1-21.9,4.2c-4.8,1.8-12.5,3.9-23.2,6.1c-3.7,0.8-7.3,1.5-10.7,2
			c-8.4,1.4-15.6,2.1-21.7,2.1c-3,0-6.1-0.3-9.5-0.9c-3.3-0.6-6.8-1.4-10.5-2.5c-2.5-0.8-4.6-1.5-6.2-2.3c-4.5-2.1-6.5-4.2-6.1-6.5
			c0.5-3.2,2.2-5.7,5.2-7.5c3-1.8,6-2.2,8.9-1.2c6.5,1.9,13.7,2.5,21.5,1.8h1.3l17.4,1.1c3.9-0.5,7.9-0.9,11.8-1
			c3.9-0.1,9.5-0.6,16.6-1.5c6.2-0.7,10.3-1.4,12.4-2c-2.6-1.2-5.5-2.5-8.6-4c-11.6-5.8-21.2-10.9-28.6-15.4
			c-7.4-4.5-11.6-10.2-12.6-17.1s1.7-15.9,8-26.8c6-10.4,12.2-21.9,18.4-34.5c-0.9-4.3-1.7-8.7-2.4-13.2c-2.5-15.7-4-30-4.3-42.9
			c-0.3-12.9,0.9-32.3,3.7-58.1c0.3-2.5,0.5-4.9,0.8-7.2c0.3-3.5,0.6-6.9,0.9-10.2c-1.2,1.5-2.5,2.9-3.9,4.4
			c-5.6,6.2-11.4,11.3-17.4,15.5c-6.1,4.1-11.6,7-16.4,8.8c-4.9,1.7-10.7,2.4-17.5,2c-2.4-0.3-4.7-0.8-7-1.5
			c-7-2.3-11.9-6.2-14.6-11.8c-1.3-2.6-2.3-5.3-3.1-8c-14.8,13.9-24,23.1-27.8,27.4c-1.9-0.7-3.7-1.8-5.4-3.1
			c-0.1-0.1-0.2-0.1-0.2-0.2c-1.7-1.4-3-2.9-4-4.5c-0.1-0.2-0.2-0.3-0.2-0.5c-0.9,1.7-1.4,4-1.4,6.7c0,2,0.8,4.3,2.2,6.9
			c0.8,1.3,2.4,3.6,4.9,6.9c2.3,3,4,5.5,4.9,7.4c1.5,2.8,2.2,5.5,2.2,8c0,1.7-0.2,2.9-0.5,3.6c-0.3,0.6-0.7,1-1.3,1
			c-0.8,0-2.4-1-4.8-3.1c-2.3-2.1-3.9-3.2-4.8-3.2c-0.3,0-0.7,0.2-1,0.8c-0.3,0.5-0.4,1.1-0.4,1.8c0,0.6,0.2,1.2,0.5,1.8
			c0.2,0.4,0.6,1,1.2,1.8c1.1,1.9,1.7,4.6,1.7,8c0,2.1-0.2,3.4-0.5,4c-0.2,0.3-0.6,0.5-1.3,0.5c-1,0-2.5-1.1-4.7-3.3
			c-2.2-2.2-3.4-3.3-3.8-3.3c-0.7,0-1.2,0.4-1.4,1.2c-0.2,0.5-0.2,1.3-0.2,2.4c0,0.8,0.5,2.2,1.4,4.1c0.6,1.1,1.6,3.2,3.2,6.1
			c3.1,6.1,4.6,11.2,4.6,15.4c0,1-0.2,1.7-0.5,2c-0.5,0.7-1.4,1-2.9,1c-1.2,0-3.2-1-6-3c-2.8-2-4.5-3-5.2-3c-0.3,0-0.4,0-0.5,0
			l-0.3,0.2v2.9c2.2,2.6,3.6,4.7,4.4,6.1c0.8,1.4,1.2,2.8,1.2,4.2c0,1-0.7,1.4-2.2,1.4c-0.9,0-2.1-0.5-3.7-1.6
			c-0.4-0.3-0.7-0.5-1-0.8c-1.7-3.6-3.1-6.7-4-9.4c-2.5-7-3.7-15.3-3.7-25c0-8.6,1.3-17,4-25.2c2.2-6.7,5-12.4,8.4-17
			c1.2-1.7,2.9-3.7,5-6.1c2.1-2.2,3.7-4,4.8-5.2c0-0.1-0.1-0.2-0.1-0.3c-0.3-1.3-0.5-2.7-0.5-4.1c0-2.6,0.4-5.9,1.3-10
			c12.2-10.5,24.7-20.3,37.4-29.5c1.2-5,2.5-9,3.9-12.2c1.6-3.5,4-7.2,7.1-10.9c3.1-3.7,6.6-6.4,10.5-8.2c3.8-1.8,8.3-2.5,13.4-2
			c4.6,0.4,7.3,2.4,7.9,6c6.4-3.2,11.6-5,15.4-5.5h3.4v2.9c-5.4,5.4-14.1,13.8-26.3,25.4c-1.3,2.9-2.5,6-3.6,9.3
			c-2.2,6.5-2.6,11.4-1.1,14.8c1.5,3.4,5,4.1,10.7,2.1c5.6-2,10.4-4.2,14.4-6.8c4-2.5,7.8-5.4,11.4-8.7c3.6-3.3,6.7-6.7,9.5-10.2
			c2.7-3.5,4.5-6.2,5.4-7.9c0.2-0.5,0.5-1,0.8-1.6c0.2-5.4,0.3-10.4,0.3-15.1c0.4-9,0.4-16.6,0.1-22.8c-18.5-2.7-34.7-10-48.6-21.9
			c-9.6-8.3-16.7-17.4-21.1-27.5l-84.3-0.9 M390,412.5l-66.5-17.3c-0.8,0.7-1.6,1.4-2.4,2.1c-3.3,2.8-6.8,5.4-10.4,7.7L278,388.3
			 M284.9,438c-0.2,0.6-0.4,1.2-0.5,1.9c-0.5,2.1-0.7,4.3-0.8,6.8c0,3.7,0.4,7.7,1.2,12.1c0.5,2.8,1,5.8,1.5,9
			c0.7,5,1.2,10.5,1.6,16.4c0.6,9.6,0.7,17,0.3,22.2c-0.5,5.2-3.2,10.3-8.3,15.5c-5.1,5.1-10.9,7.7-17.4,7.7
			c-10,0-17.5-5.1-22.3-15.5c-1.9-4.1-3.4-8.9-4.5-14.5 M278.1,418.1c-7.1,1.4-14.5,2.1-22.3,2.1c-5.7,0-11.2-0.4-16.5-1.1
			 M191.4,466c-7.9,7.6-17.3,16.5-28.2,26.7c-2.2,2.1-4.3,4.1-6.3,6 M236.8,489.3c1-11.8,1.8-22.5,2.1-32.2 M156.1,470.6
			c4.6-3.3,9.2-6.6,13.9-9.8c11.6-7.8,21.2-13.7,28.9-17.6 M119.2,517.8c-0.6-1-1-2.1-1.3-3.2 M203.3,722.1c5,2.8,9.1,6,12.3,9.5
			c2.2,2.5,3.8,5,4.8,7.5 M184.1,725.3c-3.3,0-6.1,1.3-8.4,3.8c-1.7,1.8-2.8,4-3.2,6.3 M198.1,728.8c-2.5,0-4.7,1.6-6.6,5
			c-1.1,2-1.8,4.2-2.2,6.6 M400.2,604.8l-1,5.4c-1.1,1.1-1.8,1.8-2.3,1.9c-0.7,0.2-1.1,0.8-1.1,1.8c0,0.5,0.3,1.2,1,2.2
			c0.7,1,1,2,1,3.2c0,2.4-1.1,4.9-3.4,7.5c-0.3,0.3-1.1,1.2-2.4,2.5c-0.7,0.7-1.1,1.2-1.1,1.5c0,0.4,0.2,1.2,0.5,2.3
			c0.3,1.1,0.5,1.9,0.5,2.3c0,3-2.9,6.6-8.8,10.8c-1.1,0.7-2.2,1.4-3.4,2.1c0.1,0,0.1,0.1,0,0.1c1.4,2.6,2.6,5.1,3.6,7.5
			 M379.7,648.2c-3.4-7.2-8.4-15-14.8-23.5c0,0.1-0.1,0.1-0.1,0.2c-0.1-0.1-0.2-0.3-0.3-0.4 M407,729.2c-3.5,1.3-7,2.9-10.6,4.8
			c-4.2,2.4-8.2,5-11.9,8 M408,735.3c3.6,0,6.6,1.4,9.2,4.3c1.6,1.8,2.6,3.8,3.2,6 M421,731c3.3,0,6.2,1.6,8.6,4.8
			c1.4,1.9,2.4,4.1,3,6.5"/>
	</g>
</g>
</svg>
