
<svg xmlns="http://www.w3.org/2000/svg" version="1.1" xmlns:xlink="http://www.w3.org/1999/xlink" preserveAspectRatio="none" x="0px" y="0px" width="600px" height="800px" viewBox="0 0 600 800">
<defs>
<path id="Layer0_0_1_STROKES" stroke="#000000" stroke-width="1" stroke-linejoin="round" stroke-linecap="round" fill="none" d="
M 99.8 329.05
L 165.1 354.2
Q 164.1 348.1 164.15 341.7 164.25 326.45 170.25 313.3 171.45 308.95 174.1 305.65 173.45 306.15 177.6 300.75
L 183.15 294.55 188.8 288.55 188.75 288.55
Q 188.9 288.4 189.1 288.25 190.25 287.15 191.5 286.15 201.15 277.95 212.2 272.7 210.9 262.1 209.15 251.7 204.4 224.15 197.25 197.35 190.05 170.5 177.05 143.4 164.1 116.2 160.9 86.95 157.65 57.7 180.25 50.6
L 181.45 50.55 180.35 50.05
Q 206.3 42.7 222.25 70.4 238.2 98.1 241.35 131 244.55 163.95 245.25 186.2 245.95 208.4 243.2 233.2 241.45 248.75 239.05 264.5 247.6 263.15 256.85 263.15 273.75 263.15 288.5 267.7 288.65 267.3 288.85 266.85 294.1 255.6 298 245.4 301.9 235.2 310.95 204.55 320.05 173.9 330.85 141.55 341.6 109.15 356.55 84.15 371.45 59.15 391.25 57.4 411 55.6 416.6 64.85 422.15 74.1 422.15 86.9 422.15 95.7 418.75 109.45 415.3 123.35 409.2 138.95 395.1 174.95 375.8 199.8 349.15 233.95 325.05 263.45 318.4 271.55 312.7 279.2 317.4 282.35 321.85 286.15 348.7 309.15 348.5 341.7 348.35 364.7 334.8 382.9
L 399.05 386.1
M 315.6 262.1
Q 322.4 252.55 336 231.5 349.6 210.45 362.8 185.85 376 161.3 377.75 151.3 379.5 141.35 377.85 136.9 376.25 132.5 372.4 132.5 363.9 132.5 356.85 137.95 350.4 142.95 344.6 152.95 339.65 161.5 335.2 172.75 330.8 184 324.5 200.15 318.2 216.3 312.3 231.75 306.4 247.15 297.05 265.75 296 267.85 294.95 269.95 301.15 272.35 306.95 275.65 312.8 266.05 315.6 262.1 Z
M 232.4 235.15
Q 232.4 195.75 227.1 164.65 220.1 124.2 206.8 124.2 200.85 124.2 198.8 129.55 197.3 133.4 197.3 142.95 197.3 149.2 203.7 188.3 207 208.25 210.95 231 214.55 251.5 217 270.6 224.2 267.6 232 265.85 232.4 252.85 232.4 235.15 Z
M 295.2 293.15
Q 300.6 295.8 305.4 299.75 310.2 303.65 314.05 309.9 313.4 311.05 311.85 311.7 309.9 309.35 306.6 306.55 303.35 303.7 298 300.7 292.6 297.7 283.85 293.65 284.35 290.9 286.9 289.15 289.8 290.45 295.2 293.15 Z
M 189.1 288.25
L 188.8 288.55
Q 189.5 288.3 190.25 288.05 196.15 286.05 201.55 286.5 206.95 286.95 208 287.65 208 289.25 207.8 290.85 195.05 290.4 188.6 292.55 185.5 293.6 183.15 294.55
M 174.1 305.65
Q 174.55 305.15 175 304.65 175.35 304.25 175.75 303.9 177.1 302.5 178.8 301.35 186.1 296.4 194.65 298.15 203.25 299.95 208.05 307.35 212.9 314.85 211.2 323.6 209.5 332.4 202.2 337.35 194.9 342.35 186.35 340.55 177.75 338.8 172.95 331.35 168.1 323.9 169.85 315.1 170 314.15 170.25 313.3
M 174.6 310.2
Q 178.25 306.6 183.4 306.6 184.85 306.6 186.2 306.9 189.6 307.6 192.2 310.2 195.85 313.85 195.85 319 195.85 324.15 192.2 327.8 188.55 331.45 183.4 331.45 178.25 331.45 174.6 327.8 172.85 326.05 171.95 324 170.95 321.7 170.95 319 170.95 313.85 174.6 310.2 Z
M 174.1 305.65
Q 174.4 305.4 175.75 303.9
M 199.05 367.3
Q 198.75 372.35 199.9 375.35 201.1 378.35 204.05 379.75 206.95 381.15 210.45 380.8 213.95 380.5 215.5 376.85 215.35 375.55 215.4 374 215.7 366.3 216.25 362 213.2 361.55 210.95 359.65 207.45 353.95 206.6 346.5 219.15 345.8 231.7 349.4 229.15 356.4 222.05 361.65 218.85 362.35 216.25 362
M 81.75 347.35
L 167.35 363.45
Q 165.9 358.95 165.1 354.2
L 175.85 358.3
M 178.8 365.6
L 167.35 363.45
Q 168.4 366.6 169.7 369.7
L 177.8 369.75
M 243.05 352.15
Q 251.95 360.4 252.7 372.45 253.4 384.45 244.25 392.65 235.1 400.8 221.8 400.65 208.45 400.45 199.4 392.15 190.3 383.9 189.25 371.45 188.15 359 197.65 350.2 207.15 341.4 220.65 342.65 234.15 343.85 243.05 352.15 Z
M 215.5 376.85
Q 216.15 381.95 220.3 382.95 225.55 384.1 230.1 381.1 234.55 378.05 235.65 371.95
M 291.4 338.55
Q 291.4 344.5 287.2 348.7 282.95 352.9 277 352.9 271.05 352.9 266.85 348.7 264.85 346.7 263.8 344.3 262.65 341.65 262.65 338.55 262.65 332.6 266.85 328.35 271.05 324.15 277 324.15 278.7 324.15 280.25 324.5 284.15 325.35 287.2 328.35 291.4 332.6 291.4 338.55 Z
M 291.6 315.85
Q 301.4 318.35 306.6 327.15 311.8 335.95 309.25 345.9 306.7 355.85 297.95 361.05 289.2 366.3 279.35 363.8 269.5 361.3 264.35 352.5 259.2 343.7 261.7 333.8 264.25 323.85 273.05 318.6 281.75 313.35 291.6 315.85 Z
M 283.2 384.65
L 323.55 395.15
Q 330.05 389.3 334.8 382.9
L 276.35 380
M 375.4 437.8
L 310.8 404.95
Q 295.9 414.5 278.15 418.1 278.35 418.65 278.55 419.2 282.05 429.35 284.9 438 286.55 443 288 447.5 327.85 460.55 348.6 481.1 372.4 504.65 372.4 539.15 372.4 553.75 367.5 562.55 362.1 572.3 351.9 572.3 342.05 572.3 338.3 562.25 335.85 555.7 335.8 543.05 335.7 530.8 333.7 520.25 331.35 507.9 327.05 501.6 324.4 497.75 315.75 489.05 307.2 480.55 303.15 477.7 300.05 475.5 296.85 473.55 299.5 481 302.85 490.05 313 517.8 318.65 531.45 324.3 545.15 330.6 558.75 336.85 572.35 340.95 581.5 345 590.65 350.1 600.85 355.2 611.05 359.35 617.05 363.0548828125 622.4265625 364.525 624.5
L 364.9 624.75
Q 367.65 619.45 375.3 609.95 378.75 605.6 381.45 601.75 384.35 597.45 385.55 594.85 385.85 594.2 385.85 592.1 385.85 589.55 385.95 588.2 386.2 583.15 388.45 583.15 391.6 583.15 394.15 586.75 395.05 588.95 396.35 592.3 398.2 596.9 399.2 600 399.2 600.1 399.25 600.2 399.75 602.5 400.2 604.8 402.15 615.35 402.15 626.05 402.15 640.5 396.3 648 391.75 653.85 383.4 655.8 388.45 667.5 388.45 676.55 388.45 685.05 381.2 694.9 375.1 703.2 364.6 711.45 359.5 715.45 354.3 718.8 357.9 719.25 361.7 720.05 364.3 720.6 376.45 723.9 386.15 726.55 393.75 727.75 400.2 728.8 407.05 729.2 410.5 729.5 414.75 729.5 418.95 729.5 424.15 728.8 429.35 728.05 430.7 728.05 434.25 728.05 436.85 730.5 439.25 732.75 439.25 735.6 439.25 739.45 432.6 742.35 431 743.05 429 743.65 424.9 745 420.45 745.7 415.05 746.6 409.2 746.6 400.5 746.6 384.5 742.05 382.1 741.35 379.55 740.6 373.85 738.85 365.9 736.15 358.75 733.7 357.75 733.4 346.3 730.1 342.15 729.2 339.2 728.6 335.75 727.9 334.75 727.95 332.1 727.45 329.4 726.95 328.55 726.35 328.4 726.3 328.25 726.25 327.5 725.4 327.5 724.65 327.5 724.4 327.55 724.15 327.5 723.8 327.5 723.4 327.5 722.7 328.2 721.2 329.15 719.25 329.7 718.05 331.9 713.2 331.9 708.8 331.9 708.6 331.9 708.4 329.7 707.65 329.45 707.5 327.7 706.95 316.2 704.85 304.6 702.8 293.85 704.65 283.05 706.5 280.15 706.9 278.4 707.15 277.5 707.3 277.8 708.7 278.55 709.6 281.5 713.1 288.35 718.55 290.1 719.95 290.8 721.2 291.45 722 291.45 723.2 291.45 724.55 276.2 726.8 258.5 729.35 254.35 731 247.15 733.75 231.15 737.1 225.55 738.3 220.45 739.1 207.85 741.2 198.75 741.2 194.3 741.2 189.25 740.35 184.3 739.5 178.75 737.8 175.05 736.65 172.5 735.5 165.8 732.4 166.35 728.95 167.05 724.1 171.6 721.45 176.1 718.8 180.5 720.25 190.3 723.05 202 722.1
L 203.3 722.1 220.75 723.2
Q 226.65 722.4 232.55 722.2 238.45 722 249.2 720.75 258.45 719.65 261.6 718.75 257.65 716.95 253 714.7 235.55 706 224.35 699.35 213.2 692.65 211.75 682.2 210.3 671.75 219.75 655.4 228.8 639.85 238.15 620.95 236.85 614.5 235.75 607.75 231.95 584.25 231.45 564.85 231 545.45 235.1 506.75 235.5 503.05 235.85 499.5 236.35 494.3 236.8 489.3 234.95 491.5 232.95 493.7 224.6 502.95 215.55 509.2 206.45 515.4 199.1 517.95 191.75 520.5 181.65 520 178.05 519.6 174.6 518.45 164.05 515 160 506.7 158.1 502.75 156.85 498.7 134.7 519.6 129.05 526.1 126.2 525 123.65 523 123.5 522.9 123.4 522.85 120.9 520.8 119.45 518.3 119.3 518.05 119.2 517.85 117.8 520.45 117.8 524.5 117.8 527.55 120.05 531.4 121.25 533.35 125 538.35 128.5 542.9 129.95 545.7 132.2 549.95 132.2 553.75 132.2 556.25 131.7 557.35 131.3 558.3 130.35 558.3 129.1 558.3 125.6 555.15 122.15 551.95 120.75 551.95 120.25 551.95 119.75 552.7 119.3 553.45 119.3 554.5 119.3 555.4 119.8 556.3 120.15 556.85 121 558.05 122.7 560.9 122.7 566 122.7 569.15 122.2 570 121.95 570.5 120.85 570.5 119.4 570.5 116.2 567.2 112.95 563.9 112.45 563.9 111.4 563.9 111 565.1 110.75 565.9 110.75 567.45 110.75 568.7 112.2 571.6 113.05 573.3 115.4 577.65 120 586.75 120 593.05 120 594.5 119.5 595.1 118.8 596.1 116.6 596.1 114.75 596.1 110.55 593.05 106.4 590 105.4 590 105 590 104.95 590
L 104.65 590.25 104.65 593.15
Q 107.9 597.1 109.1 599.25 110.25 601.4 110.25 603.4 110.25 604.85 108.05 604.85 106.7 604.85 104.35 603.2 103.8 602.8 103.3 602.4 100.7 597.05 99.35 593.05 95.65 582.6 95.65 568.05 95.65 555.15 99.7 542.85 103.05 532.8 108.05 525.85 109.9 523.35 113.1 519.75 116.25 516.4 117.9 514.6 117.85 514.4 117.8 514.25 117.35 512.3 117.35 510.1 117.35 506.2 118.7 500.1 137.05 484.4 156.1 470.6 157.9 463.15 160.05 458.35 162.45 453.05 167.15 447.5 171.8 442 177.6 439.3 183.3 436.55 191.05 437.25 198 437.85 198.95 443.25 208.6 438.45 214.3 437.7
L 217.7 437.7 217.7 440.6
Q 209.65 448.65 191.4 466.05 189.5 470.35 187.8 475.35 184.5 485.1 186.7 490.15 188.9 495.2 197.35 492.2 205.75 489.2 211.8 485.45 217.8 481.7 223.25 476.8 228.6 471.9 232.75 466.55 236.85 461.25 238.1 458.65 238.45 457.95 238.95 457.05 239.2 449 239.25 441.9 239.8 428.35 239.4 419.1 211.65 415.1 190.8 397.25 176.35 384.85 169.7 369.7
L 85.4 368.8
M 390.05 412.45
L 323.55 395.15
Q 322.4 396.2 321.15 397.25 316.2 401.5 310.8 404.95
L 278.05 388.3
M 284.9 438
Q 284.6 438.9 284.35 439.9 283.65 443 283.6 446.65 283.55 452.15 284.85 458.75 285.65 462.95 286.35 467.7 287.4 475.25 288 484.1 288.95 498.5 288.3 506.3 287.6 514.05 280 521.8 272.4 529.5 262.65 529.5 247.6 529.5 240.35 514.05 237.45 507.95 235.85 499.5
M 278.15 418.1
Q 267.5 420.25 255.85 420.25 247.35 420.25 239.4 419.1
M 191.4 466.05
Q 179.5 477.4 163.2 492.7 159.9 495.8 156.85 498.7
M 236.8 489.3
Q 238.35 471.65 238.95 457.05
M 156.1 470.6
Q 163 465.6 170 460.85 187.35 449.1 198.95 443.25
M 119.2 517.85
Q 118.35 516.3 117.9 514.6
M 203.3 722.1
Q 210.85 726.3 215.6 731.6 218.95 735.3 220.45 739.1
M 184.15 725.35
Q 179.2 725.35 175.7 729.15 173.15 731.9 172.5 735.5
M 198.05 728.75
Q 194.25 728.75 191.5 733.7 189.85 736.65 189.25 740.35
M 400.2 604.8
L 399.2 610.2
Q 397.6 611.9 396.9 612.1 395.8 612.45 395.8 613.85 395.8 614.55 396.75 616 397.75 617.45 397.75 619.25 397.75 622.85 394.35 626.75 393.9 627.25 392 629.25 390.9 630.3 390.9 630.7 390.9 631.3 391.4 633 391.9 634.7 391.9 635.3 391.9 639.8 383.15 646.1 381.5 647.2 379.7 648.2 379.85 648.25 379.75 648.3 381.8 652.2 383.4 655.8
M 379.7 648.2
Q 374.55 637.4 364.9 624.75 364.85 624.85 364.8 624.9 364.669921875 624.716796875 364.525 624.5
M 407.05 729.2
Q 401.8 731.1 396.4 734.05 390.05 737.6 384.5 742.05
M 408.05 735.35
Q 413.4 735.35 417.2 739.65 419.55 742.35 420.45 745.7
M 421 731
Q 426 731 429.6 735.85 431.7 738.75 432.6 742.35"/>
</defs>

<g transform="matrix( 1, 0, 0, 1, 0,0) ">
<use xlink:href="#Layer0_0_1_STROKES"/>
</g>
</svg>
