<?xml version="1.0" encoding="utf-8"?>
<!-- Generator: Adobe Illustrator 18.0.0, SVG Export Plug-In . SVG Version: 6.00 Build 0)  -->
<!DOCTYPE svg PUBLIC "-//W3C//DTD SVG 1.1//EN" "http://www.w3.org/Graphics/SVG/1.1/DTD/svg11.dtd">
<svg version="1.1" id="Layer_1" xmlns="http://www.w3.org/2000/svg" xmlns:xlink="http://www.w3.org/1999/xlink" x="0px" y="0px"
	 viewBox="105.4 51.2 328.5 300.3" enable-background="new 105.4 51.2 328.5 300.3" xml:space="preserve">
<g transform="matrix( 1, 0, 0, 1, 0,0) ">
	<g>
		<path id="Layer0_0_1_STROKES" fill="none" stroke="#000000" stroke-linecap="round" stroke-linejoin="round" d="M413,113
			c-7-10.3-16.1-19.3-27.2-27.2C373.5,79.4,361.6,74,350,69.6l-1.7,54.8L413,113c6.1,9.1,10.6,19.2,13.4,30.1
			c1.4,5.7,2.6,11.5,3.6,17.5c2.9,17.4,3.9,36.3,3.1,56.9c-0.1,1.4-0.2,2.9-0.4,4.3c-1.1,19.6-4.8,39-11,58.1
			c-3.1,9.3-6.8,18.6-11.2,27.8c-7,10.5-19.9,19.6-38.8,27.4c-6.7,2.8-14.1,5.4-22.1,7.7c-12.3,4-26.9,6.6-43.9,7.7
			c-16.8,1-35.9,0.7-57.2-1c-1.3-0.1-2.6-0.2-3.8-0.3c-24.6-2.2-46.4-7.2-65.4-14.9c-15.8-6.5-29.6-14.8-41.4-25
			c-4.6-2.7-8.5-5.7-11.9-9.1c-7.7-7.7-12.3-17.4-13.9-29.2c-2.4-9-4.2-18.3-5.2-27.7c-2.5-22.6-0.7-46.5,5.4-71.6
			c0-0.1,0-0.2,0-0.4c0.5-2.2,1.1-4.5,1.8-6.8c5.4-20.2,11.7-37.3,18.9-51.5c10.3-19.9,22.4-33.6,36.3-41.3c1.2-0.8,2.5-1.5,3.8-2.2
			c12.8-7,33-12.1,60.5-15.3c5.5-0.7,11.3-1.2,17.4-1.7c12.2-1.1,25.1-0.8,38.4,1c19.2,2.6,39.3,8,60.5,16.3l-46.6,42.2
			c14.2,3,29.1,7.2,44.9,12.5c2.1,0.7,4.3,1.4,6.4,2.2c11.6,5.2,20.4,11.9,26.5,20.1L413,113z M277,149.9l21,69.9l-38.8-9.9l18,43.9
			c30.4,1.6,47.4-9.7,50.9-33.8c-0.3,0-0.7,0-1,0c-4.1,0-7.7-1.5-10.7-4.5c-2.9-2.9-4.4-6.4-4.4-10.5s1.5-7.7,4.4-10.7
			c3-2.9,6.6-4.3,10.7-4.3c4.1,0,7.6,1.4,10.5,4.3c3,3,4.5,6.6,4.5,10.7s-1.5,7.6-4.5,10.5c-2.7,2.8-5.8,4.3-9.5,4.5 M303.4,111.8
			c-13.1-2.8-25.6-4.6-37.3-5.5c-4.7-0.4-9.2-0.7-13.5-0.7c-14.2-0.1-26,0.2-35.6,1c-10.2,0.8-17.7,2.1-22.6,3.8
			c-5.9,3.3-11.4,7.8-16.4,13.3c-8.1,8.7-15.1,20.1-20.8,34.3c-2.6,6.1-4.9,12.8-7.1,20.1c-3.8,12.8-5.9,25.2-6.2,37.1
			c-0.4,12.7,1.1,24.9,4.7,36.6c0.3,2,0.8,3.9,1.5,5.9c2.9,8,9,14.8,18.2,20.4c5.4,2.9,11,5.6,16.8,8.2c15.3,6.4,31.6,11.3,49,14.7
			c6.7,1.2,13.5,2.3,20.6,3.2c6.9,0.8,13.5,1.3,19.8,1.6c20,1.2,37,0.3,50.8-2.9c1.9-0.5,3.8-1,5.7-1.5c18.4-5,31.9-10.9,40.4-17.8
			c2.4-2.1,4.5-4.3,6.2-6.6c5-10.8,9-22.8,11.9-35.9c1.3-6.7,2.4-13.7,3.3-21.1c1.1-10.7,1.4-20.7,1-30.1c-0.5-9.6-1.8-18.4-4-26.6
			c-1.8-6.3-4.6-11.9-8.5-16.9l48.8,14l-36.2,29.4l39.3,27.4l-43.6,23.7l32.2,38.7l-50.3,3.9l0.4,51.3l-46.5-32l-19.5,47.4
			l-31.2-44.5l-26,43.5L234.1,301l-54.8,33.1l5.8-47.8L126,300l24.1-42.3l-43.1-14.7l36.9-27.8l-31.4-43.8h-0.1 M331.8,145.1
			c-29.2-10-54.6-15.2-76.4-15.4c-21.9-0.2-36.4,1-43.5,3.5c-14.7,8.4-25.7,25-33.1,49.9c-5.9,19.5-6.3,37.5-1.2,54.1
			c1.2,7.8,6.1,14.3,14.7,19.4c19.1,9.9,40.6,16.2,64.7,19c24,2.7,42.9,2,56.9-2c17.8-4.7,29.5-10.7,34.9-17.9
			c5.8-11.9,9.6-25.9,11.4-41.8c1.8-16,1-29.9-2.2-41.6C354.6,160.4,345.8,151.3,331.8,145.1z M384.8,219.1
			c2.2-20.3,1.3-37.9-2.9-52.8c-4.2-15-15.1-26.6-32.8-34.6c-36.4-12.7-68.2-19.2-95.4-19.5c-27.3-0.2-45.4,1.3-54.3,4.5
			c-18.4,10.6-32.2,31.7-41.5,63.2c-7.3,24.9-7.8,47.8-1.3,68.9c1.5,9.9,7.6,18.1,18.3,24.8c23.9,12.6,50.8,20.6,80.8,24.2
			c30.1,3.5,53.8,2.6,71.2-2.5c22.2-5.9,36.8-13.5,43.6-22.7C377.7,257.2,382.4,239.4,384.8,219.1z M323.9,152.3
			c-25.5-8.8-47.8-13.3-67-13.4c-19.2-0.2-31.9,0.8-38.1,3c-12.9,7.3-22.6,21.8-29.1,43.7c-5.1,17.2-5.5,33-1.1,47.4
			c1.1,6.9,5.4,12.6,12.9,17.1c16.7,8.7,35.6,14.3,56.8,16.7c21.1,2.4,37.7,1.9,49.8-1.7c15.6-4.1,25.9-9.3,30.8-15.7
			c5-10.5,8.3-22.7,9.8-36.8c1.6-13.9,0.9-26.1-2-36.4C343.9,165.7,336.3,157.7,323.9,152.3z M277.2,253.9
			c-57-3.2-79.4-23.6-67.2-61c-1.9-0.7-3.6-1.8-5.2-3.3c-2.8-2.8-4.2-6.1-4.2-10s1.4-7.2,4.2-10.1c2.8-2.8,6.1-4.2,10-4.2
			c3.9,0,7.3,1.4,10.1,4.2c2.8,2.8,4.2,6.2,4.2,10.1c0,3.9-1.4,7.2-4.2,10c-2.8,2.8-6.1,4.2-10.1,4.2c-1.8,0-3.4-0.3-4.8-0.9
			 M239.5,171h7.5c7.9,1.6,14.3,3.2,19,5 M291.6,170.4c1.3,0.3,9.5,3.3,24.4,8.8 M173.1,69.3l43.8,37.3L233.6,54l32.4,52.3l23.5-53
			l13.9,58.5 M133,112.8l44.9,11l-4.8-54.5 M112.3,171.1l0.1,0.4l44.7-13.4L133,112.8"/>
	</g>
</g>
</svg>
