
<svg xmlns="http://www.w3.org/2000/svg" version="1.1" xmlns:xlink="http://www.w3.org/1999/xlink" preserveAspectRatio="none" x="0px" y="0px" width="550px" height="400px" viewBox="0 0 550 400">
<defs>
<path id="Layer0_0_1_STROKES" stroke="#000000" stroke-width="1" stroke-linejoin="round" stroke-linecap="round" fill="none" d="
M 413 113
Q 402.5 97.6 385.75 85.75 367.4 76.2 350 69.55
L 348.3 124.35 413 113
Q 422.2 126.7 426.4 143.1 428.55 151.6 430.05 160.65 434.4 186.7 433.1 217.5 432.9 219.65 432.75 221.8 431.05 251.25 421.7 279.85 417.05 293.85 410.5 307.6 400 323.3 371.75 335 361.7 339.2 349.65 342.7 331.25 348.7 305.7 350.4 280.45 351.9 248.5 349.35 246.5 349.2 244.7 349.05 207.75 345.7 179.3 334.15 155.55 324.45 137.85 309.1 131 305.05 126 300.05 114.45 288.5 112.1 270.8 108.45 257.25 106.95 243.05 103.25 209.1 112.3 171.5 112.3 171.35 112.3 171.15 113.1 167.85 114.1 164.3 122.15 134.05 133 112.85 148.4 83.05 169.3 71.55 171.1 70.35 173.15 69.35 192.35 58.85 233.65 54 241.85 53 251.05 52.3 269.4 50.65 289.5 53.3 318.25 57.15 350 69.55
L 303.35 111.8
Q 324.6 116.35 348.3 124.35 351.5 125.35 354.7 126.55 372.05 134.4 381.25 146.6
L 413 113 Z
M 276.95 149.95
L 298 219.8 259.2 209.95 277.25 253.9
Q 322.9 256.25 328.1 220.15 327.6 220.15 327.1 220.15 320.9 220.15 316.4 215.65 312.05 211.3 312.05 205.1 312.05 198.9 316.4 194.4 320.9 190.05 327.1 190.05 333.3 190.05 337.6 194.4 342.15 198.9 342.15 205.1 342.15 211.3 337.6 215.65 333.6 219.8 328.1 220.15
M 303.35 111.8
Q 283.65 107.65 266.05 106.3 259.05 105.65 252.55 105.65 231.3 105.45 216.95 106.65 201.7 107.8 194.35 110.5 185.5 115.5 177.95 123.85 165.75 136.9 157.1 158.15 153.25 167.3 150.05 178.2 144.35 197.4 143.85 215.3 143.2 234.35 148.55 251.9 149.05 254.9 150.05 257.75 154.4 269.8 168.3 278.15 176.45 282.5 185.15 286.35 208.05 295.9 234.15 301.05 244.15 302.9 254.7 304.25 265.05 305.4 274.45 305.9 304.5 307.75 325.25 303.05 328.1 302.25 330.95 301.55 358.5 294.05 371.4 283.7 375.05 280.5 377.6 277.15 385.1 260.95 389.45 241.2 391.45 231.2 392.8 220.15 394.45 204.1 393.8 190.05 393.1 175.7 389.8 163.5 387.1 154.1 381.25 146.6
L 430.05 160.65 393.8 190.05 433.1 217.5 389.45 241.2 421.7 279.85 371.4 283.7 371.75 335 325.25 303.05 305.7 350.4 274.45 305.9 248.5 349.35 234.15 301.05 179.3 334.15 185.15 286.35 126 300.05 150.05 257.75 106.95 243.05 143.85 215.3 112.45 171.5 112.3 171.5
M 331.75 145.1
Q 287.95 130.05 255.4 129.7 222.6 129.4 211.9 133.2 189.85 145.75 178.8 183.05 169.95 212.3 177.65 237.2 179.5 248.9 192.35 256.6 220.95 271.45 257.05 275.65 293 279.65 313.9 273.65 340.65 266.6 348.8 255.75 357.5 237.85 360.2 213.95 362.85 189.9 358 172.35 352.85 154.45 331.75 145.1 Z
M 384.75 219.15
Q 388.1 188.7 381.9 166.3 375.55 143.75 349.15 131.7 294.5 112.65 253.7 112.15 212.75 111.8 199.35 116.65 171.8 132.55 157.9 179.85 146.9 217.15 156.6 248.75 158.9 263.6 174.95 273.5 210.75 292.35 255.7 297.7 300.85 302.9 326.9 295.2 360.2 286.35 370.55 272.5 381.25 249.55 384.75 219.15 Z
M 323.9 152.3
Q 285.65 139.05 256.9 138.9 228.15 138.55 218.75 141.9 199.35 152.8 189.7 185.55 182 211.3 188.65 233 190.35 243.4 201.55 250.05 226.6 263.1 258.4 266.8 290 270.45 308.2 265.1 331.6 258.95 338.95 249.4 346.5 233.7 348.8 212.65 351.15 191.75 346.8 176.2 342.45 160.45 323.9 152.3 Z
M 277.25 253.9
Q 191.7 249.05 210.05 192.9 207.25 191.9 204.9 189.55 200.7 185.4 200.7 179.55 200.7 173.7 204.9 169.5 209.05 165.3 214.9 165.3 220.75 165.3 224.95 169.5 229.15 173.7 229.15 179.55 229.15 185.4 224.95 189.55 220.75 193.75 214.9 193.75 212.25 193.75 210.05 192.9
M 239.5 171
L 247 171
Q 258.9 173.35 266.05 176
M 291.65 170.35
Q 293.65 170.85 316.05 179.2
M 173.15 69.35
L 216.95 106.65 233.65 54 266.05 106.3 289.5 53.3 303.35 111.8
M 133 112.85
L 177.95 123.85 173.15 69.35
M 112.3 171.15
L 112.45 171.5 157.1 158.15 133 112.85"/>
</defs>

<g transform="matrix( 1, 0, 0, 1, 0,0) ">
<use xlink:href="#Layer0_0_1_STROKES"/>
</g>
</svg>
