<?xml version="1.0" encoding="utf-8"?>
<!-- Generator: Adobe Illustrator 18.0.0, SVG Export Plug-In . SVG Version: 6.00 Build 0)  -->
<!DOCTYPE svg PUBLIC "-//W3C//DTD SVG 1.1//EN" "http://www.w3.org/Graphics/SVG/1.1/DTD/svg11.dtd">
<svg version="1.1" id="Layer_1" xmlns="http://www.w3.org/2000/svg" xmlns:xlink="http://www.w3.org/1999/xlink" x="0px" y="0px"
	 viewBox="54.9 4.3 411.7 380.6" enable-background="new 54.9 4.3 411.7 380.6" xml:space="preserve">
<g transform="matrix( 1, 0, 0, 1, 0,0) ">
	<g>
		<path id="Layer1_0_1_STROKES" fill="none" stroke="#000000" stroke-linecap="round" stroke-linejoin="round" d="M143.1,96.6
			c1.7-2.7,3.7-5.4,5.9-8c2.2-2.6,4.7-4.9,7.6-6.9c2.8-1.9,5.8-3.5,9.1-4.8c3.3-1.3,6.6-2,10-2.1c3.4-0.2,6.7-0.3,10.1-0.2
			c3.4,0.2,6.5,0.6,9.2,1.1c2.7,0.5,5.4,1.3,7.9,2.5c2.6,1.2,4.8,2.4,6.8,3.8c2,1.3,4.1,3.3,6.6,6.1c2.4,2.7,4.5,5.8,6.4,9.1
			c1.9,3.3,3.4,6.6,4.7,9.8c0.8,0.4,1.5,0.8,2.3,1.2c0.1,0.7,0.1,1.4,0.1,2.2c0,2.2-0.6,4.4-1.8,6.6c-0.7,1.2-1.3,2.2-2,3.1
			c-0.8-0.4-1.6-0.7-2.5-1c-0.1,2.3-0.3,5.3-0.5,9.1c0,0.6,0,1.2,0,1.6c2.7-0.4,6.2-1.4,10.5-2.9c1.7-0.6,3.5-1.3,5.4-2.1
			c1.6,0.9,2.9,2.3,3.8,4.2c1.4,2.6,2.1,6.3,2.1,10.9c0,0.1,0,1-0.1,2.6c-1.2,1.6-2.8,3.1-4.9,4.8c-5,3.7-10.7,5.5-17,5.5
			c-1.1,0-2.3-0.1-3.6-0.2c1.1,1.9,2,3.7,2.8,5.4c1.4,3.1,2.1,5.6,2.1,7.6c0,2.5-2,6.2-6,10.9c-1.9,2.3-3.9,4.4-5.8,6.1
			c0.8,0.4,1.6,0.8,2.4,1.2c1,0.4,1.9,0.9,2.8,1.4c-0.3,0.4-0.6,0.8-0.9,1.2c-0.6,1-1.2,1.9-1.9,2.8c0,0.5-0.1,1.1-0.1,1.8
			c1.2,0.3,2.6,0.7,4.3,1.2c1.2,0.3,2.2,0.5,3.2,0.8c0.2,1.5,0.3,3.4,0.2,5.8c0,3.1-0.5,9.6-1.5,19.4c1.1,1.8,2.3,3.6,3.5,5.2
			c0.9,1.3,1.9,2.5,2.9,3.7c0.4,0.4,0.8,0.9,1.1,1.2c1.9,2,3.8,3.7,5.9,5.1c1.9,1.4,3.9,2.5,5.9,3.4c1.9,0.9,3.9,1.5,6,1.9
			c1.5,0.3,3.1,0.5,4.7,0.6c0.6,0,1.1,0.1,1.8,0.1s1.3,0,2-0.1c-0.2-2.6-0.2-5-0.2-7.3c1.7,0.5,2.9,0.9,3.7,1.2
			c2.8,1.2,5.1,2.6,6.8,4.3c0-0.4,0.1-1.2,0.4-2.4c0.6,0,1.3,0.4,2.2,1.3c0-2.2,0.7-5.2,2.1-9.1c0.4-1.1,0.8-2.1,1.2-2.9
			c0.5,0.1,1.1,0.1,1.8,0.2c1.6,0.2,3.1,0.3,4.5,0.4c0.3,0.7,0.6,1.6,1,2.6c1.1-0.2,1.7-0.4,2-0.4l6,0.2c0.3,0.9,0.8,2,1.4,3.2v0
			c0.4,1.2,0.8,2.5,1.1,3.8c0.3,1.4,0.4,2.9,0.5,4.4c0.1,1.5,0.1,3-0.1,4.5c-2.3,0.8-5.5,1.9-9.6,3.4c-0.9,0.3-1.7,0.6-2.5,0.9
			c-0.1,0-0.2,0.1-0.3,0.1c-2.8,1-5.3,1.7-7.5,1.9c-0.2-0.6-0.3-1.1-0.3-1.4c-1,0-3.5,1.1-7.6,3.4c-2,1.1-3.6,2-4.9,2.7
			c-0.2-1.2-0.4-2.4-0.6-3.8c-1,0.5-2,1-2.9,1.5c-1.2,0.6-2.4,1.2-3.6,1.8c-0.5,0.2-1,0.5-1.5,0.7c-1,0.4-1.9,0.8-2.9,1.1
			c-2.9,1-5.7,1.7-8.4,2c-0.2,0-0.3,0-0.5,0c-0.7,0.1-1.4,0.1-2.1,0.1c-0.7,0-1.5,0-2.2-0.1c-0.3,0-0.6-0.1-0.9-0.1
			c-2.3-0.3-4.6-0.9-7-1.9c-1.7-0.7-3.4-1.6-5.1-2.6c0.1,0.9,0.2,1.7,0.3,2.6c0.1,0.7,0.1,1.3,0.2,2c0,0.3,0,0.5,0.1,0.8
			c0.1,1.5,0.3,2.9,0.5,4.4c0.4,3.6,0.8,7.3,1.2,11.1c0.2,2.1,0.4,4.2,0.6,6.4c0.2,1.9,0.4,3.9,0.7,5.9c-0.5,0.4-1.1,0.7-1.7,1.1
			c6.6,4.9,12.4,10.6,17.4,17c5,6.5,7.4,14.6,7.2,24.4c-0.3,9.8-0.3,17-0.1,21.8c0.1,1.5,0.2,2.9,0.2,4.1c0.4,0,0.8,0,1.2,0
			c5.8,0,11.1-1.9,15.9-5.8c2.1-1.7,4-3.7,5.6-6c0.5,0.3,1.2,0.6,2,1c1.3,0.8,2.4,1.8,3.4,2.9c-2,4.7-5.5,9.4-10.5,14
			c-5,4.6-9.2,6.9-12.6,7c-3.4,0.1-6.3-0.1-8.5-0.5c-2.3-0.4-3.7-0.7-4.3-0.8c-0.1,3.4-0.2,6-0.3,7.8c-1.3,0-2.7,0-4.2,0
			c-0.8,0-1.6,0-2.2,0c0-7.2-0.6-13.2-1.8-18.1c-1.5-6-4.4-12-8.6-17.9c-5.4-7.5-10-12.8-13.8-16c-3.7-3.1-9-6.6-15.8-10.5
			c-5.2-0.1-9.9-0.1-14.1-0.1c-2.1,0-7.7,0.2-16.8,0.6c-3.3,0.1-6,0.2-8.1,0.3c4,5.2,6.9,9.7,8.7,13.7c1.7,3.6,2.5,7.2,2.5,10.7
			c0,5.3-3,9.7-8.9,13.2c-2.1,1.2-8.9,4.2-20.5,8.9c-0.1,4.2,1.2,7.3,3.8,9.4c2.6,2.1,6,3,10.3,2.9c4.3-0.2,7.9-1.2,10.8-3.2
			c0,0.3,0,0.4,0.1,0.4c0.6,2.3,1,3.8,1.2,4.6c-3.4,2.6-6.6,4.4-9.4,5.6s-6.6,1.7-11.4,1.4c-4.8-0.3-9.1-2.3-12.8-6.1
			c-1.8-1.9-3.9-5.7-6.2-11.4c-1.1,0.8-2.8,1.8-5,3c-1.5,0.8-2.9,1.5-4.1,2.1c-0.6-0.6-1.2-1.1-1.7-1.6c-1.1-1.1-2-2.1-2.9-3.1
			c5.8-3.2,10.6-6.9,14.4-11c5.6-6,8.7-12.5,9.3-19.6c-8.1-5.6-14.9-12.8-20.4-21.5c-5.5-8.6-8.5-16.3-9.1-23
			c-3.3-1.3-6.9-2.8-10.7-4.4c-8-3.4-13.7-6.1-17.1-8.1c-2.1-1.2-3.6-2.9-4.4-5c-0.6-1.6-0.9-3.8-0.9-6.7c0-6.8,0.8-13.8,2.5-21.1
			c-0.9-1.4-1.7-3.1-2.5-5.1c-1.4-4.2-2.5-7.4-3.4-9.6c0.2-0.3,0.5-0.7,0.8-1.1c1-1.3,1.6-2.3,2-3.1c-1.3-0.8-2.1-1.2-2.2-1.3
			c0.2-0.4,0.6-0.7,1.3-1c0.5-0.2,0.9-0.3,1.2-0.3c-5.4-5.6-9.2-9.8-11.2-12.4c1.4-0.4,3-0.9,4.9-1.3c1.7-0.4,3.3-0.7,4.9-1
			c-0.5-2.4-0.8-4.6-0.8-6.6c0-0.6-0.1-1.2-0.1-1.7c0-1.2,0-2.4,0.1-3.6c0.1-4.3,0.6-8.2,1.3-11.7c0.4-2,0.8-3.9,1.4-5.7
			c0.2-0.6,0.4-1.3,0.7-1.9c1.6-4.2,3.9-8.6,7-13.2c0.3,0,0.7-0.1,1.1-0.1c1.3-0.1,2.8-0.2,4.6-0.3c2-0.1,3.8-0.2,5.3-0.3
			c2.9-0.2,5.1-0.2,6.8-0.2c3.1,0,6.1,0,8.9,0.1c-0.1-0.1-0.2-0.2-0.2-0.2c-3.8-3.4-6.1-5.6-7-6.5c0.6,0,3.1-0.1,7.6-0.4
			c4.5-0.3,8.3-0.4,11.5-0.4c8.6,0,15.6,0.3,21.2,0.8c1.5,0.2,2.9,0.3,4.2,0.3c0.5-2.7,1-5.4,1.4-8.1c0.5-3.2,0.9-6.5,1.2-9.8
			c-0.5,0.7-0.7,1-0.8,1.1c-0.4,0.4-1,0.6-1.8,0.6c-1.3-0.4-2.7-1.4-4-2.9c-2.7-3.1-4-7.4-4-13.1c0-2.1,0.4-3.5,1.1-4.2
			c0.6-0.6,1.6-0.9,3.2-0.9c1.4,0,2.7,0.5,4,1.5c1.4,1,2.5,1.9,3.4,2.5c0.1-2.6,0.2-5.2,0.2-7.8c0-2,0-4.1-0.1-6.2
			c-0.9,0.1-1.6,0.1-2.1,0.2c0,0-0.1,0-0.1,0c-0.2-0.4-0.4-0.8-0.5-1.2c-1.4-3.7-1.4-6.8-0.2-9.5C140.8,97,141.9,96.8,143.1,96.6
			c5.6-0.9,11.8-1.4,18.4-1.5c7.9-0.1,16.1,0.3,24.7,1.4c8.5,1,16.9,2.6,25.2,4.6c5.5,1.3,10.8,3.2,15.9,5.9 M207.6,122.8
			c0.2-0.1,0.4-0.1,0.8,0c1.2,0,3.3,0.3,6.3,0.9c0.2,0.1,0.5,0.1,0.7,0.2c1.6,0.3,2.9,0.6,3.9,0.9c0.6,0.1,1.1,0.2,1.4,0.4
			c-0.4-2.2-0.9-4-1.6-5.5 M220.7,125.2c0.3,0.1,0.6,0.1,0.8,0.2 M215.4,123.8c-0.2,0.6-0.4,1-0.5,1.2c-0.4,0.5-1.1,0.7-2.2,0.7
			c-0.9,0-1.8-0.3-2.6-0.8c0.9,0.8,2.8,1.4,5.5,1.8c1.3,0.2,2.5,0.3,3.4,0.3c0-1,0.1-1.7,0.2-2.2 M219.1,127c0.4,0,0.8,0.1,1.1,0.1
			 M208.4,122.8c0.4,0.8,0.9,1.5,1.6,2c0,0,0.1,0,0.1,0 M142.8,113.9c6.2,5.5,12.2,9.6,17.9,12.2c3.9,1.8,8,3,12.2,3.7
			c2.3,0.4,4.7,0.6,7.2,0.6c1.8,0,3.6-0.1,5.4-0.4c2.2-0.3,4.5-0.7,6.8-1.3c1.5-0.4,2.9-0.9,4.4-1.5c2.7-1,5.4-2.2,8.1-3.6
			c2.2,1.1,4.7,2.4,7.6,3.9c3.4,1.6,6.2,2.5,8.3,2.5c0.7,0,1.4-0.1,2.2-0.2 M165.7,115l2-0.2c0.3,0,0.7,0,1.1,0.1
			c2.9,0.1,6.8,0.7,11.6,1.8c0.9,0.2,1.9,0.4,2.8,0.7c3.1,0.8,5.8,1.5,8,2.2c0.4,0.1,0.8,0.2,1.1,0.3c-0.2-2.1-0.6-4.2-0.9-6.2
			c-0.1-0.5-0.2-1-0.4-1.5 M192.2,119.8c1.2,0.4,2.2,0.8,3.1,1.1 M168.8,114.9c0.4,1.4,1.2,2.8,2.2,4.2c0.7,1,1.3,1.8,2.1,2.3
			c0.3,0,0.5,0.1,0.8,0.1c2,0,3.6-0.4,4.8-1.3c1.1-0.8,1.7-1.9,1.7-3.1c0-0.1,0-0.3,0-0.4 M173.1,121.4c0.5,0.5,1,0.8,1.5,1.2
			c1.9,1.1,3.7,1.8,5.3,2.2c1,0.2,2.7,0.4,5.3,0.7c0.1,0,0.1,0,0.2,0c1,0,2.1-0.2,3.2-0.5c0.4-0.1,0.7-0.2,1-0.2
			c0.9-2.4,1.4-4.1,1.6-5.2 M172.9,129.8c-1.6,2-2.9,3.9-3.9,5.5c-1,1.6-1.9,3.9-2.9,6.8c-1,2.9-1.8,6.9-2.4,11.8
			c-0.5,4.2-0.7,7.6-0.6,10.1c1.5,0.4,3,0.9,4.5,1.4c3.2,1.1,6.4,2.2,9.6,3.4c3.1,1.1,6.3,2.2,9.5,3.4c3.1,1.2,6.2,2.4,9.4,3.7
			c2.7,1,5.3,2,7.8,3.1c3.4-2.1,5.1-4.3,5.1-6.8c0-1-0.4-1.8-1.2-2.2c-1.1-0.7-3.4-1.3-6.7-1.8c0-0.1,0-0.1,0.1-0.2
			c0.1-0.1,0.1-0.1,0.1-0.2c4.2-2.9,6.7-4.9,7.4-5.8c-7-0.9-13-3.1-17.9-6.5c-6.9-4.8-10.3-11.2-10.3-19.2c0-1.2,0.1-1.8,0.2-2
			 M202.9,134.6c0.1-0.7-0.3-1.3-1.2-1.8c-0.6-0.4-1.2-0.6-1.8-0.6c-0.2,0-0.4,0-0.6,0.1c-1.6,0.5-2.9,2.8-3.9,6.9
			c-0.3,0.9-0.5,1.9-0.7,2.9c1.4,1.7,3.7,3.4,6.9,4.9c1.2,0.6,2.5,1.1,3.9,1.7c5,1.9,9.5,3.1,13.5,3.6 M189.6,124.7
			c0.3-0.1,0.5-0.2,0.7-0.3 M185.6,129.9c0.3,0.3,0.7,0.6,1.2,1c3,2.3,4.6,3.5,4.7,3.7c0.1,0.2,0.7,0.9,1.7,2.1c1,1.1,1.7,2,2.2,2.6
			 M201.6,147.1c1.2,1.8,2.8,4.3,5,7.5c2.3,3.3,4.1,5.9,5.4,7.7c-1.2-0.1-2.3-0.2-3.4-0.4 M203.9,178.9c0.5,0.2,0.9,0.4,1.4,0.6
			c2.3,0.9,4.5,1.9,6.7,3 M163.1,163.9c-1.6-0.5-3.2-1-4.8-1.5c-3.1-0.9-6.3-1.6-9.4-2.2c-3.1-0.7-6.2-1.2-9.4-1.8
			c-0.5-0.1-1-0.2-1.4-0.2c-1.7-0.3-3.4-0.6-5.1-0.9c-0.4,1.1-0.8,2.2-1.2,3.3c0.9,0.1,1.7,0.1,2.5,0.2l0.1,2.9
			c0,0.7-0.1,1.5-0.1,2.2c1.5,0.4,3,0.8,4.6,1.2c12.5,3.2,26.8,7.7,42.9,13.3c12.8,4.5,22.7,8.3,29.7,11.4c0.2,0.1,0.5,0.2,0.7,0.3
			c0.7,0.3,1.4,0.7,2.1,1c0-0.6,0.1-1.1,0.1-1.6c0-0.3,0-0.5,0-0.7 M134.2,166c-0.2,3.4-0.8,6.7-1.6,10.1c0.1,0,0.2,0,0.4,0.1
			c1,0.1,2.1,0.3,3.2,0.4c10.3,1.7,23,4.4,38,8.2c14.7,3.6,26.5,7.1,35.3,10.3c0.1,0,0.2,0.1,0.3,0.1c0.1,0.1,0.3,0.1,0.5,0.2
			c0.4,0.2,0.8,0.3,1.2,0.5c0.8,0.3,1.7,0.7,2.5,1c0-1.2,0-2.4,0.1-3.6 M142.6,107.8c1.3-0.1,3.1-0.2,5.3-0.4
			c4.5-0.4,7.9-0.5,10.2-0.5c11.9,0,24.9,1.5,39.2,4.6c10.5,2.3,19.2,4.8,26.1,7.6 M75.9,162.1c0.4,0.3,0.8,0.6,1.2,1
			c2.1,1.8,4.2,4.1,6.2,6.7c1.1,1.5,2.6,3.6,4.4,6.4c1.1,1.5,2.1,3.5,3.1,6.1c0.2,0.5,0.4,1.1,0.6,1.6c0.2,0.5,0.3,0.9,0.5,1.3
			c0.5,0.2,1.1,0.5,1.8,0.7c0.5,0.2,1,0.3,1.5,0.5c0.2,0.1,0.4,0.1,0.5,0.2c-0.1-0.3-0.1-0.6-0.2-0.9c-0.2-1.2-0.5-2.6-0.8-4.1
			c-0.1-0.4-0.2-0.8-0.2-1.2c-1.5-7.2-2.8-11.6-3.9-13.1c-1.8-2.6-3.3-4.5-4.7-5.8 M64.4,194.7c1.9,0.5,4.1,1.2,6.6,2
			c2.5,0.8,4.7,1.5,6.5,2.1c1.4-2.4,3.3-4.9,5.6-7.4c0.3-0.3,0.6-0.6,0.9-1c-2.4-1.2-5.9-2.7-10.6-4.4c-3.1-1.1-5.6-2.1-7.7-2.9
			 M67.8,175.4c2.9,1.3,5.3,2.5,7.1,3.7c6,3.9,10.1,6.7,12.3,8.2c1.1-1,2.1-1.9,3.2-2.7c0.3-0.3,0.7-0.5,1-0.8 M133.8,127.3
			c0-1.3-0.1-2.2-0.1-2.8c0-1,0.5-1.4,1.5-1.4c0.9,0,1.8,0.5,2.9,1.6c1.2,1.3,2.3,3.1,3.2,5.4c-0.5,0.1-1.2,0.4-2.2,1.1
			c-1.3,0.9-2,1.8-2,2.6c0,0.4,0.5,0.7,1.4,0.9c0.9,0.2,2,0.4,3.2,0.4 M101.5,161.4c0.6,0,1.2,0,1.8,0c3,0,5.7,0.1,8.3,0.2
			c2.9,0.1,5.6,0.3,8.1,0.5c0.1-1,0.1-1.9,0.1-2.8c0,0,0-0.1,0-0.1c1.1,0.1,2.5,0.3,4.2,0.6c3.1,0.4,5.7,0.7,7.8,0.8 M103.3,161.4
			c0.1,0.4,0.2,0.8,0.3,1.2c0.1,0.4,0.2,0.8,0.3,1.1c0.3,1.6,0.6,3.2,0.9,4.9c0.6,4.5,0.9,9.4,0.9,14.9c0,0.3-0.1,2.1-0.3,5.5
			c0,0.6-0.1,1.2-0.1,1.9c0.4,0.2,0.8,0.3,1.1,0.5c1.2,0.6,2.5,1.3,3.9,2.2c0.1-0.6,0.3-1.3,0.4-1.9c0.9-4.7,1.3-11.3,1.3-19.8
			c0-0.8-0.1-2.4-0.2-4.8c-0.1-2.2-0.2-3.9-0.3-5.4 M87.2,187.2c-1,0.9-2.1,2-3.1,3.1 M110.3,193.6c0.7,0.4,1.4,0.8,2.1,1.2
			c1.9-6.8,3.6-13.2,5-19.1c1.2-5.4,2-9.9,2.2-13.6 M105.3,190.9c-3-1.5-6.2-2.9-9.7-4.2 M138.1,158.2c0.2-1.1,0.5-2.2,0.7-3.4
			 M132.7,176.1c-0.8,3.5-2,7-3.4,10.6c-0.2,0.3-0.3,0.7-0.4,1.1c1,0.1,2,0.3,3.1,0.6c0.6,0.1,1.2,0.2,1.9,0.4
			c11.2,2.1,25.5,5.4,42.8,10.1c12.1,3.3,22,6.2,29.5,8.6c1.9,0.7,3.7,1.3,5.3,1.8c1,0.4,2,0.7,2.9,1.1c-0.2-3.9-0.2-7.6-0.2-10.9
			c0-0.9,0-1.8,0-2.6 M128.9,187.7c-1.8,4.3-3.8,8.7-5.9,13.1c0.6,0.1,1.2,0.2,1.8,0.2c1.9,0.2,3.8,0.4,5.8,0.6
			c19.5,2.2,36.7,4.7,51.6,7.3c8.5,1.5,16,3.1,22.5,4.7c1.2,0.3,2.4,0.6,3.6,0.9c1,0.3,2,0.5,2.9,0.8c1.2,0.3,2.4,0.7,3.6,1
			c-0.2-2.1-0.3-4.1-0.4-6.1 M116.3,214.1c-1.2,2.2-2.5,4.4-3.7,6.6c2.4,0.3,5.2,0.8,8.3,1.2c0.8,0.1,2.7,0.4,5.8,0.9
			c3.7,0.6,9.2,1.5,16.3,2.6c13,2.1,22,3.7,26.8,4.7c8.6,1.8,19.8,4.5,33.7,8.3c0.6,0.2,1.2,0.3,1.8,0.5c1.5,0.4,3,0.8,4.5,1.2
			c2.3,0.7,4.7,1.3,7.2,2c-0.2-1.6-0.4-3.3-0.6-4.9c-0.2-2.3-0.5-4.5-0.7-6.6c-1.7-0.5-3.6-1-5.4-1.5c-1.5-0.4-3-0.8-4.6-1.2
			c-0.6-0.2-1.3-0.3-1.9-0.5c-7.9-1.9-17.2-3.9-28-5.9c-17.7-3.3-33.7-5.5-48-6.7C123.9,214.5,120,214.2,116.3,214.1
			c0.8-1.6,1.6-3.1,2.5-4.8c1.5-2.9,2.9-5.7,4.2-8.6 M100.1,288.1c0-0.8,0-1.5,0-2.3c0-2,0.2-4.4,0.6-7.3c-2.3-1.4-4.5-2.8-6.8-4.2
			c1.3-4.8,2.6-9.5,4-14.3c0.6-2.2,1.2-4.4,1.8-6.6c0.4-1.4,0.8-2.8,1.2-4.2c0.7-2.4,1.5-4.8,2.2-7.2c0.8-2.6,1.6-5.1,2.4-7.6
			c0.2-0.6,0.4-1.3,0.5-1.9c0.2-0.8,0.5-1.6,0.8-2.4c-0.1,0.1-0.2,0.3-0.2,0.4c-1.1-0.5-1.7-0.8-1.8-0.9c-1.7-0.8-2.6-1.2-2.8-1.2
			c1.1-3.4,2.3-7.3,3.8-11.7c1.4-4.4,3.3-10.6,5.7-18.6c0.3-1.1,0.7-2.2,1-3.2 M95.1,186.4c-5.5,9.2-8.5,14.1-8.9,14.8
			c-3.5,6.2-6.4,12.2-8.9,18.1c1.1-0.3,2.4-0.6,3.8-1.1c3.5-1.1,5.2-1.7,5.2-1.7c0,3.2,0.3,7.2,0.8,12c1-0.3,1.8-0.6,2.3-0.9
			c0.1,0.3,0.3,0.7,0.4,1.1c0.7,1.6,1,3.6,1,6.1c0,2.8-0.1,4.6-0.2,5.4c-0.3,1.5-0.8,2.7-1.6,3.5c-1,0.2-2.2,0.5-3.5,0.8
			c-1.7,0.4-3,0.7-4,0.9c-0.5-0.5-1-1.1-1.5-1.7c-1.9,0.4-3.6,0.7-5.2,1c-1.3,0.3-2.5,0.6-3.6,0.8c-0.6-0.7-1.2-1.6-1.8-2.5
			 M87.2,228.4c-0.2,0.1-0.5,0.1-0.8,0.2c-1.5,0.3-2.6,0.6-3.3,0.8c0.2,0.6,0.4,1.2,0.6,1.9c0.9,2.5,1.6,4.2,2.2,5.1 M81.4,223.1
			l0.4-0.2c0,1.8,0.4,4,1.2,6.6 M112.7,220.7c-1.9,3.2-3.9,6.4-5.8,9.4 M99.8,253.4c4.9,2.3,11.1,4.9,18.8,7.8
			c0.1,0,0.1,0.1,0.2,0.1c5.7,2.1,19.9,5.4,42.7,9.9c10.9,1,24.1,1.9,39.8,2.4c7.6,0.3,14.1,0.5,19.4,0.6 M97.9,260
			c7.6,4.1,13.4,7.2,17.3,9.1c0.2,0.1,0.5,0.2,0.8,0.4c8.5,4.2,15.8,7.2,22.1,9.1c6.7,2,14.1,3.4,22.2,4.1
			c6.8,0.6,16.9,0.9,30.1,0.9c1.4,0,2.8,0,4.2-0.1c4.8-0.2,10.2-0.6,16.2-1.4c0.8-0.1,1.6-0.2,2.4-0.4c3.1-0.4,5.8-0.8,7.9-1.2
			 M103.2,242c6.3,2.1,12.8,4.1,19.5,5.9c11.8,3.2,24.1,5.9,37.1,8.1c3.4,0.6,6.9,1.1,10.4,1.6c0.8,0.1,1.6,0.2,2.4,0.4
			c9.2,1.3,19.6,2.5,31.2,3.7c4.2,0.4,9.4,0.9,15.6,1.4 M220.2,287.6c-1.8,1.1-3.8,2.1-5.8,2.9c-8.9,3.5-20.4,5.2-34.4,5.2
			c-19.6,0-36.4-1.8-50.4-5.5c-10.5-2.7-20.1-6.6-28.9-11.8 M106.1,232.5c5.4,2,11.7,3.8,18.8,5.6c10.7,2.7,23.2,5.1,37.6,7.3
			c9,1.4,21.2,3,36.6,4.9c4.1,0.5,7.8,0.9,11.1,1.3c2.2,0.3,4.2,0.5,6.1,0.8c0.1,0,0.3,0,0.4,0.1c0.5,0.1,1,0.1,1.4,0.2l-0.6-2.6v-3
			v-0.2c-0.1-0.7-0.1-1.4-0.2-2c-0.1-1-0.2-1.9-0.3-2.8 M77.6,198.8c-0.4,0.7-0.8,1.4-1.2,2.1c-0.8,1.6-1.4,3.1-1.8,4.6
			c1-0.1,2-0.1,3-0.1c2.1,0,3.5,0,4.2,0c-0.3,0.7-0.7,1.6-1.2,2.7c-1.7,4-2.9,7.8-3.7,11.2c0,0,0.1-0.1,0.2-0.1 M65.2,206.6
			c3.3-0.6,6.4-1,9.4-1.2 M64.4,200c4.9,0.1,8.9,0.4,12,0.9 M75,236.1c0.7,1.5,1.8,3.2,3.3,5.2c0.6,0.8,1.2,1.6,1.8,2.2
			 M288.7,239.1c-1.6,0.6-3.3,1.3-5.2,1.9c-3.3,1.1-6.2,1.8-8.5,2.2c0.1,1,0.3,1.9,0.5,2.7c0.2,0.9,0.5,1.7,0.8,2.2 M277.8,227.9
			c0.3,1,0.7,2.1,1.1,3.5c0.1,0.3,0.3,0.7,0.4,1c2.1-0.1,4.2-0.4,6.3-1.1c0.5-0.2,1-0.3,1.5-0.4 M245.9,238.8l-0.1,5.4
			c0,0.1,0.2,2,0.8,5.9c0.3,1.7,0.6,3.3,0.9,4.7 M254.3,239.4c0.1,1.4,0.2,2.9,0.3,4.5c0.2,2.6,0.4,4.9,0.7,6.9 M273,228.9
			c0.1,0.1,0.6,1.2,1.6,3.2c0.1,0.1,0.1,0.1,0.1,0.2c0.9,1.7,1.7,3.3,2.5,4.8c0.8-0.1,1.7-0.3,2.7-0.4c0.3-0.1,0.6-0.1,0.9-0.1
			c-0.5-1.1-1-2.5-1.6-4.2 M277.3,237.1c-0.9,0.1-1.8,0.1-2.5,0.1v3.1c0.1,1,0.1,2,0.2,2.9 M274.8,232.3v4.9 M250.6,239.4
			c0.3,2.7,0.7,5.9,1.3,9.7c0.2,1.2,0.4,2.3,0.6,3.3 M280.9,236.6c1.1-0.2,3.5-0.8,7.3-1.9 M220.6,218.1c-0.3,2.6-0.6,5.5-1,8.7
			c-0.1,1.2-0.3,2.5-0.4,3.7c0.7-1.1,1.4-2.2,2.1-3.2c1-1.5,2-2.8,2.8-3.9 M219.2,230.5c-0.6,5.3-1.2,10.1-1.8,14.4 M234,233.4
			c-0.8,2.6-1.5,5.3-2.1,8c-0.2,1.1-0.6,4.1-1,9c-0.2,2-0.3,3.8-0.4,5.6c-0.1,0.6-0.1,1.3-0.1,1.9 M239.9,236.9
			c-0.3,1.1-0.6,2.3-0.9,3.5c-1.4,6-2.3,11.2-2.8,15.6c-0.1,0.7-0.2,1.3-0.2,2 M214.8,216.3c0.3,4.4,0.6,9.2,1.1,14.3 M228.1,228.3
			c-1.9,3.3-4.1,7.2-6.5,11.7c-1.5,2.8-2.9,5.4-4,7.6c0-0.2,0-0.3,0-0.5 M218.2,252.7c0,0.3,0.1,0.5,0.1,0.8"/>
	</g>
</g>
<g transform="matrix( 1, 0, 0, 1, 0,0) ">
	<g>
		<path id="Layer0_0_1_STROKES" fill="none" stroke="#000000" stroke-linecap="round" stroke-linejoin="round" d="M328.1,75.3
			c0,0.2,0,0.4-0.1,0.6c-0.1,0.1-0.1,0.1-0.2,0.2c-0.1,0-0.3,0-0.4,0c-0.1,0-0.2-0.1-0.2-0.2c-0.1-0.1-0.1-0.2-0.1-0.3v-0.2
			c0-0.1,0-0.2,0-0.3c0-0.3,0.2-0.6,0.4-0.7c0.1-0.1,0.4-0.1,0.7-0.1c0.4,0,0.9,0.2,1.2,0.5c0.6,0.4,0.9,1.1,0.9,2
			c0,0-0.1,0.5-0.1,1.4c0,0,0,0.1,0,0.1c-0.3,0.9-0.8,1.4-1.6,1.6c-1.3,0.2-2.5,0-3.8-0.7c-1-0.6-1.8-1.5-2.3-2.6
			c-0.6-1.5-0.7-2.9-0.3-4.2v0c0.2-0.9,0.6-1.8,1-2.5c0.5-0.8,1.1-1.5,2-2c0.9-0.6,1.9-1.1,3-1.2c1.2-0.2,2.4-0.4,3.6-0.4
			c1.1,0,2.3,0.2,3.6,0.5c0.7,0.2,1.4,0.5,2.2,0.8c1,0.4,1.9,0.9,2.9,1.4c1,0.5,2,1.1,3,1.8c0.8,0.5,1.5,1.2,2.2,1.9
			c0.7,0.7,1.3,1.4,1.8,2.1v0.1c0.5,0.8,1.1,1.6,1.6,2.4c0.6,1,1.3,2.2,2,3.5c1.2-0.9,2.5-2.6,3.9-5.2c1.4-2.6,2.6-5,3.5-7.4
			c0.1-0.4,0.3-0.8,0.4-1.1c-0.2,0.1-0.3,0.3-0.5,0.5c-0.9-0.9-1.7-1.6-2.2-2c-0.2-0.2-0.4-0.3-0.5-0.5c-0.7-0.6-1.4-1.2-2.1-1.8
			c-3.6-2.9-7.5-5.4-11.7-7.5c3.1-2.2,6.2-5.1,9.1-8.8c5.5-6.9,8.2-14.1,8.2-21.7c0-1.9-0.3-3.7-0.8-5.5c0.7,0.2,2.5,0.4,5.3,0.8
			s7.8,0.1,14.8-0.7c7-0.8,17-5.8,29.9-14.9c1.6,2.9,5.5,7.2,11.8,13c6.2,5.8,12.4,8.8,18.6,8.9c-1,1.8-2.2,4.6-3.5,8.5
			c-0.7,2-1.3,4.2-2,6.5h3.8c3,0.2,4.5,0.9,4.5,2.1c0,1.1-1.4,2.9-4.4,5.2c-1.3,1.1-2.8,2.2-4.5,3.2c1.7,1.2,3.3,1.8,4.8,1.8
			c1.6,0,3.1-0.6,4.5-1.8c0.5-0.4,1.8-1.7,4-4c3.7-3.9,7.8-5.9,12.2-5.9c2.9,0,5.1,1,6.5,3c1.1,1.5,1.6,3.3,1.4,5.3
			c-0.2,2-0.5,3.3-1,3.9c-0.5,0.6-1.3,1-2.5,1.3c-1.2,0.3-2.2,0.3-3,0.2c-0.6-0.1-1.1-0.2-1.5-0.2c-0.9,0-1.4,0.2-1.4,0.8
			c0,0.1,0,0.3,0,0.4c1.7,0,2.5,0.8,2.5,2.3c0,0.2-0.1,0.5-0.3,0.9c-0.3,0.4-0.6,0.6-1.1,0.6c-0.4,0-0.8-0.1-1.1-0.3
			c-0.4-0.3-0.6-0.4-0.8-0.5l-0.1,0.5l-0.2,0c-0.2-0.2-0.3-0.4-0.3-0.6c0-0.3,0.4-0.5,1.2-0.5c0.1,0,0.3,0.1,0.6,0.3
			c0.2,0.2,0.5,0.4,0.9,0.4c0.5,0,0.8-0.4,0.8-1.1c0-0.6-0.6-1-1.9-1.1c-1-0.1-1.6-0.3-1.8-0.7c0,0-0.1,0-0.1,0
			c-0.1-0.1-0.1-0.3-0.1-0.6c0-0.6,0.7-1.1,2-1.5c3.8-0.8,5.3-2.4,4.3-4.8c-1-2.4-2.3-3.7-3.9-3.9c-1.5-0.4-2.2-0.7-2.2-0.7
			c-1.4,0-3.1,0.7-5.1,2c-1.5,1-2.7,1.9-3.5,2.8c-0.8,0.8-1.7,2.3-2.8,4.4c-1.1,2.3-1.8,3.8-2.3,4.6c-1.5,2.6-3.4,4.8-5.7,6.5
			c-0.2,0.1-0.3,0.2-0.4,0.3c0.2,0.1,0.5,0.2,0.7,0.3c2.7,1.3,4.7,2.4,6,3.5c-0.1,0.7-0.2,1.8-0.4,3.3c-0.7,3.2-2.1,6.2-4.4,8.9
			c-1.1,1.3-2.9,3.4-5.4,6.2c-0.6,0.7-1.1,1.2-1.5,1.8c4.8,7.3,8.4,17.3,10.6,30c1.3,7.1,1.9,13.6,2,19.7c-0.6,0.7-1,1.1-1.2,1.4
			c-0.5,0.5-1,1-1.6,1.4c0.9,1.1,1.7,2.2,2.2,3.2c-1.7,1.8-3.5,3.5-5.5,4.9c-3.1,2.3-6.1,3.7-8.9,4.1c-0.3-1.6-0.8-3.4-1.4-5.3
			c-4.5,2.7-10.1,4.8-16.8,6.3c-3.3,0.8-6.7,1-10.2,0.7l-0.1,0.4l-0.1,0.4c0.4,1.2,0.8,2.3,1.1,3.3c0.6,1.2,0.9,3.5,0.9,7
			c0,3.4-0.9,6.8-2.8,10.1c-0.7,1.2-1.3,2.3-1.9,3.4c-1.1,2.2-2.2,4.4-3.4,6.6c-0.2,0.5-0.5,1-0.7,1.5c0.5,7.8,0.4,15.6-0.3,23.5
			c-1.1,0.9-2.3,1.9-3.7,3c-0.7,0.6-1.3,1.1-1.9,1.5c0.1,1.1,0.2,2.2,0.4,3.4c0.3,1.2,1,3.9,2.2,8.2c0.5-0.3,1.1-0.7,1.8-1
			c1.1-0.5,2.7-1.1,4.8-1.7l3.4,5.6c1.1,1.7,1.9,3.1,2.5,4.3c0.2,0.4,0.4,1,0.6,1.7c-0.4,0.5-1.1,1-2.2,1.7c-1.7,1-3.1,1.9-4.1,2.8
			c-0.1,0-0.6,0.4-1.6,1.2c1.4,2.9,2.9,6,4.5,9.2c0.3,0.6,0.6,1.3,1,1.9c0,0,0,0.1,0,0.1c3.7,7.5,7.5,16.2,11.2,26.1
			c3.7,9.9,5.9,19.6,6.4,29.1c0.3,5.6-0.1,10.7-1.1,15.4c-0.7,3.2-1.6,6.3-2.9,9.1c-2.8,6.2-6.3,13.4-10.4,21.6
			c0.6,1.3,2.9,2.9,7.1,4.6c4.6,2,9.1,3.2,13.4,3.7c4.3,0.5,7.1,1,8.2,1.5c1.2,0.5,1.9,1.6,2.1,3.2c0.3,1.6-0.6,2.9-2.7,3.8
			c-2.1,0.9-4.7,1.4-8,1.4c-3.3,0-7.6-1.3-12.9-3.9c-5.3-2.6-10.2-6-14.5-10.1c-0.4-3.9-0.5-8.6-0.4-14.1c0.1-6.7-0.3-14-1.3-21.7
			c-0.6-5-1.5-10.3-2.6-15.8c-2.8-13.9-7.9-27.6-15.1-41c-0.1,4.4,0,8.2,0.3,11.2c0.5,5.5,0.8,14.6,1,27.4c0.1,9-0.7,16.9-2.5,23.6
			c-0.7,2.7-1.6,5.1-2.6,7.5c-3.6,8-6.6,13.9-9.1,17.7c-2.5,3.7-3.7,6.1-3.6,7c0,0.9,0.8,2.5,2.4,4.7c1.6,2.2,3.8,4.2,6.8,5.9
			c2.9,1.7,5.4,3.3,7.5,4.6c2.1,1.3,2.5,2.9,1.2,4.6c-1.3,1.7-4.1,2.5-8.4,2.4c-4.3-0.2-8.5-3.4-12.6-9.6c-2.8-4.3-4.7-7.5-5.6-9.5
			l-0.6-1.9l0-6.4c0.2-1.2,0.4-2.6,0.7-4.2c0.9-5,1.6-11,2.1-18c0.2-3,0.3-6.1,0.1-9.3c-0.2-4.3-0.8-8.7-1.7-13.2
			c-1.6-8-3.4-15.2-5.4-21.6c-1.5-4.7-2.5-10-3.2-15.6c-1,0.2-2.1,0.2-3.3,0.2c-2.1,0-4-0.4-5.8-1c-1.8-0.7-2.6-1.5-2.4-2.5h1.2
			c0.3,0.1,1.5,0.3,3.5,0.5c1.6,0.1,2.8,0.2,3.6,0.2c-0.9-0.1-2.1-0.8-3.6-2.2c-1.5-1.5-2.3-3.6-2.2-6.3l0.2-2.5
			c0.3,0,0.6,0.1,0.8,0.1c0-0.2,0-0.4,0-0.5c0.2-0.7,0.2-1.2,0.2-1.4c0.2,0,0.2-0.1,0.2-0.2c0.1,0.1,0.8,1.4,2.1,3.9
			c0.9,1.7,1.8,2.9,2.8,3.6c-0.2-0.4-0.4-0.9-0.5-1.5c-0.4-1.3-0.6-2.5-0.6-3.8c0-1.7,0.3-2.9,1-3.8c0.1-0.1,0.1-0.2,0.2-0.2
			l1.9,6.2c0.1-3,0.4-6,0.9-9c0.1-0.7,0.3-1.3,0.4-2c0-0.2,0.1-0.3,0.1-0.4c-0.9-0.3-1.9-0.7-3.1-1.1c-1.5-0.6-2.3-0.9-2.6-1.1
			c0-0.1-0.1-0.3-0.3-0.4c1.2-2.8,2.2-5.1,3-7.1c-0.9-2.7-1.8-5.8-2.6-9.1c-2-7-2.2-15.1-0.7-24.2c-1.2-0.2-2.4-0.5-3.4-0.8
			c-0.4-0.1-0.7-0.2-1.1-0.4c-0.7-0.3-1.3-0.5-1.9-0.8c-0.1-0.7-0.3-1.5-0.5-2.3c-0.8-3.7-1.1-5.6-1.1-5.6c0-0.6,1.4-3.7,4.2-9.4
			c1.3-2.6,2.3-4.7,3-6.2c1,0.8,2.1,1.7,3.3,2.6c0-0.3,1.1-3.4,3.3-9.4c0.6-1.7,1.2-3.4,1.9-5c1.7-4.3,3.6-8.5,5.7-12.8
			c0-0.1,0.1-0.2,0.1-0.3c2.8-5.8,5.6-10.9,8.4-15.4c2.8-4.5,4.6-7.4,5.4-8.6c0.1,0.1,0.1,0.3,0.2,0.4c0.3-0.5,0.6-1.1,0.9-1.7
			c0.2-0.4,0.4-0.9,0.6-1.3c0-0.2,0-0.3,0.1-0.4c0.1-2.2,0.3-4.6,0.5-7.2c0.2-2,0.3-4.8,0.4-8.5c-1.1-0.5-2.1-1.1-2.9-1.9
			s-1.1-1.5-1.1-2h-0.1c-0.4,1-0.9,1.9-1.5,2.7c-1.1,1.5-2.7,2.2-4.6,2.2c-3.7,0-5.5-2.3-5.5-6.9c0-3.2,0.3-5.4,0.9-6.5
			c0.1-0.1,0.2-0.3,0.2-0.4c-1.2,0.7-2.8,1.6-4.7,2.8c-2,1.1-3.9,1.6-5.7,1.2c-1.8-0.3-3.2-1-4.2-2c-1.1-1-1.7-2.9-2-5.7
			c-0.3-2.7,1.1-5.5,4.1-8.2c1.4-1.3,2.6-2.1,3.7-2.6c-0.8-0.1-1.7-0.4-2.9-0.9c-2.5-1.1-4-1.9-4.7-2.4c-0.6-0.5-1.4-1.3-2.2-2.5
			s-1.2-2.4-1.1-3.7c0-1.3,0.3-2.5,0.8-3.6c0.5-1.1,1.8-1.9,4-2.3c2.2-0.4,4.6,0.4,7,2.4c2.4,2,4.4,3.5,6,4.3 M388.4,28.4
			c0.9,3.3,1.7,5.9,2.5,7.7c0.2,0.6,0.5,1.1,0.7,1.5c0,0.1,0.1,0.2,0.1,0.2c2.3,4.1,5.5,6.2,9.7,6.2c2.7,0,5-1.8,7.1-5.5
			c0.2-0.4,0.5-0.9,0.7-1.3c0.4-0.8,0.7-1.6,1-2.4c0.8-2.3,1.2-4.8,1.2-7.3c-1-0.4-2.1-0.7-3.2-0.9c-2-0.4-4.4-0.6-7.2-0.6
			c-1.2,0-4.1,0.5-8.6,1.5C390.8,27.9,389.4,28.2,388.4,28.4z M410.2,34.8c1.5,0.3,2.9,0.6,4.2,1.1c3.6,1.2,7.2,3.2,10.9,5.9
			c1.7-0.1,3.5-0.1,5.2-0.1h2.6 M425.4,41.8c-1.5,0.1-3,0.2-4.5,0.2c-9.7,0.6-19.2,2.2-28.5,4.8c-10.3,2.8-19.4,7.5-27.1,13.9
			c4.1,1,8,2,11.7,3.1c1,0.3,2.1,0.5,3.1,0.7c2.8,0.6,5.5,0.8,8.1,0.8c6.1,0,12.1-0.7,18.1-2.2c6.4-1.5,12.9-3.9,19.2-7.1
			c2.6-1.3,5-2.7,7.1-4 M435.1,66.4c-3.3-1.4-6.4-2.3-9.4-2.6c2.1,0.8,4.2,1.7,6.3,2.7c0.6,0.3,1.2,0.5,1.7,0.8
			c2.2,1.1,3.7,2.1,4.5,2.9 M436.2,70.8c-1.4-0.8-2.9-1.7-4.5-2.4c-1.5-0.7-3-1.4-4.7-2c-3.6-1.4-6.2-2.1-7.8-2.2h-0.1l-1.1,0.3
			c0.3,0.5,0.5,1,0.7,1.4c1.5,0.3,3.1,0.7,4.6,1.2c1.3,0.5,2.9,1.2,4.8,2.2c1.5,0.7,3.1,1.6,4.9,2.7 M406.2,63.3
			c6.2,3.5,11.9,5.5,17.1,6.2v0c0,0,0,0,0,0c0,0,0.1,0,0.1,0c-1.8-1-3.2-1.7-4.1-2c-0.2-0.4-0.5-1-0.8-1.7 M423.4,69.6L423.4,69.6
			c0.7,0.4,1.4,0.9,2.1,1.4c1.6,1.1,3.5,2.4,5.5,3.9c-3.5,3.8-5.7,6.2-6.7,7.3c-1.5,1.7-2.3,2.9-2.3,3.8c0,0.2,0.4,0.8,1.2,1.8
			c0.4,0.4,0.7,0.8,1,1.2c1.5,4.6,2.7,11.2,3.7,19.9c0.9,8,1.4,16.4,1.6,25.2c2.3,1.4,4.5,3.1,6.6,4.9c1.5,1.4,2.8,2.7,3.9,3.9
			 M423.4,69.6c0,2.3-0.1,3.7-0.3,4.5c-0.1,0.4-0.5,1.9-1.3,4.7c-0.3,1-0.7,2.2-1.1,3.6c0,0.1,0,0.1-0.1,0.2c0.5-0.2,1-0.4,1.5-0.7
			 M419.2,64.2c0.8-0.3,2.3-0.4,4.4-0.4c0.7,0,1.4,0,2.1,0.1 M417.1,82.6l-1.3-0.2c-0.3-0.1-0.6-0.1-0.9,0c-1.4,0.3-2.6,1.1-3.7,2.2
			l-1.2,1.5c-0.6,1-0.9,1.8-0.8,2.4c0,0.2,0.1,0.4,0.3,0.6c0.2-0.6,0.4-1.2,0.7-1.9c0.4-1,0.9-1.5,1.4-1.7c0.3-0.2,0.6-0.3,1-0.2
			c0.1,0,0.1,0,0.2,0.1c0.1,0.2,0.3,0.5,0.4,0.9c0.1,0.2,0.1,0.5,0.1,0.8c0,0.4-0.3,1-0.8,1.8l-0.8,0.8c-0.1,0-0.1,0.1-0.2,0.2
			c1.1,0.4,2,0.6,2.7,0.7h0c1.6-1.9,2.5-3.6,2.8-5.2C417.3,84.7,417.3,83.7,417.1,82.6c1-0.2,1.9-0.7,2.6-1.4 M420,84.2
			c0-0.1,0-0.2,0.1-0.2c0,0,0,0-0.1,0C420,84.1,420,84.2,420,84.2C420,84.2,420,84.2,420,84.2z M417.1,82.6c0.6,0.6,1.8,0.6,3.4,0
			c-0.1,0.3-0.2,0.7-0.5,1.4 M409.6,89.1c0.3,0.4,0.9,0.7,1.7,1c0.1,0,0.1,0.1,0.2,0.1 M416,90.6c-0.5,0.3-1.1,0.4-1.8,0.3l0,0l0,0
			h0 M406,100.3c0.1-0.3,0.8-0.7,2-1.4c1.4-0.8,2.2-1.3,2.6-1.7c1-1,1.5-1.6,1.6-1.7c0.4-0.5,0.5-1,0.5-1.6c0-0.4-0.1-0.7-0.5-0.9
			l-5.1-0.1c-0.8,0-1.3-0.2-1.5-0.7c-0.1-0.1-0.1-0.4-0.1-0.9c0-2.1,1-4.2,3-6.3c2.4-2.6,5.6-4.2,9.6-4.9 M420,84.3
			c-0.8,2.9-1.3,5-1.3,6.4c0,1.3,0.4,2.8,1,4.6c0.7,1.8,1.1,3.6,1.1,5.3c0,1.2-0.2,2.3-0.5,3.1c-0.4,1.1-1,2.1-1.8,3
			c-0.3,0.6-0.6,1.3-1,2c-0.7,1.3-1.5,2.8-2.5,4.4c5.2-0.5,7.8,1,7.8,4.6c0,0.8-0.7,1.5-2,1.9c-1.1,0.4-2.5,0.6-4,0.6
			c-1.5,0-2.6-0.1-3.2-0.2c-0.8-0.3-1.7-0.6-2.6-0.8c0.1,0.1,0.3,0.4,0.7,1c0.4,0.6,0.5,1.3,0.5,2.1c0,1.2-0.5,2.6-1.4,4.2
			c-1,1.7-2,2.5-3.1,2.5c-1.1,0-2.3-0.4-3.5-1.3c-1.2-0.8-2.1-1.9-2.8-3.2l-0.2-0.2c0,1.1-0.8,2.3-2.4,3.6c-1.6,1.3-3,1.9-4.2,1.9
			c-1.3,0-2.4-0.7-3.2-2c-0.7-1.2-1-2.2-0.8-3.2c-0.8,0.7-1.7,1-2.8,1c-0.4,0-0.9-0.2-1.6-0.6c-0.4-0.2-0.7-0.5-1-0.7
			c-0.6,0.3-1.1,0.6-1.5,0.8c0,0-0.1,0.1-0.1,0.1c0,0,0.1,0,0.1,0c0.1,1,0.5,2.7,1.2,5c0.7,0.9,1.4,1.9,2.1,3c1.7,0.5,3.5,1,5.4,1.5
			c2.3,0.5,4.6,0.9,7.1,1.2c2.6,0.3,5.3,0.4,8.1,0.4c0.1,0,0.3,0,0.5,0c0.9,0,2.8-0.1,5.4-0.1c2.7-0.1,4.6-0.2,5.9-0.2
			c-0.7-0.8-1.3-1.5-2-2.1c0.2-0.3,0.4-0.6,0.6-0.9c0.2-0.4,0.6-0.6,1.2-0.6c1.2,0,2.2,0.5,3.2,1.5c0.2-0.2,0.4-0.7,0.7-1.4
			c0.2-0.4,0.5-0.6,1-0.6c0.8,0,2.3,0.7,4.5,2.1c0.1,0.1,0.3,0.2,0.4,0.2 M414.1,71.6c0.4,1.5,3,3.2,7.8,5.1 M356.2,65.4
			c1.3-1.8,2.6-3.5,4-5.2c4.5-5.5,9.4-10.5,14.9-14.8c4-3.2,7.9-5.7,11.6-7.5c1.4-0.7,2.8-1.3,4.1-1.8 M367.8,116.6c0-0.9,0-1.9,0-3
			c0-0.9,0-1.9,0-2.9c0-5.5-0.1-9.2-0.1-11.3c0-0.8-0.1-1.6-0.1-2.3c-3.5,3.1-6.5,2.2-8.9-2.7c-1.1-2.3-1.8-4.7-2.1-7.2v-1.8
			c0-0.6,0-1,0-1.1c0-2,0.3-3.6,1-4.7c0.6-1.1,2-1.7,4.2-1.7c2.2,0,4,1.3,5.5,4.1c4.5-2.7,7.5-4.9,9-6.8c2.2-2.7,3.5-6.2,3.8-10.7
			 M396.8,84.6c-0.1,0.5-0.7,1-1.8,1.3c-0.7,0.2-1.6,0.3-2.7,0.4H389h-1.1c-0.8-0.1-1.4-0.3-2-0.3c-0.2,0-0.5,0-0.7-0.1
			c-0.1-0.6-0.2-0.9-0.3-0.9c-0.1-0.1-0.1-1,0.1-2.8c0.2-1.8,1.1-3.6,2.8-5.4c1.7-1.8,3.2-2.6,4.6-2.5c0.5,0.1,0.9,0.1,1.2,0.1
			c0.6,0,0.9,0,0.9,0c0-0.1,0.3-0.1,0.9-0.2c0.5-0.1,1.1-0.3,1.8-0.7c0.6-0.4,1-0.8,1.1-1.4 M383.5,72.9c0.5-0.5,2-1.3,4.5-2.5
			c3.2-1.3,6.1-2,8.8-2.1c2.6-0.2,4.8-0.2,6.7,0 M393.8,74.4l2.1,0.6c1.6,0,2.8-0.2,3.6-0.7c0.4-0.2,0.9-0.6,1.5-1.1 M393.8,74.4
			c0.7,1.2,1.2,2.3,1.5,3.2c0.4,1.4,0.5,2.9,0.5,4.4c0,0.6-0.1,1.3-0.2,1.9c-0.1,0.3-0.3,0.9-0.6,1.8 M389,86.2
			c0.1-0.2,0.1-0.3,0.2-0.4c0.1-0.1,0.2-0.3,0.4-0.5c0.2-0.2,0.4-0.8,0.6-1.9v-1.2c-0.1-2.5-0.6-3.7-1.6-3.7c-0.1,0-0.5,0.1-1.2,0.3
			c-0.3,0.1-0.7,0.5-1.2,1.1c-0.6,0.6-0.8,1.3-0.8,2.1c0,0.7,0,1.4,0,2.1l0.4,1.3c0.1,0.2,0.1,0.3,0.2,0.5 M388.3,92.4
			c0.2-0.2,0.7-0.5,1.5-0.8c1.3-0.6,2.4-1.2,3.1-1.8c0.7-0.6,1.4-1.3,2-2.2c0.1-0.2,0.2-0.3,0.2-0.4 M402.1,97.1
			c1.5-0.1,2.3,0.4,2.4,1.3 M365.3,60.8c-2.2,1.9-4.3,3.9-6.3,6.1 M418.6,106.7c-0.5,0.5-1.1,1.2-2,2.2c-0.9,0.9-2.7,2.2-5.5,3.9
			s-5.1,2.9-6.9,3.6c-1.9,0.7-4.4,1.7-7.5,3s-5.5,2.3-7.1,2.9c-1.6,0.6-3.1,1.3-4.3,1.9 M382,103.8c0-0.3,1-0.7,3-1.2
			c1.9-0.5,3.2-0.7,3.8-0.6c2.2-0.4,4.5,0.4,7.1,2.5c2.2,1.8,3.2,3.1,3.2,4c0,0.2-0.2,0.3-0.5,0.3c-0.2,0-1.4-0.5-3.4-1.5
			c-2.2-1.1-3.6-1.7-4.2-1.8c-2.2-0.5-4.4-0.9-6.8-1.2C382.7,104.3,382,104.1,382,103.8z M367.8,113.6c2.1,2.2,4.9,4.6,8.5,7
			c3.1,2.2,5.6,3.7,7.5,4.5 M366.9,132.3c1.1,1,2.1,1.9,3.2,2.8c2.4,2,4.5,3.5,6,4.5l2,1.2v0.1c0-0.1,0.1-0.6,0.4-1.6
			c0.2-0.8,0.4-1.8,0.7-3.1c0.4-1.9,0.7-3.4,0.9-4.4c0.8,1,2,2.8,3.6,5.4c0.1,0.2,0.2,0.4,0.4,0.6c0.1,0.2,0.3,0.4,0.4,0.7
			c0.6-0.2,1.3-0.6,2.1-1.1c0.3-0.2,0.6-0.3,0.8-0.5c-0.5-1.2-1-2.6-1.5-4.1c-0.2-0.5-0.3-1-0.5-1.6c-0.1-0.4-0.2-0.8-0.4-1.1
			 M384.1,137.8c0,0.2-0.1,0.3-0.1,0.6c0,0.1-0.1,0.2-0.1,0.3c-0.2,0.5-0.4,1.1-0.6,1.8c-0.1,0.2-0.1,0.3-0.2,0.5
			c1.9,5.5,3.5,11.3,4.9,17.3c0,0.1,0,0.2,0,0.2l4.4-2.1v-0.2l0.6-7.4l3.3,6.1l4.1-0.8l-1.1,2.7 M378.5,139.3c0.5,0.5,1.2,1.1,2,1.9
			c-5.1,6.1-8.6,15.7-10.5,28.9c-1.2,8.3-1.6,15.7-1.2,22.3c0.4,0.7,1,1.5,1.6,2.4c0.4,0.7,0.8,1.3,1.1,1.8c0.5-0.4,1.2-0.9,2-1.5
			c0.4-0.3,0.8-0.6,1.2-0.9c-0.6-6.5-0.2-14.6,1.1-24.5c1.2-9.6,3-18.6,5.4-26.8c1.2,7.3,1.7,14.7,1.6,22.2c-0.1,9-1,18-2.6,26.9
			c-1.3,7-2.8,13.8-4.6,20.5c1.1,1.4,2.6,3,4.3,4.9c1.1,1.2,2.1,2.3,2.9,3.2c0.9-0.7,2.1-1.7,3.6-2.9 M408.4,136.2
			c0.4,1.7,0.7,3.6,0.9,5.6v3.8h-7.4c0-3.1-0.4-5.7-1.2-7.8c-0.3-0.7-0.6-1.4-0.8-1.9 M352.5,227.2c1.4-2.2,2.2-3.5,2.5-4
			c0.5-1,1-1.9,1.4-2.9c3.2-8.3,5.1-16.9,5.8-25.9c0.4-5.7,0.6-11.4,0.7-17.1c0,0,0-0.1,0-0.1c0-1.8,0-4.6,0.1-8.3
			c0-0.4,0-0.8,0.1-1.2c-0.3,1.1-0.7,2.2-1.1,3.5c-2.1,7-4.4,15.2-6.8,24.8c-0.6,2-1,4.2-1.3,6.8c-0.3,2.5-0.6,5-1,7.5
			c-0.2,2.2-0.5,4.7-0.8,7.3c-0.3,2.7-0.5,5.2-0.7,7.7c0.2,0.3,0.4,0.7,0.6,1.1C352.1,226.6,352.3,226.9,352.5,227.2
			c0.1,0.1,0.1,0.2,0.2,0.3c0.7,1.2,1.5,2.3,2.3,3.4c0.3-0.6,0.5-1.1,0.7-1.4c0.9,0.5,2,1.1,3.2,1.6c1.2,0.6,2.1,1,2.5,1.2
			c0.4,0.2,0.9,0.5,1.5,0.9l4.5,2.9c0.2,0.2,0.3,0.3,0.2,0.4l-0.1,0.2c0.9,0.1,1.8,0.2,2.8,0.2c0.2,0,0.3,0,0.5,0
			c3.1,0,6.6-0.6,10.6-1.7c0.7-0.2,1.3-0.4,2-0.7c2.3-0.7,4.2-1.5,5.8-2.2c-0.3-0.9-0.7-1.8-1.1-2.7c0,0,0-0.1,0-0.1
			c0.2-0.1,0.4-0.3,0.7-0.4 M351.4,159.3c0.4,0.2,0.8,0.5,1.2,0.7c3.4,1.8,5.8,2.8,7.1,3c-0.4,3.6-1.3,6.4-2.9,8.5
			c-1.6,2.1-3.6,3.1-6.1,3.1c-1.7,0-3.2-0.6-4.6-1.8c-0.2-0.2-0.4-0.3-0.6-0.5 M340.3,186.8c1.1,0.8,2.2,1.7,3.5,2.6
			c4.3,3.1,8,5.2,11.3,6.5 M387.9,158.5c0,0.2,0.1,0.4,0.1,0.6l3,1.9l0.2,6.1l3.3-4.6l5.4,2.1l-2-4.4l0.8-2.1l0.4-0.9 M398.8,158.1
			l0.2-0.5 M392.3,156.4c0.1-0.1,0.2-0.1,0.2-0.1c0,0-0.1-0.1-0.2-0.1 M392.3,189.6c-0.1-1.6-0.2-3.3-0.4-4.9
			c-1.1-10.2-2.4-18.7-3.9-25.6 M426.3,149.8c-0.3-1.1-0.7-2.2-1.1-3.3c-1.8-4.7-3.6-8.2-5.5-10.6 M367.6,236.8l-2.5,6.6
			c-0.2,0.5-0.4,0.9-0.6,1.4c1.7,0.4,3.7,0.6,6.1,0.6c0.1,0,0.3,0,0.5,0c0-3.7-0.1-5.9-0.2-6.5c0-0.1-0.1-0.2-0.1-0.2
			c-0.1-0.6-0.2-1.1-0.3-1.6 M381.5,235.3c0.2,0.6,0.4,1.2,0.6,1.9c0.1,0.3,0.1,0.6,0.2,0.9c0.4,1.6,0.6,2.8,0.7,3.6
			c0.1,0.5,0.1,1.1,0.2,1.6c2.2-0.9,5-2.5,8.2-4.9c0.5-0.4,0.9-0.7,1.4-1.1c-1.3-2.7-2.1-4.6-2.5-5.6c-0.2,0.1-0.5,0.3-0.6,0.4
			c-0.1,0-0.3,0.1-0.4,0.2 M371.1,245.4c4.8,0,8.8-0.7,12-2c0,0,0.1,0,0.1-0.1 M394.1,243.8c-0.9-1.9-1.8-3.6-2.6-5.4 M337.8,209.6
			c3.2,0.6,6.8,0.9,10.7,0.9c1.5,0,2.9-0.1,4.3-0.4 M351.4,225.1c-0.6,6.4-1,12.1-1.1,16.9c0.4-0.9,0.9-2,1.5-3.3
			c0.2-0.4,0.3-0.8,0.5-1.1l1.8-4.4c0.3-0.7,0.6-1.2,0.8-1.8c0.1-0.2,0.1-0.3,0.2-0.5 M352.1,245.5c-0.3-0.2-0.6-0.5-0.9-0.7
			c-0.4-0.3-0.8-0.6-1.1-0.9c0,1.1-0.1,2.2-0.1,3.2c0,0.7,0,1.4,0,2.1c0,1.1,0,2.2,0.1,3.6C350.7,250.2,351.4,247.8,352.1,245.5
			c0.8,0.6,1.7,1.2,2.8,1.8c0.3,0.2,0.7,0.4,1.1,0.6c2.9,1.7,4.7,2.9,5.5,3.4c0-0.1,0.1-0.2,0.2-0.3c0.5-1,1.4-3.1,2.8-6.3
			 M350.2,242c0,0.7-0.1,1.3-0.1,1.9 M350.1,252.8c0,0.1,0,0.1,0,0.2c0,0.6,0.1,1.3,0.1,2c0.2,2.6,0.4,5.7,0.8,9.1
			c0.2,2,0.4,3.7,0.5,5.1c-0.2,0.3-0.4,0.6-0.6,0.9c-0.4,0.5-1,1.2-1.9,2.1c-0.3,0.3-0.5,0.5-0.8,0.8c0.4,5.7,1.5,12,3.3,18.7
			c3,10.7,4.9,21,5.7,30.9l-0.1,5.2c0.6,0.3,1.4,0.6,2.3,0.9v-0.1c0.4-5.9,0.2-11.8-0.4-17.7c-0.8-7.9-2.1-15.4-4-22.2
			c-1.8-6.9-2.6-14.2-2.5-21.8c0.1-3.9,0.4-7.9,1-11.9c0.1-0.7,0.2-1.3,0.3-2c0.3-1.9,0.7-3.8,1.1-5.7 M342.6,264l0.6,2
			c0.4-0.4,1.4-0.6,3-0.5c0.2,0,0.3,0,0.5,0V262c-0.3-2.1-0.8-4.5-1.6-7c-0.2-0.7-0.4-1.3-0.6-2c0-0.1-0.1-0.2-0.1-0.4
			c-0.1,0-0.2-0.1-0.4-0.1 M341.5,270.8h-0.3c-1.6-0.8-3.1-2.4-4.4-4.8c-0.9-1.7-1.4-3.1-1.6-4.2c0-0.1,0-0.1,0-0.1 M348.2,273
			c-0.8,0.6-1.7,1-2.9,1.4c-0.6,0.2-1.3,0.4-2.1,0.5 M344.4,252.6c-0.2-0.7-0.5-1.3-0.7-2c-0.8-2.2-1.7-4.8-2.6-7.8 M359.4,328.7
			c1,0.3,2.2,0.6,3.6,0.9c2.8,0.6,5,0.9,6.6,0.9c1.5,0,2.6,0,3.4-0.1c0.7-0.1,1.4-0.2,2.1-0.4 M353.5,325.5c1.1,0.8,2.2,1.6,3.5,2.2
			c0,0,0.1,0,0.1,0 M394,324.6c3.8,2.4,7.7,3.6,11.8,3.6c2.7,0,5.2-0.4,7.5-1.4c0.8-0.3,1.8-0.8,2.9-1.2"/>
	</g>
</g>
</svg>
