
<svg xmlns="http://www.w3.org/2000/svg" version="1.1" xmlns:xlink="http://www.w3.org/1999/xlink" preserveAspectRatio="none" x="0px" y="0px" width="550px" height="400px" viewBox="0 0 550 400">
<defs>
<path id="Layer1_0_1_STROKES" stroke="#000000" stroke-width="1" stroke-linejoin="round" stroke-linecap="round" fill="none" d="
M 143.05 96.55
Q 145.6 92.45 148.95 88.55 152.25 84.6 156.5 81.65 160.7 78.75 165.65 76.9 170.55 75 175.65 74.8 180.7 74.5 185.7 74.6 190.85 74.9 194.95 75.7 199 76.45 202.9 78.2 206.75 79.95 209.7 82 212.65 84 216.25 88.05 219.8 92.15 222.65 97.2 225.45 102.2 227.3 106.95 228.45 107.5 229.6 108.15 229.7 109.15 229.7 110.3 229.7 113.55 227.95 116.95 226.95 118.75 225.95 120 224.75 119.45 223.45 119 223.3 122.4 222.95 128.05 222.95 129 222.95 129.7 227 129.1 233.45 126.8 235.95 125.85 238.85 124.7 241.25 126.1 242.65 128.85 244.7 132.8 244.7 139.8 244.7 140 244.55 142.35 242.8 144.7 239.6 147.1 232.05 152.65 222.6 152.65 220.9 152.65 219 152.45 220.65 155.3 221.8 157.9 223.85 162.5 223.85 165.5 223.85 169.3 217.9 176.4 215 179.9 212.05 182.5 213.3 183.1 214.5 183.7 215.95 184.35 217.25 185.15 216.8 185.7 216.3 186.3 215.35 187.8 214.45 189.1 214.4 189.85 214.35 190.9 216.15 191.35 218.7 192.1 220.45 192.5 221.85 192.9 222.1 195.15 222.1 198.7 222.1 203.4 220.6 218.15 222.25 220.9 224.1 223.4 225.5 225.3 227 227.05 227.6 227.7 228.15 228.3 230.95 231.3 234 233.45 236.85 235.5 239.9 236.85 242.75 238.15 245.9 238.8 248.15 239.3 250.55 239.45 251.4 239.5 252.3 239.5 253.2 239.5 254.3 239.45 254.05 235.55 254.05 232.1 256.6 232.9 257.8 233.35 262.05 235.15 264.6 237.7 264.6 237.05 265.05 235.3 265.95 235.3 267.25 236.6 267.25 233.3 269.35 227.55 270 225.85 270.55 224.65 271.3 224.75 272.3 224.85 274.65 225.15 276.75 225.25 277.15 226.3 277.75 227.85 279.35 227.5 279.75 227.5
L 285.8 227.7
Q 286.3 229.05 287.15 230.85
L 287.15 230.9
Q 287.8 232.7 288.2 234.7 288.6 236.85 288.7 239.15 288.85 241.35 288.65 243.65 285.2 244.8 279.05 247.05 277.75 247.55 276.55 248 276.4 248.05 276.25 248.1 272.05 249.65 268.7 250 268.4 249.15 268.4 248.55 266.95 248.55 260.8 251.95 257.8 253.55 255.9 254.6 255.6 252.85 255.3 250.85 253.8 251.6 252.45 252.4 250.6 253.3 248.9 254.15 248.1 254.5 247.35 254.85 245.9 255.5 244.45 256 240.05 257.55 236.05 257.95 235.8 258 235.55 258 234.45 258.1 233.45 258.1 232.35 258.1 231.25 258 230.8 257.95 230.35 257.9 226.9 257.45 223.4 256 220.85 254.95 218.25 253.45 218.4 254.75 218.55 256 218.65 257 218.8 258 218.8 258.4 218.85 258.75 219.05 260.95 219.35 263.15 219.9 268.6 220.55 274.2 220.85 277.35 221.2 280.6 221.5 283.5 221.85 286.45 221.05 287 220.2 287.6 230.05 295 237.65 304.65 245.2 314.35 244.8 329 244.35 343.65 244.7 350.75 244.85 352.95 244.95 354.9 245.5 354.9 246.1 354.9 254.85 354.9 261.95 349.15 265.1 346.55 267.6 343.15 268.4 343.55 269.6 344.15 271.5 345.4 273 347 270 354.1 262.55 360.95 255.05 367.85 249.9 367.95 244.75 368.1 241.35 367.5 237.95 366.9 237.05 366.7 236.85 371.75 236.75 374.55 234.85 374.5 232.55 374.5 231.3 374.5 230.3 374.5 230.3 363.75 228.5 356.35 226.25 347.3 219.85 338.5 211.75 327.3 206.05 322.45 200.45 317.75 190.3 312 182.45 311.9 176.25 311.9 173.1 311.9 159.45 312.5 154.5 312.65 151.3 312.8 157.3 320.55 160 326.45 162.5 331.9 162.5 337.15 162.5 345.15 153.55 350.35 150.4 352.2 133.05 359.3 132.95 365.55 136.9 368.65 140.8 371.75 147.2 371.5 153.6 371.25 158 368.25 158 368.65 158.1 368.6 158.95 372 159.35 373.2 154.2 377.05 150 378.85 145.8 380.65 138.55 380.3 131.35 379.9 125.75 374.2 123 371.35 119.6 362.8 117.95 364.05 114.6 365.8 112.3 367.05 110.5 367.9 109.55 367.05 108.8 366.3 107.2 364.7 105.9 363.2 114.65 358.35 120.35 352.25 128.75 343.3 129.6 332.6 117.45 324.15 109.2 311.15 100.95 298.25 100.1 288.15 95.15 286.2 89.4 283.75 77.45 278.6 72.35 275.6 69.15 273.75 67.95 270.65 67 268.25 67 263.95 67 253.75 69.5 242.85 68.15 240.7 67 237.75 64.9 231.4 63.6 228.1 63.95 227.6 64.35 227.05 65.8 225.1 66.3 223.95 64.3 222.8 64.15 222.65 64.4 222.1 65.45 221.65 66.25 221.3 66.6 221.3 58.45 212.85 55.4 208.95 57.5 208.3 60.35 207.65 62.85 207.05 65.25 206.6 64.55 203.05 64.4 200 64.35 199.1 64.35 198.3 64.35 196.45 64.45 194.7 64.65 188.3 65.75 183 66.3 179.95 67.2 177.3 67.5 176.35 67.85 175.4 70.25 169.05 74.85 162.2 75.35 162.15 75.9 162.15 77.85 162.05 80.5 161.85 83.45 161.65 85.85 161.55 90.15 161.3 92.6 161.3 97.3 161.3 101.5 161.4 101.4 161.25 101.25 161.15 95.55 156.05 94.25 154.65 95.15 154.65 101.8 154.2 108.5 153.75 113.3 153.75 126.15 153.75 134.55 154.55 136.85 154.8 138.75 154.9 139.55 150.9 140.15 146.8 140.9 142 141.4 137.05 140.7 138.05 140.55 138.15 140 138.7 138.8 138.7 136.8 138.1 134.8 135.8 130.8 131.2 130.8 122.75 130.8 119.65 131.95 118.55 132.8 117.65 135.1 117.65 137.15 117.65 139.15 119.15 141.2 120.7 142.55 121.7 142.75 117.8 142.75 113.9 142.75 110.85 142.65 107.75 141.25 107.85 140.55 107.9 140.5 107.9 140.45 107.9 140.15 107.3 139.95 106.65 137.9 101.15 139.75 97.15 141.35 96.85 143.05 96.55 151.5 95.25 161.45 95.05 173.3 94.85 186.15 96.45 198.95 98 211.35 101 219.55 102.9 227.3 106.95
M 207.65 122.85
Q 207.95 122.75 208.4 122.8 210.15 122.8 214.7 123.7 215.05 123.8 215.4 123.85 217.75 124.35 219.25 124.75 220.1 124.9 220.7 125.15 220.15 121.85 219.05 119.65
M 220.7 125.15
Q 221.2 125.25 221.5 125.4
M 215.4 123.85
Q 215.1 124.75 214.9 125 214.35 125.7 212.7 125.7 211.3 125.7 210.1 124.85 211.5 126.1 215.65 126.65 217.65 126.9 219.05 127 219.1 125.55 219.25 124.75
M 219.05 127
Q 219.7 127.05 220.2 127.05
M 208.4 122.8
Q 208.95 124 210 124.8 210.05 124.85 210.1 124.85
M 142.75 113.9
Q 152 122.15 160.7 126.1 166.55 128.75 172.95 129.75 176.45 130.3 180.1 130.3 182.8 130.3 185.55 129.9 188.9 129.5 192.35 128.55 194.55 127.95 196.8 127.1 200.9 125.55 204.9 123.5 208.15 125.15 212.45 127.4 217.55 129.85 220.75 129.85 221.75 129.85 222.95 129.7
M 165.7 115
L 167.7 114.85
Q 168.2 114.85 168.75 114.9 173.15 115.05 180.3 116.7 181.7 117 183.15 117.35 187.85 118.5 191.1 119.5 191.75 119.7 192.25 119.85 191.9 116.7 191.3 113.7 191.1 112.95 190.95 112.2
M 192.25 119.85
Q 194 120.45 195.3 120.95
M 168.75 114.9
Q 169.35 116.95 171 119.1 172 120.55 173.05 121.45 173.45 121.5 173.85 121.5 176.9 121.5 178.65 120.2 180.3 118.95 180.3 117.05 180.3 116.85 180.3 116.7
M 173.05 121.45
Q 173.8 122.15 174.55 122.6 177.45 124.25 179.85 124.75 181.3 125.05 185.2 125.4 185.3 125.4 185.4 125.4 186.9 125.35 188.55 124.95 189.1 124.85 189.55 124.7 190.9 121.15 191.1 119.5
M 172.95 129.75
Q 170.5 132.8 169.05 135.25 167.6 137.7 166.1 142.05 164.55 146.45 163.75 153.85 163.05 160.15 163.15 163.95 165.4 164.6 167.6 165.3 172.4 166.95 177.25 168.75 181.9 170.45 186.75 172.1 191.45 173.85 196.1 175.8 200.1 177.3 203.95 178.9 209 175.8 209 172.15 209 170.65 207.75 169.9 206.05 168.8 201.05 168.15 201.05 168.05 201.15 167.95 201.25 167.85 201.25 167.7 207.6 163.3 208.65 161.95 198.15 160.55 190.75 155.45 180.45 148.25 180.45 136.25 180.45 134.5 180.65 134.25
M 202.85 134.55
Q 202.95 133.45 201.7 132.8 200.75 132.25 199.95 132.25 199.6 132.25 199.3 132.35 196.95 133.1 195.35 139.25 194.95 140.6 194.65 142.2 196.7 144.75 201.55 147.15 203.35 148 205.5 148.85 213.05 151.7 219 152.45
M 189.55 124.7
Q 190 124.5 190.25 124.4
M 185.55 129.9
Q 186.05 130.35 186.75 130.85 191.25 134.25 191.45 134.55 191.65 134.9 193.1 136.6 194.55 138.3 195.35 139.25
M 201.55 147.15
Q 203.3 149.9 206.55 154.65 209.95 159.65 212 162.3 210.25 162.15 208.65 161.95
M 203.95 178.9
Q 204.65 179.2 205.4 179.5 208.8 180.9 212.05 182.5
M 163.15 163.95
Q 160.7 163.15 158.3 162.45 153.6 161.1 148.85 160.25 144.25 159.25 139.5 158.5 138.75 158.35 138.05 158.25 135.5 157.75 133 157.4 132.35 159.05 131.75 160.7 133.1 160.8 134.25 160.85
L 134.35 163.75
Q 134.3 164.85 134.25 166 136.5 166.55 138.85 167.2 157.6 172.05 181.8 180.5 201 187.2 211.5 191.95 211.85 192.1 212.2 192.25 213.25 192.75 214.25 193.25 214.3 192.4 214.35 191.6 214.35 191.2 214.35 190.9
M 134.25 166
Q 133.9 171.05 132.7 176.05 132.85 176.05 133.1 176.1 134.65 176.3 136.3 176.55 151.75 179.1 174.3 184.75 196.4 190.2 209.6 195.05 209.7 195.1 209.9 195.15 210.1 195.25 210.4 195.3 211 195.55 211.65 195.8 212.9 196.3 214.15 196.8 214.15 194.95 214.25 193.25
M 142.65 107.75
Q 144.6 107.65 147.95 107.35 154.65 106.8 158.15 106.8 175.95 106.8 197.3 111.4 213.1 114.8 223.45 119
M 75.9 162.15
Q 76.45 162.6 77.05 163.1 80.25 165.85 83.25 169.8 84.9 172.05 87.65 176.2 89.25 178.45 90.75 182.25 91.1 183.05 91.35 183.8 91.6 184.5 91.85 185.15 92.65 185.5 93.6 185.85 94.35 186.1 95.05 186.35 95.35 186.45 95.6 186.6 95.5 186.15 95.45 185.75 95.1 183.9 94.65 181.7 94.55 181.1 94.4 180.45 92.1 169.6 90.5 167.35 87.8 163.5 85.85 161.55
M 64.45 194.7
Q 67.35 195.5 71.05 196.7 74.8 197.9 77.55 198.8 79.7 195.2 83.15 191.35 83.6 190.9 84.05 190.4 80.45 188.6 73.45 185.95 68.85 184.25 65.75 183
M 67.85 175.4
Q 72.25 177.35 74.9 179.05 83.95 184.95 87.2 187.25 88.8 185.75 90.35 184.55 90.85 184.15 91.35 183.8
M 133.75 127.3
Q 133.7 125.35 133.65 124.5 133.6 123.05 135.15 123.05 136.45 123.05 138 124.7 139.8 126.6 141.2 130.15 140.5 130.25 138.95 131.25 136.95 132.6 136.95 133.85 136.95 134.4 138.3 134.75 139.7 135.1 141.55 135.1
M 101.5 161.4
Q 102.4 161.4 103.3 161.4 107.75 161.45 111.6 161.65 116 161.8 119.65 162.15 119.75 160.65 119.75 159.4 119.75 159.35 119.75 159.3 121.45 159.5 124 159.85 128.65 160.45 131.75 160.7
M 103.3 161.4
Q 103.5 161.95 103.65 162.55 103.8 163.1 103.95 163.7 104.4 166.05 104.8 168.65 105.75 175.4 105.75 183.5 105.75 183.95 105.4 189 105.35 189.95 105.3 190.85 105.9 191.1 106.45 191.4 108.2 192.3 110.35 193.55 110.55 192.6 110.75 191.65 112.1 184.55 112.1 171.8 112.1 170.6 111.95 167 111.75 163.75 111.6 161.65
M 87.2 187.25
Q 85.65 188.65 84.05 190.4
M 110.35 193.55
Q 111.35 194.1 112.45 194.75 115.35 184.55 117.4 175.7 119.25 167.6 119.65 162.15
M 105.3 190.85
Q 100.85 188.6 95.6 186.6
M 138.05 158.25
Q 138.4 156.55 138.75 154.9
M 132.7 176.05
Q 131.45 181.3 129.3 186.6 129.05 187.1 128.85 187.7 130.35 187.9 131.95 188.25 132.85 188.4 133.8 188.6 150.65 191.7 176.65 198.7 194.85 203.65 206.15 207.3 209 208.3 211.45 209.15 213 209.7 214.35 210.25 214.1 204.35 214.1 199.4 214.1 198.05 214.15 196.8
M 128.85 187.7
Q 126.1 194.2 123 200.75 123.9 200.85 124.8 201 127.65 201.3 130.55 201.6 159.85 204.95 182.1 208.9 194.9 211.2 204.65 213.6 206.45 214.05 208.2 214.5 209.7 214.9 211.15 215.3 213 215.8 214.75 216.3 214.5 213.15 214.35 210.25
M 116.35 214.05
Q 114.5 217.4 112.65 220.7 116.25 221.2 121 221.95 122.2 222.1 126.75 222.85 132.35 223.75 143.05 225.45 162.6 228.6 169.9 230.1 182.75 232.75 203.6 238.4 204.55 238.65 205.45 238.9 207.7 239.5 209.95 240.1 213.45 241.1 217.1 242.1 216.8 239.65 216.55 237.25 216.2 233.85 215.9 230.65 213.3 229.85 210.45 229.1 208.2 228.5 205.8 227.9 204.85 227.65 203.85 227.4 192.05 224.5 175.9 221.5 149.4 216.55 127.9 214.8 121.9 214.3 116.35 214.05 117.55 211.7 118.8 209.3 121 205 123 200.75
M 100.1 288.15
Q 100.05 287 100.05 285.85 100.05 282.85 100.7 278.55 97.25 276.5 93.95 274.3 95.85 267.15 97.9 260 98.8 256.7 99.75 253.45 100.4 251.35 101 249.25 102.1 245.65 103.2 242 104.35 238.15 105.55 234.35 105.85 233.4 106.1 232.5 106.45 231.3 106.85 230.05 106.7 230.25 106.6 230.45 105 229.7 104.75 229.55 102.25 228.35 102 228.35 103.65 223.2 105.75 216.65 107.85 210.05 111.45 198 111.95 196.4 112.45 194.75
M 95.05 186.35
Q 86.8 200.1 86.2 201.15 81 210.4 77.25 219.25 78.9 218.85 81.05 218.15 86.25 216.45 86.3 216.45 86.3 221.2 87.15 228.45 88.6 228 89.5 227.5 89.7 227.95 89.95 228.55 90.95 231 90.95 234.6 90.95 238.75 90.7 240.05 90.3 242.3 89.05 243.55 87.55 243.9 85.6 244.35 83.05 244.9 81.6 245.3 80.8 244.5 80.05 243.6 77.25 244.2 74.9 244.65 72.9 245.1 71.35 245.4 70.4 244.3 69.5 242.85
M 87.15 228.45
Q 86.8 228.55 86.4 228.65 84.15 229.15 83.05 229.45 83.3 230.35 83.65 231.3 84.95 235.05 85.85 236.4
M 81.4 223.1
L 81.85 222.85
Q 81.85 225.6 83.05 229.45
M 112.65 220.7
Q 109.75 225.55 106.85 230.05
M 99.75 253.45
Q 107.05 256.95 118.5 261.3 118.6 261.35 118.7 261.35 127.2 264.45 161.4 271.2 177.7 272.75 201.15 273.65 212.55 274.1 220.55 274.2
M 97.9 260
Q 109.3 266.2 115.25 269.15 115.6 269.35 116 269.5 128.7 275.75 138.15 278.65 148.15 281.7 160.4 282.7 170.65 283.6 190.45 283.6 192.5 283.6 194.7 283.5 201.95 283.25 210.85 282.15 212.05 281.95 213.3 281.8 218 281.15 221.2 280.6
M 103.2 242
Q 112.65 245.2 122.7 247.9 140.35 252.7 159.75 256 164.85 256.9 170.1 257.65 171.3 257.85 172.55 258 186.35 259.95 203.8 261.7 210.05 262.3 219.35 263.15
M 220.2 287.6
Q 217.5 289.3 214.35 290.5 201 295.75 180 295.75 150.55 295.75 129.6 290.3 113.85 286.2 100.7 278.55
M 106.1 232.5
Q 114.25 235.45 124.85 238.15 140.9 242.2 162.45 245.45 176 247.5 199.05 250.3 205.2 251.05 210.2 251.65 213.5 252.05 216.3 252.45 216.5 252.45 216.75 252.5 217.5 252.6 218.2 252.7
L 217.6 250.15 217.6 247.125 217.6 246.95
Q 217.5 245.9 217.4 244.95 217.2 243.5 217.1 242.1
M 77.55 198.8
Q 76.95 199.85 76.4 200.85 75.25 203.2 74.65 205.45 76.2 205.35 77.65 205.35 80.8 205.35 81.9 205.4 81.4 206.5 80.75 208.05 78.25 214.05 77.1 219.3 77.15 219.25 77.25 219.25
M 65.25 206.6
Q 70.2 205.7 74.65 205.45
M 64.4 200
Q 71.75 200.1 76.4 200.85
M 75 236.15
Q 76.1 238.4 78.3 241.35 79.15 242.55 80.05 243.6
M 288.7 239.15
Q 286.35 240.1 283.55 241.05 278.55 242.7 275.05 243.25 275.25 244.7 275.5 245.95 275.85 247.35 276.25 248.1
M 277.75 227.85
Q 278.2 229.3 278.9 231.35 279.1 231.85 279.3 232.35 282.5 232.2 285.6 231.3 286.4 231.05 287.15 230.9
M 245.9 238.8
L 245.75 244.25
Q 245.75 244.35 246.5 250.15 246.9 252.75 247.35 254.85
M 254.3 239.45
Q 254.4 241.6 254.6 243.95 254.9 247.8 255.3 250.85
M 273.05 228.85
Q 273.15 229 274.65 232.05 274.75 232.15 274.8 232.3 276.1 234.9 277.3 237.15 278.55 236.95 280 236.75 280.45 236.65 280.9 236.6 280.2 235 279.3 232.35
M 277.3 237.15
Q 275.9 237.25 274.8 237.25
L 274.8 240.35
Q 274.9 241.9 275.05 243.25
M 274.8 232.3
L 274.8 237.25
M 250.55 239.45
Q 250.95 243.45 251.9 249.1 252.15 250.85 252.45 252.4
M 280.9 236.6
Q 282.5 236.3 288.2 234.7
M 220.6 218.15
Q 220.15 222.1 219.6 226.8 219.4 228.65 219.2 230.5 220.2 228.8 221.3 227.25 222.85 225 224.1 223.4
M 219.2 230.5
Q 218.25 238.4 217.4 244.95
M 234 233.45
Q 232.8 237.35 231.9 241.45 231.55 243.1 230.9 250.45 230.65 253.4 230.5 256 230.4 256.95 230.35 257.9
M 239.9 236.85
Q 239.45 238.55 239 240.35 236.85 249.4 236.25 256 236.1 257 236.05 257.95
M 214.75 216.3
Q 215.15 222.95 215.9 230.65
M 228.15 228.3
Q 225.25 233.3 221.65 240 219.35 244.25 217.65 247.65 217.60625 247.3875 217.6 247.125
M 218.2 252.7
Q 218.25 253.1 218.25 253.45"/>

<path id="Layer0_0_1_STROKES" stroke="#000000" stroke-width="1" stroke-linejoin="round" stroke-linecap="round" fill="none" d="
M 328.1 75.35
Q 328.1 75.65 327.95 75.9 327.85 76 327.7 76.1 327.5 76.15 327.35 76.1 327.2 76.05 327.1 75.9 327 75.75 327 75.6
L 327 75.45
Q 327 75.25 327.05 75.1 327.1 74.6 327.45 74.45 327.65 74.35 328.15 74.35 328.8 74.35 329.4 74.8 330.25 75.4 330.25 76.8 330.25 76.85 330.1 78.2 330.1 78.25 330.1 78.3 329.7 79.65 328.45 79.9 326.55 80.25 324.7 79.2 323.15 78.3 322.4 76.6 321.45 74.4 322.1 72.4
L 322.1 72.45
Q 322.45 71.05 323.15 69.9 323.85 68.65 325.1 67.9 326.45 66.95 328.15 66.65 329.9 66.3 331.75 66.25 333.4 66.25 335.4 66.75 336.45 67.05 337.6 67.5 339.05 68.15 340.5 68.9 342.05 69.65 343.5 70.7 344.65 71.5 345.7 72.55 346.75 73.6 347.55 74.7
L 347.55 74.75
Q 348.35 75.9 349.15 77.2 350.1 78.75 351.1 80.65 352.85 79.3 355.05 75.5 357.2 71.65 358.55 68.05 358.75 67.45 358.95 66.95 358.7 67.15 358.5 67.4 357.1 66 356.25 65.4 355.95 65.15 355.7 64.95 354.7 64 353.65 63.15 348.3 58.75 341.95 55.65 346.65 52.4 351.05 46.9 359.25 36.55 359.25 25.25 359.25 22.45 358.45 19.7 359.5 19.95 363.75 20.45 368 20.95 378.55 19.75 389.1 18.55 408.4 4.85 410.85 9.2 420.15 17.9 429.4 26.6 438.7 26.75 437.15 29.45 435.25 35.2 434.25 38.25 433.25 41.75
L 437 41.75
Q 441.5 42.1 441.5 43.85 441.5 45.55 437.15 49 435.15 50.65 432.65 52.25 435.25 54 437.45 54 439.8 54 442 52.15 442.7 51.6 446 48.15 451.6 42.25 458.2 42.25 462.55 42.25 464.7 45.25 466.35 47.55 466.1 50.6 465.8 53.6 465.1 54.5 464.4 55.35 462.6 55.8 460.75 56.2 459.65 56.05 458.75 55.85 458.1 55.85 456.7 55.85 456.7 56.6 456.7 56.8 456.75 56.95 459.3 57 459.3 59.3 459.3 59.65 459 60.15 458.6 60.8 457.9 60.8 457.3 60.8 456.8 60.45 456.25 60.05 456 60
L 455.85 60.45 455.65 60.5
Q 455.35 60.2 455.35 59.9 455.35 59.45 456.55 59.45 456.7 59.45 457.1 59.8 457.45 60.15 457.95 60.15 458.75 60.15 458.75 59.1 458.75 58.15 456.9 57.95 455.4 57.8 455.1 57.25 455.05 57.2 455 57.2 454.85 57.1 454.85 56.6 454.85 55.65 456.85 55.1 462.6 53.9 461.15 50.35 459.65 46.8 457.25 46.4 455.05 45.75 455 45.75 452.9 45.75 449.9 47.75 447.65 49.2 446.35 50.6 445.15 51.85 443.55 54.95 441.95 58.35 441.2 59.6 438.9 63.55 435.55 66.1 435.3 66.25 435.1 66.45 435.45 66.6 435.8 66.75 439.9 68.65 441.75 70.25 441.6 71.35 441.35 73.55 440.35 78.35 437 82.5 435.4 84.45 431.65 88.7 430.75 89.7 430.15 90.45 437.4 101.35 440.7 120.45 442.6 131.05 442.75 140.15 441.85 141.15 441.5 141.5 440.75 142.25 439.9 142.9 441.3 144.55 442.1 146.1 439.5 148.85 436.65 151.05 432 154.5 427.7 155.15 427.25 152.7 426.3 149.8 419.6 153.8 409.5 156.15 404.55 157.3 399.3 156.8
L 399.15 157.2 399 157.6
Q 399.65 159.4 400.15 160.95 401 162.75 401 167.95 400.95 173.1 398.25 178.05 397.25 179.8 396.35 181.5 394.7 184.8 393 188.15 392.65 188.85 392.3 189.6 393.1 201.25 391.95 213.1 390.35 214.4 388.25 216.1 387.25 216.95 386.35 217.65 386.5 219.3 386.75 221 387.2 222.75 388.95 229.2 389.75 228.7 390.8 228.2 392.5 227.4 395.55 226.5
L 398.95 232.1
Q 400.55 234.65 401.45 236.45 401.75 237.1 402.05 238.1 401.45 238.8 399.8 239.8 397.2 241.3 395.7 242.55 395.6 242.6 394.1 243.8 396.232421875 248.190234375 398.65 253 399.116796875 253.9419921875 399.6 254.9 399.625 254.9498046875 399.65 255 405.274609375 266.265625 410.85 281.1 416.45 296 417.2 310.2 417.6 318.55 416.15 325.65 415.15 330.5 413.25 334.75 409 344 402.9 356.4 403.75 358.35 409.95 361.05 416.85 364 423.4 364.7 429.9 365.4 431.65 366.2 433.4 366.95 433.8 369.4 434.2 371.8 431.1 373.15 428 374.5 423.15 374.5 418.25 374.5 410.25 370.6 402.25 366.7 395.7 360.45 395.15 354.6 395.3 346.35 395.45 336.25 393.95 324.65 393 317.1 391.35 308.9 387.1 288.05 376.3 267.85 376.2 274.5 376.6 279.05 377.3 287.35 377.6 306.4 377.8 319.95 375.1 330 374 334 372.45 337.45 367.05 349.5 363.4 355.15 359.7 360.75 359.75 362.15 359.8 363.5 362.15 366.85 364.5 370.15 368.95 372.8 373.35 375.4 376.5 377.4 379.65 379.4 377.75 382.05 375.8 384.65 369.4 384.4 362.95 384.15 356.75 374.75 352.55 368.3 351.15 365.25
L 350.5 363.4 350.55 357
Q 350.8 355.15 351.25 352.75 352.55 345.3 353.4 334.8 353.75 330.25 353.55 325.5 353.2 319.1 351.85 312.25 349.4 300.2 346.5 290.65 344.3 283.55 343.3 275 341.75 275.25 339.95 275.25 336.85 275.25 334.15 274.2 331.5 273.15 331.75 271.75
L 333 271.75
Q 333.5 271.95 336.55 272.25 338.95 272.45 340.1 272.5 338.7 272.4 336.55 270.3 334.25 268.1 334.3 263.95
L 334.5 261.5
Q 335 261.5 335.3 261.65 335.25 261.35 335.25 261.1 335.5 260 335.5 259.75 335.75 259.75 335.75 259.5 335.85 259.6 337.85 263.35 339.2 265.9 340.65 267 340.35 266.35 340.1 265.55 339.5 263.65 339.5 261.75 339.5 259.2 340.5 258 340.6 257.85 340.7 257.8
L 342.6 263.95
Q 342.678125 259.38359375 343.525 255 343.7115234375 253.9953125 343.95 253 343.9953125 252.7748046875 344.05 252.55 342.75 252.1 340.95 251.45 338.75 250.6 338.4 250.35 338.4 250.15 338.1 249.95 339.85 245.8 341.1 242.85 339.8 238.75 338.45 233.8 335.5 223.3 337.8 209.6 336 209.25 334.35 208.8 333.8 208.6 333.25 208.45 332.25 208.05 331.35 207.65 331.15 206.6 330.9 205.35 329.75 199.8 329.75 199.75 329.75 198.9 334 190.3 335.9 186.35 337 184.1 338.45 185.3 340.3 186.75 340.25 186.25 343.6 177.4 344.5 174.85 345.55 172.35 348.15 165.95 351.25 159.6 351.3 159.45 351.4 159.3 355.6 150.6 359.75 143.95 363.95 137.2 365.1 135.4 365.2 135.6 365.3 135.75 365.7 134.95 366.15 134.05 366.45 133.4 366.8 132.75 366.8 132.5 366.85 132.3 367.05 129.05 367.4 125.05 367.65 122.1 367.75 116.55 366.05 115.85 364.9 114.65 363.75 113.45 363.75 112.7
L 363.6 112.7
Q 363 114.2 362.15 115.35 360.45 117.6 357.55 117.6 352 117.6 352 110.65 352 105.8 352.9 104.2 353 104 353.15 103.8 351.35 104.85 348.45 106.6 345.5 108.3 342.8 107.85 340.1 107.35 338.55 105.8 336.95 104.25 336.55 100.15 336.1 96.05 340.65 91.95 342.75 90.05 344.35 89.35 343.2 89.15 341.45 88.4 337.75 86.7 336.75 86 335.8 85.3 334.55 83.5 333.3 81.7 333.4 79.8 333.45 77.9 334.15 76.2 334.85 74.5 338.15 73.9 341.5 73.25 345.15 76.35 348.75 79.4 351.1 80.65
M 388.35 28.4
Q 389.7 33.35 390.85 36.1 391.2 36.95 391.55 37.6 391.6 37.75 391.65 37.85 395.1 44 401.35 44 405.35 44 408.5 38.5 408.85 37.85 409.2 37.2 409.8 36 410.25 34.8 411.45 31.3 411.5 27.5 409.95 26.95 408.3 26.6 405.3 26 401.1 26 399.25 26 392.45 27.5 390 28.05 388.35 28.4 Z
M 410.25 34.8
Q 412.5 35.2 414.5 35.9 419.9 37.7 425.35 41.85 427.95 41.75 430.6 41.75
L 433.25 41.75
M 425.35 41.85
Q 423.1 41.95 420.85 42.1 406.35 43.05 392.4 46.9 376.9 51.15 365.3 60.85 371.4 62.3 376.95 63.95 378.5 64.35 380.05 64.65 384.3 65.5 388.1 65.5 397.2 65.5 406.25 63.35 415.9 61.05 425.5 56.25 429.45 54.25 432.65 52.25
M 435.1 66.45
Q 430.15 64.3 425.75 63.85 428.85 65 432.05 66.5 432.95 66.9 433.75 67.35 437 69 438.25 70.25
M 436.25 70.75
Q 434.2 69.5 431.75 68.3 429.55 67.25 427.05 66.3 421.65 64.25 419.2 64.15
L 419.15 64.15 418 64.5
Q 418.4 65.25 418.7 65.9 421 66.3 423.3 67.15 425.25 67.9 428.1 69.35 430.3 70.45 433 72
M 406.25 63.35
Q 415.4822265625 68.533984375 423.35 69.575
L 423.35 69.55
Q 423.3736328125 69.5654296875 423.4 69.575 423.473828125 69.5904296875 423.55 69.6 420.85 68.05 419.45 67.55 419.15 66.9 418.7 65.9
M 423.35 69.575
L 423.4 69.575
Q 424.3771484375 70.2189453125 425.5 71 427.95 72.7 430.95 74.9 425.75 80.6 424.3 82.25 422 84.75 422 86 422 86.35 423.2 87.75 423.75 88.35 424.2 88.9 426.45 95.8 427.9 108.85 429.25 120.8 429.45 134.05 432.95 136.2 436.05 138.95 438.35 141 439.9 142.9
M 423.35 69.575
Q 423.2990234375 72.95390625 423.05 74.05 422.95 74.6 421.7 78.75 421.25 80.3 420.6 82.35 420.5775390625 82.428515625 420.525 82.575 421.230859375 82.2884765625 422.05 81.85
M 419.2 64.15
Q 420.4 63.75 423.6 63.75 424.65 63.75 425.75 63.85
M 417.15 82.6
L 415.85 82.45
Q 415.45 82.35 414.95 82.4 412.9 82.9 411.3 84.65
L 410.1 86.15
Q 409.1521484375 87.6001953125 409.325 88.525 409.3828125 88.8421875 409.625 89.125 409.8599609375 88.26953125 410.3 87.25 410.9 85.8 411.65 85.6 412.0255859375 85.2267578125 412.6 85.45 412.7 85.45 412.85 85.55 413.05 85.85 413.25 86.5 413.35 86.8 413.35 87.35 413.35 87.9 412.55 89.15
L 411.8 90
Q 411.7115234375 89.998046875 411.55 90.175 413.2197265625 90.7583984375 414.2 90.875
L 414.225 90.875
Q 416.6505859375 88.0400390625 417 85.7 417.4109375 84.24921875 417.15 82.6 418.65 82.3 419.7 81.15
M 420.05 84.2
Q 420.05 84.05 420.1 83.95 420.075390625 83.9623046875 420.05 83.975 420.001171875 84.1056640625 420.025 84.275 420.0392578125 84.23671875 420.05 84.2 Z
M 417.15 82.6
Q 418.11953125 83.533984375 420.525 82.575 420.395703125 82.9908203125 420.05 83.975
M 409.625 89.125
Q 410.1224609375 89.6724609375 411.325 90.1 411.4359375 90.139453125 411.55 90.175
M 416.05 90.6
Q 415.2607421875 90.993359375 414.25 90.875
L 414.2 90.9 414.225 90.875 414.25 90.875
M 406 100.3
Q 406.2 99.9 408.05 98.95 410.1 97.8 410.65 97.25 412.1 95.7 412.2 95.55 412.75 94.85 412.75 94 412.75 93.4 412.3 93.05
L 407.2 93
Q 406.05 93.05 405.75 92.3 405.65 92.1 405.65 91.4 405.65 88.3 408.65 85.1 412.25 81.25 418.3 80.15
M 420.025 84.275
Q 418.75 88.617578125 418.75 90.7 418.75 92.6 419.8 95.25 420.85 97.95 420.85 100.55 420.85 102.4 420.4 103.7 419.85 105.35 418.6 106.7 418.2 107.65 417.65 108.65 416.6 110.55 415.1 113.1 422.85 112.35 422.85 117.65 422.85 118.9 420.85 119.6 419.15 120.2 416.85 120.2 414.55 120.2 413.65 119.95 412.45 119.5 411 119.1 411.1 119.25 411.7 120.05 412.25 121 412.25 122.15 412.25 124 410.85 126.35 409.35 128.85 407.8 128.85 406.1 128.85 404.3 127.6 402.5 126.35 401.5 124.35
L 401.25 124.1
Q 401.25 125.75 398.9 127.7 396.55 129.6 394.7 129.6 392.75 129.6 391.55 127.6 390.45 125.8 390.75 124.45 389.6 125.45 387.95 125.45 387.35 125.45 386.35 124.85 385.8 124.5 385.35 124.15 384.5 124.6 383.85 124.95 383.8 125 383.75 125.05 383.8 125.05 383.9 125.1 384.05 126.55 385.15 130.15 386.15 131.5 387.2 133.15 389.75 133.85 392.65 134.65 396.05 135.45 399.8 135.85 403.65 136.25 407.85 136.25 408.05 136.25 408.35 136.25 409.75 136.2 413.8 136.1 417.8 135.95 419.65 135.85 418.65 134.6 417.65 133.75 417.95 133.35 418.25 132.8 418.6 132.25 419.5 132.25 421.25 132.25 422.75 133.75 423 133.45 423.45 132.4 423.7 131.75 424.5 131.75 425.65 131.75 429.05 133.8 429.25 133.95 429.45 134.05
M 414.1 71.6
Q 414.75 73.8 421.85 76.7
M 356.25 65.4
Q 358.15 62.75 360.25 60.25 367 51.95 375.1 45.45 381.1 40.65 386.7 37.9 388.8 36.85 390.85 36.1
M 367.75 116.55
Q 367.75 115.15 367.75 113.55 367.75 112.2 367.75 110.7 367.75 102.5 367.6 99.4 367.55 98.2 367.5 97.1 362.2 101.75 358.6 94.4 356.95 91 356.5 87.2
L 356.5 85.45
Q 356.5 84.55 356.5 84.3 356.5 81.3 357.5 79.65 358.45 78 361.7 77.95 365 77.9 367.2 82.05 373.9 78.05 376.2 75.3 379.55 71.3 380.05 64.65
M 396.75 84.55
Q 396.656640625 85.3591796875 394.95 85.825 393.9236328125 86.0990234375 392.3 86.25
L 389 86.25 387.9 86.25
Q 386.7380859375 86.0294921875 385.9 85.925 385.529296875 85.8931640625 385.225 85.875 385.010546875 85.0408203125 384.95 84.95 384.75 84.8 385.05 82.15 385.3451171875 79.4552734375 387.85 76.75 390.364453125 74.033984375 392.5 74.275 393.256640625 74.3603515625 393.75 74.4 394.6494140625 74.4748046875 394.675 74.4 394.7046875 74.300390625 395.525 74.15 396.3447265625 73.9873046875 397.275 73.45 398.2052734375 72.9185546875 398.4 72.05
M 383.5 72.95
Q 384.2 72.2 388.05 70.4 392.85 68.5 396.8 68.3 400.7 68.05 403.5 68.35
M 393.75 74.4
L 395.9 75
Q 398.35 75 399.5 74.35 400.15 74 400.95 73.25
M 393.75 74.4
Q 394.8630859375 76.2060546875 395.2 77.65 395.75 79.75 395.75 82.05 395.75 83 395.55 84 395.45 84.5 394.95 85.825
M 389 86.25
Q 389.098046875 85.97734375 389.175 85.85 389.2505859375 85.7111328125 389.525 85.375 389.8 85.04453125 390.15 83.5
L 390.15 82.25
Q 390 78.55 388.55 78.55 388.35 78.55 387.35 78.85 386.9349609375 79.0048828125 386.1 79.975 385.2658203125 80.9376953125 385.35 82.05 385.4244140625 83.1689453125 385.35 84.15
L 385.7 85.45
Q 385.79609375 85.704296875 385.9 85.925
M 388.3 92.45
Q 388.6419921875 92.1212890625 389.8 91.6 391.8 90.65 392.9 89.85 394 89 394.85 87.7 394.975 87.4083984375 395.1 87.25
M 402.1 97.05
Q 404.3384765625 96.9267578125 404.45 98.35
M 365.3 60.85
Q 361.95 63.65 358.95 66.95
M 418.6 106.7
Q 417.9 107.45 416.6 108.85 415.3 110.2 411.15 112.75 407 115.3 404.25 116.35 401.45 117.4 396.75 119.35 392.05 121.3 389.65 122.25 387.2 123.2 385.35 124.15
M 382 103.85
Q 382 103.4 384.95 102.65 387.8 101.95 388.8 102.05 392.05 101.45 395.85 104.55 399.1 107.25 399.1 108.55 399.1 108.9 398.65 108.9 398.3 108.9 395.25 107.4 391.95 105.75 391.05 105.55 387.8 104.75 384.2 104.4 382 104.2 382 103.85 Z
M 367.75 113.55
Q 370.85 116.9 376.2 120.6 380.85 123.85 383.75 125.05
M 366.85 132.3
Q 368.45 133.75 370.1 135.1 373.75 138.1 376.15 139.6
L 378.1 140.85 378.1 140.95
Q 378.1 140.85 378.5 139.3 378.75 138.15 379.2 136.25 379.85 133.4 380.1 131.8 381.35 133.35 383.75 137.2 383.9 137.45 384.1 137.75 384.3 138.05 384.5 138.45 385.35 138.15 386.65 137.35 387.1 137.1 387.45 136.9 386.75 135.1 386 132.8 385.75 132.05 385.5 131.25 385.3 130.65 385.15 130.15
M 384.1 137.75
Q 384.05 138 383.95 138.3 383.9 138.45 383.9 138.6 383.65 139.3 383.25 140.45 383.15 140.7 383 140.95 385.85 149.25 387.85 158.25 387.9 158.4 387.9 158.5
L 392.3 156.4 392.3 156.15 392.9 148.75 396.2 154.85 400.35 154.1 399.3 156.8
M 378.5 139.3
Q 379.3 140.05 380.45 141.2 372.75 150.35 370 170.05 368.25 182.45 368.8 192.35 369.45 193.4 370.35 194.75 371 195.75 371.5 196.55 372.3 195.9 373.45 195.05 374.1 194.6 374.65 194.15 373.8 184.45 375.7 169.65 377.55 155.2 381.15 142.85 382.9 153.75 382.8 165.05 382.65 178.6 380.2 191.95 378.3 202.4 375.6 212.45 377.3 214.5 379.9 217.4 381.6 219.25 382.8 220.55 384.1 219.45 386.35 217.65
M 408.35 136.25
Q 409 138.85 409.2 141.8
L 409.2 145.6 401.8 145.6
Q 401.8 140.95 400.6 137.8 400.15 136.7 399.8 135.85
M 352.5 227.2
Q 354.6 223.9 354.95 223.2 355.7 221.75 356.35 220.25 361.15 207.85 362.1 194.3 362.7 185.75 362.8 177.25 362.8 177.2 362.8 177.15 362.75 174.4 362.9 168.8 362.9 168.15 362.95 167.6 362.45 169.2 361.9 171.1 358.75 181.55 355.1 195.85 354.25 198.8 353.8 202.6 353.35 206.4 352.8 210.1 352.45 213.45 352.05 217.45 351.65 221.45 351.35 225.15 351.6 225.65 351.95 226.25 352.25 226.75 352.5 227.2 352.6 227.3 352.7 227.5 353.8 229.25 355 230.95 355.4 230 355.7 229.5 357.1 230.25 358.95 231.15 360.8 232.05 361.45 232.4 362.05 232.75 363 233.25
L 367.45 236.2
Q 367.7 236.45 367.7 236.6
L 367.65 236.8
Q 369 236.95 370.45 237 370.7 237 370.95 237 375.55 237 381.55 235.3 382.55 235 383.55 234.65 387 233.55 389.35 232.4 388.85 231.1 388.3 229.7 388.25 229.65 388.25 229.6 388.55 229.4 388.95 229.2
M 351.4 159.3
Q 352 159.65 352.65 160 357.7 162.65 359.8 163 359.25 168.4 356.9 171.5 354.5 174.6 350.8 174.6 348.3 174.6 346.15 172.85 345.85 172.6 345.55 172.35
M 340.3 186.75
Q 341.9 188 343.8 189.35 350.2 193.95 355.1 195.85
M 387.9 158.5
Q 387.95 158.8 388.05 159.15
L 391.05 161.05 391.2 167.15 394.55 162.55 399.95 164.65 397.95 160.2 398.8 158.075 399.15 157.2
M 398.8 158.075
L 399 157.6
M 392.3 156.4
Q 392.45 156.3 392.45 156.25 392.45 156.2 392.3 156.15
M 392.3 189.6
Q 392.15 187.15 391.9 184.7 390.25 169.4 388.05 159.15
M 426.3 149.8
Q 425.8 148.2 425.15 146.5 422.5 139.5 419.65 135.85
M 367.65 236.8
L 365.1 243.35
Q 364.8 244.05 364.55 244.75 367.1 245.35 370.65 245.35 370.85 245.35 371.1 245.35 371.05 239.75 370.85 238.85 370.8 238.7 370.8 238.6 370.6 237.7 370.45 237
M 381.55 235.3
Q 381.8 236.15 382.15 237.25 382.25 237.65 382.35 238.1 382.9 240.45 383.05 241.7 383.15 242.5 383.2 243.3 386.55 241.95 391.45 238.45 392.15 237.9 392.9 237.35 390.95 233.25 390.4 231.8 390.05 232 389.75 232.2 389.55 232.25 389.35 232.4
M 371.1 245.35
Q 378.3 245.3 383.1 243.35 383.15 243.35 383.2 243.3
M 394.1 243.8
Q 392.7 241 391.45 238.45
M 337.8 209.6
Q 342.65 210.5 348.5 210.5 350.75 210.5 352.8 210.1
M 351.35 225.15
Q 350.45 234.8 350.2 242 350.85 240.6 351.7 238.7 351.95 238.15 352.2 237.55
L 354 233.2
Q 354.45 232.2 354.8 231.45 354.9 231.2 355 230.95
M 352.15 245.5
Q 351.65 245.15 351.25 244.8 350.6 244.35 350.1 243.95 350.05 245.6 350.05 247.1 350 248.2 350 249.25 350 250.85 350.1 252.8 350.95 248.9 352.15 245.5 353.35 246.35 354.9 247.3 355.4 247.6 356 247.95 360.3 250.55 361.55 251.35 361.6 251.2 361.7 251.05 362.45 249.6 364.55 244.75
M 350.2 242
Q 350.15 243 350.1 243.95
M 350.1 252.8
Q 350.104296875 252.899609375 350.1 253 350.152734375 253.9572265625 350.225 255 350.4578125 258.9599609375 351 264.15 351.3 267.1 351.55 269.2 351.3 269.65 350.95 270.15 350.4 270.95 349.05 272.3 348.65 272.7 348.2 273.05 348.75 281.65 351.55 291.7 356.05 307.8 357.25 322.6
L 357.1 327.8
Q 358 328.25 359.4 328.7
L 359.4 328.65
Q 359.95 319.75 359 310.95 357.75 299.05 355.05 288.7 352.35 278.3 352.55 266.9 352.6416015625 261.0060546875 353.5 255 353.641796875 254.0015625 353.8 253 354.2671875 250.1625 354.9 247.3
M 342.6 263.95
L 343.25 266
Q 343.9 265.35 346.25 265.45 346.5 265.45 346.75 265.5
L 346.75 262
Q 346.2888671875 258.81015625 345.15 255 344.8552734375 254.020703125 344.525 253 344.4591796875 252.82578125 344.4 252.65 344.2 252.6 344.05 252.55
M 341.55 270.75
L 341.25 270.75
Q 338.8 269.5 336.9 265.95 335.55 263.45 335.3 261.8 335.3 261.7 335.3 261.65
M 348.2 273.05
Q 347.05 273.9 345.35 274.45 344.4 274.8 343.3 275
M 344.4 252.65
Q 344.05 251.65 343.7 250.65 342.45 247.3 341.1 242.85
M 359.4 328.7
Q 360.85 329.15 362.95 329.6 367.1 330.5 369.6 330.5 371.9 330.5 372.95 330.4 374.05 330.25 375.1 330
M 353.55 325.5
Q 355.15 326.7 357 327.75 357.05 327.8 357.1 327.8
M 393.95 324.65
Q 399.65 328.25 405.75 328.25 409.8 328.25 413.25 326.9 414.45 326.4 416.15 325.65"/>
</defs>

<g transform="matrix( 1, 0, 0, 1, 0,0) ">
<use xlink:href="#Layer1_0_1_STROKES"/>
</g>

<g transform="matrix( 1, 0, 0, 1, 0,0) ">
<use xlink:href="#Layer0_0_1_STROKES"/>
</g>
</svg>
