<?xml version="1.0" encoding="utf-8"?>
<!-- Generator: Adobe Illustrator 18.0.0, SVG Export Plug-In . SVG Version: 6.00 Build 0)  -->
<!DOCTYPE svg PUBLIC "-//W3C//DTD SVG 1.1//EN" "http://www.w3.org/Graphics/SVG/1.1/DTD/svg11.dtd">
<svg version="1.1" id="Layer_1" xmlns="http://www.w3.org/2000/svg" xmlns:xlink="http://www.w3.org/1999/xlink" x="0px" y="0px"
	 viewBox="195.5 92.4 376.9 407.5" enable-background="new 195.5 92.4 376.9 407.5" xml:space="preserve">
<g transform="matrix( 1, 0, 0, 1, -397,-107) ">
	<g>
		
			<image overflow="visible" enable-background="new    " width="1560" height="1289" id="skeleton_puppet_jpg" xlink:href="3FF4574CDFD68B76.jpg"  transform="matrix(1 0 0 1 -5.400147e-06 0)">
		</image>
	</g>
</g>
<g transform="matrix( 1, 0, 0, 1, 0,0) ">
	<g>
		<path id="Layer3_0_1_STROKES" fill="none" stroke="#000000" stroke-linecap="round" stroke-linejoin="round" d="M490.4,119.2
			c2.7,1.6,5.4,3.2,8,5c15.3,10.2,29.5,23.7,42.4,40.6c10.9,14.2,18.9,27.7,24.1,40.3c0.9,2.2,1.7,4.4,2.4,6.6
			c1.2,3.4,2.1,6.7,2.8,10c0.6,3,1.1,5.9,1.4,8.7c0.5,4.5,0.5,8.9,0,13.2c-0.3,3.3-0.9,6.5-1.8,9.6c-0.3,1.1-0.6,2.3-0.9,3.4
			c-5.3,19.3-9.9,32.2-13.7,38.9c-11.1,13.9-19.8,23.8-26.1,29.6c-6.4,5.8-10.1,9.9-11.2,12.4c-0.7,2.3-1.2,4.7-1.3,7.4
			c-0.5,10.4,1.4,19,5.7,25.8c0.7,1.2,1.4,2.4,1.8,3.6c2.2,5.8,1.5,12.1-2.3,18.8l-4.5,4.9c-16.8,10.3-25.2,19.1-25.2,26.6
			s-0.7,15.8-2.1,25.2c-1.4,9.3-4.8,17.7-10.3,25.1c-5.5,7.4-12.8,12.4-21.9,15.2c-11.9,3.3-23.7,5.8-35.4,7.5
			c-11.8,1.7-20,2.3-24.7,1.8c-4.7-0.5-16-0.9-33.8-1.3c-17.9-0.4-38.5-4.6-61.8-12.7c-23.3-8.1-40.1-19.8-50.3-35.1
			c-10.2-15.4-13.1-28.9-8.6-40.7c4.4-11.8,4.2-20.6-0.8-26.3c-4.9-5.7-9.6-12.7-14-20.8c-2.5-4.7-3.1-9.8-1.7-15.4
			c1-4.2,3.1-8.7,6.4-13.5c7.5-11.1,8-21.1,1.6-30c-6.1-8.5-14.5-22.4-25.3-41.7c-0.5-0.9-1-1.9-1.6-2.8c-1.4-2.6-2.8-5.2-3.9-7.7
			c-1.9-4-3.4-7.9-4.6-11.8c-0.9-3-1.7-6-2.2-8.8c-0.6-3.3-1-6.5-1.1-9.7c-0.1-2,0-4.1,0.1-6.1c0.3-4,1-7.9,2.2-11.6
			c5.1-16.4,11.9-30.1,20.6-40.9c8.6-10.9,20.7-21.7,36.1-32.5c2-1.8,4.4-3.6,7.1-5.5c2.2-1.5,4.6-3.1,7.2-4.8
			c1.9-1.2,4-2.4,6.2-3.6c3.1-1.8,6.5-3.6,10.2-5.5c2-1,4.1-2,6.2-3.1c2.7-1.3,5.4-2.5,8.1-3.6c3.2-1.3,6.5-2.4,9.9-3.4
			c12.2-3.7,25.5-5.7,39.8-5.9c21.7-0.5,36.8-1,45.4-1.6c8.5-0.6,26.1,3,52.8,10.6c0.3,0.1,0.6,0.1,0.9,0.2
			c3.6,0.7,7.1,1.5,10.6,2.5c4.7,1.3,9.3,2.9,13.8,4.7c3.7,1.5,7.3,3.1,10.8,4.9C486.1,116.8,488.3,118,490.4,119.2
			c-3.4,15.3-1.8,31.7,4.6,49.3c7.3,20,19.8,32.4,37.5,37.2c12.5,3.4,24.1,5.4,34.8,5.9 M564.9,205.1c-1.6-0.2-3.2-0.3-4.8-0.5
			c-8.2-1-17.6-4-28.3-9.2c-10.7-5.1-18.7-12.8-23.9-22.8c-5.2-10.1-8.2-18.9-8.9-26.4c-0.8-7.5-1.1-13.8-0.8-18.9
			c0.1-1.1,0.1-2.1,0.2-3.1 M390.1,169.1c0,1.9-0.7,3.6-2.1,4.9c-1.4,1.4-3,2.1-4.9,2.1c-1.9,0-3.6-0.7-5-2.1c-1.4-1.4-2-3-2-4.9
			c0-1.9,0.7-3.6,2-4.9c1.4-1.4,3-2.1,5-2.1c1.9,0,3.6,0.7,4.9,2.1C389.4,165.5,390.1,167.1,390.1,169.1z M391.5,208.9
			c-2.4,2.4-5.4,3.7-8.9,3.7c-3.5,0-6.4-1.2-8.9-3.7c-2.4-2.4-3.6-5.4-3.6-8.8c0-2.9,0.8-5.4,2.5-7.6c0.3-0.4,0.7-0.9,1.1-1.3
			c1.6-1.6,3.4-2.6,5.4-3.2c1.1-0.3,2.2-0.4,3.5-0.4s2.4,0.1,3.4,0.4c2,0.6,3.8,1.6,5.4,3.2c0.4,0.4,0.8,0.9,1.1,1.3
			c1.7,2.2,2.5,4.7,2.5,7.6C395.1,203.5,393.9,206.5,391.5,208.9z M473.1,110.9c-0.4,1.6-0.8,3.2-1.1,4.6c-0.2,1-0.4,3.2-0.8,6.6
			c-0.1,1.3-0.2,2.7-0.3,4.3c-0.1,1.5-0.3,3.2-0.4,5c-0.1,1.6-0.2,3.1-0.3,4.5c-0.5,6.4-0.7,10.7-0.7,13.1c0,0.2,0,0.4,0,0.6
			c0,4.2,0.3,8.2,0.9,12.1c0.8,5.4,1.9,10.4,3.5,15.1c1.3,3.2,2.8,6.2,4.4,9.1h0.1c0,0.1,0,0.1,0,0.2c1.2,2.1,2.5,4.2,4,6.2
			c3,4.2,6.5,8.1,10.5,11.8c2.1,1.8,4.3,3.6,6.6,5.3c2.1,1.5,4.4,3,6.7,4.4c4,2.4,8.3,4.6,12.9,6.5c3.2,1.4,6.6,2.6,10.1,3.6h0.2
			c0,0,0,0.1,0,0.1c2.3,0.7,4.7,1.3,7,1.9c4.1,1,8.4,1.8,12.8,2.5c2.9,0.4,6,0.8,9,1.1c0.1,0,0.2,0,0.2,0c1.9,0.2,3.8,0.3,5.8,0.5
			c2.3,0.1,4.7,0.3,7.1,0.3 M459.4,106.2c0.7,1.9,1.5,3.7,2.4,5.5c2.8,6.1,5.9,11,9.2,14.7 M448.8,103.7c1.5,6.8,4,12.3,7.8,16.6
			c4.7,5.4,8.2,8.5,10.7,9.4c0.2,0.1,0.5,0.1,0.7,0.2 M469.5,149.6c-4.3-0.6-7.6-1.3-9.9-2.2c-4-1.5-6-3.5-6-5.9s2-4.1,6-5
			c2.6-0.6,6.2-0.8,10.6-0.6 M467.2,129.7c-1.9-0.5-5-0.7-9.2-0.7c-4.8,0-9.7,1.2-14.7,3.5c-5.1,2.3-7.2,6.1-6.3,11.2
			c0.8,5.1,4.3,8.7,10.4,10.8c6,2,12.8,2.3,20.2,1c-7.3,4.7-12.4,8.5-15.4,11.4c-3,3-4.9,6.4-5.8,10.2c-0.8,3.8,0,7.4,2.6,10.6
			c2.5,3.2,6.8,4.4,12.9,3.6c6.2-1.4,10.2-2.5,12-3.2c1.8-0.7,2.8-1.2,3.1-1.4l1-0.7h0.4c0,0.1,0,0.1,0.1,0.2
			c-0.9,2-3.3,5.4-7.3,10.2c-6.2,9-8.5,15.2-6.8,18.7c1.7,3.4,3.5,5.5,5.4,6.1c1.9,0.6,4.9,0.6,9.1,0.1c4.2-0.5,8.5-2,13.1-4.5
			c4.6-2.5,7.4-4.3,8.5-5.4h0.5c-0.3,0.6-1.2,2.5-2.8,5.8c-1.5,3.8-2.2,7.8-2.2,12c0,6.3,0.9,10.8,2.6,13.2c1.1,1.7,2.7,2.5,4.7,2.5
			c7.2,0,13.6-3.5,19.3-10.4c2.8-3.5,5-7,6.5-10.6h0.2c0.1,0,0.2,0.1,0.2,0.1c-1.3,8.6-0.7,15.8,1.8,21.8c2.4,5.8,5.9,8.6,10.5,8.6
			c5,0,9.2-3.4,12.5-10.1c2.4-4.9,3.8-9.8,4.2-14.8 M474,176.9c-0.9,0.6-2.1,1.1-3.7,1.5c-2.6,0.7-4.9,1.1-6.9,1.1
			c-1.1,0-2.3-0.3-3.8-1c-1.7-0.8-2.5-1.7-2.5-2.8c0-2.4,1.7-4.9,5-7.4c1.7-1.3,3.9-2.9,6.5-4.9l1.8-1.8 M570.2,221.7
			c-19,0.4-36.8-4.2-53.5-13.9c-17.5-10.1-28.3-25.1-32.5-45.1c-3.3-15.8-3.4-31.4-0.2-46.9 M482.5,192.4c-1.6,2.6-3.2,4.9-4.8,7.1
			c-2,2.8-3,5-3,6.7c0,1.7,0.5,2.8,1.5,3.2c0.7,0.3,2.1,0.5,4.2,0.5c1.8,0,4.1-0.7,7-2.1c2.4-1.2,4.3-2.4,5.6-3.7 M424.5,213
			c0,4.4-1.8,7.1-5.3,8.1c-5.6,0.7-10.5,1.5-14.7,2.4c-3.2,0.7-7.4,1.7-12.7,2.9c1-1.6,2-3.4,3.2-5.4c2.4-4.1,4.3-7.1,5.7-8.9
			c3.8-5.1,8.2-7.6,13.2-7.6c3.8,0,6.6,1.2,8.5,3.5C423.9,209.6,424.5,211.3,424.5,213z M418,256c-1.4,1.7-2.8,2.5-4.2,2.5
			c-5.5,0-10.1-3.7-13.9-11c-1.9-4-3.3-7-4.3-8.9c-0.4-0.8-0.8-1.5-1.2-2.1c7.7,0.5,14.1,2.3,19,5.5c4.4,2.8,6.6,5.8,6.6,8.9
			C420,252.7,419.4,254.4,418,256z M424.5,329.5c-2.5,1.4-4.6,2.2-6.2,2.3c-5.1,0.4-8.8-0.5-11.2-2.9c-1.4-1.3-2.1-2.9-2.3-4.7
			c-0.2-2,0-3.5,0.4-4.3c0.9-1.6,3.9-2.6,9.1-3l-2.4-0.6c-3-0.5-5.5-1.6-7.5-3.1c-2.3-1.8-3.5-3.6-3.7-5.4c0-0.3,0-0.6,0-1
			c0-0.1,0-0.2,0-0.3c-0.1-1.4,0.2-2.6,1-3.6c0.1-0.2,0.2-0.3,0.3-0.4c0.3-1.1,1.1-2.1,2.4-2.8c0.3-0.2,0.6-0.3,1-0.5
			c1.1-0.4,2.4-0.7,3.9-0.8c0.2,0,0.3,0,0.5,0c1.4-0.1,2.8,0,4.4,0.1c0.2,0,1.9,0.6,4.9,1.8c-3.1-2-4.7-3.4-4.9-4.4
			c-0.5-1.1-0.8-1.8-0.8-2c-0.1-1.2,0-2.3,0.2-3.4c0-0.9,0-1.8,0.2-2.5c0.6-2.9,2.8-4.3,6.8-4c2,0.1,4,0.7,5.9,1.6
			c2,1,3.5,2.1,4.4,3.4c0.1,0.1,0.3,0.5,0.5,1.2l0,0.1c0.1,0.1,0.1,0.1,0.2,0.1c0.3-0.2,0.6-0.4,1-0.6c-1-4.4-1.5-6.6-1.5-6.7
			c-0.2-2.9,0.7-5.2,2.8-6.9c2-1.6,4.4-2.2,7.3-1.9c3,0.4,5.6,1.7,7.8,4c1.5,1.7,2.6,3.6,3.4,5.9c0.1,0,0.2,0,0.4,0
			c0.4-2.1,1.1-4.1,2.1-6c1.8-3.1,4.1-5.2,6.9-6.2c2.8-1.1,5.3-0.7,7.5,1c2.4,2,3.9,5.3,4.2,10c0.1,1.4,0,3-0.4,4.8
			c2.6-2,5.4-3.7,8.2-4.9c3.7-1.6,6.8-2.1,9.1-1.6c2.8,0.7,4.4,3,4.8,6.9c0.2,1.8-1.3,4.3-4.4,7.7c-0.6,0.6-1.2,1.2-1.9,1.8
			c3.4,0,6.3,0.6,8.6,1.8c3,1.5,4.6,3.8,4.9,7c0.1,1.3-0.3,2.6-1.2,4.1c-1.6,2.3-4.2,3.6-7.9,3.9c-1,0.1-2,0.1-3,0.1
			c0.8,0.5,1.5,1.1,2.1,1.6c2.6,2.3,4,4.9,4.2,7.7c0.2,2-0.2,3.7-1,5.1c-1.2,2.1-3.5,3.4-6.9,3.6c-2.5,0.2-5.2-1-8.3-3.5
			c0.1,0.2,0.2,0.4,0.4,0.6c0.3,0.9,0.5,2.5,0.8,5c0.3,2.8,0.3,4.5,0.1,5.1c-0.8,2.2-3.4,3.5-7.7,3.9c-3.7,0.3-7.2-1.8-10.5-6.4
			c-0.2,0.1-0.3,0.1-0.5,0.2c-0.1,0.2-0.2,0.5-0.3,0.8c-0.1,1.4-0.2,2.7-0.5,3.9c-1.1,5.3-3.9,8.1-8.6,8.5c-4,0.3-6.8-1.3-8.4-4.8
			c-0.4-0.7-0.6-1.5-0.8-2.4c-0.2-0.4-0.3-0.9-0.4-1.3v-0.1c0-0.5-0.1-0.9-0.1-1.1c-1.8,3.8-5,5.9-9.8,6.3c-4,0.3-6.9-0.6-8.7-2.9
			c-0.9-1.2-1.4-2.8-1.5-4.6c0-0.1,0-0.1,0-0.2c0,0,0-0.1,0-0.1c-0.1-0.9-0.1-1.4-0.1-1.4c-0.1-0.9,0.2-2.2,0.8-3.7
			c0.2-0.7,0.4-1.4,0.6-2.1c0.2-0.5,0.4-1,0.6-1.5C425.4,330.3,425,329.9,424.5,329.5c-5.5-5.1-8.3-10.5-8.4-16.2
			c-0.1-6.8,3.4-13.2,10.4-19c1.7-1.4,3.4-2.6,5.2-3.8 M432.7,289.9c5.6-3.2,11.9-5,18.9-5.5c0.3,0,0.6,0,0.8,0 M471.6,316.3
			c-3.2,3.5-7.4,5.5-12.5,6c-5.1,0.4-9.6-0.8-13.6-3.8c-3.9-3-5.9-6.3-5.9-9.8c-0.1-3.6,1.7-6.9,5.4-9.9c3.7-3,8-4.7,13.1-5.1
			c5.1-0.3,9.3,0.7,12.8,3c3.5,2.3,5.3,5.3,5.5,8.9C476.4,309.2,474.8,312.8,471.6,316.3z M452.8,284.3c9.2-0.4,17,1.5,23.5,5.8
			c6.7,4.4,10.1,10.2,10.4,17.3c0.2,7.1-2.8,13.9-9,20.6c-4,4.3-8.7,7.4-14.2,9.4 M447.9,265.6c15.6-1.4,29.4,1.9,41.2,9.9
			c11.8,8,18.3,18.3,19.4,31s-3.5,23.9-13.8,33.9c-10.3,9.9-23.3,15.6-38.9,16.9c-15.7,1.4-29.5-1.9-41.3-9.9
			c-11.9-8-18.4-18.3-19.5-31c-1.1-12.7,3.5-24,13.8-33.9C419.2,272.6,432.2,267,447.9,265.6z M369.8,238.6c0.4-0.8,0.8-1.5,1.2-2.1
			c-7.7,0.5-14.1,2.3-19,5.5c-4.4,2.8-6.7,5.8-6.7,8.9c0,1.7,0.7,3.4,2,5c1.4,1.7,2.8,2.5,4.2,2.5c5.5,0,10.1-3.7,14-11
			C367.4,243.5,368.8,240.5,369.8,238.6z M391.6,232.6c0,2.6-0.9,4.9-2.8,6.7c-1.8,1.9-4.1,2.8-6.7,2.8c-2.6,0-4.9-0.9-6.8-2.8
			c-1.8-1.8-2.8-4.1-2.8-6.7s0.9-4.9,2.8-6.8c1.9-1.8,4.1-2.8,6.8-2.8c2.6,0,4.9,0.9,6.7,2.8C390.7,227.7,391.6,229.9,391.6,232.6z
			 M341.8,207.5c-1.3,1.6-2,3.3-2,5c0,4.4,1.8,7.1,5.4,8.1c5.6,0.7,10.5,1.5,14.6,2.4c3.2,0.7,7.4,1.7,12.7,2.9
			c-1-1.6-2.1-3.4-3.2-5.4c-2.4-4.1-4.3-7.1-5.7-8.9c-3.8-5.1-8.3-7.6-13.2-7.6C346.5,204,343.7,205.2,341.8,207.5z M314.1,260.8
			c-15.6-1.4-29.4,1.8-41.2,9.8c-11.9,7.9-18.4,18.2-19.6,30.9c-1.1,12.7,3.4,24,13.7,33.9c10.2,10,23.2,15.7,38.8,17.1
			c15.7,1.4,29.5-1.8,41.4-9.8c11.9-7.9,18.4-18.2,19.5-30.9c1.2-12.7-3.4-24-13.6-33.9c-4.3-4.2-9.2-7.6-14.5-10.3
			c-1.6-0.8-3.2-1.5-4.8-2.1C327.9,262.9,321.3,261.4,314.1,260.8z M329.3,285.1c1-4.4,1.5-6.6,1.5-6.7c0.3-2.9-0.6-5.2-2.8-6.9
			c-2-1.6-4.4-2.2-7.3-1.9c-3,0.3-5.6,1.6-7.8,3.9c-1.5,1.6-2.7,3.6-3.4,6c0.3,0,0.5,0,0.8,0C317.4,280,323.7,281.9,329.3,285.1
			c0.3,0.2,0.6,0.4,1,0.6c0.1-0.1,0.1-0.1,0.2-0.2l0,0c0.3-0.7,0.4-1.1,0.5-1.2c0.9-1.3,2.4-2.4,4.5-3.4c2-1,4-1.5,6-1.6
			c3.9-0.2,6.1,1.1,6.6,4.1c0.2,0.7,0.2,1.5,0.2,2.5c0.2,1,0.3,2.1,0.2,3.3c0,0.2-0.3,0.9-0.9,2.1c-0.2,1-1.8,2.5-4.9,4.4
			c3-1.1,4.6-1.7,4.8-1.7c1.6-0.2,3.1-0.2,4.4-0.1c1.7,0.1,3.2,0.4,4.5,0.9c1.8,0.8,2.9,1.8,3.3,3.2c0.2,0.2,0.3,0.3,0.3,0.5
			c0.8,1,1.2,2.1,1.1,3.5c0,0.1,0,0.2-0.1,0.3c0,0.3,0,0.6,0,1c-0.2,1.8-1.4,3.6-3.6,5.5c-2,1.6-4.5,2.6-7.5,3.1l-2.5,0.5
			c5.2,0.5,8.2,1.5,9.1,3.1c0.4,0.9,0.6,2.3,0.4,4.4c-0.2,1.8-0.9,3.3-2.2,4.6c-2.4,2.4-6.1,3.4-11.2,2.9c-1.6-0.2-3.7-0.9-6.2-2.3
			c-0.4,0.4-0.9,0.8-1.4,1.2c0.2,0.5,0.4,1,0.5,1.5c0.3,0.7,0.5,1.5,0.7,2.2c0.6,1.5,0.9,2.7,0.8,3.7c0,0-0.1,0.5-0.1,1.4
			c0,0,0,0.1,0,0.1c0,0.1,0,0.1,0,0.2c-0.2,1.9-0.7,3.4-1.6,4.6c-1.7,2.3-4.6,3.3-8.6,2.9c-4.8-0.4-8-2.6-9.8-6.4
			c0,0.3-0.1,0.6-0.1,1.1v0.1c0,0.5-0.1,0.9-0.4,1.4c-0.2,0.9-0.4,1.7-0.8,2.4c-1.6,3.6-4.4,5.2-8.3,4.8c-4.7-0.4-7.5-3.3-8.6-8.5
			c-0.3-1.2-0.5-2.5-0.5-3.9c-0.1-0.3-0.2-0.6-0.4-0.8c-0.2-0.1-0.3-0.1-0.5-0.1c-3.2,4.6-6.7,6.7-10.5,6.4
			c-4.3-0.4-6.8-1.7-7.6-3.9c-0.2-0.7-0.2-2.4,0.1-5.2c0.2-2.5,0.5-4.1,0.8-4.9c0.1-0.2,0.2-0.5,0.4-0.7c-3.1,2.5-5.9,3.6-8.4,3.4
			c-3.3-0.3-5.6-1.5-6.9-3.6c-0.9-1.4-1.2-3.2-1-5.2c0.2-2.8,1.7-5.4,4.3-7.6c0.7-0.6,1.4-1.1,2.1-1.6c-1,0-2,0-3-0.1
			c-3.7-0.3-6.4-1.7-8-4c-0.9-1.4-1.3-2.8-1.2-4c0.3-3.2,1.9-5.5,4.9-7c2.3-1.2,5.2-1.8,8.6-1.8c-0.6-0.6-1.2-1.2-1.9-1.9
			c-3.1-3.4-4.6-5.9-4.5-7.7c0.4-3.9,2-6.1,4.8-6.8c2.4-0.5,5.4,0,9.1,1.6c2.9,1.3,5.6,2.9,8.2,5c-0.4-1.8-0.6-3.4-0.4-4.8
			c0.4-4.7,1.9-8.1,4.3-10c2.2-1.7,4.7-2,7.6-0.9c2.8,1.1,5,3.2,6.8,6.2c1.1,1.9,1.8,4,2.2,6.1c0.1,0,0.2,0,0.3,0 M330.2,285.7
			c1.8,1.1,3.6,2.4,5.1,3.8c7,5.9,10.5,12.2,10.3,19c0,5.8-2.8,11.2-8.4,16.2 M386,268c-1.4,1.4-3,2-4.9,2c-1.9,0-3.6-0.7-5-2
			c-0.2-0.2-0.3-0.3-0.4-0.5c-1.1-1.3-1.6-2.8-1.6-4.5c0-1.9,0.7-3.6,2-4.9c1.4-1.4,3-2.1,5-2.1c1.9,0,3.6,0.7,4.9,2.1
			c1.4,1.4,2.1,3,2.1,4.9c0,1.7-0.5,3.2-1.6,4.5C386.4,267.7,386.2,267.8,386,268z M336,325.9c-0.6,0.5-1.2,1-1.9,1.5
			c-7.7,5.8-16.4,8.2-26.1,7.2c-3.3-0.3-6.4-1-9.2-2 M375.8,348.7c3.5,0.1,7.1,4.6,11,13.3c3.9,8.7,6.4,15.6,7.6,20.6
			c1.2,5,1.2,8.4,0.1,10.2c-1.1,1.8-3.7,2.9-7.7,3.1c-4,0.3-7.6-1.9-10.9-6.4c-2.1-1.9-4-3.6-5.9-5.2c-2.2,3.9-4.9,6.8-7.9,8.7
			c-3.1,1.9-6.1,2.9-9.1,2.9c-3,0-5.1-0.7-6.5-2.1c-1.3-1.5-2-3.2-2-5.4c0-7.8,4-16.6,12-26.5c3.1-3.8,6.2-7.1,9.4-9.7
			C369,349.8,372.2,348.6,375.8,348.7z M463.1,337.6c-2.9,1-6,1.6-9.3,1.9c-9.8,0.9-18.4-1.6-26-7.4c-0.6-0.5-1.3-1-1.9-1.5
			 M454.4,393.1c-0.7-0.1-1.1-0.3-1.4-0.4c-0.8-0.2-1.2-0.6-1.2-1.2c0-1.3,1.2-2,3.8-2c0.7,0,1.5,0.2,2.2,0.5c1,0.4,1.5,1,1.5,1.8
			c0,2.8-2.5,4.2-7.5,4.2c-2.7,0-5-0.8-7-2.3c-2-1.6-3-3.4-3-5.4c0-2,1.2-4.5,3.7-7.3c2.5-2.8,7.1-4.1,13.9-3.9
			c5.7,0.2,12.5,2.4,20.6,6.8c-0.4-1.6-0.7-3.2-0.7-4.9c0-8.2,1.8-13.5,5.5-16c2.9-2,6.2-3,10-3c2.9,0,4.7,0.8,5.5,2.5
			c0.3,0.7,0.5,2.2,0.5,4.5c0,1.8-0.1,2.9-0.4,3.5c-0.5,1-1.7,1.5-3.6,1.5c-1.8,0-2.9-0.3-3.4-1c-0.4-0.5-0.6-1.6-0.6-3.2
			c0-2.3,1.4-3.4,4.1-3.5 M524.2,374.2c-1,1.5-2,3.1-3,4.5c-6.6,9.3-15.2,13.8-25.9,13.2c-4.1-0.2-7.4-1-9.9-2.3
			c-2.7-1.4-4.5-3.4-5.4-5.8 M564.5,230.1c0.2,0.6,0.4,1.3,0.6,2c0.9,2.8,2.3,5.6,4.2,8.4c0.1,0.2,0.3,0.4,0.4,0.6
			c0.6,0.9,1.3,1.7,1.9,2.5 M558.7,229.6c-0.5,7.9,1.9,15.7,7.2,23.2c0.6,0.8,1.1,1.6,1.7,2.3c0.4,0.5,0.9,1,1.3,1.5 M536.6,226
			c0,0.7,0.1,1.2,0.1,1.5c0,0,0,0.9-0.1,2.6c0,2,0.2,3.8,0.6,5.5c1.1,5.3,3.4,7.9,7,7.9c2.1,0,3.6-1.4,4.4-4.2
			c0.6-2,0.9-5.6,0.8-10.8 M506.2,213.9c0.1,0.2,0.2,0.4,0.4,0.5c0,0.1,0,0.4,0,0.9c0,0.2-0.6,1.8-1.8,4.9c-1.2,3-1.8,5.5-1.8,7.4
			s0.5,3.2,1.5,4c0.8,0.7,2.1,1,3.8,1c2.5,0,4.8-1.8,6.8-5.3c1.9-3.4,3.2-5.7,4-6.8 M310,100.4c-0.5,7.8-2.5,14.3-6,19.4
			c-4.1,5.8-7.2,9.2-9.5,10.3c1.8-0.6,4.8-1.1,9-1.5c4.8-0.4,9.8,0.3,15.1,2.2c5.3,1.9,7.8,5.4,7.5,10.5c-0.2,5.2-3.2,9.1-9,11.6
			c-5.8,2.5-12.4,3.5-20,2.9c7.8,4,13.4,7.3,16.7,10s5.6,5.9,6.9,9.6c1.3,3.7,0.9,7.2-1.3,10.6c-2.1,3.4-6.3,5-12.6,4.8
			c-6.3-0.9-10.4-1.6-12.2-2.2c-1.9-0.5-3-0.9-3.2-1.1l-1.1-0.6h-0.3c0,0-0.1,0.1-0.1,0.2c1.1,1.9,3.9,5.1,8.4,9.6
			c7.2,8.4,10.2,14.4,9,17.9c-1.3,3.5-2.9,5.7-4.7,6.5s-4.8,1.1-9,1c-4.2-0.2-8.7-1.3-13.6-3.3c-4.9-2.1-7.9-3.6-9.1-4.6l-0.5,0.1
			c0.3,0.5,1.5,2.3,3.4,5.4c1.9,3.7,3.1,7.6,3.6,11.8c0.7,6.3,0.4,10.8-1,13.4c-1,1.8-2.5,2.7-4.5,2.9c-7.1,0.6-13.9-2.3-20.4-8.7
			c-3.2-3.2-5.8-6.5-7.6-9.9h-0.2c-0.1,0-0.2,0-0.2,0.1c2.3,8.4,2.5,15.7,0.7,21.8c-1.8,5.9-4.9,9-9.4,9.5c-5,0.4-9.5-2.6-13.6-9
			c-2.9-4.7-4.8-9.4-5.8-14.3c-0.1,0-0.1,0-0.2,0c1.4,7.8-0.1,15.7-4.6,23.6c-0.2,0.3-0.3,0.6-0.5,0.8 M285.7,110.5
			c0.9,2.2,1.6,4.1,2.2,5.9c0.3,1,0.8,3.2,1.5,6.5c0.3,1.2,0.5,2.6,0.9,4.2c3-4,5.5-9.1,7.5-15.4c0.9-2.6,1.7-5.2,2.3-7.9
			 M290.2,127.2c0.3,1.5,0.6,3.1,1,5c0.3,1.6,0.6,3.1,0.9,4.4c4.4-0.6,7.9-0.7,10.6-0.3c4.1,0.5,6.2,2,6.5,4.4
			c0.3,2.4-1.5,4.6-5.3,6.4c-2.1,1-5.3,2-9.6,3c0.5,4.2,0.6,8.2,0.6,12.2l1.9,1.6c2.8,1.6,5.2,3,7.1,4.2c3.6,2.2,5.5,4.5,5.8,6.9
			c0.1,1-0.6,2-2.2,2.9c-1.3,0.8-2.6,1.2-3.7,1.3c-2,0.2-4.3,0-6.9-0.5c-1.7-0.3-3-0.7-3.9-1.2c-0.9,3.3-2,6.5-3.2,9.5l-0.2,0.1
			c0,0,0.1,0.1,0.1,0.1c-0.9,2.2-2,4.4-3.2,6.6c1.9,2.4,3.7,4.6,5.6,6.6c2.3,2.6,3.5,4.7,3.7,6.4c0.2,1.7-0.2,2.8-1.1,3.3
			c-0.6,0.4-2,0.6-4.1,0.9c-1.8,0.2-4.2-0.3-7.2-1.5c-2.5-1-4.5-2.1-6-3.2c-1.9,2-3.8,4-6,5.8c-2,1.7-4,3.4-6.1,5
			c-0.1,0.2-0.2,0.4-0.4,0.4c0,0.1,0,0.4,0.1,1c0,0.2,0.8,1.7,2.3,4.6c1.5,2.9,2.3,5.2,2.6,7.1c0.2,1.9-0.1,3.3-1,4.2
			c-0.8,0.7-2,1.1-3.7,1.3c-2.5,0.2-5-1.4-7.4-4.7c-2.3-3.2-3.8-5.4-4.6-6.4c-3.1,1.6-6.3,3.1-9.8,4.6H243c0,0,0,0,0,0.1
			c-2.2,0.9-4.4,1.7-6.8,2.6c0,0.7,0.1,1.2,0.2,1.5c0,0,0.1,0.9,0.3,2.5c0.2,2,0.2,3.8,0.1,5.5c-0.5,5.3-2.5,8.2-6.1,8.5
			c-2.1,0.2-3.8-1.1-4.9-3.8c-0.8-1.9-1.4-5.4-1.9-10.7c-2.9,0.7-5.9,1.3-8.9,1.9 M293.8,130.4c0.2-0.1,0.4-0.2,0.7-0.2
			 M262.1,124.4c0.3,1.6,0.7,3.6,1.1,6c0.9,5.1,1.4,11.4,1.4,18.9c0.1,7.4-1.9,16.4-5.9,26.9c-4,10.5-11.1,18.8-21.2,24.8
			c-10.1,6-19.1,9.8-27.2,11.5c-4.3,0.9-9,1.7-14.2,2.4 M292.1,136.6c1.1,6.3,1.8,10.6,2.1,13c0,0.2,0,0.4,0,0.6 M294.9,162.3
			c-0.2,5.4-0.8,10.4-1.9,15.2 M197.2,230.7c0.4,0,0.9,0,1.3,0c20.5-0.7,39-6.9,55.6-18.6c16.2-11.6,25.3-27.5,27.2-47.6
			c1.5-16.6-0.4-32.7-5.7-48.4 M196.1,221c12.9-0.8,26.9-4,42-9.6c17.1-6.4,28.1-19.8,33.1-40.3c4.6-18.9,4-36-1.8-51.5
			 M277.2,206.4L277.2,206.4c3.6-4,6.6-8.1,9.2-12.6 M253,224.7c4.3-2.3,8.4-4.8,12.1-7.5 M303.9,288.7c-5-0.4-9.3,0.6-12.8,2.9
			c-3.5,2.3-5.3,5.3-5.5,9c-0.1,3.7,1.4,7.2,4.6,10.8c3.3,3.5,7.4,5.5,12.5,6c5.1,0.4,9.6-0.8,13.6-3.8c4-3,6-6.2,6-9.8
			c0.1-3.6-1.7-6.9-5.4-10C313.4,290.8,309,289.1,303.9,288.7z M298.2,332.5c-5.4-2-10.1-5.1-14.1-9.4c-6.2-6.7-9.1-13.6-8.9-20.7
			c0.3-7.1,3.8-12.8,10.5-17.2c6.4-4.3,14.3-6.2,23.5-5.7 M214.6,237.4c-1.9,0.3-3.8,0.6-5.8,0.9c0,0.7-0.1,1.4-0.3,2.1
			c-0.6,2.8-1.6,5.7-3.2,8.7c-0.1,0.2-0.2,0.4-0.3,0.6c-0.3,0.5-0.6,1.1-0.9,1.6 M223.8,235.4c4.3-1.1,8.4-2.3,12.4-3.6
			 M208.9,238.3c-3.1,0.5-6.2,0.9-9.5,1.2 M226.9,347c0.5,0.8,1.1,1.6,1.7,2.5c3.4,5.2,8.3,11.2,14.6,17.9
			c6.3,6.7,13,10.3,20.2,10.6c3.3,0.1,5.9-0.1,8-0.7c2.5-0.7,4.2-1.9,5-3.7c1.5-3.2,1.7-6.2,0.6-9c-1.1-2.8-3-5.3-5.9-7.4
			c-2.9-2.2-5.6-3.2-8.1-3.2c-2.5,0-4.3,0.5-5.5,1.5c-1,0.9-1.5,2-1.5,3.5s0.7,2.6,2,3.5c1,0.7,2.1,1,3.2,1c1.7,0,2.8-0.3,3.2-1
			c0.3-0.5,0.5-1.5,0.5-3c0-0.6-0.3-1.2-0.8-1.9 M271.4,377.3c3.2-0.2,5-0.4,5.6-0.7c0.6-0.3,2.6-0.7,6-1.2c3.4-0.5,5.7-0.8,6.8-0.8
			c5.9,0,10.6,1.9,14.2,5.5c3,3.1,4.5,6.3,4.5,9.8c0,3.1-0.8,5.4-2.5,6.8c-1.6,1.3-4.1,2-7.5,2c-2.3,0-4.3-0.7-6-2
			c-0.6-0.5-1.3-1.1-2.2-1.9c-0.5-0.5-0.8-1.4-0.9-2.8c0-1.3,0.2-2.2,0.7-2.6c0.5-0.4,1.3-0.7,2.5-0.7c1.8,0,2.8,0.9,2.8,2.8
			c0,1-0.2,1.9-0.6,2.6 M313.5,423.9c1.3-2.3,2.8-3.9,4.4-4.8c1.6-0.9,3.5-1.4,5.6-1.4c1.7,0,2.7,0.3,3.1,1c0.3,0.6,0.5,2,0.5,4.2
			c0,2.7-0.2,4.6-0.5,5.9c-0.2,0.8-0.6,2.3-1.4,4.6c-5.9-0.3-10.4-1.8-13.6-4.5C311.5,427.9,312.2,426.2,313.5,423.9z M291.6,422.4
			c0.1-2.8,2.5-6.6,7.1-11.4c2.6-1.4,4.7-2.1,6.3-2c1.6,0.1,3,0.4,4.2,0.9c1.1,0.5,2.6,2.7,4.6,6.6c3-2,5.2-3.3,6.8-4
			c1.8-0.9,3.6-1.3,5.2-1.3c2.2,0,4,1.6,5.5,4.9c0.7,1.5,1.2,3,1.5,4.5c1-1.7,2.3-3,4-4c1.7-1,3.3-1.3,4.9-1.1
			c1.6,0.2,3.4,1.4,5.2,3.8c0.7,1,1.4,2,2,3.1c0.4-0.4,0.8-0.9,1.3-1.6c0.9-1.2,1.8-2.1,2.6-2.8c1.1-0.8,2.1-1.3,3-1.5
			c0.6-0.1,1.5-0.2,2.7-0.2c2.7,0,5,0.8,6.9,2.3c1.3,1.1,2.2,2.3,2.6,3.6c0.7-1.7,1.4-3,2.1-4c0.7-1,1.6-1.9,2.7-2.5s3.2-1,6.2-1
			c1.9,0,4,1.2,6.4,3.6c1.6,1.5,3,3.2,4.2,5c0.4-0.5,0.9-1.5,1.4-2.8c0.9-2.3,2-4,3.3-5.1c0.5-0.4,1.6-0.9,3.3-1.3
			c1.5-0.4,2.6-0.7,3.2-0.7c3,0,6.4,2.9,10.2,8.8h0.3c0.2-2.9,1.4-5.5,3.5-7.7s4.3-3.4,6.8-3.4c2.1,0,3.9,0.9,5.5,2.6
			c0.7,0.8,1.6,1.9,2.8,3.4c2-3.3,3.5-5.5,4.7-6.4c1.5-1.2,3.8-1.9,6.8-1.9c3.5,0,6.3,2.1,8.4,6.5c2.1,4.3,3,11.3,2.9,21
			c-0.4,2.4-1.4,4.8-2.8,7.3c-1.4,2.5-4.1,3.7-7.9,3.8c-3.9,0-6.7-2.2-8.5-6.6c-0.6,4.2-1.9,7.8-4,10.8c-2.3,3.2-4.8,4.8-7.4,4.8
			c-1.6,0-3.2-1-4.8-2.9c-1.4-1.7-2.4-3.8-3.1-6.4c-1.1,4.3-3.4,7.9-7,10.6c-3,2.3-5.7,3.5-8,3.5c-2.2,0-3.9-0.8-5.2-2.5
			c-1.2-1.5-2.2-4.2-3.1-8.2c0,1.2,0,2,0,2.4c-0.3,1.5-0.9,3.3-1.9,5.3c-1,2-2.6,3.7-4.9,5c-2.3,1.3-4.5,2-6.6,2
			c-2.2,0-4.2-1.3-6-3.8c-1.2-1.6-2-3.5-2.5-5.6c-0.7,1.4-2.3,3.4-4.6,5.8c-2.3,2.4-5.2,3.3-8.7,2.8c-3.5-0.6-6.4-4.4-8.8-11.6
			c-0.2,1.2-0.7,2.5-1.5,4c-1.7,3-4.1,4.4-7.3,4.4c-2.5,0-4.9-1.6-7-4.7c-1.5-2.2-2.8-5.2-3.9-9c-1.9,1.9-3.3,3.2-4.4,3.8
			c-1,0.6-2.6,0.9-4.8,0.9c-2.2,0-4-1.3-5.5-4c-1.5-2.7-2.5-5-3-6.9c-0.2,0.3-0.4,0.6-0.6,0.8c-1.5,1.8-4.1,2.8-7.8,2.9
			c-3.7,0.1-6.3-1.8-7.9-5.6c-1.6-3.8-2.3-6.9-2-9.3S291.5,425.1,291.6,422.4z M306.5,426.8c-4.6,0-8.1-1.6-10.6-4.9
			c0.7-1.7,1.5-3.1,2.5-4.2c1-1.2,2-2,3-2.5c1-0.5,1.7-0.8,2.3-0.8c2.3,0,3.5,2.2,3.5,6.8c0,1.7,0,2.7,0,3
			C307.2,425.1,306.9,426,306.5,426.8z M298.1,436.3c1.3,1.7,2.9,2.5,4.8,2.5c1.4,0,2.4-1.3,3.1-3.9c0.2-0.8,0.3-1.5,0.5-2.1
			c-1.1-0.9-2.5-1.9-4.1-3.1c-1.7-1.2-3.9-1.6-6.6-1.4C295.9,431.8,296.7,434.4,298.1,436.3z M324,438.7c-3.4-2.8-7.4-4.1-12.2-4.1
			c0,2,0.3,4.1,1,6.2c1.2,4,3.2,6,6,6c1.2,0,2.3-0.3,3.3-1c1-0.7,1.6-2.3,1.9-4.8L324,438.7z M442.3,414.9c1.2,0.1,2.4,1,3.6,2.9
			c1.2,1.8,1.8,4.2,1.8,7c-0.8,0.5-1.9,1.2-3.3,2c-1.4,0.8-3.6,1.3-6.8,1.4c-0.5-0.8-0.7-1.4-0.8-1.9c-0.2-2.3-0.3-3.5-0.2-3.6
			c0-2.5,0.8-4.5,2.3-6.1C439.9,415.4,441.1,414.8,442.3,414.9z M447,430.6c1.3,1,1.4,3.2,0.1,6.7c-1.2,3.5-2.7,5.1-4.5,5
			c-1.8-0.2-2.9-0.4-3.2-0.8c-0.4-0.4-0.8-1.5-1.4-3.5c-0.6-2-0.8-3.5-0.6-4.5c1.1-0.8,2.5-1.7,4.4-2.7
			C443.7,429.8,445.4,429.8,447,430.6z M400.3,420.3c3.3,0,6.1,2.4,8.4,7.1c1.3,2.7,1.9,5.9,2,9.6c-4.8,2.6-10.1,3.6-15.8,2.8
			c-0.1-1-0.4-2.8-0.7-5.3c-0.3-2.6-0.5-4.9-0.5-6.8C393.8,422.8,396,420.3,400.3,420.3z M431.4,430.1c-1.6,1-3.7,2.1-6.2,3.4
			c-2.6,1.3-5.4,1.8-8.4,1.5c-0.1-0.4-0.2-0.9-0.3-1.3c-0.4-2-0.7-4.3-0.7-6.8c0-5.1,2.2-7.7,6.5-7.7c1.9,0,3.8,1,5.7,2.9
			C429.8,424,430.9,426.7,431.4,430.1z M419.4,449.6c0.6,0.8,1.8,1.1,3.5,0.9c1.7-0.2,3.4-2.9,5.2-8.2c0.9-2.5,1-3.9,0.5-4.3
			c-3.3-0.1-7.2,0.9-11.5,3c-0.1,1.3,0.1,2.9,0.6,4.8C418.1,447.5,418.7,448.8,419.4,449.6z M401.3,474c4.8,0,8.6,1.1,11.4,3.4
			c2.9,2.3,4,4.7,3.3,7.1c0,1.9-1.1,2.9-3.2,3c-2.2,0-4.2,0-6,0c-1.9,0-4.5-1.4-7.9-4.2c-3.4-2.8-6.3-4.9-8.7-6.2
			c0.3-0.2,0.7-0.4,1-0.5C395,474.9,398.3,474,401.3,474z M408.7,443.2c-4.3-0.7-8.6-0.1-12.7,1.5c-0.4,1-0.6,1.7-0.6,2.2
			c0,0.8,0,2.2-0.1,4.2c0,1.9,0.4,3.3,1.3,4.1c0.5,0.5,1.1,0.7,1.9,0.8c3.1,0,5.5-1.4,7.3-4.3C407.2,449.6,408.1,446.8,408.7,443.2z
			 M359.2,421c3.3,0,5.5,3.7,6.6,11.1c0.4,2.9,0.6,5.5,0.5,7.9c-1.1,0.5-3.2,0.8-6.4,1.1c-3.2,0.2-6.8-0.8-10.9-3.1
			c0.1-4.2,1.1-7.9,2.8-11C353.8,423,356.3,421,359.2,421z M376,420.3c4.4,0,7.6,2.7,9.6,8.2c1,2.7,2.1,6.7,3.3,12
			c-6.2,2.6-12,2.8-17.5,0.6c-0.3-6.7-0.5-10.5-0.5-11.4C371,423.4,372.7,420.3,376,420.3z M345.5,427.1c0.1,1,0,2.9-0.2,5.6
			c-0.2,2.7-0.6,4.5-1.1,5.6c-3.8,0.5-6.8,0.4-9.1-0.5c-2.4-0.9-3.9-1.7-4.5-2.5c0.4-4.1,1.7-7.5,4.1-10.2c2.4-2.7,4.3-3.9,5.7-3.8
			c1.4,0.2,2.6,0.9,3.6,2.2C344.8,424.9,345.4,426,345.5,427.1z M341,453c0.6-2.7,1.4-5.3,2.2-7.7v-1.5c-4.3-2.1-8.4-3.1-12.3-3
			c-0.7,2-0.4,5.1,0.9,9.2c1.7,3.5,3.6,5.2,5.6,5.2C339.3,455.3,340.5,454.5,341,453z M365.4,446.5c-1.8-0.8-3.8-1.4-6-1.9
			c-2.2-0.5-4.9-0.3-7.9,0.5c-0.3,2.9,0.2,6.1,1.5,9.6c1.4,3.7,3.2,5.4,5.5,5.1c2.3-0.3,4-2,5.3-5.1
			C364.9,452,365.5,449.3,365.4,446.5z M324.3,472.5c-1.1,1.7-1.5,4.1-1.2,7.2c0.2,3.1,4.3,4.2,12.2,3.3c6.3-4,10.5-6.1,12.6-6.3
			c2.1-0.2,4-0.3,5.7-0.2c-2.6-1.7-5.4-3.1-8.5-4.4c-3.1-1.3-7-2-11.9-2S325.4,470.8,324.3,472.5z M369.1,471c2.3,0,4.3,0.8,6,2.5
			c1.7,1.7,2.5,3.7,2.5,6c0,2.3-0.8,4.3-2.5,6c-1.7,1.7-3.7,2.5-6,2.5c-2.3,0-4.3-0.8-6-2.5c-1.7-1.7-2.5-3.7-2.5-6
			c0-2.3,0.8-4.3,2.5-6C364.8,471.9,366.8,471,369.1,471z M374.6,456.4c0.7,1.8,2.2,2.6,4.7,2.6c2.5,0,4.3-1.7,5.6-5.1
			c0.7-2.9,1.1-5.5,1.1-7.7c-4.5-1.5-9.1-1.3-13.8,0.4C373.1,451.4,373.9,454.6,374.6,456.4z"/>
	</g>
</g>
</svg>
