
<svg xmlns="http://www.w3.org/2000/svg" version="1.1" xmlns:xlink="http://www.w3.org/1999/xlink" preserveAspectRatio="none" x="0px" y="0px" width="800px" height="600px" viewBox="0 0 800 600">
<defs>
<path id="Layer0_0_1_STROKES" stroke="#000000" stroke-width="1" stroke-linejoin="round" stroke-linecap="round" fill="none" d="
M 701.85 176.375
L 699.05 176.3
Q 699 177.55 699 179.6 699 180.75 699 181.5
L 703.6 181.5 728.4 181.5 733.65 181.5
Q 733.95 180.35 734.2 178.75 734.3 177.9 734.4 177.2
L 731.6 177.125 731.6 177.15 701.85 176.375 701.3 176.35
Q 701.25 167.5 703.6 163.45 706 159.35 714.4 152.95 727.7 158.75 729.75 164.1 731.8470703125 169.442578125 731.6 177.125
M 728.4 181.5
L 729.7 205.15 734.25 205.25 733.85 213.6 730.35 213.3 734.7 267.9 739.9 267.55 739.15 274.2 735.2 274.55 743 372.05 748.95 372.05 748.4 380.15 743.65 380.175 751.175 475 761.1 475 760.6 481 756.45 481 752.3 532.95 755.15 532.95 754.35 542.95 45.65 542.95 44.85 532.95 47.7 532.95 43.55 481 39.4 481 38.9 475 48.075 475 55.6 380.175 50.85 380.15 50.3 372.05 56.25 372.05 64.05 274.55 60.1 274.2 59.35 267.55 64.55 267.9 68.9 213.3 65.4 213.6 65 205.25 69.55 205.15 70.85 181.5 65.6 181.5
Q 65.3 180.35 65.05 178.75 64.95 177.9 64.85 177.2
L 67.65 177.125
Q 67.4029296875 169.442578125 69.5 164.1 71.55 158.75 84.85 152.95 93.25 159.35 95.65 163.45 98 167.5 97.95 176.35
L 97.4 176.375 100.2 176.3
Q 100.25 177.55 100.25 179.6 100.25 180.75 100.25 181.5
L 95.65 181.5 96.3 204.55 93.45 204.6
Q 93.5 203 93.5 200.65 93.5 193.85 93.25 192 92.5 185.75 89.4 185.75 84 185.75 84 199.15 84 201.2 84.4 203.4 84.5 204.1 84.6 204.8
L 82 204.85
Q 81.25 199.35 80.45 195.4 78.55 186.5 75.5 186.5 73.4 186.5 72.75 190.75 72.5 192.55 72.5 196.75 72.5 200.3 72.55 201.35 72.7 203.4 73.15 205.05
L 72.55 205.075 101.45 204.45 101.1 210.65 96.55 211.025 98.65 270.25 105.05 270.7 104.45 278.05 98.9 277.575 102.25 372.05 107.8 372.05 107.8 380.5 102.55 380.475 106.375 475 135.575 475 138.2 414.125 134.2 414.15 134.25 408.55 137.95 408.55 140.9 345.725 137.2 346.05 136.85 341.15 141.1 340.85 142.95 301.5 139.95 301.25 139.75 297.1 150.9 297.35
Q 151 296.85 151.1 296.4 151.35 294.95 151.35 293.6 151.45 284.65 147.85 284.65 145.8 284.65 145.25 288.85 145.1 290.05 145.05 294.6 145.05 296.15 145 297.2
L 143.15 297.15 143.75 281.85 140.7 281.85
Q 140.7 281.35 140.7 280.6 140.7 279.2 140.8 278.4
L 143.525 278.45 142.25 278.4
Q 142.3 272.55 143.9 269.85 145.5 267.1 151.15 262.85 159.95 266.7 161.25 270.25 162.65 273.85 162.4 278.95
L 164.3 279
Q 164.15 279.45 164.1 280 163.95 281.1 163.75 281.85
L 160.25 281.85 160.9 297.55 158.5 297.5
Q 158.85 296.4 158.95 295.05 159 294.35 159.05 292 159.05 289.2 158.95 288 158.5 285.15 157.1 285.15 155.05 285.15 153.75 291.1 153.2 293.7 152.65 297.35
L 150.9 297.35 163.95 297.65 163.6 303.2 161.3 303 163.8 339.3 167.25 339.05 166.7 343.5 164.05 343.725 168.55 408.55 172.5 408.55 172.1 413.95 169.825 413.975 172.9 475 185.45 475 179.3 338.75
Q 179.15 338.75 179 338.75 177.25 338.75 176 337.4 174.75 336.1 174.75 334.25 174.75 332.4 176 331.05 177.25 329.75 179 329.75 180.75 329.75 182 331.05 183.25 332.4 183.25 334.25 183.25 336.1 182 337.4 181.4 338.05 180.65 338.4
L 182.15 350.6 188.925 347.9 187.05 283.5
Q 185.3 283.3 184 281.95 182.55 280.4 182.55 278.25 182.55 276.1 184 274.55 185.5 273 187.55 273 189.6 273 191.05 274.55 192.55 276.1 192.55 278.25 192.55 280.4 191.05 281.95 190.75 282.25 188.7 283.55
L 191.2 312.125 196.85 311.7 202.35 342.55 222.475 334.55 219.9 299.2 220.625 299.15 215.75 299.4 215 293.25 217.6 293.2
Q 216.2 287.85 216.5 281.8 217.35 266.75 231.55 253.55
L 230.1 253.55 231.7 251 234.45 250.95
Q 250.65 237.85 250.6 229.45 250.6 227.2 250.65 226.2 249.85 226.05 249.2 225.3 248.4 224.35 248.4 223 248.4 221.65 249.2 220.7 250 219.75 251.15 219.75 252.3 219.75 253.1 220.7 253.9 221.65 253.9 223 253.9 224.35 253.1 225.3 252.3 226.25 251.15 226.25
L 251.1 226.25
Q 251.3 227.45 251.6 230.3 252.648828125 239.5888671875 266.125 250.675
L 268.6 250.65 271.35 253.45 264.375 253.5 269.05 253.55
Q 281.7 266.45 283.6 281.55 284.3 286.9 283.5 291.75
L 285.65 291.7 285.4 295.45 282.65 295.6 282.65 295.55 282.55 295.6 278.15 330 296.4 330 294.5 241.7
Q 292.25 241.45 290.55 240 288.5 238.25 288.5 235.75 288.5 233.25 290.55 231.5 292.6 229.75 295.5 229.75 298.4 229.75 300.45 231.5 302.5 233.25 302.5 235.75 302.5 238.25 300.45 240 299.7 240.65 298.8 241.1
L 307.9 474.9 341.95 474.95 339.1 331 460.9 331 458.05 474.975 492.1 475 501.2 241.1
Q 500.3 240.65 499.55 240 497.5 238.25 497.5 235.75 497.5 233.25 499.55 231.5 501.6 229.75 504.5 229.75 507.4 229.75 509.45 231.5 511.5 233.25 511.5 235.75 511.5 238.25 509.45 240 507.75 241.45 505.5 241.7
L 503.6 330 520.65 330 516.25 295.6 516.15 295.55 516.15 295.6 513.4 295.45 513.15 291.7 515.3 291.75
Q 514.5 286.9 515.2 281.55 517.1 266.45 529.75 253.55
L 533.15 253.525 534.45 253.5 527.45 253.45 530.2 250.65 532.675 250.675
Q 546.1513671875 239.5884765625 547.2 230.3 547.5 227.45 547.7 226.25
L 547.65 226.25
Q 546.5 226.25 545.7 225.3 544.9 224.35 544.9 223 544.9 221.65 545.7 220.7 546.5 219.75 547.65 219.75 548.8 219.75 549.6 220.7 550.4 221.65 550.4 223 550.4 224.35 549.6 225.3 548.95 226.05 548.15 226.2 548.2 227.2 548.2 229.45 548.15 237.85 564.35 250.95
L 567.1 251 568.7 253.55 567.25 253.55
Q 581.45 266.75 582.3 281.8 582.6 287.85 581.2 293.2
L 583.8 293.25 583.05 299.4 578.175 299.15 578.9 299.2 576.375 334.075 594.95 341.475 600.25 311.7 605.9 312.125 608.4 283.55
Q 606.35 282.25 606.05 281.95 604.55 280.4 604.55 278.25 604.55 276.1 606.05 274.55 607.5 273 609.55 273 611.6 273 613.1 274.55 614.55 276.1 614.55 278.25 614.55 280.4 613.1 281.95 611.8 283.3 610.05 283.5
L 608.225 346.575 608.225 346.75 617.85 350.6 617.15 359.65 565.7 342.3 561.15 475 573.25 475 572.75 426.4 609.4 429.65 605.5 475 608.225 475 619.05 338.25
Q 618.5 337.95 618 337.4 616.75 336.1 616.75 334.25 616.75 332.4 618 331.05 619.25 329.75 621 329.75 622.75 329.75 624 331.05 625.25 332.4 625.25 334.25 625.25 336.1 624 337.4 622.75 338.75 621 338.75 620.85 338.75 620.7 338.75
L 614.55 475 627.875 475 630.45 413.95 630.3 413.95 630.3 413.975 627.15 413.95 626.75 408.55 630.7 408.55 635.2 343.725 632.55 343.5 632 339.05 635.45 339.3 637.95 303 635.65 303.2 635.3 297.65 648.35 297.35 646.6 297.35
Q 646.05 293.7 645.5 291.1 644.2 285.15 642.15 285.15 640.75 285.15 640.3 288 640.2 289.2 640.2 292 640.25 294.35 640.3 295.05 640.4 296.4 640.75 297.5
L 638.35 297.55 639 281.85 635.5 281.85
Q 635.3 281.1 635.15 280 635.1 279.45 634.95 279
L 636.85 278.95
Q 636.6 273.85 638 270.25 639.3 266.7 648.1 262.85 653.75 267.1 655.35 269.85 656.95 272.55 657 278.4
L 655.75 278.45 658.45 278.4
Q 658.55 279.2 658.55 280.6 658.55 281.35 658.55 281.85
L 655.5 281.85 656.1 297.15 654.25 297.2
Q 654.2 296.15 654.2 294.6 654.15 290.05 654 288.85 653.45 284.65 651.4 284.65 647.8 284.65 647.9 293.6 647.9 294.95 648.15 296.4 648.25 296.85 648.35 297.35
L 659.5 297.1 659.3 301.25 656.3 301.5 658.15 340.85 662.4 341.15 662.05 346.05 658.35 345.725 661.3 408.55 665 408.55 665.05 414.15 662.3 414.125 664.625 475 692.875 475 696.7 380.475 691.45 380.5 691.45 372.05 697 372.05 700.35 277.575 694.8 278.05 694.2 270.7 700.6 270.25 702.7 211.025 698.15 210.65 697.8 204.45 726.7 205.075 726.1 205.05
Q 726.55 203.4 726.7 201.35 726.75 200.3 726.75 196.75 726.75 192.55 726.5 190.75 725.85 186.5 723.75 186.5 720.7 186.5 718.8 195.4 718 199.35 717.25 204.85
L 714.65 204.8
Q 714.75 204.1 714.85 203.4 715.25 201.2 715.25 199.15 715.25 185.75 709.85 185.75 706.75 185.75 706 192 705.75 193.85 705.75 200.65 705.75 203 705.8 204.6
L 702.95 204.55 703.6 181.5
M 734.7 267.9
L 734.7 267.95 700.6 270.3 700.6 270.25
M 702.7 211.025
L 702.7 211 730.35 213.3
M 700.35 277.575
L 700.35 277.55 735.2 274.55
M 637.95 303
L 656.3 301.45 656.3 301.5
M 658.15 340.85
L 658.15 340.9 635.45 339.35 635.45 339.3
M 635.2 343.725
L 635.2 343.7 658.35 345.7 658.35 345.725
M 696.7 380.475
L 696.7 380.45 743.65 380.15 743.65 380.175
M 743 372.05
L 697 372.05
M 729.7 205.15
L 726.7 205.075
M 756.45 481
L 689.3 481 692.85 532.95 752.3 532.95
M 751.175 475
L 692.875 475
M 398.95 39.2
Q 398.9 39.2 398.85 39.2 397.2 39.2 396 37.85 394.85 36.55 394.85 34.7 394.85 32.85 396 31.5 397.1 30.3 398.6 30.2 398.7 30.2 398.85 30.2 400.5 30.2 401.65 31.5 402.85 32.85 402.85 34.7 402.85 36.55 401.65 37.85 400.55 39.15 398.95 39.2 Z
M 399.6 63.45
Q 397.1 63.45 395.35 60.6 393.6 57.75 393.6 53.7 393.6 49.65 395.35 46.8 396.9 44.25 399.1 44 399.35 43.95 399.6 43.95 402.1 43.95 403.85 46.8 405.6 49.65 405.6 53.7 405.6 57.75 403.85 60.6 402.2 63.3 399.85 63.45 399.7 63.45 399.6 63.45 Z
M 399.85 68.7
Q 399.9 68.7 399.95 68.7 401.7 68.75 403 70.1 404.35 71.5 404.35 73.45 404.35 75.4 403 76.8 401.8 78.1 400.1 78.2 400.05 78.2 400 78.2 399.95 78.2 399.85 78.2 398 78.2 396.65 76.8 395.35 75.4 395.35 73.45 395.35 71.5 396.65 70.1 398 68.7 399.85 68.7 Z
M 419.15 136.8
Q 419.5 137.05 416.05 137.85 413 138.85 398.4 139.05
L 384.25 137.6
Q 380.8 137.05 381.15 136.8
L 375.2 135.1 372.1 137.3 377.3 139
Q 398.2 143.7 424.85 140
L 428.6 138.95 424.65 135.45 419.15 136.8
Q 404.3 125.65 400.15 80.85 396 125.65 381.15 136.8
M 377.3 139
Q 347 155.5 331.6 172.5 321.75 181.95 314.4 198.25 307 214.45 309.4 229.35 311.7 244.25 323.4 261.6
L 326.4 261.65 400.15 263.1 473.9 261.65 476.9 261.6
Q 488.6 244.25 490.9 229.35 493.3 214.45 485.9 198.25 478.55 181.95 468.7 172.5 453.75 156 424.85 140
M 473 278.6
L 473.4 270.4 400.15 271.25 326.9 270.4 327.3 278.6 411.95 278.2 473 278.6 472.525 287.5 499.2 287.5 498.85 296 301.15 296 300.8 287.5 327.775 287.5 327.3 278.6
M 473.4 270.4
L 473.9 261.65
M 326.4 261.65
L 326.9 270.4
M 355.05 414.95
L 354.65 390.75
Q 355.05 373.15 376.1 364.95 391 359.1 400 355.65 409 359.1 423.9 364.95 444.95 373.15 445.35 390.75
L 445 413.525 444.9 422.95 444.35 474.95 443.225 474.975 450.5 474.975 450.8 383.7
Q 448.45 365.95 422.75 357.3 406.6 351.7 400 348.9 393.35 351.7 377.25 357.3 351.55 365.95 349.2 383.7
L 349.5 474.95 355.65 474.95 355.1 422.95 355.05 414.95 387.7 414.55 386.75 398.5
Q 386.2 391.2 394.45 387.35
L 400.25 385.1 406.1 387.35
Q 414.3 391.2 413.8 398.5
L 412.85 414.55 444.95 414.95 445 413.525
M 387.7 414.55
L 390.65 414.55 389.75 400.25
Q 388.95 392.05 396.9 389.1
L 400.25 387.9 403.6 389.1
Q 411.6 392.05 410.75 400.25
L 409.9 414.5 410.05 414.5 410.05 414.55 412.85 414.55
M 349.2 383.7
L 349.05 340.95 399.7 340.3 450.95 340.95 450.8 383.7
M 327.775 287.5
L 472.525 287.5
M 545.55 217.5
Q 545.55 216.8 546.1 216.25 546.7 215.75 547.55 215.75 548.4 215.75 548.95 216.25 549.55 216.8 549.55 217.5 549.55 218.2 548.95 218.7 548.4 219.25 547.55 219.25 546.7 219.25 546.1 218.7 545.55 218.2 545.55 217.5 Z
M 548.65 213.9
Q 548.65 214.5 548.25 214.9 547.85 215.3 547.25 215.3 546.65 215.3 546.25 214.9 545.85 214.5 545.85 213.9 545.85 213.3 546.25 212.9 546.65 212.5 547.25 212.5 547.85 212.5 548.25 212.9 548.65 213.3 548.65 213.9 Z
M 547.7 226.25
Q 547.9 226.25 548.15 226.2
M 533.15 253.525
L 535.625 253.525 534.45 253.5
M 565.7 342.3
L 566.1 330.95 566.85 309
Q 569.3140625 308.8173828125 571.2 307.25 571.3751953125 307.11171875 571.55 306.95 573.05 305.55 573.5 303.75
L 576.15 303.75 576.55 301.9 573.75 301.7
Q 573.692578125 300.1515625 572.975 298.85 572.445703125 297.881640625 571.55 297.05 569.95 295.6 567.9 295.2 567.15 295 566.25 295 566.15 295 566.05 295 563.1 295.05 560.95 297.05 560.4013671875 297.5515625 560 298.1 559.090234375 299.3240234375 558.85 300.8
L 555.9 300.65 556.5 303.75 558.95 303.75
Q 559.45 305.55 560.95 306.95 561.206640625 307.1958984375 561.475 307.4 562.470703125 308.2068359375 563.65 308.6
L 562.225 330 561.4 342.25 552.65 475 561.15 475
M 532.675 250.675
L 564.35 250.95
M 553.525 330
Q 553.375 322.0806640625 553.05 319.3 553 319 553 318.7 551.25 305 544.6 305 542.25 305 540.65 307 538.6 309.5 538.6 314.25 538.6 315.95 538.65 317.7 538.7 322.4 539.05 327.1 539.1591796875 328.6396484375 539.3 330
L 553.525 330 556.625 330
Q 556.7189453125 328.75703125 556.85 327.65 557.3 323.85 557.85 319.2 558.4 314.55 559.6 311.5 560.5365234375 309.123828125 561.475 307.4
M 534.675 330
Q 534.2474609375 326.0556640625 533.65 322.2 533.05 318.2 532.35 315.1 529.9 304 526.6 304 524.15 304 522.85 307.4 522.7 307.7 522.6 308 521.6 311.1 522.25 316.5 522.9 321.85 523.15 327.5 523.1962890625 328.8076171875 523.25 330
L 534.675 330 539.3 330
M 562.225 330
L 556.625 330
M 566.1 330.95
L 566.15 330 572.225 332.425
Q 572.6 327.82578125 572.6 324.25 572.6 314.15 572.1 311 571.95 310.05 571.75 309.2 571.510546875 308.1396484375 571.2 307.25
M 523.25 330
L 520.65 330
M 503.6 330
L 503.35 342.1 561.4 342.25
M 578.175 299.15
L 572.975 298.85
M 572.225 332.425
L 576.375 334.075
M 594.95 341.475
L 603.075 344.7 605.9 312.125
M 595.05 404.1
L 601.4 404.6 603.3 378.45
Q 603.45 377.7 603.45 377 603.45 374.7 602.25 372.95 601.15 371.15 599.15 369.85 594.95 366.9 593.2 365.65 591.7 366.2 586.95 367.9 582.2 369.6 581.9 374.45
L 583.55 403.2 587.8 403.55 588.6 389.15 596.4 389.95 595.05 404.1 587.8 403.55
M 605.6 393.3
L 606.35 377.65
Q 606.4 376.8 606.4 376 606.4 374.75 606.05 373.6 605 370.2 601 367.6 595.7 364.15 593.45 362.65 591.55 363.3 585.55 365.15 579.6 367.05 579.25 372.6
L 581.4 405.85 581.4 405.95 604.85 408.6 605.6 393.3 608.2 365.45 579.45 355.9 578.8 405.55 581.4 405.85
M 606.6 412.75
L 612.15 364 576.3 352.35 574.75 408.65 606.6 412.75 Z
M 603.075 344.7
L 608.225 346.575
M 535.625 253.525
L 567.25 253.55
M 581.2 293.2
L 515.3 291.75
M 560 298.1
L 516.25 295.6
M 97.4 176.375
L 67.65 177.15 67.65 177.125
M 95.65 181.5
L 70.85 181.5
M 68.9 213.3
L 96.55 211 96.55 211.025
M 98.65 270.25
L 98.65 270.3 64.55 267.95 64.55 267.9
M 64.05 274.55
L 98.9 277.55 98.9 277.575
M 143.75 281.85
L 160.25 281.85
M 69.55 205.15
L 72.55 205.075
M 55.6 380.175
L 55.6 380.15 102.55 380.45 102.55 380.475
M 142.95 301.5
L 142.95 301.45 161.3 303
M 163.8 339.3
L 163.8 339.35 141.1 340.9 141.1 340.85
M 164.05 343.725
L 164.05 343.7 140.9 345.7 140.9 345.725
M 102.25 372.05
L 56.25 372.05
M 250.55 212.9
Q 250.15 213.3 250.15 213.9 250.15 214.5 250.55 214.9 250.95 215.3 251.55 215.3 252.15 215.3 252.55 214.9 252.95 214.5 252.95 213.9 252.95 213.3 252.55 212.9 252.15 212.5 251.55 212.5 250.95 212.5 250.55 212.9 Z
M 251.25 219.25
Q 252.1 219.25 252.7 218.7 253.25 218.2 253.25 217.5 253.25 216.8 252.7 216.25 252.1 215.75 251.25 215.75 250.4 215.75 249.85 216.25 249.25 216.8 249.25 217.5 249.25 218.2 249.85 218.7 250.4 219.25 251.25 219.25 Z
M 251.1 226.25
Q 250.9 226.25 250.65 226.2
M 220.625 299.15
L 227.05 298.775
Q 227.5849609375 297.8533203125 228.45 297.05 230.05 295.6 232.1 295.2
L 232.225 292.875 217.6 293.2
M 283.5 291.75
L 233.425 292.85 233.95 295
Q 236.9 295.05 239.05 297.05 239.5662109375 297.521875 239.95 298.05
L 282.55 295.6
M 232.225 292.875
L 232.45 288.8 233.425 292.85
M 239.95 298.05
Q 240.9033203125 299.2841796875 241.15 300.8
L 244.1 300.65 243.5 303.75 241.05 303.75
Q 240.55 305.55 239.05 306.95 238.3919921875 307.5806640625 237.65 308.025 238.4232421875 309.529296875 239.2 311.5 240.4 314.55 240.95 319.2 241.5 323.85 241.95 327.65 242.0810546875 328.75703125 242.175 330
L 245.275 330
Q 245.425 322.0806640625 245.75 319.3 245.8 319 245.8 318.7 247.55 305 254.2 305 256.55 305 258.15 307 260.2 309.5 260.2 314.25 260.2 315.95 260.15 317.7 260.1 322.4 259.75 327.1 259.6408203125 328.6396484375 259.5 330
L 264.125 330
Q 264.5525390625 326.0556640625 265.15 322.2 265.75 318.2 266.45 315.1 268.9 304 272.2 304 274.65 304 275.95 307.4 276.1 307.7 276.2 308 277.2 311.1 276.55 316.5 275.9 321.85 275.65 327.5 275.6037109375 328.8076171875 275.55 330
L 278.15 330
M 237.65 308.025
Q 237.0275390625 308.37421875 236.35 308.6
L 237.775 330 242.175 330
M 222.475 334.55
L 226.6 332.9
Q 226.2 328.0048828125 226.2 324.25 226.2 314.15 226.7 311 226.85 310.05 227.05 309.2 227.4091796875 307.609765625 227.95 306.425 226.8681640625 305.22265625 226.5 303.75
L 223.85 303.75 223.45 301.9 226.25 301.7
Q 226.3087890625 300.1123046875 227.05 298.775
M 226.6 332.9
L 233.85 330 233.9 330.95 233.15 309
Q 230.45 308.8 228.45 306.95 228.17734375 306.6955078125 227.95 306.425
M 182.15 350.6
L 182.85 359.65 234.3 342.3 233.9 330.95
M 237.775 330
L 238.6 342.25 296.65 342.1 296.4 330
M 202.35 342.55
L 193.875 346.075 193.8 346.25 188.7 348 188.925 347.9
M 191.2 312.125
L 193.875 346.075
M 204.95 404.1
L 198.6 404.6 196.7 378.45
Q 196.55 377.7 196.55 377 196.55 374.7 197.75 372.95 198.85 371.15 200.85 369.85 205.05 366.9 206.8 365.65 208.3 366.2 213.05 367.9 217.8 369.6 218.1 374.45
L 216.45 403.2 212.2 403.55 204.95 404.1 203.6 389.95 211.4 389.15 212.2 403.55
M 195.8 408.3
L 195.675 406.475 195.725 407 193.65 377.65
Q 193.6 376.8 193.6 376 193.6 374.75 193.95 373.6 195 370.2 199 367.6 204.3 364.15 206.55 362.65 208.45 363.3 214.45 365.15 220.4 367.05 220.75 372.6
L 218.45 405.85 221.2 405.55 220.55 355.9 191.8 365.45 195.8 408.3 196.35 408.3 217.1 406.1 218.45 405.85 218.6 405.95 217.1 406.1
M 187.85 364
L 193.4 412.75 225.25 408.65 223.7 352.35 187.85 364 Z
M 245.275 330
L 259.5 330
M 264.125 330
L 275.55 330
M 263.6 400.85
L 257.8 400.9 255.2 369.35
Q 255.1 368.5 255.15 367.75 255.25 365.2 256.75 363.4 258.1 361.7 260.55 360.6 265.65 358.2 267.8 357.15 269.55 358.05 275.15 360.85 280.7 363.65 280.85 369.1
L 277.65 400.65 271.5 400.75 263.6 400.85 263.6 400.825 262.5 386.3 271.3 386.45 271.5 400.75
M 251.65 367.5
Q 251.6 366.7 251.65 366 251.7 364.6 252.2 363.4 253.6 359.85 258.45 357.75 264.9 354.95 267.65 353.75 269.85 354.8 276.9 358.05 283.45 361.1 284.05 366.85
L 285.6 352.9 249.95 351.85 251.65 367.5
Q 251.65 367.7 251.7 367.9
L 255 404.4 280.05 404.1 283.3 374.45 284.05 366.85
Q 284.1 367.2 284.1 367.6
L 283.3 374.45
M 289.6 349.35
L 246.65 347.85 251.15 407.75 283.75 407.55 289.6 349.35 Z
M 231.55 253.55
L 264.375 253.5
M 234.45 250.95
L 266.125 250.675
M 162.4 278.95
L 143.525 278.45
M 289.85 445.3
L 289.3 429.4 254.8 430 255.95 474.825 261.25 474.825 257.5 446.15
Q 257.4 445.15 257.4 444.25 257.4 442.85 257.85 441.65 259.1 438.1 263.85 436 270.2 433.2 272.9 432 275.15 433.05 282.35 436.3 289.15 439.4 289.85 445.3 289.9 445.55 289.9 445.85
L 290.9 474.875 293.25 474.875 293 426.8 251.55 427.25 253.2 474.825 255.95 474.825
M 285 474.875
L 286.7 447.35
Q 286.35 441.9 280.7 439.1 275 436.3 273.2 435.4 271.1 436.45 266.1 438.85 263.7 439.95 262.4 441.65 260.95 443.45 260.95 446 260.95 446.75 261.1 447.6
L 264.4 474.825 271.2 474.85 270.85 459.85 277.75 460.1 279.1 474.85 285 474.875 290.9 474.875
M 253.2 474.825
L 247.4 474.825 238.85 474.8 226.8 474.775 223.5 474.775 219.9 474.775 214.3 474.75 207.95 474.75 201.3 474.85 197.9 475 196.4 475 194.55 475 191.9 475 185.45 475
M 279.1 474.85
L 271.2 474.85
M 264.4 474.825
L 261.25 474.825
M 307.9 474.9
L 299.5 474.875 293.25 474.875
M 219.9 474.775
L 221.35 446.85
Q 221.05 441.45 216.3 439.15 211.55 436.85 210.05 436.1 208.3 437.35 204.1 440.2 202.1 441.5 201 443.35 199.8 445.25 199.8 447.8 199.8 448.55 199.95 449.4
L 201.3 474.85
M 197.9 475
L 196.9 448.25
Q 196.85 447.3 196.85 446.4 196.85 445 197.2 443.75 198.25 440.1 202.25 437.55 207.55 434.2 209.8 432.75 211.7 433.6 217.7 436.2 222.956640625 438.4970703125 223.85 443.65
L 224 429.3 195.05 431.95 196.4 475
M 138.2 414.125
L 168.95 413.95 168.95 413.975 169.825 413.975
M 207.95 474.75
L 207.1 459.15 214.7 458.7 214.3 474.75
M 226.8 474.775
L 227.25 426.4 190.6 429.65 194.55 475
M 223.5 474.775
L 223.85 443.65
M 301.85 481
L 306.8 532.95 493.2 532.95 498.15 481 301.85 481 110.7 481 107.15 532.95 306.8 532.95
M 47.7 532.95
L 107.15 532.95
M 43.55 481
L 110.7 481
M 106.375 475
L 48.075 475
M 137.95 408.55
L 168.55 408.55
M 172.9 475
L 135.575 475
M 602.1 475
L 603.1 448.25
Q 603.15 447.3 603.15 446.4 603.15 445 602.8 443.75 601.75 440.1 597.75 437.55 592.45 434.2 590.2 432.75 588.3 433.6 582.3 436.2 577.0423828125 438.4974609375 576.15 443.65
L 576.55 475 580.1 475 578.65 446.85
Q 578.95 441.45 583.7 439.15 588.45 436.85 589.95 436.1 591.7 437.35 595.9 440.2 597.9 441.5 599 443.35 600.2 445.25 600.2 447.8 600.2 448.55 600.05 449.4
L 598.675 475 602.1 475 603.575 475 604.95 431.95 576 429.3 576.15 443.65
M 598.675 475
L 592.05 475 585.7 475 580.1 475
M 576.55 475
L 573.25 475
M 605.5 475
L 603.575 475
M 592.05 475
L 592.9 459.15 585.3 458.7 585.7 475
M 614.55 475
L 608.225 475
M 538.8 475
L 542.5 446.15
Q 542.6 445.15 542.6 444.25 542.6 442.85 542.15 441.65 540.9 438.1 536.15 436 529.8 433.2 527.1 432 524.85 433.05 517.65 436.3 510.85 439.4 510.15 445.3 510.1 445.55 510.1 445.85
L 509.1 475 515 475 513.3 447.35
Q 513.65 441.9 519.3 439.1 525 436.3 526.8 435.4 528.9 436.45 533.9 438.85 536.3 439.95 537.6 441.65 539.05 443.45 539.05 446 539.05 446.75 538.9 447.6
L 535.65 475 538.8 475 544.05 475 545.2 430 510.7 429.4 510.15 445.3
M 528.8 475
L 529.15 459.85 522.25 460.1 520.95 475 528.8 475 535.65 475
M 520.95 475
L 515 475
M 509.1 475
L 506.75 475 500.5 475 492.1 475
M 552.65 475
L 546.8 475 544.05 475
M 546.8 475
L 548.45 427.25 507 426.8 506.75 475
M 390.65 414.55
L 409.9 414.55 409.9 414.5
M 355.65 474.95
L 387.7 475 387.7 474.95 386.85 460.15
Q 386.3 452.1 394.75 447.8
L 400 445.65 405.25 447.8
Q 413.7 452.1 413.15 460.15
L 412.45 474.95 412.35 474.95 412.35 475 443.225 474.975
M 412.35 475
L 409.45 475 390.65 475 387.7 474.95
M 409.45 475
L 410.05 462.05
Q 410.9 453 402.7 449.75
L 400 448.7 397.3 449.75
Q 389.1 453 389.95 462.05
L 390.65 475
M 458.05 474.975
L 450.5 474.975
M 341.95 474.95
L 349.5 474.95
M 444.9 422.95
L 355.1 422.95
M 500.5 475
L 503.35 342.1
M 234.3 342.3
L 238.85 474.8
M 191.9 475
L 182.85 359.65
M 299.5 474.875
L 296.65 342.1
M 238.6 342.25
L 247.4 474.825
M 662.3 414.125
L 630.45 413.95
M 655.5 281.85
L 639 281.85
M 630.7 408.55
L 661.3 408.55
M 636.85 278.95
L 655.75 278.45
M 692.85 532.95
L 493.2 532.95
M 498.15 481
L 689.3 481
M 664.625 475
L 627.875 475"/>
</defs>

<g transform="matrix( 1, 0, 0, 1, 0,0) ">
<use xlink:href="#Layer0_0_1_STROKES"/>
</g>
</svg>
