<?xml version="1.0" encoding="utf-8"?>
<!-- Generator: Adobe Illustrator 18.0.0, SVG Export Plug-In . SVG Version: 6.00 Build 0)  -->
<!DOCTYPE svg PUBLIC "-//W3C//DTD SVG 1.1//EN" "http://www.w3.org/Graphics/SVG/1.1/DTD/svg11.dtd">
<svg version="1.1" id="Layer_1" xmlns="http://www.w3.org/2000/svg" xmlns:xlink="http://www.w3.org/1999/xlink" x="0px" y="0px"
	 viewBox="38.4 29.7 723.2 513.8" enable-background="new 38.4 29.7 723.2 513.8" xml:space="preserve">
<g transform="matrix( 1, 0, 0, 1, 0,0) ">
	<g>
		<path id="Layer0_0_1_STROKES" fill="none" stroke="#000000" stroke-linecap="round" stroke-linejoin="round" d="M701.8,176.4
			l-2.8-0.1c0,0.8,0,1.9,0,3.3c0,0.8,0,1.4,0,1.9h4.6h24.8h5.2c0.2-0.8,0.4-1.7,0.5-2.8c0.1-0.6,0.1-1.1,0.2-1.6l-2.8-0.1v0
			L701.8,176.4l-0.5,0c0-5.9,0.7-10.2,2.3-12.9c1.6-2.7,5.2-6.2,10.8-10.5c8.9,3.9,14,7.6,15.3,11.2c1.4,3.6,2,7.9,1.8,13
			 M728.4,181.5l1.3,23.6l4.5,0.1l-0.4,8.4l-3.5-0.3l4.4,54.6l5.2-0.4l-0.8,6.7l-4,0.3L743,372h6l-0.5,8.1l-4.8,0l7.5,94.8h9.9
			l-0.5,6h-4.1l-4.2,52h2.9l-0.8,10H45.7l-0.8-10h2.9l-4.2-52h-4.1l-0.5-6h9.2l7.5-94.8l-4.8,0l-0.5-8.1h6l7.8-97.5l-4-0.3l-0.8-6.7
			l5.2,0.4l4.3-54.6l-3.5,0.3l-0.4-8.4l4.6-0.1l1.3-23.6h-5.2c-0.2-0.8-0.4-1.7-0.5-2.8c-0.1-0.6-0.1-1.1-0.2-1.6l2.8-0.1
			c-0.2-5.1,0.5-9.5,1.8-13c1.4-3.6,6.5-7.3,15.3-11.2c5.6,4.3,9.2,7.8,10.8,10.5c1.6,2.7,2.3,7,2.3,12.9l-0.5,0l2.8-0.1
			c0,0.8,0.1,1.9,0.1,3.3c0,0.8,0,1.4,0,1.9h-4.6l0.7,23.1l-2.9,0.1c0-1.1,0.1-2.4,0.1-4c0-4.5-0.1-7.4-0.2-8.6
			c-0.5-4.2-1.8-6.2-3.8-6.2c-3.6,0-5.4,4.5-5.4,13.4c0,1.4,0.1,2.8,0.4,4.2c0.1,0.5,0.1,0.9,0.2,1.4l-2.6,0.1
			c-0.5-3.7-1-6.8-1.6-9.5c-1.3-5.9-2.9-8.9-4.9-8.9c-1.4,0-2.3,1.4-2.8,4.2c-0.2,1.2-0.2,3.2-0.2,6c0,2.4,0,3.9,0.1,4.6
			c0.1,1.4,0.3,2.6,0.6,3.7l-0.6,0l28.9-0.6l-0.3,6.2l-4.5,0.4l2.1,59.2l6.4,0.5l-0.6,7.3l-5.5-0.5l3.3,94.5h5.6v8.5l-5.2,0
			l3.8,94.5h29.2l2.6-60.9l-4,0l0.1-5.6h3.7l2.9-62.8l-3.7,0.3l-0.3-4.9l4.2-0.3l1.8-39.4l-3-0.2l-0.2-4.1l11.1,0.2
			c0.1-0.3,0.1-0.7,0.2-1c0.2-1,0.2-1.9,0.2-2.8c0.1-6-1.1-9-3.5-9c-1.4,0-2.2,1.4-2.6,4.2c-0.1,0.8-0.2,2.7-0.2,5.8
			c0,1,0,1.9-0.1,2.6l-1.9-0.1l0.6-15.3h-3.1c0-0.3,0-0.8,0-1.2c0-0.9,0-1.7,0.1-2.2l2.7,0.1l-1.3-0.1c0-3.9,0.6-6.8,1.6-8.5
			c1.1-1.8,3.5-4.2,7.2-7c5.9,2.6,9.2,5,10.1,7.4c0.9,2.4,1.3,5.3,1.1,8.7l1.9,0c-0.1,0.3-0.2,0.6-0.2,1c-0.1,0.7-0.2,1.4-0.4,1.9
			h-3.5l0.6,15.7l-2.4,0c0.2-0.7,0.4-1.6,0.4-2.5c0-0.5,0.1-1.5,0.1-3c0-1.9,0-3.2-0.1-4c-0.3-1.9-0.9-2.9-1.8-2.9
			c-1.4,0-2.5,2-3.4,6c-0.4,1.7-0.7,3.8-1.1,6.2h-1.8l13.1,0.3l-0.3,5.6l-2.3-0.2l2.5,36.3l3.4-0.2l-0.6,4.5l-2.6,0.2l4.5,64.8h3.9
			l-0.4,5.4l-2.3,0l3.1,61h12.6l-6.1-136.2c-0.1,0-0.2,0-0.3,0c-1.2,0-2.2-0.4-3-1.4c-0.8-0.9-1.2-1.9-1.2-3.1s0.4-2.3,1.2-3.2
			c0.8-0.9,1.8-1.3,3-1.3s2.2,0.4,3,1.3c0.8,0.9,1.2,2,1.2,3.2s-0.4,2.3-1.2,3.1c-0.4,0.4-0.9,0.8-1.4,1l1.5,12.2l6.8-2.7l-1.9-64.4
			c-1.2-0.1-2.2-0.6-3.1-1.5c-1-1-1.4-2.3-1.4-3.7s0.5-2.7,1.4-3.7c1-1,2.2-1.5,3.6-1.5s2.5,0.5,3.5,1.5c1,1,1.5,2.3,1.5,3.7
			s-0.5,2.7-1.5,3.7c-0.2,0.2-1,0.7-2.4,1.6l2.5,28.6l5.7-0.4l5.5,30.8l20.1-8l-2.6-35.3l0.7-0.1l-4.9,0.2l-0.8-6.1l2.6,0
			c-0.9-3.6-1.3-7.4-1.1-11.4c0.6-10,5.6-19.4,15.1-28.2h-1.4l1.6-2.6l2.8-0.1c10.8-8.7,16.2-15.9,16.2-21.5c0-1.5,0-2.6,0-3.2
			c-0.5-0.1-1-0.4-1.4-0.9c-0.5-0.6-0.8-1.4-0.8-2.3c0-0.9,0.3-1.7,0.8-2.3c0.5-0.6,1.2-0.9,1.9-0.9c0.8,0,1.4,0.3,2,0.9
			s0.8,1.4,0.8,2.3c0,0.9-0.3,1.7-0.8,2.3s-1.2,0.9-2,0.9h0c0.1,0.8,0.3,2.2,0.5,4.1c0.7,6.2,5.5,13,14.5,20.4l2.5,0l2.8,2.8l-7,0.1
			l4.7,0.1c8.4,8.6,13.3,17.9,14.6,28c0.5,3.6,0.4,7-0.1,10.2l2.1,0l-0.2,3.8l-2.8,0.1v-0.1l-0.1,0.1l-4.4,34.4h18.2l-1.9-88.3
			c-1.5-0.2-2.8-0.7-4-1.7c-1.4-1.2-2-2.6-2-4.2s0.7-3.1,2-4.2s3-1.8,5-1.8s3.6,0.6,5,1.8s2,2.6,2,4.2s-0.7,3.1-2,4.2
			c-0.5,0.4-1.1,0.8-1.7,1.1l9.1,233.8L342,475l-2.9-144h121.8L458,475l34.1,0l9.1-233.9c-0.6-0.3-1.2-0.7-1.7-1.1
			c-1.4-1.2-2-2.6-2-4.2s0.7-3.1,2-4.2c1.4-1.2,3-1.8,5-1.8s3.6,0.6,5,1.8c1.4,1.2,2,2.6,2,4.2s-0.7,3.1-2,4.2c-1.1,1-2.5,1.5-4,1.7
			l-1.9,88.3h17.1l-4.4-34.4l-0.1-0.1v0.1l-2.8-0.1l-0.2-3.8l2.1,0c-0.5-3.2-0.6-6.6-0.1-10.2c1.3-10.1,6.1-19.4,14.5-28l3.4,0
			l1.3,0l-7-0.1l2.8-2.8l2.5,0c9-7.4,13.8-14.2,14.5-20.4c0.2-1.9,0.4-3.2,0.5-4.1h0c-0.8,0-1.4-0.3-2-0.9s-0.8-1.4-0.8-2.3
			s0.3-1.7,0.8-2.3s1.2-0.9,2-0.9s1.4,0.3,1.9,0.9c0.5,0.6,0.8,1.4,0.8,2.3s-0.3,1.7-0.8,2.3c-0.4,0.5-0.9,0.8-1.4,0.9
			c0,0.7,0,1.8,0,3.2c0,5.6,5.3,12.8,16.1,21.5l2.8,0.1l1.6,2.6h-1.5c9.5,8.8,14.5,18.2,15,28.2c0.2,4-0.2,7.8-1.1,11.4l2.6,0
			l-0.8,6.1l-4.9-0.2l0.7,0.1l-2.5,34.9l18.6,7.4l5.3-29.8l5.7,0.4l2.5-28.6c-1.4-0.9-2.2-1.4-2.4-1.6c-1-1-1.5-2.3-1.5-3.7
			s0.5-2.7,1.5-3.7c1-1,2.1-1.5,3.5-1.5c1.4,0,2.5,0.5,3.5,1.5c1,1,1.5,2.3,1.5,3.7s-0.5,2.7-1.5,3.7c-0.9,0.9-1.9,1.4-3,1.5
			l-1.8,63.1v0.2l9.6,3.9l-0.7,9l-51.5-17.4L561.2,475h12.1l-0.5-48.6l36.7,3.2l-3.9,45.4h2.7L619,338.2c-0.4-0.2-0.7-0.5-1-0.9
			c-0.8-0.9-1.2-1.9-1.2-3.1s0.4-2.3,1.2-3.2c0.8-0.9,1.8-1.3,3-1.3s2.2,0.4,3,1.3c0.8,0.9,1.2,2,1.2,3.2s-0.4,2.3-1.2,3.1
			c-0.8,0.9-1.8,1.4-3,1.4c-0.1,0-0.2,0-0.3,0L614.5,475h13.3l2.6-61h-0.2v0l-3.1,0l-0.4-5.4h4l4.5-64.8l-2.7-0.2L632,339l3.5,0.2
			L638,303l-2.3,0.2l-0.4-5.6l13-0.3h-1.8c-0.4-2.4-0.7-4.5-1.1-6.2c-0.9-4-2-6-3.3-6c-0.9,0-1.5,1-1.9,2.9c-0.1,0.8-0.1,2.1-0.1,4
			c0,1.6,0.1,2.6,0.1,3c0.1,0.9,0.2,1.7,0.5,2.5l-2.4,0l0.7-15.7h-3.5c-0.1-0.5-0.2-1.1-0.3-1.9c0-0.4-0.1-0.7-0.2-1l1.9,0
			c-0.2-3.4,0.2-6.3,1.2-8.7c0.9-2.4,4.2-4.8,10.1-7.4c3.8,2.8,6.2,5.2,7.2,7c1.1,1.8,1.6,4.6,1.7,8.5l-1.2,0.1l2.7-0.1
			c0.1,0.5,0.1,1.3,0.1,2.2c0,0.5,0,0.9,0,1.2h-3l0.6,15.3l-1.8,0.1c0-0.7,0-1.6,0-2.6c0-3-0.1-5-0.2-5.8c-0.4-2.8-1.2-4.2-2.6-4.2
			c-2.4,0-3.6,3-3.5,9c0,0.9,0.1,1.8,0.2,2.8c0.1,0.3,0.1,0.6,0.2,1l11.2-0.2l-0.2,4.1l-3,0.2l1.9,39.4l4.2,0.3L662,346l-3.7-0.3
			l3,62.8h3.7l0,5.6l-2.8,0l2.3,60.9h28.2l3.8-94.5l-5.2,0V372h5.5l3.3-94.5l-5.5,0.5l-0.6-7.3l6.4-0.5l2.1-59.2l-4.5-0.4l-0.4-6.2
			l28.9,0.6l-0.6,0c0.3-1.1,0.5-2.3,0.6-3.7c0-0.7,0-2.2,0-4.6c0-2.8-0.1-4.8-0.2-6c-0.4-2.8-1.4-4.2-2.8-4.2c-2,0-3.7,3-5,8.9
			c-0.5,2.6-1,5.8-1.5,9.5l-2.6-0.1c0.1-0.5,0.1-0.9,0.2-1.4c0.3-1.5,0.4-2.9,0.4-4.2c0-8.9-1.8-13.4-5.4-13.4
			c-2.1,0-3.3,2.1-3.8,6.2c-0.2,1.2-0.2,4.1-0.2,8.6c0,1.6,0,2.9,0,4l-2.8-0.1l0.6-23.1 M734.7,267.9L734.7,267.9l-34.1,2.4v0
			 M702.7,211L702.7,211l27.6,2.3 M700.3,277.6L700.3,277.6l34.9-3 M638,303l18.3-1.5v0 M658.2,340.9L658.2,340.9l-22.7-1.5v-0.1
			 M635.2,343.7L635.2,343.7l23.1,2v0 M696.7,380.5L696.7,380.5l47-0.3v0 M743,372h-46 M729.7,205.1l-3-0.1 M756.5,481h-67.2l3.5,52
			h59.5 M751.2,475h-58.3 M399,39.2c0,0-0.1,0-0.1,0c-1.1,0-2-0.5-2.9-1.4c-0.8-0.9-1.1-1.9-1.1-3.1c0-1.2,0.4-2.3,1.1-3.2
			c0.7-0.8,1.6-1.2,2.6-1.3c0.1,0,0.1,0,0.2,0c1.1,0,2,0.4,2.8,1.3c0.8,0.9,1.2,2,1.2,3.2c0,1.2-0.4,2.3-1.2,3.1
			C400.9,38.7,400,39.2,399,39.2z M399.6,63.5c-1.7,0-3.1-1-4.2-2.9c-1.2-1.9-1.8-4.2-1.8-6.9c0-2.7,0.6-5,1.8-6.9
			c1-1.7,2.3-2.6,3.8-2.8c0.2,0,0.3,0,0.5,0c1.7,0,3.1,0.9,4.2,2.8c1.2,1.9,1.8,4.2,1.8,6.9c0,2.7-0.6,5-1.8,6.9
			c-1.1,1.8-2.4,2.8-4,2.9C399.8,63.5,399.7,63.5,399.6,63.5z M399.9,68.7c0,0,0.1,0,0.1,0c1.2,0,2.2,0.5,3,1.4
			c0.9,0.9,1.4,2.1,1.4,3.3c0,1.3-0.5,2.4-1.4,3.4c-0.8,0.9-1.8,1.3-2.9,1.4c0,0-0.1,0-0.1,0s-0.1,0-0.1,0c-1.2,0-2.3-0.5-3.2-1.4
			c-0.9-0.9-1.3-2.1-1.3-3.4c0-1.3,0.4-2.4,1.3-3.3C397.6,69.2,398.6,68.7,399.9,68.7z M419.1,136.8c0.2,0.2-0.8,0.5-3.1,1.1
			c-2,0.7-7.9,1.1-17.6,1.2l-14.1-1.4c-2.3-0.4-3.3-0.6-3.1-0.8l-5.9-1.7l-3.1,2.2l5.2,1.7c13.9,3.1,29.8,3.5,47.6,1l3.8-1.1l-4-3.5
			L419.1,136.8c-9.9-7.4-16.2-26.1-19-56c-2.8,29.9-9.1,48.5-19,56 M377.3,139c-20.2,11-35.4,22.2-45.7,33.5
			c-6.6,6.3-12.3,14.9-17.2,25.8c-4.9,10.8-6.6,21.2-5,31.1c1.5,9.9,6.2,20.7,14,32.2l3,0l73.8,1.5l73.8-1.5l3,0
			c7.8-11.6,12.5-22.3,14-32.2c1.6-9.9-0.1-20.3-5-31.1c-4.9-10.9-10.6-19.4-17.2-25.8c-10-11-24.6-21.8-43.9-32.5 M473,278.6
			l0.4-8.2l-73.2,0.9l-73.2-0.9l0.4,8.2l84.7-0.4L473,278.6l-0.5,8.9h26.7l-0.4,8.5H301.1l-0.4-8.5h27l-0.5-8.9 M473.4,270.4
			l0.5-8.8 M326.4,261.6l0.5,8.8 M355,415l-0.4-24.2c0.3-11.7,7.4-20.3,21.5-25.8c9.9-3.9,17.9-7,23.9-9.3c6,2.3,14,5.4,23.9,9.3
			c14,5.5,21.2,14.1,21.5,25.8l-0.4,22.8l-0.1,9.4l-0.5,52l-1.1,0h7.3l0.3-91.3c-1.6-11.8-10.9-20.6-28-26.4
			c-10.8-3.7-18.4-6.5-22.8-8.4c-4.4,1.9-12,4.7-22.8,8.4c-17.1,5.8-26.5,14.6-28,26.4l0.3,91.2h6.1l-0.5-52L355,415l32.7-0.4l-1-16
			c-0.4-4.9,2.2-8.6,7.7-11.1l5.8-2.2l5.9,2.2c5.5,2.6,8,6.3,7.7,11.1l-0.9,16L445,415l0-1.4 M387.7,414.5h2.9l-0.9-14.3
			c-0.5-5.5,1.9-9.2,7.1-11.1l3.4-1.2l3.4,1.2c5.3,2,7.7,5.7,7.1,11.1l-0.9,14.2h0.1v0h2.8 M349.2,383.7L349,341l50.7-0.7L451,341
			l-0.2,42.8 M327.8,287.5h144.8 M545.5,217.5c0-0.5,0.2-0.9,0.5-1.2c0.4-0.3,0.9-0.5,1.5-0.5c0.6,0,1,0.2,1.4,0.5
			c0.4,0.4,0.6,0.8,0.6,1.2s-0.2,0.9-0.6,1.2c-0.4,0.4-0.8,0.6-1.4,0.6c-0.6,0-1-0.2-1.5-0.6C545.7,218.4,545.5,218,545.5,217.5z
			 M548.7,213.9c0,0.4-0.1,0.7-0.4,1c-0.3,0.3-0.6,0.4-1,0.4s-0.7-0.1-1-0.4c-0.3-0.3-0.4-0.6-0.4-1c0-0.4,0.1-0.7,0.4-1
			c0.3-0.3,0.6-0.4,1-0.4s0.7,0.1,1,0.4C548.5,213.2,548.7,213.5,548.7,213.9z M547.7,226.2c0.1,0,0.3,0,0.5-0.1 M533.2,253.5h2.5
			l-1.2,0 M565.7,342.3l0.4-11.3l0.8-22c1.6-0.1,3.1-0.7,4.4-1.8c0.1-0.1,0.2-0.2,0.3-0.3c1-0.9,1.7-2,2-3.2h2.7l0.4-1.9l-2.8-0.2
			c0-1-0.3-2-0.8-2.9c-0.4-0.6-0.8-1.2-1.4-1.8c-1.1-1-2.3-1.6-3.6-1.8c-0.5-0.1-1-0.2-1.7-0.2c-0.1,0-0.1,0-0.2,0
			c-2,0-3.7,0.7-5.1,2c-0.4,0.3-0.7,0.7-1,1.1c-0.6,0.8-1,1.7-1.2,2.7l-2.9-0.1l0.6,3.1h2.5c0.3,1.2,1,2.3,2,3.2
			c0.2,0.2,0.3,0.3,0.5,0.4c0.7,0.5,1.4,0.9,2.2,1.2l-1.4,21.4l-0.8,12.2L552.7,475h8.5 M532.7,250.7l31.7,0.3 M553.5,330
			c-0.1-5.3-0.3-8.8-0.5-10.7c0-0.2,0-0.4,0-0.6c-1.2-9.1-4-13.7-8.4-13.7c-1.6,0-2.9,0.7-3.9,2c-1.4,1.7-2.1,4.1-2.1,7.2
			c0,1.1,0,2.3,0.1,3.5c0,3.1,0.2,6.3,0.4,9.4c0.1,1,0.2,2,0.2,2.9H553.5h3.1c0.1-0.8,0.1-1.6,0.2-2.4c0.3-2.5,0.6-5.3,1-8.4
			c0.4-3.1,1-5.7,1.8-7.7c0.6-1.6,1.2-3,1.9-4.1 M534.7,330c-0.3-2.6-0.6-5.2-1-7.8c-0.4-2.7-0.8-5-1.3-7.1
			c-1.6-7.4-3.5-11.1-5.8-11.1c-1.6,0-2.9,1.1-3.8,3.4c-0.1,0.2-0.2,0.4-0.2,0.6c-0.7,2.1-0.8,4.9-0.3,8.5c0.4,3.6,0.7,7.2,0.9,11
			c0,0.9,0.1,1.7,0.1,2.5H534.7h4.6 M562.2,330h-5.6 M566.1,331l0.1-1l6.1,2.4c0.2-3.1,0.4-5.8,0.4-8.2c0-6.7-0.2-11.1-0.5-13.2
			c-0.1-0.6-0.2-1.2-0.3-1.8c-0.2-0.7-0.3-1.4-0.5-2 M523.2,330h-2.6 M503.6,330l-0.2,12.1l58.1,0.1 M578.2,299.1l-5.2-0.3
			 M572.2,332.4l4.2,1.7 M595,341.5l8.1,3.2l2.8-32.6 M595,404.1l6.4,0.5l1.9-26.1c0.1-0.5,0.2-1,0.2-1.5c0-1.5-0.4-2.9-1.2-4
			c-0.7-1.2-1.8-2.2-3.1-3.1c-2.8-2-4.8-3.4-6-4.2c-1,0.4-3.1,1.1-6.2,2.2c-3.2,1.1-4.8,3.3-5,6.6l1.6,28.8l4.2,0.3l0.8-14.4
			l7.8,0.8L595,404.1l-7.2-0.6 M605.6,393.3l0.8-15.6c0-0.6,0.1-1.1,0.1-1.6c0-0.8-0.1-1.6-0.4-2.4c-0.7-2.3-2.4-4.3-5-6
			c-3.5-2.3-6-4-7.5-5c-1.3,0.4-3.9,1.3-7.9,2.5c-4,1.3-6.1,3.8-6.3,7.5l2.2,33.2v0.1l23.4,2.6L605.6,393.3l2.6-27.8l-28.8-9.6
			l-0.7,49.6l2.6,0.3 M606.6,412.8l5.6-48.8l-35.9-11.6l-1.5,56.3L606.6,412.8z M603.1,344.7l5.1,1.9 M535.6,253.5l31.6,0
			 M581.2,293.2l-65.9-1.5 M560,298.1l-43.8-2.5 M97.4,176.4l-29.8,0.8v0 M95.7,181.5H70.8 M68.9,213.3l27.7-2.3v0 M98.7,270.2
			L98.7,270.2L64.6,268v-0.1 M64.1,274.5l34.8,3v0 M143.8,281.9h16.5 M69.6,205.1l3-0.1 M55.6,380.2L55.6,380.2l47,0.3v0
			 M142.9,301.5L142.9,301.5l18.4,1.5 M163.8,339.3L163.8,339.3l-22.7,1.6v0 M164.1,343.7L164.1,343.7l-23.2,2v0 M102.2,372h-46
			 M250.6,212.9c-0.3,0.3-0.4,0.6-0.4,1c0,0.4,0.1,0.7,0.4,1c0.3,0.3,0.6,0.4,1,0.4s0.7-0.1,1-0.4c0.3-0.3,0.4-0.6,0.4-1
			c0-0.4-0.1-0.7-0.4-1c-0.3-0.3-0.6-0.4-1-0.4S250.8,212.6,250.6,212.9z M251.2,219.2c0.6,0,1.1-0.2,1.4-0.6
			c0.4-0.3,0.6-0.7,0.6-1.2s-0.2-0.9-0.6-1.2c-0.4-0.3-0.9-0.5-1.4-0.5s-1,0.2-1.4,0.5c-0.4,0.4-0.6,0.8-0.6,1.2s0.2,0.9,0.6,1.2
			C250.2,219.1,250.7,219.2,251.2,219.2z M251.1,226.2c-0.1,0-0.3,0-0.5-0.1 M220.6,299.1l6.4-0.4c0.4-0.6,0.8-1.2,1.4-1.7
			c1.1-1,2.3-1.6,3.7-1.8l0.1-2.3l-14.6,0.3 M283.5,291.8l-50.1,1.1l0.5,2.1c2,0,3.7,0.7,5.1,2c0.3,0.3,0.6,0.6,0.9,1l42.6-2.4
			 M232.2,292.9l0.2-4.1l1,4.1 M239.9,298c0.6,0.8,1,1.7,1.2,2.8l3-0.1l-0.6,3.1h-2.4c-0.3,1.2-1,2.3-2,3.2
			c-0.4,0.4-0.9,0.8-1.4,1.1c0.5,1,1,2.2,1.6,3.5c0.8,2,1.4,4.6,1.8,7.7s0.7,5.9,1,8.4c0.1,0.7,0.2,1.5,0.2,2.4h3.1
			c0.1-5.3,0.3-8.8,0.5-10.7c0-0.2,0.1-0.4,0.1-0.6c1.2-9.1,4-13.7,8.4-13.7c1.6,0,2.9,0.7,3.9,2c1.4,1.7,2.1,4.1,2.1,7.2
			c0,1.1,0,2.3-0.1,3.5c0,3.1-0.2,6.3-0.4,9.4c-0.1,1-0.2,2-0.2,2.9h4.6c0.3-2.6,0.6-5.2,1-7.8c0.4-2.7,0.8-5,1.3-7.1
			c1.6-7.4,3.5-11.1,5.8-11.1c1.6,0,2.9,1.1,3.8,3.4c0.1,0.2,0.2,0.4,0.2,0.6c0.7,2.1,0.8,4.9,0.3,8.5c-0.4,3.6-0.7,7.2-0.9,11
			c0,0.9-0.1,1.7-0.1,2.5h2.6 M237.6,308c-0.4,0.2-0.8,0.4-1.3,0.6l1.4,21.4h4.4 M222.5,334.5l4.1-1.6c-0.3-3.3-0.4-6.1-0.4-8.6
			c0-6.7,0.2-11.1,0.5-13.2c0.1-0.6,0.2-1.2,0.4-1.8c0.2-1.1,0.5-2,0.9-2.8c-0.7-0.8-1.2-1.7-1.4-2.7h-2.6l-0.4-1.9l2.8-0.2
			c0-1.1,0.3-2,0.8-2.9 M226.6,332.9l7.2-2.9l0,1l-0.8-22c-1.8-0.1-3.4-0.8-4.7-2c-0.2-0.2-0.3-0.3-0.5-0.5 M182.1,350.6l0.7,9
			l51.4-17.4l-0.4-11.3 M237.8,330l0.8,12.2l58-0.1l-0.2-12.1 M202.4,342.5l-8.5,3.5l-0.1,0.2l-5.1,1.8l0.2-0.1 M191.2,312.1l2.7,34
			 M204.9,404.1l-6.3,0.5l-1.9-26.1c-0.1-0.5-0.1-1-0.1-1.5c0-1.5,0.4-2.9,1.2-4c0.7-1.2,1.8-2.2,3.1-3.1c2.8-2,4.8-3.4,5.9-4.2
			c1,0.4,3.1,1.1,6.2,2.2c3.2,1.1,4.9,3.3,5.1,6.6l-1.7,28.8l-4.2,0.3L204.9,404.1l-1.3-14.1l7.8-0.8l0.8,14.4 M195.8,408.3
			l-0.1-1.8l0.1,0.5l-2.1-29.4c0-0.6,0-1.1,0-1.6c0-0.8,0.1-1.6,0.3-2.4c0.7-2.3,2.4-4.3,5.1-6c3.5-2.3,6.1-4,7.6-5
			c1.3,0.4,3.9,1.3,7.9,2.5c4,1.3,6.1,3.8,6.3,7.5l-2.3,33.2l2.8-0.3l-0.6-49.6l-28.8,9.6L195.8,408.3h0.6l20.8-2.2l1.3-0.2l0.2,0.1
			l-1.5,0.1 M187.9,364l5.5,48.8l31.9-4.1l-1.6-56.3L187.9,364z M245.3,330h14.2 M264.1,330h11.4 M263.6,400.9l-5.8,0l-2.6-31.5
			c-0.1-0.6-0.1-1.1-0.1-1.6c0.1-1.7,0.6-3.1,1.6-4.4c0.9-1.1,2.2-2.1,3.8-2.8c3.4-1.6,5.8-2.8,7.2-3.5c1.2,0.6,3.6,1.8,7.4,3.7
			c3.7,1.9,5.6,4.6,5.7,8.2l-3.2,31.5l-6.1,0.1L263.6,400.9L263.6,400.9l-1.1-14.6l8.8,0.2l0.2,14.3 M251.6,367.5c0-0.5,0-1,0-1.5
			c0-0.9,0.2-1.8,0.6-2.6c0.9-2.4,3-4.2,6.3-5.6c4.3-1.9,7.4-3.2,9.2-4c1.5,0.7,4.5,2.1,9.2,4.3c4.4,2,6.8,5,7.1,8.8l1.6-14l-35.7-1
			L251.6,367.5c0,0.1,0,0.3,0.1,0.4l3.3,36.5l25-0.3l3.2-29.6l0.8-7.6c0,0.2,0.1,0.5,0.1,0.8l-0.8,6.9 M289.6,349.4l-43-1.5
			l4.5,59.9l32.6-0.2L289.6,349.4z M231.6,253.6l32.8-0.1 M234.4,250.9l31.7-0.3 M162.4,279l-18.9-0.5 M289.9,445.3l-0.6-15.9
			l-34.5,0.6l1.1,44.8h5.3l-3.8-28.7c-0.1-0.7-0.1-1.3-0.1-1.9c0-0.9,0.2-1.8,0.5-2.6c0.8-2.4,2.8-4.2,6-5.6c4.2-1.9,7.2-3.2,9-4
			c1.5,0.7,4.7,2.1,9.5,4.3C286.9,438.4,289.4,441.4,289.9,445.3c0,0.2,0,0.4,0,0.6l1,29h2.4l-0.2-48.1l-41.4,0.5l1.6,47.6h2.8
			 M285,474.9l1.7-27.5c-0.2-3.6-2.2-6.4-6-8.2c-3.8-1.9-6.3-3.1-7.5-3.7c-1.4,0.7-3.8,1.9-7.1,3.5c-1.6,0.7-2.8,1.7-3.7,2.8
			c-1,1.2-1.4,2.7-1.4,4.4c0,0.5,0,1,0.1,1.6l3.3,27.2l6.8,0l-0.4-15l6.9,0.2l1.4,14.8L285,474.9h5.9 M253.2,474.8h-5.8l-8.5,0
			l-12.1,0h-3.3h-3.6l-5.6,0h-6.4l-6.6,0.1l-3.4,0.1h-1.5h-1.8h-2.7h-6.4 M279.1,474.9h-7.9 M264.4,474.8h-3.1 M307.9,474.9l-8.4,0
			h-6.2 M219.9,474.8l1.5-27.9c-0.2-3.6-1.9-6.2-5.1-7.7c-3.2-1.5-5.2-2.5-6.2-3c-1.2,0.8-3.1,2.2-5.9,4.1c-1.3,0.9-2.4,1.9-3.1,3.1
			c-0.8,1.3-1.2,2.8-1.2,4.4c0,0.5,0,1,0.1,1.6l1.4,25.5 M197.9,475l-1-26.8c0-0.6,0-1.2,0-1.9c0-0.9,0.1-1.8,0.3-2.6
			c0.7-2.4,2.4-4.5,5.1-6.2c3.5-2.2,6.1-3.8,7.6-4.8c1.3,0.6,3.9,1.7,7.9,3.5c3.5,1.5,5.6,4,6.2,7.4l0.1-14.4l-28.9,2.7l1.3,43
			 M138.2,414.1l30.8-0.2v0h0.9 M207.9,474.8l-0.8-15.6l7.6-0.4l-0.4,16 M226.8,474.8l0.4-48.4l-36.6,3.2l3.9,45.4 M223.5,474.8
			l0.4-31.1 M301.9,481l4.9,52h186.4l4.9-52H301.9H110.7l-3.5,52h199.6 M47.7,533h59.5 M43.5,481h67.1 M106.4,475H48.1 M137.9,408.5
			h30.6 M172.9,475h-37.3 M602.1,475l1-26.8c0-0.6,0.1-1.2,0.1-1.9c0-0.9-0.1-1.8-0.4-2.6c-0.7-2.4-2.4-4.5-5-6.2
			c-3.5-2.2-6-3.8-7.5-4.8c-1.3,0.6-3.9,1.7-7.9,3.5c-3.5,1.5-5.6,4-6.1,7.4l0.4,31.4h3.5l-1.4-28.1c0.2-3.6,1.9-6.2,5-7.7
			c3.2-1.5,5.2-2.5,6.2-3c1.2,0.8,3.2,2.2,6,4.1c1.3,0.9,2.4,1.9,3.1,3.1c0.8,1.3,1.2,2.8,1.2,4.4c0,0.5-0.1,1-0.2,1.6l-1.4,25.6
			H602.1h1.5l1.4-43l-29-2.7l0.2,14.4 M598.7,475H592h-6.3h-5.6 M576.5,475h-3.3 M605.5,475h-1.9 M592,475l0.9-15.9l-7.6-0.4
			l0.4,16.3 M614.5,475h-6.3 M538.8,475l3.7-28.9c0.1-0.7,0.1-1.3,0.1-1.9c0-0.9-0.1-1.8-0.4-2.6c-0.8-2.4-2.8-4.2-6-5.6
			c-4.2-1.9-7.3-3.2-9.1-4c-1.5,0.7-4.6,2.1-9.4,4.3c-4.5,2.1-7,5.1-7.5,9c0,0.2,0,0.4,0,0.6l-1,29.1h5.9l-1.7-27.6
			c0.2-3.6,2.2-6.4,6-8.2c3.8-1.9,6.3-3.1,7.5-3.7c1.4,0.7,3.8,1.9,7.1,3.5c1.6,0.7,2.8,1.7,3.7,2.8c1,1.2,1.5,2.7,1.5,4.4
			c0,0.5,0,1-0.1,1.6l-3.2,27.4H538.8h5.2l1.2-45l-34.5-0.6l-0.6,15.9 M528.8,475l0.4-15.1l-6.9,0.2L521,475H528.8h6.9 M521,475h-6
			 M509.1,475h-2.4h-6.2h-8.4 M552.7,475h-5.9H544 M546.8,475l1.7-47.8l-41.5-0.5l-0.2,48.2 M390.6,414.5h19.2v0 M355.6,475l32.1,0
			v0l-0.9-14.8c-0.4-5.4,2.3-9.5,7.9-12.4l5.2-2.1l5.2,2.1c5.6,2.9,8.3,7,7.9,12.4l-0.7,14.8h-0.1v0l30.9,0 M412.4,475h-2.9h-18.8
			l-2.9,0 M409.5,475l0.6-13c0.6-6-1.9-10.1-7.3-12.3l-2.7-1l-2.7,1c-5.5,2.2-7.9,6.3-7.3,12.3l0.7,13 M458,475h-7.5 M342,475h7.5
			 M444.9,423h-89.8 M500.5,475l2.9-132.9 M234.3,342.3l4.6,132.5 M191.9,475l-9-115.4 M299.5,474.9l-2.9-132.8 M238.6,342.2
			l8.8,132.6 M662.3,414.1l-31.8-0.2 M655.5,281.9H639 M630.7,408.5h30.6 M636.8,279l18.9-0.5 M692.8,533H493.2 M498.1,481h191.1
			 M664.6,475h-36.8"/>
	</g>
</g>
</svg>
