
<svg xmlns="http://www.w3.org/2000/svg" version="1.1" xmlns:xlink="http://www.w3.org/1999/xlink" preserveAspectRatio="none" x="0px" y="0px" width="550px" height="600px" viewBox="0 0 550 600">
<defs>
<path id="Layer0_0_1_STROKES" stroke="#000000" stroke-width="1" stroke-linejoin="round" stroke-linecap="round" fill="none" d="
M 375.45 86.8
Q 378.55 86.05 381.2 85.15
L 380.2 103.3
Q 375.2 102.35 370 101.55 369 101.4 368 101.25
L 366.75 116.65
Q 374.45 118 382 119.65
L 378.3 144.6
Q 375.85 143.85 373.4 143.3
L 372.3 163.2 371.25 182 364 313.4
Q 375.4 322.15 382.4 334.7 391.45 350.85 393.15 373.3 394.3 388.55 385.45 395.85 384.95 396.2 384.5 396.6 378 401.2 366.45 402.25
L 369.85 406.1 373.15 412.4 377.45 420.65 375.15 487.1
Q 373.05 488.7 370.55 490.35
L 370.3 504.5
Q 372.4 504.45 374.55 504.45
L 373.25 541.5 292.6 541.5 263.4 541.5 179.2 541.5 176.05 504.75
Q 178.3 504.85 180.65 505.1
L 177.9 478.2
Q 174.7 474.2 173.2 471.05
L 168.45 415.5 174.7 407.2 179.85 400.45 183.6 395.5
Q 180.3 395.9 177 396.1 175.8 396.15 174.7 396.15 162.95 396.15 157.15 384 155.95 381.5 155.05 378.65 152.6 370.8 152.6 360.55 152.55 353.15 155.05 346.05 157.35 339.4 161.85 333.05 166.65 326.1 173.65 320.05 176.8 317.3 180.45 314.7
L 172.2 192.35 170.75 170.85 169.1 146.9
Q 166.05 147.7 163.3 148.65
L 159.3 120.6
Q 166.25 119.35 173.1 118.25
L 171.85 99.3
Q 169.1 99.5 166.35 99.75
L 164.15 81.8
Q 167.35 83 170.45 83.95
L 169.2 49.35 376.9 44 375.45 86.8
Q 367.15 88.65 355.65 89.15 339.75 89.8 316.1 82.45 292.4 75.1 280.5 67.55 268.6 60 268.55 60.05 257.5 68.3 246.4 73.4 235.3 78.5 230.2 80.4 225.05 82.25 215.4 85.4 205.75 88.55 192.75 88.05 182.35 87.65 170.45 83.95
M 173.1 118.25
Q 176.95 117.6 180.8 117.05 190.25 115.6 199.6 114.45 275.65 104.95 341.4 112.9 351 114.05 360.45 115.55 363.6 116.05 366.75 116.65
M 333.5 122.65
Q 334.15 125.4 335.35 127.8 335.35 132.25 331.1 135.95 337.4 132.5 340.35 130.55 339.65 128.7 333.5 122.65 Z
M 372.3 163.2
Q 370.15 159.65 362.8 155.65 355.4 151.65 340.3 149.3 325.15 146.9 308.05 158.65 290.95 170.35 290.45 190.3
L 290.25 194.25
Q 292.75 183.7 306.8 174.4 320.8 165.05 334.5 164.85 348.2 164.65 357.3 169.6 366.35 174.55 371.25 182
M 312.85 229.85
Q 321.9 235.05 329.45 234.5 336.95 233.9 340.65 232.9 344.35 231.9 348.95 227.5 353.4 222.2 354.35 215 355.25 207.8 353.1 201.3 350.9 194.8 345.05 189.45 339.2 184.1 330 184.1 316.45 184.1 309.2 193.1 303.25 200.55 303.55 212.6 303.8 224.65 312.85 229.85 Z
M 373.4 143.3
Q 361.9 140.55 349.6 140.55 329.35 140.55 302.85 149.2 282.25 155.9 271.85 163.85 263.2 157.75 251.45 152.85 228 143.05 205.1 143.05 184.15 143.05 169.1 146.9
M 368 101.25
Q 354.3 99.05 339.35 97.6 280.65 91.85 202.7 96.9 189.8 97.75 176.4 98.9 174.1 99.1 171.85 99.3
M 326.5 203.6
Q 320.75 203.6 320.75 209.6 320.75 212.25 323.75 213.6 325.45 214.35 327.35 214.55 334.75 212.6 333.75 208.1 332.75 203.6 326.5 203.6 Z
M 312.75 211.5
Q 313.6 217.15 317.7 219.4 321.75 221.6 325.8 222.25 329.8 222.85 331.55 222.75 333.3 222.6 336.65 221.95 340 221.25 342.05 218.8 343.75 216.8 343.75 210.6 343.75 204.15 339.75 199.1 335.35 193.6 328.5 193.6 318.95 193.6 315.45 199.7 311.9 205.8 312.75 211.5 Z
M 170.75 170.85
Q 180.05 159.95 191.3 155 202.5 150.05 213.3 149.85 224.05 149.65 234.6 154.75 245.15 159.8 251.6 169.25 255.65 175.1 257.6 186.65 258.75 193.6 259.15 202.65 259.95 214 260.35 222.6 261.25 242 260.05 267.25 245.25 252.5 237.35 252.6 233 252.6 229.85 253.7 225.45 255.15 223.35 258.55 222.25 260.2 221.65 262.8 220.55 266.9 220.7 273.3 220.7 273.4 220.7 273.55 220.85 279.5 229.7 293.8 235.25 292.6 240.95 291.8 234.8 284.65 234.55 276.1 234.45 271.9 237.4 270.2 239 269.15 240.8 269.15 245.7 269.1 249.45 277.95 251.3 282.5 254.05 290.45
L 254.1 290.5
Q 257.75 290.3 261.55 290.3 283.4 290.1 301.35 292.15 301.65 284.5 305.55 277.9 309.8 270.5 314.9 270.5 318.4 270.45 319.75 271.4 321.25 272.6 321.45 276.1 321.9 284.8 314.55 294 322.5 295.4 329.55 297.3 332.9 292.25 335.85 286.05 338.95 279.35 340.15 274.05 341.05 270 340.9 266.8 340.7 263.9 339.55 261.2 338.2 258.25 335.7 255.55 332.5 252.05 328.6 250.7 325.9 249.7 321.95 250.5 317.95 251.25 310.45 255.3 302.95 259.3 293.2 269.35 290.4 262.45 289.6 247.3 288.8 233.15 289.15 220.95
L 290.25 194.25
M 364 313.4
Q 358.9 309.45 353 306.3 342.85 300.85 329.55 297.3
M 187.95 328.2
Q 193.8 323.35 201.25 319.85 206.2 317.5 210.9 315.65 219.9 312.1 227.95 310.3 233.15 309.15 241.1 308.2 246.9 307.5 254.15 306.9 260 306.45 265.6 306.3 279.3 306 291.55 307.65 294 308 297.45 308.45 302.6 309.15 309.95 310.15 315.3 311.05 320.5 312.45 325.45 313.75 330.25 315.55 339.2 318.9 346.2 322.7 352.9 326.3 357.75 330.3 361.4 333.3 364.3 336.9 369.25 343.1 371.9 351.1
L 371.9 351.2
Q 376 363.85 374.1 371.8 372.1 379.7 367.75 382.95 366.85 383.6 365.9 384.15 362.1 386.3 357.1 387.05 350.8 387.95 344.6 387.5 343.55 387.4 342.4 387.3 337 386.6 330.5 384.75 325.25 383.2 319.6 381.5 316.6 380.55 313.55 379.6 303.35 376 296.6 373.65 292.05 372.05 289.05 371.05 276.25 366.7 268.1 365.95 267.5 365.85 266.85 365.85 257.1 365 241.9 365.95 241.2 365.95 240.55 366 234.6 366.35 218.1 370.9 215.5 371.6 213.4 372.2 207.15 374 205 375 202 376.3 190.55 379.05 188.9 379.2 187.55 379.25 187.4 379.2 187.25 379.25 179.95 379.25 176.1 376.3 174.3 374.95 173.3 372.95 171.2 369.05 171.15 358.4 171.15 355 172.05 351.55 172.9 348.1 174.75 344.55 176.25 341.5 178.4 338.5 182.45 332.75 187.95 328.2
L 187.8 351.5 212.5 351.45 210.9 315.65
M 365.9 384.15
L 364.75 351.1 344.55 351.15 342.4 387.3
M 364.3 336.9
L 364.75 351.1 371.9 351.1
M 346.2 322.7
L 344.55 351.15 320 351.2 319.6 381.5
M 218.2 134.3
Q 221.3 136.35 227.65 139.1 225.45 136.2 222.6 133.05 220.1 130.25 220.1 128.3 220.1 127.05 222.5 123.25 223.4 121.8 224.1 120.55 221.15 122.75 219.05 124.95 217 127.1 216.05 128.4 215.1 129.65 215.1 130.05 215.1 132.25 218.2 134.3 Z
M 202.6 128.3
Q 202.6 132.75 206.85 136.45 200.55 133 197.6 131.05 198.3 129.2 204.45 123.15 203.8 125.9 202.6 128.3 Z
M 233.2 131.3
Q 233.95 132.6 237.55 135.85 241.15 139.1 247.05 141.95 245.85 140.25 244.45 137.75 241.1 131.95 241.1 129.05 241.1 126.2 247.35 116.8 233.1 124.9 232.75 127.45 232.4 130 233.2 131.3 Z
M 172.2 192.35
Q 175.85 186.95 181.2 181.95 189.05 174.55 198.2 170.25 208.15 165.55 217.6 165.55 232.35 165.55 247 176.8 253.15 181.55 257.6 186.65
M 217.85 184.1
Q 231.4 184.1 238.65 193.1 244.6 200.55 244.35 212.6 244.05 224.65 235 229.85 225.95 235.05 218.45 234.5 210.9 233.9 207.2 232.9 203.5 231.9 198.95 227.5 194.45 222.2 193.55 215 192.6 207.8 194.8 201.3 196.95 194.8 202.8 189.45 208.65 184.1 217.85 184.1 Z
M 318.9 124.45
Q 320.95 126.6 321.9 127.9 322.85 129.15 322.85 129.55 322.85 131.75 319.75 133.8 316.65 135.85 310.3 138.6 312.5 135.7 315.35 132.55 317.85 129.75 317.85 127.8 317.85 126.55 315.45 122.75 314.55 121.3 313.9 120.05 316.8 122.25 318.9 124.45 Z
M 305.2 126.95
Q 305.55 129.5 304.8 130.8 304 132.1 300.4 135.35 296.8 138.6 290.9 141.45 292.1 139.75 293.5 137.25 296.85 131.45 296.85 128.55 296.85 125.7 290.6 116.3 304.85 124.4 305.2 126.95 Z
M 271.05 122.9
Q 252.8 132.35 270.1 143.25 282.65 134.25 272.45 124.15 271.75 123.45 271.05 122.9 Z
M 272.05 113.2
Q 285.6 125.05 286 129.85 286.4 134.6 280.95 142 275.55 149.35 270.8 154.15 260.55 145.55 257.75 141.95 254.95 138.35 253.95 133.9 252.95 129.4 259.45 122.65 265.95 115.9 272.05 113.2 Z
M 301.35 292.15
Q 308.2 292.9 314.55 294
M 220.5 214.55
Q 213.1 212.6 214.1 208.1 215.1 203.6 221.35 203.6 227.1 203.6 227.1 209.6 227.1 212.25 224.1 213.6 222.4 214.35 220.5 214.55 Z
M 232.45 199.7
Q 235.95 205.8 235.1 211.5 234.25 217.15 230.2 219.4 226.1 221.6 222.1 222.25 218.05 222.85 216.3 222.75 214.55 222.6 211.2 221.95 207.85 221.25 205.8 218.8 204.1 216.8 204.1 210.6 204.1 204.15 208.1 199.1 212.5 193.6 219.35 193.6 228.9 193.6 232.45 199.7 Z
M 180.45 314.7
Q 183.2 312.7 186.25 310.85 201.55 301.3 220.95 295.95 225.3 294.7 229.7 293.8
M 366.45 402.25
Q 363.2 402.5 359.5 402.5 344.35 402.5 328.9 398.75 327.15 398.35 325.2 397.8
L 275.3 400.45 273.25 381.6
Q 266.6 380.15 260 379.4
L 253.5 397.4 201.55 391.4
Q 192.55 394.4 183.6 395.5
M 172.05 351.55
L 187.8 351.5 187.55 379.25
M 266.85 365.85
L 266.55 351.3 241.7 351.35 241.9 365.95
M 260 379.4
Q 255.6 378.9 251.2 378.7
L 245.5 388.9 216.45 385.2
Q 213.2 386.75 203.7 390.65 202.6 391.05 201.55 391.4
M 251.2 378.7
Q 248.5 378.6 245.8 378.6 230.05 378.6 216.75 385.1 216.6 385.15 216.45 385.2
M 212.5 351.45
L 241.7 351.35 241.1 308.2
M 212.5 351.45
L 213.4 372.2
M 306.45 391.85
Q 304.5 391.2 302.5 390.5 290.6 386.3 282.5 383.95
L 282.95 392.15 306.45 391.85
Q 317.75 395.75 325.2 397.8
M 282.5 383.95
Q 279 382.95 276.25 382.25 274.75 381.9 273.25 381.6
M 297.45 308.45
L 296.9 351.25 320 351.2 320.5 312.45
M 296.9 351.25
L 296.6 373.65
M 265.6 306.3
L 266.55 351.3 296.9 351.25
M 240.95 291.8
Q 247.45 290.85 254.1 290.5
M 306.15 418.45
L 299.8 410.15
Q 295.5 410.2 291.35 410.25
L 307 429.55 324.1 409.3
Q 319 409.5 314 409.7
L 306.15 418.45 Z
M 299.8 410.15
Q 306.8 410 314 409.7
M 377.45 420.65
L 363.3 412.65
Q 359.85 422.8 350.45 430.9 341 439 333.05 444.15 325.05 449.25 313.9 454.2 312.95 454.6 312.05 455 311.25 453.5 309.4 451.15 306.55 447.35 304.6 445.6 300.6 441.95 293.95 439.8 293.9 439.8 293.55 439.7 289.95 443.2 286.55 446.25 290.65 448.9 294.25 455.15 295.4 457.15 296.25 458.9 291.45 459.5 286.05 459.7 282.55 459.8 279 459.85
L 279.55 476.35
Q 290.3 476.55 300.1 474.05
L 301.05 478.45
Q 291.2 480.65 279.7 481
L 280.2 495
Q 294 494.65 303.9 491.75
L 304.45 494.65
Q 294.25 497.65 280.3 498.2
L 281.1 513.6
Q 306.3 514.5 331.45 506.9 356.55 499.3 370.55 490.35
M 269 410.15
L 273.65 416.25 279.6 410.3
Q 274.2 410.25 269 410.15 263.05 410 257.3 409.8
L 274.4 429.95 291.35 410.25
Q 285.35 410.3 279.6 410.3
M 179.85 400.45
Q 183.4 401.25 187.15 402 192.3 403.05 197.65 403.95 202 404.7 206.55 405.35 212.15 406.15 218.05 406.85 222 407.3 226.05 407.7 231.6 408.2 237.35 408.65 243.5 409.1 249.85 409.45 253.55 409.65 257.3 409.8
L 244.95 428.5 226.05 407.7 209.05 425.6 197.65 403.95 182.15 410.1
Q 183.8 438.55 214.65 450.35 225.35 454.45 236.35 456.65 239.25 451.85 246.35 446 251.3 441.9 255.9 439.25 257.75 440.35 260.45 442 263.15 443.65 265 444.9 262.6 446.7 260.05 449.9 256.3 454.65 255.15 459.05 267.45 459.9 279 459.85
M 237.35 408.65
L 243.8 416.65 249.85 409.45
M 279.7 481
Q 265.35 481.8 255 479.35
L 255.7 474.45
Q 266.35 477.15 279.55 476.35
M 206.55 405.35
L 209.85 413.5 218.05 406.85
M 174.7 407.2
L 187.15 402
M 168.45 415.5
L 182.15 410.1
M 177.9 478.2
Q 182.1 483.45 189.25 490.15 201.75 501.8 217.45 506.7 233.1 511.55 247.9 513.2 261.5 514.65 281.1 513.75
L 281.1 513.6
M 180.65 505.1
Q 194.55 506.6 208.05 509.95 222.5 513.65 236.05 519.6 249.3 525.5 259 536.2 261.3 538.75 263.4 541.5
M 280.3 498.2
Q 264.5 498.6 252.7 496.2
L 253.2 492.55
Q 266.8 495.7 280.2 495
M 324.1 409.3
Q 327.75 409.1 331.45 408.9 337.35 408.55 343.4 408.2 348.65 407.8 354.05 407.4 356.85 407.2 359.75 406.95 364.75 406.55 369.85 406.1
M 363.3 412.65
L 354.05 407.4 338.5 426.05 324.1 409.3
M 331.45 408.9
L 336.55 415.6 343.4 408.2
M 359.75 406.95
L 373.15 412.4
M 292.6 541.5
Q 308.35 523.4 331.95 513.45 351.45 505.2 370.3 504.5"/>
</defs>

<g transform="matrix( 1, 0, 0, 1, 0,0) ">
<use xlink:href="#Layer0_0_1_STROKES"/>
</g>
</svg>
