
<svg xmlns="http://www.w3.org/2000/svg" version="1.1" xmlns:xlink="http://www.w3.org/1999/xlink" preserveAspectRatio="none" x="0px" y="0px" width="550px" height="600px" viewBox="0 0 550 600">
<defs>
<path id="Layer0_0_1_STROKES" stroke="#000000" stroke-width="1" stroke-linejoin="round" stroke-linecap="round" fill="none" d="
M 325.25 84.15
Q 335.6 87.15 339.85 88.05 341.9 88.5 344.05 88.85 345.3 89.05 346.55 89.25 353.3 90.25 360.5 90.4 361.7 90.4 362.9 90.4 365.8 90.4 368.8 90.25 372.15 90.1 375.55 89.75 376.8 89.6 378.1 89.5 381.8 89.05 385.6 88.4
L 388.8 32 164.8 33.25 166.95 87.35
Q 169.15 88.45 173.75 89.7 175.25 90.1 177 90.5 178.95 90.95 181.2 91.45 183.9 92.05 186.35 92.45 187.65 92.65 188.85 92.8 194.35 93.45 198.45 93.05 200.55 92.85 202.85 92.45 205.75 91.95 208.95 91.2 211.4 90.55 214.05 89.75 218 88.55 230.15 84.1 230.35 84 230.6 83.9 240.95 80.05 249.8 77.95 259.95 75.5 268.1 75.4 268.5 75.4 268.9 75.4 278.75 75.4 287.6 76.2 293.8 76.8 299.55 77.75 304.25 78.55 309.7 79.85 315 81.15 320.95 82.9 323.2 83.55 325.25 84.15
L 326.55 111.6
Q 336.35 108.15 344.35 106.05
L 344.05 88.85
M 378.1 89.5
L 376.7 102.95
Q 384.75 103.7 393.55 105.75
L 380.1 396.9
Q 378.3 397.7 376.35 398.45 374.3 399.25 372.2 399.95
L 377.8 543.7 372.8 543.75 374.35 566.15 193.75 568.75 192.7 544.95 188.2 544.95 187.35 396.1
Q 184.9 394.2 183.75 393.3 182.6 392.35 179.05 389.8
L 159.55 111.1
Q 168.35 109.05 174.9 107.95
L 173.75 89.7
M 348.45 133.35
Q 359.05 130.25 366.55 131.7 370.85 132.5 376.5 136 384.35 140.85 384.15 149.15 383.85 161.4 371.6 160.95 363.25 160.7 363.4 154.4 363.9 152.2 363.95 152.15 364.95 150.75 365.05 150.65 364.5 151.95 365.25 153.6 366.15 155.05 368.3 154.9 370.85 154.6 371.9 152.15 372.85 149.65 372.4 147.5 371.95 145.3 369.65 143.4 366.55 140.95 361.4 140.8 343.95 140.2 319.8 159.05 312.05 165.05 305.25 171.65 317.6 152.9 327.45 144.55 336.2 137.05 348.45 133.35 Z
M 360.5 90.4
L 359.5 102.9
Q 361 102.7 362.45 102.6 363.8 102.45 365.1 102.45 368.05 102.4 371.2 102.55 373.9 102.65 376.7 102.95
M 336.4 121.9
Q 336.4 124.4 345.4 124.4 352.7 124.4 365.1 122.15 371.15 121.05 375.3 120.5 371.5 117.85 366.3 116.9 363.6 116.4 354.9 116.4 336.4 116.4 336.4 121.9 Z
M 344.35 106.05
Q 346.45 105.45 348.4 105 354.6 103.5 359.5 102.9
M 309.7 79.85
L 309.05 117.85
Q 315.7 115.4 324.95 112.15 325.75 111.85 326.55 111.6
M 355.05 152.55
Q 355.25 152.9 355.4 153.25 355.75 155.1 354.5 156.3 353.4 157.3 352.25 158 351.2 158.45 350.05 159.05 349.1 159.45 348.15 159.95 347.1 160.45 346.05 161 344.75 161.6 343.5 162.4 342.7 162.75 341.95 163.2 340.75 163.95 339.55 164.7 338.4 165.5 336.8 166.4 335.2 167.25 334.1 167.85 333.1 168.3 331.6 169 330.35 169.6 328.95 169.9 327.8 170.3 326.55 170.6 325.15 170.8 323.5 170.55 321.8 170.35 321.5 168.45 321.45 168.05 321.4 167.7 324.25 165.4 327.2 163.1 329.35 161.4 331.45 160 333.5 158.45 335.45 157.25 336.3 156.55 337.3 156.05 338.65 155.15 339.95 154.4 341.55 153.5 343.15 152.7 343.95 152.3 344.75 152.05 346.15 151.5 347.5 151.05 349.25 150.45 351.05 150.35 352.65 150.25 354.1 151.5 354.65 151.9 355.05 152.55 Z
M 366.55 199.3
Q 361.25 206.05 353 207.6 344.85 209.15 335.6 205.4 326 201.5 317.15 192.65
L 373.35 180.2
Q 372.1 192.05 366.55 199.3 Z
M 374.35 202.2
Q 366.55 214.4 354.35 217.3 342.4 220.15 328.75 213.45 314.65 206.55 301.65 190.8
L 384.6 167.9
Q 382.65 189.2 374.35 202.2 Z
M 178.85 299.15
Q 178.15 311.1 178.95 326.25 179.15 341 183.2 355.8 187.1 369.9 193.55 380.8 201.45 393.95 211.5 397.7 214.95 399 218.95 399.2 224.35 399.45 230.7 397.85 245.15 394.1 265.6 378.7 273.35 372.8 279.9 372.7 287.05 372.55 295.15 379 311.6 392.25 331.85 394.95 351.7 397.6 363.25 382.7 374.7 367.85 378.1 342.4 378.75 337.35 379.2 332.55 381.75 301.3 373.9 277.5 369.05 263.05 363.9 257.9 358.2 252.25 345.85 250.75 334 249.35 318.45 259.8 309.8 265.6 295.7 277.35 276.75 291 249.05 271.25 233.4 260.05 227.15 257.15 218.6 253.2 208.15 253.85 199.75 254.4 191.95 261.45 184.8 267.9 182.6 275.2 179.65 284.85 178.85 299.15 Z
M 327.95 276.65
L 329.05 293.25 346.1 292.3 345.25 278.4
Q 341.2 277 335.6 276.4 331.95 276 327.95 276.65 320.75 277.8 312.3 282.3 310.9 283.05 309.35 283.9
L 309.35 294.35 329.05 293.25
M 346.1 292.3
L 358.4 291.6
Q 354.8 284.4 351.2 281.5 348.85 279.6 345.25 278.4
M 309.35 294.35
L 290.55 295.4
Q 281.4 299.5 269.9 296.55
L 248.35 297.75 228.85 298.85 208.2 300 195 300.75
Q 193.4 311.15 194.6 326.4 194.9 336.55 198.4 346.75 201.2 354.8 205.45 361.35
L 227.4 359.9 246.65 358.6 264.5 357.4 283.3 356.1 302.6 354.8 322.35 353.45 337.85 352.4 352.1 351.45 362.35 350.75
Q 363.85 345.9 364.65 340.25 368.3 314.3 360 295.15 359.2 293.25 358.4 291.6
M 345.15 237.35
Q 366.05 241.8 378.9 211.45 359.3 237.35 330.05 226.45 326.05 225 316.65 217.75 324.15 232.9 345.15 237.35 Z
M 352.1 351.45
L 352.6 367.9
Q 359.1 361.05 362.35 350.75
M 337.85 352.4
L 337.85 375.95
Q 346.5 374.3 352.45 368.1 352.55 368 352.6 367.9
M 322.35 353.45
L 322.35 375.65
Q 323.95 375.9 325.6 376.15 332.3 376.95 337.85 375.95
M 208.95 91.2
L 208.1 108.45
Q 216.05 110.35 227.75 114.45 228.6 114.75 229.5 115.1
L 230.15 84.1
M 191.35 123.2
Q 200.15 119.9 205.65 119.9 211.75 119.9 215.9 122.9 219.4 125.45 219.4 127.9 219.4 131.25 213.4 130.4 205.85 128.45 197.9 126.8 191.75 125.55 186.9 125.1 188.95 124.1 191.35 123.2 Z
M 188.85 92.8
L 188.85 106.55
Q 192.35 106.45 196.05 106.65 197.4 106.7 198.8 106.85 200.25 106.95 201.95 107.2 204.7 107.6 208.1 108.45
M 174.9 107.95
Q 178.55 107.3 181.5 107 181.65 107 181.8 107 185.25 106.6 188.85 106.55
M 191.05 136.7
Q 198.55 135.7 208.95 139.75 221 144.45 229.4 153 238.8 162.45 250.2 183 243.7 175.55 236.3 168.75 213.1 147.2 195.75 146.6 190.6 146.4 187.4 148.75 184.95 150.55 184.45 152.8 183.9 155.05 184.75 157.75 185.6 160.4 188.15 160.9 190.3 161.2 191.3 159.75 192.1 158.1 191.6 156.65 191.7 156.75 192.65 158.35 192.65 158.4 193.05 160.7 192.9 167.3 184.6 167 172.35 166.55 172.65 153.7 172.85 145 180.95 140.5 186.7 137.25 191.05 136.7 Z
M 219.05 164.3
Q 217.7 163.25 216.5 162.4 214.85 161.35 213.35 160.4 212.5 159.95 211.8 159.6 210.4 158.95 209.1 158.35 207.35 157.6 205.6 157.35 203.95 157.15 202.5 158.35 201.9 158.7 201.5 159.4 201.25 159.7 201.1 160.1 200.65 162 201.85 163.35 202.9 164.5 204.05 165.25 205 165.8 206.15 166.55 207.1 167 208.05 167.6 209.05 168.2 210.1 168.9 211.3 169.6 212.55 170.5 213.3 170.95 214.05 171.5 215.15 172.35 216.35 173.25 217.45 174.1 219.05 175.2 220.6 176.2 221.6 176.9 222.6 177.45 224.05 178.3 225.25 179 226.65 179.45 227.8 179.9 229.05 180.3 230.4 180.65 232.05 180.5 233.75 180.4 234.15 178.45 234.25 178.05 234.3 177.65 231.55 175.1 228.75 172.45 226.65 170.55 224.65 168.9 222.65 167.15 220.8 165.7 219.95 164.9 219.05 164.3 Z
M 287.6 76.2
L 288.8 125
Q 290.95 124.55 292.6 123.9 296.15 122.4 309.05 117.85
M 249.8 77.95
L 249.4 121.75
Q 251.7 122.4 253.1 122.75 261.35 124.7 269.8 125.45
L 268.1 75.4
M 269.8 125.45
Q 272.7 125.65 275.65 125.75 283.7 126 288.8 125
M 256 141.9
L 278.75 173.8 293.3 140.35 256 141.9 Z
M 229.5 115.1
Q 242.9 119.8 249.4 121.75
M 269.9 296.55
Q 262.15 294.55 253.4 289.45 250.7 287.85 248.35 286.55
L 248.35 297.75
M 319.4 250.2
L 319.45 250.3 319.15 250.25 249.95 258.3 278.5 182.8 319.4 250.2 319.15 250.25 282.8 243.8 249.95 258.3
M 309.35 283.9
Q 302.7 287.65 293.05 294.1 291.8 294.8 290.55 295.4
M 218.35 216.15
Q 228.1 212.75 237.4 204.1
L 181.9 187.05
Q 182.55 199.55 187.85 207.5 192.75 215 200.9 217.25 208.9 219.45 218.35 216.15 Z
M 236.65 230.45
Q 228.45 245.8 207.35 248.95 186.3 252.1 174.95 219.4 193.2 247.95 222.9 238.6 226.9 237.35 236.65 230.45 Z
M 224.8 225.1
Q 239.2 218.9 252.9 203.3
L 171.35 173.35
Q 172.25 195.8 179.9 210 187.1 223.35 199.15 227.3 210.9 231.1 224.8 225.1 Z
M 228.85 298.85
L 228.85 277.85
Q 224.05 276.85 218.65 277.1 212.7 277.35 207.15 280.7
L 208.2 300
M 207.15 280.7
Q 206.1 281.35 205.05 282.1 199.05 286.45 197.3 291.4 195.8 295.45 195 300.75
M 248.35 286.55
Q 238.95 281.15 234.7 279.55 231.9 278.45 228.85 277.85
M 205.45 361.35
Q 206.35 362.8 207.35 364.15 214.15 373.4 222.75 376.2 225.9 377.2 229.65 377.35
L 227.4 359.9
M 229.65 377.35
Q 234 377.5 239.05 376.55 243 375.75 247.55 374.15
L 246.65 358.6
M 264.5 357.4
L 264.75 366.1
Q 266.65 365 268.65 363.8 275.15 359.8 280.75 359.9 282.35 359.85 284.05 360.2
L 283.3 356.1
M 247.55 374.15
Q 255.35 371.35 264.75 366.1
M 302.6 354.8
L 303.15 369.7
Q 312.2 373.95 322.35 375.65
M 284.05 360.2
Q 288.65 361.05 293.85 364.45 298.3 367.45 303.15 369.7
M 278.5 182.8
L 282.8 243.8
M 279.85 406.4
Q 266.9 417.45 256.15 430.55 280.7 439.5 306.9 436.45 306.2 420.65 292.85 411.7 286.8 407.6 279.85 406.4 Z
M 310.6 414.4
Q 313.35 418.25 317.8 420.8 323.7 424.2 329.95 424.2 337.1 424.2 340.05 420.15 340.55 419.05 341.05 418.1 340.2 418.4 339.5 418.6 335.8 419.7 330.95 419.7 319.55 419.7 311.45 414.95 311.05 414.7 310.6 414.4 Z
M 289.25 423.7
Q 289.3 417.65 283.5 416.45 282.7 416.4 281.95 416.35
L 278.75 421.2
Q 283.75 423.3 289.25 423.7 Z
M 278.9 413.6
L 265.8 425.45
Q 282.55 432.75 300.75 431.1 297.4 414.9 281.05 413.7 279.95 413.65 278.9 413.6 Z
M 233.4 419.45
Q 244.8 419.45 252.9 414.7 253.3 414.45 253.8 414.15 251 418 246.55 420.55 240.65 423.95 234.4 423.95 227.25 423.95 224.3 419.9 223.8 418.8 223.35 417.85 224.15 418.15 224.85 418.35 228.55 419.45 233.4 419.45 Z
M 211.4 447.95
Q 211.4 439.9 217.9 435.45 223 431.95 229.15 431.95 245.7 431.95 262.55 449.1 267.95 454.6 273.6 462.2 274.4 463.25 275.2 464.4 267.8 458.25 261.15 453.5 242 439.95 229.15 439.95 222.65 439.95 220.9 440.95 218.4 442.4 218.4 447.95 218.4 449.35 219.4 450.45 220.8 451.95 223.4 451.95 223.95 451.95 227.2 450.95 224.45 456.9 219.9 455.95 215.15 455.95 212.9 452.45 211.4 450.2 211.4 447.95 Z
M 372.8 543.75
L 290.7 544.3 290.4 529.5 320.75 529.85 320.65 525.7 290.35 525.15 290 508.5 320.2 508.5 320.1 505 289.95 505 289.65 489.9 322.4 489.55 322.2 486.65 305.15 486.8 305.4 473.8 337.6 471.95 339.8 489.35 358.8 489.1 360.8 402.9
Q 352.65 404.4 343.9 404.4 334.45 404.4 314.5 399.9 294.55 395.4 282.9 395.4 270.05 395.4 252.05 403.4 241.6 408.05 239.35 408.9 232.7 411.4 227.9 411.4 220.15 411.4 207.9 406.55 204.7 405.25 201.65 403.8
L 204.55 490.9 224.2 490.65 226.15 473.25 258.45 474.6 258.1 487.25 243.2 487.7 243.2 489.7 287.05 489.95 287.15 505 259.15 505 259.3 508.5 287.15 508.5 287.3 525.1 259.9 524.6 260.05 529.15 287.3 529.45 287.4 544.3 192.7 544.95
M 346.45 435.7
Q 341.35 432.2 335.2 432.2 318.65 432.2 301.8 449.35 296.4 454.85 290.75 462.45 289.95 463.5 289.15 464.65 296.55 458.5 303.2 453.75 322.35 440.2 335.2 440.2 341.7 440.2 343.45 441.2 345.95 442.65 345.95 448.2 345.95 449.6 344.95 450.7 343.55 452.2 340.95 452.2 340.4 452.2 337.2 451.2 339.9 457.15 344.45 456.2 349.2 456.2 351.45 452.7 352.95 450.45 352.95 448.2 352.95 440.15 346.45 435.7 Z
M 187.35 396.1
Q 192.65 399.35 201.65 403.8
M 360.8 402.9
Q 366.65 401.8 372.2 399.95"/>
</defs>

<g transform="matrix( 1, 0, 0, 1, 0,0) ">
<use xlink:href="#Layer0_0_1_STROKES"/>
</g>
</svg>
