<?xml version="1.0" encoding="utf-8"?>
<!-- Generator: Adobe Illustrator 18.0.0, SVG Export Plug-In . SVG Version: 6.00 Build 0)  -->
<!DOCTYPE svg PUBLIC "-//W3C//DTD SVG 1.1//EN" "http://www.w3.org/Graphics/SVG/1.1/DTD/svg11.dtd">
<svg version="1.1" id="Layer_1" xmlns="http://www.w3.org/2000/svg" xmlns:xlink="http://www.w3.org/1999/xlink" x="0px" y="0px"
	 viewBox="159.1 31.5 235 537.8" enable-background="new 159.1 31.5 235 537.8" xml:space="preserve">
<g transform="matrix( 1, 0, 0, 1, 0,0) ">
	<g>
		<path id="Layer0_0_1_STROKES" fill="none" stroke="#000000" stroke-linecap="round" stroke-linejoin="round" d="M325.2,84.2
			c6.9,2,11.8,3.3,14.6,3.9c1.4,0.3,2.8,0.6,4.2,0.8c0.8,0.1,1.7,0.3,2.5,0.4c4.5,0.7,9.1,1,14,1.2c0.8,0,1.6,0,2.4,0
			c1.9,0,3.9-0.1,5.9-0.2c2.2-0.1,4.5-0.3,6.8-0.5c0.8-0.1,1.7-0.2,2.6-0.2c2.5-0.3,5-0.7,7.5-1.1l3.2-56.4l-224,1.2l2.1,54.1
			c1.5,0.7,3.7,1.5,6.8,2.3c1,0.3,2.1,0.5,3.2,0.8c1.3,0.3,2.7,0.6,4.2,0.9c1.8,0.4,3.5,0.7,5.2,1c0.9,0.1,1.7,0.3,2.5,0.4
			c3.7,0.4,6.9,0.5,9.6,0.2c1.4-0.1,2.9-0.3,4.4-0.6c1.9-0.3,4-0.8,6.1-1.2c1.6-0.4,3.3-0.9,5.1-1.4c2.6-0.8,8-2.7,16.1-5.7
			c0.1-0.1,0.3-0.1,0.5-0.2c6.9-2.6,13.3-4.6,19.2-6c6.8-1.6,12.9-2.5,18.3-2.5c0.3,0,0.5,0,0.8,0c6.6,0,12.8,0.3,18.7,0.8
			c4.1,0.4,8.1,0.9,11.9,1.6c3.1,0.5,6.5,1.2,10.2,2.1c3.5,0.9,7.3,1.9,11.2,3.1C322.5,83.3,323.9,83.8,325.2,84.2l1.3,27.4
			c6.5-2.3,12.5-4.1,17.8-5.5L344,88.8 M378.1,89.5l-1.4,13.4c5.4,0.5,11,1.4,16.8,2.8l-13.4,291.1c-1.2,0.5-2.5,1.1-3.8,1.6
			c-1.4,0.5-2.8,1-4.1,1.5l5.6,143.8l-5,0l1.6,22.4l-180.6,2.6l-1.1-23.8h-4.5l-0.8-148.9c-1.6-1.3-2.8-2.2-3.6-2.8
			c-0.8-0.6-2.3-1.8-4.7-3.5l-19.5-278.7c5.9-1.4,11-2.4,15.3-3.2l-1.1-18.2 M348.5,133.4c7.1-2.1,13.1-2.6,18.1-1.7
			c2.9,0.5,6.2,2,10,4.3c5.2,3.2,7.8,7.6,7.6,13.1c-0.2,8.2-4.4,12.1-12.5,11.8c-5.6-0.2-8.3-2.4-8.2-6.6c0.3-1.5,0.5-2.2,0.6-2.2
			c0.7-0.9,1-1.4,1.1-1.5c-0.4,0.9-0.3,1.9,0.2,3c0.6,1,1.6,1.4,3,1.3c1.7-0.2,2.9-1.1,3.6-2.8c0.6-1.7,0.8-3.2,0.5-4.6
			c-0.3-1.5-1.2-2.8-2.8-4.1c-2.1-1.6-4.8-2.5-8.2-2.6c-11.6-0.4-25.5,5.7-41.6,18.2c-5.2,4-10,8.2-14.5,12.6
			c8.2-12.5,15.6-21.5,22.2-27.1C333.3,139.6,340.3,135.8,348.5,133.4z M360.5,90.4l-1,12.5c1-0.1,2-0.2,3-0.3
			c0.9-0.1,1.8-0.2,2.6-0.2c2,0,4,0,6.1,0.1c1.8,0.1,3.6,0.2,5.5,0.4 M336.4,121.9c0,1.7,3,2.5,9,2.5c4.9,0,11.4-0.8,19.7-2.2
			c4-0.7,7.4-1.3,10.2-1.7c-2.5-1.8-5.5-3-9-3.6c-1.8-0.3-5.6-0.5-11.4-0.5C342.6,116.4,336.4,118.2,336.4,121.9z M344.4,106.1
			c1.4-0.4,2.8-0.8,4-1.1c4.1-1,7.8-1.7,11.1-2.1 M309.7,79.8l-0.7,38c4.4-1.6,9.7-3.5,15.9-5.7c0.5-0.2,1.1-0.4,1.6-0.6 M355,152.6
			c0.1,0.2,0.3,0.5,0.4,0.7c0.2,1.2-0.1,2.2-0.9,3.1c-0.7,0.7-1.5,1.2-2.2,1.7c-0.7,0.3-1.4,0.7-2.2,1.1c-0.6,0.3-1.3,0.6-1.9,0.9
			c-0.7,0.3-1.4,0.7-2.1,1.1c-0.9,0.4-1.7,0.9-2.5,1.4c-0.5,0.2-1,0.5-1.5,0.8c-0.8,0.5-1.6,1-2.4,1.5c-0.8,0.5-1.7,1.1-2.8,1.7
			c-1.1,0.6-2,1.1-2.7,1.5c-0.7,0.3-1.5,0.7-2.5,1.1c-0.8,0.4-1.7,0.7-2.6,0.9c-0.8,0.3-1.6,0.5-2.4,0.7c-0.9,0.1-1.9,0.1-3-0.1
			c-1.1-0.1-1.8-0.8-2-2.1c0-0.3-0.1-0.5-0.1-0.8c1.9-1.5,3.8-3.1,5.8-4.6c1.4-1.1,2.9-2.2,4.2-3.1c1.4-1,2.7-1.9,4-2.8
			c0.6-0.5,1.2-0.9,1.8-1.2c0.9-0.6,1.8-1.2,2.7-1.7c1.1-0.6,2.1-1.2,3.2-1.7c0.5-0.3,1.1-0.5,1.6-0.6c0.9-0.4,1.9-0.7,2.8-1
			c1.2-0.4,2.4-0.6,3.5-0.7c1.1-0.1,2.1,0.3,3.1,1.1C354.5,151.8,354.8,152.1,355,152.6z M366.5,199.3c-3.5,4.5-8,7.3-13.5,8.3
			c-5.4,1-11.2,0.3-17.4-2.2c-6.4-2.6-12.5-6.8-18.5-12.8l56.2-12.4C372.5,188.1,370.2,194.5,366.5,199.3z M374.4,202.2
			c-5.2,8.1-11.9,13.2-20,15.1c-8,1.9-16.5,0.6-25.6-3.9c-9.4-4.6-18.4-12.1-27.1-22.6l83-22.9C383.3,182.1,379.9,193.5,374.4,202.2
			z M178.9,299.1c-0.5,8-0.4,17,0.1,27.1c0.1,9.8,1.6,19.7,4.2,29.5c2.6,9.4,6.1,17.7,10.4,25c5.3,8.8,11.2,14.4,17.9,16.9
			c2.3,0.9,4.8,1.4,7.4,1.5c3.6,0.2,7.5-0.3,11.8-1.4c9.6-2.5,21.3-8.9,34.9-19.1c5.2-3.9,9.9-5.9,14.3-6c4.8-0.1,9.9,2,15.2,6.3
			c11,8.8,23.2,14.1,36.7,16c13.2,1.8,23.7-2.3,31.4-12.2c7.6-9.9,12.6-23.3,14.9-40.3c0.4-3.4,0.8-6.6,1.1-9.9
			c1.7-20.8-0.1-39.2-5.3-55c-3.2-9.6-6.6-16.2-10-19.6c-3.8-3.8-9.8-6.1-18-7.1c-7.9-0.9-17,2.1-27.4,9
			c-5.8,3.9-13.4,9.7-22.8,17.6c-12.6,9.1-28.2,7.1-46.7-6.1c-10.4-7.5-17.7-12.2-21.9-14.1c-5.7-2.6-12-3.7-19-3.3
			c-5.6,0.4-11,2.9-16.2,7.6c-4.8,4.3-7.9,8.9-9.3,13.8C180.6,281.6,179.4,289.6,178.9,299.1z M328,276.6l1.1,16.6l17.1-1l-0.9-13.9
			c-2.7-0.9-5.9-1.6-9.6-2C333.2,276.1,330.6,276.2,328,276.6c-4.8,0.8-10,2.6-15.7,5.6c-0.9,0.5-1.9,1-2.9,1.6v10.5l19.7-1.1
			 M346.1,292.3l12.3-0.7c-2.4-4.8-4.8-8.2-7.2-10.1c-1.6-1.3-3.6-2.3-6-3.1 M309.4,294.4l-18.8,1c-6.1,2.7-13,3.1-20.6,1.1
			l-21.5,1.2l-19.5,1.1l-20.7,1.1l-13.2,0.8c-1.1,6.9-1.2,15.5-0.4,25.6c0.2,6.8,1.5,13.5,3.8,20.4c1.9,5.4,4.2,10.2,7.1,14.6
			l21.9-1.5l19.2-1.3l17.9-1.2l18.8-1.3l19.3-1.3l19.8-1.3l15.5-1.1l14.2-0.9l10.2-0.7c1-3.2,1.8-6.7,2.3-10.5
			c2.4-17.3,0.9-32.3-4.6-45.1c-0.5-1.3-1.1-2.5-1.6-3.5 M345.1,237.4c13.9,3,25.2-5.7,33.8-25.9c-13.1,17.3-29.4,22.3-48.9,15
			c-2.7-1-7.1-3.9-13.4-8.7C321.6,227.8,331.1,234.4,345.1,237.4z M352.1,351.5l0.5,16.4c4.3-4.6,7.6-10.3,9.8-17.1 M337.9,352.4
			V376c5.8-1.1,10.6-3.7,14.6-7.9c0.1-0.1,0.1-0.1,0.1-0.2 M322.4,353.5v22.2c1.1,0.2,2.1,0.3,3.2,0.5c4.5,0.5,8.5,0.5,12.2-0.2
			 M208.9,91.2l-0.8,17.2c5.3,1.3,11.8,3.3,19.6,6c0.6,0.2,1.2,0.4,1.8,0.7l0.6-31 M191.4,123.2c5.9-2.2,10.6-3.3,14.3-3.3
			c4.1,0,7.5,1,10.2,3c2.3,1.7,3.5,3.4,3.5,5c0,2.2-2,3.1-6,2.5c-5-1.3-10.2-2.5-15.5-3.6c-4.1-0.8-7.8-1.4-11-1.7
			C188.3,124.4,189.8,123.8,191.4,123.2z M188.9,92.8v13.8c2.3-0.1,4.7,0,7.2,0.1c0.9,0,1.8,0.1,2.8,0.2c1,0.1,2,0.2,3.1,0.3
			c1.8,0.3,3.9,0.7,6.2,1.2 M174.9,107.9c2.4-0.4,4.6-0.7,6.6-0.9c0.1,0,0.2,0,0.3,0c2.3-0.3,4.6-0.4,7.1-0.4 M191.1,136.7
			c5-0.7,11,0.4,17.9,3.1c8,3.1,14.9,7.6,20.4,13.2c6.3,6.3,13.2,16.3,20.8,30c-4.3-5-9-9.7-13.9-14.2c-15.5-14.4-29-21.8-40.6-22.1
			c-3.4-0.1-6.2,0.6-8.4,2.1c-1.6,1.2-2.6,2.6-2.9,4.1c-0.4,1.5-0.3,3.1,0.3,4.9c0.6,1.8,1.7,2.8,3.4,3.1c1.4,0.2,2.5-0.2,3.2-1.1
			c0.5-1.1,0.6-2.1,0.3-3.1c0.1,0.1,0.4,0.6,1,1.7c0,0,0.1,0.8,0.4,2.3c-0.1,4.4-2.9,6.5-8.4,6.3c-8.2-0.3-12.2-4.7-12-13.3
			c0.1-5.8,2.9-10.2,8.3-13.2C184.8,138.3,188.2,137.1,191.1,136.7z M219.1,164.3c-0.9-0.7-1.8-1.3-2.6-1.9c-1.1-0.7-2.1-1.4-3.1-2
			c-0.6-0.3-1.1-0.6-1.6-0.8c-0.9-0.4-1.8-0.9-2.7-1.2c-1.2-0.5-2.3-0.8-3.5-1c-1.1-0.1-2.1,0.2-3.1,1c-0.4,0.2-0.7,0.6-1,1
			c-0.2,0.2-0.3,0.4-0.4,0.7c-0.3,1.3-0.1,2.3,0.8,3.2c0.7,0.8,1.4,1.4,2.2,1.9c0.6,0.4,1.3,0.8,2.1,1.3c0.6,0.3,1.3,0.6,1.9,1.1
			c0.7,0.4,1.4,0.8,2.1,1.3c0.8,0.5,1.6,1,2.4,1.6c0.5,0.3,1,0.6,1.5,1c0.7,0.6,1.5,1.2,2.3,1.8c0.7,0.6,1.6,1.2,2.7,1.9
			c1,0.7,1.9,1.2,2.6,1.7c0.7,0.4,1.5,0.8,2.4,1.4c0.8,0.5,1.7,0.9,2.6,1.1c0.8,0.3,1.6,0.6,2.4,0.9c0.9,0.2,1.9,0.3,3,0.2
			c1.1-0.1,1.8-0.8,2.1-2.1c0.1-0.3,0.1-0.5,0.2-0.8c-1.8-1.7-3.7-3.4-5.6-5.2c-1.4-1.3-2.8-2.4-4.1-3.6c-1.3-1.2-2.6-2.2-3.8-3.2
			C220.2,165.2,219.7,164.7,219.1,164.3z M287.6,76.2l1.2,48.8c1.4-0.3,2.7-0.7,3.8-1.1c2.4-1,7.8-3,16.4-6.1 M249.8,77.9l-0.4,43.8
			c1.5,0.4,2.8,0.8,3.7,1c5.5,1.3,11.1,2.2,16.7,2.7l-1.7-50 M269.8,125.4c1.9,0.1,3.9,0.2,5.9,0.3c5.4,0.2,9.8-0.1,13.1-0.8
			 M256,141.9l22.8,31.9l14.5-33.4L256,141.9z M229.5,115.1c8.9,3.1,15.6,5.4,19.9,6.7 M269.9,296.5c-5.2-1.3-10.7-3.7-16.5-7.1
			c-1.8-1.1-3.5-2-5-2.9v11.2 M319.4,250.2l0.1,0.1l-0.3-0.1l-69.2,8l28.6-75.5L319.4,250.2l-0.2,0.1l-36.4-6.4l-32.8,14.5
			 M309.4,283.9c-4.4,2.5-9.9,5.9-16.3,10.2c-0.8,0.5-1.7,0.9-2.5,1.3 M218.4,216.1c6.5-2.3,12.8-6.3,19-12l-55.5-17.1
			c0.4,8.3,2.4,15.1,6,20.4c3.3,5,7.6,8.2,13,9.8C206.2,218.7,212.1,218.3,218.4,216.1z M236.6,230.4c-5.5,10.2-15.2,16.4-29.3,18.5
			c-14,2.1-24.8-7.8-32.4-29.6c12.2,19,28.1,25.4,47.9,19.2C225.6,237.8,230.1,235.1,236.6,230.4z M224.8,225.1
			c9.6-4.1,19-11.4,28.1-21.8l-81.5-29.9c0.6,15,3.4,27.2,8.5,36.6c4.8,8.9,11.2,14.7,19.2,17.3C207,229.8,215.5,229.1,224.8,225.1z
			 M228.9,298.9v-21c-3.2-0.7-6.6-0.9-10.2-0.8c-4,0.2-7.8,1.4-11.5,3.6l1.1,19.3 M207.1,280.7c-0.7,0.4-1.4,0.9-2.1,1.4
			c-4,2.9-6.6,6-7.8,9.3c-1,2.7-1.8,5.8-2.3,9.4 M248.4,286.5c-6.3-3.6-10.8-5.9-13.7-7c-1.9-0.7-3.8-1.3-5.8-1.7 M205.4,361.4
			c0.6,1,1.2,1.9,1.9,2.8c4.5,6.2,9.7,10.2,15.4,12.1c2.1,0.7,4.4,1,6.9,1.1l-2.2-17.5 M229.6,377.4c2.9,0.1,6-0.2,9.4-0.8
			c2.6-0.5,5.5-1.3,8.5-2.4l-0.9-15.5 M264.5,357.4l0.2,8.7c1.3-0.7,2.6-1.5,3.9-2.3c4.3-2.7,8.4-4,12.1-3.9c1.1,0,2.2,0.1,3.3,0.3
			l-0.8-4.1 M247.6,374.1c5.2-1.9,10.9-4.5,17.2-8 M302.6,354.8l0.5,14.9c6,2.8,12.4,4.8,19.2,5.9 M284,360.2c3.1,0.6,6.3,2,9.8,4.2
			c3,2,6.1,3.8,9.3,5.2 M278.5,182.8l4.3,61 M279.9,406.4c-8.6,7.4-16.5,15.4-23.7,24.1c16.4,6,33.3,7.9,50.8,5.9
			c-0.5-10.5-5.1-18.8-14-24.8C288.8,409,284.5,407.2,279.9,406.4z M310.6,414.4c1.8,2.6,4.2,4.7,7.2,6.4c3.9,2.3,8,3.4,12.2,3.4
			c4.8,0,8.1-1.4,10.1-4.1c0.3-0.7,0.7-1.4,1-2c-0.6,0.2-1.1,0.4-1.5,0.5c-2.5,0.7-5.3,1.1-8.5,1.1c-7.6,0-14.1-1.6-19.5-4.8
			C311.2,414.8,310.9,414.6,310.6,414.4z M289.2,423.7c0-4-1.9-6.5-5.8-7.2c-0.5,0-1-0.1-1.5-0.1l-3.2,4.9
			C282.1,422.6,285.6,423.4,289.2,423.7z M278.9,413.6l-13.1,11.9c11.2,4.9,22.8,6.7,35,5.6c-2.2-10.8-8.8-16.6-19.7-17.4
			C280.3,413.7,279.6,413.6,278.9,413.6z M233.4,419.5c7.6,0,14.1-1.6,19.5-4.8c0.3-0.2,0.6-0.4,0.9-0.6c-1.9,2.6-4.3,4.7-7.2,6.4
			c-3.9,2.3-8,3.4-12.2,3.4c-4.8,0-8.1-1.4-10.1-4.1c-0.3-0.7-0.6-1.4-0.9-2c0.5,0.2,1,0.4,1.5,0.5
			C227.3,419.1,230.2,419.5,233.4,419.5z M211.4,448c0-5.4,2.2-9.5,6.5-12.5c3.4-2.3,7.2-3.5,11.2-3.5c11,0,22.2,5.7,33.4,17.1
			c3.6,3.7,7.3,8,11.1,13.1c0.5,0.7,1.1,1.4,1.6,2.2c-4.9-4.1-9.6-7.7-14.1-10.9c-12.8-9-23.4-13.5-32-13.5c-4.3,0-7.1,0.3-8.2,1
			c-1.7,1-2.5,3.3-2.5,7c0,0.9,0.3,1.8,1,2.5c0.9,1,2.3,1.5,4,1.5c0.4,0,1.6-0.3,3.8-1c-1.8,4-4.3,5.6-7.3,5c-3.2,0-5.5-1.2-7-3.5
			C211.9,451,211.4,449.5,211.4,448z M372.8,543.8l-82.1,0.5l-0.3-14.8l30.4,0.3l-0.1-4.1l-30.3-0.5l-0.4-16.7h30.2l-0.1-3.5H290
			l-0.3-15.1l32.8-0.4l-0.2-2.9l-17.1,0.1l0.2-13l32.2-1.8l2.2,17.4l19-0.2l2-86.2c-5.4,1-11.1,1.5-16.9,1.5
			c-6.3,0-16.1-1.5-29.4-4.5s-23.8-4.5-31.6-4.5c-8.6,0-18.9,2.7-30.8,8c-7,3.1-11.2,4.9-12.7,5.5c-4.4,1.7-8.3,2.5-11.5,2.5
			c-5.2,0-11.8-1.6-20-4.9c-2.1-0.9-4.2-1.8-6.2-2.8l2.9,87.1l19.6-0.2l1.9-17.4l32.3,1.4l-0.4,12.6l-14.9,0.5v2L287,490l0.1,15h-28
			l0.1,3.5h27.9l0.1,16.6l-27.4-0.5l0.1,4.6l27.2,0.3l0.1,14.8l-94.7,0.7 M346.5,435.7c-3.4-2.3-7.1-3.5-11.2-3.5
			c-11,0-22.2,5.7-33.4,17.1c-3.6,3.7-7.3,8-11,13.1c-0.5,0.7-1.1,1.4-1.6,2.2c4.9-4.1,9.6-7.7,14.1-10.9c12.8-9,23.4-13.5,32-13.5
			c4.3,0,7.1,0.3,8.2,1c1.7,1,2.5,3.3,2.5,7c0,0.9-0.3,1.8-1,2.5c-0.9,1-2.3,1.5-4,1.5c-0.4,0-1.6-0.3-3.8-1c1.8,4,4.2,5.6,7.2,5
			c3.2,0,5.5-1.2,7-3.5c1-1.5,1.5-3,1.5-4.5C353,442.8,350.8,438.7,346.5,435.7z M187.4,396.1c3.5,2.2,8.3,4.7,14.3,7.7
			 M360.8,402.9c3.9-0.7,7.7-1.7,11.4-2.9"/>
	</g>
</g>
</svg>
