<?xml version="1.0" encoding="utf-8"?>
<!-- Generator: Adobe Illustrator 18.0.0, SVG Export Plug-In . SVG Version: 6.00 Build 0)  -->
<!DOCTYPE svg PUBLIC "-//W3C//DTD SVG 1.1//EN" "http://www.w3.org/Graphics/SVG/1.1/DTD/svg11.dtd">
<svg version="1.1" id="Layer_1" xmlns="http://www.w3.org/2000/svg" xmlns:xlink="http://www.w3.org/1999/xlink" x="0px" y="0px"
	 viewBox="152.1 43.5 241.7 498.5" enable-background="new 152.1 43.5 241.7 498.5" xml:space="preserve">
<g transform="matrix( 1, 0, 0, 1, 0,0) ">
	<g>
		<path id="Layer0_0_1_STROKES" fill="none" stroke="#000000" stroke-linecap="round" stroke-linejoin="round" d="M375.5,86.8
			c2.1-0.5,4-1.1,5.8-1.7l-1,18.2c-3.3-0.6-6.7-1.2-10.2-1.8c-0.7-0.1-1.3-0.2-2-0.3l-1.2,15.4c5.1,0.9,10.2,1.9,15.2,3l-3.7,25
			c-1.6-0.5-3.3-0.9-4.9-1.3l-1.1,19.9l-1,18.8L364,313.4c7.6,5.8,13.7,12.9,18.4,21.3c6,10.8,9.6,23.6,10.8,38.6
			c0.8,10.2-1.8,17.7-7.7,22.6c-0.3,0.2-0.6,0.5-1,0.8c-4.3,3.1-10.4,5-18,5.6l3.4,3.9l3.3,6.3l4.3,8.2l-2.3,66.5
			c-1.4,1.1-2.9,2.1-4.6,3.2l-0.2,14.1c1.4,0,2.8,0,4.2,0l-1.3,37h-80.6h-29.2h-84.2l-3.1-36.8c1.5,0.1,3,0.2,4.6,0.4l-2.8-26.9
			c-2.1-2.7-3.7-5.1-4.7-7.2l-4.8-55.5l6.2-8.3l5.2-6.8l3.8-5c-2.2,0.3-4.4,0.5-6.6,0.6c-0.8,0-1.6,0-2.3,0c-7.8,0-13.7-4-17.6-12.1
			c-0.8-1.7-1.5-3.4-2.1-5.4c-1.6-5.2-2.4-11.3-2.4-18.1c0-4.9,0.8-9.8,2.4-14.5c1.5-4.4,3.8-8.8,6.8-13c3.2-4.6,7.1-9,11.8-13
			c2.1-1.8,4.4-3.6,6.8-5.3l-8.2-122.4l-1.4-21.5l-1.6-24c-2,0.5-4,1.1-5.8,1.8l-4-28c4.6-0.8,9.2-1.6,13.8-2.3l-1.2-18.9
			c-1.8,0.1-3.7,0.3-5.5,0.4l-2.2-17.9c2.1,0.8,4.2,1.5,6.3,2.1l-1.2-34.6L376.9,44L375.5,86.8c-5.5,1.2-12.1,2-19.8,2.3
			c-10.6,0.4-23.8-1.8-39.5-6.7c-15.8-4.9-27.7-9.9-35.6-14.9s-11.9-7.5-12-7.5c-7.4,5.5-14.7,10-22.1,13.4
			c-7.4,3.4-12.8,5.7-16.2,7c-3.4,1.2-8.4,2.9-14.8,5c-6.4,2.1-14,3-22.6,2.7c-6.9-0.3-14.4-1.6-22.3-4.1 M173.1,118.2
			c2.6-0.4,5.1-0.8,7.7-1.2c6.3-1,12.6-1.8,18.8-2.6c50.7-6.3,98-6.8,141.8-1.5c6.4,0.8,12.8,1.7,19.1,2.7c2.1,0.3,4.2,0.7,6.3,1.1
			 M333.5,122.7c0.4,1.8,1.1,3.6,1.9,5.2c0,3-1.4,5.7-4.2,8.1c4.2-2.3,7.3-4.1,9.2-5.4C339.9,129.3,337.6,126.7,333.5,122.7z
			 M372.3,163.2c-1.4-2.4-4.6-4.9-9.5-7.6c-4.9-2.7-12.4-4.8-22.5-6.3c-10.1-1.6-20.9,1.5-32.2,9.3c-11.4,7.8-17.3,18.4-17.6,31.7
			l-0.2,3.9c1.7-7,7.2-13.7,16.5-19.9c9.3-6.2,18.6-9.4,27.7-9.5c9.1-0.1,16.7,1.4,22.8,4.8c6,3.3,10.7,7.4,14,12.4 M312.9,229.9
			c6,3.5,11.6,5,16.6,4.6c5-0.4,8.7-0.9,11.2-1.6c2.5-0.7,5.2-2.5,8.3-5.4c3-3.5,4.8-7.7,5.4-12.5c0.6-4.8,0.2-9.4-1.2-13.7
			c-1.5-4.3-4.2-8.3-8.1-11.9c-3.9-3.6-8.9-5.3-15-5.3c-9,0-16,3-20.8,9c-4,5-5.9,11.5-5.7,19.5
			C303.7,220.6,306.8,226.4,312.9,229.9z M373.4,143.3c-7.7-1.8-15.6-2.8-23.8-2.8c-13.5,0-29.1,2.9-46.8,8.6
			c-13.7,4.5-24.1,9.4-31,14.7c-5.8-4.1-12.6-7.7-20.4-11c-15.6-6.5-31.1-9.8-46.3-9.8c-14,0-26,1.3-36,3.8 M368,101.2
			c-9.1-1.5-18.7-2.7-28.6-3.7c-39.1-3.8-84.7-4.1-136.7-0.7c-8.6,0.6-17.4,1.2-26.3,2c-1.5,0.1-3,0.3-4.5,0.4 M326.5,203.6
			c-3.8,0-5.8,2-5.8,6c0,1.8,1,3.1,3,4c1.1,0.5,2.3,0.8,3.6,0.9c4.9-1.3,7.1-3.4,6.4-6.4C333.1,205.1,330.7,203.6,326.5,203.6z
			 M312.8,211.5c0.6,3.8,2.2,6.4,5,7.9c2.7,1.5,5.4,2.4,8.1,2.9c2.7,0.4,4.6,0.6,5.8,0.5c1.2-0.1,2.9-0.4,5.1-0.8
			c2.2-0.5,4-1.5,5.4-3.1c1.1-1.3,1.7-4.1,1.7-8.2c0-4.3-1.3-8.1-4-11.5c-2.9-3.7-6.7-5.5-11.2-5.5c-6.4,0-10.7,2-13,6.1
			C313.1,203.8,312.2,207.7,312.8,211.5z M170.8,170.9c6.2-7.3,13.1-12.6,20.6-15.9c7.5-3.3,14.8-5,22-5.1
			c7.2-0.1,14.3,1.5,21.3,4.9c7,3.4,12.7,8.2,17,14.5c2.7,3.9,4.7,9.7,6,17.4c0.8,4.6,1.3,10,1.5,16c0.5,7.6,0.9,14.2,1.2,20
			c0.6,12.9,0.5,27.8-0.3,44.6c-9.9-9.8-17.4-14.7-22.7-14.6c-2.9,0-5.4,0.4-7.5,1.1c-2.9,1-5.1,2.6-6.5,4.8
			c-0.7,1.1-1.3,2.5-1.7,4.2c-0.7,2.7-1.1,6.2-0.9,10.5c0,0.1,0,0.1,0,0.2c0.1,4,3.1,10.7,9,20.2c3.7-0.8,7.5-1.5,11.2-2
			c-4.1-4.8-6.2-10-6.4-15.7c-0.1-2.8,0.9-4.8,2.8-5.9c1.1-0.7,2.2-1.1,3.4-1.1c3.3,0,6.1,2.9,8.6,8.8c1.2,3,2.8,7.2,4.6,12.5l0.1,0
			c2.4-0.1,4.9-0.2,7.4-0.2c14.6-0.1,27.8,0.5,39.8,1.9c0.2-5.1,1.6-9.8,4.2-14.2c2.8-4.9,6-7.4,9.4-7.4c2.3,0,4,0.3,4.9,0.9
			c1,0.8,1.6,2.4,1.7,4.7c0.3,5.8-2,11.8-6.9,17.9c5.3,0.9,10.3,2,15,3.3c2.2-3.4,4.3-7.1,6.3-11.2c2.1-4.5,3.5-8.5,4.3-12
			c0.6-2.7,0.9-5.1,0.8-7.2c-0.1-1.9-0.6-3.8-1.4-5.6c-0.9-2-2.2-3.9-3.8-5.7c-2.1-2.3-4.5-4-7.1-4.9c-1.8-0.7-4-0.7-6.6-0.2
			c-2.7,0.5-6.5,2.1-11.5,4.8c-5,2.7-10.8,7.3-17.2,14.1c-1.9-4.6-3.1-12-3.6-22.1c-0.5-9.4-0.7-18.2-0.5-26.4l1.1-26.7 M364,313.4
			c-3.4-2.6-7.1-5-11-7.1c-6.8-3.6-14.6-6.6-23.5-9 M187.9,328.2c3.9-3.2,8.3-6,13.3-8.4c3.3-1.6,6.5-3,9.6-4.2
			c6-2.4,11.7-4.1,17.1-5.4c3.5-0.8,7.9-1.5,13.2-2.1c3.9-0.5,8.2-0.9,13-1.3c3.9-0.3,7.7-0.5,11.5-0.6c9.1-0.2,17.8,0.3,25.9,1.4
			c1.6,0.2,3.6,0.5,5.9,0.8c3.4,0.5,7.6,1,12.5,1.7c3.6,0.6,7.1,1.4,10.5,2.3c3.3,0.9,6.6,1.9,9.8,3.1c6,2.2,11.3,4.6,16,7.2
			c4.5,2.4,8.3,4.9,11.5,7.6c2.4,2,4.6,4.2,6.5,6.6c3.3,4.1,5.8,8.9,7.6,14.2v0.1c2.7,8.4,3.5,15.3,2.2,20.6
			c-1.3,5.3-3.5,9-6.4,11.2c-0.6,0.4-1.2,0.8-1.9,1.2c-2.5,1.4-5.5,2.4-8.8,2.9c-4.2,0.6-8.4,0.8-12.5,0.5c-0.7-0.1-1.4-0.1-2.2-0.2
			c-3.6-0.5-7.6-1.3-11.9-2.5c-3.5-1-7.1-2.1-10.9-3.2c-2-0.6-4-1.3-6.1-1.9c-6.8-2.4-12.4-4.4-16.9-6c-3-1.1-5.6-1.9-7.6-2.6
			c-8.5-2.9-15.5-4.6-20.9-5.1c-0.4-0.1-0.8-0.1-1.2-0.1c-6.5-0.6-14.8-0.5-25,0.1c-0.5,0-0.9,0-1.3,0c-4,0.2-11.4,1.9-22.4,4.9
			c-1.7,0.5-3.3,0.9-4.7,1.3c-4.2,1.2-7,2.1-8.4,2.8c-2,0.9-6.8,2.2-14.4,4c-1.1,0.1-2.1,0.2-3,0.2c-0.1,0-0.2,0-0.3,0
			c-4.9,0-8.6-1-11.1-3c-1.2-0.9-2.1-2-2.8-3.3c-1.4-2.6-2.1-7.5-2.2-14.6c0-2.3,0.3-4.5,0.9-6.9c0.6-2.3,1.5-4.6,2.7-7
			c1-2,2.2-4,3.6-6C181.1,334.7,184.3,331.2,187.9,328.2l-0.1,23.3l24.7,0l-1.6-35.8 M365.9,384.1l-1.1-33l-20.2,0l-2.1,36.1
			 M364.3,336.9l0.5,14.2h7.1 M346.2,322.7l-1.7,28.4l-24.5,0.1l-0.4,30.3 M218.2,134.3c2.1,1.4,5.2,3,9.4,4.8
			c-1.5-1.9-3.1-3.9-5-6.1c-1.7-1.9-2.5-3.5-2.5-4.8c0-0.8,0.8-2.5,2.4-5.1c0.6-1,1.1-1.9,1.6-2.7c-2,1.5-3.7,2.9-5.1,4.4
			c-1.4,1.4-2.4,2.6-3,3.4c-0.6,0.8-0.9,1.4-0.9,1.7C215.1,131.5,216.1,132.9,218.2,134.3z M202.6,128.3c0,3,1.4,5.7,4.2,8.1
			c-4.2-2.3-7.3-4.1-9.2-5.4c0.5-1.2,2.7-3.9,6.8-7.9C204,125,203.4,126.7,202.6,128.3z M233.2,131.3c0.5,0.9,2,2.4,4.4,4.6
			s5.6,4.2,9.5,6.1c-0.8-1.1-1.7-2.5-2.6-4.2c-2.2-3.9-3.3-6.8-3.3-8.7c0-1.9,2.1-6,6.2-12.2c-9.5,5.4-14.4,8.9-14.6,10.6
			C232.5,129.2,232.7,130.4,233.2,131.3z M172.2,192.4c2.4-3.6,5.4-7.1,9-10.4c5.2-4.9,10.9-8.8,17-11.7c6.6-3.1,13.1-4.7,19.4-4.7
			c9.8,0,19.6,3.8,29.4,11.2c4.1,3.2,7.6,6.4,10.6,9.8 M217.9,184.1c9,0,16,3,20.8,9c4,5,5.9,11.5,5.7,19.5
			c-0.2,8-3.3,13.8-9.4,17.2s-11.6,5-16.6,4.6c-5-0.4-8.8-0.9-11.2-1.6c-2.5-0.7-5.2-2.5-8.2-5.4c-3-3.5-4.8-7.7-5.4-12.5
			c-0.6-4.8-0.2-9.4,1.2-13.7c1.4-4.3,4.1-8.3,8-11.9C206.7,185.9,211.7,184.1,217.9,184.1z M318.9,124.4c1.4,1.4,2.4,2.6,3,3.5
			c0.6,0.8,1,1.4,1,1.7c0,1.5-1,2.9-3.1,4.2s-5.2,3-9.5,4.8c1.5-1.9,3.1-3.9,5.1-6.1c1.7-1.9,2.5-3.5,2.5-4.8c0-0.8-0.8-2.5-2.4-5.1
			c-0.6-1-1.1-1.9-1.6-2.7C315.8,121.5,317.5,123,318.9,124.4z M305.2,126.9c0.2,1.7,0.1,3-0.4,3.9c-0.5,0.9-2,2.4-4.4,4.6
			c-2.4,2.2-5.6,4.2-9.5,6.1c0.8-1.1,1.7-2.5,2.6-4.2c2.2-3.9,3.4-6.8,3.4-8.7c0-1.9-2.1-6-6.2-12.2
			C300.1,121.7,305,125.2,305.2,126.9z M271,122.9c-12.2,6.3-12.5,13.1-0.9,20.3c8.4-6,9.1-12.4,2.4-19.1
			C272,123.7,271.5,123.3,271,122.9z M272,113.2c9,7.9,13.7,13.5,14,16.7c0.3,3.2-1.4,7.2-5,12.1c-3.6,4.9-7,8.9-10.2,12.1
			c-6.8-5.7-11.2-9.8-13-12.2c-1.9-2.4-3.1-5.1-3.8-8.1c-0.7-3,1.2-6.8,5.5-11.2C263.8,118.2,268,115,272,113.2z M301.4,292.1
			c4.6,0.5,9,1.1,13.2,1.9 M220.5,214.6c-4.9-1.3-7.1-3.4-6.4-6.4c0.7-3,3.1-4.5,7.2-4.5c3.8,0,5.8,2,5.8,6c0,1.8-1,3.1-3,4
			C223,214.1,221.8,214.4,220.5,214.6z M232.4,199.7c2.3,4.1,3.2,8,2.7,11.8c-0.6,3.8-2.2,6.4-4.9,7.9c-2.7,1.5-5.4,2.4-8.1,2.9
			c-2.7,0.4-4.6,0.6-5.8,0.5c-1.2-0.1-2.9-0.4-5.1-0.8c-2.2-0.5-4-1.5-5.4-3.1c-1.1-1.3-1.7-4.1-1.7-8.2c0-4.3,1.3-8.1,4-11.5
			c2.9-3.7,6.7-5.5,11.2-5.5C225.7,193.6,230.1,195.6,232.4,199.7z M180.4,314.7c1.8-1.3,3.8-2.6,5.8-3.9
			c10.2-6.4,21.8-11.3,34.7-14.9c2.9-0.8,5.8-1.6,8.8-2.2 M366.5,402.2c-2.2,0.2-4.5,0.2-7,0.2c-10.1,0-20.3-1.2-30.6-3.8
			c-1.2-0.3-2.4-0.6-3.7-1l-49.9,2.7l-2-18.9c-4.4-1-8.9-1.7-13.2-2.2l-6.5,18l-51.9-6c-6,2-12,3.4-17.9,4.1 M172.1,351.5l15.8,0
			l-0.2,27.8 M266.9,365.9l-0.3-14.6l-24.8,0.1l0.2,14.6 M260,379.4c-2.9-0.3-5.9-0.6-8.8-0.7l-5.7,10.2l-29.1-3.7
			c-2.2,1-6.4,2.9-12.8,5.4c-0.7,0.3-1.4,0.5-2.1,0.8 M251.2,378.7c-1.8-0.1-3.6-0.1-5.4-0.1c-10.5,0-20.2,2.2-29.1,6.5
			c-0.1,0-0.2,0.1-0.3,0.1 M212.5,351.5l29.2-0.1l-0.6-43.1 M212.5,351.5l0.9,20.8 M306.5,391.9c-1.3-0.4-2.6-0.9-4-1.4
			c-7.9-2.8-14.6-5-20-6.5l0.5,8.2L306.5,391.9c7.5,2.6,13.8,4.6,18.8,5.9 M282.5,384c-2.3-0.7-4.4-1.2-6.2-1.7c-1-0.2-2-0.4-3-0.6
			 M297.5,308.5l-0.6,42.8l23.1,0l0.5-38.8 M296.9,351.2l-0.3,22.4 M265.6,306.3l0.9,45l30.4,0 M240.9,291.8
			c4.3-0.6,8.7-1.1,13.2-1.3 M306.1,418.5l-6.4-8.3c-2.9,0-5.7,0.1-8.4,0.1l15.6,19.3l17.1-20.2c-3.4,0.1-6.8,0.3-10.1,0.4
			L306.1,418.5z M299.8,410.1c4.7-0.1,9.4-0.2,14.2-0.4 M377.5,420.6l-14.2-8c-2.3,6.8-6.6,12.9-12.8,18.2
			c-6.3,5.4-12.1,9.8-17.4,13.2c-5.3,3.4-11.7,6.8-19.1,10.1c-0.6,0.3-1.2,0.5-1.9,0.8c-0.5-1-1.4-2.3-2.6-3.9
			c-1.9-2.5-3.5-4.4-4.8-5.5c-2.7-2.4-6.2-4.4-10.6-5.8c0,0-0.2,0-0.4-0.1c-2.4,2.3-4.7,4.5-7,6.5c2.7,1.8,5.3,4.7,7.7,8.9
			c0.8,1.3,1.4,2.6,2,3.8c-3.2,0.4-6.6,0.7-10.2,0.8c-2.3,0.1-4.7,0.1-7,0.1l0.5,16.5c7.2,0.1,14-0.6,20.6-2.3l0.9,4.4
			c-6.6,1.5-13.7,2.3-21.3,2.5l0.5,14c9.2-0.2,17.1-1.3,23.7-3.2l0.6,2.9c-6.8,2-14.9,3.2-24.2,3.6l0.8,15.4
			c16.8,0.6,33.6-1.6,50.4-6.7c16.7-5.1,29.8-10.6,39.1-16.5 M269,410.1l4.6,6.1l6-6C276,410.3,272.5,410.2,269,410.1
			c-4-0.1-7.9-0.2-11.7-0.4l17.1,20.2l17-19.7c-4,0-7.9,0-11.8,0 M179.9,400.5c2.4,0.5,4.8,1,7.3,1.5c3.4,0.7,6.9,1.4,10.5,2
			c2.9,0.5,5.9,1,8.9,1.4c3.7,0.5,7.6,1,11.5,1.5c2.6,0.3,5.3,0.6,8,0.9c3.7,0.3,7.5,0.6,11.3,0.9c4.1,0.3,8.3,0.6,12.5,0.8
			c2.5,0.1,4.9,0.2,7.4,0.3l-12.3,18.7l-18.9-20.8l-17,17.9L197.6,404l-15.5,6.1c1.1,19,11.9,32.4,32.5,40.2
			c7.1,2.7,14.4,4.8,21.7,6.3c1.9-3.2,5.3-6.8,10-10.6c3.3-2.7,6.5-5,9.5-6.8c1.2,0.7,2.8,1.6,4.6,2.8c1.8,1.1,3.3,2.1,4.5,2.9
			c-1.6,1.2-3.2,2.9-5,5c-2.5,3.2-4.1,6.2-4.9,9.1c8.2,0.6,16.2,0.8,23.9,0.8 M237.4,408.6l6.4,8l6.1-7.2 M279.7,481
			c-9.6,0.5-17.8,0-24.7-1.6l0.7-4.9c7.1,1.8,15.1,2.4,23.8,1.9 M206.6,405.4l3.3,8.1l8.2-6.6 M174.7,407.2l12.4-5.2 M168.4,415.5
			l13.7-5.4 M177.9,478.2c2.8,3.5,6.6,7.5,11.4,11.9c8.3,7.8,17.7,13.3,28.2,16.6c10.4,3.2,20.6,5.4,30.4,6.5
			c9.1,1,20.1,1.2,33.2,0.5v-0.2 M180.6,505.1c9.3,1,18.4,2.6,27.4,4.9c9.6,2.5,19,5.7,28,9.6c8.8,3.9,16.5,9.5,22.9,16.6
			c1.5,1.7,3,3.5,4.4,5.3 M280.3,498.2c-10.5,0.3-19.7-0.4-27.6-2l0.5-3.7c9.1,2.1,18.1,2.9,27,2.5 M324.1,409.3
			c2.4-0.1,4.9-0.3,7.4-0.4c3.9-0.2,7.9-0.5,11.9-0.7c3.5-0.3,7-0.5,10.6-0.8c1.9-0.1,3.8-0.3,5.7-0.4c3.3-0.3,6.7-0.6,10.1-0.9
			 M363.3,412.6l-9.2-5.2L338.5,426l-14.4-16.8 M331.5,408.9l5.1,6.7l6.9-7.4 M359.8,407l13.4,5.4 M292.6,541.5
			c10.5-12.1,23.6-21.4,39.4-28c13-5.5,25.8-8.5,38.3-9"/>
	</g>
</g>
</svg>
