
<svg xmlns="http://www.w3.org/2000/svg" version="1.1" xmlns:xlink="http://www.w3.org/1999/xlink" preserveAspectRatio="none" x="0px" y="0px" width="550px" height="600px" viewBox="0 0 550 600">
<defs>
<path id="Layer0_0_1_STROKES" stroke="#000000" stroke-width="1" stroke-linejoin="round" stroke-linecap="round" fill="none" d="
M 223.05 74.65
Q 223.05 77.65 223.45 79.8 224.1 82.85 225.65 84.95 226 84.9 226.35 84.9 231.35 84.9 234.8 88.95 234.8306640625 88.9849609375 234.85 89.025 239.5619140625 85.7625 244.55 83.65 257.25 78.25 262.7 77.3 266.6134765625 76.6177734375 270.1 76.75 268.5541015625 75.86796875 267.05 74.9 256.45 68 263.45 57.05 270.45 45.95 282.7 43.1 285.05 42.6 286.95 44.5 295.15 52.8 299.4 63.8 300.7 67.1 301.65 70.55 301.7 70.8 301.75 71 301.85 70.95 301.95 70.9 302.85 71.8 305 74.7 306.4 76.5 308.3 79.1 308.2 79.25 308.1 79.35 308.25 79.35 308.5 79.4 309.85 79.4 312.75 79.45 318.4 79.7 322.85 80.65 336.95 83.65 336.95 93.15 336.95 97.45 334.6 102.6 332.45 107.35 328.85 111.75 325.3 116.05 321.4 118.65 317.35 121.4 314.15 121.4 312.696484375 121.4 311.4 121.1 312.716015625 128.4427734375 313.3 135.45 314.15 145.6 313.9 158.05 313.65 170.5 313.05 176.45 312.7748046875 179.4021484375 310.225 201.775 315.2572265625 202.003515625 319.65 202.25 334.75 203.1 342.4 208.6 344.35 210 346.35 211.75 352 216.5 357.7 223.5 360.25 226.6 362.5 229.85 365.580859375 234.2806640625 368.15 239.025 370.27578125 237.087109375 372.7 234.9 374.55 233.25 379.95 229 384.9 224.95 386.9 222.25 387.45 221.45 389.9 217.7 390.4 216.95 390.95 216.1 394.6 211.35 397.45 211.35 402.4 211.35 406.4 215.85 407.3 216.85 408.2 218.1 411.5 222.85 414.15 231 414.3 231.4 414.45 231.9 414.85 233.15 415.25 234.5 416.95 240.45 418.05 247.25 418.1 247.6 418.15 248 419.25 255.15 419.25 259.5 419.25 263.2 419.05 265.15 409.95 275.65 398.75 280.25 389.51875 284.1078125 381.25 286.5 381.609375 290.5828125 381.8 294.9 382.05 299.95 382.05 305.3 382.05 316.05 381.5 325.3 380.65 338.7 378.65 348.95 378.4 350.15 378.15 351.3 376.206640625 360.219921875 373.1 368.025 373.7443359375 368.184765625 374.35 368.35 374.75 368.75 375.2 369.1 382.95 375.75 387.65 378.05 393.95 381.05 403.9 381.05 412.8 381.05 421.15 373.95 421.35 373.75 426.35 369.1 428.7 366.85 429.75 366.85 431 366.85 431.15 368.15 431.25 368.95 431.15 371.15 431.15 376.4 428.3 381.65 425.55 386.75 420.8 390.95 416 395.15 410.3 397.5 404.35 400 398.6 400 382.35 400 369.85 391.45 366.134765625 388.9197265625 363.475 385.975 362.6908203125 387.0947265625 361.875 388.175 362.604296875 388.800390625 363.35 389.45 374.6 399.2 383.45 420 392.25 440.8 391.1 459.2 390.6 459.9 390.05 460.55 388.35 462.6 386.15 464.2 384.25 465.55 382.3 466.75 380.85 467.65 379.35 468.5 375.15 470.7 370.8 472.15 369.35 472.6 367.9 473 361.7 474.6 355.2 474.55 346.9 474.45 338.15 471.75 332.3 469.95 327.55 467.2 326.25 458.95 326.85 442.85 327.216015625 432.16875 322.525 417.625 307.7326171875 422.15 286.25 422.15 264.8134765625 422.15 250.075 417.075 245.226953125 431.96640625 245.6 442.85 246.15 458.95 244.85 467.2 240.1 469.95 234.25 471.75 225.5 474.45 217.25 474.55 210.75 474.6 204.5 473 203.05 472.6 201.65 472.15 197.25 470.7 193.05 468.5 191.55 467.65 190.1 466.75 188.2 465.55 186.3 464.2 184.05 462.6 182.35 460.55 181.85 459.9 181.35 459.2 180.15 440.8 189 420 197.85 399.2 209.05 389.45 210.6263671875 388.0767578125 212.175 386.8 209.4732421875 383.3837890625 207.15 379.65 198.85 366.6 194.9 350.3 194.55 348.9 194.25 347.4 192.8 340.8 191.95 333.1 190.5 320.6 190.5 305.3 190.5 300.75 190.7 296.35 190.925390625 291.416015625 191.4 286.675 182.8560546875 284.264453125 173.25 280.25 162.05 275.65 152.9 265.15 152.7 263.2 152.7 259.5 152.7 255.15 153.8 248 153.85 247.6 153.9 247.25 155.05 240.45 156.75 234.5 157.1 233.15 157.5 231.9 157.65 231.4 157.8 231 160.45 222.85 163.75 218.1 164.65 216.85 165.55 215.85 169.6 211.35 174.5 211.35 177.4 211.35 181 216.1 181.55 216.95 182.05 217.7 184.5 221.45 185.1 222.25 187.05 224.95 192.05 229 197.4 233.25 199.25 234.9 202.1982421875 237.559765625 204.7 239.85 208.8318359375 231.8103515625 213.9 225.7 216.55 222.5 218.95 219.8 226.2 211.65 230.95 208.3 235.85 204.85 243.6 202.9 245.8 202.35 248.25 201.95 252.7291015625 201.1486328125 259.2 200.8 252.9326171875 188.1337890625 242.1 183.35 230.412109375 178.1267578125 227.65 176.975 227.465234375 177.0787109375 227.3 177.05 226.15 176.9 219.45 176.45 212.8 175.95 208.65 174.15 204.5 172.35 198.75 166 193.05 159.7 195.65 146.95 198.25 134.2 204.15 124.55 208.849609375 116.8234375 216.725 107.05 214.3 103.4908203125 214.3 98.75 214.3 93 217.8 88.95 218.5 88.15 219.25 87.55 217.85 86.75 216.05 85.3 212.25 82.35 211.9 80.7
M 408.2 218.1
Q 407.8 218.5 407.25 219 404.5 221.7 403.8 222.5 403 223.45 401.95 225.75 400.75 228.25 400.75 229.45 400.75 231.65 402.55 232.4 403.75 232.9 406.85 232.9 409.75 232.9 411.55 232.25 412.5 231.9 414.15 231
M 415.25 234.5
Q 411.7 236.2 409.65 238.75 407.35 241.65 407.35 244.95 407.35 248.35 413.7 248.35 414.9 248.35 417.35 247.5 417.7 247.35 418.05 247.25
M 389.9 217.7
Q 389.95 219.15 391.2 219.7 392.2 220.2 394.45 220.2 397.7 220.2 403.05 217.6 404.9 216.7 406.4 215.85
M 310.225 201.775
Q 308.6810546875 215.409765625 306.3 236.275 306.420703125 236.2083984375 306.55 236.15 328.55 226.2 339.1 230.8 348.3 234.8 351.95 247.45 352.523828125 249.957421875 352.3 253.1 354.5322265625 251.1578125 357 249.35 358.5 247.95 364.6 242.3 366.25546875 240.7626953125 368.15 239.025
M 346.35 211.75
Q 345 215.1 345 217.1 345 224.1 350.6 227.5 354.7 230.05 360.45 230.05 360.9 230.05 362.5 229.85
M 306.3 236.275
Q 297.5568359375 240.155078125 287.9 240.5
L 284.15 240.45
Q 275.592578125 240.0380859375 267.8 236.775 267.06640625 236.4763671875 266.35 236.15 244.35 226.2 233.85 230.8 224.65 234.8 220.95 247.45 220.29296875 250.32109375 220.675 254.025 221.0841796875 257.9244140625 222.65 262.75 222.885546875 263.471875 223.05 264.225 227.8783203125 265.2658203125 232.8 266 242.1 267.45 251.5 267.85 259.35 268.25 267.25 268.45 276 268.7 284.75 268.7 293.95 268.7 303.05 267.75 312.95 266.7 322.65 264.55 331.1 262.7 339.65 261.2 343.75 260.5 347.8 259.45 349.689453125 258.9578125 351.5 258.4 352.141015625 255.553125 352.3 253.1
M 351.5 258.4
Q 351.028125 260.4685546875 350.3 262.75 347.25 272.1 356.9 286 359.413671875 287.980859375 361.225 289.9 361.5068359375 289.9 361.8 289.9 369 289.9 379.8 286.9 380.525 286.700390625 381.25 286.5
M 361.225 289.9
Q 363.687109375 292.512109375 364.825 295 365.9060546875 297.3556640625 365.8 299.6 367.8 303.9 367.05 327.4 367.0455078125 327.541796875 367.05 327.675 366.518359375 343.1142578125 362.65 356.45 359.1451171875 368.5388671875 352.9 378.9 352.1287109375 379.6328125 351.3 380.2 356.421484375 383.560546875 361.875 388.175
M 381.8 294.9
Q 378.75 297.7 376.05 302.55 372.35 309.2 372.35 314.15 372.35 319.1 376.7 322.4 378.35 323.7 381.25 325.15 381.35 325.2 381.5 325.3
M 367.05 327.675
Q 281.062890625 348.857421875 205.775 324.325 205.8029296875 325.81796875 205.85 327.4 206.421484375 345.2048828125 211.45 360.225 224.9552734375 364.84453125 238.15 366.825 251.3341796875 368.8158203125 266.65 369.85 280.7 370.4 294.7 370.25 308.4 370.1 321.85 368.3 335 366.2 347.75 362.2 355.3 359.75 362.65 356.45
M 351.3 380.2
Q 348.923046875 381.878515625 346.1 382.25 344.4 382.85 335.85 387.15 330.1689453125 390.0572265625 326.075 396.325 324.0416015625 399.419921875 322.4 403.35 321.0951171875 406.80390625 319.325 408.7 321.14453125 413.3310546875 322.525 417.625
M 378.65 348.95
Q 371.5 351.65 367.9 356.5 364.7716796875 360.7046875 363.75 367.275 363.25 370.4529296875 363.25 374.2 363.25 376.35 364.55 379.95 365.15 381.5 365.7 382.65 369.9892578125 375.90234375 373.1 368.025
M 365.7 382.65
Q 364.633984375 384.35546875 363.475 385.975
M 294.1 75.95
Q 292.3 69.6 288.55 65.3 285.05 61.35 282.35 61.35 280.7 61.35 280.2 62.6 279.95 63.3 279.95 65.25 279.95 69.6 285.9 74.5 289.35 77.35 291.7 78.45 292.75 77.15 294.1 75.95 297.15 73.2 301.75 71
M 266.5 78.45
Q 267.7 82.65 269.6 85.05 271.5 87.45 273.05 88.6 274.9 87.85 277 87.75 275.4 86 274.1 83.55 272.4041015625 80.4892578125 272.1 77.875 271.0875 77.3318359375 270.1 76.75
M 262.3 82.75
Q 263.25 85.6 266.45 88.25 267.9 89.5 269.65 90.5 271.25 89.25 273.05 88.6
M 277 87.75
Q 277.45 87.7 277.9 87.7 284.1 87.7 288.45 92.65 292.85 97.65 292.85 104.7 292.85 111.7 288.45 116.7 284.1 121.65 277.9 121.65 271.7 121.65 267.35 116.7 262.95 111.7 262.95 104.7 262.95 97.65 267.35 92.65 268.4 91.45 269.65 90.5
M 304.5 83.6
Q 303.8 84.4 303.05 85.2 302.45 85.9 301.9 86.5 302.85 89.4 305.95 92.95 310.35 98.05 314.15 98.05 314.8 98.05 315.9 98.05 316.65 97.85 316.65 96.55 316.65 92.95 312.25 88.75 308.9 85.55 304.5 83.6 306.7 81.1 308.1 79.35
M 272.1 77.875
Q 280.0037109375 82.051953125 288.75 84.05
L 288.8 84
Q 289.26875 82.437109375 290.025 81 290.741796875 79.6716796875 291.7 78.45
M 311.4 121.1
Q 305.47578125 119.7580078125 302.85 112.25 301.6 108.8 300.55 102.6 299.4 95.2 298.7 91.25 298.3 91.15 297.85 90.95 296.15 90.3 292.95 87.95 289.9 85.7 288.85 84.1 288.8 84.05 288.8 84
M 301.9 86.5
Q 300.223046875 88.36328125 299.075 89.625 298.3615234375 90.4005859375 297.85 90.95
M 217.1 77.05
L 217.95 79.95 219.2 82.35
Q 220.5 84.2 222.35 85.65 223.9 85.05 225.65 84.95
M 219.25 87.55
Q 220.7 86.3 222.35 85.65
M 228.2 96.1
Q 230.25 98.45 230.25 101.75 230.25 105.1 228.2 107.4 226.2 109.75 223.3 109.75 220.4 109.75 218.4 107.4 217.8685546875 106.8037109375 217.475 106.125 216.35 104.231640625 216.35 101.75 216.35 98.45 218.4 96.1 220.4 93.8 223.3 93.8 225.5689453125 93.8 227.275 95.2 227.7646484375 95.5994140625 228.2 96.1 Z
M 234.85 89.025
Q 238.35 93.0498046875 238.35 98.75 238.35 104.45 234.8 108.45 231.35 112.55 226.35 112.55 221.35 112.55 217.8 108.45 217.2111328125 107.776953125 216.725 107.05
M 274.6 97.1
Q 278.4 97.1 281.05 100.1 283.75 103.15 283.75 107.45 283.75 111.75 281.05 114.8 278.4 117.85 274.6 117.85 270.8 117.85 268.15 114.8 265.45 111.75 265.45 107.45 265.45 103.15 268.15 100.1 270.8 97.1 274.6 97.1 Z
M 268.35 137.9
Q 268.35 140.8 272.15 142.85 272.3 142.95 272.55 143.05 272.6 143.1 272.65 143.1 276.95 145.25 280 144.5
M 256.4 181.7
Q 256.45 181.9 256.7 182 265.6 177.55 268.45 168.25 269.045703125 166.295703125 269.55 164.425 261.46171875 167.3966796875 257.4 176.05 256.475 178.002734375 255.725 179.85 256.0984375 180.7349609375 256.4 181.7 Z
M 269.55 164.425
Q 271.4044921875 157.3951171875 271.8 151.7 272.35 144.45 272.55 143.05
M 227.65 176.975
Q 238.5921875 174.539453125 245.75 170.75 250.65 168.1 254.85 164.15 266.2 153.4 272.15 142.85
M 245.75 170.75
Q 252.78359375 172.6642578125 255.725 179.85
M 163.75 218.1
Q 164.2 218.5 164.7 219 167.5 221.7 168.15 222.5 168.95 223.45 170.05 225.75 171.2 228.25 171.2 229.45 171.2 231.65 169.45 232.4 168.2 232.9 165.1 232.9 162.25 232.9 160.45 232.25 159.45 231.9 157.8 231
M 156.75 234.5
Q 160.25 236.2 162.3 238.75 164.6 241.65 164.6 244.95 164.6 248.35 158.3 248.35 157.1 248.35 154.6 247.5 154.25 247.35 153.9 247.25
M 259.2 200.8
Q 260.860546875 204.146484375 262.2 208.05 264.65 215.1 265.8 221.95 267 228.8 267.75 236.4 267.7701171875 236.5890625 267.8 236.775
M 243.6 202.9
Q 243.25 204.3 242.8 206.2 240.65 213.45 238.05 215.35 232.9 219.15 229.75 219.75 228.3 220 225.8 219.95 222.45 219.9 220.1 219.9 219.5 219.9 218.95 219.8
M 220.675 254.025
Q 218.015234375 251.5849609375 215 249.35 213.45 247.95 207.35 242.3 206.0931640625 241.1330078125 204.7 239.85
M 182.05 217.7
Q 182 219.15 180.8 219.7 179.75 220.2 177.55 220.2 174.25 220.2 168.9 217.6 167.05 216.7 165.55 215.85
M 191.4 286.675
Q 191.8068359375 286.791796875 192.2 286.9 202.95 289.9 210.15 289.9 210.965625 289.9 211.75 289.85 213.5484375 287.9607421875 216.05 286 224.9548828125 273.1732421875 223.05 264.225
M 205.775 324.325
Q 205.2845703125 303.610546875 207.15 299.6 207.0263671875 297.3568359375 208.1 295 209.245703125 292.4896484375 211.75 289.85
M 190.7 296.35
Q 194.85 301.5 196.35 305.4 197.5 308.25 197.85 311.75 198.05 313.95 198.05 318.95 198.05 324.55 197.5 326.9 197 329.05 195.6 330.3 194.7 331.05 192.05 332.95 192 333.05 191.95 333.1
M 212.175 386.8
Q 216.9078125 382.9259765625 221.375 380.025 220.6982421875 379.5158203125 220.05 378.9 214.7701171875 370.1732421875 211.45 360.225
M 250.075 417.075
Q 251.448828125 412.85625 253.25 408.325 251.6927734375 406.466796875 250.55 403.35 248.1181640625 397.5283203125 244.825 393.525 241.3994140625 389.362890625 237.05 387.15 228.5 382.85 226.85 382.25 223.8708984375 381.8580078125 221.375 380.025
M 194.25 347.4
Q 206.7 357.9 207.15 379.65
M 244.825 393.525
Q 250.6486328125 395.4751953125 256.9 396.5 265.15 397.85 273.5 398.3 282.85 398.85 292.25 399.05 300.9 399.25 309.5 399 317.94453125 398.7154296875 326.075 396.325
M 319.325 408.7
Q 318.78125 409.269921875 318.2 409.7 307.1 414.5 293.6 416.25 290.05 416.35 286.6 416.2 283 416.35 279.3 416.25 265.8 414.5 254.7 409.7 253.931640625 409.1314453125 253.25 408.325
M 190.1 466.75
Q 190.25 465.9 190.3 465.1 190.4 464.1 190.4 460.75 190.4 457.2 189.65 454.8 188.7 451.75 186.75 451.75 184.55 451.75 183.15 456.85 182.6 458.8 182.35 460.55
M 201.65 472.15
Q 201.75 470.8 201.95 469.4 202.3 466.95 202.3 465.15 202.3 460.7 202.05 459.85 201.4 457.8 198.4 457.8 196.3 457.8 194.6 462.1 193.4 465.1 193.05 468.5
M 217.25 474.55
Q 217.25 473.65 217.25 472.5 217.25 466.95 215.75 464.45 214.2 461.85 210.8 461.85 207.55 461.85 205.65 467.9 204.75 470.75 204.5 473
M 355.2 474.55
Q 355.15 473.65 355.15 472.5 355.15 466.95 356.65 464.45 358.2 461.85 361.6 461.85 364.9 461.85 366.8 467.9 367.65 470.75 367.9 473
M 382.3 466.75
Q 382.2 465.9 382.1 465.1 382 464.1 382 460.75 382 457.2 382.75 454.8 383.75 451.75 385.7 451.75 387.85 451.75 389.3 456.85 389.85 458.8 390.05 460.55
M 370.8 472.15
Q 370.7 470.8 370.5 469.4 370.1 466.95 370.1 465.15 370.1 460.7 370.4 459.85 371.05 457.8 374.05 457.8 376.15 457.8 377.85 462.1 379 465.1 379.35 468.5
M 208.1 295
Q 281.9904296875 308.4169921875 364.825 295"/>
</defs>

<g transform="matrix( 1, 0, 0, 1, 0,0) ">
<use xlink:href="#Layer0_0_1_STROKES"/>
</g>
</svg>
