<?xml version="1.0" encoding="UTF-8" standalone="no"?>
<!-- Created with Inkscape (http://www.inkscape.org/) -->

<svg
   xmlns:dc="http://purl.org/dc/elements/1.1/"
   xmlns:cc="http://creativecommons.org/ns#"
   xmlns:rdf="http://www.w3.org/1999/02/22-rdf-syntax-ns#"
   xmlns:svg="http://www.w3.org/2000/svg"
   xmlns="http://www.w3.org/2000/svg"
   xmlns:sodipodi="http://sodipodi.sourceforge.net/DTD/sodipodi-0.dtd"
   xmlns:inkscape="http://www.inkscape.org/namespaces/inkscape"
   width="759.4978"
   height="900.56818"
   id="svg6248"
   version="1.1"
   inkscape:version="0.47 r22583"
   sodipodi:docname="chicken_line_art_davidone_Chicken.svg">
  <defs
     id="defs6250">
    <inkscape:perspective
       sodipodi:type="inkscape:persp3d"
       inkscape:vp_x="0 : 495 : 1"
       inkscape:vp_y="0 : 1000 : 0"
       inkscape:vp_z="765 : 495 : 1"
       inkscape:persp3d-origin="382.5 : 330 : 1"
       id="perspective6257" />
    <inkscape:perspective
       id="perspective6267"
       inkscape:persp3d-origin="0.5 : 0.33333333 : 1"
       inkscape:vp_z="1 : 0.5 : 1"
       inkscape:vp_y="0 : 1000 : 0"
       inkscape:vp_x="0 : 0.5 : 1"
       sodipodi:type="inkscape:persp3d" />
  </defs>
  <sodipodi:namedview
     inkscape:document-units="in"
     pagecolor="#ffffff"
     bordercolor="#666666"
     borderopacity="1.0"
     inkscape:pageopacity="0.0"
     inkscape:pageshadow="2"
     inkscape:zoom="0.36"
     inkscape:cx="-601.19713"
     inkscape:cy="299.36926"
     inkscape:current-layer="layer1"
     id="namedview6252"
     showgrid="false"
     inkscape:window-width="1600"
     inkscape:window-height="838"
     inkscape:window-x="-8"
     inkscape:window-y="-8"
     inkscape:window-maximized="1" />
  <metadata
     id="metadata6254">
    <rdf:RDF>
      <cc:Work
         rdf:about="">
        <dc:format>image/svg+xml</dc:format>
        <dc:type
           rdf:resource="http://purl.org/dc/dcmitype/StillImage" />
        <dc:title />
      </cc:Work>
    </rdf:RDF>
  </metadata>
  <g
     inkscape:label="Layer 1"
     inkscape:groupmode="layer"
     id="layer1"
     transform="translate(-4.6591131,-88.327013)">
    <path
       id="path2503"
       d="m 512.37605,941.63312 c 0,0 -29.31991,7.00692 -32.28267,11.77521 -2.96275,4.76828 -6.40483,12.05045 -6.40483,12.05045 0,0 14.62256,-3.06616 15.87121,-7.36436 1.24865,-4.29819 36.00824,1.31795 36.00824,1.31795"
       style="fill:#ffffff;stroke:#000000;stroke-width:6.18009995999999970;stroke-linecap:butt;stroke-linejoin:miter;stroke-miterlimit:4;stroke-opacity:1;stroke-dasharray:none;stroke-dashoffset:0;marker:none;visibility:visible;display:inline;overflow:visible;enable-background:accumulate;fill-opacity:1" />
    <path
       sodipodi:nodetypes="czczc"
       id="path2477"
       d="m 366.13561,882.53699 c 0,0 42.04266,-6.00621 53.50445,-4.44987 11.46179,1.55634 25.07877,8.81218 25.07877,8.81218 0,0 -21.07941,-2.55089 -26.89748,-0.94715 -5.81808,1.60373 -16.1396,10.0772 -16.1396,10.0772"
       style="fill:none;stroke:#000000;stroke-width:6.18009996;stroke-linecap:butt;stroke-linejoin:miter;stroke-miterlimit:4;stroke-opacity:1;stroke-dasharray:none;stroke-dashoffset:0;marker:none;visibility:visible;display:inline;overflow:visible;enable-background:accumulate" />
    <path
       sodipodi:nodetypes="czc"
       id="path2483"
       d="m 401.47347,915.08019 c -10.21049,-2.86683 53.8629,-13.01933 67.56339,-16.2764 13.70048,-3.25706 -95.28649,-11.04624 -95.28649,-11.04624"
       style="fill:#ffffff;stroke:#000000;stroke-width:6.18009995999999970;stroke-linecap:butt;stroke-linejoin:miter;stroke-miterlimit:4;stroke-opacity:1;stroke-dasharray:none;stroke-dashoffset:0;marker:none;visibility:visible;display:inline;overflow:visible;enable-background:accumulate;fill-opacity:1" />
    <path
       sodipodi:nodetypes="czscscc"
       id="path2489"
       d="m 311.68544,751.56585 c 3.719,18.40488 39.88293,153.80418 52.92612,157.38283 13.04318,3.57866 53.23228,18.77346 56.71475,20.29223 4.27324,1.86363 22.53077,16.37496 22.53077,16.37496 0,0 -11.34595,-23.35853 -16.64506,-24.5839 -5.2991,-1.22537 -41.16289,-25.46843 -43.14061,-30.71074 C 360.3664,845.3299 344.68269,776.10732 341.62062,749.71564"
       style="fill:#ffffff;stroke:#000000;stroke-width:6.18009995999999970;stroke-linecap:butt;stroke-linejoin:miter;stroke-miterlimit:4;stroke-opacity:1;stroke-dasharray:none;stroke-dashoffset:0;marker:none;visibility:visible;display:inline;overflow:visible;enable-background:accumulate;fill-opacity:1" />
    <path
       style="fill:#ffffff;stroke:#000000;stroke-width:6.18009995999999970;stroke-linecap:butt;stroke-linejoin:miter;stroke-miterlimit:4;stroke-opacity:1;stroke-dasharray:none;stroke-dashoffset:0;marker:none;visibility:visible;display:inline;overflow:visible;enable-background:accumulate;fill-opacity:1"
       d="m 196.00961,642.80746 c 0,0 11.7623,76.80092 43.58971,84.41182 31.82741,7.6109 67.11432,44.97351 74.03331,46.3573 6.91902,1.38381 32.51932,12.45422 36.67072,12.45422 4.1514,0 87.87132,-48.43301 87.87132,-48.43301"
       id="path2452" />
    <path
       style="fill:#ffffff;stroke:#000000;stroke-width:6.18009995999999970;stroke-linecap:butt;stroke-linejoin:miter;stroke-miterlimit:4;stroke-opacity:1;stroke-dasharray:none;stroke-dashoffset:0;marker:none;visibility:visible;display:inline;overflow:visible;enable-background:accumulate;fill-opacity:1"
       d="m 523.21414,328.4128 c -72.50949,60.81439 -79.52652,43.6616 -84.98422,45.22094 -5.45771,1.55935 -56.91605,40.54294 -79.52652,40.54294 -22.61049,0 -73.28914,-9.35605 -101.35732,-2.33902 -28.06818,7.01705 -166.070103,56.13638 -166.070103,56.13638 0,0 9.356073,148.13763 56.136383,178.54482 46.78031,30.4072 130.20516,46.7803 130.20516,46.7803 0,0 318.10608,20.27147 360.20836,-71.7298 42.10228,-92.00125 34.30555,-165.2904 34.30555,-165.2904 L 594.16426,326.85344"
       id="path2924" />
    <path
       style="fill:#ffffff;stroke:#000000;stroke-width:6.18009995999999970;stroke-linecap:butt;stroke-linejoin:miter;stroke-miterlimit:4;stroke-opacity:1;stroke-dasharray:none;stroke-dashoffset:0;marker:none;visibility:visible;display:inline;overflow:visible;enable-background:accumulate;fill-opacity:1"
       d="m 521.25315,941.85829 c 0,0 39.60859,-15.32382 51.12634,-16.38979 11.51775,-1.06596 26.41935,2.93549 26.41935,2.93549 0,0 -21.11217,2.26379 -26.41935,5.13708 -5.30718,2.87329 -13.4543,13.45431 -13.4543,13.45431"
       id="path2444"
       sodipodi:nodetypes="czczc" />
    <path
       style="fill:#ffffff;stroke:#000000;stroke-width:6.18009995999999970;stroke-linecap:butt;stroke-linejoin:miter;stroke-miterlimit:4;stroke-opacity:1;stroke-dasharray:none;stroke-dashoffset:0;marker:none;visibility:visible;display:inline;overflow:visible;enable-background:accumulate;fill-opacity:1"
       d="m 563.01433,965.60335 c -10.59386,-0.49274 49.54492,-24.8197 62.15936,-31.07968 12.61445,-6.25999 -95.32538,10.70539 -95.32538,10.70539"
       id="path2436"
       sodipodi:nodetypes="czc" />
    <path
       style="fill:#ffffff;stroke:#000000;stroke-width:6.18009995999999970;stroke-linecap:butt;stroke-linejoin:miter;stroke-miterlimit:4;stroke-opacity:1;stroke-dasharray:none;stroke-dashoffset:0;marker:none;visibility:visible;display:inline;overflow:visible;enable-background:accumulate;fill-opacity:1"
       d="m 438.69563,826.52176 c 7.76993,17.09383 73.50899,140.86448 87.0231,141.41256 13.5141,0.54807 56.09328,6.29779 59.82839,6.99292 4.58325,0.85298 25.64072,10.87789 25.64072,10.87789 0,0 -16.31682,-20.2018 -21.75576,-20.2018 -5.43895,0 -45.84254,-15.53982 -48.95049,-20.20178 -33.23193,-38.49399 -64.10797,-102.40341 -73.03725,-127.4267"
       id="path2940"
       sodipodi:nodetypes="czscscc" />
    <path
       sodipodi:nodetypes="ccssssc"
       style="fill:#ffffff;stroke:#000000;stroke-width:6.18009995999999970;stroke-linecap:butt;stroke-linejoin:miter;stroke-miterlimit:4;stroke-opacity:1;stroke-dasharray:none;stroke-dashoffset:0;marker:none;visibility:visible;display:inline;overflow:visible;enable-background:accumulate;fill-opacity:1"
       d="m 582.50561,650.99858 c -15.56796,67.14967 -14.77203,91.31662 -58.67447,137.38412 -2.86217,8.58651 -31.48388,48.65689 -41.50147,50.08798 -10.01759,1.43108 -41.50145,0 -48.65688,-5.72434 -7.15542,-5.72434 -24.32843,-48.65689 -34.34603,-52.95015 -10.01759,-4.29325 -94.4516,-51.51904 -97.31376,-58.67446 -2.86217,-7.15543 -37.2082,-47.22579 -37.2082,-47.22579"
       id="path2932" />
    <path
       sodipodi:nodetypes="cssscscscscscc"
       style="fill:none;stroke:#000000;stroke-width:6.18009996;stroke-linecap:butt;stroke-linejoin:miter;stroke-miterlimit:4;stroke-opacity:1;stroke-dasharray:none;stroke-dashoffset:0;marker:none;visibility:visible;display:inline;overflow:visible;enable-background:accumulate"
       d="m 635.43997,472.46271 c -2.02295,105.19426 -69.62304,103.81299 -85.97606,158.80286 -7.97058,26.80243 -182.4761,51.06907 -204.31961,43.49377 -12.08807,-4.19213 -71.81529,-2.02295 -71.81529,-14.16075 0,-12.1378 138.57319,-48.5512 138.57319,-48.5512 0,0 -127.44687,43.49377 -131.49281,28.32153 -4.04593,-15.17225 118.34353,-55.63157 118.34353,-55.63157 0,0 -91.03349,37.42487 -93.05644,17.1952 -2.02297,-20.22965 75.86122,-37.42488 75.86122,-37.42488 0,0 -71.81529,17.19523 -68.78085,4.04595 3.03445,-13.14929 49.56268,-19.21819 49.56268,-19.21819 0,0 -26.29855,-2.02296 -25.28708,-9.10335 1.01148,-7.08038 68.7633,-23.72738 68.7633,-23.72738 l 79.92471,69.24412"
       id="path3665" />
    <path
       style="fill:#ffffff;fill-opacity:1;fill-rule:evenodd;stroke:#000000;stroke-width:1.51496780000000000;stroke-linecap:butt;stroke-linejoin:miter;stroke-miterlimit:4;stroke-opacity:1;stroke-dasharray:none;stroke-dashoffset:0;marker:none;visibility:visible;display:inline;overflow:visible;enable-background:accumulate"
       d="m 414.41579,570.8396 c -85.01459,23.09977 -96.46055,27.92161 -91.5497,36.0127 10.3312,17.02162 122.46604,-12.49577 122.4435,-12.5482"
       id="path3295"
       sodipodi:nodetypes="csc" />
    <path
       sodipodi:nodetypes="csc"
       id="path3297"
       d="m 415.94287,521.20975 c -85.01459,23.09977 -96.46054,27.92161 -91.54969,36.0127 10.33119,17.02162 122.46603,-12.49577 122.44349,-12.5482"
       style="fill:#ffffff;fill-opacity:1;fill-rule:evenodd;stroke:#000000;stroke-width:1.51496780000000000;stroke-linecap:butt;stroke-linejoin:miter;stroke-miterlimit:4;stroke-opacity:1;stroke-dasharray:none;stroke-dashoffset:0;marker:none;visibility:visible;display:inline;overflow:visible;enable-background:accumulate" />
    <path
       style="fill:none;stroke:#000000;stroke-width:2.06003332;stroke-linecap:butt;stroke-linejoin:miter;stroke-miterlimit:4;stroke-opacity:1;stroke-dasharray:none;stroke-dashoffset:0;marker:none;visibility:visible;display:inline;overflow:visible;enable-background:accumulate"
       d="m 457.38005,620.49291 c -111.35827,27.68405 -126.46963,33.85714 -120.68998,45.72532 12.15889,24.96759 158.97539,-10.18853 158.94995,-10.26485"
       id="path3279"
       sodipodi:nodetypes="csc" />
    <path
       style="fill:#ffffff;stroke:#000000;stroke-width:6.24889278000000030;stroke-linecap:butt;stroke-linejoin:miter;stroke-miterlimit:4;stroke-opacity:1;stroke-dasharray:none;stroke-dashoffset:0;marker:none;visibility:visible;display:inline;overflow:visible;enable-background:accumulate;fill-opacity:1"
       d="m 663.73091,487.62194 c 0,69.88174 -71.22666,147.11946 -105.61196,147.11946 -34.38529,0 -158.8273,-33.10188 -167.01429,-91.94966 C 382.91769,483.94396 517.18408,469.232 517.18408,469.232"
       id="path3673" />
    <path
       style="fill:none;stroke:#000000;stroke-width:2.06003332;stroke-linecap:butt;stroke-linejoin:miter;stroke-miterlimit:4;stroke-opacity:1;stroke-dasharray:none;stroke-dashoffset:0;marker:none;visibility:visible;display:inline;overflow:visible;enable-background:accumulate"
       d="m 502.2046,470.79175 -57.78906,38.13132 78.86786,-7.34206 -29.36821,27.23665 104.44664,-13.73674 -54.71016,47.84176 66.55217,-12.78938 -11.60517,41.21024 33.3945,-15.15778"
       id="path2505" />
    <path
       style="fill:none;stroke:#000000;stroke-width:2.06003332;stroke-linecap:butt;stroke-linejoin:miter;stroke-miterlimit:4;stroke-opacity:1;stroke-dasharray:none;stroke-dashoffset:0;marker:none;visibility:visible;display:inline;overflow:visible;enable-background:accumulate"
       d="m 432.09983,494.71263 -28.18401,35.76292 54.23645,-0.47368 -27.47349,29.84189 78.86786,0.71052 -31.97345,36.47343 82.18363,-6.39469 -20.84195,32.68399 49.49965,-2.60524"
       id="path3277" />
    <path
       style="fill:none;stroke:#000000;stroke-width:8.60246372;stroke-linecap:butt;stroke-linejoin:miter;stroke-miterlimit:4;stroke-opacity:1;stroke-dasharray:none;stroke-dashoffset:0;marker:none;visibility:visible;display:inline;overflow:visible;enable-background:accumulate"
       d="m 711.57295,299.44768 c 26.81187,-9.0309 16.80018,-50.21327 16.80018,-50.21327 l -15.66536,-16.5567 -48.2011,27.46905 5.42263,22.57729 c 0,0 15.43429,20.86282 41.64365,16.72363 z"
       id="path3607"
       sodipodi:nodetypes="cccccc" />
    <path
       style="fill:#ffffff;stroke:#000000;stroke-width:6.18009995999999970;stroke-linecap:butt;stroke-linejoin:miter;stroke-miterlimit:4;stroke-opacity:1;stroke-dasharray:none;stroke-dashoffset:0;marker:none;visibility:visible;display:inline;overflow:visible;enable-background:accumulate;fill-opacity:1"
       d="m 626.12199,171.93376 c -62.25695,36.25953 -70.00008,55.15445 -79.57806,74.31043 -9.578,19.15598 -28.04984,81.41293 -39.68025,93.04334 -11.63042,11.63041 -21.20842,16.41941 -21.20842,16.41941 l 33.52299,-11.63041 -4.10487,46.52167 c 11.91645,-14.61934 18.41612,-30.01248 21.89255,-45.83753 l 8.89385,59.52037 c 4.18559,-18.82027 11.66339,-33.25095 26.68155,-37.62782 l 1.36829,42.41682 c 17.80953,-0.42335 29.84517,-9.50754 35.5754,-28.04984 l -1.3683,55.41553 c 6.18218,-12.49282 14.16156,-21.39124 28.73399,-17.10355 5.51897,29.57052 1.79698,43.73945 -3.42071,55.41552 l 21.20839,-9.578 -2.05241,34.20712 c 0,0 23.94496,-32.83883 22.57669,-42.41683 -1.3683,-9.57798 -10.94628,-17.78769 -8.20971,-28.73396 5.71433,-22.85727 18.47185,-71.83495 14.36698,-84.83364 -4.10484,-12.9987 -29.41812,-105.35791 -29.41812,-105.35791 l -25.77983,-66.10072 z"
       id="path3619"
       sodipodi:nodetypes="csscccccccccccccssscc" />
    <path
       style="fill:#ffffff;stroke:#000000;stroke-width:6.18009995999999970;stroke-linecap:butt;stroke-linejoin:miter;stroke-miterlimit:4;stroke-opacity:1;stroke-dasharray:none;stroke-dashoffset:0;marker:none;visibility:visible;display:inline;overflow:visible;enable-background:accumulate;fill-opacity:1"
       d="m 705.4501,182.52287 c -11.29028,-22.10148 -62.26593,-18.80635 -80.12217,-10.59982 -18.23247,8.37943 -30.55242,42.08753 -30.55242,42.08753 l 26.18779,-17.45853 -23.07019,38.3464 23.38195,-16.52324 -21.5114,53.93437 23.07021,-27.74658 -7.48223,33.35826 9.66454,-15.27622 -1.24704,35.54058 16.83501,-27.12308 4.98814,49.88151 5.61168,-20.57611 9.66454,34.29352 4.05287,-32.42297 14.34094,33.35826 c 0,0 -8.10576,-36.47585 -7.48223,-44.26984 0.62351,-7.794 0.5613,-22.60345 11.71786,-33.74537 4.40304,-4.39724 24.60688,-11.87852 39.70496,-14.04524 19.40809,-2.78525 19.58297,-19.53334 19.58297,-19.53334 L 705.4501,182.52287 z"
       id="path3589"
       sodipodi:nodetypes="czcccccccccccccccssscc" />
    <path
       style="fill:none;stroke:#000000;stroke-width:4.12006664;stroke-linecap:butt;stroke-linejoin:miter;stroke-miterlimit:4;stroke-opacity:1;stroke-dasharray:none;stroke-dashoffset:0;marker:none;visibility:visible;display:inline;overflow:visible;enable-background:accumulate"
       d="m 668.63234,194.40073 c -6.45921,0 -25.43315,6.45922 -25.43315,19.78133 0,13.32211 17.35914,35.12194 20.58874,35.12194 3.22959,0 8.07401,-2.82589 12.51472,-2.82589 4.44069,0 8.07401,8.8814 8.07401,8.8814 l 20.18501,-10.0925 -4.037,-22.20353 12.11101,-11.30363 c 0,0 -21.79982,-17.76282 -44.00334,-17.35912 z"
       id="path3651"
       sodipodi:nodetypes="csssccccc" />
    <path
       sodipodi:nodetypes="cssscc"
       style="fill:#ffffff;stroke:#000000;stroke-width:6.18009995999999970;stroke-linecap:butt;stroke-linejoin:miter;stroke-miterlimit:4;stroke-opacity:1;stroke-dasharray:none;stroke-dashoffset:0;marker:none;visibility:visible;display:inline;overflow:visible;enable-background:accumulate;fill-opacity:1"
       d="m 708.91877,226.05353 c 10.03328,-7.02007 9.66223,-21.16871 15.76704,-17.78426 31.24924,17.32428 44.0062,45.8844 31.81289,45.24828 -11.90632,-0.62114 -12.34504,-5.73161 -14.99041,-5.73161 -2.64537,0 -28.87858,-1.32269 -28.87858,-1.32269 l -3.71094,-20.40972 z"
       id="path2806" />
    <path
       style="fill:#ffffff;stroke:#000000;stroke-width:6.18009995999999970;stroke-linecap:butt;stroke-linejoin:miter;stroke-miterlimit:4;stroke-opacity:1;stroke-dasharray:none;stroke-dashoffset:0;marker:none;visibility:visible;display:inline;overflow:visible;enable-background:accumulate;fill-opacity:1"
       d="m 655.26645,162.78377 c -6.4099,-11.66603 -19.29038,-50.03255 -15.31936,-51.20561 12.03185,9.23496 14.09545,15.91462 24.31804,20.62453 0,0 3.09779,-28.71956 5.72106,-32.02995 5.82031,3.97179 16.50865,36.6783 16.50865,36.6783 0,0 18.15401,-39.395092 23.32815,-45.433976 5.88459,5.683652 -0.4371,60.456336 -0.4371,60.456336 0,0 16.94112,-32.00182 23.93695,-34.66602 3.62117,7.63739 2.22249,37.06258 2.22249,37.06258 11.12204,-16.13816 7.62227,-3.34243 11.93383,-6.14922 7.94341,19.24483 6.58822,54.08067 -14.71381,62.47133 -18.08322,3.75944 -73.87069,-30.87666 -77.4989,-47.8083 z"
       id="path3603"
       sodipodi:nodetypes="cccccccccccc" />
    <path
       sodipodi:type="arc"
       style="fill:#000000;fill-opacity:1;fill-rule:evenodd;stroke:none;stroke-width:0;marker:none;visibility:visible;display:inline;overflow:visible;enable-background:accumulate"
       id="path3601"
       sodipodi:cx="487.39371"
       sodipodi:cy="330.6062"
       sodipodi:rx="5.8707986"
       sodipodi:ry="5.7533827"
       d="m 493.26451,330.6062 c 0,3.17751 -2.62845,5.75338 -5.8708,5.75338 -3.24236,0 -5.8708,-2.57587 -5.8708,-5.75338 0,-3.1775 2.62844,-5.75338 5.8708,-5.75338 3.24235,0 5.8708,2.57588 5.8708,5.75338 z"
       transform="matrix(2.3896386,0,0,2.3122823,-492.14152,-549.15583)" />
    <path
       transform="matrix(2.1270408,0,0,2.0581852,-364.30591,-465.25944)"
       d="m 493.26451,330.6062 c 0,3.17751 -2.62845,5.75338 -5.8708,5.75338 -3.24236,0 -5.8708,-2.57587 -5.8708,-5.75338 0,-3.1775 2.62844,-5.75338 5.8708,-5.75338 3.24235,0 5.8708,2.57588 5.8708,5.75338 z"
       sodipodi:ry="5.7533827"
       sodipodi:rx="5.8707986"
       sodipodi:cy="330.6062"
       sodipodi:cx="487.39371"
       id="path3643"
       style="fill:#ffba24;fill-opacity:1;fill-rule:evenodd;stroke:none;stroke-width:0;marker:none;visibility:visible;display:inline;overflow:visible;enable-background:accumulate"
       sodipodi:type="arc" />
    <path
       sodipodi:type="arc"
       style="fill:#000000;fill-opacity:1;fill-rule:evenodd;stroke:none;stroke-width:0;marker:none;visibility:visible;display:inline;overflow:visible;enable-background:accumulate"
       id="path3645"
       sodipodi:cx="487.39371"
       sodipodi:cy="330.6062"
       sodipodi:rx="5.8707986"
       sodipodi:ry="5.7533827"
       d="m 493.26451,330.6062 c 0,3.17751 -2.62845,5.75338 -5.8708,5.75338 -3.24236,0 -5.8708,-2.57587 -5.8708,-5.75338 0,-3.1775 2.62844,-5.75338 5.8708,-5.75338 3.24235,0 5.8708,2.57588 5.8708,5.75338 z"
       transform="matrix(1.5823204,0,0,1.4814822,-98.721265,-274.80927)" />
    <path
       style="fill:#ffffff;fill-opacity:1;fill-rule:evenodd;stroke:none;stroke-width:3;marker:none;visibility:visible;display:inline;overflow:visible;enable-background:accumulate"
       d="m 667.5609,205.58123 c 1.98146,9.55506 8.66714,9.49636 16.88512,7.34614 -9.31742,-0.55983 -11.94001,-1.15038 -16.88512,-7.34614 z"
       id="path3647"
       sodipodi:nodetypes="ccc" />
    <path
       style="fill:none;stroke:#000000;stroke-width:2.06003332;stroke-linecap:butt;stroke-linejoin:miter;stroke-miterlimit:4;stroke-opacity:1;stroke-dasharray:none;stroke-dashoffset:0;marker:none;visibility:visible;display:inline;overflow:visible;enable-background:accumulate"
       d="m 757.85877,252.77981 c 0,0 -13.13113,-12.56021 -23.62176,-15.98574 -10.49062,-3.4255 -24.26404,-10.27653 -24.26404,-10.27653"
       id="path3649" />
    <path
       id="path3283"
       d="M 111.174,509.44568 C 32.787717,485.80538 5.4147364,500.73611 7.9031948,506.95724 10.391653,513.17836 111.174,530.59755 111.174,530.59755 c 0,0 -88.340075,-14.93073 -88.340075,7.46535 0,22.39609 120.689975,9.95382 120.689975,9.95382 0,0 -90.828557,18.66338 -77.142045,41.05947 13.68649,22.39608 128.155335,-29.86144 128.155335,-29.86144"
       style="fill:#cecea2;fill-opacity:1;fill-rule:evenodd;stroke:none;stroke-width:0;marker:none;visibility:visible;display:inline;overflow:visible;enable-background:accumulate" />
    <path
       style="fill:#ffffff;stroke:#000000;stroke-width:6.18009995999999970;stroke-linecap:butt;stroke-linejoin:miter;stroke-miterlimit:4;stroke-opacity:1;stroke-dasharray:none;stroke-dashoffset:0;marker:none;visibility:visible;display:inline;overflow:visible;enable-background:accumulate;fill-opacity:1"
       d="M 111.174,509.44568 C 32.787717,485.80538 5.4147364,500.73611 7.9031948,506.95724 10.391653,513.17836 111.174,530.59755 111.174,530.59755 c 0,0 -88.340075,-14.93073 -88.340075,7.46535 0,22.39609 120.689975,9.95382 120.689975,9.95382 0,0 -90.828557,18.66338 -77.142045,41.05947 13.68649,22.39608 128.155335,-29.86144 128.155335,-29.86144"
       id="path3281" />
    <path
       sodipodi:nodetypes="csc"
       id="path3293"
       d="M 146.26607,519.95523 C 36.379097,552.9995 21.584432,559.89715 27.932033,571.47149 41.285767,595.82098 186.22748,553.59625 186.19838,553.52125"
       style="fill:#ffffff;fill-opacity:1;fill-rule:evenodd;stroke:#000000;stroke-width:2.06003332000000010;stroke-linecap:butt;stroke-linejoin:miter;stroke-miterlimit:4;stroke-opacity:1;stroke-dasharray:none;stroke-dashoffset:0;marker:none;visibility:visible;display:inline;overflow:visible;enable-background:accumulate" />
    <path
       style="fill:#ffffff;stroke:#000000;stroke-width:6.18009995999999970;stroke-linecap:butt;stroke-linejoin:miter;stroke-miterlimit:4;stroke-opacity:1;stroke-dasharray:none;stroke-dashoffset:0;marker:none;visibility:visible;display:inline;overflow:visible;enable-background:accumulate;fill-opacity:1"
       d="M 248.70593,431.82985 C 161.26763,427.90534 126.21377,190.39261 79.554696,208.59059 c -26.003656,7.88828 99.779564,211.39234 99.779564,211.39234 0,0 -90.701821,-177.79289 -115.47265,-170.71537 -35.134878,10.03874 76.14829,193.76759 76.14829,193.76759 0,0 -91.871,-176.19063 -109.618558,-165.43353 -17.747557,10.75711 67.582174,176.28163 67.582174,176.28163 0.0062,-0.004 -67.949333,-126.13434 -84.367655,-107.81524 -16.4183208,18.31911 74.875578,143.07155 74.875578,143.07155 0,0 -71.210717,-90.17299 -79.071886,-73.22124 -8.1395006,17.55191 58.731694,100.3415 58.731694,100.3415 0,0 61.020553,63.73259 138.313273,50.17246 77.29272,-13.56013 77.29272,-13.56013 77.29272,-13.56013"
       id="path2916"
       sodipodi:nodetypes="cccsczczczcsc" />
    <path
       style="fill:#ffffff;stroke:#000000;stroke-width:6.18009995999999970;stroke-linecap:butt;stroke-linejoin:miter;stroke-miterlimit:4;stroke-opacity:1;stroke-dasharray:none;stroke-dashoffset:0;marker:none;visibility:visible;display:inline;overflow:visible;enable-background:accumulate;fill-opacity:1"
       d="m 361.52384,892.56638 c 0,0 -28.13002,10.83771 -30.43346,15.95715 -2.30343,5.11944 -4.74818,12.79414 -4.74818,12.79414 0,0 14.086,-4.98046 14.75293,-9.40639 0.66692,-4.42592 35.86443,-3.47455 35.86443,-3.47455"
       id="path2491" />
    <path
       sodipodi:nodetypes="csc"
       id="path3289"
       d="M 120.23438,433.20669 C 47.381199,344.55295 35.313153,333.56105 27.08058,343.88009 9.7613655,365.5887 104.59951,483.04831 104.6575,482.99253"
       style="fill:#ffffff;fill-opacity:1;fill-rule:evenodd;stroke:#000000;stroke-width:2.06003332000000010;stroke-linecap:butt;stroke-linejoin:miter;stroke-miterlimit:4;stroke-opacity:1;stroke-dasharray:none;stroke-dashoffset:0;marker:none;visibility:visible;display:inline;overflow:visible;enable-background:accumulate" />
    <path
       style="fill:#ffffff;fill-opacity:1;fill-rule:evenodd;stroke:#000000;stroke-width:2.06003332000000010;stroke-linecap:butt;stroke-linejoin:miter;stroke-miterlimit:4;stroke-opacity:1;stroke-dasharray:none;stroke-dashoffset:0;marker:none;visibility:visible;display:inline;overflow:visible;enable-background:accumulate"
       d="M 153.25908,427.70844 C 94.113858,329.3778 83.777868,316.74345 74.128424,325.75154 53.828444,344.70227 130.5226,474.73703 130.58811,474.6903"
       id="path3291"
       sodipodi:nodetypes="csc" />
    <path
       style="fill:#ffffff;stroke:#000000;stroke-width:6.18009995999999970;stroke-linecap:butt;stroke-linejoin:miter;stroke-miterlimit:4;stroke-opacity:1;stroke-dasharray:none;stroke-dashoffset:0;marker:none;visibility:visible;display:inline;overflow:visible;enable-background:accumulate;fill-opacity:1"
       d="m 309.66909,503.27794 c 0,0 -124.86787,23.78436 -129.82293,13.8742 -4.95508,-9.91014 50.54174,-13.8742 50.54174,-13.8742 0,0 -69.82227,11.58542 -72.34408,1.98204 -2.53392,-9.64952 67.389,-17.83828 67.389,-17.83828 0,0 -73.38405,-0.21542 -73.33508,-13.8742 0.049,-13.65876 52.52378,-8.91914 52.52378,-8.91914 0,0 -61.62935,-5.04683 -62.43394,-22.79334 -0.7962,-17.56197 61.44292,7.92812 61.44292,7.92812 0,0 -65.38453,-29.94864 -56.63347,-42.12741 9.40752,-13.09236 68.52565,32.21727 68.52565,32.21727 0,0 -62.61242,-42.89068 -50.54174,-54.5058 11.96986,-11.51812 26.75738,11.89218 36.66754,21.80232 9.91014,9.91014 43.19653,7.35473 55.07413,7.70034 11.29335,0.32862 67.4803,26.61534 67.4803,26.61534"
       id="path2920"
       sodipodi:nodetypes="cszcsczczczcszc" />
    <path
       style="fill:#000000;fill-opacity:0.09134617;fill-rule:evenodd;stroke:none;stroke-width:0;marker:none;visibility:visible;display:inline;overflow:visible;enable-background:accumulate"
       d="m 1391.5648,813.79463 11.8759,0.22407 -23.3036,-56.46626 -8.9629,-32.26644 -3.3611,-18.37393 -11.8758,-3.80923 c 2.877,40.17551 17.8562,75.13203 35.6275,110.69179 z"
       id="path3409"
       sodipodi:nodetypes="ccccccc" />
  </g>
</svg>
