<?xml version="1.0" encoding="utf-8"?>
<!-- Generator: Adobe Illustrator 18.0.0, SVG Export Plug-In . SVG Version: 6.00 Build 0)  -->
<!DOCTYPE svg PUBLIC "-//W3C//DTD SVG 1.1//EN" "http://www.w3.org/Graphics/SVG/1.1/DTD/svg11.dtd">
<svg version="1.1" id="Layer_1" xmlns="http://www.w3.org/2000/svg" xmlns:xlink="http://www.w3.org/1999/xlink" x="0px" y="0px"
	 viewBox="0 0 1171.3 1171.3" enable-background="new 0 0 1171.3 1171.3" xml:space="preserve">
<path fill="none" stroke="#000000" stroke-miterlimit="10" d="M585.6,0.5C262.5,0.5,0.5,262.5,0.5,585.6
	c0,323.2,262,585.1,585.1,585.1c323.2,0,585.1-262,585.1-585.1C1170.8,262.5,908.8,0.5,585.6,0.5z M585.6,1013.7
	c-236.4,0-428.1-191.7-428.1-428.1c0-236.4,191.7-428.1,428.1-428.1c236.4,0,428.1,191.7,428.1,428.1
	C1013.7,822.1,822.1,1013.7,585.6,1013.7z"/>
<g id="XMLID_4_">
	<g>
	</g>
	<g>
		<path fill="none" stroke="#000000" stroke-miterlimit="10" d="M891.9,352.5c-5.5,12.3-3.1,23.7-5.6,37.1
			c21.5,15.9,48.8,26.2,59.3,51.9c13.9,34.2-4.2,77.7,0,116.8c1.9,18.3,13.5,35,9.3,55.6c-1.8,8.9-10.5,16.7-14.8,26
			c-11.8,25.4-17.9,62.4-33.4,83.4c-14.6,19.9-39.5,29-55.6,46.4c-12.1,13-16.7,31.3-31.5,38.9c14.3,16.5,29.3,8.9,48.2,16.7
			c-0.2,9.8-3,11.3,5.6,13c-5.9,24.6,1.2,52.1-11.1,76c-3.5,6.7-12.2,10.3-16.7,16.7c-4.5,6.3-6.4,15.2-11.1,22.3
			c-4.3,6.3-11.8,11.4-14.8,16.7c-2,3.4-0.3,9.7-1.9,13c-5.8,12.8-16.6,17.6-24.1,27.8c-5.8,0.9-7.3-2.6-11.1-3.7
			c-11.8,2.6-11.3,24.6-27.8,16.7c-3.9,0.5-0.5,8.1-3.7,9.3c-36.2,11.1-73.1,15.8-105.7,22.3c-5.7,0.2-10.3-0.8-13-3.7
			c-50.3,8.3-98-2.9-150.2-11.1c-11.8-9.4-26.1-12.4-44.5-11.1c-4.7-3.4-8.1-7.9-9.3-14.8c-5,0-9.9,0-14.8,0
			c-3.1-5.6-3-14.3-14.8-11.1c-3.9-5.4-2.4-16.2-14.8-13c0-2.5,0-5,0-7.4c-25-10.4-24.5-37.1-44.5-50.1c1.3-9-7.8-14.5-1.9-22.3
			c-0.5-5.6-9.8-2.6-11.1-7.4c-3.2-27.7,13.7-62.6,33.4-83.4c-27.9-36.3-89.4-26.6-116.8-68.6c-7.7-11.9-7.5-37.6-13-53.8
			c-12.3-36.3-54.9-64.8-51.9-115c5-84.8,49.6-195.6,90.9-248.5c8.3-10.7,23.3-18.9,31.5-24.1c23.1-3.4,48.8,7.2,74.2,0
			c11.2-3.2,17.5-19.2,26-29.7c11.9-14.7,30.7-38.1,44.5-51.9c19.6-19.6,42.3-24,76-33.4c65-18,137.2-11.1,202.1,11.1
			c17,5.8,76.8,18.3,90.9,33.4c25.1,27.1,3.6,125.9,66.8,120.5C886.3,359.3,890,356.7,891.9,352.5z"/>
		<path fill="none" stroke="#000000" stroke-miterlimit="10" d="M535.9,278.4c0.8-13.3,31-27.2,50.1-16.7
			c12,14.6,6.9,46.3,16.7,63.1c3.6-2.5,1-11.4,3.7-14.8c9.6,14.5,9.5,38.8,20.4,51.9c3.4-9.6,3.5-22.5,7.4-31.5
			c3.8,0.5,3.6,5,7.4,5.6c0.3-12-3.2-20.3-3.7-31.5c1.5,1,3,1.9,5.6,1.9c-1.3-13,3.1-20.4,1.9-33.4c9.4,13.5,14.9,30.8,27.8,40.8
			c2.6-7.9,3.8-7.6,11.1-3.7c0-8,0-16.1,0-24.1c9.9,13.5,19.6,27.4,35.2,35.2c4.2-2,0.7-11.7,1.9-16.7
			c12.9,16.8,35.5,23.8,44.5,44.5c-4.5-2.9-11-3.8-14.8-7.4c-0.7,12.4,5.3,18.2,7.4,27.8c-17.1-6.4-29.2-17.8-44.5-26
			c-4-0.3-0.8,6.6-1.9,9.3c-6,1.6-2.5-6.1-7.4-5.6c-4.2,2-0.7,11.7-1.9,16.7c-8-4.9-15-11-22.3-16.7c-6.4,13.2-2.4,31.8,1.9,44.5
			c-14.2-8.1-20.8-23.7-33.4-33.4c-3.1,24.7,4.3,38.9,13,51.9c-15.1-5.3-23.9-16.9-31.5-29.7c-5.2,18.2,5.5,36.5,14.8,46.4
			c-40.4-13.9-51.8-64-55.6-116.8c-1.5-21.1-5-34.3-20.4-42.7C553.7,266.5,542.7,270.3,535.9,278.4z"/>
		<path fill="none" stroke="#000000" stroke-miterlimit="10" d="M491.4,729c-1.6-7.2,4.5-6.6,5.6-11.1c2.5,0.6,1.5,4.6,1.9,7.4
			c1.2,0,2.5,0,3.7,0c1.6,0.3,1.7-0.7,1.9-1.9c5.6,0,11.1,0,16.7,0c-0.8,4.2-9.1,0.8-13,1.9C502.1,726.1,498,728.8,491.4,729z"/>
		<path fill="none" stroke="#000000" stroke-miterlimit="10" d="M578.5,699.3c4.4-4.3,16.7-0.7,24.1-1.9
			C598.3,701.7,586,698.1,578.5,699.3z"/>
		<path fill="none" stroke="#000000" stroke-miterlimit="10" d="M574.8,697.5C554.2,703.1,550,695.2,574.8,697.5L574.8,697.5z"/>
		<path fill="none" stroke="#000000" stroke-miterlimit="10" d="M645.3,695.6c-18,4.5-57.2,0.4-20.4,0
			C632.9,695.5,639,695.7,645.3,695.6z"/>
		<path fill="none" stroke="#000000" stroke-miterlimit="10" d="M550.7,699.3c-0.5,3.5-41.9,9.3-16.7,1.9
			C537,700.3,544.4,699.7,550.7,699.3z"/>
		<path fill="none" stroke="#000000" stroke-miterlimit="10" d="M686.1,734.5c19.4-11.1,13.9-9.5,7.4-16.7
			c-9.3-11.7-25.6-16.5-44.5-18.5c15.8-2,50.7,8.5,55.6,29.7c-50.3,34.8-155.9,38.6-211.4,5.6c44.4,19.2,133.6,33.1,183.6,3.7
			L686.1,734.5z"/>
		<path fill="none" stroke="#000000" stroke-miterlimit="10" d="M615.6,680.8c4.4,1.1,13.5-2.3,14.8,1.9c-5,0-9.9,0-14.8,0
			c-14.8,7.8-38-1.8-57.5,0c-29.8,2.8-47.2,19.9-66.8,35.2c14.3-19,45.9-38.3,83.4-37.1C589.2,681.2,602.1,686.1,615.6,680.8z"/>
		<path fill="none" stroke="#000000" stroke-miterlimit="10" d="M484,536.1c4.3-0.6,7.1,0.3,9.3,1.9
			C493.8,542.8,480.7,544.4,484,536.1z"/>
		<path fill="none" stroke="#000000" stroke-miterlimit="10" d="M498.8,617.7c-10.2,35-60,46.3-66.8,90.9
			C434.6,666.1,478.2,648.4,498.8,617.7z"/>
		<path fill="none" stroke="#000000" stroke-miterlimit="10" d="M686.1,602.9c12.4-0.2,18.4,29,29.7,40.8
			c18,18.9,47.3,22.7,42.7,61.2c1.5-34-29.1-42.2-46.4-61.2C700,630.4,699.8,610.9,686.1,602.9z"/>
		<path fill="none" stroke="#000000" stroke-miterlimit="10" d="M546,580.3c3.7,5-14.4,13.8-18.4,17.3c-2.9,10.8-10.6,20.4-6.6,27.6
			c7.3,12.8,16.9,3.3,31.5,5.6c18.6,2.9,26.1,18.1,50.1,15.6c21-2.3,34.5-14.6,53.8-17.4c6.8,0,8.3,5.3,13,7.4
			c8.7-3.5,14.2-9.8,14.8-16.7c1.6-18.5-21.8-21.7-29.7-33.4c24.7,3.7,50.1,42.1,16,55.7c-48.5-19.5-52.2,38.6-114.3-3.7
			c-18.4,0.5-28.2-0.3-37-9.4C512.1,606.9,524.8,591.6,546,580.3z"/>
		<path fill="none" stroke="#000000" stroke-miterlimit="10" d="M649,562.1c24.6,4.3,62.5,19.7,96.4,14.8
			C712.4,587.2,674.3,571.7,649,562.1z"/>
		<path fill="none" stroke="#000000" stroke-miterlimit="10" d="M550.7,549.1c4.2,2-5.3,5.6-3.7,11.1c-38.7,10.8-76.2,22.7-115,33.4
			c34.3-14.5,74.3-23.4,111.3-35.2C545.9,555.4,548.6,552.5,550.7,549.1z"/>
		<path fill="none" stroke="#000000" stroke-miterlimit="10" d="M439.8,553c-1.1,0.7-1.9,1.8-2.2,3.5
			C438.3,555.3,439,554.1,439.8,553z"/>
		<path fill="none" stroke="#000000" stroke-miterlimit="10" d="M439.8,553c17-22.8,68.8-23.5,96.1-5.8c-2.5,2.8-16.8,0-24.1,5.6
			c-4.2-1.4,5.8-3.9,9.3-3.7c-2.7-5.4-8.4-7.6-14.8-9.3c-3.7,9.9-14.3,12.9-29.7,11.1c-0.8-3.5-5.3-3.4-3.7-9.3
			c-9.3,0.6-16.8,3-22.3,7.4c0.6,2.5,4.6,1.5,7.4,1.9C458.5,555.4,445.3,549.6,439.8,553z"/>
		<path fill="none" stroke="#000000" stroke-miterlimit="10" d="M751,549.1c-5.8,5.1-14.6-2.7-24.1,0c13.1-5.6-9.6-10.5-14.8-14.8
			c-0.3,16.7-28.3,15.9-31.5,1.9c-8.8-0.2-8.8,8.5-16.7,9.3c0.8,4.2,9.8,0.1,11.1,3.7c-3.4,4.4-14.5,1-18.5,0
			C677.1,519,725.5,534,751,549.1z"/>
		<path fill="none" stroke="#000000" stroke-miterlimit="10" d="M524.8,534.3c-11.2,1.7-43.7-15.7-68.6-1.9
			C466.9,522.1,509.8,523.1,524.8,534.3z"/>
		<path fill="none" stroke="#000000" stroke-miterlimit="10" d="M697.2,523.1c-9.3,3.6-24.9,1.1-31.5,7.4
			C666.2,525.2,687.6,520.1,697.2,523.1z"/>
		<path fill="none" stroke="#000000" stroke-miterlimit="10" d="M558.1,515.7c-1.7-4,13.6,4.2,13,11.1c-2.2-0.3-3.3,0.4-3.7,1.9
			C563.9,524.8,563.4,517.9,558.1,515.7z"/>
		<path fill="none" stroke="#000000" stroke-miterlimit="10" d="M550.7,493.5c-39.3,4.5-112.2-20.9-135.4,18.5
			c-2.4-9.3,12.1-17.6,14.8-27.8C465.6,476.3,543.6,444.1,550.7,493.5z"/>
		<path fill="none" stroke="#000000" stroke-miterlimit="10" d="M632.3,491.6c2.3-10.1,7.6-17.1,13-24.1
			c49,3.6,103.7,1.4,118.7,38.9c-28.5-16.2-83.8-21.4-120.5-3.7C640.5,498.3,634.7,496.6,632.3,491.6z"/>
		<path fill="none" stroke="#000000" stroke-miterlimit="10" d="M671.3,764.2c-37.4,17.6-125.1,17.3-155.8-5.6
			c7.7,12.1,36.2,19.4,63.1,18.5c-14.3,2-34.6,12.1-51.9,9.3c-8.8-1.4-17-14-27.8-20.4c-4.1-2.4-10.4-1.6-13-3.7
			c-13.8-11.5-25.6-32-14.8-48.2c7.2-10.8,26.6-16.3,50.1-26c11.5-4.7,21.5-13.6,38.9-14.8c14.4-1,31.8,3,48.2,1.9
			c23.4-1.7,34-8,53.8,1.9c12.5,6.2,45.5,25.8,51.9,33.4c24.3,28.8-11.3,60.1-37.1,70.5c-23,9.2-38.7,10.3-59.3-3.7
			C639.6,777.1,661.7,777,671.3,764.2z"/>
		<path fill="none" stroke="#000000" stroke-miterlimit="10" d="M363.2,741.1c-0.5-6.8-1-13.5-1.6-19.5
			C363.5,729,364,735.5,363.2,741.1z"/>
		<path fill="none" stroke="#000000" stroke-miterlimit="10" d="M363.2,741.1c-3.9,28.7-38.9,32.3-51.7,0.9
			c14.9-20.4,35.9-34.6,48.2-57.5c-3.6-16.2-6.5-26.3-5.6-40.8c1-15.9,12.4-27.1,14.8-42.7c3-19.1-8-39.9-5.6-63.1
			c1.5-14.2,11-34.7,18.5-48.2c8.9-15.9,25.4-25.8,27.8-38.9c5.2-28.2-11.6-59.1-9.3-83.4c4.2-44.3,70.3-60,115-64.9
			c11.2-1.2,22.3,0.9,35.2,0c36.1,15.5,26.1,60.1,40.8,90.9c19.6,40.9,112.3,80.1,183.6,63.1c14.3,12.3,29.5,51,33.4,77.9
			c1.8,12.6-2.7,24.7-1.9,37.1c1.8,25.9,17.2,50.1,13,74.2c-3,17.2-18.1,28.6-20.4,42.7c6.4,2.7,15.4-8,27.8-5.6
			c3.8,21.9,2.7,54.5-22.3,53.8c-4,18.2-9.9,34.6-14.8,51.9c-9.4-17.8-31.3-26.5-42.7-44.5c-8-12.8-10.4-28.4-20.4-40.8
			c-6.7-8.3-21.9-12-33.4-22.3c-11-9.8-14.9-22.7-22.3-27.8c-20-14-51.3-0.9-72.3,13c-17.8-11.2-41.3-23.8-61.2-18.5
			c-14.4,3.8-33.3,23.5-51.9,37.1c-9.3,6.8-24.8,18.7-31.5,26c-8.2,8.9-12.6,23.1-20.4,31.5c-5.3,5.7-12.3,7.5-16.7,13
			c1.4,18-13.4,20-18.5,31.5c-10.2-21.3-15.7-47.3-26-68.6c-1.7,22.3,46.5,78.4,1.9,87.2c-1.3,4.6,8.2,7.6,1.9,11.1
			c-10.3-2.7-6.7-23.5-9.3-37.1C365.1,768.2,364.1,754.4,363.2,741.1z"/>
		<path fill="none" stroke="#000000" stroke-miterlimit="10" d="M695.4,534.2c4.3-0.6,7.1,0.3,9.3,1.9
			C705.2,540.9,692.1,542.5,695.4,534.2z"/>
	</g>
</g>
<path fill="none" stroke="#000000" stroke-miterlimit="10" d="M491.4,717.9c0,0,24.9-12.8,46.9-18.3c22.1-5.5,47.1-0.9,59.3-1.9
	c12.2-0.9,65.1-9.8,89.5,10.9l3.8,2.4v4c0,0-12.2-22.6-92-13c0,0-45-9-107.8,19.8L491.4,717.9z"/>
<path fill="none" stroke="#000000" stroke-miterlimit="10" d="M649,721.8c0,0,18.2-0.5,29.3,0c11.1,0.5,24.7,2.6,24.7,2.6l-1.9,3.8
	c0,0-35.2-3.4-58.1-3.3l-8.9-2.3L649,721.8z"/>
<path fill="none" stroke="#000000" stroke-miterlimit="10" d="M495.1,728.2c0,0,35.2-3.5,58.1-3.3l8.9-2.3l-14.8-0.8
	c0,0-18.2-0.5-29.3,0c-11.1,0.5-24.7,2.6-24.7,2.6"/>
<path fill="none" stroke="#000000" stroke-miterlimit="10" d="M201.8,200.6c4.1-4.1,8.8-6.1,14.1-6.1l-0.9-0.9
	c-1.7-1.7-1.9-3.2-0.5-4.5c1.4-1.4,3.1-1.2,4.9,0.6l0.4,0.4c0.1,0.1,0.7,0.8,1.7,2.1c1,1.3,2.4,2.8,4,4.4c0.2,0.2,0.9,0.8,2.1,1.9
	l2.7,2.3c0.3,0.2,0.6,0.4,0.9,0.8c2,2,2.2,3.8,0.7,5.4c-1.6,1.6-3.3,1.6-5-0.1l-0.3-0.3l-1.6-1.8c-0.5-0.6-1-1.1-1.3-1.5
	c-2.5-2.5-5.3-3.6-8.5-3.4c-3.1,0.3-6.2,1.9-9.2,4.9c-2.7,2.7-4.2,5.6-4.5,8.5c-0.3,3,0.7,5.6,3,7.9c2.6,2.7,5.8,3.4,9.5,2.3
	c2-0.7,5-2.4,8.9-5.2c5.8-4.2,10.3-6.5,13.6-7c4.8-0.7,9.2,0.9,12.9,4.6c3.9,4,5.7,8.6,5.4,13.9c-0.4,5.3-2.8,10.2-7.3,14.7
	c-4.8,4.8-10.3,7.2-16.5,7.3c0.2,0.2,0.4,0.4,0.6,0.6c0.2,0.2,0.3,0.3,0.4,0.4c0.8,0.5,1.3,0.8,1.6,1.1c1.5,1.5,1.5,3.1,0,4.6
	c-1.7,1.7-3.4,1.6-5.2-0.1c-0.2-0.2-0.3-0.4-0.3-0.7l-3-3.5c-1.5-1.8-2.5-2.9-3-3.4c-0.8-0.8-2.2-2-4.1-3.5
	c-1.9-1.5-3.3-2.6-4.1-3.5c-1.9-1.9-2-3.6-0.4-5.2c1.6-1.6,3.4-1.5,5.3,0.4l1.1,1.2c0.3,0.3,0.8,0.8,1.5,1.5
	c3.2,3.2,6.7,4.7,10.6,4.6c3.9-0.1,7.5-1.9,11-5.4c3.2-3.2,5-6.5,5.4-9.9c0.4-3.4-0.7-6.4-3.3-9c-4-4-9-3.9-14.9,0.2l-4.2,3
	c-4.2,2.9-7.7,5-10.6,6.1c-2.6,1-5.3,1.2-8.1,0.5c-2.8-0.6-5.2-2-7.4-4.2c-3.7-3.7-5.4-8.1-5-13.1
	C195.2,209.6,197.5,204.9,201.8,200.6z"/>
<path fill="none" stroke="#000000" stroke-miterlimit="10" d="M322,183.1c-4,2.8-7.7,2.8-11,0c0.1,5.4-2.5,10-7.8,13.7
	c-3.9,2.8-7.8,4-11.5,3.7c-3.7-0.3-6.7-2.1-9-5.3c-2.8-4-3.2-8.2-1.1-12.6c0.8-1.7,1.6-2.9,2.4-3.8c0.8-0.9,2.5-2.5,5.1-4.9
	c3.8-3.3,6-5.8,6.7-7.5c0.7-1.7,0.3-3.5-1.2-5.6c-1.4-2-3.2-3.1-5.4-3.2c-2.2-0.2-4.5,0.6-7,2.4c-2.2,1.5-3.8,3.6-4.8,6.1
	c-0.4,1-0.4,1.8,0,2.3c0.1,0.2,0.5,0.3,1.2,0.3c1,0,1.9,0.6,2.8,1.8c0.7,1,0.9,2,0.6,3.2c-0.3,1.1-0.9,2.1-2,2.8
	c-1.3,0.9-2.6,1.2-4.1,0.9c-1.5-0.3-2.6-1-3.5-2.3c-1.9-2.7-2.2-6-0.9-9.9c1.3-3.9,3.9-7.1,7.7-9.8c8.8-6.2,16.3-5.1,22.3,3.4
	l10.4,14.7c1.6,2.3,2.7,3.7,3.1,4c1.5,1.5,2.9,1.8,4.3,0.8c1.7-1.2,1.5-3.3-0.7-6.4l-2.5-3.5c-1.1-1.5-0.9-2.8,0.6-3.9
	c1.6-1.1,3.2-0.5,4.8,1.8l0.3,0.4l2.9,4.2C327.7,175.5,326.9,179.6,322,183.1z M303.6,174.3l-3.7-5.2c-0.4,1.7-1,3.2-1.9,4.4
	c-0.9,1.2-2.8,3.1-5.6,5.5c-5.1,4.4-6.5,8.4-3.9,12c1.3,1.8,3,2.8,5.1,3c2.1,0.1,4.3-0.6,6.6-2.2c3.3-2.3,5.2-5,5.8-8.1
	C306.5,180.6,305.8,177.4,303.6,174.3z"/>
<path fill="none" stroke="#000000" stroke-miterlimit="10" d="M351.5,123.2l22.4,22.7l-3.2-31.5c-0.1-0.9-0.2-1.5-0.5-2
	c-0.4-0.9-1.3-1.1-2.5-0.5c-0.6,0.3-1.1,0.6-1.4,0.9c-0.8,0.5-1.3,0.9-1.6,1c-1.8,0.9-3.1,0.4-3.9-1.3c-0.9-1.8-0.2-3.3,2.1-4.4
	c0.3-0.2,0.9-0.4,1.7-0.6l3.1-1c0.8-0.3,1.6-0.6,2.5-1c0.9-0.4,2.2-1.2,3.8-2.3c1.6-1.1,2.9-1.9,3.8-2.3c2.3-1.1,3.9-0.8,4.8,1
	c0.8,1.7,0.4,3-1.4,3.9c-0.5,0.3-1,0.4-1.3,0.4c-0.8,0.2-1.3,0.3-1.6,0.5c-1,0.5-1.4,2.4-1.1,5.6l2.3,32.6
	c0.5,7.2,0.4,12.7-0.4,16.5c-1.4,6.4-4.8,11-10.3,13.6c-3.3,1.6-6.4,2.1-9.4,1.5c-3-0.6-5.1-2.1-6.3-4.4c-0.8-1.7-1-3.2-0.5-4.8
	c0.5-1.5,1.5-2.6,3-3.4c1.2-0.6,2.4-0.7,3.6-0.4c1.2,0.3,2,1,2.5,2.1c0.8,1.7,0.6,3.2-0.7,4.4c1.4,0.8,3.2,0.6,5.4-0.5
	c2.8-1.4,4.9-3.7,6.1-6.9c1.2-3.2,1.2-6.1,0-8.8c-0.6-1.3-2.6-3.5-5.8-6.4l-19.7-18.1l-2.2-2.1c-2.1-2-3.7-2.7-4.9-2.1
	c-0.3,0.2-0.9,0.5-1.6,1c-0.8,0.5-1.3,0.9-1.5,1c-1.9,0.9-3.2,0.5-4.1-1.2c-0.9-1.8-0.1-3.3,2.4-4.5c0.8-0.4,1.4-0.7,1.9-0.8
	l3.4-1.1c0.1,0,0.3-0.1,0.6-0.3c0.4-0.1,0.7-0.3,1-0.4c1.9-0.9,3.9-2.1,6-3.4c1.6-1,2.6-1.6,3.2-1.9c2.3-1.1,3.8-0.8,4.7,1
	c0.9,1.8,0.3,3.1-1.8,4.1c-0.3,0.2-0.9,0.3-1.6,0.6c-0.7,0.2-1.3,0.4-1.6,0.6c-0.8,0.4-0.9,0.9-0.6,1.7
	C350.6,122.2,351,122.7,351.5,123.2z"/>
<path fill="none" stroke="#000000" stroke-miterlimit="10" d="M480.8,66.2c-0.8-4.3-2.7-6.2-5.7-5.6c-0.8,0.2-1.4,0.3-1.8,0.5
	c-0.9,0.4-1.7,0.6-2.3,0.7c-0.8,0.1-1.5,0-2.1-0.5c-0.6-0.5-1-1.1-1.2-1.9c-0.4-2,0.7-3.3,3.3-3.8c0.3-0.1,0.8-0.1,1.2-0.1l4.8-0.3
	c1.8-0.1,3.6-0.3,5.5-0.7c1.8-0.4,3.8-0.9,5.9-1.6l3.8-1.3c0.5-0.1,0.9-0.3,1.2-0.3c2.6-0.5,4.1,0.3,4.5,2.3c0.2,0.8,0,1.6-0.4,2.2
	c-0.4,0.7-1,1.1-1.8,1.2c-0.6,0.1-1.4,0.2-2.4,0.2c-0.4,0-1.1,0-1.9,0.2c-3,0.6-4,3-3.2,7.4l6.8,35.2c0.9,4.4,2.8,6.3,5.7,5.7
	c0.5-0.1,1.1-0.3,1.8-0.5c1.1-0.4,1.8-0.6,2.3-0.7c1.8-0.4,2.9,0.4,3.3,2.3c0.4,2.1-0.7,3.4-3.2,3.9c-0.1,0-0.3,0.1-0.6,0.1
	c-0.2,0-0.5,0-0.6,0l-4.7,0.2c-1.6,0.1-3.2,0.3-4.9,0.6c-2.5,0.5-4.6,1-6.5,1.7l-3.9,1.4c-0.1,0-0.3,0.1-0.6,0.2
	c-0.3,0.1-0.5,0.1-0.7,0.1c-2.5,0.5-4-0.3-4.4-2.4c-0.4-1.9,0.4-3,2.2-3.3c0.3-0.1,1.1-0.1,2.4-0.3c0.7,0.1,1.3,0,1.9-0.1
	c3-0.6,4-3.1,3.2-7.4L480.8,66.2z"/>
<path fill="none" stroke="#000000" stroke-miterlimit="10" d="M566.8,91.4l-0.3-5.7c-0.1-2.4,0.9-3.7,3-3.8c2.1-0.1,3.2,1.2,3.4,3.9
	c0.4,6.5-0.2,11-1.7,13.7c-2,3.6-5.6,5.5-10.8,5.8c-4.7,0.3-8.2-1-10.3-4c-1.6-2.1-2.6-5.8-2.9-11.1l-1.2-21.4
	c-0.1-1.2-0.7-1.8-1.8-1.8l-2.9,0.2c-1,0.1-1.8-0.2-2.5-0.8c-0.7-0.6-1-1.3-1.1-2.2c0-0.8,0.2-1.6,0.8-2.3c0.6-0.7,1.3-1.1,2-1.1
	l3.5-0.2c1-0.1,1.5-0.7,1.4-1.8l-0.5-9.2c-0.1-2.3,1-3.5,3.3-3.6c2.1-0.1,3.3,0.9,3.4,3.2l0.6,9.5c0.1,0.9,0.6,1.3,1.7,1.2l9.7-0.6
	c2.3-0.1,3.4,0.8,3.6,2.9c0.1,2.2-1,3.4-3.5,3.5l-9.8,0.6c-0.8,0-1.2,0.7-1.1,1.9l1.3,21.9c0.4,6.2,2.6,9.2,6.8,9
	C564.9,99.1,566.9,96.5,566.8,91.4z"/>
<path fill="none" stroke="#000000" stroke-miterlimit="10" d="M678.8,99.2c-0.7,3.4-0.8,5.5-0.2,6.3c0.4,0.6,1,1.1,1.9,1.4
	c0.8,0.3,2.7,0.7,5.7,1.4l7.7,1.6c4,0.8,6.8,0.8,8.4,0.1c1.6-0.8,2.7-2.8,3.3-6c0.2-0.9,0.4-1.9,0.5-3c0.3-2.3,0.6-3.6,0.7-4.1
	c0.5-2.5,1.8-3.6,3.8-3.2c2.4,0.5,3.4,1.9,2.9,4.3c-0.1,0.7-0.3,1.2-0.4,1.6l-1.5,4.3c-0.4,1.2-0.8,2.6-1.1,4
	c-0.2,0.8-0.3,2-0.5,3.7c-0.2,1.6-0.4,2.9-0.5,3.7c-0.5,2.6-2.3,3.6-5.3,3c-0.6-0.1-1.9-0.5-4-1.1c-1.4-0.4-3.5-0.9-6.4-1.6
	l-6.6-1.3l-14-2.9c-1.4-0.3-3.8-0.7-7.1-1.1c-0.5-0.1-1.3-0.2-2.4-0.4c-1.2-0.1-2-0.3-2.7-0.4c-2.4-0.5-3.5-1.8-3-3.9
	c0.4-1.9,1.5-2.6,3.3-2.2c0.5,0.1,1.1,0.3,2,0.7c0.9,0.4,1.6,0.6,2,0.7c3,0.6,4.9-1.3,5.8-5.6l7.2-35.1c0.9-4.3-0.2-6.8-3.1-7.4
	c-0.8-0.2-1.4-0.2-1.9-0.2c-1,0-1.8-0.1-2.4-0.2c-0.8-0.2-1.3-0.6-1.8-1.2c-0.4-0.7-0.5-1.4-0.4-2.2c0.4-2,1.9-2.8,4.4-2.3
	c0.3,0.1,0.8,0.2,1.3,0.4l4.5,1.5c2.5,0.8,4.4,1.4,5.6,1.6c1.5,0.3,3.4,0.6,5.7,0.7l4.1,0.3c0.5,0,0.9,0.1,1.2,0.1
	c2.6,0.5,3.7,1.8,3.3,3.9c-0.2,0.8-0.6,1.4-1.2,1.9c-0.6,0.4-1.3,0.6-2.1,0.4c-0.6-0.1-1.4-0.4-2.3-0.7c-0.4-0.2-1-0.4-1.8-0.6
	c-3-0.6-4.9,1.2-5.8,5.5L678.8,99.2z"/>
<path fill="none" stroke="#000000" stroke-miterlimit="10" d="M765.1,140.2c-7.3-3-12.1-7.9-14.2-15c-2.1-7-1.4-15.1,2.3-24.1
	c3.7-9.2,8.7-15.5,15.1-19c6.4-3.5,13.4-3.7,20.9-0.7c7.2,2.9,12,7.8,14.2,14.6c2.2,6.8,1.6,14.5-1.9,23.2
	c-3.8,9.4-8.9,16-15.5,19.8C779.4,142.8,772.5,143.2,765.1,140.2z M786.5,87.3c-5.3-2.1-10.2-1.7-14.8,1.2
	c-4.6,2.9-8.3,8.1-11.3,15.5c-3,7.5-3.9,13.9-2.6,19.2c1.3,5.3,4.5,9,9.8,11.1c5.1,2.1,10.1,1.6,14.8-1.5c4.7-3.1,8.6-8.3,11.5-15.6
	c3-7.4,3.8-13.7,2.6-18.8C795.2,93.1,791.9,89.5,786.5,87.3z"/>
<path fill="none" stroke="#000000" stroke-miterlimit="10" d="M858.8,133.6l-3.1,4.8l-4.4,5.8l-7.4,11.6c-2.3,3.5-3.5,6.3-3.8,8.4
	c-0.3,2.1,0.4,4.3,2,6.6c1.5,2.1,3.2,3.9,5.3,5.2c2.8,1.8,5.4,2.7,8.1,2.9c2.6,0.2,4.8-0.4,6.5-1.8c1.7-1.4,3.5-3.5,5.3-6.2
	l12.4-19.4c2.4-3.8,3.8-6,4-6.6c1.2-2.8,0.8-4.9-1.3-6.3c-0.3-0.2-0.9-0.5-1.6-0.8c-1-0.5-1.7-0.8-2.1-1.1c-0.6-0.4-1-1-1.2-1.8
	c-0.2-0.8,0-1.5,0.4-2.2c1.1-1.8,2.8-2,5-0.6c0.3,0.2,0.7,0.5,1,0.7l4,3.4c1,0.9,2.2,1.7,3.6,2.6c1.4,0.9,2.5,1.5,3.5,2l3.5,1.6
	c1,0.4,1.6,0.8,1.9,0.9c2.1,1.3,2.6,2.9,1.5,4.6c-1.1,1.7-2.7,1.9-4.7,0.6l-0.8-0.5c-0.2-0.1-0.4-0.3-0.8-0.5
	c-1.5-1-2.9-0.8-4.2,0.5c-1.3,1.3-3.9,5-7.9,11.2l-8.4,13.1c-2.1,3.3-3.7,5.5-4.8,6.9c-2,2.2-4.2,3.9-6.7,4.9
	c-5.8,2.4-12.3,1.3-19.4-3.2c-8.8-5.6-12.7-12.2-11.5-19.5c0.3-2.3,1.7-5.2,4-8.9c1.2-1.8,2.9-4.4,5.3-7.8c2.4-3.4,4.2-6,5.3-7.8
	l2.5-4c2.3-3.6,3.6-5.7,3.9-6.2c1.4-3,1.3-5-0.3-6c-0.1-0.1-0.3-0.2-0.5-0.3c-0.3-0.2-0.5-0.3-0.7-0.4c-0.2-0.1-0.5-0.3-1-0.6
	c-2.1-1.3-2.6-2.9-1.5-4.6c1.1-1.7,2.6-1.9,4.5-0.7c0.8,0.5,1.6,1.1,2.4,1.9c2.2,2,4.4,3.6,6.5,5c2.2,1.4,4.8,2.7,7.9,4.1
	c0.7,0.3,1.3,0.7,2,1.1c2.1,1.3,2.5,2.8,1.4,4.5c-1.1,1.7-2.5,2-4.3,0.9c-0.4-0.3-1-0.7-1.7-1.3c-0.7-0.6-1.3-1.1-1.7-1.3
	c-1.6-1-3.2-0.9-4.9,0.5C861.4,129.9,860.3,131.3,858.8,133.6z"/>
<path fill="none" stroke="#000000" stroke-miterlimit="10" d="M937,188.6c3.1-3.2,3.5-5.9,1.3-8c-0.4-0.4-0.9-0.8-1.5-1.2
	c-0.9-0.6-1.5-1.1-1.9-1.5c-1.3-1.3-1.4-2.6-0.1-3.9c1.4-1.5,3.1-1.3,5,0.5c0.2,0.2,0.5,0.5,0.8,0.9l3,3.7c1.1,1.4,2.4,2.8,3.9,4.2
	c1.2,1.1,2.5,2.2,3.8,3.3l4.6,3.5c0.9,0.7,2,1.7,3.4,2.9c3.9,3.7,6.7,7.4,8.2,11c2,4.7,2.3,9.9,0.9,15.4c-1.4,5.5-4.5,10.7-9,15.5
	c-4,4.2-8.4,7.3-13.3,9.1c-4.8,1.9-9.4,2.3-13.6,1.3c-5.2-1.2-10.1-4.1-14.8-8.5c-1-0.9-1.9-1.9-2.8-2.9l-4.1-4.6
	c-1.4-1.6-2.9-3.1-4.5-4.7c-1.4-1.4-2.6-2.4-3.7-3.1l-3.5-2.5c-0.1-0.1-0.3-0.2-0.5-0.4c-0.2-0.2-0.4-0.4-0.5-0.5
	c-1.9-1.8-2.1-3.4-0.6-4.9c0.6-0.6,1.2-0.9,2-1c0.8,0,1.4,0.2,2,0.7c0.5,0.5,1,1.1,1.6,1.9c0.2,0.4,0.6,0.8,1.2,1.4
	c2.2,2.1,4.8,1.5,7.9-1.7L937,188.6z M943.1,193.1l-26,27.3c-1.9,2-2.1,4.1-0.5,6.4c0.5,0.8,2.2,2.6,5.2,5.4
	c5.2,4.9,10.2,7.1,15.2,6.5c6-0.7,11.6-3.8,16.9-9.3c4.1-4.3,6.7-8.8,7.9-13.4c1.1-4.6,0.6-8.8-1.5-12.5c-1.4-2.4-3.4-4.8-6.1-7.4
	c-3.4-3.2-5.7-5-6.8-5.4C946.2,190.5,944.8,191.3,943.1,193.1z"/>
<path fill="none" stroke="#000000" stroke-miterlimit="10" d="M103.2,598.6c3.9,0,5.9-1.3,5.9-4.1c0-0.7-0.1-1.3-0.2-1.7
	c-0.2-0.9-0.2-1.6-0.2-2.2c0-0.7,0.3-1.3,0.8-1.8c0.5-0.5,1.1-0.7,1.9-0.7c1.9,0,2.8,1.2,2.8,3.5c0,0.3,0,0.7-0.1,1.1l-0.6,4.2
	c-0.2,1.6-0.3,3.2-0.3,4.9c0,1.6,0.1,3.5,0.4,5.4l0.5,3.6c0.1,0.4,0.1,0.8,0.1,1.1c0,2.3-0.9,3.5-2.8,3.5c-0.7,0-1.4-0.2-1.9-0.7
	c-0.5-0.5-0.8-1.1-0.8-1.8c0-0.5,0.1-1.3,0.2-2.2c0.1-0.4,0.2-0.9,0.2-1.7c0-2.7-2-4.1-5.9-4.1l-32-0.1c-4,0-6,1.3-6,4.1
	c0,0.4,0.1,1,0.2,1.7c0.2,1,0.2,1.7,0.2,2.2c0,1.6-0.9,2.5-2.6,2.5c-1.9,0-2.9-1.2-2.9-3.5c0-0.1,0-0.3,0-0.6
	c0.1-0.2,0.1-0.4,0.1-0.6l0.6-4.1c0.2-1.4,0.3-2.8,0.3-4.4c0-2.2-0.1-4.2-0.4-6l-0.6-3.7c0-0.1,0-0.3-0.1-0.6c0-0.3,0-0.5,0-0.6
	c0-2.3,1-3.4,2.9-3.4c1.7,0,2.6,0.8,2.5,2.5c0,0.3-0.1,1-0.2,2.2c-0.2,0.6-0.2,1.1-0.2,1.7c0,2.7,2,4.1,6,4.1L103.2,598.6z"/>
<path fill="none" stroke="#000000" stroke-miterlimit="10" d="M107.5,651.2c0.8-0.1,1.2-0.6,1.2-1.6l-0.2-1.6
	c-0.1-1.1,0.4-2.1,1.2-3c0.9-0.9,1.9-1.4,3.2-1.6c1.5-0.1,2.8,0.3,3.9,1.2c1.1,1,1.8,2.2,1.9,3.8c0.2,1.8-0.4,3.4-1.7,4.7
	c-1.3,1.3-3.1,2.1-5.4,2.3c-4.4,0.4-8.9-0.8-13.5-3.6c-1.8-1.1-2.7-2.1-2.8-2.9c-0.1-1.1,0.4-1.6,1.4-1.7c0.4,0,1,0.2,1.8,0.8
	c1.4,0.9,3,1.6,4.9,2.3C105.3,651,106.7,651.3,107.5,651.2z"/>
<path fill="none" stroke="#000000" stroke-miterlimit="10" d="M107.1,699l-2.2,0.6c2.7,1.3,4.6,2.7,5.9,4.1c1.3,1.4,2.2,3.4,2.8,5.9
	c1.3,5.1,0.2,9.3-3.1,12.6c2.6,1.2,4.6,2.6,5.9,4.2c1.3,1.6,2.3,3.8,3,6.6c0.7,2.9,0.8,5.7,0.1,8.4c-0.8,2.9-2.3,5.2-4.6,6.8
	c-1.5,1.1-4.1,2.1-7.8,3l-7.5,1.9l-5.8,1.4c-2.1,0.5-3.4,0.9-3.9,1c-1.8,0.7-2.6,1.6-2.3,2.7c0.1,0.4,0.3,0.9,0.7,1.5
	c0.4,0.7,0.6,1.2,0.7,1.5c0.4,1.8-0.1,2.9-1.7,3.3c-1.8,0.5-3-0.3-3.5-2.4c-0.2-0.8-0.4-2-0.6-3.6c-0.2-1.6-0.4-2.8-0.6-3.7
	c-0.2-0.9-0.6-2.1-1.2-3.8c-0.6-1.6-1-2.9-1.2-3.8c-0.5-2.2,0.1-3.5,1.9-3.9c1.6-0.4,2.6,0.2,3,1.9c0.1,0.2,0.1,0.7,0.2,1.6
	c-0.1,0.3,0,0.8,0.1,1.3c0.2,0.9,0.8,1.3,1.7,1.3c0.9,0,3.2-0.4,6.7-1.2l4.7-1.2l5.1-1.3c3.6-0.9,6.1-1.8,7.6-2.7
	c1.5-0.9,2.5-2.3,3.1-4c0.6-1.7,0.6-3.5,0.1-5.4c-0.9-3.6-2.8-5.9-5.7-6.7c-2.3-0.6-5.9-0.3-11,0.9l-5.5,1.4c-4.9,1.2-7.9,2.1-9,2.6
	c-1.2,0.5-1.6,1.3-1.4,2.3c0.1,0.3,0.3,0.7,0.5,1.3c0.3,0.6,0.4,1,0.5,1.3c0.2,0.7,0.1,1.4-0.3,2c-0.4,0.6-0.9,1-1.6,1.2
	c-1.7,0.4-2.9-0.6-3.5-3c-0.2-0.8-0.4-1.9-0.5-3.5c-0.2-1.6-0.4-2.7-0.5-3.5c-0.3-1.1-0.7-2.2-1.2-3.5c-0.5-1.2-0.9-2.3-1.2-3.3
	c-0.5-2.1,0.1-3.4,1.9-3.8c1.6-0.4,2.6,0.2,3,1.7c0.1,0.6,0.2,1,0.1,1.4c0,0.8,0,1.3,0.1,1.7c0.3,1.2,1.8,1.6,4.4,1l3.7-0.7
	c1.1-0.3,2.3-0.6,3.3-0.8c0.9-0.2,1.4-0.4,1.5-0.4l6.4-1.6c4.5-1.1,7.5-2.5,8.9-4.1c1.5-1.7,1.8-4,1-7.1c-0.8-3.4-2.7-5.7-5.7-6.9
	c-2.4-1-6.1-0.9-11.1,0.4l-10.3,2.6c-2.1,0.5-3.3,0.8-3.6,1c-1.7,0.6-2.4,1.4-2.2,2.4c0.1,0.3,0.3,0.8,0.8,1.5
	c0,0.1,0.1,0.2,0.2,0.4c0.1,0.2,0.1,0.4,0.1,0.5c0.5,2-0.1,3.2-1.8,3.7c-1.7,0.4-2.8-0.5-3.4-2.9c-0.2-0.9-0.4-2-0.6-3.3
	c-0.2-1.8-0.5-3.3-0.8-4.6c-0.2-0.6-0.5-1.7-1.1-3.3c-0.8-2.2-1.2-3.5-1.3-3.9c-0.5-2.1,0.1-3.3,1.9-3.8c1.6-0.4,2.7,0.4,3.2,2.4
	c0,0.1,0.1,0.3,0.1,0.5c0,0.2,0,0.4,0,0.5l0.1,2.1c0,0.1,0,0.2,0,0.3c0.4,1.4,1.8,1.9,4.4,1.3l4.4-1.1l11.8-2.9
	c4.4-1.1,7.1-1.9,8.1-2.4c1-0.5,1.4-1.3,1.2-2.3c-0.1-0.2-0.4-0.9-0.9-2.1c-0.2-0.5-0.4-0.9-0.5-1.2c-0.5-1.9,0.1-3.1,1.8-3.5
	c1.8-0.4,2.9,0.4,3.4,2.5c0.1,0.6,0.3,1.4,0.4,2.4c0.1,1,0.3,1.9,0.5,2.6c0.1,0.3,0.1,0.5,0.2,0.8c0.1,0.3,0.1,0.5,0.1,0.5l0.8,1.8
	l0.1,0.2C109.2,697.8,108.6,698.6,107.1,699z"/>
<path fill="none" stroke="#000000" stroke-miterlimit="10" d="M173.6,858.6c-4.7,2.7-9.6,1.8-14.5-2.4c0.5,2.3,0.7,4.3,0.7,5.9
	c-0.1,5-2.3,8.7-6.7,11.1c-4.3,2.4-8.6,2.7-13,0.8c-4.4-1.9-8.1-5.6-11.2-11.1c-1.1-2-2.4-4.6-3.9-7.8c-1.5-3.2-2.6-5.5-3.4-6.9
	c-0.7-1.2-1.4-2.4-2.2-3.4l-2.3-3c-0.1-0.1-0.2-0.2-0.3-0.4c-0.1-0.2-0.2-0.4-0.3-0.5c-1.1-2-0.8-3.5,0.8-4.4
	c1.5-0.8,2.6-0.5,3.4,0.9c0.2,0.4,0.5,1,0.8,2c0.2,0.7,0.5,1.2,0.7,1.5c1.3,2.4,3.7,2.6,7.1,0.7l28-15.7c3.5-2,4.6-4.1,3.2-6.5
	c-0.2-0.4-0.6-0.9-1-1.4c-0.6-0.8-1-1.3-1.3-1.8c-0.8-1.4-0.5-2.6,1-3.4c1.6-0.9,3-0.3,4.2,1.8l0.5,0.9l1.4,3.7c0.4,1,1.1,2.4,2,4.1
	c1,1.8,2.5,4.2,4.6,7.3c1.4,2.1,2.8,4.4,4.2,6.9c2.6,4.7,3.7,8.9,3.2,12.6C179.2,853.8,177.2,856.7,173.6,858.6z M141.6,841.6
	l-7.7,4.3c-3,1.7-4.6,3.2-4.7,4.7c-0.1,1.4,1.1,4.4,3.6,8.9c4.9,8.7,10.5,11.2,17,7.5c6-3.4,6.6-9.2,2-17.5l-3.2-5.8
	c-1.4-2.5-2.8-3.6-4.1-3.4C143.8,840.5,142.8,840.9,141.6,841.6z M155.7,833.7c-2.5,1.4-3.9,2.5-4.2,3.2c-0.3,0.8,0.1,2.1,1.2,4.1
	l2.2,3.9c4.6,8.2,9.6,10.8,14.9,7.8c4.9-2.7,5.4-7.5,1.6-14.2c-2.7-4.7-4.6-7.5-5.8-8.2c-1.2-0.8-3.1-0.4-5.6,1L155.7,833.7z"/>
<path fill="none" stroke="#000000" stroke-miterlimit="10" d="M198.6,891.7c3.1-2.4,3.8-4.7,2.1-6.8c-0.5-0.6-0.8-1-1.2-1.2
	c-0.7-0.6-1.2-1.1-1.5-1.5c-0.4-0.5-0.6-1.2-0.5-1.8c0.1-0.7,0.4-1.3,1-1.7c1.5-1.2,2.9-0.9,4.3,0.9c0,0,0.3,0.4,0.7,1
	c4.5,6.6,6.6,9.6,6.3,9.2l0.5,0.6l12.3,14.7c0.2,0.3,1.1,1.3,2.7,3.1c0.6,0.6,1.1,1.2,1.5,1.8c1.7,2.2,1.6,4-0.3,5.5
	c-0.3,0.3-1.4,1-3.3,2.3c-1.4,1-2.7,1.9-3.8,2.8c-1.5,1.2-2.5,2-3,2.5c-1.1,1.1-1.9,1.9-2.5,2.3c-1.6,1.2-3,1.1-4.2-0.4
	c-1.2-1.5-0.7-3.1,1.6-4.9l3.3-2.6c3.5-2.8,5-5.1,4.5-7.1c-0.4-1.4-2.4-4.4-5.9-8.9c-2.3-3-3.8-4.7-4.3-5.1
	c-1.9-1.4-3.9-1.3-5.9,0.3l-2.8,2.2c-0.3,0.3-0.8,0.6-1.4,1.1c-0.6,0.5-1,0.8-1.3,1l-0.8,0.6c-1.7,1.3-2.3,2.4-2,3.4
	c0.1,0.4,0.5,0.9,1,1.6l2,2.5c2,2.6,4,3.2,5.8,1.8c0.5-0.4,1.1-1,1.8-1.7c0.7-0.7,1.4-1.3,2-1.8c1.7-1.3,3.1-1.2,4.3,0.2
	c1.2,1.5,0.9,2.9-0.9,4.3c-0.3,0.3-1.7,1.2-4.2,2.7c-2.1,1.3-3.9,2.5-5.3,3.7c-0.8,0.7-2.3,1.9-4.3,3.8c-0.3,0.3-1,1-1.9,2
	c-0.8,0.9-1.5,1.5-2,1.9c-1.5,1.2-2.8,1-4-0.5c-1.2-1.5-0.8-2.9,0.9-4.3c0.5-0.4,1.2-0.8,2.1-1.4c1-0.6,1.7-1.1,2.1-1.4
	c1.8-1.4,1.8-3.3-0.1-5.7l-2.2-2.8c-1-1.2-1.7-1.8-2.4-1.7c-0.6,0.1-1.6,0.6-3,1.7l-3.9,3.1c-0.7,0.5-1.5,1.3-2.6,2.2
	c-1.3,1.1-2.2,1.9-2.7,2.2c-1.6,1.4-2.4,2.5-2.3,3.5c0.1,0.7,0.8,1.9,2.1,3.6l6.7,8.5c1.9,2.5,3.6,3.9,5.1,4.2
	c1.5,0.3,3.2-0.3,5.2-1.9c0.6-0.5,1.5-1.3,2.7-2.3c1.2-1,2.1-1.8,2.7-2.3c1.9-1.5,3.4-1.5,4.6,0c1.2,1.6,0.9,3.1-1,4.6
	c-0.8,0.6-1.9,1.5-3.5,2.6c-1.6,1.2-2.8,2-3.5,2.6c-0.6,0.5-1.4,1.2-2.5,2.1c-1.1,1-1.9,1.7-2.5,2.1c-2,1.5-3.7,1.4-5.2-0.6
	c-0.4-0.5-0.9-1.2-1.6-2.3c-0.3-0.5-1-1.5-2.1-2.8c0.2,0.3-1-1.4-3.7-5c-2.7-3.6-5.1-6.7-7.1-9.3c-3.1-3.9-6.3-7.6-9.5-11.2
	c-0.1-0.2-0.3-0.3-0.5-0.5c-0.2-0.2-0.3-0.3-0.3-0.4c-1.4-1.8-1.3-3.2,0.2-4.4c1.3-1.1,2.5-0.9,3.5,0.4c0.2,0.2,0.6,0.8,1.2,1.8
	c0.2,0.6,0.5,1,0.8,1.5c1.7,2.1,4.1,2,7.2-0.5L198.6,891.7z"/>
<path fill="none" stroke="#000000" stroke-miterlimit="10" d="M247.7,994l3.2-7.7c0.3-0.8,0.5-1.5,0.3-1.9c-0.1-0.4-0.6-0.9-1.3-1.7
	l-10.5-9.6c-0.8-0.7-1.5-1.1-2-1.1c-0.5,0-1.6,0.4-3.2,1.2l-5.8,3c-0.6,0.3-1,0.6-1.4,1c-1.1,1.3-1,2.6,0.6,4c0.4,0.4,1,0.8,1.8,1.4
	c0.8,0.6,1.4,1,1.7,1.4c1.6,1.5,1.8,2.9,0.5,4.3c-1.2,1.3-2.7,1.1-4.4-0.5c-0.3-0.3-0.7-0.7-1.2-1.3l-2.7-3
	c-0.5-0.6-1.4-1.4-2.6-2.6c-1.4-1.3-2.4-2.1-3-2.5l-2.7-2c-1.2-0.9-2.1-1.6-2.6-2c-1.5-1.4-1.7-2.7-0.5-4c1.3-1.4,2.6-1.4,4.1,0
	c0.3,0.3,0.5,0.6,0.5,0.9l0.8,0.7c1.1,1,2.2,1.3,3.5,1c0.5-0.1,1.8-0.7,3.7-1.7l38.1-19.7c2.1-1.1,4.1-0.8,6,0.9
	c1.8,1.6,2.3,3.6,1.3,5.8L253.9,997c-1,2.5-1.5,4.2-1.5,5.3c0,1.1,0.5,2.1,1.5,3c0.3,0.3,0.6,0.5,0.8,0.6l1.8,1.3
	c1.5,1.4,1.6,2.7,0.5,4c-1.3,1.4-2.6,1.4-4.1,0c-0.4-0.4-1-1-1.6-1.7c-2.2-2.5-3.9-4.4-5.2-5.5c-1.5-1.3-3.9-3.3-7.5-6
	c-0.9-0.7-1.6-1.2-2-1.6c-1.6-1.4-1.7-2.8-0.5-4.2c1.2-1.3,2.7-1.2,4.4,0.4c0.4,0.3,0.8,0.8,1.5,1.5c0.6,0.7,1.1,1.2,1.5,1.5
	c1.3,1.2,2.4,1.2,3.4,0.2C247,995.9,247.3,995.2,247.7,994z M254.5,978.2l9.5-21.1l-20.3,11.3c-0.3,0.2-0.5,0.3-0.5,0.3
	c-0.3,0.4-0.2,0.8,0.4,1.3l9.4,8.5c0.5,0.4,0.9,0.5,1.1,0.2C254.2,978.7,254.3,978.5,254.5,978.2z"/>
<path fill="none" stroke="#000000" stroke-miterlimit="10" d="M330.3,1029.1c-1.7-0.2-3.7-0.7-6-1.6c2.3,2.2,3.5,4.3,3.5,6.4
	c0,2.1-1,4.9-3.2,8.3l-2,3.1c-0.1,0.2-0.3,0.4-0.5,0.8c-2.1,3.2-2.1,5.5,0,6.8c2.1,1.3,4.3,0.1,6.8-3.7l1.3-2l1.1-1.7l0.6-0.9
	c0.8-1.3,1.5-2.1,2-2.5c0.8-0.5,1.8-0.5,2.8,0.2c1.6,1,1.8,2.5,0.6,4.4c0,0-0.4,0.5-1,1.4l-0.9,1.4c-0.6,0.9-1,1.5-1.2,1.8l-1.1,1.7
	c-0.2,0.2-0.5,0.6-0.8,1.2c-1.7,2.6-3.7,4.2-6.1,4.7c-2.4,0.5-4.9-0.1-7.5-1.7c-5.3-3.4-6.2-7.8-2.8-13.1l1.3-2l1.5-2.3l1-1.5
	c1.9-3,2.6-5.4,2.1-7.1c-0.5-1.7-2.6-3.7-6.1-6l-6.2-4c-1.4-0.9-2.7-0.5-3.8,1.3l-3.3,5.2c-2.1,3.3-3.3,5.2-3.5,5.7
	c-1,2.5-0.6,4.3,1.2,5.5c0.6,0.4,1.1,0.7,1.5,0.8c0.8,0.4,1.4,0.7,1.8,1c1.4,0.9,1.7,2.1,0.7,3.6c-1,1.6-2.5,1.7-4.4,0.5l-0.9-0.8
	l-3.3-2.8c-1.3-1.1-2.4-1.9-3.5-2.6c-1.3-0.9-3-1.8-4.9-2.7l-3.5-1.7c-0.8-0.4-1.1-0.5-1.1-0.5c-1.9-1.2-2.4-2.7-1.3-4.3
	c0.9-1.4,2.1-1.7,3.5-0.8c0.2,0.1,0.8,0.6,1.7,1.3c0.4,0.5,0.8,0.8,1.3,1.1c2.3,1.5,4.5,0.5,6.7-2.8l17.3-26.9
	c2.2-3.4,2.1-5.8-0.2-7.2c-0.4-0.2-0.9-0.5-1.7-0.9c-0.8-0.4-1.3-0.7-1.7-0.9c-0.6-0.4-0.9-0.9-1.1-1.6c-0.1-0.7,0-1.3,0.4-1.9
	c1-1.5,2.5-1.7,4.4-0.4c0.2,0.1,0.5,0.3,0.9,0.7l3.2,2.5c0.8,0.7,1.9,1.4,3.3,2.3c1.4,0.9,3,1.8,4.7,2.8l5.3,3c1.8,1,3.3,2,4.8,2.9
	c9.8,6.3,12.3,13.2,7.5,20.7C338.4,1027.8,334.8,1029.7,330.3,1029.1z M312.1,1016.7l6.3,4.1c3.8,2.4,6.9,3.7,9.5,3.8
	c3.1,0.2,5.7-1.3,7.6-4.3c3.3-5.1,1.4-9.9-5.6-14.4c-3.7-2.4-6.4-3.7-8.1-4c-1.7-0.3-3.1,0.4-4.2,2l-1.4,2.1l-5,7.7
	c-0.5,0.8-0.7,1.3-0.5,1.7C310.9,1015.7,311.3,1016.2,312.1,1016.7z"/>
<path fill="none" stroke="#000000" stroke-miterlimit="10" d="M381.2,1041.6c1.6-3.7,1.1-6-1.4-7.1c-0.4-0.2-1-0.4-1.6-0.5
	c-0.9-0.3-1.6-0.5-2.1-0.7c-1.5-0.7-1.9-1.7-1.3-3.3c0.7-1.7,2.2-2.1,4.4-1.1c0.2,0.1,0.5,0.3,0.9,0.5l3.7,2.2
	c1.4,0.8,2.9,1.6,4.6,2.3c1.4,0.6,2.8,1.1,4.2,1.5l5,1.5c1,0.3,2.2,0.8,3.7,1.4c4.4,1.9,7.9,4.1,10.3,6.7c3.2,3.3,5,7.5,5.6,12.6
	c0.5,5.1-0.4,10.3-2.7,15.8c-2.1,4.8-4.8,8.7-8.3,11.8c-3.5,3.1-7.1,4.8-11,5.3c-4.7,0.6-9.7-0.3-15-2.5c-1.1-0.5-2.2-1-3.2-1.6
	l-4.9-2.6c-1.6-0.9-3.4-1.7-5.3-2.5c-1.6-0.7-3-1.2-4.1-1.5l-3.7-1c-0.1,0-0.3-0.1-0.5-0.1c-0.2-0.1-0.4-0.2-0.6-0.3
	c-2.1-0.9-2.8-2.2-2.1-3.9c0.3-0.7,0.8-1.2,1.4-1.4c0.6-0.3,1.3-0.3,1.9,0c0.5,0.2,1.2,0.6,1.9,1.1c0.3,0.2,0.8,0.5,1.5,0.8
	c2.5,1.1,4.5-0.2,6.1-3.9L381.2,1041.6z M387.7,1043.4l-13.3,31c-1,2.2-0.4,4.1,1.5,5.5c0.6,0.5,2.7,1.5,6,2.9
	c5.9,2.5,10.8,2.7,14.8,0.7c4.8-2.4,8.5-6.8,11.2-13c2.1-4.9,2.9-9.4,2.4-13.7c-0.5-4.2-2.2-7.5-5.1-10c-1.9-1.6-4.3-3-7.4-4.3
	c-3.9-1.7-6.3-2.4-7.4-2.4C389.5,1040.3,388.5,1041.3,387.7,1043.4z"/>
<path fill="none" stroke="#000000" stroke-miterlimit="10" d="M522.8,1117.2l-1.7-8.2c-0.2-0.9-0.4-1.5-0.7-1.7
	c-0.3-0.3-1-0.5-2-0.6l-14-2.1c-1.1-0.2-1.8-0.1-2.3,0.2c-0.4,0.3-1.1,1.2-2,2.8l-3.2,5.7c-0.3,0.5-0.5,1.1-0.6,1.6
	c-0.3,1.7,0.6,2.7,2.7,3c0.5,0.1,1.3,0.1,2.3,0.2c1,0,1.7,0.1,2.2,0.2c2.2,0.3,3.1,1.4,2.8,3.3c-0.3,1.7-1.6,2.4-3.9,2.1
	c-0.4-0.1-1-0.2-1.7-0.4l-3.9-1c-0.7-0.2-1.9-0.4-3.6-0.7c-1.8-0.3-3.1-0.4-3.9-0.5l-3.4-0.1c-1.5-0.1-2.6-0.2-3.3-0.3
	c-2-0.3-2.9-1.3-2.7-3.1c0.3-1.8,1.4-2.6,3.4-2.3c0.4,0.1,0.7,0.2,0.9,0.5l1,0.2c1.4,0.2,2.6-0.2,3.5-1.2c0.4-0.4,1.1-1.5,2.1-3.5
	l20.7-37.6c1.2-2.1,3-2.9,5.5-2.6c2.4,0.4,3.9,1.7,4.3,4l8.2,41.3c0.5,2.6,1.1,4.4,1.7,5.3c0.6,0.9,1.6,1.5,3,1.7
	c0.4,0.1,0.7,0.1,1,0l2.2,0.1c2,0.3,2.9,1.3,2.6,3.1c-0.3,1.8-1.4,2.6-3.4,2.3c-0.6-0.1-1.3-0.3-2.3-0.5c-3.3-0.9-5.7-1.4-7.3-1.7
	c-1.9-0.3-5.1-0.6-9.5-0.9c-1.1-0.1-2-0.2-2.5-0.2c-2.1-0.3-3-1.4-2.7-3.2c0.3-1.8,1.6-2.5,3.9-2.2c0.5,0.1,1.2,0.2,2.1,0.5
	c0.9,0.2,1.6,0.4,2.1,0.5c1.7,0.3,2.7-0.3,2.9-1.7C523.2,1119.2,523.1,1118.4,522.8,1117.2z M519.6,1100.3l-3.8-22.8l-10.5,20.7
	c-0.2,0.3-0.2,0.5-0.2,0.5c-0.1,0.5,0.3,0.8,1.1,0.9l12.5,1.9c0.6,0.1,1-0.1,1-0.5C519.6,1100.8,519.6,1100.6,519.6,1100.3z"/>
<path fill="none" stroke="#000000" stroke-miterlimit="10" d="M583.3,1092.9l0,2.3c3.1-4.1,7.4-6.1,12.7-6.2c2.9,0,5.6,0.7,8.2,2.1
	c2.6,1.4,4.3,3.2,5.2,5.4c0.8,1.8,1.2,4.2,1.2,7.1l0.1,15.2c0,2.3,0.1,3.6,0.1,4.1c0.3,1.8,1,2.7,2.2,2.7c0.5,0,1.1-0.1,1.9-0.2
	c0.8-0.1,1.3-0.2,1.6-0.2c0.7,0,1.3,0.2,1.8,0.7c0.5,0.5,0.8,1.1,0.8,1.7c0,0.8-0.3,1.5-0.9,2c-0.6,0.5-1.4,0.8-2.3,0.8
	c-0.7,0-2-0.1-3.7-0.3c-1.7-0.2-3.3-0.3-4.8-0.3c-1.4,0-2.5,0.1-3.4,0.2c-2.7,0.3-4.1,0.5-4.2,0.5c-2.1,0-3.2-0.9-3.2-2.8
	c0-1.6,0.9-2.5,2.7-2.5c0.4,0,0.9,0,1.5,0.1c1,0.2,1.7,0.3,2,0.3c1.3,0,2-1.5,2.1-4.4l0-4.1l0-4.9l-0.1-6.1c0-2.8-0.2-4.8-0.5-5.8
	c-0.5-2-1.5-3.6-3.1-4.7c-1.8-1.2-3.8-1.8-6-1.8c-4.2,0-7.3,1.6-9.1,4.6c-1.2,2.1-1.9,5.6-1.8,10.6l0.1,10.6c0,2.3,0.2,3.9,0.5,4.8
	c0.3,0.8,0.9,1.3,1.8,1.3c0.4,0,1-0.1,1.8-0.3c0.7-0.2,1.4-0.3,1.8-0.3c1.6,0,2.5,0.9,2.5,2.6c0,1.7-1,2.6-3.2,2.6
	c-0.4,0-1.8-0.1-4.1-0.4c-1.2-0.1-2.5-0.2-3.9-0.2c-1.1,0-2.6,0.1-4.5,0.4c-2.3,0.3-3.7,0.4-4,0.4c-2.2,0-3.4-0.9-3.4-2.7
	c0-1.7,0.8-2.6,2.6-2.6c0.3,0,0.8,0.1,1.5,0.2c0.7,0.2,1.4,0.2,2.2,0.2c1.6,0,2.4-1.6,2.5-4.7l-0.1-8.9l-0.1-9.7l0-2.8
	c-0.1-1.8-0.4-3-0.7-3.7c-0.4-0.7-1-1-1.8-1c-0.4,0-0.9,0.1-1.7,0.3c-0.7,0.2-1.3,0.3-1.7,0.3c-1.9,0-2.9-0.8-2.9-2.6
	c0-1.8,1.2-2.7,3.6-2.7c0.3,0,0.6,0,0.8,0.1l3,0.3c0.9,0,1.6-0.1,2.2-0.2c1.4-0.1,2.1-0.2,2.2-0.2
	C582.5,1090.5,583.3,1091.3,583.3,1092.9z"/>
<path fill="none" stroke="#000000" stroke-miterlimit="10" d="M662.3,1083.4c5.2-0.8,9.4,0.6,12.6,4.2l-1.3-8
	c-0.3-2.1-0.6-3.4-0.8-3.8c-0.5-1.6-1.4-2.3-2.6-2.1c-0.4,0.1-1,0.3-1.7,0.6c-0.7,0.3-1.3,0.5-1.7,0.6c-1.9,0.3-3-0.4-3.3-2.1
	c-0.3-1.8,0.9-2.9,3.5-3.3c0.4-0.1,1.2-0.1,2.3-0.2c1.7-0.1,2.6-0.2,2.6-0.2c0.5-0.1,1.1-0.3,2-0.5c0.9-0.3,1.5-0.5,2-0.5
	c1.5-0.2,2.4,0.7,2.7,2.8l0.1,0.9c0,0.2,0.1,1.6,0.5,4.2c0,0.3,0.3,2.4,0.7,6.1c0.3,2.6,0.6,4.7,0.8,6l1.2,7.7l2.1,13.2
	c0.6,3.5,1.1,5.6,1.5,6.4c0.4,0.8,1.1,1.1,2.1,1c0.7-0.1,1.2-0.2,1.6-0.4c0.8-0.2,1.4-0.4,1.7-0.4c2-0.3,3.1,0.4,3.4,2.1
	c0.3,1.8-0.8,2.8-3.1,3.2c-0.5,0.1-1.3,0.1-2.4,0.2c-1.1,0-1.9,0.1-2.4,0.2c-0.2,0-0.8,0.2-1.8,0.4c-0.6,0.3-1.1,0.4-1.6,0.5
	c-1.4,0.2-2.3-0.6-2.6-2.5l-0.1-0.4l-0.2-1.3c-2.2,4.2-5.9,6.7-11.2,7.5c-5.3,0.9-9.9-0.4-13.8-3.8c-3.9-3.4-6.3-8.2-7.3-14.5
	c-1-6.4-0.2-11.7,2.4-16C652.9,1086.9,656.9,1084.3,662.3,1083.4z M678,1109.4c-0.1-1.8-0.3-4-0.8-6.7c-0.6-3.5-1.1-5.9-1.5-7.1
	c-0.9-2.5-2.4-4.4-4.4-5.6c-2.4-1.4-5-1.9-7.7-1.4c-3.7,0.6-6.4,2.5-8,5.6c-1.6,3.1-2.1,7.1-1.3,11.9c0.8,5,2.5,8.7,5.1,11.3
	c2.6,2.5,5.8,3.5,9.6,2.9c2.9-0.5,5.1-1.7,6.8-3.6C677.4,1114.6,678.2,1112.2,678,1109.4z"/>
<path fill="none" stroke="#000000" stroke-miterlimit="10" d="M762.8,1055.1c-1.5-3.7-3.4-5-6-4c-0.7,0.3-1.2,0.5-1.5,0.8
	c-0.7,0.5-1.4,0.8-1.9,1c-0.6,0.3-1.3,0.2-1.9-0.1c-0.6-0.3-1.1-0.8-1.4-1.5c-0.7-1.7,0.1-3,2.2-3.9c0.3-0.1,0.7-0.2,1.1-0.3l4.1-1
	c1.6-0.4,3.1-0.9,4.7-1.5c1.5-0.6,3.2-1.4,4.9-2.4l3.2-1.8c0.4-0.2,0.7-0.4,1-0.5c2.2-0.9,3.6-0.4,4.3,1.3c0.3,0.7,0.3,1.4,0,2
	c-0.3,0.6-0.7,1.1-1.4,1.4c-0.5,0.2-1.2,0.4-2.1,0.6c-0.4,0-0.9,0.2-1.6,0.5c-2.5,1-3.1,3.3-1.6,7l11.8,29.8c1.5,3.7,3.5,5.1,6,4.1
	c0.4-0.2,0.9-0.4,1.5-0.8c0.9-0.5,1.5-0.9,1.9-1c1.5-0.6,2.6-0.1,3.2,1.5c0.7,1.8,0,3.1-2.2,4c-0.1,0-0.3,0.1-0.5,0.2
	c-0.2,0-0.4,0.1-0.5,0.1l-4.1,0.9c-1.4,0.3-2.8,0.8-4.2,1.3c-2.1,0.8-3.9,1.7-5.4,2.6l-3.2,1.9c-0.1,0-0.3,0.1-0.5,0.3
	c-0.2,0.1-0.4,0.2-0.6,0.2c-2.1,0.8-3.5,0.4-4.2-1.4c-0.6-1.6-0.2-2.7,1.4-3.3c0.2-0.1,0.9-0.3,2.1-0.6c0.6-0.1,1.2-0.2,1.6-0.4
	c2.5-1,3-3.4,1.6-7.1L762.8,1055.1z"/>
<path fill="none" stroke="#000000" stroke-miterlimit="10" d="M810,1031.6c-0.4-0.8-1-0.9-2-0.5l-1.4,0.7c-1,0.4-2,0.4-3.2,0
	c-1.2-0.5-2-1.3-2.6-2.4c-0.7-1.3-0.8-2.7-0.3-4.1c0.5-1.4,1.4-2.5,2.8-3.2c1.6-0.8,3.3-0.9,5-0.1c1.7,0.8,3.1,2.1,4.2,4.2
	c2,3.9,2.6,8.6,1.6,13.9c-0.4,2-0.9,3.3-1.7,3.7c-0.9,0.5-1.7,0.3-2.2-0.7c-0.2-0.3-0.2-1,0-2c0.3-1.6,0.4-3.4,0.4-5.4
	C810.7,1033.8,810.4,1032.4,810,1031.6z"/>
<path fill="none" stroke="#000000" stroke-miterlimit="10" d="M854.7,1014.3l1.3,1.9c0.2-3,0.8-5.3,1.7-7c0.9-1.7,2.3-3.3,4.4-4.8
	c4.2-3,8.5-3.6,12.9-1.7c0.2-2.9,0.8-5.2,1.7-7c1-1.8,2.7-3.6,5.1-5.3c2.5-1.8,5-2.8,7.7-3.2c3-0.4,5.7,0.2,8,1.7
	c1.6,1,3.5,3.1,5.7,6.2l4.5,6.3l3.5,4.9c1.3,1.8,2.1,2.8,2.4,3.2c1.3,1.4,2.4,1.8,3.3,1.1c0.3-0.2,0.7-0.6,1.2-1.2
	c0.5-0.6,0.9-1,1.2-1.2c1.5-1.1,2.7-0.9,3.7,0.4c1.1,1.5,0.8,2.9-1,4.2c-0.6,0.5-1.7,1.1-3.1,1.9c-1.4,0.8-2.5,1.4-3.2,1.9
	c-0.7,0.5-1.8,1.4-3,2.5c-1.3,1.2-2.3,2-3.1,2.5c-1.8,1.3-3.3,1.2-4.4-0.4c-0.9-1.3-0.7-2.5,0.7-3.5c0.2-0.1,0.6-0.4,1.4-0.8
	c0.3-0.1,0.7-0.3,1.2-0.6c0.7-0.5,0.9-1.2,0.6-2.1c-0.3-0.9-1.5-2.8-3.6-5.8l-2.8-4l-3.1-4.3c-2.1-3-3.9-5-5.3-6
	c-1.4-1-3-1.5-4.8-1.4c-1.8,0.1-3.5,0.7-5.1,1.9c-3.1,2.2-4.4,4.8-4.1,7.7c0.3,2.4,1.9,5.6,4.9,9.8l3.3,4.6c2.9,4.1,4.8,6.5,5.7,7.4
	c0.9,0.9,1.8,1,2.6,0.4c0.3-0.2,0.6-0.5,1-1c0.4-0.5,0.8-0.8,1-1c0.6-0.4,1.3-0.6,2-0.5c0.7,0.1,1.3,0.5,1.7,1.1
	c1,1.4,0.5,2.9-1.5,4.3c-0.6,0.5-1.7,1.1-3.1,1.8c-1.4,0.7-2.4,1.3-3.1,1.8c-0.9,0.6-1.8,1.4-2.8,2.4c-1,0.9-1.8,1.7-2.7,2.3
	c-1.8,1.3-3.2,1.2-4.3-0.3c-1-1.4-0.8-2.5,0.5-3.4c0.5-0.3,0.9-0.5,1.2-0.6c0.7-0.2,1.3-0.5,1.6-0.7c1-0.7,0.8-2.2-0.7-4.5l-2-3.2
	c-0.7-1-1.3-1.9-2-2.8c-0.6-0.8-0.9-1.2-0.9-1.2l-3.9-5.4c-2.7-3.8-5.1-6-7.1-6.8c-2.1-0.8-4.4-0.2-7,1.7c-2.9,2-4.3,4.6-4.3,7.8
	c0,2.6,1.4,6,4.4,10.2l6.2,8.7c1.2,1.7,2,2.7,2.2,3c1.2,1.4,2.2,1.8,3,1.2c0.2-0.2,0.6-0.6,1.1-1.3c0.1-0.1,0.2-0.2,0.3-0.4
	c0.2-0.1,0.3-0.2,0.5-0.3c1.7-1.2,3-1.1,4.1,0.4c1,1.4,0.5,2.8-1.4,4.2c-0.7,0.5-1.7,1.1-2.9,1.8c-1.6,0.9-2.9,1.7-3.9,2.4
	c-0.5,0.4-1.4,1.1-2.7,2.2c-1.7,1.5-2.8,2.4-3.2,2.7c-1.7,1.2-3.1,1.1-4.2-0.4c-1-1.4-0.6-2.6,1.1-3.8c0.1-0.1,0.2-0.2,0.4-0.3
	c0.2-0.1,0.4-0.2,0.4-0.2l1.9-0.9c0.1,0,0.2,0,0.3-0.1c1.2-0.8,1.1-2.4-0.4-4.5l-2.6-3.7l-7.1-9.9c-2.6-3.7-4.3-5.9-5.2-6.7
	c-0.8-0.8-1.7-0.8-2.6-0.2c-0.2,0.1-0.7,0.7-1.6,1.6c-0.4,0.4-0.7,0.7-0.9,0.9c-1.6,1.1-2.9,1-3.9-0.4c-1-1.5-0.7-2.8,1.1-4.1
	c0.5-0.3,1.2-0.8,2-1.3c0.9-0.5,1.6-1,2.2-1.4c0.2-0.2,0.5-0.3,0.7-0.5c0.3-0.2,0.4-0.3,0.5-0.3l1.4-1.4l0.2-0.1
	C852.8,1012.8,853.8,1013,854.7,1014.3z"/>
<path fill="none" stroke="#000000" stroke-miterlimit="10" d="M978.8,941.2l-24.7-20.2c-3-2.5-5.4-2.7-7.1-0.6
	c-0.3,0.3-0.6,0.8-1,1.4c-0.5,0.9-0.9,1.4-1.2,1.8c-1.1,1.3-2.3,1.4-3.6,0.3c-1.4-1.2-1.4-2.7,0.1-4.5c0.2-0.3,0.5-0.6,0.8-0.9
	l2.8-2.7c0.9-0.9,2-2.1,3.2-3.5c0.8-1,1.8-2.3,2.8-3.8c2.5-3.6,4.4-6.3,5.8-8c2.2-2.6,4.2-4.7,6.2-6.3c2.8-2.2,5.8-3.3,9.1-3.2
	c3.2,0.1,6.3,1.3,9,3.6c3.9,3.2,5.7,6.9,5.6,11.3c-0.1,4.3-2.2,9-6.3,14l-3.6,4.4c-1.1,1.4-1.8,2.2-2,2.4l-0.1,0.1
	c-0.5,0.7-0.8,1.2-0.7,1.5c0.1,0.4,0.5,0.9,1.3,1.6l1.2,1c5.2,4.3,8.5,6.7,9.8,7.3c1.4,0.6,2.6,0.2,3.9-1.3c0.4-0.5,0.7-0.9,0.9-1.4
	c0.7-1,1.1-1.6,1.2-1.8c1-1.3,2.2-1.4,3.5-0.3c1.5,1.2,1.5,2.7,0,4.5l-0.8,0.8l-3,2.7c-0.8,0.8-2,2-3.4,3.7
	c-1.2,1.4-2.1,2.7-2.7,3.7l-2.4,4c-0.1,0.1-0.1,0.2-0.2,0.4c-0.1,0.2-0.3,0.3-0.4,0.4c-1.5,1.8-3,2.2-4.4,1c-0.6-0.5-0.9-1.1-1-1.7
	c-0.1-0.7,0.1-1.3,0.5-1.8c0.4-0.5,0.9-1,1.5-1.5c0.3-0.2,0.7-0.6,1.2-1.2C982.6,946,981.9,943.7,978.8,941.2z M955.5,912.6
	c0.2,0.6,1.2,1.7,3,3.2l9.1,7.5c1.1,0.9,2.4,0.7,3.8-0.8c-0.1,0.1,0.9-1.1,2.9-3.6c2.4-2.9,4.2-5.5,5.3-7.8
	c2.1-4.4,1.2-8.2-2.7-11.4c-5.2-4.3-10.6-3.1-16,3.6C956.9,908.2,955.1,911.4,955.5,912.6z"/>
<path fill="none" stroke="#000000" stroke-miterlimit="10" d="M1024.7,842c-0.1,1.7-0.6,3.7-1.3,6.1c2.1-2.4,4.2-3.7,6.3-3.8
	c2.1-0.1,4.9,0.8,8.4,2.8l3.2,1.8c0.2,0.1,0.5,0.3,0.8,0.5c3.3,1.9,5.6,1.8,6.8-0.3c1.2-2.1-0.1-4.3-4-6.6l-2.1-1.2l-1.7-1l-1-0.6
	c-1.3-0.8-2.2-1.4-2.6-1.9c-0.6-0.8-0.5-1.8,0.1-2.8c1-1.7,2.4-1.9,4.3-0.8c0,0,0.5,0.3,1.5,1l1.4,0.8c1,0.6,1.6,0.9,1.9,1.1l1.7,1
	c0.2,0.2,0.7,0.5,1.2,0.8c2.7,1.5,4.3,3.5,4.9,5.9c0.6,2.4,0.2,4.9-1.4,7.5c-3.2,5.4-7.5,6.5-13,3.3l-2.1-1.2l-2.4-1.4l-1.5-0.9
	c-3.1-1.8-5.5-2.4-7.1-1.8c-1.7,0.6-3.6,2.7-5.7,6.4l-3.7,6.4c-0.9,1.5-0.4,2.7,1.4,3.8l5.3,3.1c3.4,2,5.4,3.1,5.9,3.2
	c2.5,0.9,4.4,0.4,5.5-1.4c0.4-0.6,0.6-1.1,0.8-1.5c0.4-0.8,0.7-1.5,0.9-1.9c0.9-1.5,2-1.8,3.6-0.9c1.6,0.9,1.8,2.4,0.7,4.4l-0.7,1
	l-2.6,3.4c-1,1.3-1.8,2.5-2.5,3.6c-0.8,1.4-1.6,3.1-2.5,5l-1.5,3.5c-0.3,0.8-0.5,1.2-0.5,1.1c-1.2,2-2.6,2.5-4.2,1.5
	c-1.5-0.9-1.8-2-1-3.4c0.1-0.2,0.5-0.8,1.2-1.8c0.4-0.4,0.8-0.9,1-1.3c1.4-2.3,0.3-4.5-3.1-6.5l-27.7-16.1c-3.5-2-5.9-1.8-7.2,0.5
	c-0.2,0.4-0.5,0.9-0.8,1.7c-0.3,0.8-0.6,1.4-0.8,1.7c-0.3,0.6-0.9,1-1.5,1.1c-0.7,0.2-1.3,0.1-1.9-0.3c-1.6-0.9-1.8-2.4-0.6-4.4
	c0.1-0.2,0.3-0.5,0.6-0.9l2.4-3.3c0.6-0.9,1.3-2,2.1-3.4c0.8-1.4,1.7-3,2.6-4.8l2.8-5.4c0.9-1.8,1.8-3.4,2.7-4.9
	c5.9-10.1,12.7-12.9,20.4-8.4C1023,834,1025.1,837.6,1024.7,842z M1013.1,860.8l3.8-6.5c2.2-3.9,3.4-7.1,3.4-9.6
	c0-3.1-1.5-5.6-4.6-7.4c-5.2-3-10-1-14.1,6.2c-2.2,3.8-3.4,6.6-3.7,8.3c-0.2,1.7,0.5,3.1,2.2,4.1l2.2,1.3l7.9,4.6
	c0.8,0.5,1.4,0.6,1.7,0.4C1012.2,862,1012.6,861.6,1013.1,860.8z"/>
<path fill="none" stroke="#000000" stroke-miterlimit="10" d="M1081.8,792.1c-2.5,6.6-6.9,10.9-13.1,13c-6.2,2-13.4,1.5-21.6-1.6
	c-8.3-3.1-14-7.5-17.2-13.2c-3.2-5.7-3.5-11.9-1-18.7c2.5-6.5,6.7-10.8,12.8-12.9c6-2.1,13-1.7,20.8,1.3c8.5,3.2,14.4,7.7,17.9,13.5
	S1084.3,785.4,1081.8,792.1z M1034.2,773.8c-1.8,4.8-1.4,9.2,1.3,13.2c2.7,4,7.3,7.3,14,9.9c6.8,2.6,12.5,3.3,17.2,2
	c4.7-1.2,8-4.2,9.8-8.9c1.8-4.6,1.2-9-1.6-13.2c-2.8-4.2-7.5-7.5-14.2-10c-6.7-2.5-12.3-3.2-16.9-2
	C1039.2,766,1036,769,1034.2,773.8z"/>
<path fill="none" stroke="#000000" stroke-miterlimit="10" d="M1061.2,714.3l5,1l6.2,1.8l12.1,2.5c3.7,0.8,6.4,0.9,8.2,0.5
	s3.5-1.7,4.9-3.7c1.3-1.9,2.2-3.9,2.7-6.1c0.6-2.9,0.6-5.4-0.1-7.7c-0.7-2.3-1.9-3.9-3.6-4.9c-1.7-1-4-1.8-6.9-2.5l-20.1-4.2
	c-4-0.8-6.2-1.2-6.8-1.2c-2.8-0.1-4.4,0.9-4.8,3.1c-0.1,0.4-0.1,0.9-0.2,1.6c-0.1,1-0.2,1.7-0.2,2.1c-0.1,0.7-0.5,1.2-1.1,1.6
	c-0.6,0.4-1.3,0.5-1.9,0.4c-1.8-0.4-2.5-1.7-2.1-4c0.1-0.4,0.2-0.7,0.3-1.1l1.6-4.5c0.4-1.1,0.7-2.4,1-3.9c0.3-1.4,0.5-2.6,0.5-3.6
	l0.2-3.5c0-1,0.1-1.6,0.2-1.9c0.5-2.2,1.6-3.1,3.3-2.7c1.8,0.4,2.4,1.6,2,3.8l-0.2,0.9c0,0.2-0.1,0.4-0.2,0.8
	c-0.3,1.6,0.3,2.7,1.7,3.4c1.5,0.7,5.4,1.7,11.9,3l13.6,2.8c3.4,0.7,5.8,1.3,7.3,1.8c2.5,1,4.6,2.3,6.2,4.1c3.9,4.1,5,9.8,3.5,17.3
	c-1.9,9.2-6.1,14.4-12.7,15.8c-2,0.5-4.9,0.3-8.7-0.5c-1.9-0.4-4.6-1-8.2-2c-3.6-0.9-6.4-1.6-8.2-2l-4.1-0.9
	c-3.8-0.8-5.9-1.2-6.4-1.3c-2.9-0.2-4.6,0.5-4.9,2.1c0,0.1-0.1,0.3-0.1,0.5c-0.1,0.3-0.1,0.5-0.1,0.7c0,0.2-0.1,0.5-0.2,1
	c-0.5,2.2-1.6,3.1-3.3,2.7c-1.8-0.4-2.5-1.5-2-3.5c0.2-0.8,0.4-1.7,0.8-2.6c0.9-2.5,1.7-4.8,2.1-7c0.5-2.2,0.8-4.9,0.9-7.9
	c0-0.6,0.1-1.3,0.3-2.1c0.4-2.1,1.6-3,3.3-2.6c1.8,0.4,2.5,1.5,2.1,3.3c-0.1,0.4-0.3,1-0.6,1.8c-0.3,0.8-0.5,1.4-0.6,1.8
	c-0.3,1.7,0.3,3,2,3.9C1057.2,713.3,1058.8,713.8,1061.2,714.3z"/>
<path fill="none" stroke="#000000" stroke-miterlimit="10" d="M1071,640.4c-4-0.2-6,1.1-6.1,3.8c0,0.5,0,1,0.1,1.7
	c0.1,1,0.1,1.7,0.1,2.2c-0.1,1.6-0.9,2.4-2.6,2.4c-1.8-0.1-2.7-1.3-2.6-3.7c0-0.3,0.1-0.6,0.1-1l0.7-4.2c0.3-1.6,0.5-3.3,0.5-5.1
	c0.1-1.5,0-3-0.1-4.5l-0.3-5.2c-0.1-1-0.1-2.3,0-4c0.2-4.8,1.1-8.8,2.6-12c2-4.2,5.3-7.4,9.8-9.7c4.6-2.3,9.8-3.3,15.7-3
	c5.2,0.2,9.9,1.4,13.9,3.5c4.1,2.1,7,5,8.9,8.4c2.2,4.2,3.2,9.2,3,15c0,1.2-0.2,2.4-0.3,3.6l-0.7,5.5c-0.2,1.9-0.4,3.8-0.5,5.8
	c-0.1,1.8-0.1,3.2,0.1,4.3l0.4,3.8c0,0.1,0,0.3,0.1,0.6c0,0.3,0,0.5,0,0.6c-0.1,2.3-1.1,3.4-2.9,3.3c-0.7,0-1.4-0.3-1.8-0.8
	c-0.5-0.5-0.7-1.1-0.7-1.8c0-0.6,0.1-1.3,0.3-2.1c0.1-0.4,0.2-0.9,0.2-1.7c0.1-2.7-1.8-4.1-5.8-4.3L1071,640.4z M1070.4,633.7
	l33.7,1.4c2.4,0.1,4-1,4.6-3.4c0.2-0.8,0.4-3,0.6-6.7c0.3-6.4-1.3-11.1-4.6-14.1c-4-3.6-9.4-5.6-16.2-5.9c-5.3-0.2-9.8,0.6-13.6,2.6
	c-3.8,1.9-6.3,4.7-7.5,8.3c-0.8,2.3-1.3,5.1-1.4,8.4c-0.2,4.2,0,6.8,0.4,7.7C1066.9,633.1,1068.2,633.6,1070.4,633.7z"/>
<path fill="none" stroke="#000000" stroke-miterlimit="10" d="M1079.3,426.7c0,8-6.5,14.5-14.5,14.5c-8,0-14.5-6.5-14.5-14.5
	c0-8,6.5-14.5,14.5-14.5C1072.8,412.2,1079.3,418.7,1079.3,426.7z"/>
<circle fill="none" stroke="#000000" stroke-miterlimit="10" cx="114.1" cy="426.7" r="14.5"/>
</svg>
