<?xml version="1.0"?>
<svg width="1171.3" height="1171.3" xmlns="http://www.w3.org/2000/svg">

 <g>
  <title>background</title>
  <rect fill="none" id="canvas_background" height="902.6" width="761.5" y="-1" x="-1"/>
 </g>
 <g>
  <title>Layer 1</title>
  <path id="svg_1" d="m585.599976,0.5c-323.099976,0 -585.099976,262 -585.099976,585.099976c0,323.200012 262,585.099976 585.099976,585.099976c323.200012,0 585.099976,-262 585.099976,-585.099976c0.100098,-323.099976 -261.899963,-585.099976 -585.099976,-585.099976zm0,1013.200012c-236.399994,0 -428.100006,-191.700012 -428.100006,-428.100037c0,-236.399963 191.699982,-428.099976 428.100006,-428.099976c236.399963,0 428.100037,191.700012 428.100037,428.099976c0,236.5 -191.600037,428.100037 -428.100037,428.100037z" stroke-miterlimit="10" stroke="#000000" fill="none"/>
  <g id="XMLID_4_">
   <g id="svg_2"/>
   <g id="svg_3">
    <path id="svg_4" d="m891.900024,352.5c-5.5,12.299988 -3.099976,23.700012 -5.599976,37.100006c21.5,15.899994 48.799988,26.199982 59.299988,51.899994c13.899963,34.200012 -4.200012,77.700012 0,116.799988c1.899963,18.299988 13.5,35 9.299988,55.600037c-1.799988,8.899963 -10.5,16.699951 -14.799988,26c-11.799988,25.399963 -17.900024,62.399963 -33.400024,83.399963c-14.599976,19.900024 -39.5,29 -55.599976,46.400024c-12.100037,13 -16.700012,31.299988 -31.5,38.899963c14.299988,16.5 29.299988,8.900024 48.200012,16.700012c-0.200012,9.800049 -3,11.300049 5.599976,13c-5.900024,24.600037 1.200012,52.100037 -11.099976,76c-3.5,6.700012 -12.200012,10.300049 -16.700012,16.700012c-4.5,6.299988 -6.400024,15.200012 -11.100037,22.299988c-4.299988,6.300049 -11.799988,11.400024 -14.799988,16.700012c-2,3.400024 -0.299988,9.700012 -1.899963,13c-5.800049,12.799988 -16.600037,17.600037 -24.100037,27.799988c-5.799988,0.900024 -7.299988,-2.599976 -11.099976,-3.699951c-11.799988,2.599976 -11.299988,24.599915 -27.799988,16.699951c-3.900024,0.500061 -0.5,8.100037 -3.700012,9.299988c-36.200012,11.099976 -73.100037,15.800049 -105.700012,22.300049c-5.700012,0.199951 -10.299988,-0.800049 -13,-3.700073c-50.299988,8.300049 -98,-2.899902 -150.199982,-11.099976c-11.800018,-9.400024 -26.100006,-12.400024 -44.5,-11.099976c-4.700012,-3.400024 -8.100006,-7.900024 -9.300018,-14.799988c-5,0 -9.899994,0 -14.799988,0c-3.100006,-5.600037 -3,-14.299988 -14.800018,-11.100037c-3.899994,-5.399963 -2.399994,-16.199951 -14.799988,-13c0,-2.5 0,-5 0,-7.399963c-25,-10.400024 -24.5,-37.099976 -44.5,-50.099976c1.299988,-9 -7.799988,-14.5 -1.899994,-22.300049c-0.5,-5.599976 -9.800018,-2.599976 -11.100006,-7.399963c-3.200012,-27.700012 13.699982,-62.600037 33.399994,-83.400024c-27.899994,-36.299988 -89.399994,-26.599976 -116.800003,-68.599976c-7.699997,-11.900024 -7.5,-37.600037 -13,-53.799988c-12.299988,-36.300049 -54.899994,-64.800049 -51.899994,-115c5,-84.800018 49.599991,-195.600037 90.900009,-248.500031c8.299988,-10.700012 23.299988,-18.899994 31.5,-24.100006c23.099976,-3.399994 48.799988,7.200012 74.199982,0c11.200012,-3.199982 17.5,-19.199982 26,-29.699982c11.899994,-14.700012 30.700012,-38.100006 44.5,-51.900009c19.600006,-19.600006 42.300018,-24 76.000031,-33.400009c65,-18 137.199951,-11.099991 202.099976,11.100006c17,5.800003 76.799988,18.300003 90.900024,33.399994c25.099976,27.100006 3.599976,125.899994 66.799988,120.5c5.199951,-0.700012 8.899963,-3.299988 10.799988,-7.5z" stroke-miterlimit="10" stroke="#000000" fill="none"/>
    <path id="svg_5" d="m535.900024,278.399994c0.799988,-13.299988 31,-27.199997 50.099976,-16.700012c12,14.600006 6.900024,46.300018 16.700012,63.100006c3.600037,-2.5 1,-11.399994 3.700012,-14.799988c9.599976,14.5 9.5,38.799988 20.400024,51.899994c3.399963,-9.600006 3.5,-22.5 7.399963,-31.5c3.799988,0.5 3.600037,5 7.400024,5.600006c0.299988,-12 -3.200012,-20.300018 -3.700012,-31.5c1.5,1 3,1.899994 5.599976,1.899994c-1.299988,-13 3.100037,-20.399994 1.900024,-33.399994c9.400024,13.5 14.900024,30.799988 27.799988,40.799988c2.600037,-7.899994 3.799988,-7.600006 11.100037,-3.699982c0,-8 0,-16.100006 0,-24.100006c9.899963,13.5 19.599976,27.399994 35.199951,35.199982c4.200012,-2 0.700012,-11.699982 1.900024,-16.699982c12.900024,16.799988 35.5,23.799988 44.5,44.5c-4.5,-2.900024 -11,-3.800018 -14.799988,-7.400024c-0.700012,12.400024 5.299988,18.200012 7.399963,27.800018c-17.099976,-6.399994 -29.199951,-17.800018 -44.5,-26c-4,-0.300018 -0.799988,6.600006 -1.899963,9.299988c-6,1.600006 -2.5,-6.100006 -7.400024,-5.600006c-4.200012,2 -0.700012,11.700012 -1.899963,16.700012c-8,-4.899994 -15,-11 -22.300049,-16.700012c-6.399963,13.200012 -2.399963,31.800018 1.900024,44.5c-14.200012,-8.099976 -20.799988,-23.699982 -33.400024,-33.399994c-3.099976,24.700012 4.300049,38.899994 13,51.899994c-15.099976,-5.299988 -23.899963,-16.899994 -31.5,-29.699982c-5.199951,18.199982 5.5,36.5 14.800049,46.399994c-40.400024,-13.899994 -51.800049,-64 -55.600037,-116.799988c-1.5,-21.100006 -5,-34.300018 -20.399963,-42.700012c-15.600037,-0.799988 -26.600037,3 -33.400024,11.100006z" stroke-miterlimit="10" stroke="#000000" fill="none"/>
    <path id="svg_6" d="m491.399994,729c-1.600006,-7.200012 4.5,-6.599976 5.600006,-11.099976c2.5,0.599976 1.5,4.599976 1.899994,7.399963c1.200012,0 2.5,0 3.700012,0c1.599976,0.299988 1.699982,-0.700012 1.899994,-1.899963c5.600006,0 11.099976,0 16.700012,0c-0.799988,4.199951 -9.100037,0.799988 -13.000031,1.899963c-6.099976,0.799988 -10.199982,3.5 -16.799988,3.700012z" stroke-miterlimit="10" stroke="#000000" fill="none"/>
    <path id="svg_7" d="m578.5,699.299988c4.400024,-4.299988 16.700012,-0.700012 24.099976,-1.900024c-4.299988,4.300049 -16.599976,0.700012 -24.099976,1.900024z" stroke-miterlimit="10" stroke="#000000" fill="none"/>
    <path id="svg_8" d="m574.799988,697.5c-20.599976,5.599976 -24.799988,-2.299988 0,0l0,0z" stroke-miterlimit="10" stroke="#000000" fill="none"/>
    <path id="svg_9" d="m645.299988,695.599976c-18,4.5 -57.200012,0.400024 -20.400024,0c8.000061,-0.099976 14.100037,0.100037 20.400024,0z" stroke-miterlimit="10" stroke="#000000" fill="none"/>
    <path id="svg_10" d="m550.700012,699.299988c-0.5,3.5 -41.899994,9.299988 -16.700012,1.900024c3,-0.900024 10.400024,-1.5 16.700012,-1.900024z" stroke-miterlimit="10" stroke="#000000" fill="none"/>
    <path id="svg_11" d="m686.099976,734.5c19.400024,-11.099976 13.900024,-9.5 7.400024,-16.700012c-9.300049,-11.700012 -25.600037,-16.5 -44.5,-18.5c15.799988,-2 50.699951,8.5 55.599976,29.700012c-50.299988,34.799988 -155.900024,38.599976 -211.399994,5.599976c44.399994,19.200012 133.600006,33.100037 183.600006,3.700012l9.299988,-3.799988z" stroke-miterlimit="10" stroke="#000000" fill="none"/>
    <path id="svg_12" d="m615.599976,680.799988c4.400024,1.099976 13.5,-2.299988 14.799988,1.900024c-5,0 -9.899963,0 -14.799988,0c-14.799988,7.799988 -38,-1.800049 -57.5,0c-29.799988,2.799988 -47.200012,19.899963 -66.799988,35.199951c14.299988,-19 45.899963,-38.299988 83.399963,-37.099976c14.500061,0.400024 27.400024,5.299988 40.900024,0z" stroke-miterlimit="10" stroke="#000000" fill="none"/>
    <path id="svg_13" d="m484,536.099976c4.299988,-0.599976 7.100006,0.299988 9.299988,1.900024c0.5,4.799988 -12.599976,6.400024 -9.299988,-1.900024z" stroke-miterlimit="10" stroke="#000000" fill="none"/>
    <path id="svg_14" d="m498.799988,617.700012c-10.200012,35 -60,46.299988 -66.799988,90.900024c2.600006,-42.500061 46.200012,-60.200012 66.799988,-90.900024z" stroke-miterlimit="10" stroke="#000000" fill="none"/>
    <path id="svg_15" d="m686.099976,602.900024c12.400024,-0.200012 18.400024,29 29.700012,40.799988c18,18.900024 47.299988,22.700012 42.700012,61.200012c1.5,-34 -29.100037,-42.200012 -46.400024,-61.200012c-12.099976,-13.299988 -12.299988,-32.799988 -26,-40.799988z" stroke-miterlimit="10" stroke="#000000" fill="none"/>
    <path id="svg_16" d="m546,580.299988c3.700012,5 -14.400024,13.799988 -18.400024,17.299988c-2.899963,10.799988 -10.599976,20.400024 -6.599976,27.600037c7.299988,12.799988 16.900024,3.299988 31.5,5.599976c18.599976,2.900024 26.099976,18.099976 50.099976,15.599976c21,-2.299988 34.5,-14.599976 53.800049,-17.399963c6.799988,0 8.299988,5.299988 13,7.399963c8.699951,-3.5 14.199951,-9.799988 14.799988,-16.699951c1.599976,-18.5 -21.799988,-21.700012 -29.700012,-33.400024c24.700012,3.700012 50.099976,42.099976 16,55.700012c-48.5,-19.5 -52.200012,38.599976 -114.299988,-3.700012c-18.400024,0.5 -28.200012,-0.299988 -37,-9.400024c-7.100037,-21.999939 5.599976,-37.299988 26.799988,-48.599976z" stroke-miterlimit="10" stroke="#000000" fill="none"/>
    <path id="svg_17" d="m649,562.099976c24.599976,4.299988 62.5,19.700012 96.400024,14.799988c-33,10.300049 -71.100037,-5.199951 -96.400024,-14.799988z" stroke-miterlimit="10" stroke="#000000" fill="none"/>
    <path id="svg_18" d="m550.700012,549.099976c4.200012,2 -5.299988,5.599976 -3.700012,11.099976c-38.699982,10.800049 -76.199982,22.700012 -115,33.400024c34.300018,-14.5 74.300018,-23.400024 111.299988,-35.200012c2.600037,-2.999939 5.299988,-5.899963 7.400024,-9.299988z" stroke-miterlimit="10" stroke="#000000" fill="none"/>
    <path id="svg_19" d="m439.799988,553c-1.100006,0.700012 -1.899994,1.799988 -2.200012,3.5c0.700012,-1.200012 1.400024,-2.400024 2.200012,-3.5z" stroke-miterlimit="10" stroke="#000000" fill="none"/>
    <path id="svg_20" d="m439.799988,553c17,-22.799988 68.800018,-23.5 96.099976,-5.799988c-2.5,2.799988 -16.799988,0 -24.099976,5.599976c-4.200012,-1.399963 5.799988,-3.899963 9.299988,-3.700012c-2.700012,-5.399963 -8.399963,-7.599976 -14.799988,-9.299988c-3.700012,9.900024 -14.299988,12.900024 -29.700012,11.100037c-0.799988,-3.5 -5.299988,-3.400024 -3.699982,-9.300049c-9.300018,0.600037 -16.800018,3 -22.300018,7.400024c0.600006,2.5 4.600006,1.5 7.400024,1.900024c0.5,4.5 -12.700012,-1.300049 -18.200012,2.099976z" stroke-miterlimit="10" stroke="#000000" fill="none"/>
    <path id="svg_21" d="m751,549.099976c-5.799988,5.099976 -14.599976,-2.700012 -24.099976,0c13.099976,-5.599976 -9.600037,-10.5 -14.800049,-14.799988c-0.299988,16.700012 -28.299988,15.899963 -31.5,1.899963c-8.799988,-0.199951 -8.799988,8.5 -16.699951,9.300049c0.799988,4.199951 9.799988,0.099976 11.099976,3.699951c-3.400024,4.400024 -14.5,1 -18.5,0c20.599976,-30.199951 69,-15.199951 94.5,-0.099976z" stroke-miterlimit="10" stroke="#000000" fill="none"/>
    <path id="svg_22" d="m524.799988,534.299988c-11.200012,1.700012 -43.700012,-15.700012 -68.600006,-1.900024c10.700012,-10.299988 53.600006,-9.299988 68.600006,1.900024z" stroke-miterlimit="10" stroke="#000000" fill="none"/>
    <path id="svg_23" d="m697.200012,523.099976c-9.299988,3.599976 -24.900024,1.099976 -31.5,7.400024c0.5,-5.299988 21.899963,-10.400024 31.5,-7.400024z" stroke-miterlimit="10" stroke="#000000" fill="none"/>
    <path id="svg_24" d="m558.099976,515.700012c-1.700012,-4 13.599976,4.200012 13,11.099976c-2.200012,-0.299988 -3.299988,0.400024 -3.700012,1.900024c-3.499939,-3.900024 -3.999939,-10.799988 -9.299988,-13z" stroke-miterlimit="10" stroke="#000000" fill="none"/>
    <path id="svg_25" d="m550.700012,493.5c-39.299988,4.5 -112.200012,-20.899994 -135.399994,18.5c-2.399994,-9.299988 12.100006,-17.600006 14.799988,-27.799988c35.5,-7.900024 113.499969,-40.100006 120.600006,9.299988z" stroke-miterlimit="10" stroke="#000000" fill="none"/>
    <path id="svg_26" d="m632.299988,491.600006c2.299988,-10.100006 7.599976,-17.100006 13,-24.100006c49,3.600006 103.700012,1.399994 118.700012,38.899994c-28.5,-16.199982 -83.799988,-21.399994 -120.5,-3.699982c-3,-4.400024 -8.799988,-6.100006 -11.200012,-11.100006z" stroke-miterlimit="10" stroke="#000000" fill="none"/>
    <path id="svg_27" d="m671.299988,764.200012c-37.400024,17.599976 -125.099976,17.299988 -155.799988,-5.599976c7.700012,12.099976 36.200012,19.399963 63.099976,18.5c-14.299988,2 -34.599976,12.099976 -51.899963,9.299988c-8.800049,-1.400024 -17.000031,-14 -27.800018,-20.400024c-4.100006,-2.399963 -10.400024,-1.599976 -13,-3.700012c-13.800018,-11.5 -25.600006,-32 -14.800018,-48.199951c7.200012,-10.800049 26.600006,-16.300049 50.099976,-26c11.5,-4.700012 21.5,-13.600037 38.900024,-14.800049c14.400024,-1 31.799988,3 48.200012,1.900024c23.400024,-1.700012 34,-8 53.799988,1.900024c12.5,6.199951 45.5,25.799988 51.900024,33.399963c24.299988,28.799988 -11.299988,60.100037 -37.100037,70.5c-23,9.200012 -38.699951,10.299988 -59.299988,-3.700012c22,-0.200012 44.100037,-0.299988 53.700012,-13.099976z" stroke-miterlimit="10" stroke="#000000" fill="none"/>
    <path id="svg_28" d="m363.200012,741.099976c-0.5,-6.799988 -1,-13.5 -1.600006,-19.5c1.899994,7.400024 2.399994,13.900024 1.600006,19.5z" stroke-miterlimit="10" stroke="#000000" fill="none"/>
    <path id="svg_29" d="m363.200012,741.099976c-3.899994,28.700012 -38.899994,32.299988 -51.700012,0.900024c14.900024,-20.400024 35.900024,-34.600037 48.200012,-57.5c-3.600006,-16.200012 -6.5,-26.300049 -5.600006,-40.800049c1,-15.899963 12.399994,-27.099976 14.800018,-42.699951c3,-19.100037 -8,-39.900024 -5.600006,-63.100037c1.5,-14.200012 11,-34.699982 18.5,-48.199982c8.899994,-15.899994 25.399994,-25.800018 27.799988,-38.899994c5.200012,-28.200012 -11.600006,-59.100006 -9.299988,-83.400024c4.199982,-44.299988 70.299988,-60 114.999969,-64.899994c11.200012,-1.200012 22.300049,0.899994 35.200012,0c36.100037,15.5 26.100037,60.100006 40.799988,90.899994c19.600037,40.900024 112.300049,80.100006 183.600037,63.100006c14.299988,12.299988 29.5,51 33.400024,77.899994c1.799988,12.600037 -2.700012,24.700012 -1.900024,37.100037c1.799988,25.899963 17.200012,50.099976 13,74.199951c-3,17.200012 -18.099976,28.600037 -20.400024,42.700012c6.400024,2.700012 15.400024,-8 27.800049,-5.599976c3.799988,21.899963 2.699951,54.5 -22.300049,53.799988c-4,18.200012 -9.899963,34.599976 -14.799988,51.900024c-9.399963,-17.800049 -31.299988,-26.5 -42.700012,-44.5c-8,-12.800049 -10.399963,-28.400024 -20.399963,-40.800049c-6.700012,-8.299988 -21.900024,-12 -33.400024,-22.299988c-11,-9.799988 -14.900024,-22.700012 -22.299988,-27.799988c-20,-14 -51.299988,-0.900024 -72.299988,13c-17.800049,-11.200012 -41.300049,-23.799988 -61.200012,-18.5c-14.400024,3.799988 -33.300018,23.5 -51.900024,37.099976c-9.299988,6.800049 -24.799988,18.700012 -31.5,26c-8.199982,8.900024 -12.599976,23.100037 -20.399994,31.5c-5.299988,5.700012 -12.299988,7.5 -16.699982,13c1.399994,18 -13.400024,20 -18.5,31.5c-10.200012,-21.299988 -15.700012,-47.299988 -26,-68.599976c-1.700012,22.299988 46.5,78.400024 1.899994,87.200012c-1.300018,4.599976 8.199982,7.599976 1.899994,11.099976c-10.299988,-2.700012 -6.700012,-23.5 -9.299988,-37.099976c-1.800018,-11.099976 -2.800018,-24.899963 -3.700012,-38.200012z" stroke-miterlimit="10" stroke="#000000" fill="none"/>
    <path id="svg_30" d="m695.400024,534.200012c4.299988,-0.599976 7.099976,0.299988 9.299988,1.900024c0.5,4.799988 -12.600037,6.399963 -9.299988,-1.900024z" stroke-miterlimit="10" stroke="#000000" fill="none"/>
   </g>
  </g>
  <path id="svg_31" d="m491.399994,717.900024c0,0 24.899994,-12.799988 46.899994,-18.299988c22.100037,-5.5 47.100037,-0.900024 59.299988,-1.900024c12.200012,-0.899963 65.100037,-9.799988 89.5,10.900024l3.800049,2.399963l0,4c0,0 -12.200012,-22.599976 -92,-13c0,0 -45,-9 -107.800018,19.800049l0.299988,-3.900024z" stroke-miterlimit="10" stroke="#000000" fill="none"/>
  <path id="svg_32" d="m649,721.799988c0,0 18.200012,-0.5 29.299988,0c11.100037,0.5 24.700012,2.599976 24.700012,2.599976l-1.900024,3.800049c0,0 -35.199951,-3.400024 -58.099976,-3.300049l-8.900024,-2.299988l14.900024,-0.799988z" stroke-miterlimit="10" stroke="#000000" fill="none"/>
  <path id="svg_33" d="m495.100006,728.200012c0,0 35.199982,-3.5 58.100006,-3.299988l8.899963,-2.299988l-14.799988,-0.800049c0,0 -18.200012,-0.5 -29.299988,0c-11.100006,0.5 -24.699982,2.600037 -24.699982,2.600037" stroke-miterlimit="10" stroke="#000000" fill="none"/>
  <path id="svg_34" d="m201.800003,200.600006c4.100006,-4.100006 8.800003,-6.100006 14.100006,-6.100006l-0.900009,-0.899994c-1.699997,-1.699997 -1.899994,-3.199997 -0.5,-4.5c1.400009,-1.399994 3.100006,-1.199997 4.900009,0.600006l0.399994,0.399994c0.100006,0.100006 0.699997,0.800003 1.699997,2.100006c1,1.299988 2.400009,2.799988 4,4.399994c0.199997,0.199997 0.900009,0.800003 2.100006,1.899994l2.699997,2.300003c0.300003,0.199997 0.600006,0.400009 0.899994,0.800003c2,2 2.200012,3.800003 0.700012,5.399994c-1.600006,1.600006 -3.300003,1.600006 -5,-0.099991l-0.300003,-0.300003l-1.600006,-1.800003c-0.5,-0.599991 -1,-1.099991 -1.300003,-1.5c-2.5,-2.5 -5.299988,-3.599991 -8.5,-3.399994c-3.099991,0.300003 -6.199997,1.899994 -9.199997,4.899994c-2.699997,2.699997 -4.199997,5.600006 -4.5,8.5c-0.300003,3 0.699997,5.600006 3,7.900009c2.600006,2.699997 5.800003,3.399994 9.5,2.299988c2,-0.699997 5,-2.399994 8.900009,-5.199997c5.799988,-4.199997 10.299988,-6.5 13.599991,-7c4.800003,-0.699997 9.199997,0.900009 12.900009,4.600006c3.899994,4 5.699997,8.599991 5.399994,13.899994c-0.399994,5.300003 -2.800003,10.199997 -7.300003,14.699997c-4.800003,4.800003 -10.300003,7.200012 -16.5,7.300003c0.199997,0.199997 0.400009,0.400009 0.600006,0.600006c0.199997,0.199997 0.300003,0.300003 0.399994,0.399994c0.800003,0.5 1.300003,0.800003 1.600006,1.100006c1.5,1.5 1.5,3.099991 0,4.599991c-1.699997,1.700012 -3.400009,1.600006 -5.199997,-0.100006c-0.200012,-0.199982 -0.300003,-0.399994 -0.300003,-0.699982l-3,-3.5c-1.5,-1.800003 -2.5,-2.900009 -3,-3.400009c-0.800003,-0.800003 -2.199997,-2 -4.100006,-3.5c-1.899994,-1.5 -3.300003,-2.599991 -4.099991,-3.5c-1.900009,-1.899994 -2,-3.599991 -0.400009,-5.199997c1.600006,-1.600006 3.400009,-1.5 5.300003,0.399994l1.100006,1.200012c0.299988,0.299988 0.799988,0.799988 1.5,1.5c3.199997,3.199997 6.699997,4.699997 10.599991,4.599991c3.900009,-0.099991 7.5,-1.899994 11,-5.399994c3.199997,-3.199997 5,-6.5 5.400009,-9.900009c0.399994,-3.399994 -0.700012,-6.399994 -3.300003,-9c-4,-4 -9,-3.899994 -14.899994,0.200012l-4.200012,3c-4.199997,2.899994 -7.699997,5 -10.599991,6.099991c-2.600006,1 -5.300003,1.199997 -8.100006,0.5c-2.800003,-0.599991 -5.199997,-2 -7.399994,-4.199997c-3.700012,-3.699997 -5.400009,-8.100006 -5,-13.100006c0.299988,-4.899994 2.599991,-9.600006 6.899994,-13.899994z" stroke-miterlimit="10" stroke="#000000" fill="none"/>
  <path id="svg_35" d="m322,183.100006c-4,2.800003 -7.700012,2.800003 -11,0c0.100006,5.399994 -2.5,10 -7.799988,13.699997c-3.900024,2.800003 -7.800018,4 -11.5,3.699997c-3.700012,-0.299988 -6.700012,-2.099991 -9,-5.299988c-2.800018,-4 -3.200012,-8.200012 -1.100006,-12.600006c0.799988,-1.699997 1.600006,-2.899994 2.399994,-3.800003c0.799988,-0.899994 2.5,-2.5 5.100006,-4.899994c3.799988,-3.300003 6,-5.800003 6.699982,-7.5c0.700012,-1.699997 0.300018,-3.5 -1.199982,-5.600006c-1.399994,-2 -3.200012,-3.099991 -5.399994,-3.199997c-2.200012,-0.199997 -4.5,0.600006 -7,2.399994c-2.200012,1.5 -3.800018,3.600006 -4.800018,6.100006c-0.399994,1 -0.399994,1.800003 0,2.300003c0.100006,0.199997 0.5,0.300003 1.200012,0.300003c1,0 1.899994,0.599991 2.799988,1.799988c0.700012,1 0.899994,2 0.600006,3.200012c-0.299988,1.099991 -0.899994,2.099991 -2,2.799988c-1.299988,0.900009 -2.600006,1.200012 -4.100006,0.900009c-1.5,-0.300003 -2.600006,-1 -3.5,-2.300003c-1.899994,-2.699997 -2.199982,-6 -0.899994,-9.899994c1.299988,-3.900009 3.899994,-7.100006 7.700012,-9.800003c8.799988,-6.199997 16.299988,-5.100006 22.299988,3.399994l10.399994,14.699997c1.600006,2.300003 2.700012,3.700012 3.100006,4c1.5,1.5 2.899994,1.800003 4.299988,0.800003c1.700012,-1.199997 1.5,-3.300003 -0.699982,-6.399994l-2.5,-3.5c-1.100006,-1.5 -0.899994,-2.800003 0.600006,-3.900009c1.599976,-1.099991 3.199982,-0.5 4.799988,1.800003l0.299988,0.400009l2.900024,4.199997c3,4.599991 2.199982,8.699997 -2.700012,12.199997zm-18.399994,-8.800003l-3.700012,-5.199997c-0.399994,1.699997 -1,3.199997 -1.899994,4.399994c-0.899994,1.199997 -2.799988,3.100006 -5.600006,5.5c-5.099976,4.400009 -6.5,8.400009 -3.899994,12c1.300018,1.800003 3,2.800003 5.100006,3c2.100006,0.100006 4.299988,-0.599991 6.600006,-2.199997c3.299988,-2.300003 5.199982,-5 5.799988,-8.100006c0.5,-3.099991 -0.200012,-6.300003 -2.399994,-9.399994z" stroke-miterlimit="10" stroke="#000000" fill="none"/>
  <path id="svg_36" d="m351.5,123.199997l22.399994,22.699997l-3.199982,-31.499992c-0.100006,-0.900002 -0.200012,-1.5 -0.5,-2c-0.400024,-0.900002 -1.300018,-1.100006 -2.5,-0.5c-0.600006,0.299995 -1.100006,0.599998 -1.400024,0.899994c-0.799988,0.5 -1.299988,0.900002 -1.599976,1c-1.800018,0.900002 -3.100006,0.400002 -3.900024,-1.299995c-0.899994,-1.800003 -0.199982,-3.300003 2.100006,-4.400002c0.300018,-0.199997 0.899994,-0.400002 1.700012,-0.599998l3.100006,-1c0.799988,-0.300003 1.599976,-0.599998 2.5,-1c0.899994,-0.400002 2.199982,-1.200005 3.799988,-2.300003c1.600006,-1.099998 2.899994,-1.900002 3.799988,-2.299995c2.300018,-1.100006 3.900024,-0.800003 4.800018,1c0.799988,1.699997 0.399994,3 -1.399994,3.899994c-0.5,0.300003 -1,0.400002 -1.300018,0.400002c-0.799988,0.200005 -1.299988,0.300003 -1.600006,0.5c-1,0.5 -1.399994,2.400002 -1.099976,5.599998l2.299988,32.599998c0.5,7.199997 0.399994,12.699997 -0.399994,16.5c-1.399994,6.400009 -4.800018,11 -10.300018,13.600006c-3.299988,1.599991 -6.399994,2.099991 -9.399994,1.5c-3,-0.600006 -5.100006,-2.100006 -6.299988,-4.400009c-0.800018,-1.699997 -1,-3.199997 -0.5,-4.799988c0.5,-1.5 1.5,-2.600006 3,-3.400009c1.199982,-0.599991 2.399994,-0.699997 3.600006,-0.399994c1.199982,0.300003 2,1 2.5,2.099991c0.799988,1.700012 0.599976,3.200012 -0.700012,4.400009c1.399994,0.800003 3.200012,0.599991 5.399994,-0.5c2.800018,-1.400009 4.899994,-3.699997 6.100006,-6.900009c1.200012,-3.199997 1.200012,-6.099991 0,-8.799988c-0.600006,-1.300003 -2.600006,-3.5 -5.799988,-6.400009l-19.700012,-18.100006l-2.200012,-2.099991c-2.099976,-2 -3.699982,-2.700005 -4.899994,-2.099998c-0.299988,0.199997 -0.899994,0.5 -1.600006,1c-0.799988,0.5 -1.299988,0.899994 -1.5,1c-1.899994,0.899994 -3.199982,0.5 -4.099976,-1.200005c-0.900024,-1.799995 -0.100006,-3.299995 2.399994,-4.5c0.799988,-0.400002 1.399994,-0.699997 1.899994,-0.799995l3.399994,-1.100006c0.100006,0 0.300018,-0.099998 0.600006,-0.299995c0.399994,-0.099998 0.700012,-0.300003 1,-0.400002c1.899994,-0.900002 3.899994,-2.099998 6,-3.400002c1.600006,-1 2.600006,-1.599998 3.200012,-1.900002c2.299988,-1.099998 3.799988,-0.799995 4.699982,1c0.899994,1.800003 0.300018,3.100006 -1.799988,4.100006c-0.300018,0.199997 -0.899994,0.299995 -1.600006,0.599998c-0.700012,0.199997 -1.299988,0.400002 -1.600006,0.599998c-0.799988,0.400002 -0.899994,0.900002 -0.600006,1.699997c0.300018,0.700005 0.700012,1.200005 1.200012,1.700005z" stroke-miterlimit="10" stroke="#000000" fill="none"/>
  <path id="svg_37" d="m480.799988,66.199997c-0.799988,-4.299999 -2.700012,-6.200001 -5.700012,-5.599998c-0.799988,0.199997 -1.399994,0.299999 -1.799988,0.5c-0.899994,0.399998 -1.700012,0.599998 -2.299988,0.699997c-0.800018,0.100002 -1.5,0 -2.100006,-0.5c-0.600006,-0.5 -1,-1.099998 -1.200012,-1.899998c-0.399994,-2 0.700012,-3.299999 3.300018,-3.799999c0.299988,-0.100002 0.799988,-0.100002 1.199982,-0.100002l4.800018,-0.299999c1.799988,-0.099998 3.599976,-0.299999 5.5,-0.700001c1.799988,-0.399998 3.799988,-0.899998 5.899994,-1.599998l3.799988,-1.299999c0.5,-0.100002 0.899994,-0.300003 1.200012,-0.300003c2.600006,-0.5 4.100006,0.300003 4.5,2.300003c0.199982,0.799999 0,1.599998 -0.399994,2.199997c-0.400024,0.700001 -1,1.100002 -1.800018,1.200001c-0.600006,0.100002 -1.399994,0.200001 -2.399994,0.200001c-0.399994,0 -1.100006,0 -1.899994,0.200001c-3,0.599998 -4,3 -3.200012,7.399998l6.800018,35.200005c0.899994,4.400002 2.799988,6.299995 5.699982,5.699997c0.5,-0.099998 1.100006,-0.299995 1.800018,-0.5c1.099976,-0.400002 1.799988,-0.599998 2.299988,-0.699997c1.799988,-0.400002 2.899994,0.400002 3.299988,2.299995c0.400024,2.100006 -0.699982,3.400002 -3.199982,3.900002c-0.100006,0 -0.300018,0.099998 -0.600006,0.099998c-0.200012,0 -0.5,0 -0.600006,0l-4.699982,0.200005c-1.600006,0.099998 -3.200012,0.299995 -4.900024,0.599998c-2.5,0.5 -4.599976,1 -6.5,1.699997l-3.899994,1.400002c-0.100006,0 -0.299988,0.099998 -0.600006,0.200005c-0.299988,0.099998 -0.5,0.099998 -0.699982,0.099998c-2.5,0.5 -4,-0.300003 -4.399994,-2.400002c-0.400024,-1.900002 0.399994,-3 2.199982,-3.300003c0.300018,-0.099998 1.100006,-0.099998 2.399994,-0.299995c0.700012,0.099998 1.300018,0 1.900024,-0.099998c3,-0.600006 4,-3.100006 3.199982,-7.400002l-6.899994,-35.300003z" stroke-miterlimit="10" stroke="#000000" fill="none"/>
  <path id="svg_38" d="m566.799988,91.400002l-0.299988,-5.699997c-0.100037,-2.400002 0.899963,-3.700005 3,-3.800003c2.099976,-0.099998 3.200012,1.199997 3.399963,3.900002c0.400024,6.5 -0.199951,11 -1.699951,13.699997c-2,3.599998 -5.600037,5.5 -10.800049,5.800003c-4.699951,0.299995 -8.199951,-1 -10.299988,-4c-1.599976,-2.099998 -2.599976,-5.800003 -2.899963,-11.099998l-1.200012,-21.400002c-0.100037,-1.200005 -0.700012,-1.800003 -1.799988,-1.800003l-2.900024,0.200005c-1,0.099998 -1.799988,-0.200005 -2.5,-0.800003c-0.700012,-0.599998 -1,-1.300003 -1.099976,-2.199997c0,-0.800003 0.199951,-1.600002 0.799988,-2.300003c0.599976,-0.700001 1.299988,-1.099998 2,-1.099998l3.5,-0.200001c1,-0.099998 1.5,-0.700001 1.399963,-1.799999l-0.5,-9.200001c-0.099976,-2.299999 1,-3.5 3.300049,-3.599998c2.099976,-0.100002 3.299988,0.899998 3.399963,3.199997l0.600037,9.5c0.099976,0.900002 0.599976,1.300003 1.699951,1.200001l9.700012,-0.599998c2.299988,-0.100002 3.400024,0.799999 3.600037,2.899998c0.099976,2.200001 -1,3.399998 -3.5,3.500004l-9.800049,0.599998c-0.799988,0 -1.199951,0.699997 -1.099976,1.900002l1.299988,21.899994c0.400024,6.200005 2.600037,9.200005 6.799988,9c4.000061,0 6.000061,-2.599998 5.900024,-7.699997z" stroke-miterlimit="10" stroke="#000000" fill="none"/>
  <path id="svg_39" d="m678.799988,99.199997c-0.700012,3.400002 -0.799988,5.5 -0.200012,6.300003c0.400024,0.599998 1,1.099998 1.900024,1.399994c0.799988,0.300003 2.700012,0.700005 5.700012,1.400002l7.699951,1.599998c4,0.800003 6.800049,0.800003 8.400024,0.100006c1.599976,-0.800003 2.700012,-2.800003 3.299988,-6c0.200012,-0.900002 0.400024,-1.900002 0.5,-3c0.299988,-2.300003 0.600037,-3.600006 0.700012,-4.100006c0.5,-2.5 1.799988,-3.599998 3.799988,-3.199997c2.400024,0.5 3.400024,1.900002 2.900024,4.300003c-0.100037,0.699997 -0.299988,1.199997 -0.400024,1.599998l-1.5,4.300003c-0.399963,1.199997 -0.799988,2.599998 -1.099976,4c-0.200012,0.799995 -0.299988,2 -0.5,3.699997c-0.200012,1.599998 -0.400024,2.900002 -0.5,3.699997c-0.5,2.600006 -2.299988,3.600006 -5.299988,3c-0.600037,-0.099998 -1.900024,-0.5 -4,-1.099998c-1.400024,-0.400002 -3.5,-0.900002 -6.400024,-1.599998l-6.599976,-1.300003l-14,-2.899994c-1.400024,-0.300003 -3.800049,-0.700005 -7.100037,-1.100006c-0.5,-0.099998 -1.299988,-0.199997 -2.399963,-0.399994c-1.200012,-0.100006 -2,-0.300003 -2.700012,-0.400002c-2.400024,-0.5 -3.5,-1.800003 -3,-3.900002c0.399963,-1.900002 1.5,-2.599998 3.299988,-2.200005c0.5,0.100006 1.099976,0.300003 2,0.700005c0.900024,0.400002 1.599976,0.599998 2,0.699997c3,0.599998 4.900024,-1.299995 5.799988,-5.599998l7.200012,-35.099998c0.900024,-4.299999 -0.200012,-6.799999 -3.099976,-7.399998c-0.800049,-0.200001 -1.400024,-0.200001 -1.900024,-0.200001c-1,0 -1.799988,-0.100002 -2.400024,-0.200001c-0.799988,-0.200001 -1.299988,-0.599998 -1.799988,-1.200001c-0.399963,-0.700001 -0.5,-1.399998 -0.399963,-2.200001c0.399963,-2 1.899963,-2.799999 4.399963,-2.299999c0.299988,0.100002 0.799988,0.200001 1.299988,0.400002l4.5,1.5c2.5,0.799999 4.400024,1.399998 5.600037,1.599998c1.5,0.299999 3.399963,0.600002 5.700012,0.700001l4.099976,0.299999c0.5,0 0.900024,0.100002 1.200012,0.100002c2.599976,0.5 3.700012,1.799999 3.299988,3.899998c-0.200012,0.799999 -0.599976,1.400002 -1.200012,1.900002c-0.599976,0.399998 -1.299988,0.599998 -2.099976,0.399998c-0.600037,-0.099998 -1.400024,-0.399998 -2.299988,-0.699997c-0.400024,-0.200001 -1,-0.400002 -1.800049,-0.600002c-3,-0.599998 -4.899963,1.200001 -5.799988,5.5l-6.799988,33.599998z" stroke-miterlimit="10" stroke="#000000" fill="none"/>
  <path id="svg_40" d="m765.099976,140.199997c-7.299988,-3 -12.099976,-7.899994 -14.200012,-15c-2.099976,-7 -1.399963,-15.099998 2.299988,-24.099998c3.700012,-9.200005 8.700012,-15.5 15.100037,-19c6.399963,-3.5 13.399963,-3.700005 20.899963,-0.700005c7.200012,2.900002 12,7.800003 14.200012,14.600006c2.200012,6.799995 1.600037,14.5 -1.899963,23.199997c-3.800049,9.399994 -8.900024,16 -15.5,19.800003c-6.599976,3.800003 -13.5,4.199997 -20.900024,1.199997zm21.400024,-52.899994c-5.299988,-2.099998 -10.200012,-1.699997 -14.799988,1.199997c-4.600037,2.900002 -8.299988,8.100006 -11.299988,15.5c-3,7.5 -3.900024,13.900002 -2.600037,19.200005c1.299988,5.299995 4.5,8.999992 9.799988,11.099998c5.100037,2.100006 10.100037,1.600006 14.800049,-1.5c4.699951,-3.100006 8.599976,-8.299995 11.5,-15.599998c3,-7.400002 3.799988,-13.699997 2.599976,-18.800003c-1.299988,-5.300003 -4.599976,-8.900002 -10,-11.099998z" stroke-miterlimit="10" stroke="#000000" fill="none"/>
  <path id="svg_41" d="m858.799988,133.600006l-3.099976,4.800003l-4.400024,5.800003l-7.400024,11.599991c-2.299988,3.5 -3.5,6.300003 -3.799988,8.400009c-0.299988,2.099991 0.400024,4.299988 2,6.599991c1.5,2.100006 3.200012,3.900009 5.299988,5.199997c2.800049,1.800003 5.400024,2.700012 8.100037,2.900009c2.599976,0.199997 4.799988,-0.400009 6.5,-1.800003c1.700012,-1.399994 3.5,-3.5 5.299988,-6.199997l12.400024,-19.400009c2.399963,-3.799988 3.799988,-6 4,-6.599991c1.199951,-2.800003 0.799988,-4.900009 -1.300049,-6.300003c-0.299988,-0.199997 -0.899963,-0.5 -1.599976,-0.800003c-1,-0.5 -1.700012,-0.800003 -2.099976,-1.099991c-0.600037,-0.400009 -1,-1 -1.200012,-1.800003c-0.200012,-0.800003 0,-1.5 0.399963,-2.199997c1.100037,-1.800003 2.800049,-2 5,-0.600006c0.300049,0.199997 0.700012,0.5 1,0.699997l4,3.400009c1,0.899994 2.200012,1.699997 3.600037,2.599991c1.399963,0.900009 2.5,1.5 3.5,2l3.5,1.600006c1,0.399994 1.599976,0.800003 1.899963,0.899994c2.100037,1.300003 2.600037,2.900009 1.5,4.600006c-1.099976,1.699997 -2.699951,1.899994 -4.699951,0.599991l-0.800049,-0.5c-0.199951,-0.099991 -0.399963,-0.299988 -0.799988,-0.5c-1.5,-1 -2.899963,-0.799988 -4.200012,0.5c-1.299988,1.300003 -3.899963,5 -7.899963,11.200012l-8.400024,13.099991c-2.099976,3.300003 -3.700012,5.5 -4.799988,6.900009c-2,2.199997 -4.200012,3.899994 -6.700012,4.899994c-5.799988,2.399994 -12.299988,1.300003 -19.399963,-3.199997c-8.800049,-5.600006 -12.700012,-12.199997 -11.5,-19.5c0.299988,-2.300003 1.699951,-5.199997 4,-8.900009c1.199951,-1.799988 2.899963,-4.399994 5.299988,-7.799988c2.399963,-3.400009 4.200012,-6 5.299988,-7.800003l2.5,-4c2.299988,-3.600006 3.599976,-5.700005 3.900024,-6.200005c1.399963,-3 1.299988,-5 -0.300049,-6c-0.099976,-0.099998 -0.299988,-0.199997 -0.5,-0.299995c-0.299988,-0.200005 -0.5,-0.300003 -0.699951,-0.400002c-0.200012,-0.099998 -0.5,-0.300003 -1,-0.599998c-2.100037,-1.300003 -2.600037,-2.900002 -1.5,-4.599998c1.099976,-1.700005 2.599976,-1.900002 4.5,-0.700005c0.799988,0.5 1.599976,1.099998 2.399963,1.900002c2.200012,2 4.400024,3.599998 6.5,5c2.200012,1.400002 4.799988,2.699997 7.900024,4.099998c0.700012,0.300003 1.299988,0.700005 2,1.099998c2.099976,1.300003 2.5,2.799995 1.399963,4.500008c-1.099976,1.699997 -2.5,2 -4.299988,0.899994c-0.399963,-0.300003 -1,-0.699997 -1.700012,-1.300003c-0.699951,-0.599991 -1.299988,-1.099991 -1.699951,-1.300003c-1.600037,-1 -3.200012,-0.899994 -4.900024,0.5c-0.399963,0.399994 -1.5,1.800003 -3,4.100006z" stroke-miterlimit="10" stroke="#000000" fill="none"/>
  <path id="svg_42" d="m937,188.600006c3.099976,-3.199997 3.5,-5.899994 1.299988,-8c-0.399963,-0.399994 -0.899963,-0.800003 -1.5,-1.199997c-0.899963,-0.600006 -1.5,-1.100006 -1.899963,-1.5c-1.300049,-1.300003 -1.400024,-2.600006 -0.100037,-3.900009c1.400024,-1.5 3.100037,-1.299988 5,0.5c0.200012,0.200012 0.5,0.5 0.799988,0.900009l3,3.699997c1.100037,1.399994 2.400024,2.800003 3.900024,4.199997c1.200012,1.100006 2.5,2.199997 3.799988,3.300003l4.600037,3.5c0.899963,0.699997 2,1.699997 3.399963,2.899994c3.900024,3.700012 6.700012,7.400009 8.200012,11c2,4.700012 2.299988,9.900009 0.900024,15.400009c-1.400024,5.5 -4.5,10.699997 -9,15.5c-4,4.199997 -8.400024,7.300003 -13.300049,9.099991c-4.799988,1.900009 -9.399963,2.300003 -13.599976,1.300003c-5.200012,-1.199997 -10.099976,-4.099991 -14.799988,-8.5c-1,-0.899994 -1.900024,-1.899994 -2.799988,-2.899994l-4.100037,-4.600006c-1.399963,-1.599991 -2.899963,-3.099991 -4.5,-4.699997c-1.399963,-1.399994 -2.599976,-2.399994 -3.700012,-3.100006l-3.5,-2.5c-0.099976,-0.099991 -0.299988,-0.199997 -0.5,-0.399994c-0.199951,-0.199997 -0.399963,-0.399994 -0.5,-0.5c-1.899963,-1.800003 -2.099976,-3.399994 -0.599976,-4.899994c0.599976,-0.600006 1.200012,-0.900009 2,-1c0.799988,0 1.400024,0.199997 2,0.699997c0.5,0.5 1,1.099991 1.599976,1.899994c0.200012,0.400009 0.600037,0.800003 1.200012,1.400009c2.200012,2.099991 4.799988,1.5 7.900024,-1.700012l24.799988,-25.899994zm6.099976,4.5l-26,27.300003c-1.900024,2 -2.099976,4.099991 -0.5,6.399994c0.5,0.800003 2.200012,2.600006 5.200012,5.400009c5.200012,4.899994 10.200012,7.099991 15.200012,6.5c6,-0.700012 11.599976,-3.800003 16.899963,-9.300003c4.100037,-4.300003 6.700012,-8.800003 7.900024,-13.400009c1.099976,-4.599991 0.599976,-8.799988 -1.5,-12.5c-1.400024,-2.399994 -3.400024,-4.799988 -6.100037,-7.399994c-3.399963,-3.199997 -5.699951,-5 -6.799988,-5.399994c-1.199951,-0.200012 -2.599976,0.599991 -4.299988,2.399994z" stroke-miterlimit="10" stroke="#000000" fill="none"/>
  <path id="svg_43" d="m103.199997,598.599976c3.900002,0 5.900002,-1.299988 5.900002,-4.099976c0,-0.700012 -0.099998,-1.300049 -0.200005,-1.700012c-0.199997,-0.900024 -0.199997,-1.600037 -0.199997,-2.200012c0,-0.700012 0.300003,-1.299988 0.800003,-1.799988c0.5,-0.5 1.099998,-0.700012 1.899994,-0.700012c1.900002,0 2.800003,1.200012 2.800003,3.5c0,0.299988 0,0.700012 -0.099998,1.099976l-0.599998,4.200012c-0.200005,1.600037 -0.300003,3.200012 -0.300003,4.900024c0,1.599976 0.099998,3.5 0.400002,5.399963l0.5,3.600037c0.099998,0.399963 0.099998,0.799988 0.099998,1.099976c0,2.299988 -0.900002,3.5 -2.800003,3.5c-0.699997,0 -1.399994,-0.200012 -1.899994,-0.700012c-0.5,-0.5 -0.800003,-1.099976 -0.800003,-1.799988c0,-0.5 0.099998,-1.299988 0.199997,-2.200012c0.100006,-0.399963 0.200005,-0.899963 0.200005,-1.699951c0,-2.700012 -2,-4.100037 -5.900002,-4.100037l-32,-0.099976c-4,0 -6,1.299988 -6,4.099976c0,0.400024 0.099998,1 0.199997,1.700012c0.200005,1 0.200005,1.700012 0.200005,2.200012c0,1.599976 -0.900002,2.5 -2.600002,2.5c-1.899998,0 -2.899998,-1.200012 -2.899998,-3.5c0,-0.100037 0,-0.299988 0,-0.600037c0.099998,-0.199951 0.099998,-0.399963 0.099998,-0.599976l0.599998,-4.099976c0.200001,-1.400024 0.300003,-2.800049 0.300003,-4.400024c0,-2.200012 -0.100002,-4.200012 -0.400002,-6l-0.599998,-3.700012c0,-0.099976 0,-0.299988 -0.100002,-0.599976c0,-0.299988 0,-0.5 0,-0.600037c0,-2.299988 1,-3.399963 2.900002,-3.399963c1.700001,0 2.600002,0.799988 2.499996,2.5c0,0.299988 -0.099998,1 -0.199997,2.200012c-0.199997,0.599976 -0.199997,1.099976 -0.199997,1.699951c0,2.700012 2,4.100037 6,4.100037l32.199997,0.299988z" stroke-miterlimit="10" stroke="#000000" fill="none"/>
  <path id="svg_44" d="m107.5,651.200012c0.800003,-0.099976 1.199997,-0.599976 1.199997,-1.599976l-0.199997,-1.600037c-0.099998,-1.099976 0.400002,-2.099976 1.199997,-3c0.900002,-0.899963 1.900002,-1.399963 3.200005,-1.599976c1.5,-0.100037 2.799995,0.299988 3.900002,1.200012c1.099998,1 1.799995,2.199951 1.899994,3.799988c0.200005,1.799988 -0.399994,3.399963 -1.699997,4.700012c-1.300003,1.299988 -3.099998,2.099976 -5.400002,2.299988c-4.400002,0.399963 -8.899994,-0.799988 -13.5,-3.600037c-1.799995,-1.099976 -2.699997,-2.099976 -2.799995,-2.899963c-0.100006,-1.100037 0.399994,-1.600037 1.399994,-1.700012c0.400002,0 1,0.200012 1.800003,0.799988c1.400002,0.900024 3,1.600037 4.900002,2.299988c1.900002,0.700012 3.299995,1 4.099998,0.900024z" stroke-miterlimit="10" stroke="#000000" fill="none"/>
  <path id="svg_45" d="m107.099998,699l-2.199997,0.599976c2.699997,1.300049 4.599998,2.700012 5.899994,4.100037c1.300003,1.399963 2.200005,3.399963 2.800003,5.899963c1.300003,5.100037 0.199997,9.300049 -3.099998,12.600037c2.599998,1.200012 4.599998,2.599976 5.900002,4.200012c1.299995,1.599976 2.299995,3.799988 3,6.599976c0.699997,2.900024 0.799995,5.700012 0.099998,8.400024c-0.800003,2.899963 -2.300003,5.199951 -4.599998,6.799988c-1.5,1.099976 -4.100006,2.099976 -7.800003,3l-7.5,1.899963l-5.800003,1.400024c-2.099998,0.5 -3.399994,0.900024 -3.899994,1c-1.800003,0.700012 -2.600006,1.599976 -2.300003,2.700012c0.099998,0.399963 0.300003,0.899963 0.699997,1.5c0.400002,0.700012 0.600006,1.200012 0.700005,1.5c0.400002,1.799988 -0.099998,2.899963 -1.700005,3.299988c-1.799995,0.5 -3,-0.299988 -3.5,-2.400024c-0.199997,-0.799988 -0.399994,-2 -0.599998,-3.599976c-0.199997,-1.599976 -0.400002,-2.799988 -0.599998,-3.700012c-0.199997,-0.899963 -0.599998,-2.099976 -1.199997,-3.799988c-0.600006,-1.599976 -1,-2.900024 -1.200005,-3.799988c-0.5,-2.200012 0.099998,-3.5 1.900002,-3.900024c1.599998,-0.399963 2.599998,0.200012 3,1.900024c0.099998,0.200012 0.099998,0.700012 0.199997,1.599976c-0.099998,0.299988 0,0.799988 0.100006,1.299988c0.199997,0.900024 0.799995,1.300049 1.699997,1.300049c0.900002,0 3.199997,-0.400024 6.699997,-1.200012l4.700005,-1.200012l5.099998,-1.299988c3.599998,-0.900024 6.099998,-1.799988 7.599998,-2.700012c1.5,-0.900024 2.5,-2.299988 3.099998,-4c0.600006,-1.700012 0.600006,-3.5 0.100006,-5.400024c-0.900002,-3.599976 -2.800003,-5.899963 -5.700005,-6.699951c-2.299995,-0.600037 -5.900002,-0.300049 -11,0.899963l-5.5,1.400024c-4.900002,1.200012 -7.900002,2.099976 -9,2.599976c-1.199997,0.5 -1.599998,1.299988 -1.400002,2.299988c0.100006,0.300049 0.300003,0.700012 0.5,1.300049c0.300003,0.599976 0.400002,1 0.5,1.299988c0.200005,0.700012 0.100006,1.399963 -0.299995,2c-0.400002,0.599976 -0.900002,1 -1.599998,1.200012c-1.700005,0.399963 -2.900002,-0.600037 -3.5,-3c-0.200005,-0.800049 -0.400002,-1.900024 -0.5,-3.5c-0.200005,-1.600037 -0.400002,-2.700012 -0.5,-3.5c-0.300003,-1.100037 -0.700005,-2.200012 -1.200005,-3.5c-0.5,-1.200012 -0.900002,-2.300049 -1.199997,-3.300049c-0.5,-2.099976 0.099998,-3.399963 1.900002,-3.799988c1.599998,-0.399963 2.599998,0.200012 3,1.700012c0.099998,0.599976 0.199997,1 0.099998,1.400024c0,0.799988 0,1.299988 0.099998,1.699951c0.300003,1.200012 1.800003,1.600037 4.400002,1l3.699997,-0.699951c1.099998,-0.300049 2.300003,-0.600037 3.300003,-0.800049c0.900002,-0.199951 1.400002,-0.399963 1.5,-0.399963l6.400002,-1.600037c4.5,-1.099976 7.5,-2.5 8.899994,-4.099976c1.5,-1.700012 1.800003,-4 1,-7.099976c-0.799995,-3.400024 -2.699997,-5.700012 -5.699997,-6.900024c-2.400002,-1 -6.099998,-0.900024 -11.099998,0.400024l-10.300003,2.599976c-2.099998,0.5 -3.300003,0.799988 -3.599998,1c-1.700005,0.599976 -2.400002,1.400024 -2.200005,2.400024c0.100006,0.299988 0.300003,0.799988 0.800003,1.5c0,0.099976 0.099998,0.199951 0.199997,0.399963c0.100006,0.200012 0.100006,0.400024 0.100006,0.5c0.5,2 -0.100006,3.200012 -1.800003,3.700012c-1.699997,0.400024 -2.800003,-0.5 -3.400002,-2.900024c-0.199997,-0.899963 -0.400002,-2 -0.599998,-3.299988c-0.199997,-1.799988 -0.5,-3.299988 -0.800003,-4.599976c-0.199997,-0.600037 -0.5,-1.700012 -1.099998,-3.299988c-0.799995,-2.200012 -1.199997,-3.5 -1.299995,-3.900024c-0.5,-2.099976 0.099998,-3.299988 1.899994,-3.799988c1.600006,-0.400024 2.700005,0.399963 3.200005,2.399963c0,0.100037 0.099998,0.300049 0.099998,0.5c0,0.200012 0,0.400024 0,0.5l0.099998,2.100037c0,0.099976 0,0.200012 0,0.299988c0.400002,1.400024 1.800003,1.900024 4.400002,1.299988l4.400002,-1.099976l11.800003,-2.900024c4.399994,-1.099976 7.099998,-1.899963 8.099998,-2.399963c1,-0.5 1.400002,-1.300049 1.199997,-2.300049c-0.099998,-0.199951 -0.400002,-0.899963 -0.900002,-2.099976c-0.199997,-0.5 -0.399994,-0.900024 -0.5,-1.200012c-0.5,-1.899963 0.100006,-3.099976 1.800003,-3.5c1.800003,-0.399963 2.900002,0.400024 3.400002,2.5c0.099998,0.600037 0.299995,1.400024 0.400002,2.400024c0.099998,1 0.299995,1.899963 0.5,2.599976c0.099998,0.299988 0.099998,0.5 0.199997,0.799988c0.099998,0.300049 0.099998,0.5 0.099998,0.5l0.800003,1.800049l0.099998,0.199951c0.599998,1.200012 0,2 -1.5,2.400024z" stroke-miterlimit="10" stroke="#000000" fill="none"/>
  <path id="svg_46" d="m173.600006,858.599976c-4.699997,2.700012 -9.600006,1.799988 -14.5,-2.400024c0.5,2.300049 0.699997,4.300049 0.699997,5.900024c-0.099991,5 -2.300003,8.700012 -6.699997,11.099976c-4.300003,2.400024 -8.600006,2.700012 -13,0.800049c-4.399994,-1.900024 -8.100006,-5.600037 -11.199997,-11.100037c-1.100006,-2 -2.400002,-4.599976 -3.900002,-7.799988c-1.5,-3.200012 -2.599998,-5.5 -3.400002,-6.900024c-0.699997,-1.199951 -1.400002,-2.399963 -2.199997,-3.399963l-2.300003,-3c-0.099998,-0.100037 -0.199997,-0.200012 -0.300003,-0.400024c-0.099998,-0.200012 -0.199997,-0.399963 -0.299995,-0.5c-1.099998,-2 -0.800003,-3.5 0.799995,-4.399963c1.5,-0.800049 2.600006,-0.5 3.400002,0.899963c0.200005,0.400024 0.5,1 0.800003,2c0.199997,0.700012 0.5,1.200012 0.699997,1.5c1.300003,2.400024 3.700005,2.600037 7.099998,0.700012l28,-15.700012c3.5,-2 4.600006,-4.099976 3.199997,-6.5c-0.199997,-0.399963 -0.599991,-0.899963 -1,-1.399963c-0.599991,-0.800049 -1,-1.300049 -1.299988,-1.800049c-0.800003,-1.399963 -0.5,-2.599976 1,-3.399963c1.599991,-0.900024 3,-0.299988 4.199997,1.799988l0.5,0.900024l1.399994,3.699951c0.400009,1 1.100006,2.400024 2,4.100037c1,1.799988 2.5,4.200012 4.600006,7.299988c1.399994,2.099976 2.800003,4.400024 4.199997,6.900024c2.600006,4.699951 3.699997,8.899963 3.199997,12.599976c-0.100006,3.700012 -2.100006,6.600037 -5.699997,8.5zm-32,-17l-7.699997,4.299988c-3,1.700012 -4.600006,3.200012 -4.699997,4.700012c-0.100006,1.400024 1.099991,4.400024 3.599991,8.900024c4.900009,8.699951 10.5,11.199951 17,7.5c6,-3.400024 6.600006,-9.200012 2,-17.5l-3.199997,-5.800049c-1.399994,-2.5 -2.800003,-3.599976 -4.100006,-3.399963c-0.699997,0.200012 -1.699997,0.600037 -2.899994,1.299988zm14.099991,-7.899963c-2.5,1.400024 -3.899994,2.5 -4.199997,3.200012c-0.300003,0.799988 0.099991,2.099976 1.199997,4.099976l2.199997,3.900024c4.600006,8.200012 9.600006,10.799988 14.900009,7.799988c4.899994,-2.700012 5.399994,-7.5 1.599991,-14.200012c-2.699997,-4.700012 -4.599991,-7.5 -5.800003,-8.200012c-1.199997,-0.799988 -3.099991,-0.399963 -5.599991,1l-4.300003,2.400024z" stroke-miterlimit="10" stroke="#000000" fill="none"/>
  <path id="svg_47" d="m198.600006,891.700012c3.100006,-2.400024 3.800003,-4.700012 2.100006,-6.799988c-0.5,-0.600037 -0.800003,-1 -1.200012,-1.200012c-0.699997,-0.599976 -1.199997,-1.099976 -1.5,-1.5c-0.399994,-0.5 -0.599991,-1.200012 -0.5,-1.799988c0.100006,-0.700012 0.400009,-1.299988 1,-1.700012c1.5,-1.200012 2.900009,-0.900024 4.300003,0.900024c0,0 0.300003,0.399963 0.699997,1c4.5,6.599976 6.600006,9.599976 6.300003,9.199951l0.5,0.600037l12.300003,14.700012c0.199997,0.299988 1.100006,1.299988 2.699997,3.099976c0.600006,0.599976 1.100006,1.200012 1.5,1.799988c1.699997,2.200012 1.600006,4 -0.300003,5.5c-0.299988,0.299988 -1.399994,1 -3.299988,2.299988c-1.400009,1 -2.700012,1.900024 -3.800003,2.800049c-1.5,1.199951 -2.5,2 -3,2.5c-1.100006,1.099976 -1.900009,1.899963 -2.5,2.299988c-1.600006,1.200012 -3,1.099976 -4.199997,-0.400024c-1.200012,-1.5 -0.700012,-3.099976 1.599991,-4.899963l3.300003,-2.600037c3.5,-2.799988 5,-5.099976 4.5,-7.099976c-0.399994,-1.400024 -2.399994,-4.400024 -5.899994,-8.900024c-2.300003,-3 -3.800003,-4.700012 -4.300003,-5.099976c-1.900009,-1.400024 -3.900009,-1.299988 -5.900009,0.299988l-2.799988,2.200012c-0.300003,0.299988 -0.800003,0.599976 -1.400009,1.099976c-0.599991,0.5 -1,0.799988 -1.300003,1l-0.799988,0.600037c-1.700012,1.299988 -2.300003,2.399963 -2,3.399963c0.099991,0.400024 0.5,0.900024 1,1.600037l2,2.5c2,2.599976 4,3.199951 5.799988,1.799988c0.5,-0.400024 1.100006,-1 1.800003,-1.700012c0.699997,-0.700012 1.400009,-1.299988 2,-1.799988c1.699997,-1.299988 3.100006,-1.200012 4.300003,0.200012c1.199997,1.5 0.899994,2.899963 -0.899994,4.299988c-0.300003,0.299988 -1.700012,1.200012 -4.200012,2.700012c-2.099991,1.299988 -3.899994,2.5 -5.299988,3.699951c-0.800003,0.700012 -2.300003,1.900024 -4.300003,3.800049c-0.300003,0.299988 -1,1 -1.900009,2c-0.799988,0.899963 -1.5,1.5 -2,1.899963c-1.5,1.200012 -2.799988,1 -4,-0.5c-1.199997,-1.5 -0.799988,-2.899963 0.900009,-4.299988c0.5,-0.400024 1.199997,-0.799988 2.099991,-1.400024c1,-0.599976 1.700012,-1.099976 2.100006,-1.399963c1.800003,-1.400024 1.800003,-3.299988 -0.100006,-5.700012l-2.199997,-2.799988c-1,-1.200012 -1.699997,-1.799988 -2.399994,-1.700012c-0.600006,0.099976 -1.600006,0.599976 -3,1.700012l-3.900009,3.099976c-0.699997,0.5 -1.5,1.299988 -2.599991,2.200012c-1.300003,1.099976 -2.199997,1.900024 -2.699997,2.200012c-1.600006,1.399963 -2.400009,2.5 -2.300003,3.5c0.099991,0.700012 0.800003,1.899963 2.099991,3.599976l6.700012,8.5c1.899994,2.5 3.599991,3.900024 5.099991,4.200012c1.5,0.299988 3.199997,-0.299988 5.199997,-1.900024c0.600006,-0.5 1.5,-1.299988 2.700012,-2.299988c1.199997,-1 2.099991,-1.799988 2.699997,-2.299988c1.899994,-1.5 3.399994,-1.5 4.599991,0c1.200012,1.599976 0.900009,3.099976 -1,4.599976c-0.799988,0.600037 -1.899994,1.5 -3.5,2.600037c-1.599991,1.200012 -2.799988,2 -3.5,2.599976c-0.599991,0.5 -1.399994,1.200012 -2.5,2.100037c-1.099991,1 -1.899994,1.699951 -2.5,2.099976c-2,1.5 -3.699997,1.400024 -5.199997,-0.599976c-0.399994,-0.5 -0.899994,-1.200012 -1.599991,-2.300049c-0.300003,-0.5 -1,-1.5 -2.100006,-2.799988c0.199997,0.299988 -1,-1.399963 -3.699997,-5c-2.699997,-3.599976 -5.100006,-6.700012 -7.100006,-9.299988c-3.099991,-3.900024 -6.300003,-7.599976 -9.5,-11.200012c-0.099991,-0.200012 -0.300003,-0.299988 -0.5,-0.5c-0.199997,-0.200012 -0.300003,-0.299988 -0.300003,-0.399963c-1.399994,-1.800049 -1.299988,-3.200012 0.200012,-4.400024c1.299988,-1.099976 2.5,-0.900024 3.5,0.400024c0.199997,0.199951 0.599991,0.799988 1.199997,1.799988c0.199997,0.599976 0.5,1 0.800003,1.5c1.699997,2.099976 4.099991,2 7.199997,-0.5l24.699997,-19.700012z" stroke-miterlimit="10" stroke="#000000" fill="none"/>
  <path id="svg_48" d="m247.699997,994l3.199997,-7.700012c0.300003,-0.799988 0.5,-1.5 0.300003,-1.899963c-0.100006,-0.400024 -0.600006,-0.900024 -1.300003,-1.700012l-10.5,-9.600037c-0.800003,-0.699951 -1.5,-1.099976 -2,-1.099976c-0.5,0 -1.599991,0.400024 -3.199997,1.200012l-5.800003,3c-0.599991,0.299988 -1,0.599976 -1.399994,1c-1.100006,1.299988 -1,2.599976 0.599991,4c0.400009,0.399963 1,0.799988 1.800003,1.399963c0.800003,0.600037 1.400009,1 1.699997,1.400024c1.600006,1.5 1.800003,2.900024 0.5,4.299988c-1.199997,1.299988 -2.699997,1.100037 -4.399994,-0.5c-0.300003,-0.299988 -0.699997,-0.700012 -1.199997,-1.299988l-2.699997,-3c-0.5,-0.599976 -1.400009,-1.400024 -2.600006,-2.599976c-1.399994,-1.300049 -2.399994,-2.100037 -3,-2.5l-2.699997,-2c-1.199997,-0.900024 -2.100006,-1.600037 -2.600006,-2c-1.5,-1.400024 -1.699997,-2.700012 -0.5,-4c1.300003,-1.400024 2.600006,-1.400024 4.100006,0c0.300003,0.299988 0.5,0.599976 0.5,0.899963l0.800003,0.700012c1.099991,1 2.199997,1.299988 3.5,1c0.5,-0.099976 1.799988,-0.700012 3.699997,-1.700012l38.100006,-19.700012c2.099976,-1.099976 4.099976,-0.799988 6,0.900024c1.799988,1.599976 2.299988,3.599976 1.299988,5.799988l-16,38.700012c-1,2.5 -1.5,4.200012 -1.5,5.299988c0,1.100037 0.5,2.100037 1.5,3c0.300003,0.299988 0.600006,0.5 0.800003,0.600037l1.800003,1.299988c1.5,1.399963 1.600006,2.700012 0.5,4c-1.300003,1.399963 -2.600006,1.399963 -4.100006,0c-0.399994,-0.400024 -1,-1 -1.600006,-1.700012c-2.199997,-2.5 -3.899994,-4.400024 -5.199997,-5.5c-1.5,-1.299988 -3.899994,-3.299988 -7.5,-6c-0.899994,-0.700012 -1.599991,-1.200012 -2,-1.599976c-1.599991,-1.400024 -1.699997,-2.800049 -0.5,-4.200012c1.199997,-1.299988 2.699997,-1.200012 4.400009,0.399963c0.399994,0.300049 0.799988,0.800049 1.5,1.5c0.599991,0.700012 1.099991,1.200012 1.5,1.5c1.299988,1.200012 2.399994,1.200012 3.399994,0.200012c0.100006,0.100037 0.400009,-0.599976 0.800003,-1.799988zm6.800003,-15.799988l9.5,-21.099976l-20.300003,11.299988c-0.300003,0.200012 -0.5,0.299988 -0.5,0.299988c-0.300003,0.400024 -0.199997,0.799988 0.400009,1.299988l9.399994,8.5c0.5,0.400024 0.899994,0.5 1.100006,0.200012c0.099991,0 0.199997,-0.200012 0.399994,-0.5z" stroke-miterlimit="10" stroke="#000000" fill="none"/>
  <path id="svg_49" d="m330.299988,1029.099976c-1.700012,-0.199951 -3.700012,-0.699951 -6,-1.599976c2.299988,2.199951 3.5,4.299927 3.5,6.400024c0,2.099976 -1,4.899902 -3.200012,8.299927l-2,3.099976c-0.099976,0.200073 -0.299988,0.400024 -0.5,0.800049c-2.099976,3.199951 -2.099976,5.5 0,6.800049c2.100006,1.299927 4.300018,0.099976 6.800018,-3.700073l1.299988,-2l1.100006,-1.699951l0.600006,-0.900024c0.799988,-1.300049 1.5,-2.099976 2,-2.5c0.799988,-0.5 1.799988,-0.5 2.799988,0.199951c1.600006,1 1.800018,2.5 0.600006,4.400024c0,0 -0.399994,0.5 -1,1.400024l-0.899994,1.400024c-0.600006,0.900024 -1,1.5 -1.200012,1.799927l-1.100006,1.700073c-0.199982,0.199951 -0.5,0.599976 -0.799988,1.199951c-1.700012,2.599976 -3.700012,4.200073 -6.100006,4.700073c-2.399994,0.5 -4.899994,-0.100098 -7.5,-1.700073c-5.299988,-3.400024 -6.199982,-7.799927 -2.799988,-13.099976l1.299988,-2l1.5,-2.300049l1,-1.5c1.899994,-3 2.600006,-5.399902 2.100006,-7.099976c-0.5,-1.699951 -2.600006,-3.699951 -6.100006,-6l-6.199982,-4c-1.400024,-0.899963 -2.700012,-0.5 -3.800018,1.300049l-3.299988,5.199951c-2.100006,3.300049 -3.300018,5.200073 -3.5,5.700073c-1,2.5 -0.600006,4.299927 1.199982,5.5c0.600006,0.399902 1.100006,0.699951 1.5,0.799927c0.800018,0.400024 1.400024,0.700073 1.800018,1c1.399994,0.900024 1.699982,2.099976 0.699982,3.599976c-1,1.600098 -2.5,1.700073 -4.399994,0.5l-0.899994,-0.799927l-3.299988,-2.800049c-1.300018,-1.099976 -2.400024,-1.900024 -3.5,-2.599976c-1.300018,-0.900024 -3,-1.800049 -4.900024,-2.699951l-3.5,-1.700073c-0.799988,-0.400024 -1.099976,-0.5 -1.099976,-0.5c-1.900024,-1.199951 -2.400024,-2.699951 -1.300018,-4.299927c0.899994,-1.400024 2.100006,-1.700073 3.5,-0.800049c0.200012,0.099976 0.800018,0.599976 1.700012,1.300049c0.399994,0.5 0.799988,0.799927 1.299988,1.099976c2.300018,1.5 4.5,0.5 6.700012,-2.800049l17.299988,-26.899963c2.200012,-3.400024 2.100006,-5.799988 -0.199982,-7.200012c-0.400024,-0.200012 -0.900024,-0.5 -1.700012,-0.900024c-0.799988,-0.399963 -1.299988,-0.699951 -1.700012,-0.899963c-0.599976,-0.400024 -0.899994,-0.900024 -1.099976,-1.600037c-0.100006,-0.699951 0,-1.299988 0.399994,-1.899963c1,-1.5 2.5,-1.700012 4.399994,-0.400024c0.200012,0.100037 0.5,0.299988 0.899994,0.700012l3.200012,2.5c0.799988,0.700012 1.899994,1.400024 3.299988,2.299988c1.399994,0.900024 3,1.799988 4.700012,2.799988l5.299988,3c1.800018,1 3.300018,2 4.800018,2.900024c9.799988,6.299988 12.299988,13.200012 7.5,20.700012c-3.100006,4.500061 -6.700012,6.399963 -11.200012,5.799988zm-18.199982,-12.399963l6.299988,4.099976c3.800018,2.400024 6.900024,3.700012 9.5,3.799988c3.100006,0.200073 5.700012,-1.299988 7.600006,-4.299988c3.300018,-5.099976 1.399994,-9.899963 -5.600006,-14.399963c-3.699982,-2.400024 -6.399994,-3.700012 -8.099976,-4c-1.700012,-0.299988 -3.100006,0.399963 -4.200012,2l-1.399994,2.099976l-5,7.700012c-0.5,0.799988 -0.700012,1.299988 -0.5,1.700012c0.199982,0.299988 0.599976,0.799988 1.399994,1.299988z" stroke-miterlimit="10" stroke="#000000" fill="none"/>
  <path id="svg_50" d="m381.200012,1041.599976c1.600006,-3.699951 1.100006,-6 -1.399994,-7.099976c-0.399994,-0.200073 -1,-0.400024 -1.600006,-0.5c-0.899994,-0.300049 -1.600006,-0.5 -2.100006,-0.700073c-1.5,-0.699951 -1.899994,-1.699951 -1.299988,-3.299927c0.699982,-1.700073 2.199982,-2.099976 4.399994,-1.099976c0.200012,0.099976 0.5,0.299927 0.899994,0.5l3.700012,2.199951c1.399994,0.800049 2.899994,1.599976 4.600006,2.300049c1.399994,0.599976 2.799988,1.099976 4.199982,1.5l5,1.5c1,0.299927 2.200012,0.799927 3.700012,1.399902c4.399994,1.900024 7.899994,4.100098 10.299988,6.700073c3.200012,3.299927 5,7.5 5.600006,12.599976c0.5,5.099976 -0.399994,10.300049 -2.700012,15.800049c-2.099976,4.799927 -4.799988,8.699951 -8.299988,11.799927c-3.5,3.099976 -7.100006,4.800049 -11,5.300049c-4.700012,0.599976 -9.700012,-0.300049 -15,-2.5c-1.100006,-0.5 -2.200012,-1 -3.200012,-1.599976l-4.899994,-2.600098c-1.600006,-0.899902 -3.399994,-1.699951 -5.299988,-2.5c-1.600006,-0.699951 -3,-1.199951 -4.100006,-1.5l-3.700012,-1c-0.099976,0 -0.299988,-0.099976 -0.5,-0.099976c-0.199982,-0.099976 -0.399994,-0.199951 -0.599976,-0.299927c-2.100006,-0.900024 -2.800018,-2.200073 -2.100006,-3.900024c0.299988,-0.700073 0.799988,-1.200073 1.399994,-1.400024c0.600006,-0.300049 1.299988,-0.300049 1.899994,0c0.5,0.199951 1.200012,0.599976 1.899994,1.099976c0.300018,0.200073 0.800018,0.5 1.5,0.800049c2.5,1.099976 4.5,-0.200073 6.100006,-3.900024l12.600006,-29.5zm6.5,1.800049l-13.299988,31c-1,2.199951 -0.400024,4.099976 1.5,5.5c0.599976,0.5 2.699982,1.5 6,2.900024c5.899994,2.5 10.799988,2.699951 14.799988,0.699951c4.799988,-2.400024 8.5,-6.799927 11.200012,-13c2.099976,-4.900024 2.899994,-9.400024 2.399994,-13.699951c-0.5,-4.200073 -2.200012,-7.5 -5.100006,-10c-1.899994,-1.599976 -4.299988,-3 -7.399994,-4.300049c-3.899994,-1.699951 -6.300018,-2.400024 -7.399994,-2.400024c-0.900024,0.200073 -1.900024,1.200073 -2.700012,3.300049z" stroke-miterlimit="10" stroke="#000000" fill="none"/>
  <path id="svg_51" d="m522.799988,1117.199951l-1.700012,-8.199951c-0.200012,-0.900024 -0.399963,-1.5 -0.700012,-1.700073c-0.299988,-0.299927 -1,-0.5 -2,-0.599976l-13.999969,-2.099976c-1.100006,-0.200073 -1.800018,-0.099976 -2.300018,0.199951c-0.399994,0.300049 -1.099976,1.200073 -2,2.800049l-3.199982,5.699951c-0.300018,0.5 -0.5,1.099976 -0.600006,1.599976c-0.299988,1.700073 0.600006,2.700073 2.700012,3c0.5,0.100098 1.299988,0.100098 2.299988,0.200073c1,0 1.700012,0.099976 2.200012,0.199951c2.199982,0.300049 3.099976,1.400024 2.799988,3.300049c-0.299988,1.699951 -1.600006,2.400024 -3.899994,2.099976c-0.399994,-0.099976 -1,-0.199951 -1.700012,-0.400024l-3.899994,-1c-0.700012,-0.199951 -1.899994,-0.400024 -3.600006,-0.699951c-1.799988,-0.300049 -3.100006,-0.400024 -3.899994,-0.5l-3.399994,-0.099976c-1.5,-0.100098 -2.600006,-0.200073 -3.300018,-0.300049c-2,-0.300049 -2.899994,-1.300049 -2.699982,-3.099976c0.299988,-1.800049 1.399994,-2.599976 3.399994,-2.300049c0.399994,0.099976 0.700012,0.200073 0.899994,0.5l1,0.200073c1.399994,0.199951 2.600006,-0.200073 3.5,-1.200073c0.399994,-0.400024 1.100006,-1.5 2.100006,-3.5l20.700012,-37.599976c1.200012,-2.099976 3,-2.900024 5.5,-2.599976c2.399963,0.400024 3.899963,1.699951 4.299988,4l8.200012,41.299927c0.5,2.600098 1.099976,4.400024 1.700012,5.300049c0.599976,0.900024 1.599976,1.5 3,1.699951c0.399963,0.100098 0.699951,0.100098 1,0l2.199951,0.100098c2,0.299927 2.900024,1.299927 2.600037,3.099976c-0.299988,1.799927 -1.400024,2.599976 -3.400024,2.299927c-0.599976,-0.099976 -1.299988,-0.299927 -2.299988,-0.5c-3.299988,-0.899902 -5.700012,-1.399902 -7.299988,-1.699951c-1.900024,-0.300049 -5.100037,-0.599976 -9.5,-0.900024c-1.100037,-0.099976 -2,-0.199951 -2.5,-0.199951c-2.100037,-0.300049 -3,-1.400024 -2.700012,-3.200073c0.299988,-1.799927 1.599976,-2.5 3.900024,-2.199951c0.5,0.099976 1.199951,0.199951 2.099976,0.5c0.900024,0.199951 1.599976,0.400024 2.099976,0.5c1.700012,0.300049 2.700012,-0.300049 2.900024,-1.699951c-0.099976,-0.300049 -0.200012,-1.099976 -0.5,-2.300049zm-3.200012,-16.899902l-3.799988,-22.800049l-10.5,20.700073c-0.200012,0.299927 -0.200012,0.5 -0.200012,0.5c-0.100006,0.5 0.299988,0.799927 1.100006,0.900024l12.499969,1.899902c0.600037,0.100098 1,-0.099976 1,-0.5c-0.099976,-0.199951 -0.099976,-0.400024 -0.099976,-0.699951z" stroke-miterlimit="10" stroke="#000000" fill="none"/>
  <path id="svg_52" d="m583.299988,1092.900024l0,2.300049c3.099976,-4.100098 7.400024,-6.100098 12.700012,-6.200073c2.899963,0 5.599976,0.700073 8.200012,2.099976c2.599976,1.400024 4.299988,3.200073 5.199951,5.400024c0.800049,1.800049 1.200012,4.200073 1.200012,7.099976l0.100037,15.200073c0,2.299927 0.099976,3.599976 0.099976,4.099976c0.299988,1.800049 1,2.699951 2.200012,2.699951c0.5,0 1.099976,-0.099976 1.899963,-0.199951c0.800049,-0.099976 1.300049,-0.199951 1.600037,-0.199951c0.700012,0 1.299988,0.199951 1.799988,0.699951c0.5,0.5 0.799988,1.099976 0.799988,1.699951c0,0.800049 -0.299988,1.5 -0.899963,2c-0.600037,0.5 -1.400024,0.800049 -2.300049,0.800049c-0.699951,0 -2,-0.099976 -3.699951,-0.300049c-1.700012,-0.199951 -3.300049,-0.299927 -4.800049,-0.299927c-1.399963,0 -2.5,0.099976 -3.399963,0.199951c-2.700012,0.300049 -4.100037,0.5 -4.200012,0.5c-2.099976,0 -3.200012,-0.900024 -3.200012,-2.799927c0,-1.600098 0.900024,-2.5 2.700012,-2.5c0.400024,0 0.900024,0 1.5,0.099976c1,0.199951 1.700012,0.299927 2,0.299927c1.299988,0 2,-1.5 2.099976,-4.399902l0,-4.100098l0,-4.899902l-0.099976,-6.100098c0,-2.799927 -0.200012,-4.799927 -0.5,-5.799927c-0.5,-2 -1.5,-3.599976 -3.099976,-4.700073c-1.800049,-1.199951 -3.800049,-1.799927 -6,-1.799927c-4.200012,0 -7.300049,1.599976 -9.100037,4.599976c-1.200012,2.099976 -1.899963,5.599976 -1.799988,10.599976l0.099976,10.599976c0,2.300049 0.200012,3.900024 0.5,4.800049c0.300049,0.800049 0.900024,1.300049 1.800049,1.300049c0.399963,0 1,-0.100098 1.799988,-0.300049c0.700012,-0.199951 1.399963,-0.300049 1.799988,-0.300049c1.599976,0 2.5,0.900024 2.5,2.600098c0,1.699951 -1,2.599976 -3.200012,2.599976c-0.399963,0 -1.799988,-0.099976 -4.099976,-0.400024c-1.200012,-0.099976 -2.5,-0.199951 -3.900024,-0.199951c-1.099976,0 -2.599976,0.099976 -4.5,0.399902c-2.299988,0.300049 -3.700012,0.400024 -4,0.400024c-2.200012,0 -3.399963,-0.900024 -3.399963,-2.699951c0,-1.700073 0.799988,-2.599976 2.599976,-2.599976c0.299988,0 0.799988,0.099976 1.5,0.199951c0.700012,0.199951 1.400024,0.199951 2.200012,0.199951c1.599976,0 2.399963,-1.599976 2.5,-4.699951l-0.100037,-8.900024l-0.099976,-9.699951l0,-2.800049c-0.099976,-1.799927 -0.400024,-3 -0.700012,-3.699951c-0.399963,-0.700073 -1,-1 -1.799988,-1c-0.400024,0 -0.900024,0.099976 -1.700012,0.299927c-0.700012,0.200073 -1.299988,0.300049 -1.700012,0.300049c-1.899963,0 -2.899963,-0.800049 -2.899963,-2.599976c0,-1.800049 1.200012,-2.700073 3.599976,-2.700073c0.299988,0 0.600037,0 0.799988,0.100098l3,0.299927c0.900024,0 1.600037,-0.099976 2.200012,-0.199951c1.400024,-0.099976 2.100037,-0.200073 2.200012,-0.200073c1.200012,0.400024 2,1.200073 2,2.800049z" stroke-miterlimit="10" stroke="#000000" fill="none"/>
  <path id="svg_53" d="m662.299988,1083.400024c5.200012,-0.800049 9.400024,0.599976 12.599976,4.199951l-1.299988,-8c-0.299988,-2.099976 -0.599976,-3.399902 -0.799988,-3.799927c-0.5,-1.599976 -1.400024,-2.300049 -2.599976,-2.099976c-0.400024,0.099976 -1,0.299927 -1.700012,0.599976c-0.700012,0.299927 -1.299988,0.5 -1.700012,0.599976c-1.900024,0.300049 -3,-0.400024 -3.299988,-2.099976c-0.299988,-1.800049 0.899963,-2.900024 3.5,-3.300049c0.399963,-0.099976 1.200012,-0.099976 2.299988,-0.199951c1.700012,-0.099976 2.599976,-0.200073 2.599976,-0.200073c0.5,-0.099976 1.100037,-0.299927 2,-0.5c0.900024,-0.299927 1.5,-0.5 2,-0.5c1.5,-0.199951 2.400024,0.700073 2.700012,2.800049l0.100037,0.900024c0,0.199951 0.099976,1.599976 0.5,4.199951c0,0.300049 0.299988,2.400024 0.699951,6.099976c0.300049,2.600098 0.600037,4.700073 0.800049,6l1.199951,7.700073l2.100037,13.199951c0.599976,3.5 1.099976,5.599976 1.5,6.400024c0.399963,0.800049 1.099976,1.099976 2.099976,1c0.700012,-0.099976 1.200012,-0.199951 1.600037,-0.400024c0.799988,-0.199951 1.399963,-0.400024 1.699951,-0.400024c2,-0.299927 3.100037,0.400024 3.400024,2.100098c0.299988,1.799927 -0.799988,2.799927 -3.099976,3.199951c-0.5,0.099976 -1.300049,0.099976 -2.400024,0.199951c-1.099976,0 -1.900024,0.100098 -2.400024,0.200073c-0.199951,0 -0.799988,0.199951 -1.799988,0.400024c-0.599976,0.299927 -1.099976,0.399902 -1.599976,0.5c-1.400024,0.199951 -2.299988,-0.600098 -2.600037,-2.5l-0.099976,-0.400024l-0.200012,-1.300049c-2.200012,4.200073 -5.899963,6.700073 -11.200012,7.5c-5.299988,0.900024 -9.899963,-0.400024 -13.799988,-3.799927c-3.899963,-3.400024 -6.299988,-8.200073 -7.299988,-14.5c-1,-6.400024 -0.200012,-11.700073 2.400024,-16c2.700012,-4.300049 6.700012,-6.900024 12.099976,-7.800049zm15.700012,26c-0.099976,-1.800049 -0.299988,-4 -0.799988,-6.699951c-0.600037,-3.5 -1.100037,-5.900024 -1.5,-7.100098c-0.900024,-2.5 -2.400024,-4.399902 -4.400024,-5.599976c-2.399963,-1.400024 -5,-1.900024 -7.700012,-1.400024c-3.699951,0.600098 -6.399963,2.5 -8,5.600098c-1.599976,3.099976 -2.099976,7.099976 -1.299988,11.899902c0.799988,5 2.5,8.700073 5.100037,11.300049c2.599976,2.5 5.799988,3.5 9.599976,2.900024c2.900024,-0.5 5.099976,-1.700073 6.799988,-3.599976c1.600037,-2.100098 2.400024,-4.500122 2.200012,-7.300049z" stroke-miterlimit="10" stroke="#000000" fill="none"/>
  <path id="svg_54" d="m762.799988,1055.099976c-1.5,-3.699951 -3.400024,-5 -6,-4c-0.700012,0.300049 -1.200012,0.5 -1.5,0.800049c-0.700012,0.5 -1.400024,0.799927 -1.900024,1c-0.599976,0.299927 -1.299988,0.199951 -1.899963,-0.100098c-0.600037,-0.299927 -1.100037,-0.799927 -1.400024,-1.5c-0.700012,-1.699951 0.100037,-3 2.200012,-3.899902c0.299988,-0.100098 0.700012,-0.200073 1.099976,-0.300049l4.100037,-1c1.599976,-0.400024 3.099976,-0.900024 4.700012,-1.5c1.5,-0.599976 3.199951,-1.400024 4.899963,-2.400024l3.200012,-1.799927c0.400024,-0.200073 0.700012,-0.400024 1,-0.5c2.200012,-0.900024 3.599976,-0.400024 4.299988,1.299927c0.299988,0.700073 0.299988,1.400024 0,2c-0.299988,0.599976 -0.700012,1.099976 -1.399963,1.400024c-0.5,0.199951 -1.200012,0.400024 -2.100037,0.599976c-0.399963,0 -0.899963,0.200073 -1.599976,0.5c-2.5,1 -3.100037,3.300049 -1.600037,7l11.800049,29.800049c1.5,3.699951 3.5,5.099976 6,4.099976c0.399963,-0.199951 0.899963,-0.400024 1.5,-0.800049c0.899963,-0.5 1.5,-0.899902 1.899963,-1c1.5,-0.599976 2.600037,-0.099976 3.200012,1.5c0.700012,1.800049 0,3.100098 -2.200012,4c-0.099976,0 -0.299988,0.100098 -0.5,0.200073c-0.200012,0 -0.399963,0.099976 -0.5,0.099976l-4.099976,0.900024c-1.400024,0.299927 -2.799988,0.799927 -4.200012,1.299927c-2.099976,0.800049 -3.900024,1.700073 -5.400024,2.600098l-3.199951,1.899902c-0.100037,0 -0.300049,0.100098 -0.5,0.300049c-0.200012,0.099976 -0.400024,0.199951 -0.600037,0.199951c-2.099976,0.800049 -3.5,0.400024 -4.200012,-1.399902c-0.599976,-1.600098 -0.199951,-2.700073 1.400024,-3.300049c0.200012,-0.099976 0.900024,-0.300049 2.099976,-0.599976c0.600037,-0.099976 1.200012,-0.200073 1.600037,-0.400024c2.5,-1 3,-3.400024 1.599976,-7.099976l-11.799988,-29.900024z" stroke-miterlimit="10" stroke="#000000" fill="none"/>
  <path id="svg_55" d="m810,1031.599976c-0.400024,-0.800049 -1,-0.900024 -2,-0.5l-1.400024,0.699951c-1,0.400024 -2,0.400024 -3.199951,0c-1.200012,-0.5 -2,-1.299927 -2.600037,-2.399902c-0.700012,-1.300049 -0.799988,-2.700073 -0.299988,-4.100098c0.5,-1.399963 1.400024,-2.499939 2.799988,-3.199951c1.600037,-0.799988 3.299988,-0.900024 5,-0.099976c1.700012,0.799988 3.100037,2.099976 4.200012,4.199951c2,3.900024 2.599976,8.599976 1.599976,13.900024c-0.399963,2 -0.899963,3.300049 -1.699951,3.699951c-0.900024,0.5 -1.700012,0.300049 -2.200012,-0.699951c-0.200012,-0.300049 -0.200012,-1 0,-2c0.299988,-1.599976 0.399963,-3.400024 0.399963,-5.400024c0.100037,-1.899902 -0.199951,-3.299927 -0.599976,-4.099976z" stroke-miterlimit="10" stroke="#000000" fill="none"/>
  <path id="svg_56" d="m854.700012,1014.299988l1.299988,1.900024c0.200012,-3 0.799988,-5.300049 1.700012,-7c0.900024,-1.700012 2.299988,-3.300049 4.400024,-4.800049c4.199951,-3 8.5,-3.599976 12.899963,-1.699951c0.200012,-2.900024 0.799988,-5.200012 1.700012,-7c1,-1.800049 2.700012,-3.600037 5.099976,-5.300049c2.5,-1.799988 5,-2.799988 7.700012,-3.199951c3,-0.400024 5.700012,0.199951 8,1.699951c1.600037,1 3.5,3.100037 5.700012,6.200012l4.5,6.299988l3.5,4.900024c1.299988,1.799988 2.099976,2.799988 2.400024,3.200012c1.299988,1.399963 2.399963,1.799988 3.299988,1.099976c0.299988,-0.200012 0.700012,-0.599976 1.200012,-1.200012c0.5,-0.599976 0.899963,-1 1.199951,-1.199951c1.5,-1.100037 2.700012,-0.900024 3.700012,0.399963c1.100037,1.5 0.799988,2.900024 -1,4.200012c-0.599976,0.5 -1.700012,1.099976 -3.099976,1.900024c-1.400024,0.799988 -2.5,1.399963 -3.200012,1.899963c-0.700012,0.5 -1.799988,1.400024 -3,2.5c-1.299988,1.200012 -2.299988,2 -3.099976,2.5c-1.800049,1.299988 -3.300049,1.200012 -4.400024,-0.399963c-0.900024,-1.300049 -0.700012,-2.5 0.700012,-3.5c0.200012,-0.100037 0.599976,-0.400024 1.399963,-0.800049c0.300049,-0.099976 0.700012,-0.299988 1.200012,-0.599976c0.700012,-0.5 0.900024,-1.200012 0.600037,-2.099976c-0.300049,-0.900024 -1.5,-2.800049 -3.600037,-5.800049l-2.799988,-4l-3.099976,-4.299988c-2.100037,-3 -3.900024,-5 -5.300049,-6c-1.399963,-1 -3,-1.5 -4.799988,-1.399963c-1.799988,0.099976 -3.5,0.699951 -5.099976,1.899963c-3.100037,2.200012 -4.400024,4.799988 -4.100037,7.700012c0.300049,2.400024 1.900024,5.599976 4.900024,9.799988l3.299988,4.600037c2.900024,4.099976 4.799988,6.5 5.700012,7.399963c0.900024,0.900024 1.799988,1 2.599976,0.400024c0.300049,-0.200073 0.600037,-0.5 1,-1c0.400024,-0.5 0.800049,-0.799988 1,-1c0.600037,-0.400024 1.300049,-0.600037 2,-0.5c0.700012,0.099976 1.300049,0.5 1.700012,1.099976c1,1.400024 0.5,2.900024 -1.5,4.300049c-0.599976,0.5 -1.700012,1.099976 -3.099976,1.799927c-1.400024,0.700073 -2.400024,1.300049 -3.100037,1.800049c-0.899963,0.599976 -1.799988,1.400024 -2.799988,2.400024c-1,0.900024 -1.799988,1.699951 -2.700012,2.299927c-1.799988,1.300049 -3.199951,1.200073 -4.299988,-0.299927c-1,-1.400024 -0.799988,-2.5 0.5,-3.400024c0.5,-0.300049 0.900024,-0.5 1.200012,-0.599976c0.700012,-0.200073 1.299988,-0.5 1.599976,-0.700073c1,-0.699951 0.800049,-2.199951 -0.699951,-4.5l-2,-3.199951c-0.700012,-1 -1.300049,-1.900024 -2,-2.799988c-0.600037,-0.800049 -0.900024,-1.200012 -0.900024,-1.200012l-3.900024,-5.400024c-2.699951,-3.799988 -5.099976,-6 -7.099976,-6.799988c-2.099976,-0.799988 -4.400024,-0.200012 -7,1.700012c-2.900024,2 -4.299988,4.599976 -4.299988,7.799988c0,2.599976 1.399963,6 4.399963,10.200012l6.200012,8.699951c1.200012,1.700073 2,2.700073 2.200012,3c1.200012,1.400024 2.200012,1.800049 3,1.200073c0.200012,-0.200073 0.599976,-0.600098 1.099976,-1.300049c0.100037,-0.099976 0.200012,-0.199951 0.300049,-0.400024c0.199951,-0.099976 0.299988,-0.199951 0.5,-0.299927c1.699951,-1.200073 3,-1.100098 4.099976,0.399902c1,1.400024 0.5,2.800049 -1.400024,4.200073c-0.699951,0.5 -1.699951,1.099976 -2.899963,1.799927c-1.600037,0.900024 -2.900024,1.700073 -3.900024,2.400024c-0.5,0.400024 -1.399963,1.099976 -2.700012,2.200073c-1.699951,1.5 -2.799988,2.399902 -3.199951,2.699951c-1.700012,1.199951 -3.100037,1.099976 -4.200012,-0.400024c-1,-1.400024 -0.600037,-2.599976 1.099976,-3.799927c0.100037,-0.100098 0.200012,-0.200073 0.400024,-0.300049c0.200012,-0.099976 0.399963,-0.199951 0.399963,-0.199951l1.900024,-0.900024c0.099976,0 0.200012,0 0.299988,-0.099976c1.200012,-0.800049 1.100037,-2.400024 -0.399963,-4.5l-2.600037,-3.700073l-7.099976,-9.900024c-2.600037,-3.699951 -4.299988,-5.899963 -5.200012,-6.699951c-0.799988,-0.799988 -1.700012,-0.799988 -2.599976,-0.200012c-0.200012,0.100037 -0.700012,0.700012 -1.600037,1.600037c-0.399963,0.399963 -0.700012,0.700012 -0.899963,0.899963c-1.600037,1.100037 -2.900024,1 -3.900024,-0.399963c-1,-1.5 -0.700012,-2.799988 1.099976,-4.100037c0.5,-0.299988 1.200012,-0.799988 2,-1.299988c0.900024,-0.5 1.600037,-1 2.200012,-1.399963c0.200012,-0.200012 0.5,-0.300049 0.700012,-0.5c0.299988,-0.200012 0.400024,-0.300049 0.5,-0.300049l1.400024,-1.399963l0.199951,-0.100037c1,-0.599976 2,-0.399963 2.900024,0.900024z" stroke-miterlimit="10" stroke="#000000" fill="none"/>
  <path id="svg_57" d="m978.799988,941.200012l-24.700012,-20.200012c-3,-2.5 -5.399963,-2.700012 -7.099976,-0.599976c-0.299988,0.299988 -0.600037,0.799988 -1,1.399963c-0.5,0.900024 -0.900024,1.400024 -1.200012,1.800049c-1.099976,1.299988 -2.299988,1.399963 -3.599976,0.299988c-1.400024,-1.200012 -1.400024,-2.700012 0.099976,-4.5c0.200012,-0.299988 0.5,-0.600037 0.799988,-0.900024l2.799988,-2.700012c0.900024,-0.899963 2,-2.099976 3.200012,-3.5c0.799988,-1 1.799988,-2.299988 2.799988,-3.799988c2.5,-3.599976 4.400024,-6.299988 5.800049,-8c2.199951,-2.599976 4.199951,-4.700012 6.199951,-6.299988c2.800049,-2.200012 5.800049,-3.299988 9.100037,-3.200012c3.200012,0.100037 6.299988,1.299988 9,3.600037c3.899963,3.199951 5.700012,6.899963 5.599976,11.299988c-0.099976,4.299988 -2.200012,9 -6.299988,14l-3.599976,4.399963c-1.100037,1.400024 -1.800049,2.200012 -2,2.400024l-0.100037,0.099976c-0.5,0.700012 -0.799988,1.200012 -0.700012,1.5c0.100037,0.400024 0.5,0.900024 1.300049,1.600037l1.199951,1c5.200012,4.299988 8.5,6.700012 9.800049,7.299988c1.399963,0.599976 2.599976,0.200012 3.899963,-1.299988c0.400024,-0.5 0.700012,-0.900024 0.900024,-1.400024c0.700012,-1 1.099976,-1.599976 1.200012,-1.799988c1,-1.299988 2.199951,-1.400024 3.5,-0.299988c1.5,1.200012 1.5,2.700012 0,4.5l-0.800049,0.799988l-3,2.700012c-0.799988,0.799988 -2,2 -3.399963,3.700012c-1.200012,1.399963 -2.100037,2.699951 -2.700012,3.699951l-2.400024,4c-0.099976,0.100037 -0.099976,0.200012 -0.199951,0.400024c-0.100037,0.200012 -0.300049,0.299988 -0.400024,0.400024c-1.5,1.799988 -3,2.199951 -4.400024,1c-0.599976,-0.5 -0.899963,-1.100037 -1,-1.700012c-0.099976,-0.700012 0.100037,-1.299988 0.5,-1.799988c0.400024,-0.5 0.900024,-1 1.5,-1.5c0.300049,-0.200012 0.700012,-0.600037 1.200012,-1.200012c2,-2.400024 1.300049,-4.700012 -1.799988,-7.200012zm-23.299988,-28.600037c0.200012,0.599976 1.200012,1.700012 3,3.200012l9.099976,7.5c1.100037,0.899963 2.400024,0.700012 3.800049,-0.799988c-0.100037,0.099976 0.899963,-1.100037 2.899963,-3.600037c2.400024,-2.899963 4.200012,-5.5 5.299988,-7.799988c2.100037,-4.400024 1.200012,-8.200012 -2.699951,-11.400024c-5.200012,-4.299988 -10.600037,-3.099976 -16,3.600037c-4,4.900024 -5.800049,8.100037 -5.400024,9.299988z" stroke-miterlimit="10" stroke="#000000" fill="none"/>
  <path id="svg_58" d="m1024.699951,842c-0.099976,1.700012 -0.599976,3.700012 -1.299988,6.099976c2.100037,-2.399963 4.200012,-3.699951 6.299988,-3.799988c2.099976,-0.099976 4.900024,0.799988 8.400024,2.799988l3.199951,1.800049c0.200073,0.099976 0.5,0.299988 0.800049,0.5c3.299927,1.899963 5.599976,1.799988 6.799927,-0.300049c1.200073,-2.099976 -0.099976,-4.299988 -4,-6.599976l-2.099976,-1.200012l-1.699951,-1l-1,-0.599976c-1.300049,-0.799988 -2.200073,-1.400024 -2.599976,-1.900024c-0.600098,-0.799988 -0.5,-1.799988 0.099976,-2.799988c1,-1.700012 2.400024,-1.900024 4.299927,-0.799988c0,0 0.5,0.299988 1.5,1l1.400024,0.799988c1,0.599976 1.599976,0.900024 1.900024,1.099976l1.699951,1c0.200073,0.200012 0.700073,0.5 1.200073,0.800049c2.699951,1.5 4.299927,3.5 4.900024,5.899963c0.599976,2.400024 0.199951,4.900024 -1.400024,7.5c-3.200073,5.400024 -7.5,6.5 -13,3.299988l-2.099976,-1.199951l-2.400024,-1.400024l-1.5,-0.900024c-3.099976,-1.799988 -5.5,-2.399963 -7.099976,-1.799988c-1.700073,0.600037 -3.600037,2.700012 -5.700073,6.400024l-3.699951,6.399963c-0.900024,1.5 -0.400024,2.700012 1.399963,3.800049l5.299988,3.099976c3.400024,2 5.400024,3.099976 5.900024,3.200012c2.5,0.899963 4.400024,0.399963 5.5,-1.400024c0.400024,-0.599976 0.599976,-1.099976 0.800049,-1.5c0.399902,-0.799988 0.699951,-1.5 0.899902,-1.899963c0.900024,-1.5 2,-1.800049 3.600098,-0.900024c1.599976,0.900024 1.799927,2.400024 0.699951,4.400024l-0.699951,1l-2.600098,3.399963c-1,1.299988 -1.799927,2.5 -2.5,3.600037c-0.799927,1.399963 -1.599976,3.099976 -2.5,5l-1.5,3.5c-0.299927,0.799988 -0.5,1.199951 -0.5,1.099976c-1.199951,2 -2.599976,2.5 -4.199951,1.5c-1.5,-0.900024 -1.800049,-2 -1,-3.400024c0.099976,-0.199951 0.5,-0.799988 1.199951,-1.799988c0.400024,-0.399963 0.800049,-0.899963 1,-1.299988c1.400024,-2.299988 0.300049,-4.5 -3.099976,-6.5l-27.699951,-16.099976c-3.5,-2 -5.900024,-1.800049 -7.200012,0.5c-0.200012,0.399963 -0.5,0.899963 -0.799988,1.699951c-0.300049,0.800049 -0.600037,1.400024 -0.800049,1.700012c-0.299988,0.600037 -0.899963,1 -1.5,1.100037c-0.699951,0.199951 -1.299988,0.099976 -1.899963,-0.300049c-1.600037,-0.899963 -1.799988,-2.399963 -0.600037,-4.399963c0.100037,-0.200012 0.300049,-0.5 0.600037,-0.900024l2.399963,-3.299988c0.600037,-0.900024 1.300049,-2 2.100037,-3.400024c0.799988,-1.399963 1.700012,-3 2.599976,-4.799988l2.799988,-5.399963c0.900024,-1.800049 1.800049,-3.400024 2.700012,-4.900024c5.900024,-10.099976 12.700012,-12.900024 20.400024,-8.400024c4.600037,2.900024 6.700012,6.5 6.299988,10.900024zm-11.599976,18.799988l3.799988,-6.5c2.200012,-3.900024 3.400024,-7.099976 3.400024,-9.599976c0,-3.100037 -1.5,-5.600037 -4.600037,-7.400024c-5.199951,-3 -10,-1 -14.099976,6.200012c-2.200012,3.799988 -3.400024,6.599976 -3.700012,8.299988c-0.200012,1.700012 0.5,3.099976 2.200012,4.099976l2.200012,1.300049l7.899963,4.599976c0.800049,0.5 1.400024,0.599976 1.700012,0.400024c0.300049,-0.200012 0.700012,-0.600037 1.200012,-1.400024z" stroke-miterlimit="10" stroke="#000000" fill="none"/>
  <path id="svg_59" d="m1081.800049,792.099976c-2.5,6.599976 -6.900024,10.900024 -13.099976,13c-6.200073,2 -13.400024,1.5 -21.599976,-1.599976c-8.300049,-3.100037 -14,-7.5 -17.200073,-13.200012c-3.199951,-5.700012 -3.5,-11.900024 -1,-18.700012c2.5,-6.5 6.700073,-10.799988 12.800049,-12.900024c6,-2.099976 13,-1.699951 20.799927,1.300049c8.5,3.199951 14.400024,7.699951 17.900024,13.5s3.900024,11.900024 1.400024,18.599976zm-47.600098,-18.299988c-1.800049,4.799988 -1.400024,9.200012 1.300049,13.200012c2.699951,4 7.299927,7.299988 14,9.899963c6.799927,2.600037 12.5,3.300049 17.199951,2c4.699951,-1.199951 8,-4.199951 9.800049,-8.899963c1.799927,-4.600037 1.199951,-9 -1.600098,-13.200012c-2.799927,-4.200012 -7.5,-7.5 -14.199951,-10c-6.699951,-2.5 -12.300049,-3.200012 -16.900024,-2c-4.599976,1.200012 -7.799927,4.200012 -9.599976,9z" stroke-miterlimit="10" stroke="#000000" fill="none"/>
  <path id="svg_60" d="m1061.199951,714.299988l5,1l6.199951,1.799988l12.100098,2.5c3.699951,0.799988 6.399902,0.900024 8.199951,0.5s3.5,-1.700012 4.900024,-3.700012c1.299927,-1.899963 2.199951,-3.899963 2.699951,-6.099976c0.599976,-2.900024 0.599976,-5.400024 -0.099976,-7.700012c-0.699951,-2.299988 -1.900024,-3.899963 -3.599976,-4.899963c-1.700073,-1 -4,-1.800049 -6.900024,-2.5l-20.099976,-4.200012c-4,-0.799988 -6.200073,-1.200012 -6.800049,-1.200012c-2.799927,-0.099976 -4.400024,0.900024 -4.799927,3.099976c-0.100098,0.400024 -0.100098,0.900024 -0.200073,1.600037c-0.099976,1 -0.199951,1.700012 -0.199951,2.099976c-0.099976,0.700012 -0.5,1.200012 -1.099976,1.600037c-0.600098,0.399963 -1.300049,0.5 -1.900024,0.399963c-1.800049,-0.399963 -2.5,-1.700012 -2.099976,-4c0.099976,-0.399963 0.199951,-0.700012 0.299927,-1.099976l1.599976,-4.5c0.400024,-1.100037 0.700073,-2.400024 1,-3.900024c0.300049,-1.399963 0.5,-2.599976 0.5,-3.599976l0.200073,-3.5c0,-1 0.099976,-1.600037 0.199951,-1.900024c0.5,-2.200012 1.599976,-3.099976 3.300049,-2.700012c1.799927,0.400024 2.400024,1.600037 2,3.800049l-0.200073,0.899963c0,0.200012 -0.099976,0.400024 -0.199951,0.799988c-0.300049,1.600037 0.300049,2.700012 1.699951,3.400024c1.5,0.700012 5.400024,1.700012 11.900024,3l13.599976,2.799988c3.400024,0.700012 5.800049,1.299988 7.300049,1.799988c2.5,1 4.599976,2.300049 6.199951,4.100037c3.900024,4.099976 5,9.799988 3.5,17.299988c-1.899902,9.200012 -6.099976,14.400024 -12.699951,15.799988c-2,0.5 -4.900024,0.299988 -8.699951,-0.5c-1.900024,-0.399963 -4.600098,-1 -8.200073,-2c-3.599976,-0.899963 -6.400024,-1.599976 -8.199951,-2l-4.099976,-0.899963c-3.800049,-0.800049 -5.900024,-1.200012 -6.400024,-1.300049c-2.900024,-0.199951 -4.599976,0.5 -4.900024,2.100037c0,0.099976 -0.099976,0.299988 -0.099976,0.5c-0.099976,0.299988 -0.099976,0.5 -0.099976,0.700012c0,0.199951 -0.100098,0.5 -0.200073,1c-0.5,2.199951 -1.599976,3.099976 -3.299927,2.699951c-1.800049,-0.399963 -2.5,-1.5 -2,-3.5c0.199951,-0.799988 0.399902,-1.699951 0.799927,-2.599976c0.900024,-2.5 1.700073,-4.799988 2.099976,-7c0.5,-2.200012 0.800049,-4.900024 0.900024,-7.900024c0,-0.599976 0.099976,-1.299988 0.300049,-2.099976c0.400024,-2.099976 1.599976,-3 3.299927,-2.599976c1.800049,0.399963 2.5,1.5 2.100098,3.299988c-0.100098,0.399963 -0.300049,1 -0.600098,1.799988c-0.299927,0.799988 -0.5,1.400024 -0.599976,1.799988c-0.299927,1.700012 0.300049,3 2,3.900024c0.400024,0.799988 2.000122,1.299988 4.400024,1.799988z" stroke-miterlimit="10" stroke="#000000" fill="none"/>
  <path id="svg_61" d="m1071,640.400024c-4,-0.200012 -6,1.099976 -6.099976,3.799988c0,0.5 0,1 0.099976,1.700012c0.099976,1 0.099976,1.700012 0.099976,2.200012c-0.099976,1.599976 -0.900024,2.399963 -2.599976,2.399963c-1.800049,-0.099976 -2.699951,-1.299988 -2.599976,-3.699951c0,-0.300049 0.099976,-0.600037 0.099976,-1l0.699951,-4.200012c0.300049,-1.600037 0.5,-3.299988 0.5,-5.100037c0.100098,-1.5 0,-3 -0.099976,-4.5l-0.299927,-5.199951c-0.100098,-1 -0.100098,-2.300049 0,-4c0.199951,-4.800049 1.099976,-8.800049 2.599976,-12c2,-4.200012 5.299927,-7.400024 9.799927,-9.700012c4.600098,-2.299988 9.800049,-3.299988 15.700073,-3c5.199951,0.200012 9.900024,1.399963 13.900024,3.5c4.099976,2.099976 7,5 8.899902,8.399963c2.200073,4.200012 3.200073,9.200012 3,15c0,1.200012 -0.199951,2.400024 -0.299927,3.600037l-0.700073,5.5c-0.199951,1.899963 -0.399902,3.799988 -0.5,5.799988c-0.099976,1.799988 -0.099976,3.200012 0.100098,4.299988l0.399902,3.799988c0,0.100037 0,0.300049 0.100098,0.600037c0,0.299988 0,0.5 0,0.599976c-0.100098,2.299988 -1.100098,3.400024 -2.900024,3.299988c-0.700073,0 -1.400024,-0.299988 -1.800049,-0.799988c-0.5,-0.5 -0.699951,-1.099976 -0.699951,-1.799988c0,-0.599976 0.099976,-1.299988 0.299927,-2.099976c0.100098,-0.400024 0.200073,-0.900024 0.200073,-1.700012c0.099976,-2.700012 -1.800049,-4.100037 -5.800049,-4.299988l-32.099976,-1.400024zm-0.599976,-6.700012l33.699951,1.400024c2.400024,0.099976 4,-1 4.600098,-3.400024c0.199951,-0.799988 0.399902,-3 0.599976,-6.700012c0.299927,-6.399963 -1.300049,-11.099976 -4.599976,-14.099976c-4,-3.600037 -9.400024,-5.600037 -16.200073,-5.900024c-5.299927,-0.200012 -9.799927,0.600037 -13.599976,2.600037c-3.800049,1.899963 -6.300049,4.699951 -7.5,8.299988c-0.800049,2.299988 -1.300049,5.099976 -1.400024,8.399963c-0.199951,4.200012 0,6.800049 0.400024,7.700012c0.5,1.099976 1.799927,1.599976 4,1.700012z" stroke-miterlimit="10" stroke="#000000" fill="none"/>
  <path id="svg_62" d="m1079.300049,426.700012c0,8 -6.5,14.5 -14.5,14.5c-8,0 -14.5,-6.5 -14.5,-14.5c0,-8 6.5,-14.5 14.5,-14.5c8,0 14.5,6.5 14.5,14.5z" stroke-miterlimit="10" stroke="#000000" fill="none"/>
  <circle id="svg_63" r="14.5" cy="426.7" cx="114.1" stroke-miterlimit="10" stroke="#000000" fill="none"/>
 </g>
</svg>