<?xml version="1.0"?>
<svg width="759.4978" height="900.56818" xmlns="http://www.w3.org/2000/svg">

 <metadata id="metadata6254">image/svg+xml</metadata>
 <g>
  <title>background</title>
  <rect fill="none" id="canvas_background" height="402" width="582" y="-1" x="-1"/>
 </g>
 <g>
  <title>Layer 1</title>
  <path fill="none" stroke="#000000" stroke-width="6.1801" stroke-miterlimit="4" stroke-dashoffset="0" d="m507.716919,853.306091c0,0 -29.319916,7.006897 -32.282654,11.775208c-2.962769,4.768311 -6.404846,12.050476 -6.404846,12.050476c0,0 14.622559,-3.066162 15.871216,-7.36438c1.248657,-4.298218 36.00824,1.317932 36.00824,1.317932" id="path2503"/>
  <path fill="none" stroke="#000000" stroke-width="6.1801" stroke-miterlimit="4" stroke-dashoffset="0" d="m361.476501,794.209961c0,0 42.042664,-6.006226 53.504456,-4.44989c11.461792,1.556335 25.078766,8.812195 25.078766,8.812195c0,0 -21.079407,-2.550903 -26.897491,-0.947144c-5.818085,1.60376 -16.139587,10.077209 -16.139587,10.077209" id="path2477"/>
  <path fill="none" stroke="#000000" stroke-width="6.1801" stroke-miterlimit="4" stroke-dashoffset="0" d="m396.814362,826.753174c-10.21048,-2.866821 53.862885,-13.019348 67.563385,-16.276428c13.70047,-3.257019 -95.286499,-11.046204 -95.286499,-11.046204" id="path2483"/>
  <path fill="none" stroke="#000000" stroke-width="6.1801" stroke-miterlimit="4" stroke-dashoffset="0" d="m307.026306,663.238831c3.718994,18.404907 39.882935,153.804199 52.926117,157.382813c13.043182,3.578674 53.2323,18.773499 56.714752,20.292236c4.273224,1.863647 22.530762,16.375 22.530762,16.375c0,0 -11.345947,-23.358582 -16.64505,-24.583923c-5.299103,-1.225403 -41.162903,-25.468445 -43.140625,-30.710754c-23.704987,-44.991333 -39.388702,-114.213928 -42.450775,-140.605591" id="path2489"/>
  <path fill="none" stroke="#000000" stroke-width="6.1801" stroke-miterlimit="4" stroke-dashoffset="0" id="path2452" d="m191.350494,554.480408c0,0 11.762299,76.800903 43.589706,84.411804c31.827408,7.610901 67.114334,44.973511 74.03331,46.3573c6.919006,1.38385 32.519318,12.454224 36.670715,12.454224c4.151398,0 87.871338,-48.432983 87.871338,-48.432983"/>
  <path fill="none" stroke="#000000" stroke-width="6.1801" stroke-miterlimit="4" stroke-dashoffset="0" id="path2924" d="m518.554993,240.0858c-72.509491,60.814407 -79.52652,43.661606 -84.984222,45.220963c-5.457703,1.559326 -56.916046,40.542908 -79.52652,40.542908c-22.610504,0 -73.289154,-9.356018 -101.35733,-2.338989c-28.068176,7.017029 -166.070084,56.136383 -166.070084,56.136383c0,0 9.356071,148.137604 56.136368,178.544769c46.780319,30.407227 130.20517,46.780273 130.20517,46.780273c0,0 318.106079,20.271484 360.208374,-71.729736c42.102295,-92.001282 34.305542,-165.290405 34.305542,-165.290405l-77.967163,-129.425522"/>
  <path fill="none" stroke="#000000" stroke-width="6.1801" stroke-miterlimit="4" stroke-dashoffset="0" id="path2444" d="m516.594055,853.53125c0,0 39.608582,-15.323792 51.126343,-16.389771c11.517761,-1.065979 26.419373,2.935486 26.419373,2.935486c0,0 -21.112183,2.263794 -26.419373,5.137085c-5.30719,2.873291 -13.454285,13.454285 -13.454285,13.454285"/>
  <path fill="none" stroke="#000000" stroke-width="6.1801" stroke-miterlimit="4" stroke-dashoffset="0" id="path2436" d="m558.355225,877.276306c-10.593872,-0.492737 49.544922,-24.819702 62.159363,-31.079712c12.614441,-6.259949 -95.325378,10.705444 -95.325378,10.705444"/>
  <path fill="none" stroke="#000000" stroke-width="6.1801" stroke-miterlimit="4" stroke-dashoffset="0" id="path2940" d="m434.036499,738.194763c7.769928,17.093811 73.508972,140.864502 87.023132,141.412598c13.514099,0.548035 56.093262,6.297791 59.828369,6.99292c4.583252,0.852966 25.640686,10.877869 25.640686,10.877869c0,0 -16.316772,-20.201782 -21.755737,-20.201782c-5.438965,0 -45.842529,-15.539856 -48.9505,-20.201782c-33.231903,-38.494019 -64.107971,-102.403442 -73.037231,-127.426697"/>
  <path fill="none" stroke="#000000" stroke-width="6.1801" stroke-miterlimit="4" stroke-dashoffset="0" id="path2932" d="m577.846497,562.67157c-15.567932,67.149658 -14.772034,91.31665 -58.674438,137.384094c-2.862183,8.586548 -31.483917,48.656921 -41.501495,50.088013c-10.017578,1.431091 -41.501465,0 -48.656891,-5.724365c-7.155396,-5.724304 -24.32843,-48.65686 -34.346008,-52.950134c-10.017609,-4.293274 -94.451599,-51.519043 -97.313782,-58.674438c-2.862152,-7.155457 -37.208191,-47.22583 -37.208191,-47.22583"/>
  <path fill="none" stroke="#000000" stroke-width="6.1801" stroke-miterlimit="4" stroke-dashoffset="0" id="path3665" d="m630.780823,384.135681c-2.022949,105.194305 -69.623047,103.813019 -85.976074,158.802856c-7.970581,26.802429 -182.476074,51.069092 -204.319611,43.493774c-12.088043,-4.192139 -71.815277,-2.022949 -71.815277,-14.160767c0,-12.137817 138.573212,-48.551208 138.573212,-48.551208c0,0 -127.446869,43.493774 -131.492828,28.321533c-4.045929,-15.172241 118.343536,-55.631531 118.343536,-55.631531c0,0 -91.033508,37.424866 -93.056458,17.19519c-2.022949,-20.229675 75.861237,-37.424866 75.861237,-37.424866c0,0 -71.815308,17.19519 -68.780853,4.045898c3.034454,-13.149261 49.562683,-19.21814 49.562683,-19.21814c0,0 -26.298553,-2.02301 -25.287079,-9.103394c1.011475,-7.080383 68.763275,-23.727325 68.763275,-23.727325l79.924713,69.244141"/>
  <path fill="none" fill-rule="evenodd" stroke="#000000" stroke-width="1.514968" stroke-miterlimit="4" stroke-dashoffset="0" id="path3295" d="m409.756683,482.512573c-85.014587,23.099792 -96.460541,27.921661 -91.549713,36.012695c10.331207,17.021606 122.466064,-12.495789 122.443512,-12.548187"/>
  <path fill="none" fill-rule="evenodd" stroke="#000000" stroke-width="1.514968" stroke-miterlimit="4" stroke-dashoffset="0" d="m411.283752,432.882751c-85.014587,23.099792 -96.460541,27.921631 -91.549683,36.012726c10.331177,17.021606 122.466034,-12.495789 122.443481,-12.548248" id="path3297"/>
  <path fill="none" stroke="#000000" stroke-width="2.060033" stroke-miterlimit="4" stroke-dashoffset="0" id="path3279" d="m452.720917,532.165894c-111.358276,27.684021 -126.469635,33.857117 -120.689972,45.725342c12.158875,24.96759 158.975372,-10.188538 158.949951,-10.264893"/>
  <path fill="none" stroke="#000000" stroke-width="6.248893" stroke-miterlimit="4" stroke-dashoffset="0" id="path3673" d="m659.071777,399.294952c0,69.881683 -71.226685,147.119415 -105.611938,147.119415c-34.385315,0 -158.827332,-33.101868 -167.014313,-91.949646c-8.186951,-58.847778 126.079437,-73.559753 126.079437,-73.559753"/>
  <path fill="none" stroke="#000000" stroke-width="2.060033" stroke-miterlimit="4" stroke-dashoffset="0" id="path2505" d="m497.545471,382.464722l-57.789063,38.131348l78.867859,-7.342041l-29.368195,27.236633l104.446625,-13.736755l-54.710144,47.841736l66.552185,-12.789368l-11.605225,41.210266l33.394531,-15.157837"/>
  <path fill="none" stroke="#000000" stroke-width="2.060033" stroke-miterlimit="4" stroke-dashoffset="0" id="path3277" d="m427.440704,406.38562l-28.184021,35.762878l54.23645,-0.473663l-27.47348,29.841888l78.867859,0.71051l-31.97345,36.47345l82.183655,-6.394714l-20.84198,32.684021l49.499634,-2.605286"/>
  <path fill="none" stroke="#000000" stroke-width="8.602464" stroke-miterlimit="4" stroke-dashoffset="0" id="path3607" d="m706.913818,211.120682c26.81189,-9.030914 16.800171,-50.213272 16.800171,-50.213272l-15.665344,-16.556702l-48.201111,27.46904l5.422607,22.577301c0,0 15.434326,20.862823 41.643677,16.723633z"/>
  <path fill="none" stroke="#000000" stroke-width="6.1801" stroke-miterlimit="4" stroke-dashoffset="0" id="path3619" d="m621.462891,83.60675c-62.256958,36.259521 -70.000061,55.154449 -79.578064,74.310425c-9.578003,19.155991 -28.049866,81.412949 -39.680237,93.04335c-11.630432,11.630417 -21.208435,16.419418 -21.208435,16.419418l33.52301,-11.630417l-4.104858,46.521652c11.916443,-14.619324 18.416077,-30.012482 21.892517,-45.837524l8.89386,59.520386c4.185608,-18.820251 11.663391,-33.250977 26.68158,-37.627808l1.368286,42.416809c17.809509,-0.42334 29.845154,-9.507538 35.575378,-28.049835l-1.368286,55.415497c6.18219,-12.492798 14.16156,-21.391235 28.734009,-17.103516c5.518921,29.570496 1.796936,43.739441 -3.420715,55.415527l21.208374,-9.578003l-2.052429,34.207123c0,0 23.944946,-32.838837 22.576721,-42.41687c-1.368347,-9.577942 -10.946289,-17.787659 -8.209717,-28.733917c5.714294,-22.8573 18.471863,-71.834961 14.366943,-84.833664c-4.104797,-12.998688 -29.418091,-105.35791 -29.418091,-105.35791l-25.779846,-66.100708l0,-0.000015z"/>
  <path fill="none" stroke="#000000" stroke-width="6.1801" stroke-miterlimit="4" stroke-dashoffset="0" id="path3589" d="m700.790955,94.195862c-11.290283,-22.101486 -62.26593,-18.806351 -80.122192,-10.599823c-18.232422,8.379425 -30.552429,42.087524 -30.552429,42.087524l26.187805,-17.458527l-23.07019,38.346405l23.381958,-16.523239l-21.511414,53.934357l23.070251,-27.746567l-7.482239,33.358261l9.664551,-15.276215l-1.24707,35.540588l16.835022,-27.123077l4.988159,49.8815l5.611633,-20.576111l9.664551,34.293518l4.052856,-32.422974l14.340942,33.358276c0,0 -8.105713,-36.475861 -7.482178,-44.269836c0.623474,-7.794006 0.561279,-22.603455 11.717834,-33.745392c4.403015,-4.397232 24.606873,-11.87851 39.704956,-14.045227c19.408081,-2.785263 19.582947,-19.53334 19.582947,-19.53334l-37.335754,-41.480103z"/>
  <path fill="none" stroke="#000000" stroke-width="4.120067" stroke-miterlimit="4" stroke-dashoffset="0" id="path3651" d="m663.973206,106.073715c-6.459229,0 -25.433167,6.459229 -25.433167,19.781326c0,13.322113 17.359192,35.121948 20.588745,35.121948c3.229614,0 8.074036,-2.825897 12.514709,-2.825897c4.440735,0 8.074036,8.881409 8.074036,8.881409l20.184998,-10.092499l-4.036987,-22.203537l12.111023,-11.303619c0,0 -21.799866,-17.762833 -44.003357,-17.359131z"/>
  <path fill="none" stroke="#000000" stroke-width="6.1801" stroke-miterlimit="4" stroke-dashoffset="0" id="path2806" d="m704.259644,137.726517c10.033264,-7.020065 9.662231,-21.168701 15.767029,-17.784256c31.249268,17.32428 44.006226,45.884399 31.812927,45.248276c-11.906372,-0.62114 -12.345093,-5.731613 -14.990417,-5.731613c-2.645386,0 -28.878601,-1.322678 -28.878601,-1.322678l-3.710938,-20.409729z"/>
  <path fill="none" stroke="#000000" stroke-width="6.1801" stroke-miterlimit="4" stroke-dashoffset="0" id="path3603" d="m650.607361,74.456757c-6.409912,-11.666031 -19.290405,-50.032547 -15.319336,-51.205605c12.031799,9.234955 14.095398,15.914619 24.317993,20.624519c0,0 3.097839,-28.719551 5.721069,-32.029945c5.820313,3.971794 16.508667,36.678307 16.508667,36.678307c0,0 18.153992,-39.395096 23.328125,-45.433983c5.884583,5.683662 -0.437073,60.456337 -0.437073,60.456337c0,0 16.941101,-32.001816 23.936951,-34.666016c3.621155,7.63739 2.222473,37.062576 2.222473,37.062576c11.12207,-16.138153 7.622253,-3.342422 11.933838,-6.149216c7.94342,19.244827 6.588196,54.080673 -14.713806,62.471329c-18.083191,3.759445 -73.870667,-30.876663 -77.498901,-47.808304z"/>
  <path fill="none" fill-rule="evenodd" stroke-width="0" d="m681.923279,126.972015c0,7.347321 -6.281067,13.303452 -14.029053,13.303452c-7.748108,0 -14.029175,-5.956131 -14.029175,-13.303452c0,-7.34726 6.281067,-13.303459 14.029175,-13.303459c7.747986,0 14.029053,5.9562 14.029053,13.303459z" id="path3601"/>
  <path fill="none" fill-rule="evenodd" stroke-width="0" id="path3643" d="m680.228638,126.862312c0,6.539925 -5.59082,11.841545 -12.487366,11.841545c-6.896667,0 -12.487488,-5.30162 -12.487488,-11.841545c0,-6.539864 5.59082,-11.841537 12.487488,-11.841537c6.896545,0 12.487366,5.301674 12.487366,11.841537z"/>
  <path fill="none" fill-rule="evenodd" stroke-width="0" d="m677.12207,126.650932c0,4.707436 -4.159058,8.523537 -9.289429,8.523537c-5.130493,0 -9.289551,-3.816101 -9.289551,-8.523537c0,-4.707397 4.159058,-8.523544 9.289551,-8.523544c5.130371,0 9.289429,3.816147 9.289429,8.523544z" id="path3645"/>
  <path fill="none" fill-rule="evenodd" stroke-width="3" id="path3647" d="m662.901794,117.254211c1.981445,9.555054 8.667114,9.496353 16.885132,7.34613c-9.317444,-0.55983 -11.940002,-1.150375 -16.885132,-7.34613z"/>
  <path fill="none" stroke="#000000" stroke-width="2.060033" stroke-miterlimit="4" stroke-dashoffset="0" id="path3649" d="m753.199646,164.452805c0,0 -13.131165,-12.560211 -23.621765,-15.985733c-10.490601,-3.425507 -24.264038,-10.276535 -24.264038,-10.276535"/>
  <path fill="none" fill-rule="evenodd" stroke-width="0" d="m106.514893,421.118683c-78.386286,-23.640289 -105.759265,-8.709564 -103.270815,-2.488464c2.48846,6.2211 103.270815,23.640289 103.270815,23.640289c0,0 -88.340075,-14.930725 -88.340075,7.465363c0,22.396088 120.689959,9.953827 120.689959,9.953827c0,0 -90.828548,18.66333 -77.142033,41.059479c13.686497,22.396088 128.155323,-29.861481 128.155323,-29.861481" id="path3283"/>
  <path fill="none" stroke="#000000" stroke-width="6.1801" stroke-miterlimit="4" stroke-dashoffset="0" id="path3281" d="m106.514893,421.118683c-78.386286,-23.640289 -105.759265,-8.709564 -103.270815,-2.488464c2.48846,6.2211 103.270815,23.640289 103.270815,23.640289c0,0 -88.340075,-14.930725 -88.340075,7.465363c0,22.396088 120.689959,9.953827 120.689959,9.953827c0,0 -90.828548,18.66333 -77.142033,41.059479c13.686497,22.396088 128.155323,-29.861481 128.155323,-29.861481"/>
  <path fill="none" fill-rule="evenodd" stroke="#000000" stroke-width="2.060033" stroke-miterlimit="4" stroke-dashoffset="0" d="m141.606949,431.628174c-109.886961,33.044312 -124.681631,39.941956 -118.334032,51.516327c13.353739,24.349457 158.295443,-17.875275 158.266344,-17.950287" id="path3293"/>
  <path fill="none" stroke="#000000" stroke-width="6.1801" stroke-miterlimit="4" stroke-dashoffset="0" id="path2916" d="m244.046814,343.502869c-87.438309,-3.924561 -122.492157,-241.437271 -169.151222,-223.239288c-26.003666,7.888275 99.779549,211.392365 99.779549,211.392365c0,0 -90.701813,-177.792923 -115.472641,-170.715393c-35.134882,10.038742 76.148285,193.767609 76.148285,193.767609c0,0 -91.870995,-176.190628 -109.618557,-165.433548c-17.74755,10.757111 67.58218,176.281662 67.58218,176.281662c0.006203,-0.004028 -67.949329,-126.134354 -84.36765,-107.815247c-16.41833,18.319092 74.875585,143.071533 74.875585,143.071533c0,0 -71.210726,-90.172974 -79.071895,-73.221252c-8.1395,17.55191 58.731692,100.341522 58.731692,100.341522c0,0 61.020554,63.732605 138.313271,50.172455c77.292725,-13.56015 77.292725,-13.56015 77.292725,-13.56015"/>
  <path fill="none" stroke="#000000" stroke-width="6.1801" stroke-miterlimit="4" stroke-dashoffset="0" id="path2491" d="m356.864716,804.23938c0,0 -28.130035,10.837708 -30.433472,15.957153c-2.303436,5.119446 -4.748169,12.794128 -4.748169,12.794128c0,0 14.085999,-4.980469 14.75293,-9.406372c0.666931,-4.425903 35.864441,-3.474548 35.864441,-3.474548"/>
  <path fill="none" fill-rule="evenodd" stroke="#000000" stroke-width="2.060033" stroke-miterlimit="4" stroke-dashoffset="0" d="m115.575272,344.8797c-72.853188,-88.653748 -84.921236,-99.645676 -93.153805,-89.326614c-17.31921,21.708603 77.518932,139.168198 77.576923,139.112442" id="path3289"/>
  <path fill="none" fill-rule="evenodd" stroke="#000000" stroke-width="2.060033" stroke-miterlimit="4" stroke-dashoffset="0" id="path3291" d="m148.59996,339.381439c-59.14521,-98.330643 -69.481201,-110.965012 -79.130638,-101.956924c-20.299984,18.950729 56.394165,148.985519 56.459671,148.938766"/>
  <path fill="none" stroke="#000000" stroke-width="6.1801" stroke-miterlimit="4" stroke-dashoffset="0" id="path2920" d="m305.009979,414.950958c0,0 -124.867874,23.784332 -129.822937,13.874176c-4.955078,-9.910156 50.541733,-13.874176 50.541733,-13.874176c0,0 -69.822266,11.585358 -72.34407,1.982025c-2.53392,-9.649536 67.388992,-17.838287 67.388992,-17.838287c0,0 -73.384048,-0.215424 -73.335083,-13.874207c0.049011,-13.658722 52.523788,-8.919159 52.523788,-8.919159c0,0 -61.629349,-5.046783 -62.433945,-22.793335c-0.796204,-17.56192 61.442917,7.928162 61.442917,7.928162c0,0 -65.384521,-29.948639 -56.633469,-42.127441c9.407532,-13.092346 68.52565,32.217255 68.52565,32.217255c0,0 -62.612411,-42.890656 -50.541733,-54.505768c11.969864,-11.518127 26.757385,11.892151 36.667542,21.802307c9.910141,9.910156 43.196533,7.354767 55.074112,7.700348c11.293365,0.328644 67.480316,26.615326 67.480316,26.615326"/>
 </g>
</svg>
